<?xml version="1.0" encoding="utf-8"?>
<svg xmlns="http://www.w3.org/2000/svg" width="842" height="596" viewBox="26.811 53.664 815.883 515.635" xmlns:bx="https://boxy-svg.com">
  <defs>
    <linearGradient id="gradient-12" bx:pinned="true">
      <stop offset="0" style="stop-color: rgb(64, 119, 72);"/>
    </linearGradient>
    <linearGradient id="gradient-12-0" href="#gradient-12" gradientUnits="userSpaceOnUse" x1="448.524" y1="297.534" x2="448.524" y2="343.088"/>
    <linearGradient id="gradient-12-1" href="#gradient-12" gradientUnits="userSpaceOnUse" x1="481.853" y1="298.269" x2="481.853" y2="351.2"/>
    <linearGradient id="gradient-12-2" href="#gradient-12" gradientUnits="userSpaceOnUse" x1="511.878" y1="288.63" x2="511.878" y2="349.334"/>
    <linearGradient id="gradient-12-3" href="#gradient-12" gradientUnits="userSpaceOnUse" x1="415.318" y1="414.285" x2="415.318" y2="490.823"/>
    <linearGradient id="gradient-12-4" href="#gradient-12" gradientUnits="userSpaceOnUse" x1="525.372" y1="405.719" x2="525.372" y2="424.184"/>
    <linearGradient id="gradient-12-5" href="#gradient-12" gradientUnits="userSpaceOnUse" x1="500.362" y1="418.671" x2="500.362" y2="485.319"/>
  </defs>
  <g>
    <path d="M 602 553.58 C 587.73 556.62 574.07 554 568.29 547.13 C 566.47 544.98 564.575 543.23 564.545 537.49 C 564.505 530.99 566.28 530.05 569.95 524.43 C 574.33 517.74 582.01 510.21 587.95 506.79 C 591.46 504.77 591.89 504.07 592.47 499.41 C 592.82 496.57 593.01 489.62 592.88 483.95 L 592.65 473.64 L 584.08 465.34 C 574.19 455.76 569.81 453.65 556.38 451.99 C 545.4 450.62 528.53 452.13 515.03 455.69 C 496.27 460.63 494.39 460.97 486 460.97 C 463.25 460.97 447.01 451.26 447 437.64 C 447 430.58 451.54 422.77 461.32 413.05 C 468.33 406.07 469.87 405 472.89 405 L 476.38 405 L 466.32 415.25 C 452.03 429.81 449.07 437.03 454.25 444.71 C 456.95 448.72 465.77 453.4 473.77 455.06 C 482.23 456.81 497.72 455.68 508 452.56 C 521.79 448.36 532.46 446.73 546.5 446.68 C 566.04 446.61 574.82 449.41 585.4 459.08 C 588.52 461.93 591.35 463.98 591.7 463.63 C 592.05 463.28 592.54 460.53 592.79 457.52 C 593.04 454.51 593.78 451.6 594.43 451.06 C 595.08 450.52 599.31 449.77 603.84 449.39 C 608.36 449.02 612.28 448.36 612.54 447.94 C 612.8 447.51 610.65 446.39 607.76 445.45 C 604.87 444.5 599.31 442.23 595.4 440.39 C 584.81 435.41 582.98 433.14 564.96 402.71 C 561.44 396.77 556.47 389.56 553.9 386.68 C 542.34 373.7 527.24 371.62 509.46 380.55 C 498.81 385.9 493 390.16 493 392.63 C 493 395.2 485.03 399.4 475 402.12 C 467.71 404.1 450.76 404.51 442.5 402.91 C 439.75 402.38 431.88 401.55 425 401.06 C 418.12 400.57 410.7 399.52 408.5 398.72 C 404.53 397.28 404.47 397.29 400.75 400.63 C 397.33 403.7 396.43 404 390.75 403.99 C 381.49 403.99 377.54 402.56 373.76 397.85 C 371.97 395.62 368.48 392.65 366 391.26 C 363.52 389.86 358.58 387.02 355 384.95 C 349.44 381.72 343.43 379.91 313.58 372.46 C 280.39 364.17 278.6 363.83 277.33 365.56 C 275.1 368.62 275.79 369.86 281.25 372.63 C 294.19 379.18 326.48 401.58 334.51 409.58 C 346.96 421.97 347.22 433.45 335.7 460.7 C 331.68 470.2 329.32 473.5 323.98 477.11 C 319.87 479.89 305.44 500.29 306.44 501.91 C 306.75 502.41 313.52 506.48 321.48 510.96 C 340.07 521.41 342.2 523.17 341.8 527.78 C 341.59 530.27 340.67 531.92 338.68 533.4 C 334.44 536.56 315.79 536.83 293.15 534.08 C 264.01 530.53 262 529.64 262 520.29 C 262 514.86 263.68 510.48 268.6 503.02 C 270.92 499.51 276.98 482.02 276.99 478.81 C 277 477.88 277.45 476.84 278 476.5 C 279.57 475.53 279.17 468.68 277.39 466.14 C 275.05 462.81 275.93 453.85 279.23 447.31 C 281.25 443.33 281.57 441.89 280.64 441.11 C 279.59 440.25 254.68 431.5 230.21 423.41 L 222.93 421 L 218.21 423.41 C 213.22 425.97 204.8 431.87 185.4 446.43 C 178.86 451.33 169.23 458.51 164 462.38 C 158.77 466.24 150.4 473.31 145.38 478.08 C 136.17 486.84 132.82 488.69 123 490.47 C 121.07 490.81 117.03 492.88 114 495.06 C 110.97 497.23 105.98 500.78 102.89 502.95 C 95.57 508.09 94 511.48 94 522.18 C 94 532.1 92.9 534.21 86.13 537.26 C 79.2 540.4 64.71 540.34 56.3 537.15 C 49.23 534.46 46.54 531.32 46.75 526 C 47.05 518.14 51.47 511.86 64.06 501.38 C 68.39 497.78 72.56 493.16 74.81 489.46 C 76.84 486.14 79.06 482.54 79.74 481.46 C 80.42 480.38 81.95 477.7 83.13 475.5 C 84.31 473.3 86.51 469.69 88.03 467.48 C 91.34 462.65 93.98 456.55 94.04 453.63 C 94.14 448.43 98.98 443.04 110.64 435.14 C 114.01 432.85 117.22 430.42 117.77 429.74 C 118.33 429.06 122.36 421.52 126.74 413 C 141.52 384.2 150.29 370.94 163.12 357.93 C 168 352.98 172 348.31 172 347.55 C 172 346.78 170.54 345.84 168.76 345.45 C 164.38 344.48 161.18 342.25 159.48 338.96 C 158.37 336.81 156.91 335.96 152.78 335.04 C 149.88 334.4 145.7 333.27 143.5 332.53 C 141.3 331.78 137.83 330.9 135.78 330.55 C 133.73 330.2 130.7 328.77 129.03 327.37 C 126.36 325.13 126.01 324.21 126.04 319.66 C 126.09 313.86 127.94 307.82 130.56 304.93 C 132.66 302.61 137.31 302.44 144.75 304.42 C 151.5 306.22 152.6 304.76 147.64 300.59 C 130.69 286.35 121.37 275.69 115.78 264.15 C 111.8 255.94 111.74 255.66 112.23 247.12 C 112.95 234.51 116.23 229.51 127 224.61 C 139.56 218.91 172.01 214.6 203 214.54 C 226.96 214.5 228.23 214.73 243.6 222.15 C 250.42 225.45 252.12 225.9 254.35 225.06 C 255.81 224.5 257 223.54 257 222.91 C 257 222.28 255.38 218.33 253.39 214.13 C 246.5 199.56 244.91 194.18 244.29 183.28 C 243.7 172.8 244.7 164.92 247.76 155.85 L 249.32 151.2 L 244.54 145.6 C 241.91 142.52 239.43 140 239.03 140 C 238.63 140 236.51 141.3 234.32 142.88 C 230.12 145.92 225.21 152.2 220.53 160.5 C 212.21 175.26 197.53 187.89 185.72 190.45 C 184.5 190.72 181.72 191.37 179.55 191.91 C 177.38 192.44 170.41 192.73 164.05 192.54 C 148.92 192.1 140.73 189.55 128 181.34 C 121.62 177.22 115.45 170.98 116.15 169.34 C 116.34 168.88 120.1 168.45 124.5 168.39 C 133.37 168.26 146 164.86 146 162.59 C 146 161.76 143.67 160.8 139.75 160.04 C 136.31 159.36 131.16 157.71 128.3 156.36 C 119.43 152.17 110.23 139.83 108.44 129.75 C 107.62 125.09 108.29 125.03 116.46 129.06 C 132.94 137.17 149.68 132.47 169.03 114.31 C 186.36 98.04 190.68 95.05 204.79 89.51 C 211.36 86.93 212.39 86.82 225.11 87.22 C 239.12 87.66 240.77 88.1 250.24 93.89 C 253.99 96.19 260.09 103.23 263.13 108.77 C 264.2 110.72 266.73 112.64 270.46 114.35 L 276.16 116.96 L 282.76 113.88 C 286.39 112.18 293.66 109.68 298.93 108.32 C 307.34 106.14 309.96 105.9 320.5 106.34 C 336.15 107 346.57 110.23 357.94 117.97 C 378.91 132.23 391.22 161.25 386.57 185.5 C 385.08 193.31 379.57 212.97 378.02 216.04 C 377.34 217.39 376.62 221.5 375.57 230.04 C 374.97 234.84 370.84 245.35 367.56 250.39 C 362.14 258.72 349.09 269.83 339.75 274.07 C 336.52 275.54 336.32 276.86 338.86 280.12 C 342.11 284.27 345.16 291.09 350.18 305.41 C 357.44 326.14 359.84 330.6 367.7 337.95 C 371.44 341.44 377.52 347.2 381.21 350.74 L 387.93 357.19 L 392.71 355.62 C 396.33 354.44 401.07 354.11 412.16 354.28 L 426.81 354.5 L 430.66 357.61 C 435.36 361.41 437.85 365.49 438.79 370.97 C 439.7 376.3 440.64 376.77 460 381.48 C 468.52 383.56 477.75 386.1 480.5 387.13 C 483.25 388.16 486.09 389 486.82 389 C 487.55 389 490.25 387.27 492.82 385.15 C 499.33 379.78 507.12 375.61 516.5 372.46 C 535.5 366.08 551.35 372.68 564.63 392.5 C 566.84 395.8 571.85 404.12 575.76 411 C 584.84 426.96 588.55 431.25 596.87 435.41 C 606.5 440.24 626.73 446.69 628.39 445.48 C 629.12 444.94 630.82 443.72 632.17 442.76 C 633.52 441.8 638.73 440.16 643.75 439.1 C 648.77 438.05 653.35 436.9 653.94 436.54 C 655.59 435.52 655.28 423.48 653.57 422.06 C 652.78 421.4 649.74 420.67 646.82 420.42 C 643.89 420.17 632.95 419.27 622.5 418.43 C 590.85 415.87 587.57 415.14 586.37 410.34 C 585.6 407.29 586.7 378.71 588.11 365 C 588.64 359.77 589.71 348.98 590.48 341 C 592.9 315.87 593.92 305.93 595.67 290.5 C 597.91 270.73 597.82 270.84 614.5 269.18 C 621.1 268.53 632.8 267.33 640.5 266.52 C 683.4 262 741.26 257.61 749.06 258.29 C 756.35 258.93 766.39 263.94 769.03 268.28 C 771.18 271.82 771.65 279.15 770 283.5 C 769.37 285.17 769.34 286.78 769.94 287.89 C 770.46 288.86 779.75 296.37 790.58 304.57 C 801.41 312.78 810.87 320.39 811.59 321.5 C 813.7 324.72 814.14 330.86 812.96 340.5 C 812.36 345.45 811.68 352.2 811.46 355.5 C 810.25 373.51 808.41 391.94 807.75 392.59 C 807.34 393 807 394.98 807 396.99 C 807 400.7 804.9 403.54 800.5 405.76 C 799.4 406.32 790.4 408.2 780.5 409.94 C 770.6 411.69 761.74 413.33 760.82 413.6 C 759.9 413.87 758.82 415.53 758.44 417.28 C 756.54 425.91 753.02 427.45 737.41 426.47 L 725.73 425.74 L 726.46 430.62 C 726.85 433.3 727.82 436.22 728.61 437.1 C 729.39 437.98 733.96 439.52 738.77 440.52 C 745.89 442.01 748.02 442.9 750.32 445.35 C 753.05 448.26 753.68 448.42 771.15 450.6 C 784.51 452.26 789.66 453.29 791.08 454.58 C 792.9 456.22 793 458.11 793 492.5 C 793 526.9 792.91 528.78 791.08 530.43 C 789.25 532.08 777.25 534.4 736.5 540.96 C 729.9 542.02 717.53 544.07 709 545.52 C 699.61 547.11 691.13 547.99 687.5 547.76 C 682.92 547.47 647.54 539.02 635.83 535.43 C 634.77 535.1 631.98 536.87 628.12 540.32 C 621.06 546.61 611.18 551.63 602 553.58 Z M 697.5 416.95 C 735.46 419.48 735.66 419.48 737.34 416.75 C 738.25 415.27 739.63 403.93 741.4 383.5 L 741.56 381.6 C 751 272.24 751.34 268.32 749.68 265.63 C 749.61 265.52 749.53 265.41 749.45 265.29 C 749.15 264.83 748.98 264.45 748.73 264.14 C 747.47 262.64 744.09 262.92 713.57 265.44 C 711.06 265.65 708.38 265.87 705.5 266.11 C 692.3 267.2 676.1 268.53 669.5 269.06 C 636.21 271.77 605.34 275.23 603.4 276.49 C 601.06 278.01 601.26 276.65 598.02 311.74 C 592.77 368.62 590 400.54 590 404.12 C 590 407.25 590.45 408.23 592.25 408.96 C 594.62 409.92 606.96 410.97 646.5 413.57 C 659.7 414.43 682.65 415.96 697.5 416.95 Z M 728.49 402.25 C 727.87 403.8 726.36 403.98 715.14 403.8 C 681.71 403.26 602.91 399.9 600.25 398.9 C 599.77 398.71 599.37 398.58 599.06 398.33 C 597.57 397.18 597.91 393.69 599.93 372.49 L 600.02 371.5 C 601.12 359.95 602.48 345.33 603.04 339 C 607.1 293.1 607.82 286.75 609.14 285.43 C 609.97 284.6 614.53 283.64 620.51 283.05 C 639.85 281.12 674.67 278.1 690 277.01 C 698.53 276.41 711.04 275.48 717.8 274.96 C 724.57 274.43 732.18 274 734.71 274 L 739.3 274 L 738.68 286.25 C 737.53 308.93 729.57 399.59 728.49 402.25 Z M 693 397.33 C 696.29 397.41 699.24 397.49 701.88 397.56 C 717.52 397.98 722.43 398.11 723.96 395.9 C 724.66 394.89 724.65 393.39 724.64 391.21 C 724.64 390.4 724.63 389.5 724.66 388.5 C 724.78 384.65 725.09 380.82 725.36 380 C 725.81 378.6 728.83 342.9 728.87 338.5 C 728.88 337.4 729.32 332.67 729.84 328 C 731.36 314.58 733.39 281.06 732.73 280.39 C 731.63 279.29 615.08 288.52 613.79 289.81 C 613.17 290.43 611.12 310.79 611.16 316 C 611.18 318.92 608 355.56 607.39 359.4 C 606.51 365 606.15 369.01 605.39 382.1 L 604.72 393.7 L 608.61 394.3 C 611.97 394.82 660.63 396.57 693 397.33 Z M 114.31 479.56 C 123.94 484.05 128.68 482.56 141.65 470.97 C 146.87 466.31 156.91 458.23 163.98 453 C 190.26 433.56 209.07 418.68 208.3 417.93 C 207.86 417.51 206.38 417.02 205 416.83 C 204.32 416.74 203.79 416.68 203.76 416.53 C 203.68 416.1 207.51 414.94 223.01 410.23 L 224.5 409.78 C 233.43 407.07 244.49 401.85 265.13 390.62 C 268.78 388.63 274.25 386.44 277.28 385.75 C 280.32 385.06 282.92 384.05 283.07 383.5 C 283.21 382.95 280.57 381.02 277.19 379.21 C 271.41 376.11 270.89 376 268.21 377.39 C 266.64 378.2 261.59 379.63 256.99 380.56 C 249.74 382.03 247.1 382.1 237.07 381.1 C 214.62 378.85 190.78 369.72 180.5 359.43 C 178.61 357.54 176.59 356 176.01 356 C 174.21 356 159.58 371.16 154.78 378 C 144.67 392.42 131.97 415.31 120.95 439 L 116.53 448.5 L 116.21 444.25 C 116.03 441.91 115.71 440 115.49 440 C 113.86 440 102.12 449.43 101.18 451.5 C 99.55 455.07 99.69 466.5 101.4 469.8 C 103.12 473.1 107.43 476.36 114.31 479.56 Z M 246 312.67 C 246 314.52 246.51 316 247.16 316 C 248.18 316 254.7 311.58 256 310 C 256.27 309.67 258.08 308.44 260 307.27 C 261.92 306.1 264.82 303.76 266.44 302.07 L 269.38 299 L 265.06 289.75 C 256.95 272.37 251.14 254.19 249.48 241 C 248.66 234.42 246.77 232.09 238.5 227.46 C 228.88 222.08 222.94 221 203.04 221 C 193.39 221 181.45 221.45 176.5 221.99 C 171.55 222.53 163 223.47 157.5 224.08 C 134.57 226.62 125.48 229.81 120.44 237.09 C 117.88 240.79 117.51 242.2 117.58 247.92 C 117.67 254.92 119.34 259.22 125.35 268 C 129.43 273.96 135.11 280 136.63 280 C 137.3 280 138.36 278.45 138.98 276.56 C 141.69 268.34 149.97 262.15 159.55 261.16 L 165.99 260.5 L 161.06 253 C 158.35 248.88 154.29 243.59 152.03 241.25 C 149.77 238.91 148.5 237.01 149.21 237.02 C 155.05 237.12 166.88 247.81 172.85 258.38 C 175.86 263.73 176.21 264 179.98 264 C 182.16 264 188.57 264.65 194.22 265.44 C 199.87 266.23 207.57 267.17 211.33 267.53 C 217.96 268.16 218.1 268.23 216.43 270.08 C 215.48 271.13 213.02 272.73 210.96 273.64 C 207.56 275.14 207.12 275.8 206.11 280.81 C 205.5 283.85 205 288.68 205 291.55 L 205 296.78 L 210.75 300.16 C 214.66 302.46 217.58 305.19 219.89 308.67 L 223.27 313.8 L 226.72 310.65 C 231.49 306.3 233.94 305.08 237.94 305.04 C 242.54 304.99 246 308.26 246 312.67 Z M 692.76 540.89 C 693.56 541.33 696.31 541.31 698.86 540.83 C 706.43 539.41 736.83 534.16 761.81 529.96 C 774.64 527.8 785.55 525.78 786.06 525.46 C 786.61 525.12 787 511.52 787 492.44 L 787 460 L 782.96 460 C 780.74 460 770.95 461.1 761.21 462.45 C 751.47 463.79 732.25 466.34 718.5 468.11 C 704.75 469.88 693.21 471.59 692.86 471.92 C 692.51 472.24 692.01 487.7 691.76 506.29 C 691.37 535.15 691.52 540.19 692.76 540.89 Z M 664.5 536.55 C 677.54 539.78 685.88 541.4 686.5 540.82 C 687.12 540.26 687.63 526.87 687.84 506.01 L 688.18 472.13 L 684.34 471.1 C 682.23 470.54 676.54 469.39 671.71 468.55 C 656.71 465.96 637.15 461.24 640.78 461.09 C 642.03 461.04 652.6 462.39 664.28 464.08 C 675.95 465.78 687.99 467.14 691.03 467.11 C 694.07 467.08 709.6 465.28 725.53 463.11 C 741.46 460.94 758.92 458.61 764.32 457.95 C 769.72 457.28 773.77 456.39 773.32 455.98 C 771.97 454.73 752.63 453.09 751.37 454.12 C 750.75 454.63 737.92 456.68 722.87 458.68 L 695.5 462.31 L 683.5 460.61 C 676.9 459.67 660.99 457.3 648.14 455.34 L 624.78 451.76 L 611.14 453.13 L 597.5 454.5 L 597.5 469.5 L 603 469.34 C 606.03 469.26 611.05 468.87 614.16 468.48 C 618.92 467.88 620.5 468.12 624.16 469.98 C 635.93 475.97 640.29 492.24 633.29 504.08 C 631.72 506.74 631.72 507.04 633.3 508.78 C 635.65 511.37 639 521.56 639 526.09 C 639 526.43 638.99 526.74 638.98 527.02 C 638.95 527.69 638.93 528.21 639.09 528.68 C 639.78 530.63 643.76 531.41 664.5 536.55 Z M 270.24 222.77 C 270.82 223.47 271.44 223.89 271.64 223.7 C 271.83 223.5 272.44 218.66 273 212.92 C 274.63 196.12 276.24 191.5 285.12 178.33 C 290.54 170.29 297.05 164.28 307.69 157.48 C 315.44 152.54 322.55 150.4 321.41 153.37 C 320.47 155.83 322.5 155.38 329.34 151.59 C 332.73 149.71 337.94 147.46 340.93 146.59 C 350.21 143.88 363.02 144.65 372.25 148.49 C 375.44 149.81 374.23 145.53 369.66 139.36 C 354.01 118.23 330.91 108.92 305.21 113.4 C 284.39 117.02 267.59 130.2 258.06 150.38 C 252.98 161.12 251.56 167.55 251.74 179 C 251.97 193.63 255.94 204.86 257.51 195.31 C 258.63 188.52 262 178.1 263.34 177.29 C 264.05 176.86 266.02 174.48 267.72 172 C 269.41 169.52 272.18 166.19 273.86 164.6 L 276.93 161.69 L 272.48 171.6 C 270.04 177.05 267.58 183.93 267.02 186.89 C 264.74 198.9 266.47 218.15 270.24 222.77 Z M 303 471.91 C 312.34 473.49 320.23 471.78 324.14 467.35 C 328.8 462.06 337 438.96 337 431.12 C 337 419.95 331.62 414.26 302.17 394.29 C 296.95 390.75 295.03 390 291.17 390 C 284.94 390 274.87 392.98 267.5 397.01 C 264.2 398.82 256.55 402.97 250.5 406.23 C 238.75 412.58 235.49 414.91 236.73 416.09 C 238.57 417.84 284.39 433.52 297.78 436.99 C 302.37 438.17 302.62 440 298.19 440.01 C 296.71 440.01 293.86 440.47 291.86 441.02 C 288.5 441.96 287.96 442.65 285.1 449.77 C 283.39 454.02 281.99 458.25 281.99 459.17 C 282.01 464.16 291.62 469.99 303 471.91 Z M 146.23 177.11 C 154.08 177.86 158.1 177.4 164.75 174.95 C 177.95 170.11 181.36 167.59 200.98 148.15 C 211.44 137.79 220 128.96 220 128.54 C 220 128.12 218.76 128.03 217.25 128.35 C 208.3 130.23 208 130.24 208 128.78 C 208 127.45 215.43 121.8 220.72 119.09 C 225.6 116.61 233.02 115.94 238.87 117.47 C 244.28 118.88 244.63 118.85 248 116.69 C 249.92 115.45 252.74 113.9 254.25 113.24 C 255.76 112.58 257 111.66 257 111.2 C 257 109.61 249.81 101.97 245.66 99.15 C 234.36 91.47 218.67 90.54 203.41 96.65 C 195.99 99.62 183.51 108.42 177.46 114.96 C 169.78 123.25 167.93 124.99 162.55 128.96 C 152.15 136.64 142.52 139.99 130.75 139.99 C 121.61 140 120.87 141.15 126.93 145.94 C 136.87 153.82 154.41 154.02 171.54 146.44 C 180.57 142.45 181.76 143.13 177.25 149.72 C 171.18 158.59 156.65 169.42 146.75 172.44 C 142.96 173.6 139.89 174.99 139.91 175.52 C 139.94 176.06 142.79 176.77 146.23 177.11 Z M 360.02 228.26 C 362.77 229.34 367.75 229.01 368.86 227.67 C 371.38 224.63 370.6 210.11 367.7 206.25 C 366.28 204.37 360.92 204.75 357.25 206.99 C 353.57 209.23 353.41 209.05 355.49 205.01 C 357.55 201.03 360.78 199 365.07 199 C 368.93 199 371.25 200.83 372.48 204.85 C 373.45 208.03 374.38 206.68 376.43 199.15 C 378.16 192.82 378.15 192.79 375.92 190.41 C 373.11 187.42 367.91 186.38 363.95 188.02 C 362.29 188.71 360.65 188.98 360.29 188.62 C 359.2 187.53 365.11 182.13 368.11 181.48 C 371.39 180.76 376.68 183.41 377.57 186.22 C 378.31 188.56 380 188.51 380 186.15 C 380 179.32 353.64 171.01 332 171.03 C 318.91 171.04 309.65 172.7 300.95 176.6 C 295.56 179.02 294.57 179.95 291.56 185.4 C 289.71 188.76 287.37 194.14 286.37 197.38 L 284.56 203.25 L 288.53 206.66 C 294.53 211.8 311.37 219.82 320 221.63 C 325.62 222.81 330.4 223.05 339.07 222.58 L 350.65 221.96 L 354.6 224.82 C 356.77 226.39 359.21 227.94 360.02 228.26 Z M 760.64 405.31 C 760.78 405.45 760.89 405.57 761.01 405.67 C 761.62 406.14 762.76 405.94 772.1 404.28 C 772.7 404.17 773.33 404.06 774 403.94 C 780.33 402.82 788.42 401.41 792 400.81 C 795.58 400.22 799.1 399.17 799.83 398.5 C 800.71 397.68 802.11 387.92 804.07 368.89 C 804.51 364.61 804.91 360.76 805.27 357.3 C 808.05 330.47 808.43 326.82 806.78 324.9 C 806.31 324.35 805.67 323.94 804.88 323.17 C 797.19 315.72 773.09 298 770.66 298 C 769.53 298 769.02 299.77 768.57 305.25 C 764.85 350.4 763.79 362.84 762.48 377 C 761.63 386.08 760.72 396 760.44 399.06 C 760.17 402.11 760.26 404.92 760.64 405.31 Z M 335.16 349.68 L 343.5 351.71 L 347 348.46 C 348.92 346.67 352.5 344.21 354.95 342.99 C 359.11 340.9 359.27 340.67 357.5 339.38 C 356.47 338.62 355.03 338 354.31 338 C 352.77 338 352.57 336.39 353.99 335.5 C 354.6 335.13 354.22 333.4 353.02 331.03 C 350.61 326.31 346.89 316.7 342.43 303.63 C 336.84 287.28 331.58 280.29 324.12 279.29 C 319.12 278.62 318.03 279.43 314.43 286.55 C 308.6 298.07 295.24 311.4 278.5 322.38 C 268.05 329.24 268 329.26 268 328.25 C 268 327.77 271.92 324.03 276.71 319.94 C 291.86 307 297.03 301.76 304.71 291.58 C 313.22 280.29 313.83 279.14 311.9 277.91 C 308.65 275.86 305.84 277.13 298.43 284 C 286.31 295.24 264.7 312.83 250.54 323 C 250.37 323.12 250.2 323.24 250.04 323.36 C 248.21 324.67 247.07 325.48 247.15 326.14 C 247.29 327.29 251.02 327.99 261 330.05 C 266.77 331.23 275.49 333.31 280.37 334.65 L 289.25 337.1 L 292.97 334.64 C 299.98 330 307.72 319.49 315.42 304.15 C 317.95 299.12 320.53 295 321.15 295 C 323.1 295 321.34 304.38 317.42 314.96 C 315.13 321.14 313.97 325.73 314.34 327.18 C 314.66 328.45 317.6 333.58 320.87 338.57 L 326.81 347.65 L 335.16 349.68 Z M 318.36 269.62 C 323.38 271.25 330.87 270.59 336.75 267.99 C 342.52 265.44 355.29 255.71 358.79 251.19 C 362.34 246.59 366.28 238.18 365.65 236.52 C 365.38 235.84 363.2 235.06 360.78 234.78 C 358.36 234.51 354.51 233.04 352.19 231.5 L 347.98 228.72 L 339.12 229.93 C 334.25 230.6 328.52 230.84 326.38 230.47 C 320.11 229.4 308.82 225.93 304.5 223.77 C 299.19 221.1 287.58 213.41 286.01 211.51 C 279.59 203.77 279.18 225.99 285.5 239.78 C 288.11 245.49 294.24 253.62 299.42 258.26 C 303.88 262.26 313.55 268.06 318.36 269.62 Z M 319 367.56 C 350.62 375.45 376.94 381.79 377.47 381.63 C 378.45 381.35 383.25 369.92 382.65 369.31 C 382.25 368.92 339.38 357.7 288 344.56 C 267.38 339.28 249.59 334.72 248.47 334.42 C 246.83 333.99 246.08 334.69 244.61 338.03 C 243.6 340.31 242.71 343.6 242.64 345.34 L 242.5 348.5 L 252 350.85 C 257.23 352.15 287.38 359.66 319 367.56 Z M 203.63 347.72 C 204.66 348.47 205.16 348.85 205.69 348.9 C 206.23 348.95 206.81 348.64 207.99 348.01 L 208.15 347.92 C 212.86 345.4 217.94 327.76 216.57 318.65 C 216.18 315.99 214.82 312.75 213.4 311.06 C 210.3 307.38 196.37 299.73 188.73 297.52 C 181.92 295.55 178.54 296.07 171.94 300.13 C 165.85 303.88 164.55 307.03 165.28 316.3 C 165.59 320.26 165.5 325.64 165.08 328.25 C 164.13 334.17 165.55 337.5 169.03 337.5 C 171.23 337.5 171.77 336.65 174.04 329.57 C 177.37 319.16 179.57 318.12 178.62 327.4 C 178.25 331.06 177.69 335.32 177.38 336.87 C 176.74 340.06 178.97 343 182.05 343 C 184.27 343 187.03 338.03 188.99 330.5 C 191.84 319.57 194.02 323.45 191.68 335.3 C 190.44 341.59 190.35 343.6 191.29 344.2 C 195.74 347.03 199.15 342.65 204.5 327.25 C 204.74 326.56 205.4 326 205.97 326 C 207.99 326 207.03 335.39 204.43 340.97 C 202.04 346.12 201.99 346.52 203.63 347.72 Z M 313 527.87 C 323.47 528.75 333 528.14 333 526.59 C 333 525.91 327.5 522.46 320.78 518.93 C 314.06 515.39 306.75 511.27 304.53 509.77 C 302.22 508.2 299.12 507.03 297.25 507.02 C 292.89 506.99 293.03 505.03 297.8 499.73 C 302.14 494.9 308.3 486.34 309.27 483.77 C 310.08 481.61 307.39 480 302.98 480 C 301.25 480 296.95 479.23 293.42 478.29 C 288.86 477.08 286.7 476.9 285.94 477.66 C 285.35 478.25 283.39 483.87 281.58 490.16 C 278.43 501.09 275.49 507.15 270.35 513.33 C 265.31 519.39 268.1 524 276.82 524.01 C 279.94 524.01 287.67 524.74 294 525.63 C 300.33 526.52 308.88 527.53 313 527.87 Z M 580.34 548.04 C 597.65 552.17 626.44 540.42 632.01 526.97 C 633.62 523.1 632.57 519 629.98 519 C 626.78 519 614.5 526 609.47 530.68 C 606.92 533.06 604.53 535 604.17 535 C 603.8 535 601.92 536.38 600 538.06 C 595.84 541.68 593 543.38 593 542.25 C 593 541.8 594.3 540.66 595.9 539.72 C 597.49 538.78 601.15 535.28 604.04 531.96 L 609.28 525.9 L 606.5 523 C 602.21 518.52 598.04 517 590.08 517 C 583.14 517 582.84 517.11 578.56 521.05 C 576.14 523.28 572.67 527.99 570.84 531.53 C 567.61 537.75 567.56 538.03 569.17 540.72 C 571.06 543.89 575.72 546.94 580.34 548.04 Z M 59.87 530.61 C 65.77 532.32 79.76 531.69 83.95 529.53 C 86.52 528.2 87 527.36 87.01 524.22 C 87.02 522.18 87.3 518.82 87.64 516.76 C 88.22 513.26 87.94 512.72 83.38 508.41 C 79.32 504.57 78.92 503.9 81 504.42 C 88.46 506.29 88.8 506.27 91.68 503.52 C 93.23 502.04 97.99 498.09 102.25 494.75 C 106.51 491.41 110 488.33 110 487.91 C 110 487.48 108.99 486.82 107.75 486.43 C 106.51 486.04 102.63 482.76 99.13 479.14 L 92.76 472.56 L 90.55 475.34 C 89.33 476.87 86.4 481.58 84.03 485.81 C 76.8 498.74 73.76 502.61 66.91 507.63 C 59.14 513.33 54.12 519.48 53.34 524.28 C 52.7 528.23 53.15 528.66 59.87 530.61 Z M 745.36 420.23 C 748.71 422.4 751.76 419.67 752.9 413.5 C 753.4 410.75 754.1 404.45 754.44 399.5 C 754.79 394.55 755.52 386 756.06 380.5 C 756.95 371.61 760.45 328.67 763 295.5 C 763.51 288.9 764.21 280.95 764.55 277.84 C 765.09 272.94 764.9 271.9 763.09 270.09 C 761.94 268.94 760.13 268 759.06 268 C 756.83 268 756.73 268.59 755.02 290.5 C 753.61 308.63 751.22 337.84 750.51 345.5 C 750.21 348.8 749.29 360.05 748.46 370.5 C 747.63 380.95 746.34 396.25 745.59 404.5 C 744.57 415.69 744.51 419.69 745.36 420.23 Z M 225.5 373.08 C 235.34 375.39 258.61 375.3 263.41 372.93 C 266.56 371.38 269.45 367.83 270.48 364.25 C 271.13 362.01 271.08 362 259.82 361.98 C 253.59 361.97 245.35 361.3 241.5 360.48 L 240.93 360.36 C 235.59 359.23 233.61 358.81 232.34 359.57 C 231.55 360.04 231.03 360.97 230.15 362.47 C 227.86 366.35 224.73 367.55 219.45 366.56 C 215.41 365.8 212.01 361.32 212 356.75 C 212 355.24 211.88 354 211.74 354 C 211.6 354 209.97 354.44 208.11 354.97 C 205.45 355.73 203.74 355.53 200.11 354.05 C 197.58 353.02 192.45 351.92 188.72 351.62 C 182.3 351.1 182 351.17 183.22 352.89 C 188.32 360.14 205.67 368.43 225.5 373.08 Z M 620.5 500.3 C 626.42 502.47 627.93 502.32 629.02 499.43 C 630.44 495.71 630.22 486.45 628.63 482.72 C 625.48 475.33 619.63 472.48 611.85 474.55 C 608.91 475.34 604.36 475.98 601.75 475.99 L 597 476 L 597 501.26 L 601.25 500.6 C 612.01 498.93 616.59 498.86 620.5 500.3 Z M 153.14 294.63 C 156.64 297.52 159.79 299.92 160.14 299.95 C 160.49 299.98 162.97 298.18 165.64 295.97 C 168.31 293.75 172.64 291.17 175.25 290.23 C 177.86 289.3 180 288.02 180 287.39 C 180 286.15 171.54 271.52 169.28 268.86 C 165.82 264.79 154.6 266.08 149.33 271.17 C 146.76 273.66 146.04 275.31 145.5 280.04 C 145.11 283.36 145.24 286.61 145.8 287.61 C 146.34 288.57 149.64 291.73 153.14 294.63 Z M 681.5 454.04 C 693.77 455.9 696.89 455.85 714.5 453.5 C 720 452.76 728.9 451.61 734.27 450.95 C 739.65 450.28 744.25 449.4 744.51 448.98 C 744.77 448.57 744.24 447.61 743.33 446.86 C 741.18 445.07 713.44 445.08 703.36 446.87 C 696.85 448.03 694.52 447.9 677.36 445.45 C 663.41 443.46 656.28 442.9 650 443.3 C 641.48 443.85 636 445.22 636 446.79 C 636 447.26 643.54 448.67 652.75 449.93 C 661.96 451.19 674.9 453.04 681.5 454.04 Z M 373 173.06 C 380.51 176.94 381 176.84 381 171.47 C 381 162.65 376.45 157.18 366.1 153.53 C 355.27 149.72 345.85 150.6 333.94 156.55 C 323.17 161.94 322.55 165.04 332.55 163.54 C 341.56 162.19 360.63 166.68 373 173.06 Z M 334.34 259.63 C 328.87 261.91 321.85 261.39 317.39 258.36 C 312.02 254.72 310.46 252.7 309.01 247.54 C 307.6 242.48 308.31 236.82 310.6 234.92 C 311.9 233.84 313.94 234.54 323.32 239.24 C 330.51 242.84 336.37 245.08 339.75 245.52 C 343.8 246.03 345 246.58 345 247.91 C 345 250.48 338.1 258.06 334.34 259.63 Z M 675.5 440.64 C 683.2 441.81 690.56 442.83 691.86 442.89 L 694.21 443 L 693.51 433.75 C 693.12 428.66 692.51 424.2 692.15 423.84 C 691.03 422.71 662.82 420.78 661.83 421.77 C 661.32 422.28 661.04 426.25 661.21 430.59 L 661.5 438.5 L 675.5 440.64 Z M 271.57 292.75 C 273.44 295.6 274.11 295.57 276.99 292.51 L 279.33 290.02 L 275.78 282.26 C 273.83 277.99 270.8 269.77 269.04 264 C 260.21 235 259.54 233.31 257.43 235.06 C 253.95 237.95 258.17 262.04 265.04 278.5 C 268.84 287.62 270.3 290.8 271.57 292.75 Z M 446.43 397.92 C 450.32 398.37 454.17 398.79 455 398.85 C 457.52 399.04 473.32 396.23 476.41 395.04 C 478.11 394.39 478.94 393.57 478.41 393.07 C 477.91 392.59 471.42 390.77 464 389.02 C 456.58 387.26 448.09 385.16 445.14 384.35 C 442.2 383.54 439.71 383.02 439.62 383.19 C 439.41 383.6 434.64 393.3 434.19 394.24 C 433.61 395.46 438.87 397.03 446.43 397.92 Z M 382.51 397.49 C 387.62 399.31 393.11 399.37 395.47 397.64 C 397.78 395.96 396.86 393 394.03 393 C 393.91 393 393.79 393 393.67 393 C 392.96 393.01 392.5 393.01 392.3 392.78 C 391.94 392.36 392.5 391.15 394.09 387.68 C 394.22 387.38 394.37 387.07 394.52 386.74 C 396.37 382.7 396.96 379.94 396.73 376.37 C 396.43 371.77 396.25 371.48 393.42 371.2 C 390.85 370.95 390.12 371.45 388.33 374.7 C 387.18 376.79 385.69 380.3 385.01 382.5 C 383.6 387.08 381.62 389 378.31 389 C 376.75 389 376 389.59 376 390.81 C 376 393.69 378.22 395.96 382.51 397.49 Z M 219.07 358.13 C 219.74 359.39 220.94 360.01 222.32 359.81 C 224.31 359.53 224.51 358.88 224.64 352.5 C 224.78 345.59 227.94 332.89 231.62 324.5 C 232.59 322.3 233.41 320.24 233.44 319.92 C 233.47 319.6 234.85 318.17 236.5 316.74 C 238.95 314.61 239.26 313.9 238.21 312.83 C 235.05 309.62 225.01 320.53 222.92 329.45 C 222.27 332.23 221.39 334.95 220.96 335.5 C 219.89 336.89 218 347.55 218 352.25 C 218 354.38 218.48 357.03 219.07 358.13 Z M 608.36 520.08 C 612.21 523.59 612.98 523.63 617.5 520.56 C 619.48 519.22 622.76 517.61 624.8 516.99 C 626.83 516.36 629.14 515.64 629.92 515.39 C 630.94 515.06 630.39 513.96 627.92 511.38 C 623.72 507.02 620.01 505 616.2 505 C 613.27 505 607.19 508.81 603.52 512.94 C 601.61 515.08 601.61 515.2 603.38 516.19 C 604.39 516.76 606.63 518.51 608.36 520.08 Z M 400.49 388.98 C 401.22 390.16 404 390.3 405.61 389.23 C 407.91 387.71 410.28 381.38 410.75 375.47 C 411.14 370.68 410.8 368.33 409.18 364.67 C 407.26 360.33 406.85 360 403.42 360 C 399.25 360 392 361.94 392 363.05 C 392 363.45 393.24 364.09 394.75 364.47 C 401.76 366.21 404.56 373.8 401.53 382.91 C 400.61 385.68 400.14 388.42 400.49 388.98 Z M 249.81 141.25 C 250.63 142.21 251.59 143 251.92 143 C 252.26 143 254 140.55 255.79 137.56 C 257.58 134.56 261.38 129.56 264.23 126.44 C 269.14 121.06 269.31 120.7 267.51 119.39 C 265.03 117.57 263.34 117.66 258.46 119.88 C 253.47 122.15 249.38 126.86 248.02 131.94 C 246.92 136.03 247.37 138.42 249.81 141.25 Z M 373.5 360.32 C 374.6 360.57 375.78 360.82 376.13 360.88 C 376.47 360.95 377.35 360.29 378.07 359.41 C 379.21 358.04 378.57 357.02 373.26 351.86 C 365.47 344.29 362.46 343.61 355.75 347.91 C 349.42 351.97 349.63 353.56 356.75 355.55 C 359.91 356.43 364.52 357.76 367 358.51 C 369.48 359.26 372.4 360.07 373.5 360.32 Z M 190.71 288.7 C 192.47 290.62 194.5 292 195.21 291.77 C 195.92 291.54 196.86 289.58 197.3 287.42 C 197.74 285.27 198.5 281.7 198.99 279.5 C 199.51 277.12 199.5 275.12 198.96 274.57 C 198.45 274.06 194.19 273.44 189.48 273.19 L 180.91 272.74 L 184.21 278.97 C 186.02 282.4 188.94 286.78 190.71 288.7 Z M 146.75 326.42 C 149.36 327.24 152.85 327.82 154.5 327.7 C 157.01 327.53 157.55 327.03 157.83 324.59 C 158.7 317.01 155.3 311.75 149.54 311.75 C 146.76 311.75 145.01 313.29 143.24 317.3 C 140.78 322.85 141.52 324.79 146.75 326.42 Z M 412 391.59 C 412 392.69 412.45 392.83 413.75 392.13 C 419.31 389.13 422.87 381.89 423.71 371.91 C 424.42 363.47 422.71 360 417.86 360 C 415 360 414.81 360.21 415.38 362.75 C 417.14 370.7 417.18 375.16 415.52 381.92 C 414.56 385.82 413.38 389.27 412.89 389.57 C 412.4 389.87 412 390.78 412 391.59 Z M 283.15 283.25 C 283.65 284.21 284.31 285 284.59 285 C 285.82 285 293 278.56 293 277.45 C 293 275.98 278.02 258 276.79 258 C 276.3 258 276.21 259.69 276.58 261.75 C 277.38 266.18 281.82 280.74 283.15 283.25 Z M 312.62 202.3 C 308.88 206.26 306 207.62 306 205.42 C 306 202.86 308.77 198.38 312.04 195.62 C 314.6 193.46 316.16 193 320.85 193 C 327.64 193 330.39 194.62 332.02 199.57 C 333.57 204.27 332.76 204.82 328.97 201.62 C 326.5 199.55 324.79 199 320.79 199 C 316.37 199 315.35 199.41 312.62 202.3 Z M 337 183.08 C 337 185.54 336.27 185.45 332.03 182.45 C 329.23 180.48 327.33 180 322.25 180 C 318.78 180 314.38 180.65 312.47 181.45 C 307.79 183.4 307.74 181.31 312.36 177.25 C 318.62 171.76 329.44 172.17 334.43 178.1 C 335.84 179.78 337 182.02 337 183.08 Z M 224.27 272.52 C 217.01 278.06 215.9 276.91 221.46 269.62 C 226.17 263.45 229.61 256.43 231.64 248.84 C 234.23 239.19 235.28 239.27 234.8 249.11 C 234.26 260.1 230.97 267.4 224.27 272.52 Z M 321.19 253.98 C 325.42 256.56 329.04 256.54 332.37 253.93 C 335.12 251.76 335.79 250 333.87 250 C 333.24 250 328.52 248 323.37 245.56 C 318.02 243.03 314.01 241.64 314.02 242.31 C 314.08 245.46 318.19 252.15 321.19 253.98 Z M 326.85 215.64 C 324.02 217.84 322.19 217.83 320.11 215.61 C 316.05 211.29 318.51 204 324.03 204 C 329.4 204 331.37 212.12 326.85 215.64 Z M 424.28 391.38 C 423.29 394.59 426.23 392.73 429.5 388.08 C 432.26 384.17 432.5 383.15 432.5 375.45 C 432.5 369.06 432.12 366.69 430.88 365.45 C 429.39 363.96 429.22 364.48 428.77 372.17 C 428.5 376.75 427.51 382.52 426.57 385 C 425.64 387.48 424.6 390.35 424.28 391.38 Z M 131.99 321.49 C 132.68 322.32 134.2 323 135.37 323 C 137.08 323 137.93 321.77 139.68 316.77 C 140.89 313.34 141.73 310.4 141.57 310.24 C 141.41 310.07 139.85 309.53 138.12 309.03 C 135.38 308.25 134.76 308.44 133.44 310.46 C 131.25 313.8 130.48 319.67 131.99 321.49 Z M 364.55 219.57 C 362.74 222.33 357.99 222.9 356.08 220.6 C 353.32 217.28 358.27 209.66 362.84 210.19 C 365.05 210.45 365.836 211.06 366.106 213.81 C 366.286 215.67 365.44 218.21 364.55 219.57 Z M 231.53 347.06 C 231.86 347.58 232.97 348 234.02 348 C 235.43 348 236.2 346.89 236.99 343.75 C 237.57 341.41 238.71 338.02 239.53 336.22 C 239.59 336.08 239.65 335.95 239.7 335.82 C 240.64 333.73 241.03 332.86 240.78 332.27 C 240.58 331.81 239.98 331.52 238.94 330.97 C 237.42 330.15 236.51 330.16 235.5 331 C 233.94 332.3 230.65 345.62 231.53 347.06 Z M 306.87 342.5 C 309.42 343.17 311.88 343.38 312.35 342.96 C 313.22 342.18 308.38 333 307.1 333 C 306.71 333 304.91 334.52 303.11 336.39 C 299.42 340.2 299.66 340.58 306.87 342.5 Z M 589.02 513.25 C 589.01 513.66 590.37 514 592.05 514 C 594.12 514 595.87 513.12 597.52 511.25 C 600.37 508.01 600.58 507 598.41 507 C 596.65 507 589.06 512.06 589.02 513.25 Z" fill="rgb(39,31,18)"/>
    <path d="M 114.31 479.56 C 107.43 476.36 103.12 473.1 101.4 469.8 C 99.69 466.5 99.55 455.07 101.18 451.5 C 102.12 449.43 113.86 440 115.49 440 C 115.71 440 116.03 441.91 116.21 444.25 L 116.53 448.5 L 120.95 439 C 131.97 415.31 144.67 392.42 154.78 378 C 159.58 371.16 174.21 356 176.01 356 C 176.59 356 178.61 357.54 180.5 359.43 C 190.78 369.72 214.62 378.85 237.07 381.1 C 247.1 382.1 249.74 382.03 256.99 380.56 C 261.59 379.63 266.64 378.2 268.21 377.39 C 270.89 376 271.41 376.11 277.19 379.21 C 278.34 379.82 279.39 380.45 280.29 381.03 C 277.31 380.39 272.45 381.02 266.91 382.83 C 255.14 386.69 240.83 389 228 389.1 C 218.92 389.18 214.03 387.88 195.58 380.55 C 184.55 376.16 178.59 375.9 171.45 379.48 C 160.44 384.98 147.1 402.26 133.5 428.64 C 124.13 446.82 123.64 453.84 131.5 457.05 C 138.99 460.12 144.7 457.48 178.63 435.25 C 185.56 430.71 191.43 427 191.69 427 C 192.94 427 203.97 417.75 203.54 417.06 C 203.47 416.95 203.57 416.79 203.81 416.6 C 203.97 416.7 204.44 416.75 205 416.83 C 206.38 417.02 207.86 417.51 208.3 417.93 C 209.07 418.68 190.26 433.56 163.98 453 C 156.91 458.23 146.87 466.31 141.65 470.97 C 128.68 482.56 123.94 484.05 114.31 479.56 Z M 303 471.91 C 291.62 469.99 282.01 464.16 281.99 459.17 C 281.99 458.25 283.39 454.02 285.1 449.77 C 287.96 442.65 288.5 441.96 291.86 441.02 C 293.86 440.47 296.71 440.01 298.19 440.01 C 302.62 440 302.37 438.17 297.78 436.99 C 284.39 433.52 238.57 417.84 236.73 416.09 C 235.49 414.91 238.75 412.58 250.5 406.23 C 256.55 402.97 264.2 398.82 267.5 397.01 C 271.72 394.7 276.83 392.74 281.59 391.48 C 278.05 392.63 274.86 394.41 272.34 396.72 C 270.07 398.8 266.14 402.22 263.61 404.32 C 261.07 406.42 259 408.72 259 409.43 C 259 410.78 266.73 414.76 289 424.89 C 303.14 431.32 307.77 434.68 310.91 440.81 C 312.86 444.6 315.98 447.89 319.5 449.83 C 321.76 451.08 329.91 451.35 331.64 450.23 C 332.11 449.93 332.69 448.86 333.3 447.34 C 330.52 455.72 326.77 464.36 324.14 467.35 C 320.23 471.78 312.34 473.49 303 471.91 Z M 246 312.67 C 246 308.26 242.54 304.99 237.94 305.04 C 233.94 305.08 231.49 306.3 226.72 310.65 L 223.27 313.8 L 219.89 308.67 C 217.58 305.19 214.66 302.46 210.75 300.16 L 205 296.78 L 205 291.55 C 205 288.68 205.5 283.85 206.11 280.81 C 207.12 275.8 207.56 275.14 210.96 273.64 C 213.02 272.73 215.48 271.13 216.43 270.08 C 218.1 268.23 217.96 268.16 211.33 267.53 C 207.57 267.17 199.87 266.23 194.22 265.44 C 188.57 264.65 182.16 264 179.98 264 C 176.21 264 175.86 263.73 172.85 258.38 C 168.5 250.67 161.03 242.91 155.04 239.22 C 157.7 240.66 160.64 242.62 162.89 244.58 C 165.3 246.67 168 248.45 168.89 248.53 C 169.77 248.6 176.12 249.62 183 250.79 C 189.88 251.95 201.13 253.86 208.02 255.02 C 214.91 256.19 222.56 256.99 225.02 256.82 L 229.02 256.53 C 227.06 261.21 224.53 265.6 221.46 269.62 C 215.9 276.91 217.01 278.06 224.27 272.52 C 225.83 271.33 227.2 270.03 228.39 268.59 C 225.64 272.35 225.51 273.24 225.59 281 C 225.69 289.63 228.28 298.33 231.58 301.07 C 232.33 301.69 236.89 303.71 241.72 305.55 C 252.76 309.77 256.49 309.88 261.6 306.15 C 262.91 305.19 264.4 303.97 265.6 302.9 C 263.94 304.46 261.63 306.28 260 307.27 C 258.08 308.44 256.27 309.67 256 310 C 254.7 311.58 248.18 316 247.16 316 C 246.51 316 246 314.52 246 312.67 Z M 335.16 349.68 L 326.81 347.65 L 320.87 338.57 C 317.6 333.58 314.66 328.45 314.34 327.18 C 313.97 325.73 315.13 321.14 317.42 314.96 C 320.97 305.39 322.74 296.8 321.61 295.25 C 322.29 295.93 322.08 299.27 320.89 305.21 C 319.81 310.56 319.91 311.07 323.57 319.63 C 331.33 337.74 336.75 346.49 341.5 348.59 L 341.59 348.63 C 343.68 349.56 344.63 349.98 345.41 349.77 C 345.51 349.75 345.61 349.71 345.71 349.66 L 343.5 351.71 L 335.16 349.68 Z M 121.39 235.82 C 120.33 237.62 120.38 238.85 121.39 243.12 C 123.12 250.45 125.89 255.45 132.01 262.26 C 138.99 270.03 139.98 270.82 145.21 267.35 C 142.33 269.88 140.14 273.03 138.98 276.56 C 138.36 278.45 137.3 280 136.63 280 C 135.11 280 129.43 273.96 125.35 268 C 119.34 259.22 117.67 254.92 117.58 247.92 C 117.51 242.2 117.88 240.79 120.44 237.09 C 120.74 236.65 121.06 236.23 121.39 235.82 Z M 219.07 358.13 C 218.48 357.03 218 354.38 218 352.25 C 218 347.55 219.89 336.89 220.96 335.5 C 221.24 335.14 221.71 333.87 222.18 332.27 C 221.88 333.75 221.67 335.34 221.56 337 C 221.05 344.61 221.05 344.62 220 343 C 219.33 341.96 219.03 343.9 219.02 349.32 C 219 356.24 219.2 357.11 220.75 356.81 C 222.25 356.52 222.46 355.46 222.25 349.48 C 222 342.45 222.97 338.71 227.08 330.8 C 229.23 326.65 229.5 324.43 227.96 323.47 C 226.31 322.46 224.42 324.78 223.11 328.7 C 225.56 319.94 235.14 309.71 238.21 312.83 C 239.26 313.9 238.95 314.61 236.5 316.74 C 234.85 318.17 233.47 319.6 233.44 319.92 C 233.41 320.24 232.59 322.3 231.62 324.5 C 227.94 332.89 224.78 345.59 224.64 352.5 C 224.51 358.88 224.31 359.53 222.32 359.81 C 220.94 360.01 219.74 359.39 219.07 358.13 Z M 305.82 320.75 C 301.39 327.23 297.06 331.93 292.97 334.64 L 289.25 337.1 L 280.37 334.65 C 275.49 333.31 266.77 331.23 261 330.05 C 251.02 327.99 247.29 327.29 247.15 326.14 C 247.07 325.48 248.21 324.67 250.04 323.36 C 250.2 323.24 250.37 323.12 250.54 323 C 257.42 318.06 266.07 311.36 274.53 304.49 C 270.63 307.66 266.46 311 263.25 313.49 C 257.61 317.88 253 322.02 253 322.69 C 253 323.37 253.86 324.39 254.92 324.96 C 255.98 325.52 257.44 326.55 258.17 327.24 C 262.01 330.87 264.7 331.32 278.58 330.66 C 293.19 329.96 299.63 328.16 302.18 324.08 C 302.9 322.94 303.94 321.99 304.49 321.98 C 304.74 321.98 305.2 321.54 305.82 320.75 Z M 289.59 291.89 C 292.86 289.06 295.86 286.39 298.43 284 C 305.84 277.13 308.65 275.86 311.9 277.91 C 313.83 279.14 313.22 280.29 304.71 291.58 C 303.11 293.7 301.62 295.61 300.12 297.41 C 301.61 295.51 302.53 294 302.66 293.15 C 302.88 291.68 301.94 290.79 298.86 289.56 C 297.4 288.97 296.49 288.51 295.56 288.47 C 294.21 288.41 292.81 289.24 289.59 291.89 Z M 152.69 262.82 C 154.38 261.98 155.99 261.3 157.16 260.96 C 161.62 259.67 161.8 259.48 161.5 256.25 C 161.35 254.61 160.67 252.74 159.45 250.63 C 160.02 251.45 160.56 252.24 161.06 253 L 165.99 260.5 L 159.55 261.16 C 157.16 261.41 154.85 261.98 152.69 262.82 Z M 313.22 288.79 C 313.65 288.04 314.06 287.29 314.43 286.55 C 318.03 279.43 319.12 278.62 324.12 279.29 C 325.37 279.46 326.56 279.79 327.69 280.31 C 326.75 280.12 325.63 280.26 323.84 280.59 C 321.45 281.02 319.09 281.41 318.58 281.44 C 318.07 281.47 315.8 284.55 313.54 288.27 C 313.43 288.44 313.32 288.62 313.22 288.79 Z M 232.67 260.95 C 233.88 257.56 234.57 253.65 234.8 249.11 C 235.09 243.01 234.8 240.66 233.92 242.05 C 234.08 241.7 234.21 241.46 234.29 241.38 C 235.62 240.05 235.01 253.62 233.51 258.65 C 233.3 259.35 233.02 260.13 232.67 260.95 Z M 282.17 315.23 C 280.5 316.68 278.69 318.25 276.71 319.94 C 271.92 324.03 268 327.77 268 328.25 C 268 328.27 268 328.29 268 328.31 C 267.62 327.72 269.55 325.93 282.17 315.23 Z M 268.07 300.36 C 269.22 298.86 268.82 297.81 265.55 290.8 L 269.38 299 L 268.07 300.36 Z M 289.09 314.77 C 295 310.13 300.24 305.27 304.56 300.44 C 300.94 304.59 296.86 308.52 292.4 312.17 C 291.38 312.99 290.27 313.87 289.09 314.77 Z M 131.37 229.13 C 137.2 226.93 145.43 225.42 157.5 224.08 C 146 225.35 137.38 227.01 131.37 229.13 Z M 347.43 348.08 L 347.6 347.89 C 348.52 346.87 351.04 345.13 353.49 343.78 C 351.43 344.99 349.02 346.68 347.43 348.08 Z M 260.31 393.23 C 255.47 395.83 251.2 398.06 247.39 399.99 C 251.52 397.82 256.31 395.32 260.31 393.23 Z M 238.67 404.22 C 233.04 406.81 228.55 408.55 224.5 409.78 C 228.07 408.7 233.44 406.57 238.67 404.22 Z M 320.34 295.73 C 319.48 296.82 318.14 299.02 316.7 301.7 C 318.24 298.65 319.46 296.66 320.34 295.73 Z M 205.99 415.5 C 206.79 415.18 207.74 414.85 208.77 414.54 C 211.64 413.68 217.78 411.82 223.01 410.23 C 213.65 413.08 208.55 414.63 205.99 415.5 Z M 330.8 282.29 C 332.41 283.64 333.94 285.46 335.42 287.8 C 334.11 285.78 332.73 284.12 331.18 282.65 C 331.05 282.52 330.92 282.4 330.8 282.29 Z M 278.56 385.44 C 278.15 385.55 277.72 385.65 277.28 385.75 C 276.02 386.04 274.34 386.59 272.54 387.27 C 274.91 386.35 277.11 385.66 278.48 385.45 L 278.56 385.44 Z M 332.72 418.43 C 328.16 412.62 319.16 405.81 302.17 394.29 C 319.2 405.84 328.18 412.61 332.72 418.43 Z M 152.86 242.15 C 152.58 241.84 152.28 241.53 151.98 241.21 C 149.84 238.99 148.61 237.17 149.13 237.03 C 148.61 237.17 149.87 239.01 152.03 241.25 C 152.29 241.51 152.57 241.82 152.86 242.15 Z M 357.36 341.72 C 359.01 340.71 358.78 340.32 357.55 339.42 C 358.83 340.35 359.04 340.73 357.36 341.72 Z M 336.59 434.99 C 336.84 433.46 336.99 432.06 337 430.96 C 337 431.01 337 431.07 337 431.12 C 337 432.17 336.85 433.48 336.59 434.99 Z" fill="rgb(64,88,41)"/>
    <path d="M 640.63 286.93 C 651.64 285.96 664.82 284.87 677.71 283.86 C 705.76 281.71 732.31 279.98 732.73 280.39 C 733.24 280.9 732.16 300.75 730.95 316.02 L 731 311.71 L 716.75 312.32 C 703.81 312.87 610.676 317.109 610.676 316.559 C 610.676 316.329 613.283 290.388 612.943 290.038 C 612.193 289.298 632.42 287.75 640.63 286.93 Z M 619 311 C 619 312.43 621.75 312.24 622.7 310.75 C 623.14 310.06 626.689 307.343 626.689 307.343 C 626.689 307.343 627.13 307.36 629.13 309.46 C 630.43 310.84 631.486 311.356 631.896 311.366 C 632.738 311.386 633.069 310.511 632.658 308.971 C 632.439 308.152 629.157 304.515 629.157 304.515 C 629.157 304.515 629.79 303.08 631.85 300.47 C 632.817 299.236 633.953 297.78 634.27 296.783 C 634.641 295.614 634.056 295 633.3 295 C 632.92 295 628.773 300.843 627.447 300.991 C 625.218 301.24 624.022 294.389 621 297.07 C 619.878 298.066 624.298 304.29 624.298 304.29 C 624.298 304.29 622.1 306.9 621 308 C 619.9 309.1 619 310.45 619 311 Z M 607.43 359.08 C 607.63 357.64 608.01 353.87 608.45 349.14 C 608.03 354.08 607.64 358.03 607.45 359 L 607.43 359.08 Z M 606.55 365.81 C 606.29 368.46 606.04 371.73 605.77 375.83 C 606.05 371.44 606.28 368.39 606.55 365.81 Z" fill="rgb(64,119,72)"/>
    <path d="M 692.76 540.89 C691.52,540.19 691.37,535.15 691.76,506.29 C692.01,487.70 692.51,472.24 692.86,471.92 C693.21,471.59 704.75,469.88 718.50,468.11 C732.25,466.34 751.47,463.79 761.21,462.45 C770.95,461.10 780.74,460.00 782.96,460.00 L 787.00 460.00 L 787.00 492.44 C787.00,511.52 786.61,525.12 786.06,525.46 C785.55,525.78 774.64,527.80 761.81,529.96 C736.83,534.16 706.43,539.41 698.86,540.83 C696.31,541.31 693.56,541.33 692.76,540.89 ZM 270.24 222.77 C266.47,218.15 264.74,198.90 267.02,186.89 C267.58,183.93 270.04,177.05 272.48,171.60 L 276.93 161.69 L 273.86 164.60 C272.18,166.19 269.41,169.52 267.72,172.00 C266.02,174.48 264.05,176.86 263.34,177.29 C262.00,178.10 258.63,188.52 257.51,195.31 C255.94,204.86 251.97,193.63 251.74,179.00 C251.56,167.55 252.98,161.12 258.06,150.38 C267.59,130.20 284.39,117.02 305.21,113.40 C330.91,108.92 354.01,118.23 369.66,139.36 C374.23,145.53 375.44,149.81 372.25,148.49 C363.02,144.65 350.21,143.88 340.93,146.59 C337.94,147.46 332.73,149.71 329.34,151.59 C322.50,155.38 320.47,155.83 321.41,153.37 C322.55,150.40 315.44,152.54 307.69,157.48 C297.05,164.28 290.54,170.29 285.12,178.33 C276.24,191.50 274.63,196.12 273.00,212.92 C272.44,218.66 271.83,223.50 271.64,223.70 C271.44,223.89 270.82,223.47 270.24,222.77 ZM 664.50 536.55 C643.76,531.41 639.78,530.63 639.09,528.68 C638.93,528.21 638.95,527.69 638.98,527.02 C638.99,526.74 639.00,526.43 639.00,526.09 C639.00,521.56 635.65,511.37 633.30,508.78 C631.72,507.04 631.72,506.74 633.29,504.08 C640.29,492.24 635.93,475.97 624.16,469.98 C620.50,468.12 618.92,467.88 614.16,468.48 C611.05,468.87 606.03,469.26 603.00,469.34 L 597.50 469.50 L 597.50 454.50 L 608.40 453.41 C607.47,453.55 606.50,453.72 605.50,453.90 L 601.50 454.61 L 607.00 455.31 C617.86,456.71 626.52,458.32 627.40,459.10 C627.89,459.53 629.58,459.63 631.15,459.32 C632.72,459.01 634.00,459.17 634.00,459.68 C634.00,460.20 636.14,460.67 638.75,460.74 C641.36,460.80 653.75,462.36 666.27,464.20 C675.91,465.62 685.33,466.74 690.22,467.09 C686.22,466.94 675.09,465.65 664.28,464.08 C652.60,462.39 642.03,461.04 640.78,461.09 C637.15,461.24 656.71,465.96 671.71,468.55 C676.54,469.39 682.23,470.54 684.34,471.10 L 688.18 472.13 L 687.84 506.01 C687.63,526.87 687.12,540.26 686.50,540.82 C685.88,541.40 677.54,539.78 664.50,536.55 ZM 146.23 177.11 C142.79,176.77 139.94,176.06 139.91,175.52 C139.89,174.99 142.96,173.60 146.75,172.44 C156.65,169.42 171.18,158.59 177.25,149.72 C181.76,143.13 180.57,142.45 171.54,146.44 C154.41,154.02 136.87,153.82 126.93,145.94 C120.87,141.15 121.61,140.00 130.75,139.99 C142.52,139.99 152.15,136.64 162.55,128.96 C167.93,124.99 169.78,123.25 177.46,114.96 C183.51,108.42 195.99,99.62 203.41,96.65 C218.67,90.54 234.36,91.47 245.66,99.15 C249.81,101.97 257.00,109.61 257.00,111.20 C257.00,111.66 255.76,112.58 254.25,113.24 C252.74,113.90 249.92,115.45 248.00,116.69 C244.63,118.85 244.28,118.88 238.87,117.47 C233.02,115.94 225.60,116.61 220.72,119.09 C215.43,121.80 208.00,127.45 208.00,128.78 C208.00,130.24 208.30,130.23 217.25,128.35 C218.76,128.03 220.00,128.12 220.00,128.54 C220.00,128.96 211.44,137.79 200.98,148.15 C181.36,167.59 177.95,170.11 164.75,174.95 C158.10,177.40 154.08,177.86 146.23,177.11 ZM 760.64 405.31 C760.26,404.92 760.17,402.11 760.44,399.06 C760.72,396.00 761.63,386.08 762.48,377.00 C763.79,362.84 764.85,350.40 768.57,305.25 C769.02,299.77 769.53,298.00 770.66,298.00 C773.09,298.00 797.19,315.72 804.88,323.17 C805.67,323.94 806.31,324.35 806.78,324.90 C808.43,326.82 808.05,330.47 805.27,357.30 C804.91,360.76 804.51,364.61 804.07,368.89 C802.11,387.92 800.71,397.68 799.83,398.50 C799.10,399.17 795.58,400.22 792.00,400.81 C788.42,401.41 780.33,402.82 774.00,403.94 C773.33,404.06 772.70,404.17 772.10,404.28 C762.76,405.94 761.62,406.14 761.01,405.67 C760.89,405.57 760.78,405.45 760.64,405.31 ZM 318.36 269.62 C313.55,268.06 303.88,262.26 299.42,258.26 C294.24,253.62 288.11,245.49 285.50,239.78 C279.18,225.99 279.59,203.77 286.01,211.51 C287.58,213.41 299.19,221.10 304.50,223.77 C308.82,225.93 320.11,229.40 326.38,230.47 C328.52,230.84 334.25,230.60 339.12,229.93 L 347.98 228.72 L 352.19 231.50 C354.51,233.04 358.36,234.51 360.78,234.78 C363.20,235.06 365.38,235.84 365.65,236.52 C366.28,238.18 362.34,246.59 358.79,251.19 C355.29,255.71 342.52,265.44 336.75,267.99 C330.87,270.59 323.38,271.25 318.36,269.62 ZM 313.00 527.87 C308.88,527.53 300.33,526.52 294.00,525.63 C287.67,524.74 279.94,524.01 276.82,524.01 C268.10,524.00 265.31,519.39 270.35,513.33 C275.49,507.15 278.43,501.09 281.58,490.16 C283.39,483.87 285.35,478.25 285.94,477.66 C286.70,476.90 288.86,477.08 293.42,478.29 C296.95,479.23 301.25,480.00 302.98,480.00 C307.39,480.00 310.08,481.61 309.27,483.77 C308.30,486.34 302.14,494.90 297.80,499.73 C293.03,505.03 292.89,506.99 297.25,507.02 C299.12,507.03 302.22,508.20 304.53,509.77 C306.75,511.27 314.06,515.39 320.78,518.93 C327.50,522.46 333.00,525.91 333.00,526.59 C333.00,528.14 323.47,528.75 313.00,527.87 ZM 59.87 530.61 C53.15,528.66 52.70,528.23 53.34,524.28 C54.12,519.48 59.14,513.33 66.91,507.63 C73.76,502.61 76.80,498.74 84.03,485.81 C86.40,481.58 89.33,476.87 90.55,475.34 L 92.76 472.56 L 99.13 479.14 C102.63,482.76 106.51,486.04 107.75,486.43 C108.99,486.82 110.00,487.48 110.00,487.91 C110.00,488.33 106.51,491.41 102.25,494.75 C97.99,498.09 93.23,502.04 91.68,503.52 C88.80,506.27 88.46,506.29 81.00,504.42 C78.92,503.90 79.32,504.57 83.38,508.41 C87.94,512.72 88.22,513.26 87.64,516.76 C87.30,518.82 87.02,522.18 87.01,524.22 C87.00,527.36 86.52,528.20 83.95,529.53 C79.76,531.69 65.77,532.32 59.87,530.61 ZM 745.36 420.23 C744.51,419.69 744.57,415.69 745.59,404.50 C746.34,396.25 747.63,380.95 748.46,370.50 C749.29,360.05 750.21,348.80 750.51,345.50 C751.22,337.84 753.61,308.63 755.02,290.50 C756.73,268.59 756.83,268.00 759.06,268.00 C760.13,268.00 761.94,268.94 763.09,270.09 C764.90,271.90 765.09,272.94 764.55,277.84 C764.21,280.95 763.51,288.90 763.00,295.50 C760.45,328.67 756.95,371.61 756.06,380.50 C755.52,386.00 754.79,394.55 754.44,399.50 C754.10,404.45 753.40,410.75 752.90,413.50 C751.76,419.67 748.71,422.40 745.36,420.23 ZM 620.50 500.30 C616.59,498.86 612.01,498.93 601.25,500.60 L 597.00 501.26 L 597.00 476.00 L 601.75 475.99 C604.36,475.98 608.91,475.34 611.85,474.55 C619.63,472.48 625.48,475.33 628.63,482.72 C630.22,486.45 630.44,495.71 629.02,499.43 C627.93,502.32 626.42,502.47 620.50,500.30 ZM 153.14 294.63 C149.64,291.73 146.34,288.57 145.80,287.61 C145.24,286.61 145.11,283.36 145.50,280.04 C146.04,275.31 146.76,273.66 149.33,271.17 C154.60,266.08 165.82,264.79 169.28,268.86 C171.54,271.52 180.00,286.15 180.00,287.39 C180.00,288.02 177.86,289.30 175.25,290.23 C172.64,291.17 168.31,293.75 165.64,295.97 C162.97,298.18 160.49,299.98 160.14,299.95 C159.79,299.92 156.64,297.52 153.14,294.63 ZM 373.00 173.06 C360.63,166.68 341.56,162.19 332.55,163.54 C322.55,165.04 323.17,161.94 333.94,156.55 C345.85,150.60 355.27,149.72 366.10,153.53 C376.45,157.18 381.00,162.65 381.00,171.47 C381.00,176.84 380.51,176.94 373.00,173.06 ZM 580.34 548.04 C575.72,546.94 571.06,543.89 569.17,540.72 C567.56,538.03 567.61,537.75 570.84,531.53 C570.97,531.27 571.10,531.02 571.25,530.75 C569.81,533.52 568.99,536.08 569.18,537.76 C569.43,539.88 570.29,540.77 573.00,541.69 C577.86,543.35 588.09,543.28 592.13,541.57 C593.98,540.78 598.63,536.96 602.45,533.09 L 607.41 528.06 L 604.04 531.96 C601.15,535.28 597.49,538.78 595.90,539.72 C594.30,540.66 593.00,541.80 593.00,542.25 C593.00,543.38 595.84,541.68 600.00,538.06 C601.92,536.38 603.80,535.00 604.17,535.00 C604.53,535.00 606.92,533.06 609.47,530.68 C614.50,526.00 626.78,519.00 629.98,519.00 C632.57,519.00 633.62,523.10 632.01,526.97 C626.44,540.42 597.65,552.17 580.34,548.04 ZM 334.34 259.63 C338.10,258.06 345.00,250.48 345.00,247.91 C345.00,246.58 343.80,246.03 339.75,245.52 C336.37,245.08 330.51,242.84 323.32,239.24 C313.94,234.54 311.90,233.84 310.60,234.92 C308.31,236.82 307.60,242.48 309.01,247.54 C310.46,252.70 312.02,254.72 317.39,258.36 C321.85,261.39 328.87,261.91 334.34,259.63 ZM 675.50 440.64 L 661.50 438.50 L 661.21 430.59 C661.04,426.25 661.32,422.28 661.83,421.77 C662.82,420.78 691.03,422.71 692.15,423.84 C692.51,424.20 693.12,428.66 693.51,433.75 L 694.21 443.00 L 691.86 442.89 C690.56,442.83 683.20,441.81 675.50,440.64 ZM 271.57 292.75 C270.30,290.80 268.84,287.62 265.04,278.50 C258.17,262.04 253.95,237.95 257.43,235.06 C259.54,233.31 260.21,235.00 269.04,264.00 C270.80,269.77 273.83,277.99 275.78,282.26 L 279.33 290.02 L 276.99 292.51 C274.11,295.57 273.44,295.60 271.57,292.75 ZM 714.50 453.50 C697.28,455.80 693.92,455.90 682.30,454.16 C685.59,454.56 689.04,454.86 691.18,454.90 L 696.86 455.00 L 695.96 451.86 C695.47,450.14 694.87,448.54 694.64,448.30 C694.44,448.11 688.86,447.15 681.49,446.04 C694.95,447.92 697.42,447.93 703.36,446.87 C713.44,445.08 741.18,445.07 743.33,446.86 C744.24,447.61 744.77,448.57 744.51,448.98 C744.25,449.40 739.65,450.28 734.27,450.95 C728.90,451.61 720.00,452.76 714.50,453.50 ZM 373.50 360.32 C372.40,360.07 369.48,359.26 367.00,358.51 C364.52,357.76 359.91,356.43 356.75,355.55 C349.63,353.56 349.42,351.97 355.75,347.91 C362.46,343.61 365.47,344.29 373.26,351.86 C378.57,357.02 379.21,358.04 378.07,359.41 C377.35,360.29 376.47,360.95 376.13,360.88 C375.78,360.82 374.60,360.57 373.50,360.32 ZM 146.75 326.42 C141.52,324.79 140.78,322.85 143.24,317.30 C145.01,313.29 146.76,311.75 149.54,311.75 C155.30,311.75 158.70,317.01 157.83,324.59 C157.55,327.03 157.01,327.53 154.50,327.70 C152.85,327.82 149.36,327.24 146.75,326.42 ZM 283.15 283.25 C281.82,280.74 277.38,266.18 276.58,261.75 C276.21,259.69 276.30,258.00 276.79,258.00 C278.02,258.00 293.00,275.98 293.00,277.45 C293.00,278.56 285.82,285.00 284.59,285.00 C284.31,285.00 283.65,284.21 283.15,283.25 ZM 131.99 321.49 C130.48,319.67 131.25,313.80 133.44,310.46 C134.76,308.44 135.38,308.25 138.12,309.03 C139.85,309.53 141.41,310.07 141.57,310.24 C141.73,310.40 140.89,313.34 139.68,316.77 C137.93,321.77 137.08,323.00 135.37,323.00 C134.20,323.00 132.68,322.32 131.99,321.49 ZM 231.53 347.06 C230.65,345.62 233.94,332.30 235.50,331.00 C236.51,330.16 237.42,330.15 238.94,330.97 C239.98,331.52 240.58,331.81 240.78,332.27 C241.03,332.86 240.64,333.73 239.70,335.82 C239.65,335.95 239.59,336.08 239.53,336.22 C238.71,338.02 237.57,341.41 236.99,343.75 C236.20,346.89 235.43,348.00 234.02,348.00 C232.97,348.00 231.86,347.58 231.53,347.06 ZM 618.45 452.40 L 624.78 451.76 L 642.06 454.41 C631.25,452.84 624.57,452.21 618.45,452.40 ZM 708.97 465.25 C714.07,464.59 719.97,463.81 726.00,463.00 C741.67,460.89 758.92,458.61 764.32,457.95 C758.92,458.61 741.46,460.94 725.53,463.11 C719.77,463.89 714.06,464.63 708.97,465.25 ZM 658.21 443.31 C655.41,443.18 652.92,443.19 650.50,443.33 C645.90,443.59 642.20,444.06 639.68,444.69 C642.12,444.07 645.67,443.58 650.00,443.30 C652.48,443.15 655.10,443.14 658.21,443.31 ZM 674.51 453.01 C667.80,452.03 659.33,450.83 652.75,449.93 C647.39,449.19 642.59,448.41 639.52,447.79 C642.68,448.42 647.67,449.23 653.25,449.98 C660.72,450.99 669.22,452.20 674.51,453.01 ZM 674.57 459.31 C678.25,459.85 681.36,460.31 683.50,460.61 L 695.50 462.31 L 683.50 460.61 C681.35,460.31 678.24,459.85 674.57,459.31 Z" fill="rgb(47,56,48)"/>
    <path d="M 121.39 235.82 C123.69,233.01 126.79,230.86 131.37,229.13 C137.38,227.01 146.00,225.35 157.50,224.08 C163.00,223.47 171.55,222.53 176.50,221.99 C181.45,221.45 193.39,221.00 203.04,221.00 C222.94,221.00 228.88,222.08 238.50,227.46 C246.77,232.09 248.66,234.42 249.48,241.00 C251.14,254.19 256.95,272.37 265.06,289.75 L 265.55 290.80 C268.82,297.81 269.22,298.86 268.07,300.36 L 266.44 302.07 C266.19,302.33 265.91,302.61 265.60,302.90 C264.40,303.97 262.91,305.19 261.60,306.15 C256.49,309.88 252.76,309.77 241.72,305.55 C236.89,303.71 232.33,301.69 231.58,301.07 C228.28,298.33 225.69,289.63 225.59,281.00 C225.51,273.24 225.64,272.35 228.39,268.59 C230.22,266.38 231.64,263.86 232.67,260.95 C233.02,260.13 233.30,259.35 233.51,258.65 C235.01,253.62 235.62,240.05 234.29,241.38 C234.21,241.46 234.08,241.70 233.92,242.05 C233.38,242.91 232.62,245.17 231.64,248.84 C230.93,251.48 230.06,254.05 229.02,256.53 L 225.02 256.82 C222.56,256.99 214.91,256.19 208.02,255.02 C201.13,253.86 189.88,251.95 183.00,250.79 C176.12,249.62 169.77,248.60 168.89,248.53 C168.00,248.45 165.30,246.67 162.89,244.58 C160.64,242.62 157.70,240.66 155.04,239.22 C152.82,237.85 150.80,237.05 149.21,237.02 C149.18,237.02 149.16,237.02 149.13,237.03 C148.61,237.17 149.84,238.99 151.98,241.21 C152.28,241.53 152.58,241.84 152.86,242.15 C154.71,244.23 157.27,247.53 159.45,250.63 C160.67,252.74 161.35,254.61 161.50,256.25 C161.80,259.48 161.62,259.67 157.16,260.96 C155.99,261.30 154.38,261.98 152.69,262.82 C149.91,263.91 147.37,265.45 145.21,267.35 C139.98,270.82 138.99,270.03 132.01,262.26 C125.89,255.45 123.12,250.45 121.39,243.12 C120.38,238.85 120.33,237.62 121.39,235.82 ZM 260.31 393.23 C256.31,395.32 251.52,397.82 247.39,399.99 C244.19,401.60 241.30,403.00 238.67,404.22 C233.44,406.57 228.07,408.70 224.50,409.78 L 223.01 410.23 C217.78,411.82 211.64,413.68 208.77,414.54 C207.74,414.85 206.79,415.18 205.99,415.50 C204.31,416.08 203.73,416.36 203.76,416.53 C203.76,416.56 203.78,416.58 203.81,416.60 C203.57,416.79 203.47,416.95 203.54,417.06 C203.97,417.75 192.94,427.00 191.69,427.00 C191.43,427.00 185.56,430.71 178.63,435.25 C144.70,457.48 138.99,460.12 131.50,457.05 C123.64,453.84 124.13,446.82 133.50,428.64 C147.10,402.26 160.44,384.98 171.45,379.48 C178.59,375.90 184.55,376.16 195.58,380.55 C214.03,387.88 218.92,389.18 228.00,389.10 C240.83,389.00 255.14,386.69 266.91,382.83 C272.45,381.02 277.31,380.39 280.29,381.03 C282.04,382.17 283.16,383.14 283.07,383.50 C282.94,383.97 281.02,384.78 278.56,385.44 L 278.48 385.45 C277.11,385.66 274.91,386.35 272.54,387.27 C270.01,388.23 267.26,389.46 265.13,390.62 C263.46,391.53 261.85,392.40 260.31,393.23 ZM 305.82 320.75 C305.20,321.54 304.74,321.98 304.49,321.98 C303.94,321.99 302.90,322.94 302.18,324.08 C299.63,328.16 293.19,329.96 278.58,330.66 C264.70,331.32 262.01,330.87 258.17,327.24 C257.44,326.55 255.98,325.52 254.92,324.96 C253.86,324.39 253.00,323.37 253.00,322.69 C253.00,322.02 257.61,317.88 263.25,313.49 C266.46,311.00 270.63,307.66 274.53,304.49 C279.77,300.23 284.95,295.90 289.59,291.89 C292.81,289.24 294.21,288.41 295.56,288.47 C296.49,288.51 297.40,288.97 298.86,289.56 C301.94,290.79 302.88,291.68 302.66,293.15 C302.53,294.00 301.61,295.51 300.12,297.41 C295.38,303.15 290.60,307.87 282.17,315.23 C269.55,325.93 267.62,327.72 268.00,328.31 C268.01,329.26 268.28,329.09 278.50,322.38 C282.21,319.94 285.76,317.39 289.09,314.77 C290.27,313.87 291.38,312.99 292.40,312.17 C296.86,308.52 300.94,304.59 304.56,300.44 C308.11,296.49 311.04,292.56 313.22,288.79 C313.32,288.62 313.43,288.44 313.54,288.27 C315.80,284.55 318.07,281.47 318.58,281.44 C319.09,281.41 321.45,281.02 323.84,280.59 C325.63,280.26 326.75,280.12 327.69,280.31 C328.77,280.80 329.80,281.46 330.80,282.29 C330.92,282.40 331.05,282.52 331.18,282.65 C332.73,284.12 334.11,285.78 335.42,287.80 C337.82,291.61 340.09,296.81 342.43,303.63 C346.89,316.70 350.61,326.31 353.02,331.03 C354.22,333.40 354.60,335.13 353.99,335.50 C352.57,336.39 352.77,338.00 354.31,338.00 C355.03,338.00 356.47,338.62 357.50,339.38 C357.52,339.39 357.54,339.40 357.55,339.42 C358.78,340.32 359.01,340.71 357.36,341.72 C356.79,342.05 356.00,342.46 354.95,342.99 C354.49,343.21 354.00,343.48 353.49,343.78 L 353.49 343.78 C351.04,345.13 348.52,346.87 347.60,347.89 L 347.43 348.08 C347.28,348.21 347.14,348.34 347.00,348.46 L 345.71 349.66 C345.61,349.71 345.51,349.75 345.41,349.77 C344.63,349.98 343.68,349.56 341.59,348.63 L 341.50 348.59 C336.75,346.49 331.33,337.74 323.57,319.63 C319.91,311.07 319.81,310.56 320.89,305.21 C322.08,299.27 322.29,295.93 321.61,295.25 C321.49,295.09 321.34,295.00 321.15,295.00 C320.99,295.00 320.71,295.26 320.34,295.73 C319.46,296.66 318.24,298.65 316.70,301.70 C316.28,302.48 315.85,303.30 315.42,304.15 C312.21,310.55 308.99,316.11 305.82,320.75 ZM 332.72 418.43 C336.00,422.62 336.98,426.32 337.00,430.96 L 337.00 430.96 C336.99,432.06 336.84,433.46 336.59,434.99 C335.99,438.42 334.79,442.84 333.30,447.34 C332.69,448.86 332.11,449.93 331.64,450.23 C329.91,451.35 321.76,451.08 319.50,449.83 C315.98,447.89 312.86,444.60 310.91,440.81 C307.77,434.68 303.14,431.32 289.00,424.89 C266.73,414.76 259.00,410.78 259.00,409.43 C259.00,408.72 261.07,406.42 263.61,404.32 C266.14,402.22 270.07,398.80 272.34,396.72 C274.86,394.41 278.05,392.63 281.59,391.48 C285.15,390.54 288.51,390.00 291.17,390.00 C295.03,390.00 296.95,390.75 302.17,394.29 C303.31,395.06 304.41,395.81 305.47,396.54 C320.34,406.72 328.47,413.01 332.72,418.43 Z" fill="rgb(82,113,51)"/>
    <path d="M 697.50 416.95 C682.65,415.96 659.70,414.43 646.50,413.57 C606.96,410.97 594.62,409.92 592.25,408.96 C590.45,408.23 590.00,407.25 590.00,404.12 C590.00,400.54 592.77,368.62 598.02,311.74 C601.26,276.65 601.06,278.01 603.40,276.49 C605.34,275.23 636.21,271.77 669.50,269.06 C676.10,268.53 692.30,267.20 705.50,266.11 C708.38,265.87 711.06,265.65 713.57,265.44 C744.09,262.92 747.47,262.64 748.73,264.14 C748.98,264.45 749.15,264.83 749.45,265.29 C749.53,265.41 749.61,265.52 749.68,265.63 C751.34,268.32 751.00,272.24 741.56,381.60 L 741.56 381.60 L 741.40 383.50 C739.63,403.93 738.25,415.27 737.34,416.75 C735.66,419.48 735.46,419.48 697.50,416.95 ZM 728.49 402.25 C729.57,399.59 737.53,308.93 738.68,286.25 L 739.30 274.00 L 734.71 274.00 C732.18,274.00 724.57,274.43 717.80,274.96 C711.04,275.48 698.53,276.41 690.00,277.01 C674.67,278.10 639.85,281.12 620.51,283.05 C614.53,283.64 609.97,284.60 609.14,285.43 C607.82,286.75 607.10,293.10 603.04,339.00 C602.48,345.33 601.12,359.95 600.02,371.50 L 599.93 372.49 C597.91,393.69 597.57,397.18 599.06,398.33 C599.37,398.58 599.77,398.71 600.25,398.90 C602.91,399.90 681.71,403.26 715.14,403.80 C726.36,403.98 727.87,403.80 728.49,402.25 ZM 618.45 452.40 C624.57,452.21 631.25,452.84 642.06,454.41 L 642.06 454.41 L 648.14 455.34 C656.82,456.66 666.91,458.18 674.57,459.31 C678.24,459.85 681.35,460.31 683.50,460.61 L 695.50 462.31 L 722.87 458.68 C737.92,456.68 750.75,454.63 751.37,454.12 C752.63,453.09 771.97,454.73 773.32,455.98 C773.77,456.39 769.72,457.28 764.32,457.95 C758.92,458.61 741.67,460.89 726.00,463.00 C719.97,463.81 714.07,464.59 708.97,465.25 L 708.97 465.25 C700.00,466.35 692.97,467.09 691.03,467.11 C690.81,467.11 690.53,467.11 690.22,467.09 C685.33,466.74 675.91,465.62 666.27,464.20 C653.75,462.36 641.36,460.80 638.75,460.74 C636.14,460.67 634.00,460.20 634.00,459.68 C634.00,459.17 632.72,459.01 631.15,459.32 C629.58,459.63 627.89,459.53 627.40,459.10 C626.52,458.32 617.86,456.71 607.00,455.31 L 601.50 454.61 L 605.50 453.90 C606.50,453.72 607.47,453.55 608.40,453.41 L 611.14 453.13 ZM 578.26 521.33 L 578.26 521.33 C578.36,521.24 578.46,521.14 578.56,521.05 C578.59,521.03 578.62,521.00 578.64,520.97 C582.84,517.11 583.19,517.00 590.08,517.00 C598.04,517.00 602.21,518.52 606.50,523.00 L 609.28 525.90 L 607.41 528.06 L 602.45 533.09 C598.63,536.96 593.98,540.78 592.13,541.57 C588.09,543.28 577.86,543.35 573.00,541.69 C570.29,540.77 569.43,539.88 569.18,537.76 C568.99,536.08 569.81,533.52 571.25,530.75 C573.07,527.48 576.04,523.49 578.26,521.33 ZM 681.50 454.04 C679.61,453.75 677.20,453.40 674.51,453.01 L 674.51 453.01 C669.22,452.20 660.72,450.99 653.25,449.98 C647.67,449.23 642.68,448.42 639.52,447.79 L 639.52 447.79 C637.32,447.35 636.00,446.99 636.00,446.79 C636.00,446.02 637.32,445.29 639.68,444.69 C642.20,444.06 645.90,443.59 650.50,443.33 C652.92,443.19 655.41,443.18 658.21,443.31 C662.98,443.57 668.92,444.25 677.36,445.45 C678.84,445.67 680.21,445.86 681.49,446.04 C688.86,447.15 694.44,448.11 694.64,448.30 C694.87,448.54 695.47,450.14 695.96,451.86 L 696.86 455.00 L 691.18 454.90 C689.04,454.86 685.59,454.56 682.30,454.16 C682.04,454.12 681.77,454.08 681.50,454.04 ZM 608.36 520.08 C606.63,518.51 604.39,516.76 603.38,516.19 C601.61,515.20 601.61,515.08 603.52,512.94 C607.19,508.81 613.27,505.00 616.20,505.00 C620.01,505.00 623.72,507.02 627.92,511.38 C630.39,513.96 630.94,515.06 629.92,515.39 C629.14,515.64 626.83,516.36 624.80,516.99 C622.76,517.61 619.48,519.22 617.50,520.56 C612.98,523.63 612.21,523.59 608.36,520.08 ZM 221.56 337.00 C221.67,335.34 221.88,333.75 222.18,332.27 C222.44,331.39 222.69,330.42 222.92,329.45 C222.98,329.20 223.04,328.95 223.11,328.70 C224.42,324.78 226.31,322.46 227.96,323.47 C229.50,324.43 229.23,326.65 227.08,330.80 C222.97,338.71 222.00,342.45 222.25,349.48 C222.46,355.46 222.25,356.52 220.75,356.81 C219.20,357.11 219.00,356.24 219.02,349.32 C219.03,343.90 219.33,341.96 220.00,343.00 C221.05,344.62 221.05,344.61 221.56,337.00 ZM 462.61 411.77 L 470.43 404.00 L 458.97 403.94 C457.99,403.94 456.99,403.92 455.98,403.90 C463.18,403.90 470.74,403.28 475.00,402.12 C479.06,401.02 482.77,399.68 485.77,398.30 C482.05,400.58 476.12,405.63 470.38,411.11 L 476.38 405.00 L 472.89 405.00 C470.07,405.00 468.54,405.94 462.61,411.77 ZM 589.02 513.25 C589.06,512.06 596.65,507.00 598.41,507.00 C600.58,507.00 600.37,508.01 597.52,511.25 C595.87,513.12 594.12,514.00 592.05,514.00 C590.37,514.00 589.01,513.66 589.02,513.25 ZM 453.09 432.30 C450.89,438.21 452.11,443.24 456.72,447.31 C455.67,446.44 454.82,445.56 454.25,444.71 C451.61,440.80 451.08,437.00 453.09,432.30 ZM 592.99 455.79 C593.01,453.82 593.60,451.75 594.30,451.16 C594.32,451.15 594.35,451.13 594.37,451.11 C593.86,451.64 593.31,453.55 592.99,455.79 ZM 489.20 396.52 C491.59,395.09 493.00,393.72 493.00,392.63 C493.00,393.98 492.03,395.02 489.20,396.52 ZM 464.64 452.04 C467.65,453.32 471.32,454.55 473.77,455.06 C470.72,454.42 467.54,453.35 464.64,452.04 ZM 451.25 425.09 C448.38,429.63 447.00,433.75 447.00,437.64 C447.00,433.71 448.35,429.64 451.25,425.09 ZM 591.59 463.67 C591.74,463.47 591.88,463.18 592.02,462.82 C591.91,463.25 591.80,463.53 591.70,463.63 C591.68,463.66 591.64,463.67 591.59,463.67 Z" fill="rgb(87,94,85)"/>
    <path d="M 319 367.56 C 287.38 359.66 257.23 352.15 252 350.85 L 242.5 348.5 L 242.64 345.34 C 242.71 343.6 243.6 340.31 244.61 338.03 C 244.87 337.43 245.12 336.91 245.34 336.47 C 245.27 336.66 245.2 336.86 245.12 337.08 C 244.5 338.86 244.11 340.44 244.25 340.58 C 244.99 341.32 290.66 352.91 330.5 362.47 C 369.42 371.8 369.67 371.9 368.63 377.11 C 368.34 378.55 368.29 379.27 368.98 379.78 C 358.65 377.35 340 372.8 319 367.56 Z M 377.06 381.59 C 377.24 381.59 377.38 381.58 377.47 381.56 C 377.96 381.46 379.45 378.45 380.72 375.43 C 379.46 378.46 377.97 381.49 377.47 381.63 C 377.43 381.64 377.3 381.63 377.06 381.59 Z" fill="rgb(144,141,133)"/>
    <path d="M 446.43 397.92 C 438.87 397.03 433.61 395.46 434.19 394.24 C 434.53 393.54 437.27 387.95 438.73 385 C 438.68 385.16 438.63 385.34 438.58 385.54 C 438.21 387.02 438.08 388.41 438.29 388.62 C 438.5 388.83 442.88 389.91 448.03 391.01 C 456.64 392.85 459.56 394.28 458.43 396.12 C 458.19 396.51 458.55 397.07 459.24 397.36 C 460.45 397.86 463.39 397.73 466.61 397.26 C 461.59 398.18 456.36 398.95 455 398.85 C 454.17 398.79 450.32 398.37 446.43 397.92 Z M 377.06 381.59 C 376.05 381.41 373.21 380.77 368.98 379.78 C 368.29 379.27 368.34 378.55 368.63 377.11 C 369.37 373.42 369.46 372.29 355.6 368.63 C 361.22 369.98 366.41 371.03 367.74 371.05 C 369.26 371.08 372.52 371.92 375 372.92 C 379.4 374.69 379.54 374.68 381.25 372.75 C 381.59 372.36 381.92 371.96 382.19 371.58 C 381.82 372.68 381.29 374.05 380.72 375.43 C 379.45 378.45 377.96 381.46 377.47 381.56 C 377.38 381.58 377.24 381.59 377.06 381.59 Z M 472.95 395.98 C 476.1 395.15 478.46 394.16 478.23 393.4 C 478.16 393.15 478.05 392.95 477.69 392.72 C 478.08 392.87 478.33 392.99 478.41 393.07 C 478.94 393.57 478.11 394.39 476.41 395.04 C 475.75 395.3 474.51 395.62 472.95 395.98 Z M 604.72 393.7 L 605 393.74 L 604.72 393.7 Z M 382.69 369.67 C 382.1 369.29 380.52 368.71 376.65 367.6 C 380.44 368.62 382.56 369.23 382.65 369.31 C 382.7 369.36 382.71 369.48 382.69 369.67 Z M 288.62 352.21 C 264.15 346.11 244.73 341.06 244.25 340.58 C 244.7 341.03 264.82 346.26 288.62 352.21 Z M 441.09 383.36 C 442.11 383.57 443.56 383.92 445.14 384.35 C 445.62 384.48 446.23 384.65 446.96 384.84 C 444.04 384.12 441.95 383.6 441.38 383.43 C 441.28 383.41 441.19 383.38 441.09 383.36 Z M 439.41 383.61 C 439.53 383.38 439.6 383.23 439.62 383.19 C 439.66 383.12 440.06 383.16 440.71 383.28 C 440.14 383.2 439.73 383.29 439.41 383.61 Z M 288 344.56 C 272.25 340.53 258.13 336.91 251.81 335.28 C 258.07 336.89 272.2 340.51 288 344.56 C 292.62 345.74 297.17 346.91 301.63 348.05 C 297.32 346.95 292.78 345.78 288 344.56 Z" fill="rgb(182,179,170)"/>
    <path d="M 693 397.33 C 687.52 397.2 681.57 397.04 675.45 396.87 C 677.54 396.72 661.07 396.28 662.35 396.48 C 657.41 396.32 703.18 397.31 704.07 397.62 C 703.36 397.6 702.63 397.58 701.88 397.56 C 699.24 397.49 696.29 397.41 693 397.33 Z M 700.71 397 C 700.71 397 681.12 397 690.25 397 L 700.71 397 Z M 248.41 334.41 L 248.47 334.42 L 248.56 334.44 C 248.94 334.54 250.07 334.84 251.81 335.28 L 251.9 335.31 C 258.25 336.94 272.32 340.55 288 344.56 C 292.78 345.78 297.32 346.95 301.63 348.05 C 304.15 348.7 306.63 349.33 309.08 349.97 C 278.18 342.06 254.03 336 253.22 336 C 252.58 336 252.24 336.56 252.45 337.25 C 252.66 337.94 253.09 339.69 253.41 341.14 C 253.66 342.31 254.13 343.1 254.92 343.61 C 248.46 341.91 244.46 340.78 244.25 340.58 C 244.11 340.44 244.5 338.86 245.12 337.08 C 245.2 336.86 245.27 336.66 245.34 336.47 C 246.37 334.5 247.11 334.08 248.41 334.41 Z M 468 396.25 C 468 396.59 468.37 396.77 469.02 396.81 C 468.23 396.96 467.42 397.11 466.61 397.26 C 463.39 397.73 460.45 397.86 459.24 397.36 C 458.55 397.07 458.19 396.51 458.43 396.12 C 459.56 394.28 456.64 392.85 448.03 391.01 C 447.31 390.85 446.61 390.7 445.93 390.55 C 448.7 391.07 452.18 391.63 455 392.01 C 463.18 393.11 468 394.68 468 396.25 Z M 263.38 345.82 C 268.34 347.03 275.48 348.82 283 350.74 C 292.32 353.12 305.56 356.41 316.76 359.15 C 307.16 356.81 297.55 354.44 288.61 352.21 C 279.32 349.89 270.59 347.68 263.38 345.82 Z M 439.5 389.02 C 438.78 388.82 438.35 388.68 438.29 388.62 C 438.08 388.41 438.21 387.02 438.58 385.54 C 438.63 385.34 438.68 385.16 438.73 385 L 438.94 384.57 C 438.79 385.03 438.64 385.57 438.5 386.13 C 438.08 387.81 438.06 388.45 439.5 389.02 Z M 382.69 369.67 C 382.69 369.73 382.68 369.8 382.66 369.87 C 382.33 369.56 381.71 369.23 380.71 368.84 C 381.78 369.2 382.38 369.46 382.69 369.67 Z M 327.41 361.72 C 327.78 361.81 328.14 361.9 328.5 361.98 C 331.62 362.73 334.81 363.49 337.89 364.24 C 335.59 363.69 333.14 363.1 330.5 362.47 C 329.47 362.22 328.44 361.97 327.41 361.72 Z M 354.12 368.24 C 354.85 368.43 355.52 368.6 356.09 368.75 C 355.93 368.71 355.76 368.67 355.6 368.63 C 355.12 368.5 354.63 368.37 354.12 368.24 Z M 441.09 383.36 C 441.16 383.38 441.23 383.39 441.29 383.41 C 441.01 383.35 440.74 383.3 440.52 383.26 C 440.58 383.27 440.64 383.28 440.71 383.28 C 440.83 383.31 440.96 383.33 441.09 383.36 Z" fill="rgb(205,208,195)"/>
    <path d="M 225.50 373.08 C205.67,368.43 188.32,360.14 183.22,352.89 C182.00,351.17 182.30,351.10 188.72,351.62 C192.45,351.92 197.58,353.02 200.11,354.05 C203.74,355.53 205.45,355.73 208.11,354.97 C209.97,354.44 211.60,354.00 211.74,354.00 C211.88,354.00 212.00,355.24 212.00,356.75 C212.01,361.32 215.41,365.80 219.45,366.56 C224.73,367.55 227.86,366.35 230.15,362.47 C231.03,360.97 231.55,360.04 232.34,359.57 C233.61,358.81 235.59,359.23 240.93,360.36 L 241.50 360.48 C245.35,361.30 253.59,361.97 259.82,361.98 C271.08,362.00 271.13,362.01 270.48,364.25 C269.45,367.83 266.56,371.38 263.41,372.93 C258.61,375.30 235.34,375.39 225.50,373.08 ZM 204.79 326.71 C204.67,326.87 204.57,327.06 204.50,327.25 C199.15,342.65 195.74,347.03 191.29,344.20 C190.35,343.60 190.44,341.59 191.68,335.30 C194.02,323.45 191.84,319.57 188.99,330.50 C187.03,338.03 184.27,343.00 182.05,343.00 C178.97,343.00 176.74,340.06 177.38,336.87 C177.69,335.32 178.25,331.06 178.62,327.40 C179.57,318.12 177.37,319.16 174.04,329.57 C171.77,336.65 171.23,337.50 169.03,337.50 C165.55,337.50 164.13,334.17 165.08,328.25 C165.50,325.64 165.59,320.26 165.28,316.30 C165.16,314.76 165.09,313.39 165.10,312.16 C165.27,313.13 165.68,313.68 166.30,313.44 C167.02,313.16 169.49,314.68 171.79,316.81 C175.34,320.09 177.09,320.87 183.24,321.94 C190.31,323.17 192.26,323.51 192.80,324.56 C193.01,324.97 193.01,325.49 193.02,326.22 C193.02,327.48 193.36,328.03 193.77,327.45 C194.17,326.87 197.43,326.44 201.00,326.50 C202.45,326.52 203.69,326.58 204.79,326.71 ZM 249.81 141.25 C247.37,138.42 246.92,136.03 248.02,131.94 C249.38,126.86 253.47,122.15 258.46,119.88 C263.34,117.66 265.03,117.57 267.51,119.39 C269.31,120.70 269.14,121.06 264.23,126.44 C261.38,129.56 257.58,134.56 255.79,137.56 C254.00,140.55 252.26,143.00 251.92,143.00 C251.59,143.00 250.63,142.21 249.81,141.25 ZM 203.63 347.72 C201.99,346.52 202.04,346.12 204.43,340.97 C206.50,336.53 207.53,329.67 206.85,327.06 C208.41,327.42 209.69,327.97 211.00,328.80 C214.25,330.84 214.59,330.88 215.75,329.31 C215.96,329.03 216.14,328.66 216.29,328.23 C215.00,336.78 211.49,346.13 208.15,347.92 L 207.99 348.01 C206.81,348.64 206.23,348.95 205.69,348.90 C205.16,348.85 204.66,348.47 203.63,347.72 ZM 394.03 393.00 L 394.03 393.00 C396.86,393.00 397.78,395.96 395.47,397.64 C394.23,398.55 392.14,398.96 389.70,398.89 C389.89,398.83 390.00,398.72 390.00,398.58 C390.00,396.74 388.12,394.55 384.34,392.00 C381.29,389.94 378.90,388.95 377.47,389.07 C377.72,389.02 378.00,389.00 378.31,389.00 C381.62,389.00 383.60,387.08 385.01,382.50 C385.03,382.45 385.04,382.41 385.06,382.36 C384.24,385.37 385.20,386.52 388.00,387.50 C390.12,388.25 392.16,388.40 393.17,387.88 C393.73,387.59 394.24,387.06 394.70,386.34 C394.64,386.47 394.58,386.61 394.52,386.74 C394.37,387.07 394.22,387.38 394.09,387.68 C392.50,391.15 391.94,392.36 392.30,392.78 C392.49,393.00 392.91,393.01 393.55,393.00 L 393.67 393.00 L 393.72 393.00 C393.82,393.00 393.92,393.00 394.03,393.00 ZM 423.71 371.91 C423.68,372.29 423.64,372.67 423.60,373.05 C423.55,372.39 423.37,372.00 423.05,372.00 C422.47,372.00 422.00,371.44 422.00,370.76 C422.00,370.08 421.21,367.61 420.25,365.26 C419.07,362.40 417.89,361.01 416.63,361.00 C415.71,361.00 415.26,361.20 415.19,361.79 C414.92,360.15 415.41,360.00 417.86,360.00 C422.71,360.00 424.42,363.47 423.71,371.91 ZM 400.49 388.98 C400.14,388.42 400.61,385.68 401.53,382.91 C401.98,381.54 402.31,380.21 402.50,378.92 C402.60,382.73 403.06,383.99 404.49,385.16 C405.90,386.33 406.87,386.52 407.73,385.81 C408.04,385.55 408.34,385.15 408.62,384.63 C407.73,386.84 406.66,388.54 405.61,389.23 C404.00,390.30 401.22,390.16 400.49,388.98 ZM 409.18 364.67 C410.42,367.48 410.91,369.52 410.90,372.48 C410.76,371.57 410.48,371.00 410.00,371.00 C409.45,371.00 409.00,370.51 409.00,369.90 C409.00,369.30 408.28,367.28 407.39,365.42 C405.63,361.70 401.79,360.02 397.24,360.84 C399.33,360.35 401.65,360.00 403.42,360.00 C406.85,360.00 407.26,360.33 409.18,364.67 ZM 402.31 372.24 C401.72,369.90 400.57,367.95 398.89,366.54 C399.36,366.89 399.78,367.26 400.12,367.63 C401.43,369.03 402.04,370.10 402.31,372.24 ZM 415.33 391.12 C416.96,389.73 418.85,387.52 420.21,385.21 C418.90,387.70 417.26,389.70 415.33,391.12 ZM 167.57 303.65 C168.62,302.40 170.05,301.29 171.94,300.13 C173.66,299.07 175.16,298.26 176.56,297.66 C173.27,299.12 169.62,301.54 167.57,303.65 ZM 183.79 296.48 C185.28,296.63 186.88,296.98 188.73,297.52 C190.48,298.02 192.55,298.81 194.74,299.77 C190.53,297.98 186.77,296.85 183.79,296.48 ZM 415.78 364.64 C416.43,367.34 416.75,370.01 416.73,372.75 C416.71,370.29 416.39,367.73 415.78,364.64 ZM 387.62 376.19 C387.11,377.24 386.67,378.19 386.29,379.04 C386.95,377.47 387.69,375.86 388.33,374.70 C388.46,374.47 388.58,374.25 388.70,374.04 C388.39,374.64 388.03,375.35 387.62,376.19 ZM 394.00 361.78 C392.45,362.39 391.88,362.94 392.27,363.43 C392.10,363.29 392.00,363.16 392.00,363.05 C392.00,362.68 392.79,362.22 394.00,361.78 ZM 396.53 380.72 C396.72,379.34 396.80,377.86 396.73,376.37 C396.83,377.92 396.77,379.31 396.53,380.72 ZM 213.93 311.76 C213.46,311.15 212.92,310.55 212.28,309.95 C212.74,310.35 213.12,310.73 213.40,311.06 C213.58,311.28 213.75,311.51 213.93,311.76 ZM 394.12 364.29 C394.35,364.35 394.60,364.41 394.87,364.47 C395.31,364.57 395.80,364.74 396.32,364.98 C395.82,364.77 395.30,364.60 394.75,364.47 C394.53,364.41 394.33,364.35 394.12,364.29 ZM 412.00 391.59 C412.00,392.18 412.20,392.48 412.54,392.56 C412.15,392.55 412.00,392.24 412.00,391.59 ZM 393.05 371.17 C393.17,371.18 393.29,371.19 393.42,371.20 C394.66,371.33 395.39,371.45 395.85,371.94 C395.38,371.45 394.61,371.32 393.31,371.19 C393.22,371.19 393.13,371.18 393.05,371.17 Z" fill="rgb(205,127,72)"/>
    <path d="M 360.02 228.26 C 359.21 227.94 356.77 226.39 354.6 224.82 L 350.65 221.96 L 339.07 222.58 C 330.4 223.05 325.62 222.81 320 221.63 C 311.37 219.82 294.53 211.8 288.53 206.66 L 284.56 203.25 L 286.37 197.38 C 287.37 194.14 289.71 188.76 291.56 185.4 C 294.57 179.95 295.56 179.02 300.95 176.6 C 309.65 172.7 318.91 171.04 332 171.03 C 353.64 171.01 380 179.32 380 186.15 C 380 188.51 378.31 188.56 377.57 186.22 C 376.68 183.41 371.39 180.76 368.11 181.48 C 365.11 182.13 359.2 187.53 360.29 188.62 C 360.65 188.98 362.29 188.71 363.95 188.02 C 367.91 186.38 373.11 187.42 375.92 190.41 C 378.15 192.79 378.16 192.82 376.43 199.15 C 374.38 206.68 373.45 208.03 372.48 204.85 C 371.25 200.83 368.93 199 365.07 199 C 360.78 199 357.55 201.03 355.49 205.01 C 353.41 209.05 353.57 209.23 357.25 206.99 C 357.54 206.82 357.83 206.65 358.13 206.5 C 353.41 209.14 351.8 214.32 353.14 219.26 C 354.727 225.109 364.558 220.812 365.678 220.592 C 367.548 220.232 369.95 218.47 370.22 215.92 C 370.63 220.85 370.25 226 368.86 227.67 C 367.75 229.01 362.77 229.34 360.02 228.26 Z M 183.79 296.48 C 186.77 296.85 190.53 297.98 194.74 299.77 C 201.28 302.63 208.92 307.01 212.28 309.95 C 212.92 310.55 213.46 311.15 213.93 311.76 C 215.15 313.55 216.22 316.32 216.57 318.65 C 216.97 321.31 216.82 324.7 216.29 328.23 C 216.14 328.66 215.96 329.03 215.75 329.31 C 214.59 330.88 214.25 330.84 211 328.8 C 209.69 327.97 208.41 327.42 206.85 327.06 C 206.67 326.39 206.38 326 205.97 326 C 205.56 326 205.1 326.29 204.79 326.71 C 203.69 326.58 202.45 326.52 201 326.5 C 197.43 326.44 194.17 326.87 193.77 327.45 C 193.36 328.03 193.02 327.48 193.02 326.22 C 193.01 325.49 193.01 324.97 192.8 324.56 C 192.26 323.51 190.31 323.17 183.24 321.94 C 177.09 320.87 175.34 320.09 171.79 316.81 C 169.49 314.68 167.02 313.16 166.3 313.44 C 165.68 313.68 165.27 313.13 165.1 312.16 C 165.11 308.27 165.8 305.75 167.57 303.65 C 169.62 301.54 173.27 299.12 176.56 297.66 C 179.07 296.59 181.26 296.23 183.79 296.48 Z M 317.57 216.091 C 318.674 216.228 330.237 220.554 331.47 215.14 C 333.77 205.038 329.8 199.05 320.96 199 C 324.84 199.02 326.53 199.58 328.97 201.62 C 332.76 204.82 333.57 204.27 332.02 199.57 C 330.39 194.62 327.64 193 320.85 193 C 316.16 193 314.6 193.46 312.04 195.62 C 308.77 198.38 306 202.86 306 205.42 C 306 207.45 308.46 206.45 311.79 203.15 C 309.96 205.11 308.57 207.23 308.63 208 C 308.71 208.82 308.82 210.05 308.88 210.73 C 309.02 212.19 316.3 215.933 317.57 216.091 Z M 402.31 372.24 C 402.04 370.1 401.43 369.03 400.12 367.63 C 399.78 367.26 399.36 366.89 398.89 366.54 C 398.14 365.9 397.28 365.38 396.32 364.98 C 395.8 364.74 395.31 364.57 394.87 364.47 C 394.6 364.41 394.35 364.35 394.12 364.29 C 393.3 364.04 392.62 363.72 392.27 363.43 C 391.88 362.94 392.45 362.39 394 361.78 C 394.9 361.44 396.03 361.12 397.24 360.84 C 401.79 360.02 405.63 361.7 407.39 365.42 C 408.28 367.28 409 369.3 409 369.9 C 409 370.51 409.45 371 410 371 C 410.48 371 410.76 371.57 410.9 372.48 C 410.89 373.38 410.84 374.36 410.75 375.47 C 410.5 378.68 409.68 382.01 408.62 384.63 C 408.34 385.15 408.04 385.55 407.73 385.81 C 406.87 386.52 405.9 386.33 404.49 385.16 C 403.06 383.99 402.6 382.73 402.5 378.92 C 402.88 376.49 402.8 374.22 402.31 372.24 Z M 412 391.59 C 412 390.78 412.4 389.87 412.89 389.57 C 413.38 389.27 414.56 385.82 415.52 381.92 C 416.35 378.53 416.76 375.72 416.73 372.75 C 416.75 370.01 416.43 367.33 415.78 364.64 C 415.66 364.03 415.52 363.4 415.38 362.75 C 415.3 362.39 415.23 362.07 415.19 361.79 C 415.26 361.2 415.71 361 416.63 361 C 417.89 361.01 419.07 362.4 420.25 365.26 C 421.21 367.61 422 370.08 422 370.76 C 422 371.44 422.47 372 423.05 372 C 423.37 372 423.55 372.39 423.6 373.05 C 423.09 377.83 421.93 381.95 420.21 385.21 C 418.85 387.52 416.96 389.73 415.33 391.12 C 414.82 391.5 414.3 391.83 413.75 392.13 C 413.21 392.42 412.82 392.57 412.54 392.56 C 412.2 392.48 412 392.18 412 391.59 Z M 337 183.08 C 337 182.02 335.84 179.78 334.43 178.1 C 329.44 172.17 318.62 171.76 312.36 177.25 C 307.74 181.31 307.79 183.4 312.47 181.45 C 314.38 180.65 318.78 180 322.25 180 C 327.33 180 329.23 180.48 332.03 182.45 C 336.27 185.45 337 185.54 337 183.08 Z M 387.62 376.19 C 388.03 375.35 388.39 374.64 388.7 374.04 C 390.15 371.52 390.95 371.02 393.05 371.17 C 393.13 371.18 393.22 371.19 393.31 371.19 C 394.61 371.32 395.38 371.45 395.85 371.94 C 396.43 372.56 396.56 373.78 396.73 376.35 L 396.73 376.37 C 396.83 377.92 396.77 379.31 396.53 380.72 C 396.23 382.47 395.64 384.23 394.7 386.34 C 394.24 387.06 393.73 387.59 393.17 387.88 C 392.16 388.4 390.12 388.25 388 387.5 C 385.2 386.52 384.24 385.37 385.06 382.36 C 385.36 381.41 385.8 380.23 386.29 379.04 L 386.3 379.04 C 386.67 378.19 387.11 377.24 387.62 376.19 Z M 424.28 391.38 C 424.6 390.35 425.64 387.48 426.57 385 C 427.51 382.52 428.5 376.75 428.77 372.17 C 429.22 364.48 429.39 363.96 430.88 365.45 C 432.12 366.69 432.5 369.06 432.5 375.45 C 432.5 383.15 432.26 384.17 429.5 388.08 C 426.23 392.73 423.29 394.59 424.28 391.38 Z M 382.51 397.49 C 378.22 395.96 376 393.69 376 390.81 C 376 389.83 376.48 389.26 377.47 389.07 C 378.9 388.95 381.29 389.94 384.34 392 C 388.12 394.55 390 396.74 390 398.58 C 390 398.72 389.89 398.83 389.7 398.89 C 387.47 398.83 384.95 398.36 382.51 397.49 Z M 321.5 204.58 C 323.24 203.55 325.33 203.57 326.97 204.98 C 326.16 204.37 325.17 204 324.03 204 C 323.09 204 322.24 204.21 321.5 204.58 Z M 368.81 208.49 C 368.06 206.62 367.29 205.7 366.1 205.29 C 366.8 205.49 367.36 205.8 367.7 206.25 C 368.11 206.8 368.48 207.57 368.81 208.49 Z M 363.06 210.22 C 364.01 210.34 364.59 210.48 364.93 210.93 C 364.53 210.53 363.94 210.34 363.06 210.22 Z" fill="rgb(240,175,114)"/>
  </g>
  <g>
    <path style="fill: none; stroke: rgb(0, 0, 0);" d="M 617.991 316.342 C 617.991 316.342 610.731 388.566 610.584 394.656"/>
    <path style="fill: none; stroke: rgb(0, 0, 0); stroke-width: 1;" d="M 653.131 315.169 C 653.131 315.169 645.601 389.477 645.454 395.567"/>
    <path style="fill: none; stroke: rgb(0, 0, 0); stroke-width: 1;" d="M 635.686 315.718 C 635.686 315.718 628.383 389.367 628.236 395.457"/>
    <path style="fill: none; stroke: rgb(0, 0, 0); stroke-width: 1;" d="M 670.756 314.522 C 670.756 314.522 663.15 390.349 663.003 396.439"/>
    <path style="fill: none; stroke: rgb(0, 0, 0); stroke-width: 1;" d="M 691.388 313.512 C 691.388 313.512 683.76 391.102 683.613 397.192"/>
    <path style="fill: none; stroke: rgb(0, 0, 0); stroke-width: 1;" d="M 712.53 312.436 C 712.53 312.436 704.34 392.019 704.193 398.109"/>
    <path style="fill: none; stroke: rgb(0, 0, 0); stroke-width: 1;" d="M 731.014 317.776 L 610.637 321.65"/>
    <path style="fill: none; stroke: rgb(0, 0, 0); stroke-width: 1;" d="M 729.968 325.644 L 609.591 329.518"/>
    <path style="fill: none; stroke: rgb(0, 0, 0); stroke-width: 1;" d="M 729.594 333.613 L 609.217 337.487"/>
    <path style="fill: none; stroke: rgb(0, 0, 0); stroke-width: 1;" d="M 728.897 341.445 L 608.41 344.333"/>
    <path style="fill: none; stroke: rgb(0, 0, 0); stroke-width: 1;" d="M 729.029 350.102 L 608.454 351.932"/>
    <path style="fill: none; stroke: rgb(0, 0, 0); stroke-width: 1;" d="M 727.599 359.597 L 607.3 360.745"/>
    <path style="fill: none; stroke: rgb(0, 0, 0); stroke-width: 1;" d="M 726.424 369.172 L 606.18 369.659"/>
    <path style="fill: none; stroke: rgb(0, 0, 0); stroke-width: 1;" d="M 725.73 378.74 L 604.713 378.387"/>
    <path style="fill: none; stroke: rgb(0, 0, 0); stroke-width: 1;" d="M 725.139 390.332 L 604.887 388.468"/>
  </g>
  <g>
    <path style="paint-order: fill; stroke-miterlimit: 8.96; stroke-dasharray: 8; stroke-dashoffset: -100px; stroke-width: 3px; stroke-opacity: 0.62; vector-effect: non-scaling-stroke; fill: none; stroke: url(&quot;#gradient-12-0&quot;);" d="M 452.583 343.088 C 450.494 327.995 446.595 312.638 444.465 297.534"/>
    <path style="paint-order: fill; stroke-miterlimit: 8.96; stroke-dasharray: 8; stroke-dashoffset: -100px; stroke-width: 3px; stroke-opacity: 0.62; vector-effect: non-scaling-stroke; fill: none; stroke: url(&quot;#gradient-12-1&quot;);" d="M 482.32 351.2 C 480.466 333.812 481.947 315.81 481.947 298.269"/>
    <path style="paint-order: fill; stroke-miterlimit: 8.96; stroke-dasharray: 8; stroke-dashoffset: -100px; stroke-width: 3px; stroke-opacity: 0.62; vector-effect: non-scaling-stroke; fill: none; stroke: url(&quot;#gradient-12-2&quot;);" d="M 499.785 349.334 C 501.38 328.363 516.118 307.976 523.972 288.63"/>
    <path style="paint-order: fill; stroke-miterlimit: 8.96; stroke-dasharray: 8; stroke-dashoffset: -100px; stroke-width: 3px; stroke-opacity: 0.62; vector-effect: non-scaling-stroke; fill: none; stroke: url(&quot;#gradient-12-3&quot;);" d="M 441.122 414.285 C 427.228 427.88 417.077 444.685 408.027 461.731 C 402.549 472.049 398.723 483.444 389.514 490.823"/>
    <path style="paint-order: fill; stroke-miterlimit: 8.96; stroke-dasharray: 8; stroke-dashoffset: -100px; stroke-width: 3px; stroke-opacity: 0.62; vector-effect: non-scaling-stroke; fill: none; stroke: url(&quot;#gradient-12-4&quot;);" d="M 494.305 405.719 C 514.683 406.979 536.704 418.529 556.44 424.184"/>
    <path style="paint-order: fill; stroke-miterlimit: 8.96; stroke-dasharray: 8; stroke-dashoffset: -100px; stroke-width: 3px; stroke-opacity: 0.62; vector-effect: non-scaling-stroke; fill: none; stroke: url(&quot;#gradient-12-5&quot;);" d="M 480.002 418.671 C 486.72 443.283 505.755 464.595 520.722 485.319"/>
  </g>
</svg>