<?xml version="1.0" encoding="utf-8"?>
<svg xmlns="http://www.w3.org/2000/svg" viewBox="891.466 138.289 313.623 479.837">
  <g transform="matrix(1, 0, 0, 1, 202.483551, 32.687214)">
    <path d="M 865.27 263.41 C 853.34 260.32 842.66 250.15 834.4 234 C 832.28 229.88 829.16 225.11 827.46 223.4 C 825.69 221.63 823.66 217.99 822.72 214.9 C 820.78 208.55 818.97 190.86 820.35 191.72 C 820.9 192.06 821 190.8 820.59 188.64 C 820.22 186.64 820.3 185 820.79 185 C 821.27 185 821.67 184.44 821.67 183.75 C 821.68 181 825.93 173.29 829.35 169.81 C 831.35 167.78 836.3 164.48 840.36 162.47 C 840.4 162.45 840.45 162.43 840.5 162.4 C 837.36 164.36 839.32 165.05 846.32 164.42 C 858.02 163.36 869.25 167.45 878.57 176.18 C 882.57 179.92 887 187.29 887 190.19 C 887 191 887.3 191.97 887.67 192.33 C 888.69 193.36 890.47 193.13 891.8 191.8 C 895.85 187.75 889.64 171.58 881.43 164.78 C 875.46 159.84 870.5 158.49 858.5 158.54 C 855.79 158.55 853.66 158.6 851.89 158.74 C 869.3 155.71 888.03 163.11 894.93 177.35 C 896.17 179.92 897.68 185.17 898.27 189.01 C 899.3 195.66 899.24 196.11 897.08 198.42 C 894.04 201.65 882.05 206 876.19 206 C 873.61 206 866.87 205.1 861.21 204 C 849.43 201.71 837.76 201.36 836.24 203.25 C 834.36 205.61 833.8 209.22 834.48 214.66 C 835.33 221.52 838.57 225.41 847.06 229.79 C 855.1 233.94 861.82 234.09 872.62 230.36 L 880.26 227.73 L 884.49 229.78 C 888.17 231.57 888.8 232.36 889.37 235.89 C 889.96 239.6 889.3 242.67 886.46 249.41 C 885.93 250.68 886.02 251.11 886.72 250.68 C 889.16 249.17 888.67 254.15 886.02 257.82 C 881.71 263.76 874.33 265.75 865.27 263.41 Z M 913.28 520.09 C 908.68 518.91 905.55 516.62 903.08 512.63 C 900.88 509.06 895.71 494.95 896.37 494.29 C 896.57 494.09 899.12 494.86 902.02 496.01 C 910.05 499.17 911.3 498.12 904.97 493.51 C 883.38 477.82 866.55 460.67 858.27 445.93 C 855.86 441.65 855.08 441 852.34 441 C 845.27 441 824.94 431.98 822.29 427.68 C 821.83 426.94 820.19 425.55 818.58 424.39 C 820.02 425.31 821.42 426 821.94 426 C 822.56 426 825.34 427.15 828.13 428.57 C 834.61 431.85 846.87 434.99 853.41 435.04 L 858.5 435.08 L 861 440.21 C 868.69 456 886.37 476.19 898.02 482.46 C 901.58 484.38 905.74 485.96 907.26 485.98 C 911.37 486.01 918.56 482.26 919.86 479.41 C 922.68 473.21 920.31 461.35 913.76 448.91 C 907.26 436.57 906.19 434.7 904.04 432 C 902.94 430.62 900.7 427.61 899.05 425.3 C 895.62 420.48 890.23 418.42 883.46 419.35 C 879.3 419.92 870.32 423.66 867.52 425.99 C 866.66 426.7 865.63 426.95 865.23 426.54 C 864.28 425.58 870.85 419.84 878.77 414.71 C 882.23 412.47 884.89 410.16 884.7 409.57 C 884.1 407.77 873.88 407.76 867.24 409.54 C 858.85 411.8 831.39 411.2 819.26 408.5 C 811.54 406.78 810.91 406.77 809.17 408.35 C 807.48 409.87 806.98 409.89 803.72 408.53 C 800.14 407.03 800.13 407.03 796.32 410.81 C 795.79 411.33 795.27 411.85 794.76 412.38 C 795.41 411.66 796.08 410.92 796.78 410.16 C 801.84 404.65 803.84 402.21 806.29 401.62 C 808.16 401.16 810.28 401.78 814.23 402.93 C 814.78 403.09 815.37 403.26 816 403.44 C 835 408.89 873.23 407.29 894.33 400.18 C 899.13 398.56 899.16 398.56 900.99 400.99 C 902.63 403.17 902.68 403.72 901.42 406.16 C 899.63 409.62 899.67 415.35 901.53 420.5 C 902.32 422.7 902.98 425.56 902.98 426.86 C 903.01 430.9 907.04 436.86 910.51 438 C 912.25 438.58 914.95 440.39 916.52 442.02 C 918.09 443.66 919.95 445 920.66 445 C 923.08 445 924.93 449.53 926.37 459.02 C 928.04 469.98 928.61 471.99 933.64 477.5 C 932.64 476.49 931.98 475.94 931.95 476.17 C 931.92 476.35 931.77 480.65 931.61 485.71 L 931.33 494.92 L 937.91 498.41 C 941.54 500.33 945.17 501.79 946 501.66 C 947.67 501.4 947.63 497.98 946.28 494.24 C 948.24 498.68 948.34 502.44 946.66 505.69 C 944.71 509.46 938.23 515.33 933.16 517.92 C 928.74 520.17 918.15 521.33 913.28 520.09 Z M 762.57 472.14 C 762.97 472.93 763.7 473.69 764.75 474.67 C 770.1 479.67 771.48 480.22 775.82 479.05 C 782.61 477.22 798.08 465.39 808.45 454.09 C 810.68 451.67 812.97 449.19 813.55 448.59 C 817.68 444.29 823.18 435.53 822.4 434.49 C 821.82 433.72 821.13 432.74 820.4 431.66 C 824.35 436.72 829.99 441.83 833.91 443.64 C 836.13 444.66 837.96 445.91 837.97 446.4 C 838.04 448.75 814.78 465.91 804.58 471.03 C 798.54 474.07 797.01 476 800.64 476 C 801.88 476 801.75 476.67 799.95 479.57 C 797.34 483.8 798.38 485.94 802.08 483.96 C 804.07 482.89 804.6 483.03 806.17 484.97 C 807.17 486.19 808.66 489.5 809.5 492.31 C 811.45 498.89 810.27 502.76 804.89 507.37 C 799.58 511.91 793.94 513.35 783.59 512.81 C 776.5 512.44 774.49 511.93 771 509.62 C 766.01 506.32 764 502.01 764 494.63 C 764 489.58 764.15 489.23 766.11 489.74 C 767.96 490.22 768.13 489.99 767.49 487.9 C 767.08 486.58 766.18 484.38 765.49 483 C 764.79 481.62 763.71 477.99 763.08 474.93 C 762.85 473.83 762.68 472.93 762.57 472.14 Z M 956.09 400.86 C 952.65 396.71 945.22 392.54 939.25 391.4 C 936 390.78 934.98 389.51 937.15 388.78 C 938.31 388.4 938.47 386.98 938.81 374.81 L 939 368.12 L 943.75 367.35 C 952.63 365.89 958.63 366.64 964.35 369.91 C 971.48 373.99 972.97 375.88 973.6 381.61 C 974.11 386.28 973.86 386.91 968.01 395.75 C 964.65 400.84 961.36 404.99 960.7 404.98 C 960.04 404.97 957.97 403.12 956.09 400.86 Z M 743.71 380.82 C 741.46 380 741.14 379.53 742.08 378.4 C 742.72 377.63 743.99 377 744.9 377 C 745.81 377 747.66 376.22 749.02 375.27 C 750.37 374.33 752.36 373.42 753.43 373.25 C 756.52 372.78 756.6 372 753.55 372 C 750.8 372 750.78 371.96 751.53 367.25 C 751.95 364.64 752.79 357.5 753.4 351.38 L 754.5 340.26 L 759.81 342.77 C 767.05 346.2 770.28 350.64 770.77 357.85 C 771.29 365.43 769.35 370.93 765.26 373.48 C 763.47 374.59 761.73 376.55 761.38 377.82 C 761.03 379.1 759.65 380.56 758.31 381.07 C 755.17 382.27 747.29 382.13 743.71 380.82 Z M 933.25 560.95 C 931.46 560.39 930 559.72 930 559.46 C 930 558.64 933.93 544.73 934.23 544.52 C 934.38 544.41 936.53 543.61 939 542.75 C 941.47 541.89 945.3 540.5 947.5 539.67 L 951.5 538.15 L 955.3 541.82 C 963.83 550.06 967.41 559.03 962.75 560.45 C 958.9 561.63 936.67 562 933.25 560.95 Z M 833.71 286.89 C 832.18 284.68 829.54 282.1 827.85 281.18 C 820.59 277.2 820.57 277.17 822.31 269.54 C 823.17 265.78 824.41 262.36 825.08 261.95 C 825.87 261.46 826.1 259.62 825.76 256.59 C 825.48 254.05 825.62 251.73 826.09 251.45 C 826.55 251.16 828.13 253.31 829.6 256.21 C 834.73 266.37 840.42 272.26 849.79 277.12 L 853.09 278.83 L 849.29 281.65 C 847.21 283.21 843.99 285.95 842.15 287.74 C 840.31 289.53 838.28 290.98 837.65 290.96 C 837.02 290.94 835.24 289.11 833.71 286.89 Z M 742.09 559.59 L 739.68 558.26 L 742.09 556.79 C 743.42 555.98 748.78 552.92 754 549.98 C 759.22 547.04 765.74 543.15 768.49 541.32 C 771.23 539.49 774.22 538 775.13 538 C 776.89 538 784.86 543.94 784.95 545.32 C 784.98 545.77 784.42 546.73 783.7 547.44 C 782.1 549.04 776 552.26 776 551.5 C 776 550.6 770.78 553.58 766.78 556.77 C 764.74 558.4 763.35 560.02 763.7 560.37 C 765 561.67 744.51 560.94 742.09 559.59 Z M 712.5 390.62 C 708.39 389.36 708.28 389.09 709.51 383.38 C 709.94 381.4 710.31 381.33 715.24 382.21 C 718.13 382.73 720.87 383.51 721.32 383.95 C 721.77 384.38 721.83 386.37 721.46 388.37 C 720.69 392.45 719.46 392.76 712.5 390.62 Z M 727 322.43 C 719.37 320.78 710 317.16 710 315.86 C 710 314.57 712.27 313.73 715.44 313.58 C 714.32 313.81 714.23 314.44 714.62 315.45 C 714.95 316.31 716.73 316.85 719.33 316.88 C 721.62 316.91 728 318.46 733.5 320.33 C 739.41 322.34 742.29 323.33 743.97 323.61 C 739.87 324.16 733.12 323.76 727 322.43 Z M 827.68 201.75 C 827.7 196.73 827.41 194.28 826.93 195.5 C 825.48 199.18 825.89 210 827.48 210 C 827.57 210 827.65 206.29 827.68 201.75 Z M 873 201.1 C 871.39 200.21 858.34 198.67 859.14 199.47 C 859.97 200.3 867.36 201.8 871 201.87 C 873.38 201.92 874.02 201.67 873 201.1 Z M 838 276.41 C 838 276.08 837.14 274.72 836.08 273.37 C 833.77 270.44 832.44 271.75 834.6 274.84 C 836.01 276.85 838 277.77 838 276.41 Z M 784.47 424.49 C 779.49 431.32 775.36 438.76 771.53 447.64 C 775.83 437.69 779.06 431.58 784.47 424.49 Z M 829.09 286.88 C 830.15 287.51 831.08 288.1 831.83 288.61 C 833.92 290.05 835.91 291.32 837.27 292.13 C 835.67 291.61 833.81 290.31 830.93 288.13 C 830.45 287.77 829.82 287.34 829.09 286.88 Z M 747.26 322.6 C 748.79 321.44 748.76 320.58 746.43 319.62 C 747.11 319.85 747.56 320.05 747.74 320.2 C 748.77 321.05 748.67 321.53 747.26 322.6 Z M 941.2 486.07 C 939.7 484.23 937.96 482.2 936.4 480.45 C 938.22 482.42 939.82 484.29 941.2 486.07 Z M 735.27 316.75 C 732.04 316.07 729.28 315.5 726.93 315.03 C 729.78 315.58 732.63 316.17 735.27 316.75 Z M 815.21 422.4 C 815.45 422.32 816.06 422.65 817.16 423.41 C 816.29 422.85 815.56 422.45 815.21 422.4 Z M 771.53 447.64 C 769.43 452.52 766.42 459.36 764.85 462.86 C 764.53 463.59 764.23 464.25 763.97 464.86 C 764.22 464.28 764.5 463.64 764.82 462.93 C 766.41 459.39 769.43 452.52 771.53 447.64 Z M 815.74 424.22 C 815.51 423.79 815.34 423.45 815.26 423.23 C 815.25 423.2 815.24 423.18 815.23 423.16 C 815.36 423.44 815.53 423.8 815.74 424.22 Z" fill="rgb(34,67,40)" style=""/>
    <path d="M 762.57 472.14 C 762.22 469.6 762.54 468.18 763.97 464.86 C 764.23 464.25 764.53 463.59 764.85 462.86 C 766.42 459.36 769.43 452.52 771.53 447.64 C 775.36 438.76 779.49 431.32 784.47 424.49 C 787.2 420.91 790.49 417.08 794.76 412.38 C 795.27 411.85 795.79 411.33 796.32 410.81 C 800.13 407.03 800.14 407.03 803.72 408.53 C 806.98 409.89 807.48 409.87 809.17 408.35 C 810.91 406.77 811.54 406.78 819.26 408.5 C 831.39 411.2 858.85 411.8 867.24 409.54 C 873.88 407.76 884.1 407.77 884.7 409.57 C 884.89 410.16 882.23 412.47 878.77 414.71 C 870.85 419.84 864.28 425.58 865.23 426.54 C 865.63 426.95 866.66 426.7 867.52 425.99 C 870.32 423.66 879.3 419.92 883.46 419.35 C 890.23 418.42 895.62 420.48 899.05 425.3 C 900.7 427.61 902.94 430.62 904.04 432 C 906.19 434.7 907.26 436.57 913.76 448.91 C 920.31 461.35 922.68 473.21 919.86 479.41 C 918.56 482.26 911.37 486.01 907.26 485.98 C 905.74 485.96 901.58 484.38 898.02 482.46 C 886.37 476.19 868.69 456 861 440.21 L 858.5 435.08 L 853.41 435.04 C 846.87 434.99 834.61 431.85 828.13 428.57 C 825.34 427.15 822.56 426 821.94 426 C 821.42 426 820.02 425.31 818.58 424.39 C 818.09 424.03 817.61 423.7 817.16 423.41 C 816.06 422.65 815.45 422.32 815.21 422.4 C 815.08 422.37 815 422.41 815 422.5 C 815 422.6 815.08 422.82 815.23 423.16 C 815.24 423.18 815.25 423.2 815.26 423.23 C 815.34 423.45 815.51 423.79 815.74 424.22 C 816.23 425.17 816.91 426.4 817.66 427.69 C 818.41 428.97 819.35 430.31 820.4 431.66 C 821.13 432.74 821.82 433.72 822.4 434.49 C 823.18 435.53 817.68 444.29 813.55 448.59 C 812.97 449.19 810.68 451.67 808.45 454.09 C 798.08 465.39 782.61 477.22 775.82 479.05 C 771.48 480.22 770.1 479.67 764.75 474.67 C 763.7 473.69 762.97 472.93 762.57 472.14 Z M 941.2 486.07 C 943.49 489.03 945.18 491.74 946.28 494.24 C 947.63 497.98 947.67 501.4 946 501.66 C 945.17 501.79 941.54 500.33 937.91 498.41 L 931.33 494.92 L 931.61 485.71 C 931.77 480.65 931.92 476.35 931.95 476.17 C 931.98 475.94 932.64 476.49 933.64 477.5 C 934.21 478.11 934.83 478.78 935.51 479.5 C 935.81 479.82 936.11 480.14 936.4 480.45 C 937.96 482.2 939.7 484.23 941.2 486.07 Z" fill="rgb(62,108,39)" style=""/>
    <path d="M 846.32 164.42 C 839.32 165.05 837.36 164.36 840.5 162.4 C 844.13 160.63 847.97 159.42 851.89 158.74 C 853.66 158.6 855.79 158.55 858.5 158.54 C 870.5 158.49 875.46 159.84 881.43 164.78 C 889.64 171.58 895.85 187.75 891.8 191.8 C 890.47 193.13 888.69 193.36 887.67 192.33 C 887.3 191.97 887 191 887 190.19 C 887 187.29 882.57 179.92 878.57 176.18 C 869.25 167.45 858.02 163.36 846.32 164.42 Z M 766.91 215.18 C 763.5 224.07 759.03 237.2 754.65 250.91 C 758.83 237.82 763.09 225.19 766.48 216.14 C 769.03 209.34 770.86 203.53 770.56 203.22 C 770.25 202.92 770 203.22 770 203.89 C 770 204.57 769.65 204.9 769.22 204.63 C 768.53 204.21 767.07 205.74 762.27 211.91 C 761.59 212.79 761.87 211.02 762.9 208 C 771.36 183.11 789.58 147.98 790.97 153.87 C 791.26 155.1 791.95 156.16 792.5 156.21 C 792.87 156.25 794.38 154.21 796.33 151.15 C 786.44 169.2 775.41 193.05 766.91 215.18 Z M 735.27 316.75 C 740.18 317.84 744.36 318.9 746.43 319.62 C 748.76 320.58 748.79 321.44 747.26 322.6 C 746.64 323.07 745.49 323.4 743.97 323.61 C 742.29 323.33 739.41 322.34 733.5 320.33 C 728 318.46 721.62 316.91 719.33 316.88 C 716.73 316.85 714.95 316.31 714.62 315.45 C 714.23 314.44 714.32 313.81 715.44 313.58 C 717.06 313.51 718.92 313.61 720.84 313.93 C 722.82 314.27 724.87 314.64 726.93 315.03 C 729.28 315.5 732.04 316.07 735.27 316.75 Z M 710 399.71 C 708.07 398.74 706.61 395.73 707.07 394.52 C 706.91 395.17 707.51 396.41 708.84 398.05 C 709.93 399.4 711.17 400.01 711.89 399.57 C 712.83 398.99 712.83 398.5 711.88 397.36 C 710.83 396.09 711.01 396.05 713.25 397.07 C 714.8 397.77 715.63 398.8 715.31 399.62 C 715.08 400.22 715.27 400.71 715.74 400.9 C 714.17 401.17 712.16 400.8 710 399.71 Z M 712 398.61 C 712 399.42 710.09 398.96 709.51 398.01 C 709.16 397.44 709.56 397.28 710.45 397.62 C 711.3 397.95 712 398.39 712 398.61 Z M 781.06 152.87 C 771.61 165.15 764.23 181.22 756.1 205.56 C 764.5 180.41 771.76 164.83 781.06 152.87 Z M 808.76 129.72 C 808.5 129.11 806.84 129.84 803.73 131.92 C 806.39 130.1 808.35 129.02 808.69 129.36 C 808.76 129.42 808.78 129.55 808.76 129.72 Z M 806.44 134.2 C 806.85 133.54 807.17 133.04 807.39 132.72 C 807.44 132.65 807.49 132.58 807.53 132.51 C 807.3 132.9 807.04 133.31 806.76 133.73 C 806.65 133.89 806.55 134.04 806.44 134.2 Z M 718.64 398.88 C 718.86 398.32 719 397.7 719 397.09 C 719 397.77 718.87 398.37 718.64 398.88 Z M 707.5 394.06 C 707.6 394.02 707.72 394 707.85 394 L 707.89 394 C 707.74 394 707.61 394.02 707.5 394.06 Z" fill="rgb(76,104,87)" style=""/>
    <path d="M 731.15 309.82 C 727.33 308.96 726.88 308.58 727.44 306.67 C 727.73 305.69 729.81 297.7 732.38 287.71 C 731.07 292.95 729.8 298.17 728.59 303.33 C 728.04 305.65 728.23 306.1 729.61 305.83 C 731.54 305.45 732.93 301.53 738.96 279.5 C 746.32 252.62 756.65 222.55 766.36 198.58 C 765.1 201.81 763.93 204.98 762.9 208 C 761.87 211.02 761.59 212.79 762.27 211.91 C 767.07 205.74 768.53 204.21 769.22 204.63 C 769.65 204.9 770 204.57 770 203.89 C 770 203.22 770.25 202.92 770.56 203.22 C 770.86 203.53 769.03 209.34 766.48 216.14 C 763.09 225.19 758.83 237.82 754.65 250.91 C 747.8 272.31 741.16 295.1 739.05 305.28 C 738.38 308.48 737.34 310.95 736.68 310.89 C 736.03 310.83 733.54 310.35 731.15 309.82 Z M 787.86 155.43 C 788.57 154.28 789 153.51 789 153.39 C 789 151.88 797.71 141.52 802.06 137.86 C 804.32 135.95 806.03 134.31 807.2 133.01 C 807 133.31 806.74 133.72 806.44 134.2 C 803.34 138.85 799.91 144.62 796.33 151.15 C 794.38 154.21 792.87 156.25 792.5 156.21 C 791.95 156.16 791.26 155.1 790.97 153.87 C 790.66 152.56 789.53 153.27 787.86 155.43 Z M 718.64 398.88 C 718.12 399.98 717.1 400.68 715.74 400.9 C 715.27 400.71 715.08 400.22 715.31 399.62 C 715.63 398.8 714.8 397.77 713.25 397.07 C 711.01 396.05 710.83 396.09 711.88 397.36 C 712.83 398.5 712.83 398.99 711.89 399.57 C 711.17 400.01 709.93 399.4 708.84 398.05 C 707.51 396.41 706.91 395.17 707.07 394.52 C 707.15 394.3 707.29 394.14 707.5 394.06 C 707.61 394.02 707.74 394 707.89 394 C 710.38 394.03 719 396.42 719 397.09 C 719 397.77 718.87 398.37 718.64 398.88 Z M 762.24 188.44 C 754.78 208.05 745.49 238.03 737.15 269.25 C 743.56 244.93 748.72 227.64 756.1 205.56 C 758.18 199.34 760.21 193.65 762.24 188.44 Z M 712 398.61 C 712 398.39 711.3 397.95 710.45 397.62 C 709.56 397.28 709.16 397.44 709.51 398.01 C 710.09 398.96 712 399.42 712 398.61 Z M 772.99 182.99 C 776.69 174.74 780.15 167.81 783.16 162.79 C 780.09 168.17 776.48 175.32 772.99 182.99 Z M 808.72 129.64 C 807.96 129.53 806.05 130.38 803.01 132.41 C 803.26 132.24 803.5 132.08 803.73 131.92 C 806.7 129.93 808.35 129.18 808.72 129.64 Z M 781.06 152.87 C 782.86 150.54 784.75 148.35 786.73 146.26 C 782.82 150.43 779.3 154.98 776.01 160.1 C 777.63 157.54 779.31 155.14 781.06 152.87 Z M 807.57 275.98 C 805.33 274.87 803.78 274.04 803.5 273.75 C 803.44 273.69 803.42 273.64 803.42 273.59 C 803.41 273.29 804.54 273.17 806.14 273.2 C 804.56 273.17 803.43 273.29 803.42 273.59 C 803.42 273.64 803.45 273.69 803.5 273.74 C 803.79 274.03 805.34 274.87 807.57 275.98 Z" fill="rgb(145,146,142)" style=""/>
    <path d="M 829 400.49 C 817.55 398.92 808.63 396.01 808.18 393.72 C 807.9 392.22 809.45 392.11 824.68 392.5 C 842.66 392.96 841.57 392.02 821.93 390.11 C 812.78 389.22 809.64 388.91 808.56 387.26 C 808 386.4 808 385.17 808 383.3 L 808 383.29 C 808 379.49 808.26 378.89 809.67 379.43 C 815.04 381.49 832.4 383.88 846 384.68 C 844.9 384.64 843.8 384.61 842.68 384.56 C 825.11 383.88 824.87 383.89 825.92 385.85 C 826.51 386.94 828.34 388.13 829.99 388.5 C 831.65 388.86 833 389.55 833 390.02 C 833 390.49 834.91 391.31 837.25 391.83 L 841.5 392.79 L 836 393.01 C 831.93 393.18 831.21 393.4 833.22 393.87 C 835.34 394.36 835.73 394.83 834.99 396 C 833.37 398.53 833.87 400.76 836.14 401.27 C 833.74 401.07 831.36 400.81 829 400.49 Z M 863.4 400.89 C 869.41 400.12 871.74 399.39 872.72 397.99 C 873.45 396.95 874.69 395.45 875.48 394.66 C 876.73 393.41 875.78 393.29 868.21 393.69 C 861.91 394.02 859.91 393.86 861 393.09 C 861.83 392.51 864.75 392.02 867.5 392.01 C 868.95 392 870.28 391.94 871.53 391.8 C 870.26 392.04 869.21 392.21 868.5 392.3 C 866.62 392.55 867.36 392.75 870.5 392.84 C 874.83 392.96 888.62 390.55 895.83 388.41 C 897.92 387.8 898.13 388.01 897.83 390.52 C 897.52 393.15 896.88 393.5 887.5 396.2 C 879.73 398.44 871.6 400.01 863.4 400.89 Z M 875.77 390.98 C 878.5 390.17 880.74 388.85 882.81 386.9 C 884.63 385.19 885.91 383.58 885.66 383.33 C 885.41 383.07 879.64 383.4 872.85 384.06 C 869.99 384.34 866.81 384.54 863.38 384.66 C 874.91 384.02 887.93 382.37 895.25 380.49 C 897.79 379.84 898 380.01 898 382.73 C 898 385.28 897.48 385.84 894.25 386.8 C 891.29 387.67 882.48 389.64 875.77 390.98 Z M 731 376.69 C 731 376.44 731.65 374.68 732.45 372.77 C 733.25 370.86 734.01 367.43 734.15 365.15 C 734.21 363.99 734.38 363 734.62 362.28 C 734.37 363.11 734.2 364.35 734.13 366 L 733.9 370.99 L 737.2 370.65 C 739.03 370.45 740.01 370.07 741.03 368.7 C 740.11 370.35 739.23 371.7 738.5 372.52 C 735.95 375.36 731 378.11 731 376.69 Z M 938.1 315.72 C 939.39 316.18 940 316.58 940 316.93 C 940 318.43 935.05 319.09 931.21 318.1 C 929.17 317.57 925.25 316.99 922.5 316.82 L 917.5 316.5 L 928.37 316.85 C 935.86 317.09 939.04 316.87 938.59 316.14 C 938.5 316 938.34 315.86 938.1 315.72 Z M 876.34 377.49 C 879.79 376.63 883 375.1 883 374.03 C 883.01 373.74 884.15 372.15 885.55 370.5 L 888.09 367.5 L 886.55 370.7 L 886.53 370.74 C 885.48 372.91 884.96 373.98 885.3 374.5 C 885.62 375 886.71 375 888.86 375 C 885.61 375.81 881.2 376.69 876.34 377.49 Z M 747.49 351.9 C 747.49 352.27 747.43 352.73 747.32 353.25 C 746.8 355.59 745.65 358.82 744.29 362 C 744.92 360.21 745.35 358.5 745.38 357.5 C 745.45 355.85 746.07 353.9 746.76 353.17 C 747.12 352.79 747.38 352.33 747.49 351.9 Z M 868.12 373.78 C 867.86 374.66 867.66 375.7 867.61 376.45 C 867.51 378.15 868.06 378.36 872.3 378.12 C 871.76 378.2 871.22 378.28 870.67 378.35 C 867.35 378.82 866.32 377.13 868 373.99 C 868.04 373.92 868.08 373.85 868.12 373.78 Z M 918.59 309.68 C 914.1 307.17 910.86 303.69 908.02 298.74 C 910.6 303.23 914.37 307.07 918.59 309.68 Z M 741.21 357.16 C 742.62 355.74 743.9 354.16 744.58 352.85 C 744.73 352.56 744.88 352.3 745.03 352.06 C 745.01 352.18 745 352.31 745 352.44 C 745 353.24 743.23 355.27 741.21 357.16 Z M 865.77 372.99 C 867.28 370.98 868.9 370.4 868.77 371.73 C 868.71 370.78 867.49 371.17 865.77 372.99 Z M 860.71 377.55 C 858.43 378.71 855.6 379 850.63 379 C 855.12 379 858.31 378.58 860.71 377.55 Z M 898.82 364.09 C 900.06 360.83 901.89 358.56 906.07 354.94 C 902.07 358.41 900.32 360.55 898.82 364.09 Z M 928.35 313.32 C 929.69 313.59 930.91 313.85 932 314.09 C 930.72 313.86 929.51 313.6 928.35 313.32 Z M 893.94 373.37 C 894.3 373.06 894.65 372.71 894.98 372.31 C 894.71 372.69 894.46 372.98 894.25 373.16 C 894.18 373.23 894.07 373.29 893.94 373.37 Z M 735.24 361.16 C 735.36 361.05 735.49 361 735.62 361 C 735.72 361 735.84 360.99 735.96 360.96 C 735.85 360.99 735.76 361 735.68 361 C 735.52 361 735.37 361.05 735.24 361.16 Z" fill="rgb(176,87,40)" style=""/>
    <path d="M 938.1 315.72 C 937.32 315.23 935.79 314.73 934.21 314.48 C 933.46 314.36 932.72 314.23 932 314.09 C 930.91 313.85 929.69 313.59 928.35 313.32 C 924.51 312.39 921.32 311.21 918.59 309.68 C 914.37 307.07 910.6 303.23 908.02 298.74 L 905.02 293.5 L 905.01 297.28 C 905 299.37 906.14 303.32 907.55 306.1 L 910.11 311.14 L 907.51 315.57 C 903.83 321.85 895.29 330.23 889.97 332.79 C 877.81 338.63 856.43 338.26 843.5 331.98 C 837.78 329.2 837 326.72 837 311.3 C 837 303.99 836.64 298 836.21 298 C 835.23 298 832.35 308.68 831.44 315.67 C 831.04 318.75 831.26 322.91 831.99 325.94 C 833.14 330.74 833.51 331.18 838.45 333.43 C 840.28 334.27 842.3 335.07 844.43 335.82 C 841 334.66 838 333.4 835.73 332.13 C 832.87 330.52 832.01 330.41 830.88 331.47 C 830.86 331.48 830.84 331.5 830.83 331.51 C 830.54 331 827.35 331.09 821.12 331.98 C 816.22 332.69 810.47 332.95 808.35 332.58 C 804.09 331.82 794 327.28 794 326.12 C 794 325.71 793.06 324.37 791.92 323.14 C 788.95 319.96 788.24 316.61 788.6 307.5 C 789.02 296.79 789.61 292.89 791.45 288.46 C 790.6 290.52 790.11 292.71 790.37 293.34 C 790.63 293.98 790.88 293.69 790.92 292.69 C 790.96 291.7 791.42 291.14 791.94 291.46 C 792.45 291.78 792.88 294.94 792.88 298.49 C 792.88 308.4 796.88 314.95 805.72 319.49 C 809.34 321.35 812.08 321.95 817 321.96 C 826.14 321.97 828.44 320.61 828.74 314.98 C 829.11 308.21 832.28 292.6 833.46 291.73 C 834.09 291.26 833.6 290.33 832.25 289.12 C 834.4 290.71 835.93 291.7 837.27 292.13 C 838.2 292.67 838.84 293 839.02 293 C 839.45 293 842.12 291.44 844.97 289.52 C 845.22 289.36 845.46 289.19 845.71 289.03 C 843.7 290.48 841.85 292.29 841.01 293.71 C 839.9 295.59 838.55 296.84 838 296.5 C 837.35 296.1 837.01 300.91 837.02 310.19 C 837.02 318.85 837.38 323.95 837.91 323.11 C 838.85 321.63 839.18 321.69 848 324.92 C 863.39 330.56 889.3 324.82 898.31 313.78 L 901.8 309.5 L 901.34 298.5 C 901.01 290.58 901.25 286.83 902.19 285.11 C 903.9 282 905.36 282.22 906.08 285.7 C 907.57 292.83 913.67 299.64 921.82 303.24 C 926.49 305.31 943.3 308.05 944.98 307.01 C 945.52 306.68 946.67 302.68 947.53 298.13 C 950.01 285.07 951.09 283.23 954.36 286.5 C 956.82 288.96 956.93 288.24 954.8 283.75 C 953.56 281.13 951.61 278.4 949.35 275.97 C 951.63 278.41 953.68 281.2 955.14 284 C 957.29 288.09 957.49 289.7 957.43 301.77 C 957.36 315.53 957.99 317.21 960.94 311.21 C 961.41 310.25 961.94 309.38 962.38 308.8 C 961.36 311.35 961.14 319.74 961.98 329.29 C 962.18 331.51 962.33 333.67 962.42 335.59 C 961.53 331.44 956.58 324.01 954.1 323.19 C 953.3 322.93 953.79 324.19 955.25 326.12 C 956.49 327.75 957.55 329.83 958.32 331.99 C 957.23 329.29 955.67 326.64 953.92 324.65 C 949.02 319.08 942.93 317.07 936.34 318.83 C 933.94 319.47 931.09 320 930 320 C 925.94 320 926.06 331.29 930.17 335.69 C 932.63 338.33 936.82 340.8 940.99 342.07 C 946.1 343.62 957.52 342.18 959.65 340.01 C 959.62 340.35 959.57 340.67 959.51 340.96 C 959.01 343.25 958.22 343.87 955.2 344.36 C 953.16 344.69 949.84 346.09 947.8 347.48 C 943.07 350.71 942.01 350.65 934.87 346.85 C 924.37 341.25 916.55 329.72 917.19 320.78 L 917.5 316.5 L 922.5 316.82 C 925.25 316.99 929.17 317.57 931.21 318.1 C 935.05 319.09 940 318.43 940 316.93 C 940 316.58 939.39 316.18 938.1 315.72 Z M 876.34 377.49 C 875.02 377.71 873.67 377.92 872.3 378.12 C 868.06 378.36 867.51 378.15 867.61 376.45 C 867.66 375.7 867.86 374.66 868.12 373.78 C 868.6 372.84 868.8 372.15 868.77 371.73 C 868.9 370.4 867.28 370.98 865.77 372.99 C 865.58 373.19 865.38 373.42 865.17 373.66 C 863.6 375.51 862.29 376.74 860.71 377.55 C 858.31 378.58 855.12 379 850.63 379 C 841.21 379 838 377.88 838 374.61 C 838 373.27 838.56 371.97 839.25 371.73 C 840.2 371.4 840.12 370.83 838.94 369.4 C 837.81 368.02 836.98 366.61 836.34 364.79 C 837.7 367.03 842.09 368.75 848 369.33 C 860.84 370.6 862.63 369.46 858.59 362.57 C 857.15 360.11 855.53 357.83 854.99 357.49 C 854.44 357.16 854 356.21 854 355.38 C 854 354.56 854.46 354.16 855.02 354.51 C 855.58 354.86 855.82 355.49 855.56 355.91 C 855.29 356.33 856.443 357.686 858.013 358.846 L 860.79 360.9 L 861.25 358.49 C 861.5 357.16 861.21 355.89 860.6 355.68 C 860 355.46 861.78 355.5 864.57 355.75 C 872.19 356.45 878.29 352.88 883.34 344.75 L 885.05 342 L 878.27 342 C 875.51 342 872.37 341.77 869.07 341.37 C 872.99 341.8 876.7 341.98 879.96 341.84 C 886.04 341.59 888.7 340.9 894.39 338.1 L 901.37 334.68 L 902.94 337.09 C 903.8 338.41 906.19 341.35 908.25 343.61 C 910.31 345.87 912 348.19 912 348.76 C 912 349.33 909.36 352.09 906.14 354.88 C 906.12 354.9 906.09 354.92 906.07 354.94 C 901.89 358.56 900.06 360.83 898.82 364.09 C 898.59 364.63 898.37 365.2 898.15 365.82 C 897.23 368.34 895.95 370.92 894.98 372.31 C 894.65 372.71 894.3 373.06 893.94 373.37 C 893.12 373.82 891.33 374.39 888.86 375 C 886.71 375 885.62 375 885.3 374.5 C 884.96 373.98 885.48 372.91 886.53 370.74 L 886.55 370.7 L 888.09 367.5 L 885.55 370.5 C 884.15 372.15 883.01 373.74 883 374.03 C 883 375.1 879.79 376.63 876.34 377.49 Z M 824.91 334.17 C 821.72 335.21 817.61 336.28 813.25 337.15 C 809.81 337.84 807 338.87 807.01 339.45 C 807.02 340.03 808.12 342.86 809.46 345.75 C 811.28 349.65 812.45 351 814.01 351 C 815.17 351 815.84 351.45 815.5 352 C 814.54 353.55 831.03 345.87 832.56 343.94 C 831.45 347.5 832.61 363.83 834.41 368.72 C 836.26 373.72 835.2 378 832.11 378 C 826.84 378 814.53 374.88 812.9 373.12 C 811.92 372.07 811.39 370.94 811.73 370.61 C 812.06 370.27 811.78 370 811.11 370 C 810.43 370 810.14 369.58 810.46 369.07 C 810.77 368.56 810.58 367.86 810.02 367.51 C 809.46 367.16 809 365.64 809 364.13 C 809 362.38 807.91 360.33 806.01 358.51 C 804.37 356.93 803.22 355.45 803.46 355.2 C 803.71 354.96 803.28 354.14 802.52 353.38 C 800.61 351.47 796.8 340.97 797.42 339.34 C 797.78 338.42 799.9 338 804.22 337.98 C 807.67 337.98 813.88 337.11 818 336.07 C 820.73 335.37 823.04 334.74 824.91 334.17 Z M 875.77 390.98 C 874.21 391.3 872.76 391.58 871.53 391.8 C 870.28 391.94 868.95 392 867.5 392.01 C 864.75 392.02 861.83 392.51 861 393.09 C 859.91 393.86 861.91 394.02 868.21 393.69 C 875.78 393.29 876.73 393.41 875.48 394.66 C 874.69 395.45 873.45 396.95 872.72 397.99 C 871.74 399.39 869.41 400.12 863.4 400.89 C 854.29 401.87 845.08 402.01 836.14 401.27 C 833.87 400.76 833.37 398.53 834.99 396 C 835.73 394.83 835.34 394.36 833.22 393.87 C 831.21 393.4 831.93 393.18 836 393.01 L 841.5 392.79 L 837.25 391.83 C 834.91 391.31 833 390.49 833 390.02 C 833 389.55 831.65 388.86 829.99 388.5 C 828.34 388.13 826.51 386.94 825.92 385.85 C 824.87 383.89 825.11 383.88 842.68 384.56 C 843.8 384.61 844.9 384.64 846 384.68 C 849.16 384.86 852.11 384.96 854.67 384.95 C 857.38 384.93 860.33 384.83 863.38 384.66 C 866.81 384.54 869.99 384.34 872.85 384.06 C 879.64 383.4 885.41 383.07 885.66 383.33 C 885.91 383.58 884.63 385.19 882.81 386.9 C 880.74 388.85 878.5 390.17 875.77 390.98 Z M 936.57 441.12 C 936.24 440.59 936.94 438.52 938.11 436.53 C 939.29 434.54 939.98 432.65 939.65 432.32 C 939.32 431.99 937.05 433.36 934.61 435.36 C 929.69 439.38 925.01 440.11 921.5 437.38 C 919.52 435.84 919.52 435.81 921.98 434.16 C 926.71 430.98 930.84 426.93 931 425.33 C 931 425.37 931 425.42 931 425.46 C 931 426.23 931.79 427.05 932.75 427.3 C 935.26 427.94 938.31 427.04 939.72 425.26 C 940.89 423.76 946.23 408.22 947.41 402.83 C 947.68 401.61 947.72 400.9 947.17 400.29 C 947.28 400.36 947.4 400.44 947.51 400.51 C 950.92 402.61 953.13 404.96 954.84 408.28 L 957.29 413.03 L 955.55 419.44 C 953.43 427.29 947.4 437.75 944.01 439.47 C 939.93 441.54 937.21 442.15 936.57 441.12 Z M 801.73 265.64 C 799.97 266.52 798.43 267.05 797.46 267.07 C 795.06 267.13 794.86 267.28 796.43 267.9 C 798.21 268.6 798.23 268.7 796.6 269.33 C 795.63 269.7 793.96 270 792.9 270 C 790.18 270 784 274.09 780.21 278.42 C 777.87 281.08 777 283.04 777 285.67 C 777 289.17 777.08 289.25 780.25 288.72 C 782.04 288.42 784.29 287.86 785.26 287.47 C 786.61 286.94 786.88 287.16 786.4 288.39 C 786.06 289.27 786.25 290 786.83 290 C 787.16 290 787.56 289.7 787.89 289.24 C 785.45 293.92 782.88 300.85 782.04 306.17 C 781.39 310.28 781.36 313.9 782.01 317.37 C 781.46 314.71 781.21 311.63 781.44 310 C 781.72 308.08 782.19 304.76 782.48 302.64 L 783.02 298.79 L 778.52 304.31 C 777.4 305.69 775.99 307.16 774.55 308.49 C 774.47 307.96 773.36 307.71 771.23 307.77 C 767.98 307.87 767.6 306.58 767.71 295.94 C 767.78 288.28 770.04 282.6 775.53 276.22 C 780.41 270.55 785.76 267.96 794.4 267.11 C 797.74 266.78 799.81 266.43 801.73 265.64 Z M 766.82 336.05 C 768.48 337.4 770.02 337.76 772.31 337.32 C 779 336.06 781.92 333.33 781.97 328.31 C 781.99 326.55 782.39 324.88 782.86 324.59 C 783.27 324.33 783.15 322.31 782.6 319.87 C 783.39 322.61 784.62 325.31 786.34 328.17 C 789.84 333.99 789.96 338.37 786.74 343.27 C 784.49 346.71 776.28 350.48 774.41 348.93 C 773.63 348.28 773 347.35 773 346.86 C 773 345.36 766.71 340.12 762.75 338.32 C 759.17 336.69 759 336.4 759 331.78 C 759 330.66 759.17 329.38 759.48 328.03 C 759.58 328.17 759.98 327.5 760.7 326 L 762.37 322.5 L 763.44 328.34 C 764.17 332.38 765.22 334.76 766.82 336.05 Z M 978.77 376.42 C 976.15 372.73 976.13 372.64 977.97 370.31 C 980.33 367.31 981.4 361.19 980.11 357.97 C 979.25 355.81 979.12 356.11 979.06 360.3 C 979.01 364.65 976.81 371 975.37 371 C 975.05 371 973.37 369.81 971.64 368.35 C 971.31 368.07 970.99 367.8 970.67 367.54 L 972.5 368.7 L 974.68 364.1 C 975.88 361.57 977.34 358.96 977.93 358.3 C 978.68 357.45 978.44 353.82 977.09 345.8 C 975.97 339.11 975.58 334.27 976.13 333.92 C 976.46 333.72 976.5 332.97 976.31 331.86 C 976.59 332.99 976.84 334.13 977.06 335.3 C 977.6 338.17 979.52 342.58 981.46 345.44 C 986.27 352.51 987.54 358.25 985.55 363.88 C 984.7 366.28 983.97 369.43 983.92 370.88 C 983.88 372.32 983.3 375 982.64 376.83 L 981.44 380.16 L 978.77 376.42 Z M 716.5 373 C 715.4 372.53 713.35 371.9 711.93 371.6 C 706.4 370.43 702.47 363.7 705.27 360.22 C 705.9 359.43 705.9 358.06 705.24 355.8 C 706.03 357.06 707.24 358.1 708.84 358.73 C 710.3 359.31 711.66 359.84 711.86 359.89 C 712.05 359.95 711.94 359.27 711.6 358.39 C 711.55 358.26 711.51 358.15 711.47 358.05 C 711.92 358.4 712.77 358.84 713.82 359.24 C 715.57 359.9 717 360.79 717 361.22 C 717 361.65 717.74 362 718.63 362 C 719.53 362 722.01 362.52 724.13 363.16 C 728.31 364.41 728.97 366.31 727.02 371.43 C 726.21 373.58 725.44 373.99 722.27 373.93 C 720.2 373.9 717.6 373.48 716.5 373 Z M 772 379.24 C 772 378.69 773.19 375.65 774.64 372.48 C 777.02 367.28 777.22 365.95 776.67 358.86 L 776.06 351 L 780 351 C 782.16 351 785.55 350.23 787.53 349.29 C 790.65 347.8 791.24 347.77 792.04 349.04 C 793.38 351.15 793.22 352.04 790.72 356.5 C 789.44 358.78 786.97 361.25 784.98 362.24 C 782.09 363.69 781.37 364.71 780.76 368.24 C 780.35 370.58 779.21 373.58 778.23 374.9 C 776.06 377.8 772 380.63 772 379.24 Z M 733.32 353.39 C 732.98 352.51 733.41 349.47 734.27 346.64 C 735.13 343.81 736.13 340.06 736.49 338.3 C 736.72 337.13 737.14 336.21 737.7 335.55 C 738.08 335.7 738.84 335.86 740 336.08 C 741.92 336.44 743.84 336.8 744.25 336.87 C 744.69 336.95 744.93 336.9 745 336.77 C 746.81 338.98 747.65 342.28 746.13 342.79 C 745.48 343.01 744.27 344.82 743.43 346.83 C 740.54 353.73 734.86 357.42 733.32 353.39 Z M 817.38 356.13 C 817.58 355.93 821.98 351 820.58 351 C 818.73 351 812 357.33 812 359.07 C 812 360.76 813.475 359.855 817.075 356.285 C 816.937 356.43 819.679 356.405 820.016 357.719 C 820.12 358.123 819.277 359.532 818.95 360.05 C 818.26 361.13 816.64 362 816.06 362 C 814.52 362 814.76 363.7 816.7 366.67 C 817.64 368.1 818.58 368.76 818.79 368.14 C 819.01 367.47 821.43 367 824.58 367 C 827.56 367 833.462 366.481 833.532 366.071 C 834.292 361.571 818.35 355.18 817.38 356.13 Z M 930.11 424.51 C 929.89 424.68 929.6 424.92 929.25 425.23 C 926.65 427.52 917.34 432 915.19 432 C 913.17 432 910 429.07 910 427.21 C 910 426.58 911.31 424.58 912.91 422.75 C 915.35 419.98 918.87 414.11 920.13 411.07 C 919.59 412.68 918.31 415.15 916.4 418.2 C 914.14 421.8 914.05 422.2 915.82 420.62 C 917.9 418.78 918.01 418.8 922.97 421.98 C 925.74 423.76 928.68 424.95 929.5 424.64 C 929.73 424.55 929.93 424.51 930.11 424.51 Z M 807.57 275.98 C 808.23 276.31 808.96 276.67 809.73 277.04 C 807.67 276.2 800.48 268.36 801.68 270.29 C 802.04 270.87 801.82 271 801.17 270.6 C 800.47 270.17 800.22 270.41 800.52 271.2 C 801.22 273 807 273.33 807 271.56 C 807 270.15 815.81 264 817.84 264 C 818.04 264 818.23 263.86 818.39 263.59 C 817.32 273.46 816.75 275.12 815.14 274.48 C 813.3 273.76 808.99 273.24 806.14 273.2 C 804.56 273.17 805.33 274.87 807.57 275.98 Z M 898.89 273.32 C 898.96 273.29 899 273.26 899 273.24 C 899 272.95 895.86 272.97 892.02 273.29 C 887.93 273.64 884.8 273.48 884.45 272.91 C 884.12 272.38 886.18 269.4 889.03 266.28 C 890.91 264.22 892.87 261.95 894.22 260.28 C 893.73 260.97 893.24 261.73 892.76 262.54 C 892.42 263.12 893.06 263.65 894.18 263.74 C 896.51 263.91 902.74 267.92 903.42 269.67 C 903.88 270.86 902.63 271.97 898.89 273.32 Z M 741.21 357.16 C 743.23 355.27 745 353.24 745 352.44 C 745 352.31 745.01 352.18 745.03 352.06 C 746.31 350.04 747.52 350.04 747.49 351.9 C 747.38 352.33 747.12 352.79 746.76 353.17 C 746.07 353.9 745.45 355.85 745.38 357.5 C 745.35 358.5 744.92 360.21 744.29 362 C 743.26 364.39 742.12 366.75 741.03 368.7 C 740.01 370.07 739.03 370.45 737.2 370.65 L 733.9 370.99 L 734.13 366 C 734.2 364.35 734.37 363.11 734.62 362.28 C 734.79 361.75 735 361.36 735.24 361.16 C 735.37 361.05 735.52 361 735.68 361 C 735.76 361 735.85 360.99 735.96 360.96 C 737.18 360.68 739.31 359.06 741.21 357.16 Z M 893.32 354.88 C 897.11 352.92 900 349.73 900 347.49 C 900 344 898.73 343.74 897.38 346.94 C 896.67 348.64 894.06 351.21 891.32 352.94 C 887.4 355.39 886.93 355.97 888.82 355.98 C 890.09 355.99 892.11 355.49 893.32 354.88 Z M 710.66 340.45 C 713.4 343.87 713.74 344 720.06 344 C 724.52 344 727.1 343.67 728.49 342.52 C 727.16 343.65 724.77 344 720.75 344 C 716.54 344 714.88 344.61 715.84 345.31 L 708.78 343.56 L 706.39 346.33 C 704.9 348.07 704.18 350.06 704.17 351.95 C 703.96 350.34 704.46 349.26 705.89 346.77 C 707.58 343.83 708.02 341.92 707.56 339.48 C 707.08 336.92 707.28 336.08 709.08 334.74 C 708.68 335.08 708.41 335.38 708.32 335.6 C 708.05 336.31 709.1 338.49 710.66 340.45 Z M 898.62 221.24 C 898.42 221.09 898.08 221 897.58 221 C 896.71 221 896 220.49 896 219.87 C 896 219.34 895.33 219.75 894.43 220.76 C 894.79 220.16 895 219.54 895 218.95 C 895 217.49 896.84 216 898.64 216 C 898.91 216 898.98 217.69 898.81 219.75 C 898.76 220.31 898.71 220.81 898.62 221.24 Z M 812 280.58 C 812 282.4 809.59 282.42 808.1 280.62 C 807.22 279.57 807.25 279.12 808.22 278.76 C 810.12 278.07 812 278.97 812 280.58 Z M 855.84 284.53 C 860.98 282.9 868.58 281 881.25 277.99 C 888.2 276.34 894.25 274.78 897.16 273.91 C 894.46 274.78 890.79 275.75 886 276.9 C 869.66 280.83 861.07 282.96 855.84 284.53 Z M 762.22 320.53 C 763.81 317.32 765.75 314.59 767.5 313.52 C 768.46 312.94 769.87 312.08 771.11 311.32 C 770.62 311.67 770.17 311.96 769.76 312.18 C 767.06 313.67 764.26 316.87 762.22 320.53 Z M 714.38 357.95 C 716.18 358.28 719.05 358.6 721.9 358.78 C 723.46 358.87 724.68 358.94 725.64 358.97 C 724.96 358.99 724.15 359 723.17 359 C 719.85 359 715.91 358.54 714.43 357.97 L 714.38 357.95 Z M 975.07 327.48 C 973.45 322.87 970.63 316.95 968.18 313.62 C 971.01 317.44 973.36 322.17 975.07 327.48 Z M 927.58 397.68 C 924.35 398.23 921.23 399.14 918.63 400.39 C 918.71 400.36 918.78 400.32 918.85 400.28 C 922.19 398.65 924.16 397.96 927.58 397.68 Z M 962.53 341.33 C 962.5 341.87 962.46 342.25 962.39 342.42 C 962.22 342.88 961.33 343.68 960.05 344.59 C 961.37 343.56 962.15 342.56 962.53 341.33 Z M 788.39 288.32 C 788.42 288.24 788.45 288.17 788.47 288.09 C 788.87 286.83 789.95 285.44 790.92 284.67 C 790.18 285.4 789.3 286.68 788.39 288.32 Z M 947.66 361.97 C 943.8 361.84 941 361.5 941 361.11 C 941 361.09 941 361.06 941 361.04 C 941.1 361.37 943.83 361.73 947.66 361.97 Z M 919.34 409.06 C 917.26 409.5 913.35 412.16 911.37 414.76 C 910.94 415.32 910.58 415.8 910.27 416.18 C 910.51 415.87 910.78 415.5 911.09 415.08 C 913.19 412.23 917 409.49 919.34 409.06 Z M 820.73 282.28 C 817.34 280.69 813.61 278.91 811.53 277.9 C 812.63 278.41 813.78 278.95 814.96 279.48 C 816.77 280.3 818.75 281.27 820.73 282.28 Z M 895.47 258.67 C 895.57 258.53 895.65 258.41 895.72 258.3 C 896.55 257.04 898.11 256 899.18 256 L 899.22 256 C 898.23 256.02 896.9 256.99 895.47 258.67 Z M 711.53 333.11 C 713.43 331.93 714.94 331.23 716.53 330.93 C 715.57 331.18 714.56 331.61 713.2 332.25 C 712.62 332.52 712.05 332.81 711.53 333.11 Z M 964.83 364 C 963.24 363.34 961.53 362.88 959.57 362.57 C 961.85 362.82 963.28 363.22 964.83 364 Z M 833.02 343.2 C 833.56 342.79 833.94 345.29 834.39 351.83 C 834.39 351.88 834.4 351.92 834.4 351.96 C 834.63 355.29 835 358.62 835.39 361.04 C 834.96 358.71 834.66 355.79 834.4 351.96 C 833.96 345.64 833.57 343.05 833.02 343.2 Z M 724.98 347.59 C 724.38 347.44 723.08 347.11 721.45 346.7 C 723.05 346.96 724.17 347.22 724.98 347.59 Z M 894.82 225.47 C 893.02 226.43 892.07 226.91 891.1 226.92 C 892.05 226.9 892.99 226.43 894.75 225.47 C 895.92 224.83 896.87 224.18 897.56 223.57 C 896.97 224.22 896.11 224.78 894.82 225.47 Z M 819 257.74 L 819 255.97 L 819.19 255.89 L 819 257.74 Z M 741.73 334.55 C 740.86 334.36 739.89 334.35 739.08 334.55 C 739.85 334.24 740.76 334.24 741.73 334.55 Z M 963.22 308.02 C 963.61 308.01 965.77 310.43 968 313.39 C 965.89 310.59 963.81 308.29 963.2 308.02 C 963.2 308.02 963.21 308.02 963.22 308.02 Z M 909.54 407.85 C 907.63 410.64 906.92 413.57 907.81 416.01 C 906.9 413.55 907.61 410.64 909.54 407.85 Z M 711.4 357.39 C 711.48 357.15 711.81 357.18 712.42 357.42 C 711.99 357.35 711.63 357.33 711.4 357.39 Z M 944.78 398.95 C 944.4 398.79 943.96 398.62 943.48 398.44 C 943.08 398.29 942.66 398.15 942.22 398.02 C 943.12 398.23 943.93 398.53 944.78 398.95 Z M 886.5 221.2 C 886.86 222.02 887.52 222.81 888.21 223.31 C 887.52 222.89 886.93 222.19 886.5 221.21 C 886.14 220.39 885.77 219.86 885.3 219.58 C 885.77 219.86 886.14 220.39 886.5 221.2 Z M 809.52 260.75 C 811.74 259.34 814.05 258.04 815.45 257.46 C 814.15 258 811.85 259.29 809.52 260.75 Z M 946.69 354.12 C 948.7 352.26 950.97 350.38 953.05 348.92 C 950.99 350.37 948.71 352.25 946.69 354.12 Z M 728.61 357.65 C 728.57 357.56 728.53 357.47 728.49 357.37 C 728.39 357.13 728.28 356.81 728.16 356.44 C 728.26 356.76 728.36 357.04 728.45 357.25 C 728.52 357.39 728.57 357.53 728.61 357.65 Z" fill="rgb(238,123,49)" style=""/>
    <path d="M 898.89 273.32 C 902.63 271.97 903.88 270.86 903.42 269.67 C 902.74 267.92 896.51 263.91 894.18 263.74 C 893.06 263.65 892.42 263.12 892.76 262.54 C 893.24 261.73 893.73 260.97 894.22 260.28 C 894.74 259.64 895.17 259.09 895.47 258.67 C 896.9 256.99 898.23 256.02 899.22 256 C 903.48 256.06 917.85 264.58 915.39 265.61 C 913.27 266.5 910.51 268.84 911 269.34 C 911.28 269.61 913.98 269.17 917 268.36 C 924.49 266.34 936.23 267.01 941.5 269.75 C 944.12 271.11 946.87 273.33 949.35 275.97 C 951.61 278.4 953.56 281.13 954.8 283.75 C 956.93 288.24 956.82 288.96 954.36 286.5 C 951.09 283.23 950.01 285.07 947.53 298.13 C 946.67 302.68 945.52 306.68 944.98 307.01 C 943.3 308.05 926.49 305.31 921.82 303.24 C 913.67 299.64 907.57 292.83 906.08 285.7 C 905.36 282.22 903.9 282 902.19 285.11 C 901.25 286.83 901.01 290.58 901.34 298.5 L 901.8 309.5 L 898.31 313.78 C 889.3 324.82 863.39 330.56 848 324.92 C 839.18 321.69 838.85 321.63 837.91 323.11 C 837.38 323.95 837.02 318.85 837.02 310.19 C 837.01 300.91 837.35 296.1 838 296.5 C 838.55 296.84 839.9 295.59 841.01 293.71 C 841.85 292.29 843.7 290.48 845.71 289.03 C 848.36 287.32 851.03 286.05 855.84 284.53 C 861.07 282.96 869.66 280.83 886 276.9 C 890.79 275.75 894.46 274.78 897.16 273.91 C 898.06 273.64 898.66 273.44 898.89 273.32 Z M 801.73 265.64 C 803.26 265.01 804.69 264.1 806.61 262.72 C 807.49 262.07 808.5 261.4 809.52 260.75 C 811.85 259.29 814.15 258 815.45 257.46 L 819 255.97 L 819 257.74 L 818.64 261.2 C 818.55 262.05 818.47 262.84 818.39 263.59 C 818.23 263.86 818.04 264 817.84 264 C 815.81 264 807 270.15 807 271.56 C 807 273.33 807.67 276.2 809.73 277.04 C 810.3 277.32 810.91 277.6 811.53 277.9 C 813.61 278.91 817.34 280.69 820.73 282.28 C 823.73 283.82 826.72 285.46 829.09 286.88 C 829.82 287.34 830.45 287.77 830.93 288.13 C 831.4 288.49 831.84 288.82 832.25 289.12 C 833.6 290.33 834.09 291.26 833.46 291.73 C 832.28 292.6 829.11 308.21 828.74 314.98 C 828.44 320.61 826.14 321.97 817 321.96 C 812.08 321.95 809.34 321.35 805.72 319.49 C 796.88 314.95 792.88 308.4 792.88 298.49 C 792.88 294.94 792.45 291.78 791.94 291.46 C 791.42 291.14 790.96 291.7 790.92 292.69 C 790.88 293.69 790.63 293.98 790.37 293.34 C 790.11 292.71 790.6 290.52 791.45 288.46 L 791.46 288.43 C 792.32 286.38 792.81 284.47 792.54 284.2 C 792.15 283.82 791.59 284.02 790.92 284.67 C 789.95 285.44 788.87 286.83 788.47 288.09 C 788.45 288.17 788.42 288.24 788.39 288.32 C 788.23 288.62 788.06 288.92 787.89 289.24 C 787.56 289.7 787.16 290 786.83 290 C 786.25 290 786.06 289.27 786.4 288.39 C 786.88 287.16 786.61 286.94 785.26 287.47 C 784.29 287.86 782.04 288.42 780.25 288.72 C 777.08 289.25 777 289.17 777 285.67 C 777 283.04 777.87 281.08 780.21 278.42 C 784 274.09 790.18 270 792.9 270 C 793.96 270 795.63 269.7 796.6 269.33 C 798.23 268.7 798.21 268.6 796.43 267.9 C 794.86 267.28 795.06 267.13 797.46 267.07 C 798.43 267.05 799.97 266.52 801.73 265.64 Z M 835.39 361.04 C 835 358.62 819.18 350.67 818.36 351.5 C 816.68 353.18 814.54 353.55 815.5 352 C 815.84 351.45 815.17 351 814.01 351 C 812.45 351 811.28 349.65 809.46 345.75 C 808.12 342.86 807.02 340.03 807.01 339.45 C 807 338.87 809.81 337.84 813.25 337.15 C 817.61 336.28 821.72 335.21 824.91 334.17 C 829.08 332.9 831.08 331.97 830.83 331.51 C 830.84 331.5 830.86 331.48 830.88 331.47 C 832.01 330.41 832.87 330.52 835.73 332.13 C 838 333.4 841 334.66 844.43 335.82 C 851.94 338.46 860.94 340.47 869.07 341.37 C 872.37 341.77 875.51 342 878.27 342 L 885.05 342 L 883.34 344.75 C 878.29 352.88 872.19 356.45 864.57 355.75 C 861.78 355.5 860 355.46 860.6 355.68 C 861.21 355.89 861.5 357.16 861.25 358.49 L 860.79 360.9 L 857.635 358.669 C 856.065 357.509 854.041 354.49 854.041 355.31 C 854.041 356.14 854.44 357.16 854.99 357.49 C 855.53 357.83 857.15 360.11 858.59 362.57 C 862.63 369.46 860.84 370.6 848 369.33 C 842.09 368.75 837.7 367.03 836.34 364.79 C 835.96 363.71 835.65 362.49 835.39 361.04 Z M 962.53 341.33 C 962.96 339.93 962.88 338.24 962.48 335.91 C 962.47 335.8 962.45 335.7 962.42 335.59 C 962.33 333.67 962.18 331.51 961.98 329.29 C 961.14 319.74 961.36 311.35 962.38 308.8 C 962.72 308.34 963.02 308.05 963.2 308.02 C 963.81 308.29 965.89 310.59 968 313.39 C 968.06 313.47 968.12 313.54 968.18 313.62 C 970.63 316.95 973.45 322.87 975.07 327.48 C 975.53 328.9 975.94 330.36 976.31 331.86 C 976.5 332.97 976.46 333.72 976.13 333.92 C 975.58 334.27 975.97 339.11 977.09 345.8 C 978.44 353.82 978.68 357.45 977.93 358.3 C 977.34 358.96 975.88 361.57 974.68 364.1 L 972.5 368.7 L 970.67 367.54 C 968.7 365.98 966.86 364.83 964.83 364 C 963.28 363.22 961.85 362.82 959.57 362.57 C 957.12 362.18 954.28 362.03 950.75 362.02 C 949.67 362.02 948.63 362 947.66 361.97 C 943.83 361.73 941.1 361.37 941 361.04 C 941.1 359.86 943.57 357.01 946.69 354.12 C 948.71 352.25 950.99 350.37 953.05 348.92 C 954.06 348.21 955.02 347.6 955.88 347.15 C 957.65 346.2 959.01 345.39 960.05 344.59 C 961.33 343.68 962.22 342.88 962.39 342.42 C 962.46 342.25 962.5 341.87 962.53 341.33 Z M 851.92 226.68 C 842.56 221.77 841.21 220.64 840.03 216.71 C 839.39 214.59 839.16 211.53 839.52 209.92 C 840.27 206.51 841 206.43 852 208.45 L 852.64 208.56 C 871.28 211.99 875.23 212.71 879.02 212.24 C 880.09 212.11 881.14 211.88 882.5 211.6 C 885.8 210.9 890.69 209.36 893.36 208.18 C 896.03 206.99 898.62 206.26 899.11 206.57 C 900.52 207.44 900.14 210 898.6 210 C 895.92 210 879.86 217.97 880.49 218.99 C 880.84 219.55 882.11 219.76 883.31 219.46 C 884.22 219.23 884.88 219.27 885.42 219.66 C 885.38 219.63 885.34 219.6 885.3 219.58 C 885.77 219.86 886.14 220.39 886.5 221.21 C 886.93 222.19 887.52 222.89 888.21 223.31 C 888.59 223.58 888.97 223.77 889.32 223.83 C 891.01 224.15 893.36 222.57 894.43 220.76 C 895.33 219.75 896 219.34 896 219.87 C 896 220.49 896.71 221 897.58 221 C 898.08 221 898.42 221.09 898.62 221.24 C 898.44 222.24 898.13 222.95 897.56 223.57 C 896.87 224.18 895.92 224.83 894.75 225.47 C 892.99 226.43 892.05 226.9 891.1 226.92 C 890.17 226.94 889.23 226.53 887.54 225.72 C 882.78 223.45 880.93 223.54 871.6 226.5 C 861.82 229.6 857.57 229.64 851.92 226.68 Z M 927.58 397.68 C 929.17 397.55 931.07 397.51 933.57 397.51 C 937.91 397.51 940.3 397.57 942.22 398.02 C 942.66 398.15 943.08 398.29 943.48 398.44 C 943.96 398.62 944.4 398.79 944.78 398.95 C 945.51 399.31 946.27 399.75 947.17 400.29 C 947.72 400.9 947.68 401.61 947.41 402.83 C 946.23 408.22 940.89 423.76 939.72 425.26 C 938.31 427.04 935.26 427.94 932.75 427.3 C 931.79 427.05 931 426.23 931 425.46 C 931 425.42 931 425.37 931 425.33 C 931 425.3 931 425.27 931 425.24 C 931 424.16 930.9 423.91 930.11 424.51 C 929.93 424.51 929.73 424.55 929.5 424.64 C 928.68 424.95 925.74 423.76 922.97 421.98 C 918.01 418.8 917.9 418.78 915.82 420.62 C 914.05 422.2 914.14 421.8 916.4 418.2 C 918.31 415.15 919.59 412.68 920.13 411.07 C 920.55 410.08 920.72 409.39 920.54 409.2 C 920.31 408.98 919.89 408.94 919.34 409.06 C 917 409.49 913.19 412.23 911.09 415.08 C 910.78 415.5 910.51 415.87 910.27 416.18 C 908.66 418.21 908.51 417.92 907.81 416.01 C 906.92 413.57 907.63 410.64 909.54 407.85 C 911.48 405.06 914.64 402.38 918.63 400.39 C 921.23 399.14 924.35 398.23 927.58 397.68 Z M 958.32 331.99 C 959.34 334.82 959.86 337.78 959.65 340.01 C 957.52 342.18 946.1 343.62 940.99 342.07 C 936.82 340.8 932.63 338.33 930.17 335.69 C 926.06 331.29 925.94 320 930 320 C 931.09 320 933.94 319.47 936.34 318.83 C 942.93 317.07 949.02 319.08 953.92 324.65 C 955.67 326.64 957.23 329.29 958.32 331.99 Z M 766.82 336.05 C 765.22 334.76 764.17 332.38 763.44 328.34 L 762.37 322.5 L 760.7 326 C 759.98 327.5 759.58 328.17 759.48 328.03 C 760.04 325.6 761.03 322.93 762.22 320.53 C 764.26 316.87 767.06 313.67 769.76 312.18 C 770.17 311.96 770.62 311.67 771.11 311.32 C 771.65 310.99 772.16 310.68 772.59 310.42 C 773.97 309.58 774.62 308.93 774.55 308.49 C 775.99 307.16 777.4 305.69 778.52 304.31 L 783.02 298.79 L 782.48 302.64 C 782.19 304.76 781.72 308.08 781.44 310 C 781.21 311.63 781.46 314.71 782.01 317.37 C 782.16 318.21 782.36 319.04 782.6 319.87 C 783.15 322.31 783.27 324.33 782.86 324.59 C 782.39 324.88 781.99 326.55 781.97 328.31 C 781.92 333.33 779 336.06 772.31 337.32 C 770.02 337.76 768.48 337.4 766.82 336.05 Z M 714.38 357.95 C 713.68 357.69 712.99 357.51 712.42 357.42 C 711.81 357.18 711.48 357.15 711.4 357.39 C 711.3 357.41 711.22 357.44 711.18 357.49 C 711.06 357.61 711.18 357.81 711.47 358.05 C 711.51 358.15 711.55 358.26 711.6 358.39 C 711.94 359.27 712.05 359.95 711.86 359.89 C 711.66 359.84 710.3 359.31 708.84 358.73 C 707.24 358.1 706.03 357.06 705.24 355.8 C 705.16 355.5 705.06 355.18 704.95 354.84 C 704.54 353.61 704.28 352.72 704.17 351.95 C 704.18 350.06 704.9 348.07 706.39 346.33 L 708.78 343.56 L 715.84 345.31 C 716.41 345.72 717.91 346.16 720.36 346.53 C 720.74 346.59 721.11 346.65 721.45 346.7 C 723.08 347.11 724.38 347.44 724.98 347.59 C 726.51 348.31 726.87 349.47 727.22 352 C 727.42 353.5 727.81 355.27 728.16 356.44 C 728.28 356.81 728.39 357.13 728.49 357.37 C 728.53 357.47 728.57 357.56 728.61 357.65 C 728.91 358.6 728.37 358.9 725.64 358.97 C 724.68 358.94 723.46 358.87 721.9 358.78 C 719.05 358.6 716.18 358.28 714.38 357.95 Z M 710.66 340.45 C 709.1 338.49 708.05 336.31 708.32 335.6 C 708.41 335.38 708.68 335.08 709.08 334.74 C 709.27 334.6 709.49 334.45 709.72 334.29 C 710.37 333.85 710.96 333.46 711.53 333.11 C 712.05 332.81 712.62 332.52 713.2 332.25 C 714.56 331.61 715.57 331.18 716.53 330.93 C 718.46 330.57 720.52 330.78 723.57 331.39 L 729.5 332.57 L 729.82 337 C 730.02 339.74 729.72 341.47 728.49 342.52 C 727.1 343.67 724.52 344 720.06 344 C 713.74 344 713.4 343.87 710.66 340.45 Z M 866.5 222 C 866.94 220.63 868.01 220 869.94 220 C 873.52 220 875.62 217.76 873.61 216.09 C 871.76 214.56 852.43 209.8 849.65 210.19 C 845.72 210.75 847.35 213.35 853 215.5 C 856.68 216.91 858.61 218.24 858.85 219.55 C 859.4 222.5 860.99 224 863.56 224 C 864.99 224 866.11 223.24 866.5 222 Z M 814.402 359.22 C 814.402 359.22 815.769 357.649 816.958 356.385 C 816.958 356.385 820.374 351.777 823.414 350.745 C 826.973 349.537 830.243 351.875 830.321 351.849 C 830.614 351.75 834.446 361.724 833.686 366.224 C 833.616 366.634 827.56 367 824.58 367 C 821.43 367 819.01 367.47 818.79 368.14 C 818.58 368.76 817.64 368.1 816.7 366.67 C 814.76 363.7 812.888 358.94 814.402 359.22 Z M 741.73 334.55 C 742.31 334.73 742.91 335.02 743.53 335.43 C 744.06 335.78 744.56 336.24 745 336.77 C 744.93 336.9 744.69 336.95 744.25 336.87 C 743.84 336.8 741.92 336.44 740 336.08 C 738.84 335.86 738.08 335.7 737.7 335.55 C 738.1 335.09 738.56 334.75 739.08 334.55 C 739.89 334.35 740.86 334.36 741.73 334.55 Z" fill="rgb(248,174,100)" style=""/>
    <path d="M 930 571.9 C 915.42 572.48 891.12 573.12 876 573.33 C 839.54 573.83 763 572.29 760.76 571 C 759.81 570.45 753.96 569.91 747.76 569.8 C 727.77 569.45 714.83 564.8 727.75 562.61 C 732.81 561.75 733 561.6 733 558.51 C 733 556.75 733.31 555.5 734.46 554.25 C 733.26 555.59 733 557 733 559.15 C 733 568.93 745.15 571.79 773.01 568.55 C 779.88 567.75 789.73 566.78 794.89 566.39 C 803.46 565.75 804.59 565.42 807.78 562.62 L 811.28 559.55 L 810.41 548.02 C 810.21 545.29 810.02 541.86 809.87 538.35 C 809.9 538.58 809.93 538.81 809.96 539.03 C 810.64 543.69 811.42 549.59 811.71 552.15 C 812.18 556.35 812.52 556.85 815.24 557.4 C 816.9 557.73 830.23 558.06 844.88 558.13 C 859.52 558.2 881.62 558.57 894 558.95 C 906.38 559.32 917.75 559.72 919.27 559.82 C 921.21 559.94 922.27 559.45 923.2 556.92 C 922.13 561.68 922.1 563.41 922.9 564.38 C 926.25 568.41 938.6 570.93 950.35 570.79 C 944.86 571.2 937.97 571.58 930 571.9 Z M 965.16 568.84 C 969 567.73 971.01 566.57 972.35 564.76 C 973.84 562.75 974.2 562.11 973.58 559.68 C 974.57 562.43 975.39 563.15 977.25 563.55 C 978.76 563.89 980 564.56 980 565.04 C 980 566.55 976.17 568.07 972.76 567.91 C 971.31 567.85 968.19 568.24 965.16 568.84 Z M 809.55 518.68 L 809.55 514.5 L 813.29 509.12 C 815.34 506.16 817.3 502.65 817.64 501.31 C 817.3 502.65 815.39 506.11 813.39 509.02 C 810.79 512.81 809.99 514.45 809.55 518.68 Z M 922.55 536.96 L 921.41 535.4 C 917.35 529.84 915.91 528.55 911.95 527.21 C 915.6 528.15 916.98 529.32 921.1 534.9 C 921.6 535.58 922.09 536.28 922.55 536.96 Z M 904.49 523.75 C 901.36 521.72 898.73 519.13 896.87 516.19 C 898.66 518.99 901.43 521.68 904.49 523.75 Z M 968.18 547.42 C 967.16 545.63 966.07 543.8 964.99 542.13 C 961.98 537.49 959.9 533.6 958.48 529.43 C 959.9 533.6 961.99 537.49 965 542.13 C 966.08 543.79 967.17 545.61 968.18 547.42 Z M 925.21 548.18 L 925.87 544.58 C 925.74 545.46 925.51 546.72 925.21 548.18 Z" fill="rgb(209,204,188)"/>
    <path d="M 963.91 569.18 C 950.34 572.74 927.63 570.08 922.9 564.38 C 921.96 563.24 922.16 561.05 923.85 554.17 C 925.03 549.35 925.99 544.53 925.98 543.45 C 925.98 542.38 923.78 538.53 921.1 534.9 C 916.95 529.28 915.58 528.13 911.86 527.19 C 906.09 525.73 899.55 520.8 896.51 515.61 C 895.16 513.3 892.44 506.51 890.48 500.51 L 886.91 489.6 L 877.2 480.45 C 871.87 475.41 863.96 466.53 859.63 460.71 C 855.3 454.88 851.09 449.86 850.28 449.55 C 849.46 449.24 847.78 449.77 846.55 450.74 C 845.32 451.71 839.84 456.1 834.39 460.5 C 828.94 464.9 821.48 470.44 817.82 472.81 L 811.17 477.13 L 814.24 483.31 C 817.37 489.58 818.74 496.9 817.64 501.31 C 817.3 502.64 815.34 506.16 813.29 509.12 L 809.55 514.5 L 809.55 525.5 C 809.55 531.55 809.94 541.69 810.41 548.02 L 811.28 559.55 L 807.78 562.62 C 804.59 565.42 803.46 565.75 794.89 566.39 C 789.73 566.78 779.88 567.75 773.01 568.55 C 745.15 571.79 733 568.93 733 559.15 C 733 554.58 734.17 553.39 742.93 549 C 753.1 543.92 766.92 535.06 768.53 532.59 C 769.63 530.92 769.77 529.57 769.08 527.42 C 768.57 525.81 767.87 522.43 767.54 519.9 C 767.09 516.56 766.09 514.51 763.87 512.4 C 758.69 507.47 757.7 504.46 756.82 491 C 756.37 484.12 755.73 476.12 755.4 473.21 C 754.69 466.96 756 463.24 765.79 443.5 C 774.24 426.47 779.48 418.8 790.77 406.92 L 800.08 397.12 L 800.98 381.37 C 801.5 372.05 801.5 364.98 800.97 364.06 C 798.43 359.67 798.39 359.67 793.38 365 C 790.7 367.86 788.09 371.39 787.6 372.85 C 785.35 379.44 780.07 384.87 773.97 386.86 C 767.44 388.99 742.37 388.79 734.76 386.55 C 731.61 385.63 728.62 385.11 728.13 385.42 C 727.64 385.72 726.42 389.46 725.41 393.73 C 722.69 405.33 719.38 407.69 709.88 404.85 C 702.45 402.62 701.78 400.43 703.82 385.12 L 704.94 376.75 L 701.52 372.76 C 697.57 368.13 696.49 364.47 697.96 360.61 C 698.66 358.77 698.67 357.26 698 356 C 696.43 353.07 696.83 348.79 699 345.23 C 700.1 343.43 701 340.26 701 338.2 C 701 333.22 703.08 330.5 709.26 327.37 L 714.38 324.77 L 710.68 323.5 C 705.09 321.58 704 320.26 704 315.41 C 704 310.05 705.76 308.88 715 308.07 L 721.5 307.5 L 725.79 290.5 C 746.45 208.63 759.59 171.76 776.05 149.5 C 785.27 137.02 801.56 124.6 817.33 118.02 C 824.24 115.13 825.63 115.31 823.19 118.75 C 822.13 120.26 818.33 126.45 814.76 132.5 C 794.15 167.43 781.6 193.37 768.95 227.17 C 761.05 248.28 748.46 288.92 744.62 305.68 L 743.21 311.87 L 746.97 313.37 C 749.04 314.2 751.49 315.63 752.42 316.56 C 753.34 317.48 754.22 318.07 754.37 317.87 C 761.04 309.06 761.27 308.41 760.61 300.81 C 759.81 291.66 761.52 284.07 766.11 276.37 C 771.99 266.53 784.63 259 795.29 259 C 798.15 259 800.25 258.18 803.02 255.98 C 805.12 254.32 809.35 251.85 812.42 250.49 L 818 248.03 L 818 241.53 C 818 237.16 817.14 232.5 815.37 227.27 C 810.25 212.13 811.05 187.85 817.09 175.32 C 823.9 161.15 840.37 151.98 858.96 152.01 C 879.58 152.04 898.27 163.97 903.08 180.17 C 908.02 196.77 907.29 227.3 901.49 246.53 C 900.97 248.25 901.55 248.73 905.33 249.74 C 907.77 250.4 912.66 252.91 916.19 255.32 C 922.05 259.33 923.24 259.75 930.1 260.19 C 949.69 261.45 962.65 274.51 965.39 295.74 C 965.81 298.97 967.27 301.59 971.52 306.74 C 978.28 314.93 981.65 321.57 983.09 329.52 C 984.18 335.5 984.7 336.75 990.36 346.97 C 994.08 353.7 994.3 359.48 991.31 372.55 C 988.73 383.82 985.78 389.71 978.56 398 C 963.44 415.37 963.45 415.36 961.68 421.83 C 956.84 439.54 947.62 448.97 935.14 448.99 C 932.35 449 931.9 449.29 932.48 450.75 C 932.86 451.71 933.58 455.26 934.07 458.63 C 935.31 467.16 936 468.51 943.46 477 C 947.08 481.12 951.26 486.95 952.74 489.95 C 955.14 494.81 955.44 496.62 955.6 506.95 C 955.87 524.02 957.69 530.86 964.99 542.13 C 968.32 547.29 971.8 553.87 972.71 556.76 C 974.32 561.85 974.31 562.12 972.35 564.76 C 970.88 566.75 968.58 567.96 963.91 569.18 Z M 978.77 376.42 L 981.44 380.16 L 982.64 376.83 C 983.3 375 983.88 372.32 983.92 370.88 C 983.97 369.43 984.7 366.28 985.55 363.88 C 987.54 358.25 986.27 352.51 981.46 345.44 C 979.52 342.58 977.6 338.17 977.06 335.3 C 975.42 326.68 972.26 319.02 968 313.39 C 965.77 310.43 963.61 308.01 963.22 308.02 C 962.82 308.04 961.8 309.47 960.94 311.21 C 957.99 317.21 957.36 315.53 957.43 301.77 C 957.49 289.7 957.29 288.09 955.14 284 C 952.09 278.17 946.54 272.37 941.5 269.75 C 936.23 267.01 924.49 266.34 917 268.36 C 913.98 269.17 911.28 269.61 911 269.34 C 910.51 268.84 913.27 266.5 915.39 265.61 C 917.86 264.58 903.38 256 899.18 256 C 898.11 256 896.55 257.04 895.72 258.3 C 894.89 259.57 891.88 263.16 889.03 266.28 C 886.18 269.4 884.12 272.38 884.45 272.91 C 884.8 273.48 887.93 273.64 892.02 273.29 C 895.86 272.97 899 272.95 899 273.24 C 899 273.53 891.01 275.67 881.25 277.99 C 855.63 284.08 850.74 285.64 844.97 289.52 C 842.12 291.44 839.45 293 839.02 293 C 838.59 293 835.35 291.03 831.83 288.61 C 828.31 286.2 820.72 282.09 814.96 279.48 C 809.21 276.87 804.05 274.29 803.5 273.74 C 802.43 272.67 812.12 273.29 815.14 274.48 C 816.87 275.17 817.39 273.19 818.64 261.2 L 819.19 255.89 L 815.45 257.46 C 813.4 258.31 809.42 260.68 806.61 262.72 C 802.29 265.84 800.4 266.52 794.4 267.11 C 785.76 267.96 780.41 270.55 775.53 276.22 C 770.04 282.6 767.78 288.28 767.71 295.94 C 767.6 306.58 767.98 307.87 771.23 307.77 C 775.15 307.66 775.61 308.57 772.59 310.42 C 771.16 311.29 768.88 312.68 767.5 313.52 C 763.72 315.83 759 325.96 759 331.78 C 759 336.4 759.17 336.69 762.75 338.32 C 766.71 340.12 773 345.36 773 346.86 C 773 347.35 773.63 348.28 774.41 348.93 C 776.28 350.48 784.49 346.71 786.74 343.27 C 789.96 338.37 789.84 333.99 786.34 328.17 C 781.95 320.87 780.72 314.55 782.04 306.17 C 783.54 296.7 790.49 282.15 792.54 284.2 C 792.81 284.47 792.32 286.38 791.46 288.43 C 789.61 292.87 789.03 296.77 788.6 307.5 C 788.24 316.61 788.95 319.96 791.92 323.14 C 793.06 324.37 794 325.71 794 326.12 C 794 327.28 804.09 331.82 808.35 332.58 C 810.47 332.95 816.22 332.69 821.12 331.98 C 835.34 329.95 833.7 332.09 818 336.07 C 813.88 337.11 807.67 337.98 804.22 337.98 C 799.9 338 797.78 338.42 797.42 339.34 C 796.8 340.97 800.61 351.47 802.52 353.38 C 803.28 354.14 803.71 354.96 803.46 355.2 C 803.22 355.45 804.37 356.93 806.01 358.51 C 807.91 360.33 809 362.38 809 364.13 C 809 365.64 809.46 367.16 810.02 367.51 C 810.58 367.86 810.77 368.56 810.46 369.07 C 810.14 369.58 810.43 370 811.11 370 C 811.78 370 812.06 370.27 811.73 370.61 C 811.39 370.94 811.92 372.07 812.9 373.12 C 814.53 374.88 826.84 378 832.11 378 C 835.2 378 836.26 373.72 834.41 368.72 C 832.53 363.61 831.34 345.99 832.72 343.53 C 833.44 342.26 833.89 344.54 834.4 351.96 C 835.1 362.19 836.07 365.9 838.94 369.4 C 840.12 370.83 840.2 371.4 839.25 371.73 C 838.56 371.97 838 373.27 838 374.61 C 838 377.88 841.21 379 850.63 379 C 859.07 379 861.34 378.17 865.17 373.66 C 868.06 370.26 869.89 370.48 868 373.99 C 866.32 377.13 867.35 378.82 870.67 378.35 C 882.16 376.74 892.78 374.4 894.25 373.16 C 895.22 372.35 896.97 369.04 898.15 365.82 C 899.85 361.15 901.48 358.92 906.14 354.88 C 909.36 352.09 912 349.33 912 348.76 C 912 348.19 910.31 345.87 908.25 343.61 C 906.19 341.35 903.8 338.41 902.94 337.09 L 901.37 334.68 L 894.39 338.1 C 888.7 340.9 886.04 341.59 879.96 341.84 C 868.03 342.34 849.87 338.66 838.45 333.43 C 833.51 331.18 833.14 330.74 831.99 325.94 C 831.26 322.91 831.04 318.75 831.44 315.67 C 832.35 308.68 835.23 298 836.21 298 C 836.64 298 837 303.99 837 311.3 C 837 326.72 837.78 329.2 843.5 331.98 C 856.43 338.26 877.81 338.63 889.97 332.79 C 895.29 330.23 903.83 321.85 907.51 315.57 L 910.11 311.14 L 907.55 306.1 C 906.14 303.32 905 299.37 905.01 297.28 L 905.02 293.5 L 908.02 298.74 C 913.4 308.12 920.24 312.22 934.21 314.48 C 936.26 314.81 938.22 315.55 938.59 316.14 C 939.04 316.87 935.86 317.09 928.37 316.85 L 917.5 316.5 L 917.19 320.78 C 916.55 329.72 924.37 341.25 934.87 346.85 C 942.01 350.65 943.07 350.71 947.8 347.48 C 949.84 346.09 953.16 344.69 955.2 344.36 C 958.22 343.87 959.01 343.25 959.51 340.96 C 960.34 337.16 958.36 330.21 955.25 326.12 C 953.79 324.19 953.3 322.93 954.1 323.19 C 956.65 324.04 961.8 331.84 962.48 335.91 C 963.5 341.89 962.47 343.63 955.88 347.15 C 950.44 350.04 941 358.9 941 361.11 C 941 361.6 945.39 362.01 950.75 362.02 C 961.34 362.05 965.77 363.39 971.64 368.35 C 973.37 369.81 975.05 371 975.37 371 C 976.81 371 979.01 364.65 979.06 360.3 C 979.12 356.11 979.25 355.81 980.11 357.97 C 981.4 361.19 980.33 367.31 977.97 370.31 C 976.13 372.64 976.15 372.73 978.77 376.42 Z M 913.28 520.09 C 918.15 521.33 928.74 520.17 933.16 517.92 C 938.23 515.33 944.71 509.46 946.66 505.69 C 949.95 499.33 946.41 491.03 935.51 479.5 C 928.73 472.32 928.23 471.21 926.37 459.02 C 924.93 449.53 923.08 445 920.66 445 C 919.95 445 918.09 443.66 916.52 442.02 C 914.95 440.39 912.25 438.58 910.51 438 C 907.04 436.86 903.01 430.9 902.98 426.86 C 902.98 425.56 902.32 422.7 901.53 420.5 C 899.67 415.35 899.63 409.62 901.42 406.16 C 902.68 403.72 902.63 403.17 900.99 400.99 C 899.16 398.56 899.13 398.56 894.33 400.18 C 873.23 407.29 835 408.89 816 403.44 C 815.37 403.26 814.78 403.09 814.23 402.93 C 810.28 401.78 808.16 401.16 806.29 401.62 C 803.84 402.21 801.84 404.65 796.78 410.16 C 782.47 425.75 778.33 431.89 771.53 447.64 C 769.43 452.52 766.41 459.39 764.82 462.93 C 762.1 469 762 469.68 763.08 474.93 C 763.71 477.99 764.79 481.62 765.49 483 C 766.18 484.38 767.08 486.58 767.49 487.9 C 768.13 489.99 767.96 490.22 766.11 489.74 C 764.15 489.23 764 489.58 764 494.63 C 764 502.01 766.01 506.32 771 509.62 C 774.49 511.93 776.5 512.44 783.59 512.81 C 793.94 513.35 799.58 511.91 804.89 507.37 C 810.27 502.76 811.45 498.89 809.5 492.31 C 808.66 489.5 807.17 486.19 806.17 484.97 C 804.6 483.03 804.07 482.89 802.08 483.96 C 798.38 485.94 797.34 483.8 799.95 479.57 C 801.75 476.67 801.88 476 800.64 476 C 797.01 476 798.54 474.07 804.58 471.03 C 814.78 465.91 838.04 448.75 837.97 446.4 C 837.96 445.91 836.13 444.66 833.91 443.64 C 828.94 441.34 821.23 433.77 817.66 427.69 C 816.2 425.19 815 422.86 815 422.5 C 815 421.62 821.32 426.1 822.29 427.68 C 824.94 431.98 845.27 441 852.34 441 C 855.08 441 855.86 441.65 858.27 445.93 C 866.55 460.67 883.38 477.82 904.97 493.51 C 911.3 498.12 910.05 499.17 902.02 496.01 C 899.12 494.86 896.57 494.09 896.37 494.29 C 895.71 494.95 900.88 509.06 903.08 512.63 C 905.55 516.62 908.68 518.91 913.28 520.09 Z M 865.27 263.41 C 874.33 265.75 881.71 263.76 886.02 257.82 C 888.67 254.15 889.16 249.17 886.72 250.68 C 886.02 251.11 885.93 250.68 886.46 249.41 C 889.3 242.67 889.96 239.6 889.37 235.89 C 888.8 232.36 888.17 231.57 884.49 229.78 L 880.26 227.73 L 872.62 230.36 C 861.82 234.09 855.1 233.94 847.06 229.79 C 838.57 225.41 835.33 221.52 834.48 214.66 C 833.8 209.22 834.36 205.61 836.24 203.25 C 837.76 201.36 849.43 201.71 861.21 204 C 866.87 205.1 873.61 206 876.19 206 C 882.05 206 894.04 201.65 897.08 198.42 C 899.24 196.11 899.3 195.66 898.27 189.01 C 897.68 185.17 896.17 179.92 894.93 177.35 C 886.46 159.86 860.15 152.69 840.36 162.47 C 836.3 164.48 831.35 167.78 829.35 169.81 C 825.93 173.29 821.68 181 821.67 183.75 C 821.67 184.44 821.27 185 820.79 185 C 820.3 185 820.22 186.64 820.59 188.64 C 821 190.8 820.9 192.06 820.35 191.72 C 818.97 190.86 820.78 208.55 822.72 214.9 C 823.66 217.99 825.69 221.63 827.46 223.4 C 829.16 225.11 832.28 229.88 834.4 234 C 842.66 250.15 853.34 260.32 865.27 263.41 Z M 731.15 309.82 C 733.54 310.35 736.03 310.83 736.68 310.89 C 737.34 310.95 738.38 308.48 739.05 305.28 C 742.51 288.58 758.17 237.95 766.91 215.18 C 778.59 184.76 795.06 151.1 806.76 133.73 C 808.15 131.66 809.03 129.69 808.69 129.36 C 807.79 128.45 795.57 137.49 789.08 143.87 C 775.59 157.13 766.77 173.63 756.1 205.56 C 747.59 231.03 742.02 250.14 734.1 281.02 C 730.79 293.93 727.79 305.48 727.44 306.67 C 726.88 308.58 727.33 308.96 731.15 309.82 Z M 936.57 441.12 C 937.21 442.15 939.93 441.54 944.01 439.47 C 947.4 437.75 953.43 427.29 955.55 419.44 L 957.29 413.03 L 954.84 408.28 C 953.13 404.96 950.92 402.61 947.51 400.51 C 943.03 397.74 941.91 397.5 933.57 397.51 C 925.7 397.52 923.75 397.89 918.85 400.28 C 910.74 404.25 905.97 411.04 907.81 416.01 C 908.65 418.28 908.7 418.27 911.37 414.76 C 913.87 411.48 919.44 408.1 920.54 409.2 C 921.28 409.95 916.14 419.07 912.91 422.75 C 911.31 424.58 910 426.58 910 427.21 C 910 429.07 913.17 432 915.19 432 C 917.34 432 926.65 427.52 929.25 425.23 C 930.83 423.84 931 423.84 931 425.24 C 931 426.77 926.8 430.92 921.98 434.16 C 919.52 435.81 919.52 435.84 921.5 437.38 C 925.01 440.11 929.69 439.38 934.61 435.36 C 937.05 433.36 939.32 431.99 939.65 432.32 C 939.98 432.65 939.29 434.54 938.11 436.53 C 936.94 438.52 936.24 440.59 936.57 441.12 Z M 829 400.49 C 848.05 403.11 868.78 401.58 887.5 396.2 C 896.88 393.5 897.52 393.15 897.83 390.52 C 898.13 388.01 897.92 387.8 895.83 388.41 C 888.62 390.55 874.83 392.96 870.5 392.84 C 867.36 392.75 866.62 392.55 868.5 392.3 C 872.89 391.72 889.89 388.09 894.25 386.8 C 897.48 385.84 898 385.28 898 382.73 C 898 380.01 897.79 379.84 895.25 380.49 C 885.99 382.86 867.61 384.88 854.67 384.95 C 841.12 385.01 816.29 381.97 809.67 379.43 C 808.26 378.89 808 379.49 808 383.29 L 808 383.3 C 808 385.17 808 386.4 808.56 387.26 C 809.64 388.91 812.78 389.22 821.93 390.11 C 841.57 392.02 842.66 392.96 824.68 392.5 C 809.45 392.11 807.9 392.22 808.18 393.72 C 808.63 396.01 817.55 398.92 829 400.49 Z M 906.63 395.35 C 908.41 399.09 909.41 399.77 910.5 397.99 C 911.55 396.3 917.23 393.7 922.5 392.5 C 926.87 391.51 927.73 390.88 929.34 387.51 C 930.54 385 931.38 380.29 931.75 374.07 C 932.07 368.54 933.03 362.81 934.01 360.5 L 935.7 356.5 L 929.5 352.33 L 923.29 348.16 L 914.55 356.76 C 909.75 361.49 905.39 366.48 904.87 367.84 C 904.25 369.46 904.32 372.23 905.06 375.8 C 905.69 378.8 905.9 383.62 905.54 386.49 C 905.05 390.42 905.32 392.6 906.63 395.35 Z M 956.09 400.86 C 957.97 403.12 960.04 404.97 960.7 404.98 C 961.36 404.99 964.65 400.84 968.01 395.75 C 973.86 386.91 974.11 386.28 973.6 381.61 C 972.97 375.88 971.48 373.99 964.35 369.91 C 958.63 366.64 952.63 365.89 943.75 367.35 L 939 368.12 L 938.81 374.81 C 938.47 386.98 938.31 388.4 937.15 388.78 C 934.98 389.51 936 390.78 939.25 391.4 C 945.22 392.54 952.65 396.71 956.09 400.86 Z M 851.92 226.68 C 857.57 229.64 861.82 229.6 871.6 226.5 C 880.93 223.54 882.78 223.45 887.54 225.72 C 891 227.37 891.29 227.36 894.82 225.47 C 897.92 223.81 898.55 222.91 898.81 219.75 C 898.98 217.69 898.91 216 898.64 216 C 896.84 216 895 217.49 895 218.95 C 895 221.31 891.57 224.25 889.32 223.83 C 888.32 223.64 887.05 222.46 886.5 221.2 C 885.76 219.5 884.93 219.05 883.31 219.46 C 882.11 219.76 880.84 219.55 880.49 218.99 C 879.86 217.97 895.92 210 898.6 210 C 900.14 210 900.52 207.44 899.11 206.57 C 898.62 206.26 896.03 206.99 893.36 208.18 C 890.69 209.36 885.8 210.9 882.5 211.6 C 881.14 211.88 880.09 212.11 879.02 212.24 C 875.23 212.71 871.28 211.99 852.64 208.56 L 852 208.45 C 841 206.43 840.27 206.51 839.52 209.92 C 839.16 211.53 839.39 214.59 840.03 216.71 C 841.21 220.64 842.56 221.77 851.92 226.68 Z M 716.5 373 C 717.6 373.48 720.2 373.9 722.27 373.93 C 725.44 373.99 726.21 373.58 727.02 371.43 C 728.97 366.31 728.31 364.41 724.13 363.16 C 722.01 362.52 719.53 362 718.63 362 C 717.74 362 717 361.65 717 361.22 C 717 360.79 715.57 359.9 713.82 359.24 C 712.06 358.58 710.88 357.79 711.18 357.49 C 711.48 357.19 712.94 357.41 714.43 357.97 C 715.91 358.54 719.85 359 723.17 359 C 728.55 359 729.13 358.81 728.45 357.25 C 728.04 356.29 727.48 353.92 727.22 352 C 726.66 347.87 726.04 347.38 720.36 346.53 C 713.8 345.55 714.04 344 720.75 344 C 728.52 344 730.23 342.68 729.82 337 L 729.5 332.57 L 723.57 331.39 C 717.27 330.13 715.21 330.56 709.72 334.29 C 707.33 335.91 707.03 336.64 707.56 339.48 C 708.02 341.92 707.58 343.83 705.89 346.77 C 703.77 350.46 703.7 351.05 704.95 354.84 C 705.89 357.69 705.98 359.33 705.27 360.22 C 702.47 363.7 706.4 370.43 711.93 371.6 C 713.35 371.9 715.4 372.53 716.5 373 Z M 743.71 380.82 C 747.29 382.13 755.17 382.27 758.31 381.07 C 759.65 380.56 761.03 379.1 761.38 377.82 C 761.73 376.55 763.47 374.59 765.26 373.48 C 769.35 370.93 771.29 365.43 770.77 357.85 C 770.28 350.64 767.05 346.2 759.81 342.77 L 754.5 340.26 L 753.4 351.38 C 752.79 357.5 751.95 364.64 751.53 367.25 C 750.78 371.96 750.8 372 753.55 372 C 756.6 372 756.52 372.78 753.43 373.25 C 752.36 373.42 750.37 374.33 749.02 375.27 C 747.66 376.22 745.81 377 744.9 377 C 743.99 377 742.72 377.63 742.08 378.4 C 741.14 379.53 741.46 380 743.71 380.82 Z M 933.25 560.95 C 936.67 562 958.9 561.63 962.75 560.45 C 967.41 559.03 963.83 550.06 955.3 541.82 L 951.5 538.15 L 947.5 539.67 C 945.3 540.5 941.47 541.89 939 542.75 C 936.53 543.61 934.38 544.41 934.23 544.52 C 933.93 544.73 930 558.64 930 559.46 C 930 559.72 931.46 560.39 933.25 560.95 Z M 833.71 286.89 C 835.24 289.11 837.02 290.94 837.65 290.96 C 838.28 290.98 840.31 289.53 842.15 287.74 C 843.99 285.95 847.21 283.21 849.29 281.65 L 853.09 278.83 L 849.79 277.12 C 840.42 272.26 834.73 266.37 829.6 256.21 C 828.13 253.31 826.55 251.16 826.09 251.45 C 825.62 251.73 825.48 254.05 825.76 256.59 C 826.1 259.62 825.87 261.46 825.08 261.95 C 824.41 262.36 823.17 265.78 822.31 269.54 C 820.57 277.17 820.59 277.2 827.85 281.18 C 829.54 282.1 832.18 284.68 833.71 286.89 Z M 742.09 559.59 C 744.51 560.94 765 561.67 763.7 560.37 C 763.35 560.02 764.74 558.4 766.78 556.77 C 770.78 553.58 776 550.6 776 551.5 C 776 552.26 782.1 549.04 783.7 547.44 C 784.42 546.73 784.98 545.77 784.95 545.32 C 784.86 543.94 776.89 538 775.13 538 C 774.22 538 771.23 539.49 768.49 541.32 C 765.74 543.15 759.22 547.04 754 549.98 C 748.78 552.92 743.42 555.98 742.09 556.79 L 739.68 558.26 L 742.09 559.59 Z M 772 379.24 C 772 380.63 776.06 377.8 778.23 374.9 C 779.21 373.58 780.35 370.58 780.76 368.24 C 781.37 364.71 782.09 363.69 784.98 362.24 C 786.97 361.25 789.44 358.78 790.72 356.5 C 793.22 352.04 793.38 351.15 792.04 349.04 C 791.24 347.77 790.65 347.8 787.53 349.29 C 785.55 350.23 782.16 351 780 351 L 776.06 351 L 776.67 358.86 C 777.22 365.95 777.02 367.28 774.64 372.48 C 773.19 375.65 772 378.69 772 379.24 Z M 727 322.43 C 735.39 324.25 744.98 324.33 747.26 322.6 C 748.67 321.53 748.77 321.05 747.74 320.2 C 746.49 319.16 732.32 315.86 720.84 313.93 C 715.18 312.99 710 313.91 710 315.86 C 710 317.16 719.37 320.78 727 322.43 Z M 866.5 222 C 866.11 223.24 864.99 224 863.56 224 C 860.99 224 859.4 222.5 858.85 219.55 C 858.61 218.24 856.68 216.91 853 215.5 C 847.35 213.35 845.72 210.75 849.65 210.19 C 852.43 209.8 871.76 214.56 873.61 216.09 C 875.62 217.76 873.52 220 869.94 220 C 868.01 220 866.94 220.63 866.5 222 Z M 733.32 353.39 C 734.86 357.42 740.54 353.73 743.43 346.83 C 744.27 344.82 745.48 343.01 746.13 342.79 C 748.02 342.16 746.27 337.23 743.53 335.43 C 740.15 333.21 737.28 334.38 736.49 338.3 C 736.13 340.06 735.13 343.81 734.27 346.64 C 733.41 349.47 732.98 352.51 733.32 353.39 Z M 731 376.69 C 731 378.11 735.95 375.36 738.5 372.52 C 741.23 369.47 746.09 358.85 747.32 353.25 C 748.07 349.83 746.28 349.56 744.58 352.85 C 742.9 356.1 737.51 361 735.62 361 C 734.89 361 734.29 362.67 734.15 365.15 C 734.01 367.43 733.25 370.86 732.45 372.77 C 731.65 374.68 731 376.44 731 376.69 Z M 712.5 390.62 C 719.46 392.76 720.69 392.45 721.46 388.37 C 721.83 386.37 721.77 384.38 721.32 383.95 C 720.87 383.51 718.13 382.73 715.24 382.21 C 710.31 381.33 709.94 381.4 709.51 383.38 C 708.28 389.09 708.39 389.36 712.5 390.62 Z M 710 399.71 C 714.87 402.16 719 400.96 719 397.09 C 719 396.42 710.28 394 707.85 394 C 705.88 394 707.56 398.48 710 399.71 Z M 893.32 354.88 C 892.11 355.49 890.09 355.99 888.82 355.98 C 886.93 355.97 887.4 355.39 891.32 352.94 C 894.06 351.21 896.67 348.64 897.38 346.94 C 898.73 343.74 900 344 900 347.49 C 900 349.73 897.11 352.92 893.32 354.88 Z M 818 355.5 C 813.66 359.92 812 360.91 812 359.07 C 812 357.33 818.73 351 820.58 351 C 821.98 351 821.37 352.06 818 355.5 Z M 827.68 201.75 C 827.65 206.29 827.57 210 827.48 210 C 825.89 210 825.48 199.18 826.93 195.5 C 827.41 194.28 827.7 196.73 827.68 201.75 Z M 873 201.1 C 874.02 201.67 873.38 201.92 871 201.87 C 867.36 201.8 859.97 200.3 859.14 199.47 C 858.34 198.67 871.39 200.21 873 201.1 Z M 838 276.41 C 838 277.77 836.01 276.85 834.6 274.84 C 832.44 271.75 833.77 270.44 836.08 273.37 C 837.14 274.72 838 276.08 838 276.41 Z M 749 331.5 C 749.68 332.33 750.64 333 751.12 333 C 751.61 333 752 332.33 752 331.5 C 752 330.64 751.1 330 749.88 330 C 748.1 330 747.96 330.25 749 331.5 Z" fill="rgb(23,11,8)" style=""/>
    <path style="stroke: rgb(0, 0, 0); fill: rgb(23, 10, 9); stroke-width: 1;" d="M 847.752 346.902 C 846.035 350.589 863.535 364.488 865.029 366.154"/>
    <path style="stroke: rgb(0, 0, 0); fill: rgb(23, 10, 9); stroke-width: 1;" d="M 813.667 360.8 C 813.199 362.47 817.966 368.764 818.373 369.52"/>
  </g>
</svg>