<?xml version="1.0" encoding="utf-8"?>
<svg xmlns="http://www.w3.org/2000/svg" viewBox="196.756 90.89 264.388 421.158">
  <g transform="matrix(1, 0, 0, 1, -11.95986, -74.457848)">
    <path d="M 345.65 295.93 C 338.73 293.12 332.96 288.89 327.02 282.27 C 320.98 275.54 319.97 273.77 315.96 262.88 C 312.34 253.07 311.1 240.23 312.9 231.09 C 313.92 225.9 313.85 224.36 312.41 220.27 C 305.58 200.85 318.14 185.16 341.97 183.32 C 342.47 183.28 342.97 183.25 343.47 183.23 C 340.02 183.69 339.81 184.79 344.12 185.47 C 366.07 188.9 379.51 197.44 386.67 212.51 C 390.39 220.36 392 221.22 392 215.38 C 392 214.61 391.88 213.73 391.66 212.78 C 393.68 219.38 395.17 227.23 394.24 228.16 C 393.77 228.63 389.37 230.22 384.45 231.71 C 372.9 235.19 359.96 235.33 346 232.12 C 340.77 230.92 333.06 229.66 328.86 229.33 C 321.73 228.76 321.14 228.86 320.06 230.89 C 316.55 237.44 318.12 251.27 323.05 257.25 C 327.17 262.25 335.46 266.11 343.45 266.75 C 349.01 267.19 351.23 266.8 359.35 263.95 L 368.79 260.63 L 374.77 263.32 C 378.15 264.83 382.55 266 384.89 266 C 388.91 266 389.02 266.09 388.38 268.75 C 386.07 278.31 375.67 291.51 367.22 295.6 C 361.8 298.23 351.68 298.38 345.65 295.93 Z M 264.5 518.78 C 259.47 517.01 253.58 512.59 252.62 509.87 C 251.16 505.72 252.69 500.85 258.43 491.37 C 261.4 486.47 265.69 477.81 267.95 472.12 C 275.67 452.75 279.35 447.71 288.53 443.99 C 295.69 441.08 302.04 433.41 302.11 427.58 C 302.25 414.93 302.29 411.83 303.45 411.32 C 303.83 411.16 304.33 411.27 304.99 411.41 L 305 411.42 C 306.38 411.72 311.09 412.45 315.48 413.04 C 319.86 413.64 323.57 414.24 323.72 414.39 C 323.87 414.54 321.34 418.47 318.1 423.12 C 308.48 436.9 304.99 443.95 304.73 450.12 L 304.53 454.74 C 304.44 454.65 304.38 454.56 304.35 454.48 C 303.24 451.58 297.83 451.73 290.97 454.85 C 284.63 457.73 284.34 458.04 280.59 465.52 L 276.73 473.22 L 278.06 478.76 C 278.8 481.83 280.44 485.35 281.74 486.65 C 284.38 489.29 289.35 489.69 294.67 487.69 C 297.56 486.61 306 479.74 306 478.48 C 306 477.6 312.84 467.64 314.91 465.5 C 315.71 464.67 316.31 463.95 316.7 463.31 C 316.33 464.37 315.66 465.71 314.76 467.48 C 312.66 471.61 305.84 481.69 299.23 490.44 C 297.18 493.16 293.02 500.36 290 506.44 C 286.24 514.01 283.71 517.89 282 518.74 C 278.99 520.22 268.66 520.25 264.5 518.78 Z M 311.67 367.06 C 313.63 369.23 315.55 371 315.95 371 C 316.47 371 317.63 370.2 319.17 368.87 C 318.09 369.93 317 370.97 315.91 372 C 302.13 385.01 298.68 387.28 294.4 386.13 C 291.91 385.47 291.34 384.61 290.23 379.93 C 288.09 370.88 289.01 364.41 293.45 357.21 C 296.31 352.57 297.33 349.82 297.4 346.53 C 297.57 338.8 295.73 339.1 291.47 347.49 C 287.41 355.5 277.79 368.01 275.73 367.98 C 275.05 367.97 273.51 366.55 272.3 364.82 C 270.19 361.8 265.29 359.26 260 358.45 C 258.62 358.24 258.17 358.31 259 358.61 C 259.83 358.91 261.52 360.43 262.77 362 L 265.04 364.86 L 259.77 364.34 C 255.91 363.97 253.97 364.24 252.5 365.38 C 251.61 366.08 251.16 366.46 251.36 366.68 C 249.08 366.14 248.38 365.01 250.12 363.88 C 250.88 363.39 253.86 363.26 256.75 363.61 C 262.77 364.32 263.75 362.96 259 360.5 C 257.35 359.65 256 358.51 256 357.97 C 256 357.68 256 357.46 256.1 357.32 C 256.43 356.84 257.79 357.08 263.51 358.08 L 263.55 358.08 C 269.14 359.06 270.17 358.95 273.86 357.07 C 278.94 354.48 287.27 346.06 289.6 341.16 C 292.39 335.27 292.54 329.13 290.03 323.29 C 287.13 316.56 284.13 313.88 278.8 313.28 C 275.07 312.86 274.1 313.17 271.71 315.57 C 268.51 318.77 262.46 327.55 256.52 337.1 C 259.7 331.86 262.72 327.15 264.89 324.16 C 267.43 320.68 269.95 317.11 270.5 316.23 C 272.76 312.63 277.09 309.72 288 304.45 C 294.33 301.4 300.77 298.25 302.33 297.45 C 307.56 294.77 309.33 295.48 312.27 301.47 C 313.74 304.48 318.04 310.22 321.82 314.22 C 326.57 319.26 331.26 324.94 334.91 329.92 C 330.67 324.32 325.85 319.12 324.55 319.62 C 323.8 319.91 318.08 317.67 311.84 314.65 C 300.38 309.1 292.29 306 289.29 306 C 288.39 306 286.87 306.71 285.91 307.58 C 284.27 309.06 284.4 309.37 288.07 312.69 C 293.64 317.72 297.55 326.47 301.59 342.95 C 305.5 358.92 306.53 361.37 311.67 367.06 Z M 372.77 511.41 C 366.57 509.5 365.6 507.51 366.3 498.22 C 366.61 494.14 367.08 490.59 367.34 490.32 C 367.61 490.06 368.65 490.27 369.66 490.79 C 370.67 491.32 372.31 491.45 373.3 491.09 C 374.87 490.52 374.46 489.7 370.29 484.97 C 367.63 481.96 360.75 474.9 354.98 469.27 C 344.68 459.23 344.56 459.05 347.73 459.02 C 354.99 458.97 366 452.66 366 448.55 C 366 448.24 365.9 447.56 365.73 446.61 L 366.49 450.18 L 363.74 452.54 C 362.23 453.84 361 455.15 361 455.46 C 361 455.77 362.37 457.93 364.05 460.26 C 369.08 467.27 378.24 476.16 382.5 478.16 C 386.79 480.17 389.07 480.05 397.75 477.36 C 401.72 476.12 403 475.25 403 473.78 C 403 472.75 402.54 471.16 401.63 469.05 L 403.37 472.5 L 403.12 484.95 C 402.83 499.62 401.63 506.99 399.24 508.86 C 393.74 513.14 382.08 514.27 372.77 511.41 Z M 338.75 382.92 C 341.39 384.45 350.06 384.2 355.23 382.44 C 361.75 380.22 366.29 375.3 371.02 365.34 C 373.42 360.29 375.44 354.19 376.98 347.49 C 376.62 349.21 376.26 350.77 375.93 352 C 374.82 356.12 373.52 361.08 373.04 363 C 372.56 364.92 370.95 371.34 369.45 377.25 L 366.74 387.99 L 363.12 388.97 C 351.79 392.01 328.11 392.96 314.69 390.9 C 310.74 390.29 307.37 389.67 307.2 389.52 C 307.04 389.37 313.39 382.78 321.31 374.87 C 329.92 366.28 336.16 359.65 341.18 353.48 C 337.45 358.16 333.2 362.95 328.14 368.24 C 320.14 376.63 319.94 377.74 326.1 379.88 C 326.97 380.19 327.57 380.46 328.18 380.47 C 329.85 380.49 331.55 378.47 339.18 369.4 C 339.76 368.73 340.36 368.01 341 367.25 C 345.67 361.7 350.03 356.93 350.67 356.64 C 353.46 355.41 346.17 368.2 339.06 377 C 336.57 380.09 336.49 381.6 338.75 382.92 Z M 383.08 396.44 C 381.35 394.47 378.75 391.07 377.32 388.9 L 374.71 384.96 L 377.01 376.23 C 378.28 371.43 380.31 364.35 381.53 360.5 C 382.75 356.65 384.03 350.35 384.36 346.5 C 384.96 339.63 383.54 328.33 381.93 325.79 C 383.61 327.83 385.8 334.95 386.3 340.5 C 387.01 348.39 387.6 349.67 391.08 350.88 C 392.69 351.44 394 351.68 394 351.41 C 394 351.15 392.88 348.71 391.5 346 C 390.62 344.25 389.99 343.05 389.62 342.2 C 391 345.1 394.34 351.15 395.94 353.5 C 398.79 357.68 398.53 358.65 394.37 359.33 C 389.87 360.06 384.49 363.65 382.93 366.98 C 381.56 369.89 380.01 376 380.64 376 C 380.87 376 382.42 374.45 384.08 372.56 C 387.41 368.77 394.31 365.66 398.27 366.17 L 400.83 366.5 L 395.45 379.5 C 392.49 386.65 390.05 393.22 390.03 394.1 C 390.02 394.98 389.15 396.67 388.12 397.86 L 386.24 400.03 L 383.08 396.44 Z M 244.1 562.15 C 238.23 561.28 236.93 559.15 239.43 554.5 C 243.18 547.54 247.64 543.31 251.97 542.62 C 256.4 541.91 264.72 543.53 266.86 545.52 C 267.6 546.22 268.45 549.71 268.74 553.29 C 269.19 558.94 269.01 559.92 267.38 560.79 C 264.93 562.09 249.74 562.98 244.1 562.15 Z M 402.32 559.3 C 401.13 559.07 399.61 558.23 398.95 557.44 C 398.29 556.65 397.33 556 396.81 556 C 396.29 556 394.27 554.78 392.32 553.3 C 390.38 551.81 386.92 549.67 384.64 548.54 C 377.22 544.85 379.03 541.11 389 539.52 C 392.07 539.03 393.97 539.88 404.5 546.42 C 411.1 550.51 417.4 554.57 418.5 555.42 C 420.48 556.95 420.48 556.99 418.56 558.48 C 416.7 559.94 407.87 560.38 402.32 559.3 Z M 339.25 326.46 C 335.81 321.77 333 317.55 333 317.08 C 333 315.07 336.15 315.25 338.72 317.41 C 340.25 318.69 342.95 320.06 344.72 320.44 C 347.59 321.07 348.46 320.65 352.92 316.47 C 357.65 312.05 357.87 311.96 357.08 314.65 C 355.35 320.51 347.6 335.01 346.2 334.99 C 345.82 334.99 342.69 331.15 339.25 326.46 Z M 397.61 461.22 C 393.66 454.3 387.62 445.02 379.77 433.85 L 372.99 424.2 L 368.11 426.05 C 365.43 427.07 362.9 427.59 362.49 427.2 C 361.6 426.37 362.07 429.48 364.6 441.34 L 364.65 441.58 C 364.03 438.87 363.23 435.64 362.37 432.35 C 360.38 424.73 358.54 417.1 358.28 415.39 C 357.83 412.41 357.98 412.26 362.07 411.6 L 362.32 411.56 C 364.2 411.26 365.3 411.09 366.16 411.46 C 367.42 412.01 368.16 413.75 370.05 418 C 371.4 421.02 375.67 428 379.54 433.5 C 388.96 446.89 393.87 454.38 397.61 461.22 Z M 330.01 450.86 C 330.04 448.53 339.45 423.26 340.84 421.8 C 341.52 421.08 341.2 445.56 340.5 447.69 C 340.29 448.34 338.62 449.3 336.81 449.83 C 334.99 450.35 332.71 451.11 331.75 451.5 C 330.59 451.97 330 451.76 330.01 450.86 Z M 299.75 442.93 C 302.95 444.82 304.45 443.7 305.13 438.89 C 305.49 436.37 306.28 433.45 306.87 432.4 C 308.97 428.7 310.98 422.78 310.43 421.89 C 310.13 421.4 308.56 421 306.94 421 C 304.24 421 304 421.29 304 424.56 C 304 426.68 303.6 427.87 303 427.5 C 302.44 427.15 302 427.94 302 429.29 C 302 430.62 300.61 433.62 298.91 435.96 C 297.21 438.31 296.31 439.92 296.91 439.55 C 297.51 439.18 298 439.56 298 440.39 C 298 441.22 298.79 442.37 299.75 442.93 Z M 253 405.62 C 253 404.14 255.68 398.2 256.93 396.9 C 260.8 392.88 269.52 391.51 272.02 394.52 C 272.72 395.36 273.11 396.18 272.89 396.33 C 270.95 397.73 258.89 403 257.63 403 C 256.73 403 256 403.4 256 403.89 C 256 404.38 255.32 405.05 254.5 405.36 C 253.68 405.68 253 405.79 253 405.62 Z M 353.27 335.73 C 354.66 333.27 356.04 330.67 357.46 327.86 C 361.53 319.81 365.16 311.69 365.51 309.81 C 366.4 305.06 369.08 303.54 373.82 305.1 C 376.35 305.93 378.59 306.93 380.56 308.13 C 380.22 307.93 379.88 307.74 379.53 307.56 C 376.27 305.83 375.62 305.77 373.56 307.06 C 367.23 311.01 363.95 315.32 357.12 328.63 C 355.86 331.1 354.58 333.45 353.27 335.73 Z M 241.61 391.95 C 237.98 381.74 237.8 373.92 241.03 365.5 C 241.26 364.9 241.57 364.17 241.96 363.33 C 241.65 364.04 241.38 364.7 241.16 365.29 C 238.57 372.22 238.47 375.66 240.64 383.54 C 241.54 386.82 242.31 390.25 242.35 391.18 C 242.39 392.1 242.68 392.7 242.99 392.5 C 243.3 392.31 244.67 393.01 246.03 394.06 C 247.75 395.38 248.69 395.96 249.38 395.87 C 249.33 395.92 249.28 395.98 249.23 396.04 C 247.18 398.21 245.27 400 244.98 400 C 244.7 400 243.18 396.38 241.61 391.95 Z M 394.5 403.33 C 389.69 402.26 389.62 401.85 393.92 399.93 C 396.33 398.85 398.48 398.14 398.69 398.36 C 398.91 398.58 399.3 399.93 399.56 401.38 C 400.06 404.1 399.31 404.39 394.5 403.33 Z M 334.74 352.48 C 338.75 347.72 341.84 343.57 341.99 342.22 C 342 342.28 342 342.33 342 342.38 C 342 343.55 339.13 347.42 334.74 352.48 Z M 358.84 184.46 C 364.3 185.65 369.41 187.63 373.91 190.26 C 369.4 187.74 364.16 185.72 358.84 184.46 Z M 250.79 394.46 C 251.59 393.18 253.34 391.91 255.57 390.85 C 253.93 391.76 252.39 392.94 250.79 394.46 Z M 316.68 460.41 C 315.84 459.51 314.05 458.73 311.2 457.85 C 310.01 457.48 308.87 457.06 307.87 456.63 L 311 457.69 C 314.16 458.76 315.96 459.42 316.68 460.41 Z M 381.34 325.29 C 380.81 325.3 380.19 327.46 379.59 331.33 C 379.99 327.66 380.7 325.07 381.26 325.25 C 381.28 325.26 381.31 325.27 381.34 325.29 Z M 385.27 199.95 C 386.8 201.87 388.1 203.92 389.17 206.09 C 389.46 206.68 389.75 207.35 390.04 208.09 C 388.84 205.36 387.16 202.49 385.27 199.95 Z M 385.08 311.72 C 388.29 315.05 390.4 319.4 391.6 325.06 C 390.38 319.43 388.23 315.02 385.08 311.72 Z M 253.14 366.94 C 253.6 366.96 254.14 366.96 254.78 366.97 C 257.67 366.99 260.51 367.62 262.9 368.69 C 260.48 367.61 257.59 367 254.59 367 C 254.08 367 253.59 366.98 253.14 366.94 Z M 389.37 340.32 C 389.64 340.03 390.23 339.91 391.12 339.68 C 390.39 339.87 389.75 340.11 389.37 340.32 Z M 264.92 388.3 C 265.07 388.28 265.22 388.27 265.36 388.26 C 265.21 388.27 265.07 388.28 264.92 388.3 Z" fill="rgb(34,67,40)" style=""/>
    <path d="M 338.75 382.92 C 336.49 381.6 336.57 380.09 339.06 377 C 346.17 368.2 353.46 355.41 350.67 356.64 C 350.03 356.93 345.67 361.7 341 367.25 C 340.36 368.01 339.76 368.73 339.18 369.4 C 331.55 378.47 329.85 380.49 328.18 380.47 C 327.57 380.46 326.97 380.19 326.1 379.88 C 319.94 377.74 320.14 376.63 328.14 368.24 C 333.2 362.95 337.45 358.16 341.18 353.48 C 345.98 347.58 349.67 342.11 353.27 335.73 C 354.58 333.45 355.86 331.09 357.12 328.63 C 363.95 315.32 367.23 311.01 373.56 307.06 C 375.62 305.77 376.27 305.83 379.53 307.56 C 379.88 307.74 380.22 307.93 380.56 308.13 C 382.26 309.17 383.76 310.36 385.08 311.72 C 388.23 315.02 390.38 319.43 391.6 325.06 C 392.01 326.99 392.31 329.07 392.52 331.31 C 393.21 338.73 393.14 339.15 391.12 339.68 C 390.23 339.91 389.64 340.03 389.37 340.32 C 389.14 340.45 389 340.56 389 340.65 C 389 340.82 389.23 341.39 389.62 342.2 C 389.99 343.05 390.62 344.25 391.5 346 C 392.88 348.71 394 351.15 394 351.41 C 394 351.68 392.69 351.44 391.08 350.88 C 387.6 349.67 387.01 348.39 386.3 340.5 C 385.8 334.95 383.61 327.83 381.93 325.79 C 381.75 325.52 381.58 325.35 381.41 325.3 C 381.39 325.29 381.36 325.29 381.34 325.29 C 381.31 325.27 381.28 325.26 381.26 325.25 C 380.7 325.07 379.99 327.66 379.59 331.33 C 379.43 332.34 379.28 333.48 379.13 334.72 C 378.67 338.49 377.82 343.44 376.98 347.49 C 375.44 354.19 373.42 360.29 371.02 365.34 C 366.29 375.3 361.75 380.22 355.23 382.44 C 350.06 384.2 341.39 384.45 338.75 382.92 Z M 253.14 366.94 C 253.59 366.98 254.08 367 254.59 367 C 257.59 367 260.48 367.61 262.9 368.69 C 264.71 369.51 266.27 370.59 267.4 371.85 C 268.48 373.07 269.81 376.95 270.48 380.87 L 271.66 387.75 L 265.53 388.25 C 265.48 388.25 265.42 388.25 265.36 388.26 C 265.22 388.27 265.07 388.28 264.92 388.3 C 261.11 388.65 258.21 389.4 255.57 390.85 C 253.34 391.91 251.59 393.18 250.79 394.46 C 250.32 394.9 249.86 395.37 249.38 395.87 C 248.69 395.96 247.75 395.38 246.03 394.06 C 244.67 393.01 243.3 392.31 242.99 392.5 C 242.68 392.7 242.39 392.1 242.35 391.18 C 242.31 390.25 241.54 386.82 240.64 383.54 C 238.47 375.66 238.57 372.22 241.16 365.29 C 241.38 364.7 241.65 364.04 241.96 363.33 C 244.64 357.53 250.83 346.48 256.52 337.1 C 262.46 327.55 268.51 318.77 271.71 315.57 C 274.1 313.17 275.07 312.86 278.8 313.28 C 284.13 313.88 287.13 316.56 290.03 323.29 C 292.54 329.13 292.39 335.27 289.6 341.16 C 287.27 346.06 278.94 354.48 273.86 357.07 C 270.17 358.95 269.14 359.06 263.55 358.08 L 263.51 358.08 C 257.79 357.08 256.43 356.84 256.1 357.32 C 256 357.46 256 357.68 256 357.97 C 256 358.51 257.35 359.65 259 360.5 C 263.75 362.96 262.77 364.32 256.75 363.61 C 253.86 363.26 250.88 363.39 250.12 363.88 C 248.38 365.01 249.08 366.14 251.36 366.68 C 251.52 366.85 252.08 366.92 253.14 366.94 Z M 311.67 367.06 C 306.53 361.37 305.5 358.92 301.59 342.95 C 297.55 326.47 293.64 317.72 288.07 312.69 C 284.4 309.37 284.27 309.06 285.91 307.58 C 286.87 306.71 288.39 306 289.29 306 C 292.29 306 300.38 309.1 311.84 314.65 C 318.08 317.67 323.8 319.91 324.55 319.62 C 325.85 319.12 330.67 324.32 334.91 329.92 C 339.03 335.53 341.84 340.27 341.99 342.22 C 341.84 343.57 338.75 347.72 334.74 352.48 C 330.55 357.31 324.96 363.22 319.17 368.87 C 317.63 370.2 316.47 371 315.95 371 C 315.55 371 313.63 369.23 311.67 367.06 Z M 397.61 461.22 C 398.3 462.49 398.96 463.74 399.59 465 L 401.63 469.05 C 402.54 471.16 403 472.75 403 473.78 C 403 475.25 401.72 476.12 397.75 477.36 C 389.07 480.05 386.79 480.17 382.5 478.16 C 378.24 476.16 369.08 467.27 364.05 460.26 C 362.37 457.93 361 455.77 361 455.46 C 361 455.15 362.23 453.84 363.74 452.54 L 366.49 450.18 L 365.73 446.61 C 365.49 445.35 365.12 443.61 364.65 441.58 L 364.6 441.34 C 362.07 429.48 361.6 426.37 362.49 427.2 C 362.9 427.59 365.43 427.07 368.11 426.05 L 372.99 424.2 L 379.77 433.85 C 387.62 445.02 393.66 454.3 397.61 461.22 Z M 316.68 460.41 C 317.2 461.12 317.17 461.99 316.7 463.31 C 316.31 463.95 315.71 464.67 314.91 465.5 C 312.84 467.64 306 477.6 306 478.48 C 306 479.74 297.56 486.61 294.67 487.69 C 289.35 489.69 284.38 489.29 281.74 486.65 C 280.44 485.35 278.8 481.83 278.06 478.76 L 276.73 473.22 L 280.59 465.52 C 284.34 458.04 284.63 457.73 290.97 454.85 C 297.83 451.73 303.24 451.58 304.35 454.48 C 304.38 454.56 304.44 454.65 304.53 454.74 L 304.5 455.5 L 307.87 456.63 C 308.87 457.06 310.01 457.48 311.2 457.85 C 314.05 458.73 315.84 459.51 316.68 460.41 Z M 299.75 442.93 C 298.79 442.37 298 441.22 298 440.39 C 298 439.56 297.51 439.18 296.91 439.55 C 296.31 439.92 297.21 438.31 298.91 435.96 C 300.61 433.62 302 430.62 302 429.29 C 302 427.94 302.44 427.15 303 427.5 C 303.6 427.87 304 426.68 304 424.56 C 304 421.29 304.24 421 306.94 421 C 308.56 421 310.13 421.4 310.43 421.89 C 310.98 422.78 308.97 428.7 306.87 432.4 C 306.28 433.45 305.49 436.37 305.13 438.89 C 304.45 443.7 302.95 444.82 299.75 442.93 Z" fill="rgb(62,108,39)" style=""/>
    <path d="M 385.27 199.95 C 387.16 202.49 388.84 205.36 390.04 208.09 C 390.6 209.48 391.15 211.09 391.66 212.78 C 391.88 213.73 392 214.61 392 215.38 C 392 221.22 390.39 220.36 386.67 212.51 C 379.51 197.44 366.07 188.9 344.12 185.47 C 339.81 184.79 340.02 183.69 343.47 183.23 C 348.76 182.95 353.94 183.39 358.84 184.46 C 364.16 185.72 369.4 187.74 373.91 190.26 C 378.38 192.88 382.25 196.15 385.27 199.95 Z" fill="rgb(76,104,87)" style=""/>
    <path d="M 398 389.47 C 398 388.62 400.48 382.52 403.5 375.91 C 406.52 369.3 409 363.67 409 363.4 C 409 363.13 406.75 359.58 404 355.5 C 401.25 351.42 399 347.62 399 347.05 C 399 346.82 399.1 346.64 399.31 346.49 L 401.5 347.82 C 403.15 348.81 406.3 350.36 408.5 351.26 C 413.94 353.49 423.87 353.46 426.54 351.22 C 429.39 348.82 437 338.57 437 337.13 C 437 336.58 434.46 338.22 431.04 340.91 C 435.3 337.37 438.9 334.11 439.3 333.41 C 441.46 329.61 441.42 333.17 439.17 344.97 L 436.7 357.93 L 442.35 364.37 C 442.72 364.8 443.09 365.22 443.44 365.64 C 440.64 362.8 437.42 360 436.6 360 C 433.44 360 435.1 362.95 440.75 367.39 C 445.92 371.45 447.69 372.52 447.95 371.59 C 447.98 371.67 448 371.74 448 371.78 C 448 372.32 449.01 373.46 450.25 374.33 C 452.37 375.8 451.96 375.9 443.32 375.95 C 438.26 375.98 432.96 375.56 431.54 375.01 C 429.26 374.15 428.83 374.33 427.99 376.51 C 427.47 377.88 426.7 379.02 426.27 379.04 C 425.85 379.07 423.61 379.45 421.31 379.9 C 418.9 380.36 416.72 380.32 416.2 379.8 C 415.65 379.25 414.14 379.84 412.39 381.29 C 406.49 386.19 399.82 391 398.92 391 C 398.42 391 398 390.31 398 389.47 Z M 428.34 370.75 C 431.43 367.91 433.27 362.67 431.71 361.11 C 431.1 360.5 430.98 360 431.43 360 C 431.89 360 431.13 359.1 429.73 358 C 425.72 354.85 421.36 355.35 418.99 359.25 C 413.56 368.16 421.08 377.42 428.34 370.75 Z M 422.04 367.54 C 421.35 366.72 421.18 365.53 421.64 364.79 C 422.08 364.08 422.54 362.88 422.65 362.12 C 423.36 357.42 428 358.42 428 363.27 C 428 368.34 424.67 370.72 422.04 367.54 Z M 404.02 346.18 C 406.23 346.38 409.18 346.83 412.92 347.54 C 409.8 346.95 406.39 346.44 404.02 346.18 Z M 425.69 345.3 L 421.1 349.1 L 421.06 349.09 L 425.69 345.3 Z" fill="rgb(145,146,142)" style=""/>
    <path d="M 307 406.15 C 303.42 405.21 298.7 403.55 296.5 402.47 C 292.86 400.68 292.47 400.11 292.19 396.16 C 291.92 392.37 292.1 391.9 293.69 392.38 C 300.35 394.42 310.82 396.49 318.6 397.37 C 314.41 397.05 310.49 396.69 309 396.48 C 306.27 396.09 306.7 396.42 311 397.96 C 314.02 399.05 319.31 400.24 322.75 400.61 C 326.19 400.98 329 401.66 329 402.14 C 329 402.61 328.44 403.02 327.75 403.05 C 327.06 403.08 323.07 403.67 318.87 404.36 C 314.67 405.05 310.4 405.28 309.37 404.87 C 308.34 404.47 306.85 404.11 306.05 404.07 C 303.72 403.96 306.01 405.62 309.58 406.73 C 308.67 406.55 307.8 406.36 307 406.15 Z M 352.75 402.84 C 352.46 399.9 352.34 397.36 352.49 397.2 C 353.13 396.51 366.08 394.75 366.62 395.28 C 366.94 395.6 366.89 397.71 366.51 399.95 C 365.75 404.43 363.4 406.27 356.85 407.5 L 353.27 408.17 L 352.75 402.84 Z M 324.97 447.75 C 323.79 451.28 323.08 453.28 322 454.21 C 323.08 453.28 323.79 451.28 324.96 447.75 C 326.29 443.76 329.05 436.36 331.08 431.31 C 333.12 426.25 334.55 421.89 334.27 421.6 C 333.99 421.32 332.41 422.44 330.76 424.09 C 329.11 425.74 327.6 426.93 327.4 426.74 C 327.21 426.54 327.96 423.97 329.09 421.02 C 330.89 416.28 330.92 415.82 329.41 417.08 C 327.11 418.98 322.03 426.84 317.67 434.52 C 322.04 426.8 327.26 418.57 330.3 415.25 C 332.35 413 332.35 413 334.22 415.01 C 336.41 417.36 336.12 418.8 330.81 432 C 328.93 436.67 326.3 443.76 324.97 447.75 Z M 355.67 427.76 C 353.75 420.91 351.72 414.94 350.82 414.39 C 350.12 413.96 349.97 414.14 350.42 414.86 C 350.81 415.51 350.21 417.54 349.07 419.39 C 347.32 422.22 347.03 424.12 347 435.33 C 347 434.89 347 434.44 347 433.99 C 347 417.89 347.17 416.16 348.9 414.59 C 349.95 413.64 351.02 413.24 351.29 413.68 C 352.13 415.07 353.93 421.09 355.67 427.76 Z M 328.82 398.2 C 331.39 398.52 331.8 398.95 331.45 399.84 C 331.78 398.99 331.35 398.55 328.82 398.2 Z M 320.26 407.69 C 320.66 407.69 321.07 407.69 321.46 407.68 L 329.42 407.5 L 321.46 407.68 C 321.06 407.69 320.66 407.69 320.26 407.69 Z" fill="rgb(176,87,40)" style=""/>
    <path d="M 314.5 453.56 C 312.3 452.88 310.36 451.61 310.19 450.75 C 309.9 449.26 313.37 442.13 317.67 434.52 C 322.03 426.84 327.11 418.98 329.41 417.08 C 330.92 415.82 330.89 416.28 329.09 421.02 C 327.96 423.97 327.21 426.54 327.4 426.74 C 327.6 426.93 329.11 425.74 330.76 424.09 C 332.41 422.44 333.99 421.32 334.27 421.6 C 334.55 421.89 333.12 426.25 331.08 431.31 C 329.05 436.36 326.29 443.76 324.96 447.75 C 323.79 451.28 323.08 453.28 322 454.21 C 321.86 454.33 321.71 454.43 321.56 454.52 C 320.89 454.89 320.07 454.94 318.94 454.75 C 317.81 454.56 316.38 454.14 314.5 453.56 Z M 347.67 452.33 C 347.32 451.98 347.03 444.46 347 435.33 C 347.03 424.12 347.32 422.22 349.07 419.39 C 350.21 417.54 350.81 415.51 350.42 414.86 C 349.97 414.14 350.12 413.96 350.82 414.39 C 351.72 414.94 353.75 420.91 355.67 427.76 C 357.88 436.18 360 445.62 360 448.04 C 360 451.19 350 454.67 347.67 452.33 Z M 268.5 441.6 C 261.43 438.47 255.35 428.45 256.43 421.7 C 257.48 415.16 260.36 410.22 264.98 406.97 C 263.73 407.97 262.6 409.19 261.48 410.69 C 259.05 413.93 258.98 414.2 260.97 412.5 L 263.31 410.5 L 262.55 414 C 260.43 423.84 260.35 424.92 261.55 427.78 C 262.23 429.41 263.84 431.48 265.12 432.37 C 266.4 433.27 267.46 434 267.47 434 C 267.49 434 269.93 433.08 272.9 431.95 C 275.86 430.82 278.95 430.15 279.76 430.46 C 280.76 430.85 281.04 430.55 280.64 429.51 C 280.53 429.21 280.44 428.95 280.4 428.74 C 280.61 429.21 281.73 430.22 283.85 431.69 C 289.02 435.27 289.52 436.61 286.47 438.61 C 284.21 440.1 283.69 440.09 279.88 438.57 C 275.22 436.7 274.37 436.96 275.88 439.78 C 276.46 440.86 276.65 442.02 276.3 442.37 C 275.29 443.38 271.74 443.03 268.5 441.6 Z M 409.35 403.4 C 407.53 402.5 406.02 400.88 405.76 399.53 C 405.33 397.28 405.48 397.23 411.15 397.75 C 416.98 398.28 426 395.98 426 393.98 C 426 393.5 422.95 393.37 419.23 393.68 C 413.5 394.16 412.23 393.98 410.98 392.46 C 409.83 391.08 409.78 390.58 410.77 390.25 C 411.47 390.01 412.76 389.1 413.64 388.22 C 414.52 387.33 417.33 386.3 419.87 385.92 C 422.42 385.55 425.92 384.91 427.65 384.51 C 430.33 383.9 430.9 384.11 431.48 385.94 C 432.66 389.66 429.15 397.13 424.29 401.25 C 419.31 405.47 414.85 406.11 409.35 403.4 Z M 328.82 398.2 C 331.35 398.55 331.78 398.99 331.45 399.84 C 331.44 399.85 331.44 399.87 331.43 399.89 C 331.06 400.78 330.45 402.85 330.09 404.5 L 329.42 407.5 L 321.46 407.68 C 321.07 407.69 320.67 407.69 320.26 407.69 C 316.68 407.69 312.84 407.34 309.58 406.73 C 306.01 405.62 303.72 403.96 306.05 404.07 C 306.85 404.11 308.34 404.47 309.37 404.87 C 310.4 405.28 314.67 405.05 318.87 404.36 C 323.07 403.67 327.06 403.08 327.75 403.05 C 328.44 403.02 329 402.61 329 402.14 C 329 401.66 326.19 400.98 322.75 400.61 C 319.31 400.24 314.02 399.05 311 397.96 C 306.7 396.42 306.27 396.09 309 396.48 C 310.49 396.69 314.41 397.05 318.6 397.37 C 320.12 397.54 321.54 397.67 322.8 397.74 C 325.53 397.9 327.47 398.04 328.82 398.2 Z M 337.56 409.78 C 334.02 404.73 336.81 399 342.79 399 C 348.01 399 349.69 404.58 345.93 409.37 C 343.38 412.61 339.67 412.79 337.56 409.78 Z M 280.37 428.56 C 280.29 427.76 281.04 427.95 283.07 429.04 C 284.57 429.84 285 429.74 285 428.59 C 285 427.78 286.02 425.93 287.27 424.48 L 289.53 421.84 L 292.32 424.42 C 293.85 425.84 295.32 427 295.59 427 C 295.6 427 295.61 427 295.62 427 C 295.71 428.13 295.36 429.32 294.56 430.55 C 292.55 433.62 291.45 433.61 285.52 430.46 C 282.27 428.73 280.48 428.14 280.37 428.56 Z M 291.28 421.85 C 289.65 420.79 288.03 418.75 287.03 416.9 C 288.02 418.65 289.6 420.61 291.28 421.85 Z M 292.87 422.9 C 293.79 423.55 294.48 424.25 294.95 425.01 C 294.38 424.29 293.63 423.51 292.87 422.9 Z" fill="rgb(238,123,49)" style=""/>
    <path d="M 337.15 260.09 C 334.574 259.217 328.525 256.929 326.809 254.322 C 323.983 250.027 324.12 247.79 324.01 241.41 L 324.01 241.15 C 324.01 240.84 324.01 240.55 324.01 240.27 C 324.01 239.6 324.01 239.01 324.03 238.5 C 324.09 237.09 324.28 236.17 324.84 235.64 C 325.31 235.19 326.393 234.946 327.543 235.006 C 329.233 235.216 331.67 235.83 334.63 236.48 C 334.9 236.54 335.18 236.6 335.47 236.67 C 336.04 236.79 336.64 236.93 337.26 237.07 L 337.33 237.08 C 342.22 238.22 353.25 239.972 357.24 240.182 C 362.88 240.472 367.6 241.62 371.05 241.05 C 374.95 240.57 379.48 239.33 387.5 237.02 C 391.35 235.91 394.61 235 394.75 235 C 396.5 235 392.07 256.93 389.87 259.13 C 387.31 261.69 382.87 261.48 377 258.5 C 374.29 257.12 371.33 256 370.43 256 C 369.53 256 364.77 257.35 359.84 259 C 354.03 260.95 350.306 262.157 346.416 262.127 C 343.576 262.077 340.334 261.169 337.15 260.09 Z M 291.28 421.85 C 291.54 422.05 291.81 422.23 292.07 422.39 C 292.36 422.55 292.62 422.72 292.87 422.9 C 293.63 423.51 294.38 424.29 294.95 425.01 C 295.33 425.64 295.56 426.31 295.62 427 C 295.61 427 295.6 427 295.59 427 C 295.32 427 293.85 425.84 292.32 424.42 L 289.53 421.84 L 287.27 424.48 C 286.02 425.93 285 427.78 285 428.59 C 285 429.74 284.57 429.84 283.07 429.04 C 281.04 427.95 280.29 427.76 280.37 428.56 C 280.36 428.61 280.37 428.67 280.4 428.74 C 280.44 428.95 280.53 429.21 280.64 429.51 C 281.04 430.55 280.76 430.85 279.76 430.46 C 278.95 430.15 275.86 430.82 272.9 431.95 C 269.93 433.08 267.49 434 267.47 434 C 267.46 434 266.4 433.27 265.12 432.37 C 263.84 431.48 262.23 429.41 261.55 427.78 C 260.35 424.92 260.43 423.84 262.55 414 L 263.31 410.5 L 260.97 412.5 C 258.98 414.2 259.05 413.93 261.48 410.69 C 262.6 409.19 263.73 407.97 264.98 406.97 C 267.67 405.08 270.95 403.77 274.81 403.04 C 284.35 401.23 292.8 405.04 296.17 412.66 C 299.12 419.32 297.55 420.78 292.09 416.46 C 289.69 414.56 287.33 413 286.86 413 C 285.51 413 285.85 414.81 287.03 416.9 C 288.03 418.75 289.65 420.79 291.28 421.85 Z M 385.1 255.37 C 385.85 254.48 386.45 252.07 386.45 250.01 C 386.45 246.98 386.98 245.98 389.23 244.68 C 392.52 242.79 392.92 240 389.9 240 C 387.06 240 371 247.59 371 248.94 C 371 249.52 372.35 250 374 250 C 376.14 250 377 250.48 377 251.67 C 377 253.92 379.91 257 382.03 257 C 382.98 257 384.36 256.27 385.1 255.37 Z" fill="rgb(248,174,100)" style=""/>
    <path d="M 269.81 568.58 C 271.79 567.89 274.27 566.18 275.32 564.77 C 277.1 562.38 277.16 561.52 276.08 552.27 C 275.92 550.86 275.78 549.66 275.67 548.6 C 275.75 549.31 275.84 550.09 275.95 550.95 C 276.52 555.65 277 559.95 277.01 560.5 C 277.02 561.05 277.37 560.96 277.79 560.3 C 278.34 559.44 288.69 558.81 314.53 558.05 C 334.31 557.48 353.09 557 356.25 557 L 362 557 L 362 553.75 C 362 553.29 362.04 552.62 362.13 551.8 C 361.78 556.34 362.5 558.59 364.37 560.46 C 367.67 563.76 371.69 564.66 391.88 566.61 C 406.38 568.01 410.73 568.1 416.46 567.12 C 425.25 565.62 427 564.11 427 558 C 427 555.23 426.99 553.83 425.34 552.16 C 426.97 553.72 427.3 555.02 427.66 557.27 C 428.17 560.44 428.85 561.4 431.14 562.2 C 435.28 563.64 434.68 564.72 428.75 566.49 C 420.25 569.03 397.59 570.99 365 572.01 C 317.15 573.5 265.86 572.77 247.22 570.46 C 254.62 570.7 266.07 569.87 269.81 568.58 Z M 239.64 569.27 C 237.5 568.99 235.53 568.82 234.5 568.86 C 230.68 569.01 221 566.24 221 565.01 C 221 563.63 224.49 562 227.43 562 C 229.03 562 230 561.44 230 560.52 C 230 559.05 234.3 550.62 237.39 545.92 C 237.08 546.43 236.77 546.95 236.43 547.5 C 231.68 555.25 230.48 558.8 231.39 562.43 C 232.06 565.09 235.43 567.8 239.64 569.27 Z M 259.53 442.9 C 254.89 438.83 251.77 433.64 250.61 427.94 C 251.75 433.37 255.03 438.77 259.53 442.9 Z M 241.66 537.38 C 242.62 534.56 243.57 531.08 244.57 526.71 C 243.5 531.46 242.68 534.63 241.66 537.38 Z M 268.04 448.53 C 268.99 449.02 269.67 449.4 269.76 449.47 C 269.77 449.48 269.78 449.51 269.77 449.55 C 269.77 449.54 269.77 449.53 269.76 449.52 C 269.69 449.47 269.03 449.09 268.04 448.53 Z M 275.79 540.74 C 276.17 539.23 276.84 537.56 277.86 535.01 C 276.84 537.55 276.18 539.24 275.79 540.74 Z M 249.19 422.03 C 248.63 420.56 247.94 419.2 247.25 418.28 C 247.95 419.21 248.64 420.56 249.19 422.03 Z" fill="rgb(209,204,188)"/>
    <path d="M 269.81 568.58 C 265.03 570.23 247.61 571.13 242.22 569.99 C 236.86 568.87 232.19 565.61 231.39 562.43 C 230.48 558.8 231.68 555.25 236.43 547.5 C 241.37 539.44 242.35 536.83 245.06 524.5 C 246.75 516.81 246.86 514.81 245.83 510.76 C 244.22 504.41 246.2 498.17 253.59 486.4 C 256.65 481.52 260.42 473.92 261.96 469.51 C 263.5 465.11 265.94 458.84 267.39 455.6 C 268.84 452.35 269.91 449.59 269.76 449.47 C 269.62 449.35 268.04 448.51 266.26 447.61 C 257.9 443.36 251.47 434.8 250.35 426.42 C 249.97 423.6 248.64 420.13 247.25 418.28 C 243.83 413.77 234.48 392.5 233 385.88 C 232.32 382.84 231.95 377.02 232.17 372.93 C 232.57 365.85 232.98 364.77 240.92 350 C 251.29 330.7 260.64 316.41 267.35 309.64 C 271.44 305.51 276 302.68 289.42 295.92 C 298.73 291.23 306.75 286.75 307.24 285.95 C 307.86 284.94 306.76 282.1 303.58 276.55 C 299.08 268.69 295.06 258.08 293 248.61 C 291.31 240.9 291.66 220.44 293.58 214 C 299.23 195.08 310.98 183.44 329.04 178.87 C 340.67 175.93 358.14 176.58 368.38 180.33 C 381.84 185.26 392.7 195.35 397.1 207 C 402.14 220.39 403.27 238.56 399.97 253.5 C 395.62 273.21 390.16 285.13 381.34 294.13 L 376.81 298.76 L 381.52 301.12 C 384.11 302.41 388.42 305.87 391.11 308.81 C 396.64 314.86 398.99 321.17 399.92 332.46 L 400.5 339.42 L 418.99 343.32 L 423.75 339.32 C 434.63 330.18 449.13 318.8 449.48 319.14 C 449.68 319.35 448.98 324.01 447.93 329.51 C 446.87 335 445.52 342.2 444.93 345.5 C 444.34 348.8 443.67 352.46 443.44 353.63 C 443.14 355.17 445.06 358.21 450.26 364.41 L 457.5 373.05 L 459.78 382 L 454.14 382.01 C 451.04 382.01 446.14 382.3 443.25 382.65 C 438.01 383.28 438 383.28 437.99 386.89 C 437.98 391.13 435.61 399.42 433.5 402.64 C 429.91 408.12 418.06 412.48 411.05 410.9 C 408.51 410.33 406.1 410.39 404.3 411.08 C 402.16 411.89 399.49 411.72 393 410.37 C 385.12 408.72 384.16 408.25 379.81 403.8 C 377.24 401.16 374.9 399 374.63 399 C 374.35 399 373.83 400.97 373.47 403.37 C 372.61 409.11 375.16 414.24 389.97 436.5 C 396.19 445.85 403.28 457.33 405.71 462 L 410.14 470.5 L 409.69 487.5 C 409.21 505.6 408.33 510.27 404.56 514.75 C 403.05 516.55 401.54 520.58 400.4 525.91 L 398.6 534.26 L 401.31 536.59 C 402.8 537.87 408.4 541.49 413.76 544.65 C 426.96 552.41 427 552.45 427 558 C 427 564.11 425.25 565.62 416.46 567.12 C 410.73 568.1 406.38 568.01 391.88 566.61 C 371.69 564.66 367.67 563.76 364.37 560.46 C 361.53 557.62 361.35 553.91 363.5 542.66 C 364.33 538.35 365 530.6 365 525.45 C 365 517.22 364.76 515.94 363.08 515.04 C 359.75 513.26 358.75 507.89 359.47 495.7 L 360.13 484.5 L 347.71 472.25 C 340.53 465.16 334.5 460.01 333.4 460.01 C 329.08 460.04 327.11 461.39 324.59 466 C 320.99 472.63 310.66 488.27 305.22 495.36 C 302.74 498.58 299.37 504.43 297.72 508.36 C 293.54 518.35 289.82 523.39 284.96 525.68 C 281.29 527.41 280.5 528.43 277.88 534.97 C 274.93 542.3 274.93 542.35 276.08 552.27 C 277.16 561.52 277.1 562.38 275.32 564.77 C 274.27 566.18 271.79 567.89 269.81 568.58 Z M 241.61 391.95 C 243.18 396.38 244.7 400 244.98 400 C 245.27 400 247.18 398.21 249.23 396.04 C 254.21 390.74 258.2 388.83 265.53 388.25 L 271.66 387.75 L 270.48 380.87 C 269.81 376.95 268.48 373.07 267.4 371.85 C 264.77 368.91 259.86 367.01 254.78 366.97 C 250.72 366.94 250.6 366.86 252.5 365.38 C 253.97 364.24 255.91 363.97 259.77 364.34 L 265.04 364.86 L 262.77 362 C 261.52 360.43 259.83 358.91 259 358.61 C 258.17 358.31 258.62 358.24 260 358.45 C 265.29 359.26 270.19 361.8 272.3 364.82 C 273.51 366.55 275.05 367.97 275.73 367.98 C 277.79 368.01 287.41 355.5 291.47 347.49 C 295.73 339.1 297.57 338.8 297.4 346.53 C 297.33 349.82 296.31 352.57 293.45 357.21 C 289.01 364.41 288.09 370.88 290.23 379.93 C 291.34 384.61 291.91 385.47 294.4 386.13 C 298.68 387.28 302.13 385.01 315.91 372 C 328.92 359.72 342 344.87 342 342.38 C 342 338.94 332.08 325.09 321.82 314.22 C 318.04 310.22 313.74 304.48 312.27 301.47 C 309.33 295.48 307.56 294.77 302.33 297.45 C 300.77 298.25 294.33 301.4 288 304.45 C 277.09 309.72 272.76 312.63 270.5 316.23 C 269.95 317.11 267.43 320.68 264.89 324.16 C 258.26 333.29 243.72 358.47 241.03 365.5 C 237.8 373.92 237.98 381.74 241.61 391.95 Z M 345.65 295.93 C 351.68 298.38 361.8 298.23 367.22 295.6 C 375.67 291.51 386.07 278.31 388.38 268.75 C 389.02 266.09 388.91 266 384.89 266 C 382.55 266 378.15 264.83 374.77 263.32 L 368.79 260.63 L 359.35 263.95 C 351.23 266.8 349.01 267.19 343.45 266.75 C 335.46 266.11 327.17 262.25 323.05 257.25 C 318.12 251.27 316.55 237.44 320.06 230.89 C 321.14 228.86 321.73 228.76 328.86 229.33 C 333.06 229.66 340.77 230.92 346 232.12 C 359.96 235.33 372.9 235.19 384.45 231.71 C 389.37 230.22 393.77 228.63 394.24 228.16 C 395.53 226.87 392.15 212.19 389.17 206.09 C 381.79 191.01 362.55 181.74 341.97 183.32 C 318.14 185.16 305.58 200.85 312.41 220.27 C 313.85 224.36 313.92 225.9 312.9 231.09 C 311.1 240.23 312.34 253.07 315.96 262.88 C 319.97 273.77 320.98 275.54 327.02 282.27 C 332.96 288.89 338.73 293.12 345.65 295.93 Z M 383.08 396.44 L 386.24 400.03 L 388.12 397.86 C 389.15 396.67 390.02 394.98 390.03 394.1 C 390.05 393.22 392.49 386.65 395.45 379.5 L 400.83 366.5 L 398.27 366.17 C 394.31 365.66 387.41 368.77 384.08 372.56 C 382.42 374.45 380.87 376 380.64 376 C 380.01 376 381.56 369.89 382.93 366.98 C 384.49 363.65 389.87 360.06 394.37 359.33 C 398.53 358.65 398.79 357.68 395.94 353.5 C 393.9 350.5 389 341.43 389 340.65 C 389 340.42 389.96 339.98 391.12 339.68 C 393.14 339.15 393.21 338.73 392.52 331.31 C 391.17 316.67 385.69 309 373.82 305.1 C 369.08 303.54 366.4 305.06 365.51 309.81 C 365.16 311.69 361.53 319.81 357.46 327.86 C 348.51 345.55 341.31 354.91 321.31 374.87 C 313.39 382.78 307.04 389.37 307.2 389.52 C 307.37 389.67 310.74 390.29 314.69 390.9 C 328.11 392.96 351.79 392.01 363.12 388.97 L 366.74 387.99 L 369.45 377.25 C 370.95 371.34 372.56 364.92 373.04 363 C 373.52 361.08 374.82 356.12 375.93 352 C 377.03 347.88 378.47 340.1 379.13 334.72 C 379.88 328.55 380.72 325.07 381.41 325.3 C 383.21 325.89 385.03 338.9 384.36 346.5 C 384.03 350.35 382.75 356.65 381.53 360.5 C 380.31 364.35 378.28 371.43 377.01 376.23 L 374.71 384.96 L 377.32 388.9 C 378.75 391.07 381.35 394.47 383.08 396.44 Z M 264.5 518.78 C 268.66 520.25 278.99 520.22 282 518.74 C 283.71 517.89 286.24 514.01 290 506.44 C 293.02 500.36 297.18 493.16 299.23 490.44 C 305.84 481.69 312.66 471.61 314.76 467.48 C 318.34 460.44 318.22 460.12 311 457.69 L 304.5 455.5 L 304.73 450.12 C 304.99 443.95 308.48 436.9 318.1 423.12 C 321.34 418.47 323.87 414.54 323.72 414.39 C 323.57 414.24 319.86 413.64 315.48 413.04 C 311.09 412.45 306.38 411.72 305 411.42 L 304.99 411.41 C 304.33 411.27 303.83 411.16 303.45 411.32 C 302.29 411.83 302.25 414.93 302.11 427.58 C 302.04 433.41 295.69 441.08 288.53 443.99 C 279.35 447.71 275.67 452.75 267.95 472.12 C 265.69 477.81 261.4 486.47 258.43 491.37 C 252.69 500.85 251.16 505.72 252.62 509.87 C 253.58 512.59 259.47 517.01 264.5 518.78 Z M 372.77 511.41 C 382.08 514.27 393.74 513.14 399.24 508.86 C 401.63 506.99 402.83 499.62 403.12 484.95 L 403.37 472.5 L 399.59 465 C 395.54 456.96 390.71 449.38 379.54 433.5 C 375.67 428 371.4 421.02 370.05 418 C 368.16 413.75 367.42 412.01 366.16 411.46 C 365.3 411.09 364.2 411.26 362.32 411.56 L 362.07 411.6 C 357.98 412.26 357.83 412.41 358.28 415.39 C 358.54 417.1 360.38 424.73 362.37 432.35 C 364.37 439.97 366 447.26 366 448.55 C 366 452.66 354.99 458.97 347.73 459.02 C 344.56 459.05 344.68 459.23 354.98 469.27 C 360.75 474.9 367.63 481.96 370.29 484.97 C 374.46 489.7 374.87 490.52 373.3 491.09 C 372.31 491.45 370.67 491.32 369.66 490.79 C 368.65 490.27 367.61 490.06 367.34 490.32 C 367.08 490.59 366.61 494.14 366.3 498.22 C 365.6 507.51 366.57 509.5 372.77 511.41 Z M 337.15 260.09 C 344.66 262.68 349.55 262.45 359.84 259 C 364.77 257.35 369.53 256 370.43 256 C 371.33 256 374.29 257.12 377 258.5 C 382.87 261.48 387.31 261.69 389.87 259.13 C 392.07 256.93 396.5 235 394.75 235 C 394.61 235 391.35 235.91 387.5 237.02 C 371.04 241.77 369.27 241.97 357.47 240.5 C 351.44 239.75 342.34 238.21 337.26 237.07 C 336.64 236.93 336.04 236.79 335.47 236.67 C 328.82 235.17 326.01 234.54 324.84 235.64 C 323.98 236.44 323.99 238.17 324.01 241.15 C 324.01 241.5 324.01 241.87 324.01 242.25 C 324.04 253.03 326.53 256.42 337.15 260.09 Z M 398 389.47 C 398 390.31 398.42 391 398.92 391 C 399.82 391 406.49 386.19 412.39 381.29 C 414.14 379.84 415.65 379.25 416.2 379.8 C 416.72 380.32 418.9 380.36 421.31 379.9 C 423.61 379.45 425.85 379.07 426.27 379.04 C 426.7 379.02 427.47 377.88 427.99 376.51 C 428.83 374.33 429.26 374.15 431.54 375.01 C 432.96 375.56 438.26 375.98 443.32 375.95 C 451.96 375.9 452.37 375.8 450.25 374.33 C 449.01 373.46 448 372.32 448 371.78 C 448 371.25 445.46 367.91 442.35 364.37 L 436.7 357.93 L 439.17 344.97 C 441.42 333.17 441.46 329.61 439.3 333.41 C 438.86 334.18 434.58 338.02 429.78 341.95 L 421.06 349.09 L 412.92 347.54 C 403.42 345.74 399 345.58 399 347.05 C 399 347.62 401.25 351.42 404 355.5 C 406.75 359.58 409 363.13 409 363.4 C 409 363.67 406.52 369.3 403.5 375.91 C 400.48 382.52 398 388.62 398 389.47 Z M 268.5 441.6 C 271.74 443.03 275.29 443.38 276.3 442.37 C 276.65 442.02 276.46 440.86 275.88 439.78 C 274.37 436.96 275.22 436.7 279.88 438.57 C 283.69 440.09 284.21 440.1 286.47 438.61 C 289.52 436.61 289.02 435.27 283.85 431.69 C 278.51 427.98 279.5 427.26 285.52 430.46 C 291.45 433.61 292.55 433.62 294.56 430.55 C 296.6 427.44 295.71 424.53 292.07 422.39 C 288.11 420.04 284.2 413 286.86 413 C 287.33 413 289.69 414.56 292.09 416.46 C 297.55 420.78 299.12 419.32 296.17 412.66 C 292.8 405.04 284.35 401.23 274.81 403.04 C 264.32 405.03 258.09 411.36 256.43 421.7 C 255.35 428.45 261.43 438.47 268.5 441.6 Z M 244.1 562.15 C 249.74 562.98 264.93 562.09 267.38 560.79 C 269.01 559.92 269.19 558.94 268.74 553.29 C 268.45 549.71 267.6 546.22 266.86 545.52 C 264.72 543.53 256.4 541.91 251.97 542.62 C 247.64 543.31 243.18 547.54 239.43 554.5 C 236.93 559.15 238.23 561.28 244.1 562.15 Z M 314.5 453.56 C 322.03 455.88 322.3 455.73 324.97 447.75 C 326.3 443.76 328.93 436.67 330.81 432 C 336.12 418.8 336.41 417.36 334.22 415.01 C 332.35 413 332.35 413 330.3 415.25 C 324.28 421.85 309.61 447.75 310.19 450.75 C 310.36 451.61 312.3 452.88 314.5 453.56 Z M 402.32 559.3 C 407.87 560.38 416.7 559.94 418.56 558.48 C 420.48 556.99 420.48 556.95 418.5 555.42 C 417.4 554.57 411.1 550.51 404.5 546.42 C 393.97 539.88 392.07 539.03 389 539.52 C 379.03 541.11 377.22 544.85 384.64 548.54 C 386.92 549.67 390.38 551.81 392.32 553.3 C 394.27 554.78 396.29 556 396.81 556 C 397.33 556 398.29 556.65 398.95 557.44 C 399.61 558.23 401.13 559.07 402.32 559.3 Z M 307 406.15 C 310.98 407.2 316.58 407.79 321.46 407.68 L 329.42 407.5 L 330.09 404.5 C 330.45 402.85 331.06 400.78 331.43 399.89 C 332.02 398.49 330.86 398.21 322.8 397.74 C 315.07 397.29 301.65 394.82 293.69 392.38 C 292.1 391.9 291.92 392.37 292.19 396.16 C 292.47 400.11 292.86 400.68 296.5 402.47 C 298.7 403.55 303.42 405.21 307 406.15 Z M 347.67 452.33 C 350 454.67 360 451.19 360 448.04 C 360 443.71 353.19 416.83 351.29 413.68 C 351.02 413.24 349.95 413.64 348.9 414.59 C 347.17 416.16 347 417.89 347 433.99 C 347 443.71 347.3 451.97 347.67 452.33 Z M 409.35 403.4 C 414.85 406.11 419.31 405.47 424.29 401.25 C 429.15 397.13 432.66 389.66 431.48 385.94 C 430.9 384.11 430.33 383.9 427.65 384.51 C 425.92 384.91 422.42 385.55 419.87 385.92 C 417.33 386.3 414.52 387.33 413.64 388.22 C 412.76 389.1 411.47 390.01 410.77 390.25 C 409.78 390.58 409.83 391.08 410.98 392.46 C 412.23 393.98 413.5 394.16 419.23 393.68 C 422.95 393.37 426 393.5 426 393.98 C 426 395.98 416.98 398.28 411.15 397.75 C 405.48 397.23 405.33 397.28 405.76 399.53 C 406.02 400.88 407.53 402.5 409.35 403.4 Z M 348.93 256.25 C 346.31 258.38 346.01 258.39 343.28 256.48 C 341.77 255.43 341.02 253.71 340.81 250.81 C 340.51 246.8 340.34 246.61 335.5 244.99 C 330.12 243.2 328.49 240.61 332.03 239.49 C 334.91 238.58 339.62 239.5 351.25 243.27 C 358.72 245.69 361 246.84 361 248.19 C 361 250.23 357.17 251.51 353.71 250.64 C 351.87 250.18 351.39 250.5 351.26 252.28 C 351.16 253.5 350.12 255.29 348.93 256.25 Z M 339.25 326.46 C 342.69 331.15 345.82 334.99 346.2 334.99 C 347.6 335.01 355.35 320.51 357.08 314.65 C 357.87 311.96 357.65 312.05 352.92 316.47 C 348.46 320.65 347.59 321.07 344.72 320.44 C 342.95 320.06 340.25 318.69 338.72 317.41 C 336.15 315.25 333 315.07 333 317.08 C 333 317.55 335.81 321.77 339.25 326.46 Z M 428.34 370.75 C 421.08 377.42 413.56 368.16 418.99 359.25 C 421.36 355.35 425.72 354.85 429.73 358 C 431.13 359.1 431.89 360 431.43 360 C 430.98 360 431.1 360.5 431.71 361.11 C 433.27 362.67 431.43 367.91 428.34 370.75 Z M 330.01 450.86 C 330 451.76 330.59 451.97 331.75 451.5 C 332.71 451.11 334.99 450.35 336.81 449.83 C 338.62 449.3 340.29 448.34 340.5 447.69 C 341.2 445.56 341.52 421.08 340.84 421.8 C 339.45 423.26 330.04 448.53 330.01 450.86 Z M 385.1 255.37 C 384.36 256.27 382.98 257 382.03 257 C 379.91 257 377 253.92 377 251.67 C 377 250.48 376.14 250 374 250 C 372.35 250 371 249.52 371 248.94 C 371 247.59 387.06 240 389.9 240 C 392.92 240 392.52 242.79 389.23 244.68 C 386.98 245.98 386.45 246.98 386.45 250.01 C 386.45 252.07 385.85 254.48 385.1 255.37 Z M 352.75 402.84 L 353.27 408.17 L 356.85 407.5 C 363.4 406.27 365.75 404.43 366.51 399.95 C 366.89 397.71 366.94 395.6 366.62 395.28 C 366.08 394.75 353.13 396.51 352.49 397.2 C 352.34 397.36 352.46 399.9 352.75 402.84 Z M 337.56 409.78 C 339.67 412.79 343.38 412.61 345.93 409.37 C 349.69 404.58 348.01 399 342.79 399 C 336.81 399 334.02 404.73 337.56 409.78 Z M 253 405.62 C 253 405.79 253.68 405.68 254.5 405.36 C 255.32 405.05 256 404.38 256 403.89 C 256 403.4 256.73 403 257.63 403 C 258.89 403 270.95 397.73 272.89 396.33 C 273.11 396.18 272.72 395.36 272.02 394.52 C 269.52 391.51 260.8 392.88 256.93 396.9 C 255.68 398.2 253 404.14 253 405.62 Z M 280.51 393.67 C 282.84 399.26 284.53 397.4 284.33 389.44 C 284.24 385.67 283.87 380.61 283.51 378.2 C 282.89 374.05 282.71 373.86 280.18 374.49 C 278.71 374.86 277.35 375.32 277.16 375.5 C 276.49 376.18 279.08 390.25 280.51 393.67 Z M 422.04 367.54 C 424.67 370.72 428 368.34 428 363.27 C 428 358.42 423.36 357.42 422.65 362.12 C 422.54 362.88 422.08 364.08 421.64 364.79 C 421.18 365.53 421.35 366.72 422.04 367.54 Z M 394.5 403.33 C 399.31 404.39 400.06 404.1 399.56 401.38 C 399.3 399.93 398.91 398.58 398.69 398.36 C 398.48 398.14 396.33 398.85 393.92 399.93 C 389.62 401.85 389.69 402.26 394.5 403.33 Z" fill="rgb(23,11,8)" style=""/>
  </g>
</svg>