<?xml version="1.0" encoding="utf-8"?>
<svg xmlns="http://www.w3.org/2000/svg" viewBox="576.542 188.218 269.954 429.908">
  <g transform="matrix(1, 0, 0, 1, 132.661377, 33.425785)">
    <path d="M 596.5 280.14 C 589.24 277.64 580.83 271.9 573.46 264.42 C 561.46 252.25 555.66 241.38 553.51 227.04 C 552.76 222.05 551.61 216.34 550.95 214.35 C 549.09 208.7 550.16 195.24 552.89 189.92 C 556.83 182.27 564.28 175.63 573.27 171.57 C 569.54 173.34 566.92 175.32 567.73 176.13 C 568.24 176.64 572.98 176.29 578.89 175.32 C 591.34 173.28 600.96 174.4 610.54 179.01 C 620.69 183.9 630 195.75 630 203.78 C 630 206.17 630.3 206.29 633.75 205.37 C 635.72 204.84 636 204.12 635.98 199.63 C 635.97 196.76 635.36 193.89 634.23 191.12 C 636.1 195.13 637.3 199.53 637.74 204.24 L 638.28 209.98 L 632.89 212.42 C 629.92 213.77 624.01 215.57 619.75 216.44 C 612.08 218 611.87 217.99 596.75 214.97 C 574.21 210.46 571.43 210.06 568.33 210.88 C 561.7 212.64 561.15 229.28 567.49 236.8 C 568.81 238.37 573.55 241.54 578.02 243.83 C 588.39 249.14 592.12 249.24 603.57 244.5 C 608.22 242.57 612.9 241 613.98 241 C 615.05 241 618.08 242.38 620.72 244.06 C 624.8 246.67 626.12 247.03 629.75 246.5 C 632.09 246.16 634 246.07 634 246.31 C 634 247.94 629.7 259.66 627.52 263.96 C 622.6 273.66 611.61 282.13 604.17 281.93 C 602.7 281.89 599.25 281.09 596.5 280.14 Z M 499.87 517.1 C 493.98 514.79 488.29 510.47 486.44 506.89 C 483.19 500.59 485.31 493.45 493.06 484.66 C 496.84 480.38 497.44 480.03 498.32 481.6 C 499.43 483.59 500.17 481.65 504.08 466.5 C 506.56 456.87 508.25 454 511.42 454 C 513.36 454 518.93 451.48 523.24 448.92 C 522.44 449.43 521.56 449.95 520.61 450.48 C 517.16 452.41 514.24 454.55 514.13 455.24 C 514.03 455.93 513.67 460.28 513.36 464.9 C 512.65 475.15 513.96 480.37 517.79 482.45 C 521.55 484.49 523.72 484.34 529.54 481.64 C 539.31 477.09 552.22 462.36 560.42 446.42 C 562.94 441.51 562.98 441.19 561.51 437.01 C 560.67 434.63 560.15 432.52 560.36 432.31 C 560.56 432.1 562.71 432.37 565.12 432.9 C 577.45 435.61 593.08 435.05 605.43 431.44 C 608.14 430.65 611.29 430.02 612.43 430.04 C 614.28 430.07 614.18 430.33 611.5 432.53 C 609.85 433.88 607.95 434.99 607.29 435 C 606.62 435 605.59 435.9 604.99 437.01 C 604.11 438.66 604.49 439.87 607.13 443.76 C 611.16 449.7 625.45 463.94 633.93 470.46 C 639.67 474.86 641.02 475.45 646.36 475.83 C 653.22 476.33 658.02 474.49 658.86 471.19 C 658.96 472.85 658.95 474.82 658.94 477.5 C 658.91 483 658.3 490.85 657.56 494.95 C 656.41 501.37 655.74 502.85 652.7 505.64 C 644.07 513.55 625.05 514.2 617.69 506.84 C 614.81 503.97 614.74 503.65 615.28 496.69 C 615.58 492.73 616.3 488.29 616.87 486.8 C 617.88 484.17 617.98 484.14 620.97 485.63 C 625.48 487.88 626.62 486.89 623.61 483.32 C 620.56 479.69 620.38 478.45 622.68 477.16 C 624.07 476.38 623.4 475.73 618.93 473.48 C 608.36 468.16 584.28 448.97 585.57 446.89 C 585.89 446.37 588.76 444.64 591.96 443.02 C 595.15 441.41 598.38 439.5 599.13 438.78 C 599.89 438.06 601.85 436.86 603.5 436.11 C 609.53 433.35 603.75 433.92 594.25 437.01 C 578.5 442.15 571.49 443.94 569.37 443.39 C 567.71 442.95 566.76 444.1 563.75 450.18 C 558.11 461.59 536.48 490.01 530.05 494.46 C 524.15 498.55 524.32 498.63 534.25 496.49 C 535.7 496.18 535.9 496.59 535.37 498.81 C 535.02 500.29 533.62 503.9 532.25 506.83 C 530.32 511 528.61 512.92 524.44 515.58 C 519.58 518.69 518.44 519 511.8 518.95 C 507.23 518.92 502.77 518.23 499.87 517.1 Z M 556.75 383.27 C 554.69 383.06 553 382.52 553 382.08 C 553 381.63 554.78 380.04 556.95 378.53 C 561.55 375.35 573.11 363.48 580.16 354.95 C 578.57 356.95 576.86 359.06 575.32 360.9 C 571.86 365.04 569.36 368.75 569.77 369.14 C 570.17 369.53 571.85 370.04 573.5 370.27 C 579.87 371.18 580.43 370.97 585.17 365.92 C 589.75 361.04 591.91 357.87 597.38 348 C 598.75 345.52 601.08 342.15 602.55 340.5 L 605.23 337.5 L 604.56 340.62 L 603.9 343.75 L 608.2 342.79 C 614.5 341.38 625.93 335.55 630.31 331.51 C 632.4 329.58 634.48 328 634.94 328 C 635.3 328 635.61 327.7 635.87 327.16 C 635.66 328.21 635.42 329.23 635.15 330.22 C 632.96 338.13 630.96 341.45 626.89 343.92 C 624.06 345.64 624.01 345.77 626.04 346.3 C 628.56 346.96 628.46 347.49 623.29 360 C 621.36 364.67 618.86 370.86 617.75 373.74 C 615.42 379.78 614.76 380.08 599 382.52 C 590.27 383.87 566.5 384.29 556.75 383.27 Z M 538.67 379.42 C 535.46 378.65 532.16 377.63 531.32 377.16 C 530.49 376.69 528.34 372.98 526.56 368.9 C 524.78 364.83 522.39 359.99 521.26 358.15 L 519.2 354.8 L 522.21 347.65 C 523.86 343.72 525.54 339.64 525.92 338.58 C 526.57 336.83 526.95 336.96 530.56 340.2 C 536.25 345.3 540.07 346.95 547.46 347.5 C 554.57 348.02 555.87 347 550.75 344.92 C 546.08 343.02 537.9 337.65 535.12 334.66 L 532.75 332.1 L 535.91 327.32 C 538.58 323.29 540.3 319.25 541.18 314.7 C 540.87 317.3 540.32 319.06 539.34 321.17 L 537.18 325.85 L 540.01 329.69 C 543.33 334.21 548.62 337.4 556.11 339.42 C 561.83 340.96 571.26 341.26 579.47 340.16 C 584.18 339.53 584.66 339.18 588.76 333.29 L 588.95 333.02 L 586.57 336.5 C 583.7 340.71 580.9 344.66 578.26 348.25 C 578.75 347.46 578.95 347 578.74 347 C 578.53 347 576.14 347.64 573.43 348.42 C 561.78 351.78 557.51 352.19 551.22 350.56 C 547.93 349.71 543.95 348.33 542.37 347.51 C 538.22 345.34 537.7 345.6 538.43 349.46 C 540.21 358.98 546.37 366.63 554.04 368.83 L 554.09 368.84 C 556.17 369.44 557.44 369.8 558.61 369.6 C 559.13 369.51 559.64 369.3 560.19 368.95 C 553.82 374.62 545.93 381 545.24 380.92 C 544.83 380.87 541.88 380.2 538.67 379.42 Z M 621.23 408.58 C 620.79 408.1 620.47 407.79 620.3 407.69 C 619.84 407.4 616.77 408.99 613.48 411.22 C 604.16 417.54 597.81 421.15 597.16 420.49 C 596.83 420.16 597 419.58 597.54 419.2 C 598.08 418.81 600.48 416.14 602.86 413.25 L 607.19 408 L 600.84 408.01 C 597.34 408.02 591.66 408.92 588.16 410.01 C 580.81 412.32 567.38 412.67 557.37 410.83 C 551.12 409.68 548.13 410.23 551.03 412.01 C 555.71 414.88 563.22 421.12 562.67 421.67 C 562.44 421.9 559.83 421.17 556.87 420.04 C 550.81 417.74 544.24 417.42 539.32 419.2 C 536.38 420.26 536.01 420.79 536 424.12 C 535.89 419.03 533.37 413.64 528.76 409.23 C 526.02 406.59 525.44 405.36 525.79 402.96 C 526.03 401.32 526.61 399.74 527.08 399.45 C 527.55 399.16 530.99 399.83 534.72 400.93 C 549.21 405.22 558.69 406.4 579 406.44 C 596.23 406.47 599.49 406.21 607 404.19 L 615.5 401.91 L 618.36 405.21 C 619.25 406.22 620.21 407.36 621.23 408.58 Z M 474.19 561.33 C 469.15 560.27 470.18 554.86 476.76 547.83 C 482.23 541.97 485.65 539.99 490.2 540.02 C 494.66 540.05 501.48 543.28 503.46 546.29 C 505.49 549.39 505.97 558.43 504.2 560.2 C 502.89 561.51 479.27 562.41 474.19 561.33 Z M 657 560 C 653.42 559.64 650.89 559.27 651.37 559.17 C 651.85 559.08 651.68 558.33 651 557.5 C 650.32 556.67 650.1 556 650.53 556 C 651.68 556 647.26 552.35 642.34 549.23 C 637.25 546.01 636.67 544.92 638.58 542.18 C 640.06 540.08 645.75 536.77 646.87 537.37 C 652.76 540.54 677.09 555.34 677.5 556 C 678.46 557.55 673.75 559.75 668.5 560.21 C 665.75 560.45 660.58 560.36 657 560 Z M 651 405.33 C 648.26 403.41 645.87 401.23 646.03 400.79 C 646.08 400.63 645.79 399.63 645.38 398.56 C 644.92 397.36 645.09 396.47 645.82 396.23 C 646.47 396.01 647 395.41 647 394.9 C 647 393.17 656.48 383.84 660.19 381.93 C 662.21 380.88 665.35 379.91 667.15 379.76 C 670.27 379.51 670.54 379.78 672.63 385 C 676.23 394.02 676.2 394.15 670.4 395.48 C 664.99 396.72 660.2 399.64 656.04 404.25 C 653.56 407.01 653.45 407.03 651 405.33 Z M 591.35 365.75 L 588.9 369 L 591.2 368.99 C 600.62 368.97 622.72 356.99 624.27 351.07 C 625.1 347.89 623.14 347.19 612.51 346.89 L 602.51 346.6 L 598.16 354.55 C 595.76 358.92 592.7 363.96 591.35 365.75 Z M 595 320.2 C 595 318.64 585.43 305.18 580.25 299.45 C 577.36 296.26 575 293.28 575 292.83 C 575 291.26 578.38 292.01 580.57 294.07 C 582.47 295.85 584.17 296.15 593.13 296.29 C 598.84 296.38 604.56 296.08 605.85 295.63 C 607.98 294.88 608.13 295.02 607.45 297.15 C 605.92 301.98 596.67 321 595.85 321 C 595.38 321 595 320.64 595 320.2 Z M 483.06 401.24 C 481.71 399.18 479.99 396.97 479.23 396.33 C 478.13 395.4 478.08 394.71 479.02 392.96 C 479.93 391.26 479.93 390.93 479 391.5 C 478.08 392.07 478.06 391.75 478.92 390.16 C 480.46 387.27 486.21 385.81 494.5 386.18 L 501.5 386.5 L 501.73 393.75 L 501.96 401 L 499.23 401.02 C 497.73 401.03 494.54 401.93 492.14 403.02 C 486.32 405.66 485.89 405.58 483.06 401.24 Z M 541.24 297.56 C 540.72 294.49 539.79 292.14 537.92 288.41 C 536.02 284.63 533.57 281.08 532.47 280.52 C 531.38 279.96 529.4 278.73 528.08 277.79 C 525.96 276.29 525.85 275.89 527.09 274.37 C 528.66 272.46 543.94 265 546.28 265 C 547.33 265 548.15 266.99 549.03 271.66 L 550.29 278.33 L 558.49 286.32 C 553.88 282.22 549.88 279.15 547.35 278.03 C 542.36 275.83 536.67 275.94 532.85 278.32 C 531.23 279.34 531.24 279.48 532.98 280.7 C 534 281.41 536.33 285.03 538.17 288.75 C 540.06 292.59 540.89 294.48 541.24 297.56 Z M 574.06 301.71 C 583.18 311.13 588.31 317.7 591.37 323.69 C 588.74 318.59 581.81 310.06 574.06 301.71 Z M 627.74 283.89 C 628.56 284.85 629.4 286.16 630.3 287.81 C 632.54 291.92 634.24 296.81 635.35 301.97 C 635.25 301.5 635.14 301.04 635.02 300.59 C 633.25 293.65 630.31 287.08 627.74 283.89 Z M 658.18 466.73 C 656.66 462.25 653.24 454.7 649.72 448 C 651.34 451.05 652.93 454.24 654.17 456.95 C 656.33 461.69 657.52 464.33 658.18 466.73 Z M 619.42 285.28 C 617.46 288.21 615.24 293.09 612.35 300.5 C 615.82 291.61 617.55 287.75 619.42 285.28 Z M 531.78 437.81 C 531.69 438.13 531.61 438.43 531.55 438.7 C 531.14 440.63 530.41 442.29 529.22 443.84 C 530.09 442.42 530.94 440.58 531.43 438.94 C 531.53 438.58 531.65 438.2 531.78 437.81 Z M 563.9 365.56 C 564.55 364.87 565.29 364.09 566.13 363.19 C 567.57 361.65 569.15 359.86 570.68 358.04 C 568.05 361.25 565.75 363.81 563.9 365.56 Z M 579.63 169.23 C 582.27 168.54 586.29 168.16 590.58 168.06 C 586.38 168.16 582.41 168.55 579.63 169.23 Z M 608 169.59 C 612.52 170.93 616.62 172.82 620.23 175.17 C 616.6 172.83 612.47 170.92 608 169.59 Z M 534.12 431.79 C 534.05 431.93 533.98 432.07 533.91 432.22 C 534.09 431.83 534.25 431.47 534.41 431.18 C 534.32 431.39 534.22 431.6 534.12 431.79 Z" fill="rgb(34,67,40)" style=""/>
    <path d="M 621.23 408.58 C 627.5 416.08 635.9 426.84 641.08 433.98 C 642.53 436 643.75 437.73 644.55 438.98 L 644.56 438.99 L 644.57 439 C 645.97 441.17 647.86 444.49 649.72 448 C 653.24 454.7 656.66 462.25 658.18 466.73 C 658.57 468.17 658.76 469.52 658.86 471.19 C 658.02 474.49 653.22 476.33 646.36 475.83 C 641.02 475.45 639.67 474.86 633.93 470.46 C 625.45 463.94 611.16 449.7 607.13 443.76 C 604.49 439.87 604.11 438.66 604.99 437.01 C 605.59 435.9 606.62 435 607.29 435 C 607.95 434.99 609.85 433.88 611.5 432.53 C 614.18 430.33 614.28 430.07 612.43 430.04 C 611.29 430.02 608.14 430.65 605.43 431.44 C 593.08 435.05 577.45 435.61 565.12 432.9 C 562.71 432.37 560.56 432.1 560.36 432.31 C 560.15 432.52 560.67 434.63 561.51 437.01 C 562.98 441.19 562.94 441.51 560.42 446.42 C 552.22 462.36 539.31 477.09 529.54 481.64 C 523.72 484.34 521.55 484.49 517.79 482.45 C 513.96 480.37 512.65 475.15 513.36 464.9 C 513.67 460.28 514.03 455.93 514.13 455.24 C 514.24 454.55 517.16 452.41 520.61 450.48 C 521.56 449.95 522.44 449.43 523.24 448.92 C 525.13 447.8 526.77 446.67 527.77 445.74 C 528.22 445.32 528.72 444.65 529.22 443.84 C 530.41 442.29 531.14 440.63 531.55 438.7 C 531.61 438.43 531.69 438.13 531.78 437.81 C 532.4 435.9 533.22 433.75 533.91 432.22 C 533.98 432.07 534.05 431.93 534.12 431.79 C 534.22 431.6 534.32 431.39 534.41 431.18 C 534.41 431.17 534.41 431.17 534.41 431.17 C 535.54 428.99 536.05 426.59 536 424.12 C 536.01 420.79 536.38 420.26 539.32 419.2 C 544.24 417.42 550.81 417.74 556.87 420.04 C 559.83 421.17 562.44 421.9 562.67 421.67 C 563.22 421.12 555.71 414.88 551.03 412.01 C 548.13 410.23 551.12 409.68 557.37 410.83 C 567.38 412.67 580.81 412.32 588.16 410.01 C 591.66 408.92 597.34 408.02 600.84 408.01 L 607.19 408 L 602.86 413.25 C 600.48 416.14 598.08 418.81 597.54 419.2 C 597 419.58 596.83 420.16 597.16 420.49 C 597.81 421.15 604.16 417.54 613.48 411.22 C 616.77 408.99 619.84 407.4 620.3 407.69 C 620.47 407.79 620.79 408.1 621.23 408.58 Z M 574.06 301.71 C 581.81 310.06 588.74 318.59 591.37 323.69 L 591.4 323.75 L 593.06 327.01 L 588.95 333.02 L 588.76 333.29 C 584.66 339.18 584.18 339.53 579.47 340.16 C 571.26 341.26 561.83 340.96 556.11 339.42 C 548.62 337.4 543.33 334.21 540.01 329.69 L 537.18 325.85 L 539.34 321.17 C 540.32 319.06 540.87 317.3 541.18 314.7 C 541.83 311.32 542.02 307.64 541.8 303.48 C 541.68 301.08 541.52 299.21 541.24 297.56 C 540.89 294.48 540.06 292.59 538.17 288.75 C 536.33 285.03 534 281.41 532.98 280.7 C 531.24 279.48 531.23 279.34 532.85 278.32 C 536.67 275.94 542.36 275.83 547.35 278.03 C 549.88 279.15 553.88 282.22 558.49 286.32 L 565.77 293.41 C 568.85 296.42 571.6 299.17 574.06 301.71 Z M 627.74 283.89 C 630.31 287.08 633.25 293.65 635.02 300.59 C 635.14 301.04 635.25 301.5 635.35 301.97 C 637.15 310.34 637.41 319.44 635.87 327.16 C 635.61 327.7 635.3 328 634.94 328 C 634.48 328 632.4 329.58 630.31 331.51 C 625.93 335.55 614.5 341.38 608.2 342.79 L 603.9 343.75 L 604.56 340.62 L 605.23 337.5 L 602.55 340.5 C 601.08 342.15 598.75 345.52 597.38 348 C 591.91 357.87 589.75 361.04 585.17 365.92 C 580.43 370.97 579.87 371.18 573.5 370.27 C 571.85 370.04 570.17 369.53 569.77 369.14 C 569.36 368.75 571.86 365.04 575.32 360.9 C 576.86 359.06 578.57 356.95 580.16 354.95 C 581.43 353.42 582.55 352 583.46 350.75 C 586.17 347.04 588.75 344 589.19 344 C 589.64 344 590 343.48 590 342.85 C 590 342.22 592.19 338.28 594.87 334.1 C 601.99 322.97 608.37 310.72 612.35 300.5 C 615.24 293.09 617.46 288.21 619.42 285.28 C 619.99 284.53 620.57 283.9 621.22 283.31 C 623.54 281.17 625.53 281.28 627.74 283.89 Z M 563.9 365.56 L 563.85 365.61 C 562.74 366.65 561.5 367.79 560.19 368.95 C 559.64 369.3 559.13 369.51 558.61 369.6 C 557.44 369.8 556.17 369.44 554.09 368.84 L 554.04 368.83 C 546.37 366.63 540.21 358.98 538.43 349.46 C 537.7 345.6 538.22 345.34 542.37 347.51 C 543.95 348.33 547.93 349.71 551.22 350.56 C 557.51 352.19 561.78 351.78 573.43 348.42 C 576.14 347.64 578.53 347 578.74 347 C 578.95 347 578.75 347.46 578.26 348.25 C 575.54 351.93 572.99 355.23 570.68 358.04 C 569.15 359.86 567.57 361.65 566.13 363.19 C 565.29 364.09 564.55 364.87 563.9 365.56 Z M 591.35 365.75 C 592.7 363.96 595.76 358.92 598.16 354.55 L 602.51 346.6 L 612.51 346.89 C 623.14 347.19 625.1 347.89 624.27 351.07 C 622.72 356.99 600.62 368.97 591.2 368.99 L 588.9 369 L 591.35 365.75 Z" fill="rgb(62,108,39)" style=""/>
    <path d="M 579.63 169.23 C 582.41 168.55 586.38 168.16 590.58 168.06 C 597.04 167.92 604.11 168.44 608 169.59 C 612.52 170.93 616.62 172.82 620.23 175.17 C 626.44 179.22 631.21 184.66 634.23 191.12 C 635.36 193.89 635.97 196.76 635.98 199.63 C 636 204.12 635.72 204.84 633.75 205.37 C 630.3 206.29 630 206.17 630 203.78 C 630 195.75 620.69 183.9 610.54 179.01 C 600.96 174.4 591.34 173.28 578.89 175.32 C 572.98 176.29 568.24 176.64 567.73 176.13 C 566.92 175.32 569.54 173.34 573.27 171.57 C 575.12 170.74 577.04 170.01 579 169.41 C 579.2 169.34 579.41 169.28 579.63 169.23 Z M 708.84 398.05 C 709.93 399.4 706.61 395.73 707.07 394.52 C 706.91 395.17 707.51 396.41 708.84 398.05 Z M 707.5 394.06 C 707.6 394.02 707.72 394 707.85 394 L 707.89 394 C 707.74 394 707.61 394.02 707.5 394.06 Z" fill="rgb(76,104,87)" style=""/>
    <path d="M 554.39 400.46 C 549.38 399.72 541.51 397.86 536.89 396.31 L 528.5 393.5 L 528.2 387.62 C 527.96 383.11 528.2 381.86 529.2 382.24 C 529.91 382.52 533.2 383.53 536.5 384.5 C 539.8 385.47 543.17 386.48 544 386.75 C 544.83 387.02 546.62 387.35 548 387.49 C 549.38 387.64 553.99 388.32 558.25 389.01 C 558.54 389.06 558.84 389.1 559.15 389.15 C 558.13 389.04 557.18 388.93 556.3 388.8 C 547 387.46 544.84 388.17 547.12 391.82 C 548.86 394.61 557.73 398.97 562.01 399.14 C 564.64 399.24 564.91 399.38 563.09 399.73 C 561.19 400.08 560.98 400.38 562.09 401.13 C 562.18 401.19 562.36 401.25 562.6 401.31 C 559.57 401.09 556.78 400.8 554.39 400.46 Z M 601.38 400.2 C 601.44 400.18 601.49 400.16 601.54 400.14 C 605.59 398.55 606.11 394.87 602.18 395.52 C 594.22 396.83 588.97 397.55 585.83 397.76 C 587.87 397.54 590.94 397.1 595.5 396.39 C 601 395.54 606.4 394.76 607.5 394.67 C 608.6 394.58 609.72 394.22 610 393.88 C 610.28 393.55 611.55 392.94 612.83 392.54 C 614.86 391.91 615.12 392.11 614.83 394.16 C 614.48 396.64 611.61 397.97 601.38 400.2 Z M 604.56 391.77 C 607.3 390.56 608.65 389.31 607.7 388.37 C 607.38 388.05 603.42 388.29 598.9 388.89 C 593.31 389.65 584.9 390 576.64 389.95 C 588.61 389.85 601.81 388.78 607.5 387.08 C 608.24 386.86 608.91 386.66 609.52 386.48 C 613.52 385.28 614.63 384.95 614.93 385.3 C 615.04 385.43 615.03 385.67 615.01 386 C 615.01 386.13 615 386.27 615 386.43 C 615 387.62 610.35 389.82 604.56 391.77 Z M 572.96 401.8 C 582.35 401.81 595.09 401.28 599.92 400.51 L 599.68 400.56 C 594.52 401.65 583.58 402.06 572.96 401.8 Z M 582 397.2 C 582 397.18 582 397.16 582 397.14 C 582 396.68 584.65 396.03 587.95 395.66 C 584.6 396.21 582.11 396.84 582 397.2 Z" fill="rgb(176,87,40)" style=""/>
    <path d="M 468.54 388.74 C 464.73 379.64 464.04 362.77 467.1 353.72 C 468.25 350.3 470.03 344.28 471.03 340.35 C 473.18 332 476.67 324.7 480.52 320.56 C 483.01 317.89 483.36 317.77 484.49 319.31 C 487.04 322.8 488.01 321.17 487.9 313.58 C 487.75 303.91 489.97 297.36 495.47 291.24 C 503.5 282.31 514.76 278.24 522.53 281.44 C 521.68 281.15 520.87 281 520.14 281 C 513.35 281 500.47 292.25 497.59 300.68 C 495.84 305.82 495.45 316.05 496.95 317.55 C 497.5 318.11 503.38 318.29 511.2 317.98 C 525.65 317.42 530.69 315.92 533.73 311.29 C 534.82 309.63 535.54 309.25 536.05 310.07 C 536.51 310.83 536.91 310.5 537.18 309.56 C 536.26 320.66 530.56 327.95 521.96 328.78 C 518.93 329.07 517.34 329.59 518.08 330.05 C 521.53 332.18 517.1 346.4 510.73 353.65 C 504.16 361.14 498.82 361.77 490.35 356.06 C 486.85 353.7 484.34 352.57 484.1 353.25 C 483.76 354.22 484.12 354.75 488.68 357.82 C 488.52 357.73 488.36 357.65 488.19 357.56 C 485.08 355.99 484.67 355.99 481.2 357.69 C 479.03 358.76 476.57 361.15 475.2 363.5 C 473.21 366.94 472.96 368.48 473.36 374.5 C 473.62 378.35 474.16 382.31 474.55 383.31 C 475.01 384.49 475.82 384.88 476.88 384.45 C 478.12 383.94 479.25 383.5 480.3 383.13 C 479.77 383.35 479.23 383.6 478.65 383.89 C 475.96 385.21 472.97 387.64 471.94 389.34 L 470.07 392.41 L 468.54 388.74 Z M 636.77 392.23 C 635.36 390.73 632.31 385.7 629.99 381.05 L 625.78 372.6 L 628.42 367.21 C 630.52 362.94 631.43 361.96 632.79 362.52 C 633.73 362.91 635.4 363.47 636.5 363.76 C 638.22 364.21 638.11 363.87 635.75 361.34 C 634.24 359.72 633 357.57 633 356.56 C 633 354.42 634.09 350.49 635.38 347.46 C 635.52 347.89 635.92 348.36 636.54 349.05 C 637.52 350.12 637.99 351 637.6 351 C 635.67 351 642.67 358.13 645.37 358.91 C 650.24 360.32 651 360.18 653.33 357.4 C 654.52 355.96 656.29 353.94 657.25 352.9 C 658.21 351.86 658.77 349.29 658.94 346.18 C 658.88 350.21 658.51 354.16 658.04 355.4 C 657.2 357.6 657.47 358.2 660.16 360.11 C 660.36 360.25 660.56 360.41 660.77 360.59 C 660.2 360.2 659.69 360 659.27 360 C 658.51 360 658.1 360.36 658.38 360.8 C 659.62 362.81 653.83 366.4 650.87 365.46 C 649.61 365.06 648.13 365.48 646.93 366.56 C 644.88 368.42 644.25 370.58 646.1 369.44 C 646.83 368.99 646.8 369.5 646.01 370.98 C 644.92 373.02 645.15 377.24 646.62 382.25 C 646.9 383.21 647.28 384 647.47 384 C 647.65 384 650.12 382.44 652.95 380.53 C 653.13 380.41 653.31 380.29 653.49 380.18 C 648.83 383.51 642.98 389.05 641.02 392.23 L 639.34 394.97 L 636.77 392.23 Z M 601.38 400.2 C 600.91 400.3 600.42 400.41 599.92 400.51 C 595.09 401.28 582.35 401.81 572.96 401.8 C 569.39 401.71 565.86 401.55 562.6 401.31 C 562.36 401.25 562.18 401.19 562.09 401.13 C 560.98 400.38 561.19 400.08 563.09 399.73 C 564.91 399.38 564.64 399.24 562.01 399.14 C 557.73 398.97 548.86 394.61 547.12 391.82 C 544.84 388.17 547 387.46 556.3 388.8 C 557.18 388.93 558.13 389.04 559.15 389.15 C 563.54 389.76 569.89 390.01 576.64 389.95 C 584.9 390 593.31 389.65 598.9 388.89 C 603.42 388.29 607.38 388.05 607.7 388.37 C 608.65 389.31 607.3 390.56 604.56 391.77 C 599.93 393.33 594.57 394.73 590.3 395.31 C 589.48 395.42 588.7 395.54 587.95 395.66 C 584.65 396.03 582 396.68 582 397.14 C 582 397.16 582 397.18 582 397.2 C 582 397.21 582 397.21 582 397.22 C 582 397.87 582.72 398.08 585.83 397.76 C 588.97 397.55 594.22 396.83 602.18 395.52 C 606.11 394.87 605.59 398.55 601.54 400.14 C 601.49 400.16 601.44 400.18 601.38 400.2 Z M 489 352.02 C 491.51 353.61 498.86 353.11 502.79 351.1 C 511.69 346.54 517.87 334.02 513.43 329.57 C 509.61 325.76 494.79 329.15 489.44 335.07 C 487.02 337.74 486.68 350.56 489 352.02 Z M 493.24 447.01 C 488.9 444.36 486.38 439.98 484.53 431.84 C 482.25 421.82 482.51 418.63 485.91 414.76 C 488.04 412.33 490.68 410.37 493.61 408.97 C 493.21 409.23 492.84 409.51 492.49 409.81 C 491.39 410.74 490.72 411.35 490.99 411.16 C 491.27 410.97 491.95 417.05 492.5 424.66 L 493.5 438.5 L 496.57 439.41 C 497.16 439.58 497.81 439.91 498.46 440.33 C 498.27 440.91 498.66 442.38 499.43 443.86 C 500.29 445.53 501 447.37 501 447.95 C 501 449.66 496.75 449.14 493.24 447.01 Z M 681.83 433.74 L 678.16 431.5 L 680.48 428.6 C 682.64 425.92 683.17 425.75 687.66 426.32 C 692.28 426.91 692.38 426.87 689.87 425.5 C 686.78 423.81 685.63 421.55 685.93 417.75 C 685.99 416.99 686 416.3 685.97 415.8 C 686.46 415.87 687.03 416.14 687.82 416.55 C 695.07 420.26 696.79 420.8 696.58 419.33 C 696.56 419.19 696.52 419.04 696.47 418.87 C 697.07 420.03 697.51 421.11 697.78 422.09 C 699.07 426.87 697.28 431.04 692.74 433.85 C 688.35 436.56 686.41 436.55 681.83 433.74 Z M 655.16 328.29 C 654.59 327.77 653.96 327.66 653.06 327.76 C 651.79 327.9 649.25 327.61 647.42 327.11 L 644.1 326.19 L 641.49 334.04 C 641.01 335.47 640.46 336.94 639.9 338.31 C 641.91 332.94 643.96 325.5 644.47 320.97 C 644.79 318.09 644.78 314.95 644.48 311.7 C 645.23 316.44 645.56 316.79 646.22 314.81 C 646.72 313.33 648.67 311.21 650.56 310.1 L 654 308.07 L 654.06 311.28 C 654.13 314.45 654.14 314.46 655.15 312 C 654.9 313.59 654.52 315.28 654.04 317 C 651.21 327.18 651.19 327.45 653.47 327.47 C 654.06 327.48 654.63 327.77 655.16 328.29 Z M 509.89 437.7 C 509.92 437.57 509.9 437.35 509.82 437.04 C 509.6 436.09 510.87 435.4 513.77 434.87 C 516.11 434.45 518.5 433.81 519.08 433.45 C 519.65 433.1 521.09 433.64 522.27 434.65 L 524.42 436.5 L 522.56 433.5 C 521.53 431.85 520.09 429.61 519.35 428.53 C 518.54 427.34 518.1 425.51 518.04 423.95 C 518.44 426.15 519.84 429.29 521.96 432.32 L 525.92 437.98 L 523.63 440.65 C 521.54 443.08 521.05 443.21 518.11 442.19 C 516.34 441.57 513 439.79 510.69 438.24 L 509.89 437.7 Z M 668.25 414.3 L 667.4 415.15 C 665.97 416.58 664.49 419.27 664.11 421.12 C 663.62 423.54 662.81 424.59 661.28 424.81 C 655.04 425.72 657.36 413.31 662.99 406.35 C 662.54 407.62 662.76 409.17 663.5 411.33 C 665.25 416.4 665.62 416.65 668.12 414.41 L 668.25 414.3 Z M 673.86 440.55 C 665.26 434.7 671.16 432.8 681.99 437.92 C 687.55 440.55 687.97 440.95 686.15 441.92 C 682.78 443.72 677.69 443.16 673.86 440.55 Z M 675 420.94 C 675.19 421.04 675.38 421.14 675.56 421.23 C 677.53 422.28 678.52 422.8 679.33 422.6 C 679.61 422.53 679.87 422.38 680.15 422.13 C 675.64 428.15 673.35 429.56 670.06 428.52 C 667.57 427.73 667.13 425.37 668.68 421 C 669.16 419.64 669.58 417.9 669.8 416.52 C 669.62 418.51 669.87 419.63 670.46 419.43 C 671.03 419.25 673.08 419.92 675 420.94 Z M 504.63 446.76 C 504.5 446.3 503.9 445.26 503.04 444.05 L 500.94 441.1 L 503.08 439.96 C 504.62 439.13 505.52 439.12 506.31 439.91 C 508.42 442.02 509.33 440.98 507.32 438.75 C 506.87 438.25 506.46 437.77 506.1 437.33 C 507.24 438.64 508.94 440.36 510.64 441.92 C 515.01 445.89 515.28 446.38 513.48 447.08 C 510.07 448.42 507.02 448.29 504.63 446.76 Z M 666.31 443.05 C 662.5 440.72 660.84 437.89 660.62 433.36 C 660.41 428.91 663.47 428.6 664.35 432.99 C 664.68 434.64 666.82 438.02 669.1 440.49 C 672.42 444.09 672.88 445 671.38 445 C 670.34 444.99 668.07 444.12 666.31 443.05 Z M 483.53 382.1 C 487.15 381.12 490.28 380.94 495.13 381.16 L 502.67 381.5 L 493.35 381.5 C 488.57 381.5 485.8 381.62 483.53 382.1 Z M 511.02 407.15 C 516.93 408.15 521.77 410.41 525.05 413.6 C 521.8 410.65 517.04 408.43 511.02 407.15 Z M 642.62 301.42 C 640.91 295 638.23 288.74 634.86 283.75 C 638.54 289.2 640.97 294.67 642.62 301.42 Z M 652.85 292.67 C 654.8 296.54 655.77 301 655.72 305.91 C 655.7 305 655.64 304.05 655.55 303.12 C 655.15 299.12 654.27 295.67 652.85 292.67 Z M 666.72 375.02 C 666.21 375.16 665.61 375.29 664.91 375.4 C 663.55 375.62 661.68 376.15 659.92 376.78 C 662.42 375.76 664.79 375.13 666.72 375.02 Z M 501.83 443.66 C 502.31 444.39 502.8 445.08 503.23 445.63 C 503.04 445.45 502.86 445.25 502.68 445.04 C 501.76 443.94 500.86 442.72 500.29 441.82 C 500.88 442.39 501.41 443.02 501.83 443.66 Z M 669.95 415.18 C 669.95 415.12 669.96 415.07 669.96 415.02 L 670 412.73 L 670.26 412.5 L 669.95 415.18 Z M 657.62 333.4 C 657.47 332.91 657.31 332.44 657.14 332 C 656.53 330.45 656.06 329.42 655.57 328.76 C 656.37 329.78 657.07 331.38 657.62 333.4 Z M 668.18 370.45 C 668.69 371.53 669 372.45 669 373.07 C 669 373.26 668.97 373.44 668.9 373.6 C 668.99 372.83 668.75 371.76 668.18 370.45 Z M 690.92 410.98 C 688.62 408.41 685.95 405.84 683.6 404.07 C 686.14 405.99 688.69 408.42 690.92 410.98 Z M 504.74 435.51 C 504 434.36 504.06 433.9 505.1 434.5 C 505.47 434.71 506 435.07 506.57 435.49 C 503.86 433.73 503.96 434.05 504.74 435.51 Z M 526.94 283.85 C 528.38 284.86 529.68 286.02 530.83 287.32 C 530.79 287.27 530.74 287.22 530.69 287.16 C 529.47 285.89 528.2 284.77 526.94 283.85 Z M 682.74 418.66 C 683.52 417.54 684.07 416.79 684.55 416.34 C 684.05 416.95 683.43 417.74 682.74 418.66 Z M 502.59 376.26 C 502.64 376.61 502.69 376.95 502.73 377.29 C 502.69 376.95 502.64 376.6 502.59 376.26 Z" fill="rgb(238,123,49)" style=""/>
    <path d="M 537.3 307.17 C 537.28 307.98 537.24 308.78 537.18 309.56 C 536.91 310.5 536.51 310.83 536.05 310.07 C 535.54 309.25 534.82 309.63 533.73 311.29 C 530.69 315.92 525.65 317.42 511.2 317.98 C 503.38 318.29 497.5 318.11 496.95 317.55 C 495.45 316.05 495.84 305.82 497.59 300.68 C 500.47 292.25 513.35 281 520.14 281 C 520.87 281 521.68 281.15 522.53 281.44 L 522.57 281.46 C 524.14 282.12 525.6 282.92 526.94 283.85 C 528.2 284.77 529.47 285.89 530.69 287.16 C 530.74 287.22 530.79 287.27 530.83 287.32 C 535.16 292.19 537.46 299.06 537.3 307.17 Z M 509.89 437.7 C 508.48 436.75 507.39 436.02 506.57 435.49 C 506 435.07 505.47 434.71 505.1 434.5 C 504.06 433.9 504 434.36 504.74 435.51 L 504.81 435.64 C 505.01 436.01 505.47 436.61 506.1 437.33 C 506.46 437.77 506.87 438.25 507.32 438.75 C 509.33 440.98 508.42 442.02 506.31 439.91 C 505.52 439.12 504.62 439.13 503.08 439.96 L 500.94 441.1 L 503.04 444.05 C 503.9 445.26 504.5 446.3 504.63 446.76 C 504.13 446.44 503.67 446.07 503.23 445.63 C 502.8 445.08 502.31 444.39 501.83 443.66 C 501.41 443.02 500.88 442.39 500.29 441.82 C 500.01 441.38 499.82 441.02 499.73 440.79 C 499.48 440.08 498.95 439.8 498.56 440.16 C 498.52 440.2 498.48 440.26 498.46 440.33 C 497.81 439.91 497.16 439.58 496.57 439.41 L 493.5 438.5 L 492.5 424.66 C 491.95 417.05 491.27 410.97 490.99 411.16 C 490.72 411.35 491.39 410.74 492.49 409.81 C 492.84 409.51 493.21 409.23 493.61 408.97 C 496.97 407.38 500.71 406.53 504.5 406.58 C 506.79 406.61 508.97 406.8 511.02 407.15 C 517.04 408.43 521.8 410.65 525.05 413.6 C 527.6 416.08 529.2 419.13 529.61 422.59 C 530.4 429.17 528.81 429.93 524.25 425.15 C 522.09 422.87 519.79 421 519.15 421 C 518.04 421 517.71 422.17 518.04 423.95 C 518.1 425.51 518.54 427.34 519.35 428.53 C 520.09 429.61 521.53 431.85 522.56 433.5 L 524.42 436.5 L 522.27 434.65 C 521.09 433.64 519.65 433.1 519.08 433.45 C 518.5 433.81 516.11 434.45 513.77 434.87 C 510.87 435.4 509.6 436.09 509.82 437.04 C 509.9 437.35 509.92 437.57 509.89 437.7 Z M 581.8 240.46 C 579.21 239.11 575.25 236.25 572.99 234.11 C 569 230.31 568.9 230.06 569.2 224.37 C 569.35 221.49 569.52 219.52 570.58 218.38 C 570.99 218.06 571.79 216.968 572.5 216.718 C 573.64 216.318 575.66 217.24 578.18 217.56 C 579.92 217.82 582.01 218.22 584.51 218.77 C 587.61 219.59 605.6 223.94 609.35 224.03 C 611.72 224.2 613.96 224.13 616.32 223.8 C 618.47 223.55 620.4 223.11 622.72 222.44 C 624.08 222.06 625.54 221.62 627.1 221.11 C 632.39 219.4 637 218 637.35 218 C 637.71 218 638 219.05 638 220.33 C 638 222.31 637.58 222.59 635.17 222.24 C 632.61 221.86 619 227.03 619 228.38 C 619 228.66 619.95 230.49 621.1 232.45 C 624.8 238.72 631 238.11 631 231.48 C 631 228.7 631.48 228.03 634.15 227.1 C 635.88 226.49 637.39 226 637.5 226 C 637.88 226 635.92 237.32 635.4 238.17 C 635.11 238.63 633.5 239.73 631.81 240.6 C 628.87 242.12 628.48 242.05 621.8 238.98 L 614.85 235.78 L 603.68 239.4 C 590.64 243.64 588.13 243.76 581.8 240.46 Z M 502.59 376.26 C 502.64 376.6 502.69 376.95 502.73 377.29 L 503.2 381.5 L 502.67 381.5 L 495.13 381.16 C 490.28 380.94 487.15 381.12 483.53 382.1 C 482.39 382.34 481.38 382.67 480.3 383.13 C 479.25 383.5 478.12 383.94 476.88 384.45 C 475.82 384.88 475.01 384.49 474.55 383.31 C 474.16 382.31 473.62 378.35 473.36 374.5 C 472.96 368.48 473.21 366.94 475.2 363.5 C 476.57 361.15 479.03 358.76 481.2 357.69 C 484.67 355.99 485.08 355.99 488.19 357.56 C 488.36 357.65 488.52 357.73 488.68 357.82 C 489.7 358.5 490.93 359.31 492.41 360.28 C 497.69 363.75 501.56 369.86 502.59 376.26 Z M 655.16 328.29 C 655.3 328.43 655.44 328.59 655.57 328.76 C 656.06 329.42 656.53 330.45 657.14 332 C 657.31 332.44 657.47 332.91 657.62 333.4 C 658.43 336.38 658.92 340.29 658.95 344.68 C 658.95 345.18 658.95 345.68 658.94 346.18 C 658.77 349.29 658.21 351.86 657.25 352.9 C 656.29 353.94 654.52 355.96 653.33 357.4 C 651 360.18 650.24 360.32 645.37 358.91 C 642.67 358.13 635.67 351 637.6 351 C 637.99 351 637.52 350.12 636.54 349.05 C 635.92 348.36 635.52 347.89 635.38 347.46 C 635.95 346.11 636.56 344.94 637.12 344.2 C 637.91 343.16 638.9 340.99 639.9 338.31 C 640.46 336.94 641.01 335.47 641.49 334.04 L 644.1 326.19 L 647.42 327.11 C 649.25 327.61 651.79 327.9 653.06 327.76 C 653.96 327.66 654.59 327.77 655.16 328.29 Z M 489 352.02 C 486.68 350.56 487.02 337.74 489.44 335.07 C 494.79 329.15 509.61 325.76 513.43 329.57 C 517.87 334.02 511.69 346.54 502.79 351.1 C 498.86 353.11 491.51 353.61 489 352.02 Z M 668.25 414.3 L 668.12 414.41 C 665.62 416.65 665.25 416.4 663.5 411.33 C 662.76 409.17 662.54 407.62 662.99 406.35 C 664.33 404.69 665.87 403.34 667.52 402.56 C 674.7 399.15 677.23 399.37 683.37 403.9 C 683.45 403.96 683.52 404.02 683.6 404.07 C 685.95 405.84 688.62 408.41 690.92 410.98 C 693.22 413.62 695.19 416.4 696.47 418.87 C 696.52 419.04 696.56 419.19 696.58 419.33 C 696.79 420.8 695.07 420.26 687.82 416.55 C 687.03 416.14 686.46 415.87 685.97 415.8 C 685.94 415.31 685.87 415 685.77 415 C 685.68 415 685.23 415.5 684.55 416.34 C 684.07 416.79 683.52 417.54 682.74 418.66 C 682.1 419.5 681.39 420.45 680.65 421.45 C 680.48 421.68 680.31 421.91 680.15 422.13 C 679.87 422.38 679.61 422.53 679.33 422.6 C 678.52 422.8 677.53 422.28 675.56 421.23 C 675.38 421.14 675.19 421.04 675 420.94 C 673.08 419.92 671.03 419.25 670.46 419.43 C 669.87 419.63 669.62 418.51 669.8 416.52 C 669.88 416.01 669.93 415.55 669.95 415.18 L 670.26 412.5 L 670 412.73 L 670 412.55 L 668.25 414.3 Z M 642.62 301.42 C 640.97 294.67 638.54 289.2 634.86 283.75 C 630.19 276.82 631.32 276.32 640.85 281.09 C 646.35 283.83 650.38 287.78 652.85 292.67 C 654.27 295.67 655.15 299.12 655.55 303.12 C 655.64 304.05 655.7 305 655.72 305.91 C 655.7 307.85 655.52 309.87 655.17 311.95 C 654.14 314.46 654.13 314.45 654.06 311.28 L 654 308.07 L 650.56 310.1 C 648.67 311.21 646.72 313.33 646.22 314.81 C 645.56 316.79 645.23 316.44 644.48 311.7 C 644.16 308.33 643.53 304.85 642.62 301.42 Z M 666.72 375.02 C 664.79 375.13 662.42 375.76 659.92 376.78 C 658.76 377.2 657.65 377.67 656.77 378.12 C 655.81 378.61 654.69 379.32 653.49 380.18 C 653.31 380.29 653.13 380.41 652.95 380.53 C 650.12 382.44 647.65 384 647.47 384 C 647.28 384 646.9 383.21 646.62 382.25 C 645.15 377.24 644.92 373.02 646.01 370.98 C 646.8 369.5 646.83 368.99 646.1 369.44 C 644.25 370.58 644.88 368.42 646.93 366.56 C 648.13 365.48 649.61 365.06 650.87 365.46 C 653.83 366.4 659.62 362.81 658.38 360.8 C 658.1 360.36 658.51 360 659.27 360 C 659.69 360 660.2 360.2 660.77 360.59 C 663.33 362.72 666.65 367.27 668.18 370.45 C 668.75 371.76 668.99 372.83 668.9 373.6 C 668.67 374.22 667.97 374.67 666.72 375.02 Z" fill="rgb(248,174,100)" style=""/>
    <path d="M 512.59 555 L 513.05 557.5 L 608.5 557.5 L 609.14 555 C 610.09 551.25 610.91 547.83 611.62 544.68 C 609.59 555.12 609.62 559.48 611.54 561.4 C 613.76 563.62 618.97 564.83 631.5 566.04 C 637.55 566.63 646.55 567.52 651.5 568.03 C 676.22 570.55 684.89 567.99 685 558.08 C 685 558.13 685 558.18 685 558.23 C 685 561.17 685.44 561.76 688.5 562.86 C 690.42 563.56 692 564.48 692 564.9 C 692 566.19 684.35 568.3 681.61 567.78 C 680.21 567.51 679.24 567.57 679.45 567.92 C 679.66 568.26 675.72 568.68 670.69 568.84 C 665.67 569 661.09 569.5 660.53 569.96 C 659.24 571.01 635.01 571.82 582.5 572.56 C 543.28 573.12 497.09 572.02 480.91 570.22 C 485.43 570.64 490.42 570.63 495.36 570.07 C 510.78 568.32 513.54 566 512.28 553.02 C 512.4 553.86 512.5 554.55 512.59 555 Z M 463.41 558.9 C 463.08 560.66 463.13 562.18 463.6 563.4 C 464.7 566.26 469.82 568.51 476.67 569.66 C 472.87 569.18 468.02 568.71 465 568.55 C 458.12 568.19 452.71 566.36 453.3 564.6 C 453.5 564.01 455.42 563.12 457.58 562.61 C 460.64 561.89 462.54 560.69 463.41 558.9 Z M 613.18 537.11 C 615.73 523.24 615.03 516.22 611.31 511.34 C 615.29 516.55 615.84 523.64 613.18 537.11 Z M 511.27 544.43 L 510.87 541.06 L 515.09 533.96 C 511.74 539.6 511.06 540.98 511.27 544.43 Z M 463.97 556.36 C 463.99 555.18 466.46 550.78 469.48 546.58 C 466.77 550.37 464.91 553.86 463.95 556.84 C 463.96 556.68 463.97 556.52 463.97 556.36 Z M 684.55 554.57 C 684.11 553.38 683.3 552.29 681.82 551.03 C 683.02 551.94 683.81 552.64 684 553 C 684.2 553.37 684.39 553.93 684.55 554.57 Z" fill="rgb(209,204,188)"/>
    <path d="M 459.78 382 L 457.5 373.05 L 458.09 364.27 C 458.46 358.79 459.47 353.62 460.78 350.5 C 461.94 347.75 463.59 342.63 464.46 339.11 C 466.65 330.21 471.22 321.09 476.35 315.36 C 479.78 311.54 480.87 309.43 481.44 305.5 C 483.52 291.28 496.9 276.92 510.95 273.83 C 514.04 273.15 518.94 270.98 522 268.94 C 527.42 265.32 542.7 258 544.85 258 C 545.46 258 546.7 256.87 547.6 255.48 C 549.18 253.08 549.12 252.67 546.58 247 C 542.89 238.78 540.99 229.47 540.34 216.5 C 539.19 193.37 547.19 177.55 564.76 168.2 C 574.79 162.87 580.13 161.63 593 161.67 C 605.5 161.7 612.99 163.54 622 168.76 C 628.65 172.62 636.87 180.82 639.71 186.42 C 642.74 192.39 646 207.93 646 216.35 C 645.99 228.66 640.62 251.76 635.08 263.32 L 632.28 269.15 L 640.39 272.9 C 650.33 277.5 657.86 285.07 660.6 293.24 C 662.64 299.33 662.93 312.3 661.15 318.62 C 660.1 322.36 660.25 323.28 662.75 328.62 C 665.12 333.69 665.55 336.02 665.84 345.48 C 666.19 356.44 666.2 356.48 669.69 360.34 C 673.6 364.67 675.2 368.06 678.52 379 C 682.09 390.81 684.95 397.28 687.31 398.92 C 692.42 402.45 699.45 409.85 702.11 414.5 C 704.27 418.27 704.98 420.81 704.99 424.8 C 705 431.65 703.6 434.18 695.58 441.72 C 688.41 448.45 686 449.46 674.47 450.55 C 667.59 451.2 667.35 451.14 663.06 447.86 C 660.66 446.01 657.85 443.38 656.84 442 C 654.66 439.05 651.74 427.42 651.54 420.9 C 651.41 416.5 651.09 416.03 644.38 410.26 C 634.98 402.16 629.43 395.73 625.64 388.5 L 622.5 382.5 L 622.21 391.42 L 621.92 400.33 L 625.36 403.92 C 631.82 410.64 646.05 428.43 651.43 436.53 C 654.39 440.97 658.99 449.76 661.66 456.06 C 666.49 467.47 666.5 467.52 666.28 477.78 C 665.98 491.38 663.66 504.4 660.77 508.65 C 659.52 510.48 658.18 511.99 657.79 511.99 C 657.1 512 653.78 522.48 652.55 528.55 C 651.99 531.3 652.36 531.91 656.21 534.64 C 658.57 536.3 665.56 540.69 671.75 544.39 C 683.53 551.44 685 552.94 685 557.89 C 685 567.96 676.38 570.57 651.5 568.03 C 646.55 567.52 637.55 566.63 631.5 566.04 C 618.97 564.83 613.76 563.62 611.54 561.4 C 609.35 559.2 609.61 553.81 612.62 539.8 C 615.9 524.56 615.54 516.89 611.31 511.34 C 607.47 506.3 606.97 497.3 609.94 486.47 C 611.83 479.61 611.91 478.53 610.59 477.79 C 607.45 476.04 591.59 463.71 584.45 457.49 C 580.36 453.92 576.13 451 575.05 451 C 573.72 451 571.61 453.3 568.46 458.17 C 564.27 464.65 559.17 471.65 548.87 485.1 C 546.44 488.27 544.79 492.01 543.56 497.1 C 540.11 511.43 533.45 520.73 523.65 524.94 C 520.13 526.45 518.61 528.05 515.12 533.92 L 510.87 541.06 L 512.02 550.63 C 513.82 565.72 511.68 568.22 495.36 570.07 C 480.71 571.74 465.58 568.56 463.6 563.4 C 462.22 559.81 464.4 553.65 469.62 546.38 C 473.91 540.4 475.43 537.14 477.42 529.72 C 480.83 516.99 481.46 511.73 479.94 508.88 C 479.25 507.59 478.71 504.02 478.73 500.95 C 478.8 494.01 481.92 487.47 489.39 478.68 C 495.73 471.2 496.62 469.64 497.93 463.8 C 498.48 461.35 499.19 458.67 499.51 457.84 C 499.93 456.75 498.92 456 495.79 455.07 C 486.32 452.27 481.1 445.42 478.13 431.89 C 477.11 427.23 474.19 419.06 471.55 413.5 C 465.29 400.32 461.32 390.37 460.47 385.75 L 459.78 382 Z M 499.87 517.1 C 502.77 518.23 507.23 518.92 511.8 518.95 C 518.44 519 519.58 518.69 524.44 515.58 C 528.61 512.92 530.32 511 532.25 506.83 C 533.62 503.9 535.02 500.29 535.37 498.81 C 535.9 496.59 535.7 496.18 534.25 496.49 C 524.32 498.63 524.15 498.55 530.05 494.46 C 536.48 490.01 558.11 461.59 563.75 450.18 C 566.76 444.1 567.71 442.95 569.37 443.39 C 571.49 443.94 578.5 442.15 594.25 437.01 C 603.75 433.92 609.53 433.35 603.5 436.11 C 601.85 436.86 599.89 438.06 599.13 438.78 C 598.38 439.5 595.15 441.41 591.96 443.02 C 588.76 444.64 585.89 446.37 585.57 446.89 C 584.28 448.97 608.36 468.16 618.93 473.48 C 623.4 475.73 624.07 476.38 622.68 477.16 C 620.38 478.45 620.56 479.69 623.61 483.32 C 626.62 486.89 625.48 487.88 620.97 485.63 C 617.98 484.14 617.88 484.17 616.87 486.8 C 616.3 488.29 615.58 492.73 615.28 496.69 C 614.74 503.65 614.81 503.97 617.69 506.84 C 625.05 514.2 644.07 513.55 652.7 505.64 C 655.74 502.85 656.41 501.37 657.56 494.95 C 658.3 490.85 658.91 483 658.94 477.5 C 658.98 467.64 658.92 467.35 654.17 456.95 C 651.52 451.14 647.2 443.06 644.57 439 C 640.32 432.43 626.21 414.24 618.36 405.21 L 615.5 401.91 L 607 404.19 C 599.49 406.21 596.23 406.47 579 406.44 C 558.69 406.4 549.21 405.22 534.72 400.93 C 530.99 399.83 527.55 399.16 527.08 399.45 C 526.61 399.74 526.03 401.32 525.79 402.96 C 525.44 405.36 526.02 406.59 528.76 409.23 C 535.61 415.8 537.85 424.52 534.41 431.18 C 533.53 432.87 532.19 436.36 531.43 438.94 C 530.66 441.51 529.02 444.57 527.77 445.74 C 524.49 448.8 514.2 454 511.42 454 C 508.25 454 506.56 456.87 504.08 466.5 C 500.17 481.65 499.43 483.59 498.32 481.6 C 497.44 480.03 496.84 480.38 493.06 484.66 C 485.31 493.45 483.19 500.59 486.44 506.89 C 488.29 510.47 493.98 514.79 499.87 517.1 Z M 596.5 280.14 C 599.25 281.09 602.7 281.89 604.17 281.93 C 611.61 282.13 622.6 273.66 627.52 263.96 C 629.7 259.66 634 247.94 634 246.31 C 634 246.07 632.09 246.16 629.75 246.5 C 626.12 247.03 624.8 246.67 620.72 244.06 C 618.08 242.38 615.05 241 613.98 241 C 612.9 241 608.22 242.57 603.57 244.5 C 592.12 249.24 588.39 249.14 578.02 243.83 C 573.55 241.54 568.81 238.37 567.49 236.8 C 561.15 229.28 561.7 212.64 568.33 210.88 C 571.43 210.06 574.21 210.46 596.75 214.97 C 611.87 217.99 612.08 218 619.75 216.44 C 624.01 215.57 629.92 213.77 632.89 212.42 L 638.28 209.98 L 637.74 204.24 C 636.17 187.54 625.14 174.68 608 169.59 C 601.31 167.6 585.19 167.5 579 169.41 C 567.5 172.94 557.64 180.69 552.89 189.92 C 550.16 195.24 549.09 208.7 550.95 214.35 C 551.61 216.34 552.76 222.05 553.51 227.04 C 555.66 241.38 561.46 252.25 573.46 264.42 C 580.83 271.9 589.24 277.64 596.5 280.14 Z M 468.54 388.74 L 470.07 392.41 L 471.94 389.34 C 472.97 387.64 475.96 385.21 478.65 383.89 C 482.77 381.86 484.99 381.5 493.35 381.5 L 503.2 381.5 L 502.73 377.29 C 501.97 370.51 497.97 363.93 492.41 360.28 C 484.31 354.97 483.69 354.44 484.1 353.25 C 484.34 352.57 486.85 353.7 490.35 356.06 C 498.82 361.77 504.16 361.14 510.73 353.65 C 517.1 346.4 521.53 332.18 518.08 330.05 C 517.34 329.59 518.93 329.07 521.96 328.78 C 531.16 327.89 537.05 319.6 537.3 307.17 C 537.54 294.88 532.14 285.45 522.57 281.46 C 514.8 278.22 503.52 282.29 495.47 291.24 C 489.97 297.36 487.75 303.91 487.9 313.58 C 488.01 321.17 487.04 322.8 484.49 319.31 C 483.36 317.77 483.01 317.89 480.52 320.56 C 476.67 324.7 473.18 332 471.03 340.35 C 470.03 344.28 468.25 350.3 467.1 353.72 C 464.04 362.77 464.73 379.64 468.54 388.74 Z M 538.67 379.42 C 541.88 380.2 544.83 380.87 545.24 380.92 C 546.08 381.01 557.36 371.73 563.85 365.61 C 568.89 360.85 577.34 350.02 586.57 336.5 L 593.06 327.01 L 591.4 323.75 C 587.53 316.13 580.31 307.58 565.77 293.41 L 550.29 278.33 L 549.03 271.66 C 548.15 266.99 547.33 265 546.28 265 C 543.94 265 528.66 272.46 527.09 274.37 C 525.85 275.89 525.96 276.29 528.08 277.79 C 529.4 278.73 531.38 279.96 532.47 280.52 C 533.57 281.08 536.02 284.63 537.92 288.41 C 540.8 294.14 541.44 296.62 541.8 303.48 C 542.32 313.24 540.58 320.28 535.91 327.32 L 532.75 332.1 L 535.12 334.66 C 537.9 337.65 546.08 343.02 550.75 344.92 C 555.87 347 554.57 348.02 547.46 347.5 C 540.07 346.95 536.25 345.3 530.56 340.2 C 526.95 336.96 526.57 336.83 525.92 338.58 C 525.54 339.64 523.86 343.72 522.21 347.65 L 519.2 354.8 L 521.26 358.15 C 522.39 359.99 524.78 364.83 526.56 368.9 C 528.34 372.98 530.49 376.69 531.32 377.16 C 532.16 377.63 535.46 378.65 538.67 379.42 Z M 556.75 383.27 C 566.5 384.29 590.27 383.87 599 382.52 C 614.76 380.08 615.42 379.78 617.75 373.74 C 618.86 370.86 621.36 364.67 623.29 360 C 628.46 347.49 628.56 346.96 626.04 346.3 C 624.01 345.77 624.06 345.64 626.89 343.92 C 630.96 341.45 632.96 338.13 635.15 330.22 C 638.7 317.41 636.65 299.48 630.3 287.81 C 626.95 281.66 624.4 280.39 621.22 283.31 C 618.44 285.86 616.87 288.9 612.35 300.5 C 608.37 310.72 601.99 322.97 594.87 334.1 C 592.19 338.28 590 342.22 590 342.85 C 590 343.48 589.64 344 589.19 344 C 588.75 344 586.17 347.04 583.46 350.75 C 577.47 358.95 562.38 374.78 556.95 378.53 C 554.78 380.04 553 381.63 553 382.08 C 553 382.52 554.69 383.06 556.75 383.27 Z M 636.77 392.23 L 639.34 394.97 L 641.02 392.23 C 643.49 388.22 652.11 380.5 656.77 378.12 C 658.99 376.98 662.66 375.76 664.91 375.4 C 667.81 374.93 669 374.26 669 373.07 C 669 370.48 663.59 362.56 660.16 360.11 C 657.47 358.2 657.2 357.6 658.04 355.4 C 658.57 354.01 658.98 349.19 658.95 344.68 C 658.88 334.91 656.53 327.51 653.47 327.47 C 651.19 327.45 651.21 327.18 654.04 317 C 658.6 300.65 653.78 287.55 640.85 281.09 C 631.32 276.32 630.19 276.82 634.86 283.75 C 641.76 293.98 645.76 309.47 644.47 320.97 C 643.71 327.75 639.49 341.07 637.12 344.2 C 635.28 346.62 633 353.47 633 356.56 C 633 357.57 634.24 359.72 635.75 361.34 C 638.11 363.87 638.22 364.21 636.5 363.76 C 635.4 363.47 633.73 362.91 632.79 362.52 C 631.43 361.96 630.52 362.94 628.42 367.21 L 625.78 372.6 L 629.99 381.05 C 632.31 385.7 635.36 390.73 636.77 392.23 Z M 493.24 447.01 C 496.75 449.14 501 449.66 501 447.95 C 501 447.37 500.29 445.53 499.43 443.86 C 498.56 442.18 498.17 440.52 498.56 440.16 C 498.95 439.8 499.48 440.08 499.73 440.79 C 499.98 441.49 501.31 443.41 502.68 445.04 C 505.25 448.09 509.06 448.81 513.48 447.08 C 515.28 446.38 515.01 445.89 510.64 441.92 C 507.99 439.5 505.36 436.68 504.81 435.64 C 503.68 433.53 503.73 433.55 510.69 438.24 C 513 439.79 516.34 441.57 518.11 442.19 C 521.05 443.21 521.54 443.08 523.63 440.65 L 525.92 437.98 L 521.96 432.32 C 518.11 426.83 516.67 421 519.15 421 C 519.79 421 522.09 422.87 524.25 425.15 C 528.81 429.93 530.4 429.17 529.61 422.59 C 528.48 413.13 518.48 406.76 504.5 406.58 C 497.42 406.49 490.5 409.53 485.91 414.76 C 482.51 418.63 482.25 421.82 484.53 431.84 C 486.38 439.98 488.9 444.36 493.24 447.01 Z M 581.8 240.46 C 588.13 243.76 590.64 243.64 603.68 239.4 L 614.85 235.78 L 621.8 238.98 C 628.48 242.05 628.87 242.12 631.81 240.6 C 633.5 239.73 635.11 238.63 635.4 238.17 C 635.92 237.32 637.88 226 637.5 226 C 637.39 226 635.88 226.49 634.15 227.1 C 631.48 228.03 631 228.7 631 231.48 C 631 238.11 624.8 238.72 621.1 232.45 C 619.95 230.49 619 228.66 619 228.38 C 619 227.03 632.61 221.86 635.17 222.24 C 637.58 222.59 638 222.31 638 220.33 C 638 219.05 637.71 218 637.35 218 C 637 218 632.39 219.4 627.1 221.11 C 615.71 224.8 610.4 225.01 599 222.21 C 570.36 215.2 569.67 215.25 569.2 224.37 C 568.9 230.06 569 230.31 572.99 234.11 C 575.25 236.25 579.21 239.11 581.8 240.46 Z M 554.39 400.46 C 567.03 402.3 591.18 402.36 599.68 400.56 C 611.3 398.11 614.46 396.77 614.83 394.16 C 615.12 392.11 614.86 391.91 612.83 392.54 C 611.55 392.94 610.28 393.55 610 393.88 C 609.72 394.22 608.6 394.58 607.5 394.67 C 606.4 394.76 601 395.54 595.5 396.39 C 583.97 398.17 582 398.29 582 397.22 C 582 396.79 585.73 395.93 590.3 395.31 C 599.9 394 615 388.57 615 386.43 C 615 386.27 615.01 386.13 615.01 386 C 615.03 385.67 615.04 385.43 614.93 385.3 C 614.63 384.95 613.52 385.28 609.52 386.48 C 608.91 386.66 608.24 386.86 607.5 387.08 C 598.38 389.8 569.93 390.91 558.25 389.01 C 553.99 388.32 549.38 387.64 548 387.49 C 546.62 387.35 544.83 387.02 544 386.75 C 543.17 386.48 539.8 385.47 536.5 384.5 C 533.2 383.53 529.91 382.52 529.2 382.24 C 528.2 381.86 527.96 383.11 528.2 387.62 L 528.5 393.5 L 536.89 396.31 C 541.51 397.86 549.38 399.72 554.39 400.46 Z M 681.83 433.74 C 686.41 436.55 688.35 436.56 692.74 433.85 C 697.28 431.04 699.07 426.87 697.78 422.09 C 696.38 416.93 689.86 408.7 683.37 403.9 C 677.23 399.37 674.7 399.15 667.52 402.56 C 658.96 406.62 653.54 425.93 661.28 424.81 C 662.81 424.59 663.62 423.54 664.11 421.12 C 664.49 419.27 665.97 416.58 667.4 415.15 L 670 412.55 L 669.96 415.02 C 669.93 416.39 669.36 419.08 668.68 421 C 667.13 425.37 667.57 427.73 670.06 428.52 C 673.47 429.6 675.81 428.04 680.65 421.45 C 683.26 417.9 685.56 415 685.77 415 C 685.98 415 686.05 416.24 685.93 417.75 C 685.63 421.55 686.78 423.81 689.87 425.5 C 692.38 426.87 692.28 426.91 687.66 426.32 C 683.17 425.75 682.64 425.92 680.48 428.6 L 678.16 431.5 L 681.83 433.74 Z M 474.19 561.33 C 479.27 562.41 502.89 561.51 504.2 560.2 C 505.97 558.43 505.49 549.39 503.46 546.29 C 501.48 543.28 494.66 540.05 490.2 540.02 C 485.65 539.99 482.23 541.97 476.76 547.83 C 470.18 554.86 469.15 560.27 474.19 561.33 Z M 657 560 C 660.58 560.36 665.75 560.45 668.5 560.21 C 673.75 559.75 678.46 557.55 677.5 556 C 677.09 555.34 652.76 540.54 646.87 537.37 C 645.75 536.77 640.06 540.08 638.58 542.18 C 636.67 544.92 637.25 546.01 642.34 549.23 C 647.26 552.35 651.68 556 650.53 556 C 650.1 556 650.32 556.67 651 557.5 C 651.68 558.33 651.85 559.08 651.37 559.17 C 650.89 559.27 653.42 559.64 657 560 Z M 515 402.18 C 516.93 402.36 518.7 402.39 518.94 402.24 C 520.5 401.24 521.95 393.05 522.07 384.51 C 522.21 375.03 522.04 374.12 518.9 367.74 C 517.07 364.03 515.24 361 514.84 361 C 514.44 361 512.48 361.97 510.48 363.15 C 507.6 364.84 506.97 365.73 507.45 367.4 C 510.09 376.63 510.34 379.28 509.13 385.13 C 507.83 391.47 508.43 399.29 510.36 400.89 C 510.99 401.41 513.08 401.99 515 402.18 Z M 651 405.33 C 653.45 407.03 653.56 407.01 656.04 404.25 C 660.2 399.64 664.99 396.72 670.4 395.48 C 676.2 394.15 676.23 394.02 672.63 385 C 670.54 379.78 670.27 379.51 667.15 379.76 C 665.35 379.91 662.21 380.88 660.19 381.93 C 656.48 383.84 647 393.17 647 394.9 C 647 395.41 646.47 396.01 645.82 396.23 C 645.09 396.47 644.92 397.36 645.38 398.56 C 645.79 399.63 646.08 400.63 646.03 400.79 C 645.87 401.23 648.26 403.41 651 405.33 Z M 595 320.2 C 595 320.64 595.38 321 595.85 321 C 596.67 321 605.92 301.98 607.45 297.15 C 608.13 295.02 607.98 294.88 605.85 295.63 C 604.56 296.08 598.84 296.38 593.13 296.29 C 584.17 296.15 582.47 295.85 580.57 294.07 C 578.38 292.01 575 291.26 575 292.83 C 575 293.28 577.36 296.26 580.25 299.45 C 585.43 305.18 595 318.64 595 320.2 Z M 483.06 401.24 C 485.89 405.58 486.32 405.66 492.14 403.02 C 494.54 401.93 497.73 401.03 499.23 401.02 L 501.96 401 L 501.73 393.75 L 501.5 386.5 L 494.5 386.18 C 486.21 385.81 480.46 387.27 478.92 390.16 C 478.06 391.75 478.08 392.07 479 391.5 C 479.93 390.93 479.93 391.26 479.02 392.96 C 478.08 394.71 478.13 395.4 479.23 396.33 C 479.99 396.97 481.71 399.18 483.06 401.24 Z M 596.56 235.54 C 593.77 239.81 588.41 238.03 587.42 232.5 C 586.76 228.85 586.58 228.69 581.24 227.01 C 576.33 225.47 574.51 223.72 575.4 221.4 C 576.19 219.34 579.66 219.93 594.14 224.6 C 605.97 228.41 608.64 230.32 605.46 232.67 C 604.33 233.51 602.37 233.9 600.84 233.6 C 598.78 233.2 597.81 233.64 596.56 235.54 Z M 673.86 440.55 C 677.69 443.16 682.78 443.72 686.15 441.92 C 687.97 440.95 687.55 440.55 681.99 437.92 C 671.16 432.8 665.26 434.7 673.86 440.55 Z M 666.31 443.05 C 668.07 444.12 670.34 444.99 671.38 445 C 672.88 445 672.42 444.09 669.1 440.49 C 666.82 438.02 664.68 434.64 664.35 432.99 C 663.47 428.6 660.41 428.91 660.62 433.36 C 660.84 437.89 662.5 440.72 666.31 443.05 Z" fill="rgb(23,11,8)" style=""/>
  </g>
</svg>