<?xml version="1.0" encoding="utf-8"?>
<svg xmlns="http://www.w3.org/2000/svg" viewBox="0 84.131 234.899 415.869">
  <g transform="matrix(1, 0, 0, 1, 0.745651, -76.4683)">
    <path d="M 70.5 533.32 C 69.4 533.07 66.97 532.39 65.11 531.81 L 61.72 530.75 L 62.32 522.13 C 62.98 512.81 66.37 491.85 70.84 469.5 C 73.38 456.77 73.87 455.39 76.2 454.25 C 77.61 453.56 80.73 449.75 83.13 445.78 C 88.72 436.53 88.93 432.23 84.22 423.24 C 81.68 418.38 81.17 416.55 81.95 415.1 C 82.93 413.27 83.14 413.27 90.23 415.31 C 96.8 417.2 100.14 417.41 125 417.44 C 144.41 417.46 150.69 417.33 154.2 416.48 C 144.52 420.17 135.98 421.25 114.5 421.85 L 91.5 422.5 L 91.2 426.67 C 91.03 428.97 90.24 431.38 89.45 432.04 C 88.65 432.7 88 434.03 88 434.98 C 88 435.94 86.7 439.37 85.11 442.61 C 81.95 449.04 79.27 463.56 78.28 479.7 C 77.59 490.87 78.76 494.6 83.37 495.87 C 85.09 496.35 87.85 496.54 89.5 496.3 C 94.01 495.64 104.4 491.89 105.25 490.62 C 105.55 490.18 106.49 487.66 107.62 484.37 C 103.69 496.02 99.43 509.24 95.43 522.28 C 92.06 533.29 91.11 534.04 80.53 533.88 C 76.11 533.82 71.6 533.57 70.5 533.32 Z M 133.09 441.81 C 135.47 440.83 137.46 439.86 138.08 439.34 C 138.95 438.6 140.11 438 140.67 438 C 141.3 438 141.92 445.19 142.31 456.8 C 143.01 477.62 144.99 487.08 149.62 491.71 C 151.84 493.93 152.6 494.11 157.29 493.47 C 160.16 493.08 163.73 492.13 165.24 491.36 C 166.75 490.59 168.32 489.86 168.74 489.73 C 168.97 489.66 169.14 489.27 169.27 488.59 C 169.08 502.82 168.2 520.62 167.16 526.5 C 166.55 529.91 165.94 530.67 162.97 531.69 C 158.64 533.18 146.73 533.33 141.78 531.96 C 139.74 531.39 138.3 531.01 137.3 530.13 C 134.93 528.07 134.96 523.24 135.06 506.71 L 135.06 506.11 L 135.19 484.44 L 131.46 470.47 C 131.05 468.91 130.66 467.47 130.31 466.16 C 127.75 456.69 126.87 453.41 127.98 451.08 C 128.72 449.52 130.35 448.39 132.97 446.11 C 136.34 443.17 138.92 440.58 138.69 440.36 C 138.4 440.07 136 440.76 133.09 441.81 Z M 66.19 404.25 C 66.22 402.49 66.18 400.17 66.11 397.08 C 66.09 395.99 66.07 394.8 66.04 393.5 C 65.79 379.65 65.24 378.31 57.92 373.76 C 55.21 372.08 53 370.32 53 369.85 C 53 369.38 55.36 369 58.25 368.99 L 63.5 368.98 L 68.5 362.39 C 71.25 358.77 75.46 353.33 77.85 350.29 C 80.24 347.26 82.59 343.44 83.06 341.8 C 84.78 335.79 81.18 324.88 74.78 316.75 C 72.44 313.78 71.15 313 68.55 313 C 66.75 313 64.12 313.9 62.72 315.01 C 61.07 316.3 58.71 319.81 56.01 324.83 C 57.53 321.84 58.96 319.21 60.14 317.29 C 64.34 310.46 80.56 301.12 92.66 298.55 C 95.39 297.97 95.92 298.2 96.53 300.19 C 98.07 305.26 106 312.96 114.34 317.61 C 110.62 315.58 106.7 312.69 102.5 308.93 C 99.6 306.33 99.29 306.27 93 307.21 C 82.83 308.74 82.39 308.86 79.98 310.82 L 77.7 312.66 L 81.72 320.68 C 84.6 326.43 85.94 330.58 86.45 335.35 C 86.84 339.01 87.55 342 88.02 342 C 88.5 342 89.63 340.99 90.53 339.75 C 92.1 337.61 92.16 337.95 91.73 346.5 C 91.23 356.33 93.13 373 95.33 378.21 C 97.11 382.41 99.38 384.39 105.48 387.09 C 111.12 389.59 125.52 391.98 134.95 391.99 C 143.4 392 141.87 393.48 131.5 395.34 C 127.1 396.13 121.93 397.49 120 398.35 C 116.75 399.81 116.72 399.91 126.33 399.92 C 110.84 400.26 93.97 399.14 85.25 396.46 C 82.96 395.76 82.67 394.87 82.96 389.48 C 83.04 387.82 82.4 381.94 81.52 376.41 L 79.92 366.36 L 83 359.49 C 85.47 353.99 86.03 351.52 85.79 347.14 C 85.63 344.12 85.03 341.5 84.45 341.31 C 83.88 341.12 82.57 343.34 81.55 346.23 C 80.52 349.13 77.05 356.79 73.83 363.26 L 67.97 375.03 L 65.49 373.4 C 62.49 371.44 62.18 372.56 65.03 375.03 C 66.96 376.7 67.04 377.64 66.6 393 C 66.47 397.33 66.33 401.3 66.19 404.25 Z M 88.03 210.04 C 86.04 208.78 86.62 201.4 89.02 197.5 C 91.95 192.73 97.09 188.68 103.83 185.69 C 101.46 186.85 99.96 188.06 99.67 189.16 C 99.26 190.72 99.52 191.01 100.82 190.51 C 106.83 188.19 118.25 186.79 127 187.3 C 141.53 188.15 151.57 192.24 162.07 201.57 C 165.02 204.19 167.08 205.6 168.18 205.85 C 167.13 206.21 165.25 205.64 163.66 204.25 C 162.56 203.29 162.01 203.1 162.44 203.83 C 163.07 204.92 161.17 205.03 151.86 204.47 C 137.8 203.62 118.44 205.21 102.52 208.51 C 101.58 208.71 100.7 208.89 99.89 209.06 C 91.39 210.83 90.01 211.12 88.99 210.64 C 88.69 210.5 88.43 210.29 88.03 210.04 Z M 109.14 412.9 C 102.89 412.45 96.36 411.65 94.64 411.13 C 92.91 410.61 90.23 409.9 88.69 409.55 C 86.33 409.03 85.93 408.49 86.19 406.22 C 86.29 405.29 86.34 404.64 86.69 404.26 C 87.43 403.41 89.58 403.79 96.8 405.09 L 97.5 405.22 C 112.32 407.88 143.18 406.43 157.75 402.39 C 159.74 401.84 160 402.13 160 404.92 C 160 409.77 154.46 411.69 136.74 412.96 C 128.91 413.52 122.05 413.92 121.5 413.85 C 120.95 413.77 115.39 413.35 109.14 412.9 Z M 163.15 559.93 C 156.02 558.52 152.83 556.07 150.91 550.53 C 149.98 547.82 149.44 545.02 149.71 544.31 C 150.39 542.53 157.28 540.6 160.28 541.36 C 161.63 541.69 166.82 544.66 171.82 547.93 C 176.81 551.21 182.27 554.61 183.95 555.47 C 185.63 556.34 187 557.47 187 557.98 C 187 560.58 172.49 561.76 163.15 559.93 Z M 59.25 560.97 C 56.31 559.79 56.3 556.01 59.24 550.79 C 63.12 543.88 69.35 542.27 77.46 546.09 C 82.91 548.65 83.8 549.69 85.55 555.49 C 86.91 560.02 86.9 560.09 84.4 561.04 C 81.24 562.24 62.28 562.19 59.25 560.97 Z M 185.44 411.27 C 186.43 411.34 187.4 411.42 188.26 411.49 C 187.5 411.54 186.62 411.58 185.6 411.59 C 180.97 411.65 178.2 412.27 175.55 413.84 C 173.53 415.03 171.52 416 171.08 416 C 169.26 416 167.13 399.51 167.7 389.81 L 168.27 380.11 L 173.09 376.31 C 173.42 376.05 173.73 375.8 174.04 375.54 C 171.77 377.62 170.99 379.03 171.32 380.43 C 172.62 386.01 175.28 395.31 177.7 402.7 L 180.38 410.91 L 185.44 411.27 Z M 78.47 230.74 C 78.13 229.39 78 226.75 78.18 224.89 C 78.45 221.98 79.16 221.17 83.09 219.22 C 86.57 217.49 93.52 215.4 101.19 213.61 C 96.11 215.35 95.41 217.8 97.09 223.81 C 98.12 227.51 98.61 228.07 100.4 227.58 C 103.22 226.81 108.17 226.1 114.19 225.5 C 103.85 226.84 92.2 229.34 81.3 232.56 C 79.52 233.08 78.97 232.73 78.47 230.74 Z M 42.49 416.99 C 41.08 414.71 38.01 390.19 38.01 381.15 C 38 372.74 39.43 364.57 41.96 358.5 C 42.07 358.24 42.25 357.76 42.5 357.11 L 42.51 375 C 42.52 389.7 42.99 397.14 44.42 405.25 C 45.47 411.16 46.49 416 46.7 416 C 46.91 416 48.75 415.15 50.79 414.11 C 52.82 413.08 57.03 411.64 60.18 410.9 L 60 410.94 C 56.97 411.67 52.25 413.44 49.5 414.88 C 46.75 416.31 44.2 417.63 43.84 417.8 C 43.48 417.97 42.87 417.6 42.49 416.99 Z M 166.34 329.67 L 166.64 330.5 C 169.63 338.89 170.65 343.82 172.1 356.82 C 173.21 366.78 173.65 368.37 175.76 370.03 L 177.2 371.16 C 175.76 370.8 172.61 371.14 170.93 372.04 C 169.06 373.04 169 372.59 168.97 358.29 C 168.94 346.72 167.87 335.55 166.34 329.67 Z M 108.31 482.34 C 108.56 481.58 108.82 480.8 109.08 480.01 C 114.21 464.14 119.88 449.41 121.74 447.07 C 120.04 449.3 114.67 463.59 108.31 482.34 Z M 169.25 477.67 C 168.75 469.48 167.51 457.65 165.66 443.79 C 167.86 459.7 168.03 461.3 168.98 472 C 169.11 473.45 169.2 475.38 169.25 477.67 Z M 114.85 210.89 C 117.42 210.47 119.88 210.13 122.15 209.9 C 126.72 209.42 132.84 209.19 139.15 209.18 C 130.9 209.34 122.27 209.93 114.85 210.89 Z M 64.12 409.9 C 64.46 409.76 64.74 409.59 64.98 409.37 C 65.61 408.8 65.93 407.9 66.09 406.29 C 65.98 408.21 65.88 409.36 65.82 409.41 C 65.73 409.46 65.1 409.65 64.12 409.9 Z M 124.89 180.56 C 134.27 179.92 143.16 181.63 150.83 185.51 C 143.26 181.76 134.21 179.96 124.89 180.56 Z M 162.99 359.33 C 163.35 353.85 163.68 347.74 163.86 342.5 L 164.03 337.88 C 163.97 343.27 163.56 351.75 162.99 359.33 Z M 161.03 391.93 C 161.77 390.08 161.9 387.75 161.37 385.12 C 161.09 383.68 161.29 378.47 161.83 373.06 C 161.37 379.19 161.18 384.14 161.4 385.25 C 161.91 387.81 161.77 390.1 161.03 391.93 Z M 164.42 326.72 L 164.5 324.5 L 165.2 326.46 C 165.18 326.42 165.15 326.38 165.13 326.34 C 164.82 325.81 164.59 325.88 164.42 326.72 Z M 146.03 223.71 C 155.34 223.53 163.63 223.7 168.25 224.34 C 164.1 223.76 155.48 223.58 146.03 223.71 Z M 122.09 446.72 C 123.21 445.82 126.47 444.26 129.73 443.08 C 126.39 444.42 123.15 445.9 122.09 446.72 Z M 191.99 410.31 C 191.85 408.72 190.12 400.65 188.22 392.34 C 190.2 400.94 192 409.26 192 410.23 C 192 410.26 192 410.29 191.99 410.31 Z M 168.96 204.29 C 168.64 203.22 167.84 201.63 166.54 199.52 C 167.84 201.46 168.76 203.2 168.96 204.29 Z M 137.91 318.05 C 140.79 315.96 142.94 312.92 143.98 309.06 C 142.94 312.93 140.89 315.95 137.91 318.05 Z M 177.96 371.76 L 178.16 371.92 L 176.92 373.01 C 177.56 372.39 177.94 371.93 177.96 371.76 Z M 115.02 182.05 C 116.22 181.78 117.46 181.53 118.72 181.31 C 118.79 181.3 118.86 181.29 118.93 181.27 C 117.58 181.51 116.28 181.77 115.02 182.05 Z" fill="rgb(34,67,40)" style=""/>
    <path d="M 185.44 411.27 L 180.38 410.91 L 177.7 402.7 C 175.28 395.31 172.62 386.01 171.32 380.43 C 170.99 379.03 171.77 377.62 174.04 375.54 C 175.2 374.6 176.22 373.7 176.92 373.01 L 178.16 371.92 L 177.96 371.76 L 177.96 371.75 C 177.97 371.47 177.68 371.28 177.2 371.16 L 175.76 370.03 C 173.65 368.37 173.21 366.78 172.1 356.82 C 170.65 343.82 169.63 338.89 166.64 330.5 L 166.34 329.67 C 165.98 328.29 165.6 327.2 165.2 326.46 L 164.5 324.5 L 164.42 326.72 C 164.15 328.05 164.04 331.29 164.03 337.06 C 164.03 337.33 164.03 337.6 164.03 337.88 L 163.86 342.5 C 163.68 347.74 163.35 353.85 162.99 359.33 C 162.82 361.7 162.63 363.99 162.43 366.06 C 162.2 368.47 162 370.84 161.83 373.06 C 161.29 378.47 161.09 383.68 161.37 385.12 C 161.9 387.75 161.77 390.07 161.03 391.93 C 160.37 393.57 159.25 394.85 157.7 395.66 C 152.82 398.18 140.12 399.63 126.33 399.92 C 116.72 399.91 116.75 399.81 120 398.35 C 121.93 397.49 127.1 396.13 131.5 395.34 C 141.87 393.48 143.4 392 134.95 391.99 C 125.52 391.98 111.12 389.59 105.48 387.09 C 99.38 384.39 97.11 382.41 95.33 378.21 C 93.13 373 91.23 356.33 91.73 346.5 C 92.16 337.95 92.1 337.61 90.53 339.75 C 89.63 340.99 88.5 342 88.02 342 C 87.55 342 86.84 339.01 86.45 335.35 C 85.94 330.58 84.6 326.43 81.72 320.68 L 77.7 312.66 L 79.98 310.82 C 82.39 308.86 82.83 308.74 93 307.21 C 99.29 306.27 99.6 306.33 102.5 308.93 C 106.7 312.69 110.62 315.58 114.34 317.61 C 114.77 317.86 115.21 318.09 115.65 318.32 C 123.85 322.56 132.27 322.14 137.91 318.05 C 140.89 315.95 142.94 312.93 143.98 309.06 C 144.55 306.94 145.7 304.94 146.53 304.63 C 148.95 303.7 158.57 307.8 163.94 312.05 C 172.22 318.6 176 328.7 179.98 355 C 181.1 362.42 182.66 370.52 183.44 373 C 184.24 375.53 186.31 384.07 188.22 392.34 L 188.22 392.35 C 190.12 400.66 191.85 408.72 191.99 410.31 C 191.9 410.95 190.73 411.32 188.26 411.49 C 187.4 411.42 186.43 411.34 185.44 411.27 Z M 133.09 441.81 C 132.01 442.2 130.86 442.63 129.73 443.08 C 126.47 444.26 123.21 445.82 122.09 446.72 C 122.01 446.78 121.94 446.84 121.89 446.89 C 121.84 446.94 121.79 447 121.74 447.07 C 119.88 449.42 114.21 464.14 109.08 480.01 C 108.82 480.8 108.56 481.58 108.31 482.34 C 108.08 483.01 107.85 483.69 107.62 484.37 C 106.49 487.66 105.55 490.18 105.25 490.62 C 104.4 491.89 94.01 495.64 89.5 496.3 C 87.85 496.54 85.09 496.35 83.37 495.87 C 78.76 494.6 77.59 490.87 78.28 479.7 C 79.27 463.56 81.95 449.04 85.11 442.61 C 86.7 439.37 88 435.94 88 434.98 C 88 434.03 88.65 432.7 89.45 432.04 C 90.24 431.38 91.03 428.97 91.2 426.67 L 91.5 422.5 L 114.5 421.85 C 135.98 421.25 144.52 420.17 154.2 416.48 C 155.06 416.27 155.75 416.02 156.43 415.71 C 160.98 413.67 161.64 414.19 162.47 420.5 C 162.75 422.7 163.9 431.02 165 439 C 165.24 440.73 165.46 442.32 165.66 443.79 C 167.51 457.65 168.75 469.48 169.25 477.67 C 169.32 480.78 169.32 484.54 169.27 488.59 C 169.14 489.27 168.97 489.66 168.74 489.73 C 168.32 489.86 166.75 490.59 165.24 491.36 C 163.73 492.13 160.16 493.08 157.29 493.47 C 152.6 494.11 151.84 493.93 149.62 491.71 C 144.99 487.08 143.01 477.62 142.31 456.8 C 141.92 445.19 141.3 438 140.67 438 C 140.11 438 138.95 438.6 138.08 439.34 C 137.46 439.86 135.47 440.83 133.09 441.81 Z M 66.19 404.25 C 66.15 405 66.12 405.68 66.09 406.29 C 65.93 407.9 65.61 408.8 64.98 409.37 C 64.74 409.59 64.46 409.76 64.12 409.9 C 63.1 410.18 61.7 410.53 60.18 410.9 C 57.03 411.64 52.82 413.08 50.79 414.11 C 48.75 415.15 46.91 416 46.7 416 C 46.49 416 45.47 411.16 44.42 405.25 C 42.99 397.14 42.52 389.7 42.51 375 L 42.5 357.11 C 43.28 355.04 44.66 351.27 46.01 347.5 C 48.22 341.33 52.36 332.05 56.01 324.83 C 58.71 319.81 61.07 316.3 62.72 315.01 C 64.12 313.9 66.75 313 68.55 313 C 71.15 313 72.44 313.78 74.78 316.75 C 81.18 324.88 84.78 335.79 83.06 341.8 C 82.59 343.44 80.24 347.26 77.85 350.29 C 75.46 353.33 71.25 358.77 68.5 362.39 L 63.5 368.98 L 58.25 368.99 C 55.36 369 53 369.38 53 369.85 C 53 370.32 55.21 372.08 57.92 373.76 C 65.24 378.31 65.79 379.65 66.04 393.5 C 66.07 394.8 66.09 395.99 66.11 397.08 C 66.18 400.17 66.22 402.49 66.19 404.25 Z M 114.85 210.89 C 122.27 209.93 130.9 209.34 139.15 209.18 C 150.6 209.15 162.67 209.84 167.33 211.04 C 172.73 212.42 174 214.35 174 221.14 L 174 225.14 L 168.25 224.34 C 164.1 223.76 155.48 223.58 146.03 223.71 C 134.81 223.87 122.41 224.48 114.92 225.41 C 114.68 225.44 114.43 225.47 114.19 225.5 C 108.17 226.1 103.22 226.81 100.4 227.58 C 98.61 228.07 98.12 227.51 97.09 223.81 C 95.41 217.8 96.11 215.35 101.19 213.61 C 105.68 212.56 110.41 211.61 114.85 210.89 Z" fill="rgb(62,108,39)" style=""/>
    <path d="M 168.96 204.29 C 168.99 204.44 169 204.57 169 204.7 C 169 205.3 168.69 205.68 168.18 205.85 C 167.08 205.6 165.02 204.19 162.07 201.57 C 151.57 192.24 141.53 188.15 127 187.3 C 118.25 186.79 106.83 188.19 100.82 190.51 C 99.52 191.01 99.26 190.72 99.67 189.16 C 99.96 188.06 101.46 186.85 103.83 185.69 C 107.18 184.2 110.94 182.98 115.02 182.05 C 116.28 181.77 117.58 181.51 118.93 181.27 C 120.93 180.93 122.92 180.7 124.89 180.56 C 134.21 179.96 143.26 181.76 150.83 185.51 C 153.67 186.95 156.35 188.68 158.81 190.7 C 161.42 192.84 164.46 196.42 166.54 199.52 C 167.84 201.63 168.64 203.22 168.96 204.29 Z" fill="rgb(76,104,87)" style=""/>
    <path d="M 119.512 313.657 C 118.852 313.227 116.344 312.336 115.55 311.79 C 114.962 311.386 112.762 309.819 110.62 308 C 108.501 306.2 104 302.12 104 297.86 C 104 294.18 104.18 293.92 106.25 294.57 C 107.49 294.95 108.72 295.6 109 296 C 109.28 296.4 111.97 298.12 115 299.82 C 120.67 303 131.07 305.96 136.7 305.99 C 138.68 305.99 139.42 306.05 139.44 306.81 C 139.41 306.04 138.62 306 136.45 306 C 134.27 306 133.09 306.45 133.25 307.22 C 133.72 309.49 126.89 312.13 122.25 311.48 C 118.19 310.9 117.572 312.247 119.512 313.657 Z M 51.13 449.72 C 45.96 447.24 42.98 431.8 46.4 425.19 C 47.05 423.94 48.26 422.7 49.88 421.56 C 47.85 423.13 46.55 424.97 45.98 427.09 C 45.38 429.31 45.06 432.79 45.28 434.82 C 45.64 438.32 45.67 438.28 45.85 434 C 46.17 426.16 47.71 426.1 48.49 433.9 C 49.36 442.58 50.59 443.6 58.91 442.52 C 66.79 441.5 73.27 441.87 74.84 443.43 C 75.96 444.53 75.81 445.1 73.9 446.88 C 73.15 447.58 72.64 448.21 72.47 448.59 C 71.63 448.65 70.73 448.47 69.65 448.06 C 66.01 446.67 66 446.67 66 449 C 66 451.41 62.75 451.65 59 449.5 C 55.94 447.75 54.92 447.65 55.25 449.12 C 55.61 450.77 53.84 451.02 51.13 449.72 Z M 184.32 444.14 C 183.28 442.48 183.59 442.14 187.08 441.09 C 190.33 440.12 192.34 438.39 193.72 435.27 C 193.2 436.75 193.56 436.59 195.81 435.41 C 198.4 434.06 198.51 434.11 198.84 436.75 C 199.1 438.85 198.41 440.13 195.88 442.24 C 194.24 443.61 193.33 444.75 193.66 444.96 C 189.89 446.43 185.75 446.43 184.32 444.14 Z M 183.38 428.61 C 180.98 427.59 177.82 428.09 175.35 430.56 C 173.94 431.97 172.67 432.98 172.52 432.81 C 172.38 432.64 171.96 430.47 171.6 427.99 C 171.04 424.11 171 423.54 173.75 421.68 C 173.65 421.79 173.57 421.89 173.5 422 C 172.94 422.9 173.24 422.94 174.68 422.17 C 177.14 420.86 178.7 421.84 179.15 424.96 C 179.39 426.62 180.31 427.6 182 427.99 C 182.46 428.09 182.92 428.3 183.38 428.61 Z M 175.59 445.92 C 172.65 442.44 172.42 441.44 174.36 440.69 C 175.78 440.15 182 446.03 182 447.91 C 182 450.12 178.1 448.91 175.59 445.92 Z M 179.12 437.18 C 178.87 436.6 178.68 435.92 178.52 435.13 C 178.15 433.18 178.47 432.91 180.79 433.15 C 182.28 433.3 184.29 434.07 185.25 434.87 C 186.81 436.15 187 436.1 187 434.38 C 187 434.05 186.98 433.74 186.94 433.44 C 187.85 435.41 187.64 435.77 186.31 436.75 C 185.38 437.44 183.62 438 182.39 438 C 181.17 438 179.94 437.44 179.66 436.75 C 179.35 435.96 179.13 435.92 179.08 436.63 C 179.07 436.82 179.08 437 179.12 437.18 Z M 76.66 442.99 C 75.34 442.88 73.55 440.63 72.42 438.22 C 73 439.01 73.72 439.83 74.5 440.56 C 75.46 441.47 76.18 442.27 76.66 442.99 Z M 200.51 438.81 C 200.38 439.2 200.23 439.57 200.05 439.91 C 199.16 441.56 197.56 442.97 195.68 444.02 C 196.45 443.45 197.33 442.69 198.15 441.85 C 199.37 440.6 200.1 439.74 200.51 438.81 Z M 73.77 431.93 C 74.24 432.51 74.81 433.45 75.5 434.74 C 75.98 435.64 76.47 436.39 76.95 436.99 C 75.82 435.63 74.6 433.75 73.77 431.93 Z M 74.69 447.9 C 75.64 447.16 76.65 446.17 77.3 445.32 C 77.1 446.26 76.23 447.07 74.69 447.9 Z M 81.76 431.78 C 81.36 429.39 80.26 427.03 78.55 424.84 C 80.14 426.76 81.24 428.74 81.56 430.48 C 81.64 430.92 81.71 431.35 81.76 431.78 Z M 195.12 421.28 C 197.35 423.92 199.2 427.53 200.17 431.03 C 199.2 427.7 197.21 423.95 195.12 421.28 Z M 71.48 433.22 C 71.9 431.69 72.32 431 72.92 431.2 C 72.45 431.42 71.88 432.24 71.48 433.22 Z M 77.52 437.65 C 78.72 438.87 79.84 439.14 80.65 438.39 C 80.31 438.78 79.92 439 79.47 439 C 79.01 439 78.3 438.48 77.52 437.65 Z M 182.46 439.63 C 181.38 439.67 180.51 439.27 179.84 438.43 C 180.48 439.07 181.45 439.52 182.46 439.63 Z M 178.3 418.98 C 179.84 418.25 181.37 417.73 182.89 417.43 C 181.42 417.79 179.79 418.35 178.3 418.98 Z M 194.45 433.3 C 194.48 433.2 194.51 433.1 194.54 433 C 195.2 430.77 194.8 430.94 190.79 434.64 C 189.86 435.49 188.99 436.23 188.16 436.87 C 189 436.21 189.85 435.49 190.65 434.76 C 194.81 430.92 195.44 430.51 194.45 433.3 Z M 121.48 314.6 C 124.59 315.9 127.94 316.09 130.89 315.38 C 127.92 316.1 124.56 315.92 121.48 314.6 Z M 200.75 433.78 C 200.84 434.45 200.9 435.1 200.9 435.73 C 200.88 435.2 200.83 434.61 200.77 433.93 C 200.76 433.88 200.76 433.83 200.75 433.78 Z" fill="rgb(238,123,49)" style=""/>
    <path d="M 131.1 297.404 C 117.334 296.179 101.31 282.5 95.36 272.35 C 93.33 268.89 92.25 268 90.06 268 C 87.83 268 81.84 266.893 76.356 260.528 C 69.86 252.989 74.906 242.973 80.533 241.161 C 82.114 240.652 85.588 240.067 89.004 243.52 C 99.657 254.287 99.567 248.2 99.84 242.08 C 100.02 238.14 99.91 236.03 100.88 234.74 C 102.2 232.99 106.022 232.294 114.892 231.054 C 115.932 230.914 132.943 230.034 132.283 229.924 C 147.233 229.394 164.61 229.97 167.85 231.1 C 172.29 232.64 171.77 233.63 166.18 234.29 C 158.12 235.25 170 238.63 170 238.05 C 170 237.47 170.471 236.754 171.021 236.754 C 172.444 236.754 172.601 243.772 172.329 246.71 C 171.044 260.585 169.321 274.182 160.189 285.948 C 150.472 298.467 146.502 298.775 131.1 297.404 Z M 76.66 442.99 C 77.24 443.87 77.46 444.63 77.3 445.32 C 76.65 446.17 75.64 447.16 74.69 447.9 L 74.66 447.92 C 73.9 448.32 73.21 448.54 72.47 448.59 C 72.64 448.21 73.15 447.58 73.9 446.88 C 75.81 445.1 75.96 444.53 74.84 443.43 C 73.27 441.87 66.79 441.5 58.91 442.52 C 50.59 443.6 49.36 442.58 48.49 433.9 C 47.71 426.1 46.17 426.16 45.85 434 C 45.67 438.28 45.64 438.32 45.28 434.82 C 45.06 432.79 45.38 429.31 45.98 427.09 C 46.55 424.97 47.85 423.13 49.88 421.56 C 52.55 419.67 56.36 418.04 60.64 417.05 C 65.28 415.97 66.19 416.06 69.87 417.93 C 73.25 419.66 76.37 422.2 78.55 424.84 C 80.26 427.03 81.36 429.39 81.76 431.78 C 82.08 434.69 81.62 437.26 80.65 438.39 C 79.84 439.14 78.72 438.87 77.52 437.65 C 77.34 437.45 77.14 437.23 76.95 436.99 C 76.47 436.39 75.98 435.64 75.5 434.74 C 74.81 433.45 74.24 432.51 73.77 431.93 C 73.7 431.78 73.64 431.64 73.58 431.5 C 73.43 431.15 73.19 431.08 72.92 431.2 C 72.32 431 71.9 431.69 71.48 433.22 C 71.21 433.91 71.02 434.67 71.02 435.38 C 71.01 436 71.56 437.07 72.42 438.22 C 73.55 440.63 75.34 442.88 76.66 442.99 Z M 183.38 428.61 C 182.92 428.3 182.46 428.09 182 427.99 C 180.31 427.6 179.39 426.62 179.15 424.96 C 178.7 421.84 177.14 420.86 174.68 422.17 C 173.24 422.94 172.94 422.9 173.5 422 C 173.57 421.89 173.65 421.79 173.75 421.68 C 174.15 421.4 174.62 421.1 175.16 420.75 C 176.22 420.06 177.26 419.47 178.3 418.98 C 179.79 418.35 181.42 417.79 182.89 417.43 C 185.07 417.01 187.26 417.01 189.52 417.44 C 191.46 417.8 193.4 419.25 195.12 421.28 C 197.21 423.95 199.2 427.7 200.17 431.03 C 200.43 431.96 200.63 432.88 200.75 433.78 C 200.83 434.61 200.88 435.2 200.9 435.73 C 200.92 436.85 200.79 437.89 200.51 438.81 C 200.1 439.74 199.37 440.6 198.15 441.85 C 197.33 442.69 196.45 443.45 195.68 444.02 C 195.04 444.38 194.36 444.7 193.66 444.96 C 193.33 444.75 194.24 443.61 195.88 442.24 C 198.41 440.13 199.1 438.85 198.84 436.75 C 198.51 434.11 198.4 434.06 195.81 435.41 C 193.56 436.59 193.2 436.75 193.72 435.27 C 193.98 434.66 194.22 434.01 194.45 433.3 C 195.44 430.51 194.81 430.92 190.65 434.76 C 189.85 435.49 189 436.21 188.16 436.87 C 185.86 438.64 183.96 439.56 182.46 439.63 C 181.45 439.52 180.48 439.07 179.84 438.43 C 179.57 438.09 179.33 437.67 179.12 437.18 C 179.08 437 179.07 436.82 179.08 436.63 C 179.13 435.92 179.35 435.96 179.66 436.75 C 179.94 437.44 181.17 438 182.39 438 C 183.62 438 185.38 437.44 186.31 436.75 C 187.64 435.77 187.85 435.41 186.94 433.44 C 186.65 431.07 185.24 429.39 183.38 428.61 Z M 121.37 314.56 C 120.49 314.18 119.61 313.7 118.91 313.24 C 116.97 311.83 118.19 310.9 122.25 311.48 C 126.89 312.13 133.72 309.49 133.25 307.22 C 133.09 306.45 134.27 306 136.45 306 C 138.62 306 139.41 306.04 139.44 306.81 C 139.45 307.22 139.25 307.83 138.93 308.75 C 137.76 312.11 134.63 314.46 130.89 315.38 C 127.94 316.09 124.59 315.9 121.48 314.6 C 121.44 314.59 121.41 314.57 121.37 314.56 Z M 144.81 282.91 C 149.92 281.72 151.59 281.36 151.7 280.72 C 151.76 280.41 151.45 280.04 150.99 279.49 C 150.96 279.45 150.93 279.41 150.9 279.37 C 149.81 278.07 148.03 277.85 141.26 278.21 C 132.31 278.68 129.85 279.8 132.13 282.38 C 133.76 284.22 138.35 284.41 144.81 282.91 Z M 89 260.68 C 89 257.92 85.93 249.19 84.56 248.05 C 83.5 247.17 82.6 247.15 81.06 247.97 C 78.44 249.37 78.4 251 80.98 251 C 82.32 251 83.18 251.9 83.62 253.75 C 85.04 259.65 89 264.76 89 260.68 Z" fill="rgb(248,174,100)" style=""/>
    <path d="M 89.53 568.55 C 95.1 566.22 95.68 563.55 92.62 554.35 C 92.48 553.93 92.35 553.53 92.22 553.13 C 93.22 555.97 94.24 558.58 94.58 559.14 C 95.01 559.83 96.93 560.01 99.77 559.62 C 102.25 559.28 110.68 559 118.5 559 L 132.71 559 L 132.72 556.92 C 133.18 559.66 134.75 561.54 137.65 563.23 C 142.74 566.2 157.11 568.3 173.04 568.4 C 185.47 568.49 187.98 568.24 190.33 566.7 C 193.39 564.7 194.86 561.64 194.48 558.18 C 195.2 561.37 195.91 562.14 198.64 563.04 C 200.49 563.66 202 564.5 202 564.92 C 202 566.49 194.11 567.92 181.78 568.6 C 174.78 568.98 169.25 569.6 169.49 569.99 C 169.73 570.37 160.42 570.98 148.8 571.34 C 124.78 572.09 78.56 572.23 77.88 571.55 C 77.64 571.3 71.38 570.85 63.97 570.54 C 43.92 569.71 32.35 567.14 35.5 564.2 C 37.06 562.75 45.97 560.86 48.09 561.53 C 49.28 561.91 49.75 561.78 49.92 560.54 C 50.29 567.45 57.76 569.84 74.28 569.93 C 82.44 569.98 87.13 569.55 89.53 568.55 Z M 133.9 540.04 C 134.16 542.85 133.87 546.36 133.04 550.8 C 133.17 549.1 133.33 547.21 133.5 545.39 C 133.73 543.04 133.87 541.35 133.9 540.04 Z M 193.69 555.29 C 192.66 553.34 190.21 551.6 183.24 547.44 C 177.65 544.11 172.18 540.56 171.06 539.56 C 172.18 540.56 177.67 544.11 183.28 547.44 C 190.68 551.83 192.75 553.15 193.69 555.29 Z M 130.55 531.77 C 129.54 529.14 129.37 524.36 128.91 507.7 C 129.36 524.29 129.56 529.15 130.55 531.77 Z M 50.01 558.41 C 50.06 557.29 50.49 555.63 51.22 553.65 C 50.59 555.4 50.19 556.98 50.01 558.41 Z M 90.04 542.55 C 90.07 540.9 90.5 540 91.37 540 C 90.55 540 90.11 540.96 90.04 542.55 Z" fill="rgb(209,204,188)"/>
    <path d="M 89.53 568.55 C 87.13 569.55 82.44 569.98 74.28 569.93 C 49.72 569.79 45.16 564.59 54.19 546.99 C 58.18 539.2 58.31 538.68 56.96 535.66 C 56.02 533.58 55.62 529.69 55.78 524.3 C 56 516.49 60.9 485.5 64.86 466.75 L 66.72 458 L 60.17 458 C 45.5 458 38.96 450.47 38.44 433 C 38.32 428.88 37.53 423.7 36.7 421.5 C 34.52 415.76 32 393.37 32 379.82 C 32 366.46 33.9 358.51 41.28 341 C 54.89 308.73 59.53 303.8 86.41 293.01 C 91.31 291.04 95.78 288.71 96.34 287.82 C 97.14 286.56 96.45 285.19 93.18 281.47 C 90.88 278.85 89 276.37 89 275.94 C 89 275.51 86.71 274.4 83.91 273.47 C 77.65 271.39 72.28 266.82 69.86 261.51 C 67.36 256 67.46 246.78 70.08 241 C 71.79 237.25 72.02 235.35 71.47 229.5 C 70.99 224.33 71.21 221.45 72.34 218.5 C 73.18 216.3 74.34 212.12 74.93 209.22 C 77.98 194.06 89.71 182.16 107.34 176.33 C 114.36 174.01 117.18 173.63 127.5 173.61 C 143.85 173.58 153.12 176.55 164.31 185.42 C 169.23 189.31 175.55 198.79 176.46 203.63 C 176.85 205.71 178.07 209.17 179.16 211.32 C 180.74 214.42 181.06 216.52 180.66 221.37 C 180.39 224.74 179.71 234.09 179.15 242.14 C 177.44 266.67 172.17 283.14 162.69 293.61 C 157.44 299.42 157.5 299.71 165 304.74 C 171.85 309.33 175.03 312.92 178.1 319.5 C 181.64 327.1 184.29 337.37 186.49 352 C 187.43 358.33 190.6 373.4 193.53 385.5 C 196.45 397.6 199.12 409.59 199.46 412.13 C 199.82 414.81 200.91 417.51 202.02 418.52 C 204.65 420.9 208 430.18 208 435.09 C 208 439.16 206.08 443.99 203.13 447.36 C 198.95 452.12 183.15 456.95 177.81 455.08 C 176.09 454.48 174.45 454.21 174.18 454.48 C 173.91 454.75 174.21 458.69 174.85 463.24 C 176.33 473.82 176.32 491.8 174.83 514.38 C 173.76 530.65 173.45 532.51 171.35 535 L 169.05 537.73 L 171.06 539.55 C 172.17 540.56 177.65 544.1 183.24 547.44 C 191.78 552.53 193.53 554.01 194.21 556.67 C 195.25 560.74 193.83 564.41 190.33 566.7 C 187.98 568.24 185.47 568.49 173.04 568.4 C 157.11 568.3 142.74 566.2 137.65 563.23 C 133.01 560.53 131.8 557.33 133 550.98 C 134.63 542.38 134.27 537.28 131.77 533.9 C 129.67 531.06 129.51 529.59 128.91 507.7 C 128.34 486.51 128.05 483.68 125.56 475 C 124.06 469.77 122.47 465.12 122.03 464.66 C 121.29 463.9 108.55 501.02 101.07 525.68 C 98.01 535.78 95.15 540 91.37 540 C 89.22 540 89.71 545.62 92.62 554.35 C 95.68 563.55 95.1 566.22 89.53 568.55 Z M 42.49 416.99 C 42.87 417.6 43.48 417.97 43.84 417.8 C 44.2 417.63 46.75 416.31 49.5 414.88 C 52.25 413.44 56.97 411.67 60 410.94 C 63.03 410.21 65.64 409.52 65.82 409.41 C 65.99 409.29 66.34 401.91 66.6 393 C 67.04 377.64 66.96 376.7 65.03 375.03 C 62.18 372.56 62.49 371.44 65.49 373.4 L 67.97 375.03 L 73.83 363.26 C 77.05 356.79 80.52 349.13 81.55 346.23 C 82.57 343.34 83.88 341.12 84.45 341.31 C 85.03 341.5 85.63 344.12 85.79 347.14 C 86.03 351.52 85.47 353.99 83 359.49 L 79.92 366.36 L 81.52 376.41 C 82.4 381.94 83.04 387.82 82.96 389.48 C 82.67 394.87 82.96 395.76 85.25 396.46 C 101.74 401.52 147.33 401.02 157.7 395.66 C 160.99 393.95 162.36 390.09 161.4 385.25 C 161.1 383.74 161.57 375.1 162.43 366.06 C 163.29 357.02 164.01 343.97 164.03 337.06 C 164.05 327.66 164.33 324.96 165.13 326.34 C 167.27 330.02 168.93 343.85 168.97 358.29 C 169 372.59 169.06 373.04 170.93 372.04 C 173.17 370.84 178.02 370.64 177.96 371.75 C 177.94 372.16 175.75 374.21 173.09 376.31 L 168.27 380.11 L 167.7 389.81 C 167.13 399.51 169.26 416 171.08 416 C 171.52 416 173.53 415.03 175.55 413.84 C 178.2 412.27 180.97 411.65 185.6 411.59 C 190.05 411.53 192 411.11 192 410.23 C 192 408.32 185.07 378.16 183.44 373 C 182.66 370.52 181.1 362.42 179.98 355 C 176 328.7 172.22 318.6 163.94 312.05 C 158.57 307.8 148.95 303.7 146.53 304.63 C 145.7 304.94 144.55 306.94 143.98 309.06 C 140.9 320.51 128.03 324.72 115.65 318.32 C 106.84 313.77 98.15 305.53 96.53 300.19 C 95.92 298.2 95.39 297.97 92.66 298.55 C 80.56 301.12 64.34 310.46 60.14 317.29 C 56.12 323.83 49.13 338.77 46.01 347.5 C 44.24 352.45 42.42 357.4 41.96 358.5 C 39.43 364.57 38 372.74 38.01 381.15 C 38.01 390.19 41.08 414.71 42.49 416.99 Z M 70.5 533.32 C 71.6 533.57 76.11 533.82 80.53 533.88 C 91.11 534.04 92.06 533.29 95.43 522.28 C 106.4 486.46 119.42 449.35 121.89 446.89 C 123.56 445.23 137.96 439.62 138.69 440.36 C 138.92 440.58 136.34 443.17 132.97 446.11 C 130.35 448.39 128.72 449.52 127.98 451.08 C 126.87 453.41 127.75 456.69 130.31 466.16 C 130.66 467.47 131.05 468.91 131.46 470.47 L 135.19 484.44 L 135.06 506.11 L 135.06 506.71 C 134.96 523.24 134.93 528.07 137.3 530.13 C 138.3 531.01 139.74 531.39 141.78 531.96 C 146.73 533.33 158.64 533.18 162.97 531.69 C 165.94 530.67 166.55 529.91 167.16 526.5 C 168.72 517.72 169.91 482.35 168.98 472 C 167.94 460.32 167.84 459.48 165 439 C 163.9 431.02 162.75 422.7 162.47 420.5 C 161.64 414.19 160.98 413.67 156.43 415.71 C 152.98 417.26 149.15 417.47 125 417.44 C 100.14 417.41 96.8 417.2 90.23 415.31 C 83.14 413.27 82.93 413.27 81.95 415.1 C 81.17 416.55 81.68 418.38 84.22 423.24 C 88.93 432.23 88.72 436.53 83.13 445.78 C 80.73 449.75 77.61 453.56 76.2 454.25 C 73.87 455.39 73.38 456.77 70.84 469.5 C 66.37 491.85 62.98 512.81 62.32 522.13 L 61.72 530.75 L 65.11 531.81 C 66.97 532.39 69.4 533.07 70.5 533.32 Z M 130.38 296.59 C 138.51 298.56 143.07 298.27 148.8 295.41 C 160.15 289.76 167.84 275.82 170.92 255.31 C 172.27 246.29 172.32 237 171 237 C 170.45 237 170 237.47 170 238.05 C 170 238.63 168.62 239.58 166.94 240.17 C 164.7 240.95 164.05 241.68 164.51 242.87 C 165.26 244.8 165.27 244.85 165.12 247.75 C 164.98 250.34 161.7 254 159.52 254 C 158.71 254 157.28 252.83 156.34 251.4 C 154.96 249.29 154.85 248.25 155.73 245.9 C 156.6 243.59 156.55 243 155.47 243 C 154.73 243 153.87 242.59 153.56 242.09 C 151.76 239.18 158.12 235.25 166.18 234.29 C 171.77 233.63 172.29 232.64 167.85 231.1 C 163.07 229.43 127.4 229.71 114.42 231.52 C 105.55 232.76 102.2 232.99 100.88 234.74 C 99.91 236.03 100.02 238.14 99.84 242.08 C 99.36 252.82 98.19 253.44 91.54 246.41 C 87.22 241.84 85.88 241 82.87 241 C 77.83 241 75.71 243.72 75.25 250.79 C 74.97 255.07 75.36 257.37 76.79 259.98 C 78.94 263.86 85.78 268 90.06 268 C 92.25 268 93.33 268.89 95.36 272.35 C 101.31 282.5 116.95 293.33 130.38 296.59 Z M 88.03 210.04 C 88.43 210.29 88.69 210.5 88.99 210.64 C 90.01 211.12 91.39 210.83 99.89 209.06 C 100.7 208.89 101.58 208.71 102.52 208.51 C 118.44 205.21 137.8 203.62 151.86 204.47 C 161.17 205.03 163.07 204.92 162.44 203.83 C 162.01 203.1 162.56 203.29 163.66 204.25 C 166.01 206.31 169 206.56 169 204.7 C 169 202.23 163.26 194.35 158.81 190.7 C 148.23 182.03 133.9 178.67 118.72 181.31 C 104.65 183.76 93.84 189.65 89.02 197.5 C 86.62 201.4 86.04 208.78 88.03 210.04 Z M 78.47 230.74 C 78.97 232.73 79.52 233.08 81.3 232.56 C 92.46 229.26 104.39 226.72 114.92 225.41 C 128.73 223.69 159.18 223.08 168.25 224.34 L 174 225.14 L 174 221.14 C 174 214.35 172.73 212.42 167.33 211.04 C 160.1 209.18 135.01 208.55 122.15 209.9 C 109.26 211.25 89.79 215.89 83.09 219.22 C 79.16 221.17 78.45 221.98 78.18 224.89 C 78 226.75 78.13 229.39 78.47 230.74 Z M 51.13 449.72 C 53.84 451.02 55.61 450.77 55.25 449.12 C 54.92 447.65 55.94 447.75 59 449.5 C 62.75 451.65 66 451.41 66 449 C 66 446.67 66.01 446.67 69.65 448.06 C 71.67 448.83 73.03 448.79 74.66 447.92 C 78.3 445.97 78.25 444.11 74.5 440.56 C 72.57 438.75 71.01 436.42 71.02 435.38 C 71.03 433.07 72.99 430.12 73.58 431.5 C 75.1 435.05 78.2 439 79.47 439 C 81.4 439 82.4 434.94 81.56 430.48 C 80.79 426.35 75.73 420.92 69.87 417.93 C 66.19 416.06 65.28 415.97 60.64 417.05 C 53.76 418.65 48.11 421.88 46.4 425.19 C 42.98 431.8 45.96 447.24 51.13 449.72 Z M 109.14 412.9 C 115.39 413.35 120.95 413.77 121.5 413.85 C 122.05 413.92 128.91 413.52 136.74 412.96 C 154.46 411.69 160 409.77 160 404.92 C 160 402.13 159.74 401.84 157.75 402.39 C 143.18 406.43 112.32 407.88 97.5 405.22 L 96.8 405.09 C 89.58 403.79 87.43 403.41 86.69 404.26 C 86.34 404.64 86.29 405.29 86.19 406.22 C 85.93 408.49 86.33 409.03 88.69 409.55 C 90.23 409.9 92.91 410.61 94.64 411.13 C 96.36 411.65 102.89 412.45 109.14 412.9 Z M 184.32 444.14 C 186.77 448.06 197.18 445.26 200.05 439.91 C 203.38 433.68 196.38 418.72 189.52 417.44 C 184.61 416.52 180.08 417.56 175.16 420.75 C 171.01 423.44 170.96 423.54 171.6 427.99 C 171.96 430.47 172.38 432.64 172.52 432.81 C 172.67 432.98 173.94 431.97 175.35 430.56 C 179.98 425.93 187 428.23 187 434.38 C 187 436.1 186.81 436.15 185.25 434.87 C 184.29 434.07 182.28 433.3 180.79 433.15 C 178.47 432.91 178.15 433.18 178.52 435.13 C 179.71 441.29 183.73 441.13 190.79 434.64 C 194.8 430.94 195.2 430.77 194.54 433 C 193.16 437.6 191.04 439.91 187.08 441.09 C 183.59 442.14 183.28 442.48 184.32 444.14 Z M 163.15 559.93 C 172.49 561.76 187 560.58 187 557.98 C 187 557.47 185.63 556.34 183.95 555.47 C 182.27 554.61 176.81 551.21 171.82 547.93 C 166.82 544.66 161.63 541.69 160.28 541.36 C 157.28 540.6 150.39 542.53 149.71 544.31 C 149.44 545.02 149.98 547.82 150.91 550.53 C 152.83 556.07 156.02 558.52 163.15 559.93 Z M 59.25 560.97 C 62.28 562.19 81.24 562.24 84.4 561.04 C 86.9 560.09 86.91 560.02 85.55 555.49 C 83.8 549.69 82.91 548.65 77.46 546.09 C 69.35 542.27 63.12 543.88 59.24 550.79 C 56.3 556.01 56.31 559.79 59.25 560.97 Z M 121.37 314.56 C 128.36 317.6 136.81 314.8 138.93 308.75 C 139.85 306.12 139.75 306 136.7 305.99 C 131.07 305.96 120.67 303 115 299.82 C 111.97 298.12 109.28 296.4 109 296 C 108.72 295.6 107.49 294.95 106.25 294.57 C 104.18 293.92 104 294.18 104 297.86 C 104 302.12 111.645 308.505 112.64 309.5 C 113.635 310.495 119.65 313.81 121.37 314.56 Z M 131.6 250.45 C 130.62 254.34 127.73 255.36 124.61 252.91 C 121.57 250.51 121.1 245.74 123.56 242.22 C 125.11 240.01 125.1 240 119.53 240 C 115.46 240 113.78 239.59 113.36 238.49 C 112.19 235.44 114.94 234 121.97 234 C 129.43 234 137.21 237.16 137.85 240.46 C 138.28 242.71 136.16 244.17 133.39 243.53 C 131.6 243.11 131.35 243.41 131.75 245.5 C 132.01 246.85 131.94 249.08 131.6 250.45 Z M 152.53 269.55 C 148.16 271.38 144.92 271.39 142.45 269.59 C 140.65 268.27 140.79 268.14 144.51 267.51 C 146.71 267.14 149.06 266.67 149.75 266.45 C 151.6 265.88 151.27 260.73 149.01 254.8 C 146.87 249.16 147.59 246.59 150.62 249.09 C 153.4 251.4 155.95 258.17 155.98 263.3 C 156 267.84 155.81 268.18 152.53 269.55 Z M 73.74 403 C 74.04 408.5 74.6 413 74.98 413 C 75.96 413 77.76 408.81 78.5 404.84 C 78.89 402.75 78.53 400.1 77.56 397.78 C 76.69 395.7 76 391.19 76 387.53 C 76 383.94 75.61 381 75.14 381 C 73.82 381 73.13 391.88 73.74 403 Z M 144.81 282.91 C 138.35 284.41 133.76 284.22 132.13 282.38 C 129.85 279.8 132.31 278.68 141.26 278.21 C 148.03 277.85 149.81 278.07 150.9 279.37 C 150.93 279.41 150.96 279.45 150.99 279.49 C 151.45 280.04 151.76 280.41 151.7 280.72 C 151.59 281.36 149.92 281.72 144.81 282.91 Z M 89 260.68 C 89 264.76 85.04 259.65 83.62 253.75 C 83.18 251.9 82.32 251 80.98 251 C 78.4 251 78.44 249.37 81.06 247.97 C 82.6 247.15 83.5 247.17 84.56 248.05 C 85.93 249.19 89 257.92 89 260.68 Z M 175.59 445.92 C 178.1 448.91 182 450.12 182 447.91 C 182 446.03 175.78 440.15 174.36 440.69 C 172.42 441.44 172.65 442.44 175.59 445.92 Z" fill="rgb(23,11,8)" style=""/>
    <path style="stroke: rgb(0, 0, 0); fill: rgb(23, 10, 9); stroke-width: 1;" d="M 847.752 346.902 C 846.035 350.589 863.535 364.488 865.029 366.154"/>
    <path style="stroke: rgb(0, 0, 0); fill: rgb(23, 10, 9); stroke-width: 1;" d="M 813.667 360.8 C 813.199 362.47 817.966 368.764 818.373 369.52"/>
  </g>
</svg>