<?xml version="1.0" encoding="utf-8"?>
<svg xmlns="http://www.w3.org/2000/svg" width="1024" height="1024" viewBox="0 0 1024 1024">
  <path fill="#2b2407" d="M 820.982 1020.239 L 816.032 1022.939 L 488.784 1023.159 C 463.659 1023.179 440.415 1023.189 418.911 1023.219 C 164.199 1023.429 153.386 1023.439 147.933 1017.939 C 147.226 1017.229 146.614 1016.429 145.571 1015.534 C 137.587 1008.563 135.653 1003.511 134.891 987.501 C 134.461 978.63 134.735 971.662 135.673 967.843 C 137.177 961.632 192.643 851.309 197.664 844.5 C 199.271 842.34 203.106 839.045 206.211 837.203 C 211.162 834.25 213.344 833.786 224.216 833.371 C 235.963 832.932 236.479 832.798 234.645 830.735 C 233.47 829.418 230.066 828.246 225.894 827.734 C 211.522 825.952 191.456 817.276 178.077 807.038 C 168.848 799.973 161.058 791.285 153.663 779.814 C 128.178 740.278 134.344 692.334 172.935 629.796 C 191.072 600.401 220.992 561.572 236.515 547.271 C 251.906 533.104 275.185 519.364 295.18 512.652 C 301.665 510.48 304.434 509.004 303.726 508.101 C 290.853 491.505 282.786 480.45 277.606 472.299 C 251.882 431.835 236.216 389.346 228.448 338.986 C 226.721 327.784 226.302 317.937 226.35 290.176 C 226.41 251.677 228.184 235.057 235.184 207.199 C 255.144 127.846 301.03 67.285 366.215 34.289 C 408.087 13.093 451.768 4.759 513.585 6.199 C 552.927 7.102 581.648 12.056 610.009 22.819 C 703.173 58.145 763.66 146.43 773.538 261.5 C 776.81 299.547 771.608 349.614 760.748 384.745 C 747.934 426.185 727.052 465.709 700.44 498.912 C 695.897 504.574 692.444 509.614 692.744 510.126 C 693.056 510.627 694.531 511.042 696.017 511.042 C 700.488 511.042 715.412 516.691 725.697 522.268 C 747.921 534.324 766.561 554.299 799.465 601.34 C 817.626 627.295 838.052 664.391 846.503 686.758 C 859.162 720.242 857.531 753.908 841.972 780.571 C 828.258 804.061 803.506 821.425 779.759 824.219 C 773.838 824.915 772.363 825.635 769.126 829.405 L 765.375 833.774 L 768.623 835.165 C 776.678 838.618 780.873 844.292 790.583 864.915 C 825.562 939.204 836.913 964.829 838.22 972.48 C 839.826 981.851 838.22 1000.546 835.32 1006.257 C 832.766 1011.272 826.856 1017.039 820.982 1020.239 M 309.876 477.863 C 314.455 483.452 318.507 487.71 318.866 487.356 C 319.214 486.99 318.974 485.99 318.315 485.136 C 317.655 484.281 314.683 477.277 311.711 469.553 C 293.106 421.231 282.713 366.747 282.725 317.632 C 282.738 283.342 286.189 260.097 294.593 237.705 C 301.761 218.608 318.699 200.036 329.055 199.902 C 332.387 199.865 331.621 202.672 323.961 218.486 C 320.005 226.65 316.769 233.983 316.769 234.789 C 316.769 235.716 321.324 234.484 329.055 231.482 C 363.039 218.266 405.785 208.712 451.623 204.087 C 479.014 201.317 538.998 202.22 569.098 205.844 C 615.32 211.421 648.799 219.194 675.531 230.579 C 681.981 233.324 687.53 235.313 687.841 234.996 C 688.705 234.117 680.301 210.213 676.286 202.122 C 672.006 193.507 671.971 192.556 675.83 192.556 C 679.391 192.556 680.53 193.373 689.46 202.33 C 707.8 220.719 719.536 262.525 719.536 309.48 C 719.536 356.997 708.544 416.216 690.862 463.989 C 688.142 471.335 686.079 477.802 686.259 478.375 C 686.452 478.949 689.916 474.861 693.955 469.297 C 742.24 402.878 761.502 317.143 746.95 233.434 C 739.662 191.482 722.88 150.908 699.35 118.303 C 691.51 107.431 673.84 88.688 663.196 79.939 C 632.989 55.131 589.583 36.595 549.918 31.568 C 543.985 30.811 537.08 29.933 534.563 29.591 C 524.313 28.237 472.673 29.078 457.929 30.848 C 422.519 35.094 391.676 44.966 365.317 60.488 C 360.042 63.599 355.451 66.443 355.127 66.821 C 354.803 67.199 352.107 69.091 349.134 71.043 C 332.891 81.708 305.621 109.212 297.134 123.489 C 295.899 125.564 294.533 127.553 294.09 127.882 C 290.59 130.53 271.493 168.065 265.907 183.245 C 253.813 216.155 245.937 267.54 247.747 301.768 C 249.737 339.352 255.514 369.59 266.399 399.388 C 271.469 413.287 283.6 439.327 288.348 446.527 C 289.833 448.784 293.418 454.483 296.295 459.181 C 299.172 463.879 305.285 472.286 309.876 477.863 M 388.188 833.335 C 388.548 833.945 437.323 834.347 499.944 834.262 C 573.892 834.164 609.242 833.725 605.658 832.944 C 596.752 831.028 586.346 825.574 580.916 819.997 C 573.413 812.261 570.656 803.841 570.668 788.649 C 570.703 754.897 585.196 716.984 607.048 693.494 C 615.32 684.586 616.423 682.902 615.32 680.803 C 613.054 676.471 613.845 665.892 616.962 659.083 C 620.414 651.529 635.649 634.909 645.815 627.576 C 663.735 614.678 681.884 607.441 696.353 607.441 C 703.353 607.441 707.549 609.235 707.549 612.225 C 707.549 614.372 702.309 617.655 690.611 622.829 C 669.034 632.359 663.616 635.995 650.011 650.114 C 637.424 663.17 629.201 674.787 633.983 672.762 C 646.966 667.246 667.883 663.122 676.071 664.439 C 679.235 664.952 680.781 664.33 684.438 661.059 C 691.917 654.372 702.49 647.99 712.751 643.964 C 720.758 640.815 723.744 640.23 729.497 640.657 C 736.917 641.194 739.338 643.012 737.456 646.612 C 736.857 647.759 731.091 651.554 724.654 655.056 C 711.552 662.17 703.304 668.283 704.78 669.772 C 705.307 670.309 709.79 672.505 714.729 674.641 L 723.719 678.521 L 734.507 675.91 C 754.55 671.041 774.017 669.54 783.212 672.139 C 788.21 673.555 794.851 677.874 796.721 680.937 C 799.118 684.866 795.414 686.538 781.269 687.929 C 765.83 689.442 751.901 691.724 751.913 692.749 C 751.913 693.14 755.724 695.861 760.363 698.777 C 770.697 705.257 781.593 717.862 788.785 731.639 C 797.08 747.514 797.799 750.76 798.099 773.396 C 798.375 795.092 798.411 795.177 804.536 790.333 C 809.703 786.233 819.029 776.886 819.029 775.8 C 819.029 775.251 819.832 773.981 820.802 772.981 C 823.764 769.979 830.62 754.909 832.227 747.893 C 833.197 743.634 833.509 736.752 833.09 728.368 C 831.999 706.331 822.42 681.303 801.743 646.49 C 782.288 613.738 756.863 578.521 741.04 562.414 C 731.727 552.933 714.489 541.401 702.154 536.411 C 693.751 533.006 691.306 532.555 682.376 532.75 C 673.733 532.933 671.947 533.323 670.58 535.361 C 669.705 536.679 667.956 538.973 666.685 540.45 C 665.426 541.926 664.323 543.61 664.251 544.171 C 664.167 544.745 664.023 545.782 663.94 546.478 C 663.867 547.173 662.992 548.259 661.998 548.894 C 661.003 549.528 660.643 550.065 661.182 550.065 C 661.722 550.077 661.314 550.956 660.272 552.018 C 659.228 553.079 658.666 554.409 659.013 554.983 C 659.36 555.557 658.437 556.886 656.95 557.936 C 655.477 558.985 654.686 559.852 655.189 559.852 C 655.693 559.852 654.757 561.328 653.115 563.122 C 651.485 564.928 650.382 566.795 650.67 567.271 C 650.958 567.747 650.394 568.454 649.399 568.833 C 648.416 569.223 647.613 570.321 647.613 571.273 C 647.613 572.237 646.726 573.36 645.648 573.787 C 644.557 574.202 644.005 574.885 644.4 575.3 C 644.808 575.703 643.8 577.106 642.17 578.412 C 640.529 579.717 639.486 581.267 639.845 581.853 C 640.193 582.438 639.377 583.512 638.024 584.257 C 636.669 585.001 635.83 586.038 636.154 586.575 C 636.477 587.124 633.289 590.761 629.057 594.653 C 624.813 598.558 621.613 602.182 621.924 602.695 C 622.236 603.207 620.486 605.172 618.028 607.063 C 615.571 608.955 610.034 614.202 605.718 618.729 C 601.403 623.256 597.231 626.966 596.452 626.966 C 595.672 626.966 593.875 628.613 592.472 630.626 C 591.07 632.64 589.128 634.287 588.157 634.287 C 587.198 634.287 586.095 635.105 585.712 636.117 C 585.34 637.13 584.273 637.948 583.35 637.948 C 582.439 637.948 581.684 638.497 581.684 639.168 C 581.684 639.839 580.857 640.388 579.85 640.388 C 578.843 640.388 577.704 641.206 577.32 642.219 C 576.949 643.231 575.883 644.049 574.971 644.049 C 574.06 644.049 572.633 645.147 571.819 646.49 C 570.991 647.832 569.696 648.93 568.941 648.93 C 568.175 648.93 567.239 649.784 566.843 650.821 C 566.448 651.859 563.559 653.86 560.419 655.263 C 557.279 656.666 554.449 658.167 554.114 658.607 C 552.915 660.169 534.191 668.259 529.815 669.089 C 527.358 669.565 525.344 670.333 525.344 670.821 C 525.344 671.297 523.594 671.724 521.449 671.773 C 502.389 672.212 489.767 671.688 488.519 670.419 C 488.113 670.004 486.351 669.674 484.588 669.674 C 482.825 669.674 480.992 669.272 480.512 668.771 C 480.021 668.283 478.991 667.844 478.212 667.807 C 477.432 667.771 473.56 666.221 469.605 664.354 C 465.648 662.487 461.465 660.889 460.315 660.791 C 459.163 660.693 458.217 660.181 458.217 659.656 C 458.217 659.119 457.809 658.814 457.317 658.961 C 456.155 659.314 444.551 653.482 444.036 652.286 C 443.808 651.785 442.909 651.371 442.022 651.371 C 441.135 651.371 439.696 650.663 438.822 649.784 C 436.819 647.795 418.851 634.287 418.192 634.287 C 417.928 634.287 416.166 632.957 414.284 631.334 C 411.152 628.636 408.015 625.943 404.874 623.256 C 397.31 616.776 381.367 601.169 374.282 593.323 C 362.823 580.596 352.766 566.136 335.948 538.156 C 332.496 532.42 331.034 531.822 320.317 531.798 C 302.947 531.761 282.114 540.694 260.429 557.46 C 247.915 567.137 240.123 575.154 226.254 592.615 C 178.138 653.201 155.652 703.121 160.687 738.24 C 161.467 743.731 162.737 748.612 163.492 749.088 C 164.259 749.576 164.547 750.846 164.152 751.919 C 163.744 752.993 163.972 753.872 164.642 753.872 C 165.326 753.872 165.542 754.421 165.134 755.092 C 164.726 755.763 165.002 756.312 165.734 756.312 C 166.465 756.312 166.738 756.861 166.334 757.532 C 165.924 758.204 166.201 758.753 166.93 758.753 C 167.661 758.753 167.937 759.302 167.53 759.973 C 167.121 760.644 167.398 761.193 168.128 761.193 C 168.86 761.193 169.135 761.742 168.728 762.414 C 168.321 763.085 168.56 763.634 169.255 763.634 C 169.95 763.634 170.525 764.451 170.525 765.464 C 170.525 766.477 170.933 767.295 171.425 767.307 C 171.917 767.307 175.297 771.199 178.917 775.946 C 185.426 784.476 192.415 790.589 200.374 794.714 C 204.294 796.751 204.402 796.751 203.479 794.567 C 201.681 790.296 199.391 775.214 199.343 767.246 C 199.283 756.312 201.836 746.892 208.813 732.517 C 216.281 717.093 224.025 707.319 234.933 699.571 C 239.655 696.215 243.539 693.152 243.576 692.774 C 243.719 691.395 211.402 683.097 205.911 683.097 C 205.481 683.097 205.288 681.889 205.504 680.4 C 206.092 676.251 214.41 671.126 222.61 669.857 C 232.883 668.259 256.006 671.883 268.977 677.118 C 271.637 678.192 273.675 677.667 282.007 673.799 L 291.883 669.198 L 289.09 666.892 C 283.409 662.219 275.557 658.265 263.067 653.799 C 251.403 649.626 250.204 648.918 249.857 645.953 C 249.222 640.571 251.415 639.168 260.453 639.168 C 274.61 639.168 296.654 648.125 308.138 658.546 L 313.293 663.219 L 327.318 663.915 C 337.615 664.427 343.728 665.416 350.333 667.649 C 355.272 669.308 359.455 670.541 359.623 670.382 C 360.557 669.455 351.088 657.167 343.823 649.87 C 333.503 639.522 320.869 630.907 301.582 621.059 C 293.549 616.972 286.598 612.969 286.105 612.164 C 284.595 609.675 290.194 606.221 295.731 606.221 C 302.719 606.221 318.219 610.419 327.425 614.812 C 341.235 621.389 349.29 627.173 360.378 638.485 C 377.423 655.861 381.355 662.963 381.451 676.544 C 381.499 683.744 381.667 684.159 385.995 687.478 C 395.308 694.616 404.407 704.464 409.692 713.091 C 436.34 756.63 440.272 803.56 418.707 820.949 C 411.97 826.379 401.014 831.126 393.81 831.736 C 390.357 832.029 387.829 832.749 388.188 833.335 M 374.128 398.803 C 384.76 400.157 403.075 399.083 416.178 396.362 C 422.388 395.057 436.352 390.249 449.682 384.806 C 477.912 373.275 485.595 371.481 503.168 372.323 C 518.512 373.055 522.911 374.251 548.72 384.794 C 578.508 396.96 583.039 397.949 609.254 398.071 C 628.625 398.156 632.653 397.827 641.128 395.471 C 660.403 390.09 676.885 381.524 688.261 370.957 L 693.128 366.442 L 695.082 348.748 C 696.617 334.971 696.88 324.843 696.317 302.989 C 695.31 263.648 696.269 266.552 681.765 258.815 C 657.346 245.795 612.155 233.751 565.502 227.821 C 549.69 225.82 483.617 225.088 462.041 226.674 C 407.535 230.701 358.424 242.025 324.561 258.376 C 307.406 266.662 307.599 266.43 306.064 281.378 C 303.583 305.697 304.997 359.23 308.354 367.784 C 309.912 371.75 323.422 381.512 335.349 387.296 C 346.928 392.909 361.289 397.168 374.127 398.803 M 478.594 577.533 C 519.206 583.219 561.448 573.653 596.067 550.944 C 605.669 544.635 609.625 541.243 621.887 528.772 C 645.827 504.452 667.055 467.735 679.077 429.895 C 682.159 420.206 685.971 405.661 685.971 403.611 C 685.971 403.025 682.327 404.208 677.879 406.234 C 654.805 416.789 632.616 421.963 610.524 421.963 C 586.466 421.951 570.079 418.18 539.129 405.551 C 517.42 396.692 508.549 394.654 494.956 395.41 C 484.755 395.972 482.37 396.667 460.829 405.38 C 448.087 410.529 434.601 415.52 430.861 416.484 C 393.916 425.978 356.721 423.208 326.249 408.687 C 318.493 404.989 316.072 404.294 315.772 405.624 C 315.245 408.003 323.277 435.911 328.383 449.419 C 332.831 461.182 343.835 483.171 351.087 494.776 C 362.27 512.664 373.323 525.318 389.89 539.168 C 414.426 559.693 444.718 572.786 478.594 577.533 M 966.661 1008.355 C 959.721 1009.856 938.119 1010.662 934.703 1009.539 C 934.043 1009.319 929.453 1008.221 924.514 1007.086 C 913.57 1004.573 895.744 996.214 885.616 988.868 C 875.919 981.815 862.78 967.404 857.05 957.532 C 842.343 932.163 843.71 901.949 860.335 885.024 C 876.553 868.527 912.012 862.694 941.895 871.614 C 988.993 885.683 1021.502 933.737 1009.803 972.004 C 1004.288 990.039 988.022 1003.755 966.661 1008.355 M 309.972 838.46 C 314.3 839.363 318.387 838.069 321.862 834.701 C 324.584 832.066 325.16 830.467 325.16 825.549 C 325.16 812.822 313.856 787.258 298.74 765.818 C 293.765 758.765 290.397 752.761 290.397 750.943 C 290.397 747.624 294.317 744.11 298.033 744.11 C 300.118 744.11 311.711 753.896 313.184 756.898 C 313.509 757.581 316.349 762.096 319.49 766.916 C 328.036 780.095 333.323 791.407 340.06 810.992 C 346.905 830.906 348.93 833.518 357.525 833.518 C 372.305 833.518 375.782 816.593 366.683 788.917 C 361.721 773.798 357.897 765.745 346.413 746.148 C 339.017 733.542 338.094 731.309 339.065 728.454 C 339.952 725.867 341.066 725.123 344.447 724.83 C 348.175 724.512 349.314 725.147 353.426 729.784 C 359.623 736.788 363.519 741.572 363.519 742.17 C 363.519 742.426 365.784 746.404 368.541 751.004 C 371.311 755.604 375.637 764.195 378.155 770.113 C 382.638 780.62 388.668 801.584 388.715 806.782 C 388.752 812.786 390.382 813.139 398.772 808.93 C 405.054 805.781 407.296 803.865 409.824 799.473 C 412.774 794.348 412.942 793.298 412.21 784.354 C 410.472 763.133 402.357 740.29 390.334 722.804 C 380.372 708.308 361.889 694.458 344.339 688.32 C 334.894 685.025 317.8 684.61 306.185 687.392 C 283.325 692.884 253.68 713.933 243.203 732.127 C 231.888 751.785 228.448 779.814 235.652 793.53 C 236.359 794.872 237.054 796.642 237.186 797.459 C 237.318 798.265 239.38 802.194 241.753 806.184 C 249.281 818.801 265.548 831.968 273.603 831.968 C 276.78 831.968 280.807 828.783 280.807 826.257 C 280.807 823.878 273.603 809.637 264.577 794.14 C 260.321 786.843 256.833 779.741 256.833 778.35 C 256.833 775.446 260.813 770.955 263.39 770.955 C 270.498 770.955 288.503 798.081 298.357 823.634 C 301.809 832.59 305.717 837.581 309.972 838.46 M 685.145 838.118 C 689.016 839.79 695.513 838.533 698.69 835.507 C 700.225 834.042 703.173 828.661 705.26 823.56 C 710.378 811.004 720.243 791.089 724.654 784.378 C 733.477 770.98 740.034 767.502 744.217 773.994 C 746.663 777.801 745.836 781.51 740.561 790.479 C 738.391 794.177 733.501 803.39 729.701 810.955 C 723.66 822.975 722.951 825.11 724.115 827.709 C 726.176 832.297 730.288 832.639 737.66 828.844 C 750.462 822.242 762.725 805.732 766.19 790.443 C 769.438 776.08 766.142 755.922 757.763 738.972 C 751.613 726.514 740.801 714.763 727.507 706.087 C 690.647 682.011 664.179 679.351 636.465 696.935 C 613.605 711.444 598.275 738.753 591.909 776.3 C 588.265 797.776 589.991 802.901 603.153 809.698 C 614.493 815.555 614.637 815.482 616.314 803.255 C 618.376 788.222 622.847 773.359 629.609 759.082 C 642.327 732.163 653.702 720.461 659.049 728.771 C 661.075 731.907 660.979 732.2 650.813 753.591 C 640.121 776.093 635.686 789.21 633.24 805.659 C 630.34 825.171 634.919 834.482 647.373 834.372 C 655.225 834.299 658.221 830.162 663.16 812.578 C 670.964 784.781 680.674 765.672 694.603 750.675 C 701.507 743.256 706.003 742.072 709.274 746.819 C 712.26 751.151 711.576 753.53 704.157 764.695 C 700.309 770.492 695.214 778.789 692.84 783.158 C 688.417 791.285 680.877 810.003 682.028 810.003 C 682.376 810.003 681.992 810.833 681.165 811.846 C 680.338 812.871 679.391 817.52 679.055 822.194 C 678.408 831.492 680.11 835.934 685.145 838.118 M 157.33 998.837 L 159.704 1002.803 L 809.894 1002.803 L 813.79 1000.082 C 821.138 994.957 822.241 988.16 816.331 984.475 C 812.471 982.071 809.871 982.059 485.979 982.364 L 159.524 982.669 L 157.234 985.549 C 154.298 989.246 154.334 993.834 157.33 998.837 M 516.546 549.602 C 510.816 551.163 493.938 551.652 486.986 550.468 C 467.723 547.185 444.467 531.188 432.12 512.713 C 418.695 492.652 411.383 465.685 416.166 453.909 C 418.779 447.515 423.119 446.942 440.416 450.688 C 471.618 457.436 479.17 458.571 493.579 458.632 C 509.977 458.705 519.986 457.448 538.973 452.909 C 546.31 451.164 555.816 448.931 560.107 447.954 C 581.288 443.122 589.715 451.432 584.848 472.347 C 582.571 482.122 574.288 500.706 567.731 510.761 C 555.121 530.102 536.577 544.171 516.546 549.602 M 486.303 648.393 C 498.278 651.541 511.919 652.176 521.688 650.053 C 535.833 646.965 543.23 642.597 563.968 625.135 C 567.948 621.779 575.474 615.69 580.701 611.603 C 596.416 599.302 625.616 566.587 631.587 554.592 L 633.517 550.7 L 629.5 554.36 C 627.282 556.374 625.197 558.363 624.861 558.79 C 623.831 560.059 604.747 573.165 598.191 577.106 C 582.715 586.38 562.001 594.434 538.53 600.279 C 527.885 602.927 476.077 602.499 463.011 599.644 C 445.031 595.727 436.196 593.152 429.447 589.906 C 425.827 588.149 422.171 586.722 421.332 586.709 C 419.271 586.697 409.058 581.06 398.881 574.312 C 382.854 563.695 380.205 562.207 378.874 563.049 C 378.083 563.537 377.867 563.342 378.334 562.561 C 378.778 561.841 378.598 560.901 377.927 560.474 C 375.782 559.119 376.621 563.342 378.946 565.599 C 380.181 566.795 384.065 571.346 387.576 575.715 C 391.089 580.083 395.069 584.647 396.423 585.855 C 397.778 587.075 403.196 592.323 408.471 597.521 C 418.767 607.661 447.032 630.626 449.227 630.626 C 449.646 630.626 452.247 632.2 455.004 634.128 C 463.863 640.303 475.154 645.452 486.303 648.393 M 941.896 989.759 C 952.277 991.125 966.074 989.1 973.698 985.097 C 979.524 982.022 987.951 973.603 990.721 968.075 C 995.479 958.606 993.441 936.971 986.716 925.354 C 981.813 916.91 961.801 915.618 939.186 920.316 C 916.135 925.104 908.74 932.395 897.88 943.023 C 897.288 943.601 933.172 962.854 956.044 958.364 C 961.786 957.237 931.174 917.963 936.399 918.641 C 950.042 920.411 985.199 930.059 997.14 940.822 C 997.14 940.822 1000.004 960.397 997.067 962.692 C 980.958 975.279 948.556 975.417 936.16 975.24 C 927.193 975.112 903.71 960.839 903.552 960.839 C 902.64 960.839 874.769 942.645 872.071 940.18 C 868.5 936.897 868.643 939.155 872.503 947.013 C 877.178 956.519 880.691 960.741 890.568 968.734 C 905.228 980.595 920.811 986.977 941.896 989.759 M 422.629 375.154 C 418.804 376.789 411.995 377.119 407.272 375.923 C 393.655 372.445 383.226 350.444 386.223 331.518 C 389.136 313.117 401.278 299.889 415.208 299.95 C 420.303 299.975 435.67 308.614 435.574 311.408 C 435.562 311.787 437.013 315.264 438.799 319.132 C 441.568 325.148 442.035 327.772 442.035 337.156 C 442.035 345.124 441.375 349.956 439.638 354.752 C 436.845 362.427 428.226 372.775 422.628 375.154 M 598.441 374.154 C 584.513 380.645 571.614 374.605 564.111 358.071 C 561.018 351.274 560.706 349.334 560.706 337.156 C 560.719 324.977 561.006 323.159 563.919 317.558 C 574.767 296.607 596.991 294.581 609.422 313.409 C 622.236 332.836 616.267 365.819 598.442 374.154 M 807.367 503.305 C 793.365 512.262 780.671 519.583 779.16 519.583 C 774.462 519.583 771.082 516.264 771.082 511.639 C 771.082 511.31 771.069 511.005 771.057 510.724 C 771.034 510.248 771.021 509.833 771.069 509.431 C 771.464 506.453 775.708 504.001 811.238 481.511 C 867.458 445.917 891.073 431.725 894.105 431.725 C 900.458 431.725 903.911 439.925 899.643 444.867 C 898.493 446.197 882.981 456.228 865.18 467.149 C 847.38 478.083 821.367 494.348 807.367 503.305 M 487.214 529.919 C 502.941 533.397 518.728 531.151 530.932 523.708 C 538.747 518.924 545.723 512.579 545.723 510.248 C 545.723 507.637 524.326 497.777 515.756 496.423 C 494.06 493.006 475.599 496.313 459.021 506.563 L 453.243 510.151 L 458.266 515.361 C 464.067 521.377 476.223 527.491 487.214 529.919 M 738.26 930.503 C 739.962 933.224 740.19 933.249 769.306 933.249 C 792.585 933.249 798.651 932.919 798.651 931.662 C 798.651 930.784 798.183 929.551 797.619 928.917 C 797.056 928.282 792.382 918.423 787.239 907.013 C 782.108 895.604 777.373 885.586 776.739 884.744 C 775.911 883.658 770.96 883.218 759.549 883.218 L 758.349 883.218 C 748.976 883.218 744.781 883.218 743.726 885.073 C 742.863 886.562 744.038 889.271 746.171 894.152 C 746.279 894.408 746.387 894.664 746.507 894.933 C 751.757 907.001 750.139 911.26 740.297 911.309 C 732.577 911.333 731.895 912.431 734.387 920.656 C 735.575 924.561 737.312 928.99 738.26 930.503 M 236.754 512.494 C 231.301 517.265 229.814 516.667 209.796 501.56 C 201.033 494.946 179.313 479.193 161.514 466.551 C 120.814 437.631 118.978 436.13 119.007 431.945 C 119.017 428.016 119.954 426.429 123.294 424.648 C 123.978 424.269 124.544 423.94 125.14 423.745 C 128.47 422.671 133.208 426.088 171.065 453.458 C 172.445 454.458 173.858 455.483 175.32 456.533 C 212.72 483.561 236.551 501.621 237.69 503.781 C 239.452 507.137 239.093 510.456 236.754 512.494 M 454.213 280.963 C 453.146 283.77 450.401 283.245 437.839 277.839 C 417.113 268.907 396.759 265.661 376.932 268.114 C 370.783 268.882 362.967 270.579 359.55 271.909 C 348.055 276.35 345.753 274.679 349.794 264.819 C 356.961 247.345 386.03 239.279 413.864 247.052 C 420.804 248.98 435.764 255.911 436.436 257.51 C 436.664 258.022 437.311 258.449 437.886 258.449 C 438.45 258.449 441.566 260.926 444.803 263.965 C 450.989 269.761 455.412 277.766 454.213 280.963 M 565.741 277.497 C 558.621 280.45 552.627 282.854 552.411 282.854 C 552.184 282.854 551.357 282.049 550.554 281.073 C 547.952 277.876 551.249 271.286 559.088 264.062 C 573.533 250.762 591.981 243.806 612.827 243.806 C 626.336 243.806 634.151 245.832 642.387 251.445 C 650.106 256.704 656.507 268.663 653.834 272.812 C 653.056 274.02 650.994 273.617 644.532 271.006 C 636.609 267.796 635.278 267.638 615.848 267.626 C 592.568 267.613 586.982 268.724 565.741 277.497 M 672.786 874.811 C 677.101 876.019 768.983 876.056 770.853 874.848 C 772.902 873.517 767.94 861.888 763.564 857.801 C 758.925 853.457 753.231 852.737 729.125 853.481 C 712.031 854.006 705.99 854.628 702.755 856.178 C 696.963 858.972 681.476 858.874 677.185 856.007 C 673.253 853.383 665.774 853.249 664.826 855.787 C 664.442 856.8 665.402 861.303 666.96 865.805 C 669.202 872.285 670.413 874.152 672.786 874.811 M 183.628 555.422 C 182.25 557.204 179.984 558.595 178.534 558.558 C 177.095 558.522 165.134 555.239 151.949 551.273 C 138.763 547.295 115.296 540.401 99.796 535.947 C 84.306 531.493 69.519 527.222 66.941 526.466 C 64.304 525.685 61.179 523.586 59.772 521.658 C 57.487 518.522 57.438 517.997 59.108 514.946 C 62.595 508.601 63.415 508.76 132.768 528.845 C 154.525 535.154 174.313 540.877 176.759 541.572 C 181.087 542.793 186.109 547.698 186.109 550.7 C 186.109 551.53 184.994 553.653 183.628 555.422 M 873.738 550.175 C 844.838 557.509 819.904 563.512 818.309 563.512 C 811.932 563.512 808.073 554.019 812.735 549.785 C 814.51 548.174 919.421 520.804 923.808 520.804 C 926.121 520.804 930.509 526.16 930.509 528.979 C 930.509 535.581 929.034 536.13 873.738 550.175 M 145.739 629.223 C 142.562 630.919 44.351 631.078 40.249 629.394 C 34.701 627.124 33.627 620.998 38.012 616.532 L 40.952 613.543 L 93.565 613.543 C 143.018 613.543 146.303 613.677 148.172 615.776 C 150.199 618.07 150.797 624.086 149.227 626.477 C 148.748 627.222 147.177 628.454 145.739 629.223 M 176.556 929.893 C 176.52 931.894 179.564 932.029 223.832 932.029 L 271.157 932.029 L 273.1 928.197 C 274.178 926.086 275.137 921.827 275.233 918.74 L 275.413 913.115 L 184.312 913.115 L 180.452 920.436 C 178.329 924.463 176.568 928.722 176.556 929.893 M 881.961 932.212 C 886.408 934.994 887.811 935.03 889.908 932.431 C 893.972 927.367 906.001 917.063 927.114 910.477 C 948.09 903.934 982.637 911.175 977.251 904.554 C 974.6 901.295 955.93 887.903 936.888 884.471 C 917.79 881.028 898.32 887.55 896.645 887.868 C 883.748 890.308 873.582 896.788 869.327 905.293 C 865.502 912.907 866.174 916.617 872.671 923.719 C 875.799 927.148 879.983 930.967 881.961 932.212 M 957.084 628.613 C 955.118 630.419 949.784 630.614 904.64 630.553 C 876.999 630.504 853.216 629.992 851.777 629.394 C 846.383 627.185 845.005 620.047 849.164 615.812 L 851.73 613.201 L 903.406 614.092 C 947.974 614.861 957 614.922 958.823 618.643 C 959.29 619.583 959.278 620.767 959.278 622.255 L 959.278 622.695 C 959.278 624.915 958.33 627.454 957.084 628.613 M 70.076 705.721 C 45.484 712.737 24.661 718.484 23.792 718.484 C 20.892 718.484 15.891 713.494 15.891 710.602 C 15.891 704.513 18.547 703.378 62.038 691.004 C 85.117 684.427 106.047 678.802 108.547 678.497 C 116.136 677.582 120.637 684.769 116.272 690.846 C 115.237 692.261 100.148 697.118 70.076 705.721 M 459.379 772.81 C 459.104 772.944 458.864 773.079 458.636 773.201 C 456.946 774.091 456.179 774.494 455.496 774.409 C 454.836 774.311 454.237 773.774 452.955 772.798 C 451.385 771.578 450.161 767.978 448.987 761.035 C 445.522 740.595 437.635 720.168 426.295 702.279 C 420.601 693.274 419.87 689.455 423.25 686.331 C 426.894 682.975 432.48 683.805 437.539 688.454 C 443.029 693.506 455.615 717.533 460.759 732.761 C 467.303 752.188 466.728 768.93 459.379 772.81 M 986.093 719.619 C 984.355 721.01 982.593 722.096 982.197 722.048 C 979.883 721.742 894.2 695.531 891.67 694.36 C 884.874 691.212 887.283 680.657 894.8 680.657 C 896.885 680.657 911.305 684.464 926.84 689.125 C 979.847 705.037 987.832 707.417 989.03 711.749 C 989.246 712.517 989.246 713.347 989.246 714.323 L 989.246 714.36 C 989.246 715.861 987.819 718.228 986.093 719.619 M 160.375 966.257 C 161.778 968.563 216.389 967.086 220.009 964.646 C 221.986 963.304 223.113 960.387 224.636 952.639 C 225.739 947.013 226.386 941.998 226.086 941.486 C 225.775 940.985 213.272 940.57 198.289 940.57 L 171.042 940.57 L 165.254 952.651 C 161.826 959.789 159.836 965.354 160.375 966.257 M 749.215 964.731 C 750.822 965.939 758.195 966.22 781.473 965.952 C 798.063 965.744 812.04 965.171 812.533 964.67 C 813.023 964.17 811.046 958.96 808.133 953.078 L 802.847 942.401 L 771.979 942.071 C 746.807 941.815 741.113 942.047 741.113 943.389 C 741.113 947.025 747.273 963.255 749.216 964.731 M 546.49 767.953 C 543.194 770.296 540.364 770.211 537.87 767.661 C 533.58 763.304 538.147 741.498 547.533 721.486 C 558.405 698.326 576.133 680.291 581.373 687.063 C 584.909 691.639 584.189 694.982 577.536 704.879 C 569.661 716.593 561.869 732.09 555.971 747.77 C 553.575 754.14 551.021 760.9 550.301 762.767 C 549.581 764.634 547.868 766.977 546.49 767.953 M 190.34 902.791 C 190.76 903.499 204.845 903.963 225.595 903.963 L 260.13 903.963 L 262.779 897.703 C 264.229 894.262 265.716 889.588 266.075 887.331 L 266.735 883.218 L 234.309 883.218 C 216.485 883.218 201.009 883.56 199.93 883.987 C 197.593 884.902 189.322 901.12 190.34 902.791 M 78.514 768.93 C 63.728 776.849 52.867 781.938 50.738 781.938 C 47.476 781.938 42.261 777.362 42.261 774.506 C 42.261 771.212 45.611 767.319 50.465 764.939 C 53.531 763.439 65.065 757.313 76.073 751.334 C 96.807 740.071 101.456 738.68 105.011 742.682 C 107.599 745.598 107.541 751.797 104.894 754.091 C 103.742 755.092 91.865 761.767 78.514 768.93 M 238.145 964.524 C 238.648 965.842 242.928 966.196 258.595 966.196 C 281.97 966.196 282.138 966.122 284.259 953.737 C 286.202 942.328 286.141 941.998 281.599 941.132 C 275.126 939.899 245.122 941.01 243.623 942.547 C 241.837 944.365 237.343 962.401 238.145 964.524 M 954.927 783.072 C 953.188 784.463 950.887 785.562 949.832 785.525 C 948.765 785.476 936.035 779.021 921.542 771.175 C 892.774 755.604 890.772 753.799 894.967 747.27 C 898.875 741.193 900.912 741.718 927.716 755.775 C 941.441 762.987 953.896 769.991 955.382 771.346 C 959.098 774.762 958.907 779.888 954.927 783.072 M 298.248 965.073 C 299.352 966.891 339.508 966.513 340.168 964.67 C 341.102 962.047 342.973 942.437 342.349 941.791 C 341.234 940.656 304.194 940.485 302.539 941.608 C 300.802 942.791 297.074 963.145 298.249 965.073 M 647.386 966.586 C 648.501 966.891 656.185 967.196 664.468 967.269 C 675.663 967.379 680.111 966.977 681.813 965.708 C 684.078 964.024 684.078 963.853 681.813 954.567 C 680.543 949.381 678.756 944.39 677.857 943.462 C 676.622 942.218 672.176 941.791 660.213 941.791 C 651.413 941.791 643.347 942.132 642.292 942.535 C 640.746 943.145 640.505 944.5 641.081 949.551 C 642.04 958.105 644.941 965.927 647.386 966.586 M 591.838 964.06 C 592.629 965.964 594.751 966.196 611.185 966.196 L 629.633 966.196 L 629.513 961.01 C 629.453 958.154 628.783 952.809 628.015 949.112 L 626.637 942.401 L 608.524 942.059 C 594.978 941.815 590.1 942.12 589.165 943.279 C 587.93 944.817 589.764 959.045 591.838 964.06 M 206.512 872.566 C 206.489 874.567 208.058 874.713 227.765 874.396 L 249.043 874.067 L 252.291 864.353 C 254.078 859.009 255.24 854.347 254.881 853.981 C 254.521 853.615 246.501 853.322 237.044 853.322 C 221.508 853.322 219.518 853.566 216.461 855.86 C 212.793 858.618 206.56 869.088 206.512 872.566 M 638.348 931.724 C 639.187 932.822 644.51 933.249 657.347 933.249 L 659.972 933.249 C 669.478 933.261 673.71 933.273 674.932 931.321 C 675.915 929.747 674.969 926.928 673.267 921.827 C 673.074 921.266 672.883 920.68 672.679 920.058 L 670.174 912.505 L 651.57 912.505 C 634.345 912.505 633.038 912.663 633.793 914.64 C 634.236 915.811 635.183 919.789 635.891 923.487 C 636.598 927.184 637.712 930.882 638.348 931.724 M 698.883 964.89 C 700.021 965.561 707.286 966.135 715.017 966.159 C 728.923 966.196 729.091 966.159 729.81 963.23 C 730.576 960.155 727.425 947.209 725.266 944.536 C 724.391 943.45 719.356 943.011 707.909 943.011 L 691.774 943.011 L 692.554 946.977 C 694.448 956.641 696.953 963.755 698.883 964.89 M 587.163 931.626 C 590.183 933.883 623.663 933.969 623.592 931.724 C 623.52 928.966 620.439 915.36 619.564 913.92 C 618.977 912.956 613.187 912.505 601.236 912.505 L 583.758 912.505 L 584.37 921.254 C 584.838 927.806 585.545 930.418 587.163 931.626 M 689.569 931.418 C 690.756 932.883 694.291 933.249 707.022 933.249 C 715.808 933.249 723.288 932.761 723.648 932.175 C 724.439 930.857 718.314 913.444 716.648 912.273 C 714.826 911.004 690.048 911.162 686.68 912.468 L 683.719 913.603 L 685.673 920.68 C 686.74 924.573 688.19 928.16 688.885 928.648 C 689.593 929.149 689.701 929.564 689.125 929.564 C 688.55 929.576 688.754 930.406 689.569 931.418 M 488.485 932.456 C 489.312 932.81 497.272 932.993 506.166 932.871 L 522.349 932.639 L 522.721 926.537 C 522.936 923.182 522.781 918.655 522.373 916.47 L 521.642 912.505 L 486.987 912.505 L 486.987 922.169 C 486.987 928.746 487.467 932.029 488.485 932.456 M 439.938 932.346 C 444.828 933.493 469.15 933.261 471.391 932.029 C 473.477 930.906 473.801 929.49 473.801 921.608 L 473.801 912.505 L 439.374 912.505 L 438.618 918.911 C 437.384 929.32 437.636 931.797 439.938 932.346 M 287.485 930.943 C 287.881 931.601 295.889 931.943 306.365 931.76 L 324.55 931.418 L 325.928 927.148 C 326.683 924.792 327.498 920.668 327.726 917.996 L 328.158 913.115 L 310.692 912.773 C 295.205 912.48 293.012 912.688 291.345 914.603 C 289.259 917.019 286.395 929.149 287.485 930.943 M 277.968 903.096 C 279.202 903.414 286.754 903.743 294.75 903.816 C 305.095 903.926 309.625 903.523 310.453 902.437 C 311.927 900.522 314.372 890.479 314.372 886.342 L 314.372 883.218 L 281.875 883.218 L 279.455 888.783 C 275.761 897.276 275.235 902.376 277.968 903.096 M 607.17 902.962 C 609.064 904.195 641.633 904.268 641.573 903.048 C 641.537 902.547 640.542 898.008 639.355 892.98 L 637.197 883.829 L 603.261 883.157 L 603.261 886.074 C 603.261 891.541 605.683 901.998 607.17 902.962 M 487.286 874.896 C 489.852 875.262 518.525 874.689 518.956 874.262 C 519.076 874.14 518.86 869.527 518.489 863.987 L 517.805 853.932 L 484.589 853.932 L 484.589 864.219 C 484.589 873.957 484.733 874.53 487.286 874.896 M 657.528 902.437 C 658.367 903.523 663.449 903.963 675.328 903.963 L 678.373 903.963 C 686.68 903.987 690.408 903.999 691.463 902.291 C 692.338 900.9 691.438 898.386 689.833 893.822 C 689.59 893.136 689.35 892.448 689.113 891.76 L 686.369 883.829 L 669.239 883.487 C 653.248 883.17 652.181 883.292 652.959 885.317 C 653.416 886.513 654.362 890.503 655.07 894.201 C 655.778 897.898 656.892 901.595 657.528 902.437 M 559.125 902.401 C 560.048 903.523 564.735 903.963 575.871 903.963 L 576.95 903.963 C 586.263 903.963 590.364 903.963 591.766 901.986 C 592.869 900.436 592.293 897.654 591.286 892.7 L 591.143 891.98 L 589.477 883.829 L 572.395 883.487 C 562.997 883.304 555.313 883.572 555.325 884.097 C 555.361 887.977 558.095 901.132 559.125 902.401 M 537.765 932.334 C 538.519 932.834 546.419 933.115 555.313 932.944 L 571.495 932.639 L 571.135 924.805 C 570.872 919.289 570.825 916.214 569.302 914.542 C 567.385 912.456 563.177 912.541 553.36 912.749 C 552.904 912.761 552.437 912.761 551.957 912.773 L 535.535 913.115 L 535.966 922.267 C 536.206 927.294 537.021 931.833 537.764 932.334 M 535.581 874.909 C 537.536 875.384 543.121 875.519 548 875.214 C 552.88 874.921 558.74 874.677 561.018 874.677 L 561.665 874.677 C 562.865 874.689 563.679 874.701 564.159 874.286 C 565.166 873.42 564.59 870.638 562.768 861.925 C 562.624 861.23 562.469 860.497 562.313 859.729 L 561.102 853.932 L 530.139 853.932 L 530.259 860.949 C 530.439 871.248 531.446 873.92 535.581 874.909 M 342.673 932.334 C 347.719 933.066 372.341 931.87 373.468 930.845 C 373.984 930.357 374.738 926.037 375.134 921.229 L 375.853 912.505 L 359.646 912.505 C 347.3 912.505 343.104 912.907 342.061 914.188 C 341.295 915.128 340.347 919.472 339.951 923.865 L 339.221 931.833 L 342.673 932.334 Z M 391.987 932.395 C 393.798 932.688 401.217 932.858 408.471 932.785 L 421.656 932.639 L 422.459 923.511 C 422.891 918.496 422.999 913.957 422.687 913.444 C 422.375 912.931 415.123 912.505 406.576 912.505 L 391.029 912.505 L 389.866 915.641 C 389.219 917.361 388.691 921.717 388.691 925.317 C 388.691 931.516 388.871 931.894 391.987 932.395 M 326.827 902.206 C 327.354 903.609 330.614 903.963 343.032 903.963 C 351.579 903.963 358.855 903.523 359.179 902.974 C 359.514 902.437 360.162 897.764 360.618 892.602 L 361.457 883.218 L 346.449 883.218 C 335.901 883.218 331.082 883.67 330.23 884.744 C 328.576 886.818 326 900.021 326.826 902.206 M 583.122 875.006 C 585.291 875.287 591.812 875.592 597.602 875.702 C 610.212 875.934 610.404 875.702 607.959 863.194 L 606.257 854.543 L 591.368 854.201 C 583.181 854.006 576.025 854.323 575.462 854.896 C 574.407 855.97 576.121 866.965 578.087 871.846 C 578.806 873.639 580.46 874.677 583.122 875.006 M 356.026 874.921 C 362.367 875.323 378.945 874.774 381.066 874.079 C 381.821 873.835 382.805 870.162 383.26 865.915 C 383.703 861.681 384.34 857.227 384.675 856.031 C 385.238 854.018 384.135 853.884 369.307 854.201 L 353.341 854.543 L 351.95 860.644 C 351.182 864 350.511 868.502 350.452 870.65 C 350.332 874.445 350.464 874.555 356.026 874.921 M 511.763 903.048 C 512.05 903.548 519.303 903.963 527.849 903.963 C 540.136 903.963 543.54 903.597 544.043 902.242 C 544.403 901.29 544.259 896.763 543.707 892.175 L 542.725 883.829 L 510.36 883.829 L 510.79 892.98 C 511.02 898.008 511.463 902.547 511.763 903.048 M 393.521 873.762 C 393.497 874.262 400.714 874.677 409.536 874.677 L 412.197 874.677 C 420.565 874.701 424.232 874.701 425.827 872.859 C 427.085 871.406 427.073 868.832 427.05 864.244 L 427.05 853.932 L 412.964 853.957 C 405.22 853.957 398.16 854.433 397.284 854.994 C 396.05 855.799 393.821 866.94 393.521 873.762 M 441.23 872.749 C 441.578 874.494 443.567 874.701 457.412 874.408 L 473.2 874.067 L 473.2 854.543 L 457.412 854.201 L 441.637 853.859 L 441.23 862.303 C 441.014 866.953 441.014 871.65 441.23 872.749 M 466.007 883.829 L 465.312 903.963 L 497.869 903.963 L 497.174 883.829 L 466.007 883.829 Z M 626.239 874.982 C 629.295 875.519 653.905 874.603 654.685 873.92 C 654.948 873.676 654.085 869.796 652.766 865.281 L 650.357 857.056 L 642.697 855.568 C 638.477 854.75 631.309 854.054 626.778 854.006 L 618.531 853.932 L 619.359 860.241 C 620.533 869.32 622.907 874.384 626.239 874.982 M 263.653 875.055 C 264.396 876.263 292.218 875.665 293.453 874.42 C 294.136 873.713 298.727 856.812 298.763 854.811 C 298.775 854.286 292.193 854.006 284.139 854.201 L 269.479 854.543 L 266.23 864.231 C 264.432 869.564 263.282 874.433 263.653 875.055 M 373.623 902.364 C 374.126 903.682 377.459 903.963 389.565 903.694 L 404.873 903.353 L 405.856 895.043 C 407.234 883.328 407.091 883.218 389.745 883.218 C 381.905 883.218 375.505 883.633 375.493 884.134 C 375.493 884.634 374.929 888.563 374.246 892.871 C 373.551 897.166 373.275 901.437 373.622 902.364 M 420.275 902.108 C 420.851 903.633 423.655 903.963 435.93 903.963 C 444.154 903.963 451.142 903.536 451.466 903.011 C 451.778 902.474 452.173 897.947 452.329 892.944 L 452.629 883.829 L 421.654 883.829 L 420.624 892.041 C 420.048 896.556 419.892 901.083 420.275 902.108 M 307.838 867.66 L 306.196 874.677 L 336.956 874.677 L 337.602 871.321 C 337.962 869.478 338.597 864.805 339.029 860.949 L 339.819 853.932 L 335.013 853.932 C 332.376 853.932 327.868 855.018 324.993 856.349 C 322.115 857.679 317.476 858.777 314.671 858.789 C 311.866 858.801 309.552 859.228 309.529 859.729 C 309.504 860.229 308.749 863.804 307.838 867.66 M 707.932 902.145 C 709.767 903.45 713.758 903.963 722.197 903.963 L 723.24 903.963 C 729.401 903.963 732.457 903.975 733.405 902.535 C 734.328 901.12 733.177 898.301 730.911 892.712 C 730.775 892.397 730.643 892.079 730.516 891.76 L 727.304 883.829 L 714.429 883.487 C 701.615 883.133 701.555 883.145 701.555 886.013 C 701.555 890.882 705.247 900.241 707.932 902.145 M 211.426 761.108 C 211.498 762.841 212.265 760.681 213.116 756.312 C 214.89 747.282 218.27 737.984 223.329 728.246 C 226.578 721.999 226.614 721.791 223.857 725.196 C 217.215 733.408 210.982 751.395 211.426 761.108"/>
  <path fill="#2d4728" d="M309.876 477.863c-4.591-5.577-10.704-13.984-13.581-18.682s-6.462-10.397-7.947-12.654c-4.748-7.2-16.879-33.24-21.949-47.139-10.885-29.798-16.662-60.036-18.652-97.62-1.81-34.228 6.066-85.613 18.16-118.523 5.586-15.18 24.682-52.715 28.183-55.363.443-.329 1.81-2.318 3.044-4.393 8.487-14.277 35.757-41.781 52-52.446 2.972-1.952 5.67-3.844 5.993-4.222s4.915-3.222 10.19-6.333c26.359-15.522 57.202-25.394 92.612-29.64 14.745-1.77 66.385-2.611 76.634-1.257 2.517.342 9.422 1.22 15.355 1.977 39.665 5.027 83.071 23.563 113.278 48.371 10.645 8.749 28.314 27.492 36.153 38.364 23.531 32.605 40.313 73.179 47.601 115.131 14.552 83.709-4.71 169.444-52.995 235.863-4.04 5.564-7.503 9.652-7.696 9.078-.18-.573 1.882-7.04 4.603-14.386 17.682-47.773 28.674-106.992 28.674-154.509 0-46.955-11.735-88.761-30.076-107.15-8.93-8.957-10.069-9.774-13.63-9.774-3.86 0-3.823.951.456 9.566 4.016 8.091 12.419 31.995 11.555 32.874-.311.317-5.86-1.672-12.31-4.417-26.732-11.385-60.21-19.158-106.433-24.735-30.1-3.624-90.084-4.527-117.475-1.757-45.838 4.625-88.584 14.179-122.568 27.395-7.731 3.002-12.286 4.234-12.286 3.307 0-.806 3.236-8.139 7.192-16.303 7.66-15.814 8.426-18.621 5.094-18.584-10.356.134-27.294 18.706-34.462 37.803-8.404 22.392-11.855 45.637-11.868 79.927-.012 49.115 10.381 103.599 28.986 151.921 2.972 7.724 5.944 14.728 6.604 15.583.659.854.9 1.854.552 2.22-.36.354-4.412-3.904-8.99-9.493m168.719 99.67c-33.876-4.747-64.168-17.84-88.704-38.365-16.567-13.85-27.62-26.504-38.803-44.392-7.252-11.605-18.256-33.594-22.704-45.357-5.106-13.508-13.138-41.416-12.61-43.795.3-1.33 2.72-.635 10.476 3.063 30.472 14.521 67.667 17.291 104.612 7.797 3.74-.964 17.226-5.955 29.968-11.104 21.54-8.713 23.926-9.408 34.127-9.97 13.593-.756 22.464 1.282 44.173 10.141 30.95 12.629 47.337 16.4 71.395 16.412 22.092 0 44.28-5.174 67.355-15.729 4.448-2.026 8.092-3.209 8.092-2.623 0 2.05-3.812 16.595-6.893 26.284-12.023 37.84-33.252 74.557-57.19 98.877-12.263 12.471-16.22 15.863-25.82 22.172-34.62 22.709-76.862 32.275-117.474 26.589m37.951-27.931c20.03-5.431 38.575-19.5 51.185-38.841 6.557-10.055 14.84-28.639 17.117-38.414 4.867-20.915-3.56-29.225-24.74-24.393-4.292.977-13.798 3.21-21.135 4.955-18.987 4.539-28.996 5.796-45.394 5.723-14.409-.061-21.961-1.196-53.164-7.944-17.296-3.746-21.636-3.173-24.25 3.221-4.782 11.776 2.53 38.743 15.955 58.804 12.347 18.475 35.603 34.472 54.866 37.755 6.952 1.184 23.83.695 29.56-.866m-30.243 98.791c-11.149-2.941-22.44-8.09-31.3-14.265-2.756-1.928-5.357-3.502-5.776-3.502-2.195 0-30.46-22.965-40.756-33.105-5.275-5.198-10.693-10.446-12.048-11.666-1.354-1.208-5.334-5.772-8.846-10.14s-7.396-8.92-8.631-10.116c-2.325-2.257-3.164-6.48-1.019-5.125.671.427.851 1.367.408 2.087-.468.781-.252.976.539.488 1.33-.842 3.98.646 20.007 11.263 10.177 6.748 20.39 12.385 22.451 12.397.84.013 4.496 1.44 8.115 3.197 6.75 3.246 15.584 5.821 33.564 9.738 13.066 2.855 64.874 3.283 75.519.635 23.471-5.845 44.185-13.899 59.66-23.173 6.557-3.941 25.64-17.047 26.671-18.316.336-.427 2.421-2.416 4.64-4.43l4.015-3.66-1.93 3.892c-5.97 11.995-35.17 44.71-50.885 57.011-5.227 4.087-12.754 10.176-16.734 13.532-20.737 17.462-28.134 21.83-42.279 24.918-9.77 2.123-23.41 1.488-35.385-1.66M698.93 535.142c-1.761-.562-3.284-.867-4.47-.879-1.595-.024-2.565.293-2.17.695.732.757-11.376 17.34-27.942 38.28-10.704 13.52-35.71 39.609-46.103 48.114-3.955 3.234-10.44 8.969-14.42 12.764-3.98 3.783-10.117 9.36-13.641 12.374s-7.024 6.052-7.756 6.723c-.743.683-3.776 3.148-6.737 5.491-7.767 6.102-7.467 5.857-11.388 9.201-10.356 8.798-36.656 16.364-56.938 16.376-13.305 0-20.81-1.391-39.51-7.346-9.83-3.124-29.416-11.995-33.013-14.96-.659-.537-2.972-2.063-5.153-3.368-2.17-1.318-3.68-2.844-3.345-3.393.324-.549-.132-1-1.03-1-.9 0-6.079-3.246-11.52-7.212-25.186-18.401-55.645-50.872-78.444-83.648-1.978-2.843-7.504-10.519-12.287-17.047-4.782-6.529-8.691-12.166-8.691-12.532 0-.354 3.368-.842 7.492-1.086l7.049-.403c3.464.659 4.855 2.233 7.036 5.87 16.818 27.98 26.875 42.44 38.334 55.167 7.085 7.846 23.028 23.453 30.592 29.933a3541 3541 0 0 1 9.41 8.078c1.882 1.623 3.644 2.953 3.907 2.953.66 0 18.628 13.508 20.63 15.497.875.879 2.314 1.587 3.2 1.587.888 0 1.787.414 2.015.915.515 1.196 12.12 7.028 13.281 6.675.492-.147.9.158.9.695 0 .525.946 1.037 2.098 1.135 1.15.098 5.333 1.696 9.29 3.563 3.955 1.867 7.827 3.417 8.606 3.453.78.037 1.81.476 2.301.964.48.501 2.314.903 4.076.903 1.763 0 3.525.33 3.932.745 1.247 1.269 13.87 1.793 32.93 1.354 2.144-.049 3.894-.476 3.894-.952 0-.488 2.014-1.256 4.471-1.732 4.376-.83 23.1-8.92 24.299-10.482.336-.44 3.164-1.941 6.305-3.344s6.029-3.404 6.424-4.442c.396-1.037 1.332-1.891 2.098-1.891.755 0 2.05-1.098 2.878-2.44.814-1.343 2.241-2.441 3.152-2.441.912 0 1.978-.818 2.35-1.83.383-1.013 1.522-1.831 2.529-1.831s1.834-.549 1.834-1.22.755-1.22 1.666-1.22c.923 0 1.99-.818 2.362-1.831.383-1.012 1.486-1.83 2.445-1.83.971 0 2.913-1.647 4.315-3.661 1.403-2.013 3.2-3.66 3.98-3.66s4.95-3.71 9.266-8.237 9.853-9.774 12.31-11.666c2.458-1.891 4.208-3.856 3.896-4.368-.311-.513 2.89-4.137 7.133-8.042 4.232-3.892 7.42-7.529 7.096-8.078-.323-.537.516-1.574 1.87-2.318 1.354-.745 2.17-1.819 1.822-2.404-.36-.586.684-2.136 2.326-3.441 1.63-1.306 2.637-2.709 2.23-3.112-.396-.415.156-1.098 1.247-1.513 1.078-.427 1.965-1.55 1.965-2.514 0-.952.803-2.05 1.786-2.44.995-.379 1.559-1.086 1.27-1.562-.287-.476.816-2.343 2.446-4.149 1.642-1.794 2.578-3.27 2.074-3.27-.503 0 .288-.867 1.761-1.916 1.487-1.05 2.41-2.38 2.063-2.953-.347-.574.215-1.904 1.258-2.965 1.043-1.062 1.45-1.941.911-1.953-.539 0-.18-.537.816-1.171.994-.635 1.87-1.721 1.942-2.416.083-.696.227-1.733.311-2.307.072-.561 1.175-2.245 2.434-3.721 1.27-1.477 3.02-3.771 3.895-5.089 1.367-2.038 3.153-2.428 11.796-2.611 7.683-.171 10.56.146 16.553 2.392m-88.84 299.38c-2.11-.5-60.387-.321-110.145-.26-50.753.061-112.882-.11-113.302-.098 1.932-3.675 26.542-10.59 33.984-14.949 5.833-3.416 2.708-2.659 4.518-5.404-1.031 1.659 4.771-1.05 24.094-2.514 11.196-.854 27.918-1.623 37.148-1.721 19.539-.207 85.888 1.672 87.206 2.465 1.247.757 1.163.22-.994-5.845-.684-1.916-1.175-4.783-1.487-8.2 1.03 9.628 4.004 16.022 9.805 22.001 4.4 4.515 28.639 13.489 29.172 14.525m-407.893-38.918c.096.061.192.122.276.171a47 47 0 0 1-2.098-1.061c-7.96-4.125-14.948-10.238-21.457-18.768-3.62-4.747-7-8.639-7.492-8.639-.492-.012-.9-.83-.9-1.843s-.574-1.83-1.27-1.83c-.695 0-.934-.549-.527-1.22.407-.672.132-1.221-.6-1.221-.73 0-1.007-.549-.598-1.22.407-.671.131-1.22-.6-1.22-.729 0-1.005-.549-.597-1.221.405-.671.132-1.22-.6-1.22-.731 0-1.007-.549-.6-1.22.409-.671.193-1.22-.49-1.22-.671 0-.899-.879-.492-1.953.396-1.073.108-2.343-.659-2.831-.348-.219-.816-1.415-1.295-3.172.731 1.427 1.75 1.928 3.345 2.257 1.747.366 5.595 2.904 8.544 5.638 2.961 2.745 8.33 6.052 11.987 7.382 3.644 1.318 8.116 3.21 9.925 4.198 3.285 1.781 3.298 1.769 3.298-2.172 0-2.697.598-6.175 1.641-10.079-1.139 4.783-1.618 9.298-1.594 14.106.048 7.236 1.93 20.354 3.632 25.893-.144-.317-.324-.658-.515-1.025-1.81-3.453-1.81-3.453-1.643-.414.084 1.684.707 3.428 1.38 3.904m594.909-41.976a67 67 0 0 1 1.018 5.552c.455 3.258 1.175 5.454 1.583 4.881.407-.586 2.9-1.818 5.537-2.758s9.77-4.173 15.86-7.175c7.084-3.514 10.32-5.125 11.627-9.066a33 33 0 0 1-.503 2.831c-1.607 7.016-8.463 22.086-11.425 25.088-.97 1-1.773 2.27-1.773 2.819 0 1.086-9.326 10.433-14.493 14.533-6.125 4.844-6.16 4.759-6.437-16.937-.12-8.969-.3-14.887-.994-19.768M187.128 648.857a306 306 0 0 0-10.057 18.987c-5.179 10.702-9.122 20.329-11.925 29.176 4.469-14.667 11.817-30.775 21.982-48.163m245.328 140.329c1.319-21.623-6.485-49.494-22.764-76.095 16.435 26.845 24.263 54.326 22.764 76.095M328.672 532.237l-7.755-.219c-7.145-.196-14.84 1.147-22.956 3.978 7.888-2.782 15.403-4.21 22.356-4.198 3.764.012 6.39.085 8.355.439m-120.53 201.671c3.656-7.846 8.066-15.46 12.394-20.915 1.115-1.403 2.625-3.038 4.316-4.734-6.03 6.308-11.088 14.045-16.039 24.258-.228.476-.456.94-.672 1.391m580.643-2.269c-7.192-13.777-18.088-26.382-28.421-32.862 11.495 7.212 22.308 20.427 29.5 34.924-.348-.659-.707-1.355-1.079-2.062m-217.901 49.92c.25-5.222.803-10.433 1.63-14.875.312-1.647.648-3.27.994-4.893-1.353 6.614-2.241 13.24-2.624 19.768m13.473-53.154c6.017-13.386 13.665-25.21 22.68-34.899-8.967 9.628-16.686 21.696-22.68 34.899m244.441-24.283c-4.795-16.303-13.642-35.046-27.055-57.632 13.522 22.757 22.296 41.329 27.055 57.632M714.513 542.597c9.793 5.674 20.055 13.228 26.516 19.805-6.57-6.675-16.962-14.204-26.516-19.805M203.778 795.299c.288.769.264 1.05-.347.879.347 0 .455-.293.347-.879m-43.295-58.56a68 68 0 0 1-.432-5.503c.036.635.072 1.269.132 1.891.097 1.318.204 2.514.3 3.612"/>
  <path fill="#546a32" d="M698.93 535.142c.983.366 2.038.793 3.224 1.269 3.776 1.525 8.02 3.673 12.36 6.186 9.553 5.601 19.934 13.13 26.503 19.793l.023.024c15.823 16.107 41.248 51.324 60.703 84.076 13.522 22.757 22.296 41.329 27.055 57.632 2.517 8.627 3.92 16.62 4.292 24.246.335 6.724.203 12.484-.36 16.694-1.306 3.941-4.543 5.552-11.628 9.066-6.09 3.002-13.222 6.235-15.859 7.175s-5.13 2.172-5.537 2.758c-.408.573-1.128-1.623-1.583-4.881a67 67 0 0 0-1.018-5.552c-.984-6.87-2.986-11.642-7.241-19.927-7.192-14.497-18.005-27.712-29.5-34.924-4.64-2.916-8.451-5.637-8.451-6.028-.012-1.025 13.917-3.307 29.356-4.82 14.145-1.391 17.849-3.063 15.452-6.992-1.87-3.063-8.51-7.382-13.51-8.798-9.194-2.599-28.66-1.098-48.704 3.771l-10.788 2.611-8.99-3.88c-4.939-2.136-9.422-4.332-9.95-4.869-1.474-1.489 6.773-7.602 19.875-14.716 6.437-3.502 12.203-7.297 12.802-8.444 1.882-3.6-.54-5.418-7.959-5.955-5.753-.427-8.74.158-16.746 3.307-10.26 4.026-20.834 10.408-28.313 17.095-3.657 3.271-5.203 3.893-8.367 3.38-8.188-1.317-29.105 2.807-42.088 8.323-4.782 2.025 3.441-9.592 16.027-22.648 13.606-14.119 19.024-17.755 40.601-27.285 11.699-5.174 16.938-8.457 16.938-10.604 0-2.99-4.196-4.784-11.196-4.784-14.47 0-32.618 7.237-50.538 20.135-10.166 7.333-25.4 23.953-28.853 31.507-3.117 6.809-3.908 17.388-1.642 21.72 1.103 2.099 0 3.783-8.271 12.691l-.013.012c-8.966 9.628-16.685 21.696-22.679 34.899-4.819 10.616-8.522 21.965-10.849 33.386v.012a211 211 0 0 0-.994 4.881c-.827 4.442-1.38 9.653-1.63 14.875a117 117 0 0 0-.216 7.09c0 3.441.132 6.54.443 9.347v.012c.312 3.405.803 6.272 1.487 8.188 2.157 6.065 2.241 6.602.994 5.845-1.318-.793-67.667-2.672-87.206-2.465-9.23.098-25.952.867-37.148 1.721-19.323 1.464-29.305 9.089-28.274 7.43 4.315-6.504 10.905-19.852 11.492-29.541 1.499-21.769-6.33-49.25-22.764-76.095-5.285-8.627-14.384-18.475-23.697-25.613-4.328-3.319-4.496-3.734-4.544-10.934-.096-13.581-4.028-20.683-21.073-38.059-11.088-11.312-19.144-17.096-32.953-23.673-9.206-4.393-24.706-8.591-31.694-8.591-5.537 0-11.136 3.454-9.626 5.943.493.805 7.444 4.808 15.477 8.895 19.287 9.848 31.92 18.463 42.241 28.811 7.265 7.297 16.734 19.585 15.8 20.512-.168.159-4.351-1.074-9.29-2.733-6.605-2.233-12.718-3.222-23.015-3.734l-14.025-.696-5.155-4.673c-11.484-10.421-33.528-19.378-47.685-19.378-9.038 0-11.231 1.403-10.597 6.785.348 2.965 1.547 3.673 13.21 7.846 12.491 4.466 20.343 8.42 26.024 13.093l2.793 2.306-9.877 4.601c-8.33 3.868-10.369 4.393-13.03 3.319-12.97-5.235-36.093-8.859-46.366-7.261-8.2 1.269-16.518 6.394-17.106 10.543-.216 1.489-.023 2.697.407 2.697 5.491 0 37.808 8.298 37.665 9.677-.037.378-3.92 3.441-8.643 6.797-3.68 2.623-7.012 5.466-10.081 8.688-1.69 1.696-3.2 3.331-4.316 4.734-4.328 5.455-8.738 13.069-12.395 20.915-3.524 7.42-5.837 13.509-7.204 19.232-1.043 3.904-1.641 7.382-1.641 10.079 0 3.941-.013 3.953-3.298 2.172-1.81-.988-6.28-2.88-9.925-4.198-3.656-1.33-9.026-4.637-11.987-7.382-2.949-2.734-6.797-5.272-8.544-5.638-1.595-.329-2.614-.83-3.345-2.257-.54-2.014-1.103-4.759-1.51-7.676-.072-.5-.144-1-.204-1.501-.096-1.098-.203-2.294-.3-3.612a49 49 0 0 1-.132-1.891c-.407-10.311 1.307-21.745 5.095-34.216 2.803-8.847 6.746-18.474 11.925-29.176a306 306 0 0 1 10.057-18.987c10.213-17.499 23.279-36.29 39.126-56.242 13.869-17.461 21.66-25.478 34.175-35.155 13.006-10.055 25.7-17.291 37.532-21.464 8.115-2.831 15.811-4.174 22.956-3.978l7.755.219c.084.013.168.025.24.049l-7.05.403c-4.123.244-7.491.732-7.491 1.086 0 .366 3.909 6.003 8.691 12.532 4.783 6.528 10.309 14.204 12.287 17.047 22.799 32.776 53.258 65.247 78.443 83.648 5.442 3.966 10.62 7.212 11.52 7.212.899 0 1.355.451 1.03 1-.334.549 1.175 2.075 3.346 3.393 2.18 1.305 4.494 2.831 5.153 3.368 3.597 2.965 23.184 11.836 33.014 14.96 18.699 5.955 26.204 7.346 39.509 7.346 20.282-.012 46.582-7.578 56.938-16.376 3.92-3.344 3.62-3.099 11.388-9.201 2.961-2.343 5.994-4.808 6.737-5.491.732-.671 4.232-3.709 7.756-6.723s9.661-8.591 13.64-12.374c3.98-3.795 10.466-9.53 14.421-12.764 10.393-8.505 35.399-34.594 46.103-48.114 16.566-20.94 28.674-37.523 27.942-38.28-.395-.402.575-.719 2.17-.695 1.186.012 2.709.317 4.47.879M459.38 772.81c7.348-3.88 7.923-20.622 1.378-40.049-5.143-15.228-17.73-39.255-23.219-44.307-5.06-4.649-10.645-5.479-14.289-2.123-3.38 3.124-2.65 6.943 3.045 15.948 11.34 17.889 19.227 38.316 22.692 58.756 1.174 6.943 2.397 10.543 3.968 11.763 1.282.976 1.882 1.513 2.541 1.611.683.085 1.45-.318 3.14-1.208.228-.122.468-.257.743-.391m87.11-4.857c1.378-.976 3.092-3.319 3.812-5.186s3.273-8.627 5.67-14.997c5.897-15.68 13.69-31.177 21.564-42.891 6.653-9.897 7.373-13.24 3.836-17.816-5.238-6.772-22.967 11.263-33.84 34.423-9.385 20.012-13.953 41.818-9.661 46.175 2.493 2.55 5.323 2.635 8.619.292m-335.064-6.845c-.444-9.713 5.79-27.7 12.43-35.912 2.758-3.405 2.722-3.197-.527 3.05-5.059 9.738-8.44 19.036-10.213 28.066-.851 4.369-1.618 6.529-1.69 4.796m-9.23 34.496c-.672-.476-1.295-2.22-1.379-3.904-.168-3.039-.168-3.039 1.643.414.191.367.371.708.515 1.025.168.562.347 1.038.504 1.428.12.281.227.525.3.732.107.586 0 .879-.348.879a8 8 0 0 1-.96-.403 9 9 0 0 1-.275-.171"/>
  <path fill="#faa14b" d="M374.127 398.803c-12.838-1.635-27.199-5.894-38.778-11.507-11.927-5.784-25.437-15.546-26.995-19.512-3.357-8.554-4.771-62.087-2.29-86.406 1.535-14.948 1.342-14.716 18.496-23.002 33.864-16.351 82.975-27.675 137.48-31.702 21.577-1.586 87.65-.854 103.462 1.147 46.653 5.93 91.844 17.974 116.263 30.994 14.504 7.737 13.545 4.833 14.552 44.174.563 21.854.3 31.982-1.235 45.759l-1.954 17.694-4.867 4.515c-11.376 10.567-27.858 19.133-47.133 24.514-8.475 2.356-12.503 2.685-31.874 2.6-26.215-.122-30.746-1.111-60.534-13.277-25.809-10.543-30.208-11.739-45.552-12.471-17.573-.842-25.257.952-53.486 12.483-13.33 5.443-27.295 10.251-33.505 11.556-13.102 2.721-31.417 3.795-42.05 2.441M309.972 838.46c-4.255-.879-8.163-5.87-11.615-14.826-9.854-25.553-27.859-52.679-34.967-52.679-2.577 0-6.557 4.491-6.557 7.395 0 1.391 3.488 8.493 7.744 15.79 9.026 15.497 16.23 29.738 16.23 32.117 0 2.526-4.027 5.711-7.204 5.711-8.055 0-24.322-13.167-31.85-25.784-2.373-3.99-4.435-7.919-4.567-8.725-.132-.817-.827-2.587-1.534-3.929-7.204-13.716-3.764-41.745 7.551-61.403 10.477-18.194 40.122-39.243 62.982-44.735 11.615-2.782 28.709-2.367 38.154.928 17.55 6.138 36.033 19.988 45.995 34.484 12.023 17.486 20.138 40.329 21.876 61.55.732 8.944.564 9.994-2.386 15.119-2.528 4.392-4.77 6.308-11.052 9.457-8.39 4.209-10.02 3.856-10.056-2.148-.048-5.198-6.078-26.162-10.561-36.669-2.518-5.918-6.845-14.509-9.614-19.109-2.757-4.6-5.022-8.578-5.022-8.834 0-.598-3.896-5.382-10.093-12.386-4.112-4.637-5.25-5.272-8.979-4.954-3.38.293-4.495 1.037-5.382 3.624-.97 2.855-.048 5.088 7.347 17.694 11.485 19.597 15.309 27.65 20.271 42.769 9.099 27.676 5.622 44.601-9.158 44.601-8.595 0-10.62-2.612-17.465-22.526-6.737-19.585-12.024-30.897-20.57-44.076-3.141-4.82-5.981-9.335-6.306-10.018-1.473-3.002-13.066-12.788-15.15-12.788-3.717 0-7.637 3.514-7.637 6.833 0 1.818 3.368 7.822 8.343 14.875 15.116 21.44 26.42 47.004 26.42 59.731 0 4.918-.576 6.517-3.297 9.152-3.476 3.368-7.563 4.662-11.89 3.759m375.173-.342c-5.035-2.184-6.737-6.626-6.09-15.924.336-4.674 1.283-9.323 2.11-10.348.827-1.013 1.211-1.843.863-1.843-1.151 0 6.389-18.718 10.812-26.845 2.374-4.369 7.469-12.666 11.317-18.463 7.42-11.165 8.103-13.544 5.117-17.876-3.272-4.747-7.767-3.563-14.671 3.856-13.93 14.997-23.64 34.106-31.443 61.903-4.939 17.584-7.935 21.721-15.787 21.794-12.454.11-17.034-9.201-14.133-28.713 2.446-16.449 6.88-29.566 17.573-52.068 10.165-21.391 10.262-21.684 8.235-24.82-5.346-8.31-16.721 3.392-29.44 30.311-6.76 14.277-11.232 29.14-13.294 44.173-1.677 12.227-1.821 12.3-13.161 6.443-13.162-6.797-14.888-11.922-11.244-33.398 6.365-37.547 21.696-64.856 44.556-79.365 27.714-17.584 54.181-14.924 91.042 9.152 13.294 8.676 24.106 20.427 30.256 32.885 8.379 16.95 11.675 37.108 8.426 51.471-3.464 15.289-15.727 31.799-28.529 38.401-7.372 3.795-11.484 3.453-13.545-1.135-1.164-2.599-.455-4.734 5.585-16.754 3.8-7.565 8.692-16.778 10.86-20.476 5.276-8.969 6.103-12.678 3.657-16.485-4.184-6.492-10.74-3.014-19.563 10.384-4.41 6.711-14.276 26.626-19.395 39.182-2.086 5.101-5.034 10.482-6.569 11.947-3.177 3.026-9.674 4.283-13.545 2.611M422.627 375.154c5.598-2.379 14.217-12.727 17.01-20.402 1.737-4.796 2.397-9.628 2.397-17.596 0-9.384-.467-12.008-3.236-18.024-1.786-3.868-3.237-7.345-3.225-7.724.096-2.794-15.271-11.433-20.366-11.458-13.93-.061-26.072 13.167-28.985 31.568-2.997 18.926 7.432 40.927 21.05 44.405 4.722 1.196 11.53.866 15.355-.769m175.814-1c17.826-8.335 23.795-41.318 10.981-60.745-12.43-18.828-34.655-16.802-45.503 4.149-2.913 5.601-3.2 7.419-3.213 19.598 0 12.178.312 14.118 3.405 20.915 7.503 16.534 20.402 22.574 34.33 16.083M487.213 529.919c-10.991-2.428-23.147-8.542-28.948-14.558l-5.023-5.21 5.778-3.588c16.578-10.25 35.039-13.557 56.735-10.14 8.57 1.354 29.967 11.214 29.967 13.825 0 2.331-6.976 8.676-14.791 13.46-12.204 7.443-27.99 9.689-43.718 6.211m-33-248.956c1.199-3.197-3.224-11.202-9.41-16.998-3.236-3.039-6.353-5.516-6.916-5.516-.576 0-1.223-.427-1.45-.939-.673-1.599-15.632-8.53-22.572-10.458-27.835-7.773-56.904.293-64.071 17.767-4.04 9.86-1.739 11.531 9.756 7.09 3.417-1.33 11.233-3.027 17.382-3.795 19.826-2.453 40.181.793 60.907 9.725 12.562 5.406 15.307 5.931 16.374 3.124m111.528-3.466c21.241-8.773 26.827-9.884 50.107-9.871 19.43.012 20.76.17 28.684 3.38 6.462 2.611 8.524 3.014 9.302 1.806 2.673-4.149-3.728-16.108-11.448-21.367-8.235-5.613-16.05-7.639-29.56-7.639-20.845 0-39.293 6.956-53.738 20.256-7.839 7.224-11.136 13.814-8.534 17.011.803.976 1.63 1.781 1.857 1.781.216 0 6.21-2.404 13.33-5.357"/>
  <path d="M4.914 511.884v-512H1028.91V1023.88H4.914zm777.63 403.29c4.9-2.62 9.83-7.35 11.96-11.46 2.42-4.68 3.76-20 2.42-27.68-1.09-6.27-10.56-27.27-39.74-88.15-8.1-16.9-11.6-21.55-18.32-24.38l-2.71-1.14 3.13-3.58c2.7-3.09 3.93-3.68 8.87-4.25 19.81-2.29 40.46-16.52 51.9-35.77 12.98-21.85 14.34-49.44 3.78-76.88-7.05-18.33-24.09-48.73-39.24-70-27.45-38.55-43-54.92-61.54-64.8-8.58-4.57-21.03-9.2-24.76-9.2-1.24 0-2.47-.34-2.73-.75-.25-.42 2.63-4.55 6.42-9.19 22.2-27.21 39.62-59.6 50.31-93.56 9.06-28.79 13.4-69.82 10.67-101-8.24-94.3-58.7-166.65-136.42-195.6-23.66-8.82-47.62-12.88-80.44-13.62-51.57-1.18-88.01 5.65-122.94 23.02-54.38 27.04-92.66 76.67-109.31 141.7-5.84 22.83-7.32 36.45-7.37 68-.04 22.75.31 30.82 1.75 40 6.48 41.27 19.55 76.09 41.01 109.25 4.32 6.68 11.05 15.74 21.79 29.34.59.74-1.72 1.95-7.13 3.73-16.68 5.5-36.1 16.76-48.94 28.37-12.95 11.72-37.91 43.54-53.04 67.63-32.2 51.25-37.34 90.54-16.08 122.94 6.17 9.4 12.67 16.52 20.37 22.31 11.16 8.39 27.9 15.5 39.89 16.96 3.48.42 6.32 1.38 7.3 2.46 1.53 1.69 1.1 1.8-8.7 2.16-9.07.34-10.89.72-15.02 3.14-2.59 1.51-5.79 4.21-7.13 5.98-4.19 5.58-50.46 95.99-51.72 101.08-.78 3.13-1.01 8.84-.65 16.11.64 13.12 2.25 17.26 8.91 22.97 8.14 6.96-14.87 6.46 286.32 6.25l273-.18zm121.53-9.74c17.82-3.77 31.39-15.01 35.99-29.79 9.76-31.36-17.36-70.74-56.65-82.27-24.93-7.31-54.51-2.53-68.04 10.99-13.87 13.87-15.01 38.63-2.74 59.42 4.78 8.09 15.74 19.9 23.83 25.68 8.45 6.02 23.32 12.87 32.45 14.93 4.12.93 7.95 1.83 8.5 2.01 2.85.92 20.87.26 26.66-.97m-9.79-184.62c3.32-2.61 3.48-6.81.38-9.61-1.24-1.11-11.63-6.85-23.08-12.76-22.36-11.52-24.06-11.95-27.32-6.97-3.5 5.35-1.83 6.83 22.17 19.59 12.09 6.43 22.71 11.72 23.6 11.76.88.03 2.8-.87 4.25-2.01m-731.13-11.59c11.14-5.87 21.05-11.34 22.01-12.16 2.21-1.88 2.26-6.96.1-9.35-2.97-3.28-6.85-2.14-24.14 7.09-9.19 4.9-18.81 9.92-21.37 11.15-4.05 1.95-6.84 5.14-6.84 7.84 0 2.34 4.35 6.09 7.07 6.09 1.78 0 10.84-4.17 23.17-10.66m757.13-40.41c1.44-1.14 2.63-3.08 2.63-4.31 0-5.34.1-5.31-52.06-20.68-12.96-3.82-24.99-6.94-26.73-6.94-6.27 0-8.28 8.65-2.61 11.23 2.11.96 73.59 22.44 75.52 22.69.33.04 1.8-.85 3.25-1.99m-764.17-11.39c25.09-7.05 37.68-11.03 38.54-12.19 3.64-4.98-.11-10.87-6.44-10.12-2.09.25-19.55 4.86-38.8 10.25-36.28 10.14-38.5 11.07-38.5 16.06 0 2.37 4.17 6.46 6.59 6.46.73 0 18.1-4.71 38.61-10.46m63.12-62.69c1.2-.63 2.51-1.64 2.91-2.25 1.31-1.96.81-6.89-.88-8.77-1.56-1.72-4.3-1.83-45.55-1.83h-43.89l-2.46 2.45c-3.65 3.66-2.76 8.68 1.87 10.54 3.42 1.38 85.35 1.25 88-.14m676.85-.5c1.04-.95 1.83-3.03 1.83-4.85 0-6.39.92-6.25-46.61-7.05l-43.11-.73-2.14 2.14c-3.47 3.47-2.32 9.32 2.18 11.13 1.2.49 21.04.91 44.1.95 37.66.05 42.11-.11 43.75-1.59m-69.53-64.28c46.13-11.51 47.36-11.96 47.36-17.37 0-2.31-3.66-6.7-5.59-6.7-3.66 0-91.18 22.43-92.66 23.75-3.89 3.47-.67 11.25 4.65 11.25 1.33 0 22.13-4.92 46.24-10.93m-575.71 4.3c1.14-1.45 2.07-3.19 2.07-3.87 0-2.46-4.19-6.48-7.8-7.48-2.04-.57-18.55-5.26-36.7-10.43-57.85-16.46-58.54-16.59-61.45-11.39-1.39 2.5-1.35 2.93.56 5.5 1.17 1.58 3.78 3.3 5.98 3.94 2.15.62 14.48 4.12 27.41 7.77s32.5 9.3 43.5 12.56c11 3.25 20.98 5.94 22.18 5.97 1.21.03 3.1-1.11 4.25-2.57m520.34-42.71c11.68-7.34 33.38-20.67 48.23-29.63 14.85-8.95 27.79-17.17 28.75-18.26 3.56-4.05.68-10.77-4.62-10.77-2.53 0-22.23 11.63-69.13 40.8-36.04 22.41-33.5 20.54-33.5 24.69 0 3.79 2.82 6.51 6.74 6.51 1.26 0 11.85-6 23.53-13.34m-476.02 7.53c1.95-1.67 2.25-4.39.78-7.14-.95-1.77-20.83-16.57-52.03-38.72-40.87-29.02-39.49-28.19-43.4-26.13-2.79 1.46-3.57 2.76-3.58 5.98-.02 3.43 1.51 4.66 35.46 28.36 14.85 10.36 32.97 23.27 40.28 28.69 16.7 12.38 17.94 12.87 22.49 8.96" style="fill-opacity:0;fill:none" transform="matrix(.97666 0 0 1 230.474 15.939)"/>
  <path d="M 354.297 965.613 C 352.607 964.523 354.069 944.15 355.988 942.191 C 356.683 941.481 389.425 938.128 391.978 943.112 C 392.937 944.998 391.731 966.036 391.731 966.036 C 391.731 966.036 356.599 967.12 354.297 965.613 M 895.319 942.585 C 895.319 942.585 910.494 929.321 916.395 926.544 C 929.763 920.253 936.3 920.376 936.3 920.376 L 959.463 956.785 C 951.334 967.19 910.501 950.861 910.501 950.861 M 738.267 930.773 C 737.32 929.255 735.582 924.81 734.394 920.891 C 731.902 912.637 732.585 911.535 740.304 911.511 C 750.146 911.462 751.764 907.187 746.514 895.076 C 746.394 894.806 746.286 894.549 746.178 894.292 C 744.045 889.394 742.87 886.675 743.733 885.181 C 744.788 883.319 748.983 883.319 758.357 883.319 L 759.556 883.319 C 770.967 883.319 775.918 883.761 776.745 884.851 C 777.38 885.696 782.115 895.75 787.245 907.199 C 792.389 918.65 797.063 928.544 797.626 929.182 C 798.19 929.818 798.658 931.055 798.658 931.936 C 798.658 933.198 792.592 933.529 769.313 933.529 C 740.197 933.529 739.969 933.504 738.267 930.773 M 672.794 874.882 C 670.42 874.221 669.209 872.347 666.968 865.844 C 665.409 861.326 664.45 856.807 664.834 855.79 C 665.781 853.243 673.26 853.378 677.192 856.011 C 681.484 858.889 696.971 858.987 702.761 856.183 C 705.997 854.627 712.039 854.003 729.132 853.476 C 753.238 852.73 758.932 853.452 763.571 857.812 C 767.947 861.913 772.909 873.584 770.86 874.92 C 768.99 876.132 677.108 876.095 672.794 874.882 M 176.561 930.161 C 176.581 928.986 178.339 924.712 180.458 920.67 L 184.326 912.323 L 275.422 912.323 L 275.242 918.968 C 275.146 922.066 274.187 926.34 273.109 928.459 L 271.167 932.305 L 223.842 932.305 C 179.57 932.305 176.532 932.169 176.561 930.161 M 881.968 932.488 C 879.99 931.239 875.806 927.406 872.678 923.965 C 871.211 922.356 863.732 915.881 867.552 907.388 C 874.543 891.847 891.514 885.754 900.668 882.788 C 910.831 879.496 944.822 883.741 953.741 888.986 C 963.134 894.511 977.353 899.879 980.826 908.217 C 980.826 908.217 941.46 907.095 924.786 912.966 C 908.409 918.733 893.979 927.626 889.915 932.708 C 887.817 935.316 886.414 935.28 881.968 932.488 M 160.388 966.655 C 159.851 965.749 161.833 960.164 165.261 953 L 171.053 939.876 L 198.302 939.876 C 213.284 939.876 225.785 940.293 226.098 940.795 C 226.391 941.309 225.746 947.342 224.642 952.988 C 223.119 960.764 221.996 963.691 220.013 965.038 C 216.399 967.487 161.785 968.969 160.388 966.655 M 749.223 965.123 C 747.28 963.642 741.12 946.354 741.12 942.705 C 741.12 941.358 746.814 941.126 771.986 941.383 L 802.853 941.714 L 808.139 953.429 C 811.052 959.332 813.03 964.56 812.539 965.062 C 812.047 965.565 798.07 966.14 781.48 966.349 C 758.201 966.618 750.829 966.336 749.223 965.123 M 190.352 902.962 C 189.336 901.285 197.599 885.009 199.943 884.091 C 201.017 883.663 216.497 883.319 234.321 883.319 L 266.743 883.319 L 266.084 887.447 C 265.725 889.712 264.238 894.403 262.788 897.856 L 260.139 904.138 L 225.599 904.138 C 204.855 904.138 190.772 903.673 190.352 902.962 M 238.159 964.916 C 237.349 962.785 241.851 942.685 243.629 940.86 C 245.133 939.318 275.135 939.203 281.608 940.44 C 286.15 941.309 286.211 942.64 284.268 954.09 C 282.147 966.519 281.979 966.594 258.605 966.594 C 242.935 966.594 238.657 966.238 238.159 964.916 M 298.257 965.467 C 297.083 963.532 300.811 942.105 302.549 940.918 C 304.203 939.791 341.243 939.963 342.358 941.102 C 342.981 941.75 341.111 962.43 340.176 965.062 C 339.517 966.912 299.361 967.291 298.257 965.467 M 647.393 966.985 C 644.947 966.324 642.046 958.474 641.087 949.889 C 640.512 944.82 640.752 942.46 642.298 941.848 C 643.353 941.444 651.42 941.102 660.219 941.102 C 672.182 941.102 676.629 941.53 677.863 942.779 C 678.763 943.71 680.549 949.719 681.82 954.923 C 684.085 964.242 684.085 964.414 681.82 966.104 C 680.118 967.377 675.67 967.781 664.474 967.671 C 656.191 967.597 648.508 967.291 647.393 966.985 M 591.845 964.45 C 589.771 959.417 587.936 944.138 589.172 942.595 C 590.107 941.432 594.985 941.126 608.53 941.371 L 626.643 941.714 L 628.022 948.449 C 628.789 952.159 629.46 958.523 629.52 961.389 L 629.64 966.594 L 611.192 966.594 C 594.757 966.594 592.636 966.361 591.845 964.45 M 206.516 872.629 C 206.564 869.139 212.805 858.632 216.468 855.864 C 219.525 853.562 221.517 853.317 237.056 853.317 C 246.51 853.317 254.528 853.611 254.89 853.978 C 255.251 854.345 254.089 859.024 252.301 864.387 L 249.049 874.136 L 227.777 874.466 C 208.068 874.784 206.496 874.638 206.516 872.629 M 638.355 931.999 C 637.719 931.154 636.604 927.442 635.897 923.732 C 635.19 920.021 634.243 915.029 633.799 913.854 C 633.044 911.87 634.351 911.711 651.577 911.711 L 670.18 911.711 L 672.685 920.291 C 672.889 920.915 673.081 921.503 673.273 922.066 C 674.975 927.185 675.922 930.015 674.939 931.594 C 673.716 933.553 669.485 933.541 659.979 933.529 L 657.354 933.529 C 644.516 933.529 639.194 933.101 638.355 931.999 M 698.889 965.283 C 696.959 964.144 694.454 956.005 692.56 946.306 L 691.781 942.326 L 707.915 942.326 C 719.363 942.326 724.397 942.766 725.272 943.856 C 727.431 946.539 730.583 960.531 729.816 963.617 C 729.097 966.557 728.929 966.594 715.023 966.557 C 707.292 966.532 700.028 965.956 698.889 965.283 M 587.17 931.9 C 585.551 930.688 584.844 928.067 584.377 921.491 L 583.765 911.711 L 601.242 911.711 C 613.194 911.711 618.983 912.164 619.57 913.131 C 620.446 914.576 623.527 929.231 623.598 931.999 C 623.67 934.252 590.191 934.165 587.17 931.9 M 689.576 931.692 C 688.76 930.676 688.556 929.843 689.132 929.831 C 689.707 929.831 689.599 929.414 688.892 928.912 C 688.196 928.422 686.746 924.822 685.68 920.915 L 683.725 912.813 L 686.687 911.674 C 690.055 910.363 714.832 910.205 716.654 911.478 C 718.321 912.653 724.445 931.129 723.654 932.451 C 723.295 933.039 715.814 933.529 707.028 933.529 C 694.298 933.529 690.762 933.162 689.576 931.692 M 488.492 932.733 C 487.473 932.305 486.994 929.01 486.994 922.41 L 486.994 911.711 L 521.649 911.711 L 522.38 916.69 C 522.787 918.883 522.943 923.426 522.728 926.793 L 522.356 932.917 L 506.173 933.15 C 497.279 933.272 489.319 933.088 488.492 932.733 M 439.945 932.623 C 437.643 932.072 437.391 929.586 438.626 919.14 L 439.382 911.711 L 473.808 911.711 L 473.808 921.846 C 473.808 929.757 473.485 931.178 471.398 932.305 C 469.157 933.541 444.835 933.774 439.945 932.623 M 287.493 931.215 C 286.402 929.414 289.267 917.241 291.353 914.816 C 293.019 912.895 295.213 911.686 310.7 911.98 L 328.165 912.323 L 327.734 918.222 C 327.506 920.903 326.691 925.042 325.936 927.406 L 324.558 931.692 L 306.373 932.035 C 295.897 932.218 287.889 931.875 287.493 931.215 M 277.976 903.268 C 275.242 902.546 275.77 897.428 279.462 888.904 L 281.883 883.319 L 314.38 883.319 L 314.38 886.455 C 314.38 890.606 311.935 900.685 310.461 902.607 C 309.633 903.697 305.103 904.101 294.758 903.991 C 286.762 903.918 279.21 903.588 277.976 903.268 M 607.177 903.134 C 605.69 902.166 603.268 891.672 603.268 886.186 L 603.268 883.258 L 637.204 883.933 L 639.362 893.116 C 640.548 898.162 641.543 902.717 641.579 903.22 C 641.639 904.445 609.07 904.371 607.177 903.134 M 657.534 902.607 C 656.898 901.762 655.784 898.052 655.077 894.342 C 654.369 890.63 653.422 886.626 652.966 885.426 C 652.188 883.394 653.254 883.271 669.245 883.589 L 686.375 883.933 L 689.119 891.892 C 689.371 892.627 689.612 893.313 689.839 893.961 C 691.445 898.542 692.344 901.065 691.469 902.461 C 690.414 904.175 686.687 904.163 678.379 904.138 L 675.335 904.138 C 663.456 904.138 658.373 903.697 657.534 902.607 M 559.132 902.571 C 558.101 901.297 555.368 888.095 555.333 884.202 C 555.32 883.675 563.004 883.406 572.402 883.589 L 589.483 883.933 L 591.15 892.113 L 591.293 892.835 C 592.3 897.807 592.875 900.599 591.773 902.154 C 590.37 904.138 586.27 904.138 576.957 904.138 L 575.878 904.138 C 564.742 904.138 560.055 903.697 559.132 902.571 M 537.771 932.611 C 537.028 932.108 536.213 927.553 535.973 922.508 L 535.542 912.323 L 551.964 911.98 C 552.444 911.968 552.91 911.968 553.367 911.956 C 563.184 911.747 567.391 911.662 569.309 913.755 C 570.831 915.433 570.879 919.519 571.143 925.055 L 571.502 932.917 L 555.32 933.223 C 546.425 933.395 538.526 933.113 537.771 932.611 M 342.681 932.611 L 339.229 932.108 L 339.961 924.112 C 340.356 919.703 341.303 915.343 342.07 914.4 C 343.113 913.114 347.309 911.711 359.655 911.711 L 375.862 911.711 L 375.143 921.466 C 374.747 926.291 373.992 930.627 373.477 931.116 C 372.349 932.145 347.728 933.345 342.681 932.611 M 391.996 932.672 C 388.879 932.169 388.7 931.79 388.7 925.569 C 388.7 921.956 389.227 917.584 389.875 915.858 L 391.038 911.711 L 406.584 911.711 C 415.131 911.711 422.384 912.14 422.695 912.653 C 423.007 913.168 422.899 918.723 422.468 923.756 L 421.664 932.917 L 408.479 933.063 C 401.226 933.137 393.807 932.966 391.996 932.672 M 326.835 902.375 C 326.008 900.182 328.584 886.932 330.239 884.851 C 331.09 883.773 335.909 883.319 346.457 883.319 L 361.466 883.319 L 360.627 892.737 C 360.171 897.917 359.523 902.607 359.188 903.146 C 358.864 903.697 351.588 904.138 343.041 904.138 C 330.623 904.138 327.363 903.783 326.835 902.375 M 583.13 875.078 C 580.469 874.748 578.814 873.706 578.096 871.907 C 576.13 867.008 574.416 855.974 575.47 854.896 C 576.034 854.321 583.19 854.003 591.377 854.199 L 606.265 854.542 L 607.968 863.224 C 610.412 875.777 610.221 876.009 597.61 875.777 C 591.821 875.666 585.299 875.36 583.13 875.078 M 356.035 874.993 C 350.473 874.626 350.341 874.515 350.462 870.707 C 350.521 868.551 351.192 864.033 351.96 860.665 L 353.351 854.542 L 369.317 854.199 C 384.145 853.881 385.247 854.015 384.685 856.035 C 384.349 857.236 383.713 861.706 383.27 865.955 C 382.814 870.217 381.831 873.903 381.076 874.148 C 378.955 874.845 362.377 875.396 356.035 874.993 M 511.772 903.22 C 511.472 902.717 511.028 898.162 510.8 893.116 L 510.369 883.933 L 542.734 883.933 L 543.716 892.308 C 544.268 896.913 544.412 901.456 544.052 902.411 C 543.549 903.771 540.145 904.138 527.858 904.138 C 519.311 904.138 512.059 903.722 511.772 903.22 M 393.53 873.83 C 393.83 866.983 396.06 855.803 397.294 854.995 C 398.169 854.432 405.23 853.954 412.974 853.954 L 561.877 853.975 L 563.767 863.327 C 563.79 867.931 567.7 873.678 566.442 875.136 C 564.847 876.985 420.574 874.772 412.207 874.748 L 409.546 874.748 C 400.723 874.748 393.507 874.331 393.53 873.83 M 466.016 883.933 L 497.183 883.933 L 497.878 904.138 L 465.322 904.138 L 466.016 883.933 Z M 626.248 875.054 C 622.916 874.454 620.541 869.372 619.367 860.26 L 618.54 853.929 L 626.787 854.003 C 631.318 854.051 638.486 854.75 642.706 855.571 L 650.366 857.064 L 652.775 865.318 C 654.093 869.85 654.957 873.743 654.693 873.988 C 653.914 874.674 629.304 875.593 626.248 875.054 M 263.663 875.127 C 263.292 874.503 264.442 869.617 266.24 864.265 L 269.489 854.542 L 284.149 854.199 C 292.204 854.003 298.785 854.284 298.773 854.811 C 298.737 856.819 294.146 873.78 293.463 874.49 C 292.228 875.739 264.406 876.34 263.663 875.127 M 373.632 902.534 C 373.284 901.603 373.561 897.317 374.256 893.007 C 374.939 888.684 375.502 884.74 375.502 884.239 C 375.514 883.736 381.915 883.319 389.755 883.319 C 407.1 883.319 407.244 883.43 405.866 895.187 L 404.882 903.526 L 389.575 903.869 C 377.468 904.138 374.136 903.856 373.632 902.534 M 420.286 902.277 C 419.902 901.248 420.058 896.705 420.634 892.174 L 421.664 883.933 L 452.639 883.933 L 452.339 893.08 C 452.184 898.101 451.788 902.644 451.477 903.183 C 451.152 903.71 444.164 904.138 435.941 904.138 C 423.666 904.138 420.861 903.807 420.286 902.277 M 307.847 867.706 C 308.758 863.836 309.513 860.248 309.538 859.747 C 309.561 859.244 311.875 858.815 314.68 858.803 C 317.485 858.791 322.124 857.689 325.001 856.355 C 327.877 855.019 332.385 853.929 335.022 853.929 L 339.829 853.929 L 339.038 860.971 C 338.606 864.841 337.971 869.53 337.611 871.38 L 336.964 874.748 L 306.205 874.748 L 307.847 867.706 Z M 707.94 902.314 C 705.254 900.403 701.562 891.011 701.562 886.124 C 701.562 883.246 701.623 883.234 714.436 883.589 L 727.311 883.933 L 730.523 891.892 C 730.655 892.223 730.787 892.541 730.918 892.847 C 733.184 898.456 734.335 901.285 733.412 902.705 C 732.465 904.151 729.409 904.138 723.247 904.138 L 722.204 904.138 C 713.765 904.138 709.774 903.624 707.94 902.314" style="stroke-width:1;fill:#727271;stroke-miterlimit:4.35"/>
  <path d="M-75.21 984.712c-3.091-5.657-3.128-10.838-.098-15.004l2.361-3.252 336.761-.35c334.118-.338 336.801-.327 340.782 2.382 6.097 4.166 4.959 11.832-2.621 17.623l-4.019 3.071H-72.76z" style="stroke-width:1;fill:#313330" transform="matrix(.97666 0 0 1 230.474 15.939)"/>
  <path d="M866.39 935.05c10.613 8.98 45.946 31.867 65.884 35.711 13.433 2.59 48.688-3.864 61.365-9.041 10.501-4.29-12.488 24.586-28.092 27.473-11.31 2.092-32.173 2.881-48.243-3.096-18.206-6.772-39.195-26.118-39.195-26.118" style="fill:#42433f;stroke-width:27px"/>
  <path d="M 992.605 946.543 C 992.605 946.543 984.767 962.083 965.262 945.407 C 956.322 937.764 941.443 919.374 941.443 919.374 C 941.443 919.374 965.273 914.344 974.265 917.81 C 984.543 921.772 990.517 918.927 992.369 941.003" style="stroke-width: 0.988; fill: rgb(114, 114, 113); stroke-miterlimit: 4.35;"/>
  <path d="M 524.724 965.494 C 523.679 952.909 524.302 951.055 527.742 941.257 C 528.071 940.32 567.534 938.606 571.593 941.996 C 573.213 943.349 575.683 965.175 575.683 965.175 M 409.071 943.249 C 410.575 941.709 437.945 941.457 444.418 942.687 C 448.96 943.557 446.92 965.047 446.92 965.047 C 446.92 965.047 408.564 966.326 408.066 965.006 M 462.459 965.065 C 461.285 963.125 462.404 942.971 464.142 941.781 C 465.796 940.651 507.795 940.374 508.91 941.514 C 509.533 942.154 509.313 962.619 508.378 965.249" style="stroke-width: 0.988; fill: rgb(114, 114, 113); stroke-miterlimit: 4.35;"/>
</svg>