<svg xmlns="http://www.w3.org/2000/svg" width="836" height="1254" viewBox="0 0 836 1254"><g transform="translate(-10.405 -2.258)"><path d="M162.713 274.148c-.558.336-17.318-18.577-17.209-18.654 2.36-1.737 116.123-144.719 127.425-151.987 8.046-5.165 24.162 22.566 24.441 21.957 2.401-5.241-133.121 147.753-134.657 148.684" style="stroke-width:1;fill:#6b451d;transform-box:fill-box;transform-origin:50% 50%" transform="rotate(90 .732 .291)"/><path d="M145.631 118.294s8.738-6.858 13.704-6.182l9.516 7.922 59.017 51.841s71.078 61.805 75.729 65.902c14.728 12.974 2.621 2.824 3.656 4.654.483.854 1.751 3.502 1.233 2.67-2.373-3.81-21.276 13.335-19.206 18.342 4.484 10.847 29.027-5.514 20.916-15.994-9.85-12.727-14.508-1.008-17.561 9.152-.277.922 18.052 27.088 17.433 27.34-2.499 1.02-29.119-20.964-32.373-24.199-8.207-8.159-15.365-15.118-24.184-22.488-22.488-18.793-34.883-30.853-55.985-50.297-8.029-7.398-54.954-50.877-58.594-55.654-3.079-4.041.41-9.416 6.923-13.106" style="fill:none;stroke:#252108;fill-rule:nonzero;stroke-width:8px"/><path d="M301.443 244.12c2.513-.471 5.23-.132 7.649.861 2.607 1.07 4.803 2.263 7.231 4.72 2.834 2.867 6.681 7.2 8.467 10.775 1.543 3.091 2.858 6.005 2.309 9.236-.642 3.77-4.018 7.254-7.165 9.582-2.781 2.057-6.581 5.404-10.153 4.657-4.389-.917-10.738-5.14-14.239-9.621-3.7-4.735-8.28-8.533-8.052-13.383.175-3.72 2.255-9.34 4.478-11.475 2.079-1.997 6.852-4.861 9.475-5.352Z" style="fill:#40503d;stroke-width:8px;stroke:#252108"/><ellipse cx="267.341" cy="212.203" rx="12.396" ry="11.95" style="stroke-width:7px;fill:#989994;stroke:#252108;transform-box:fill-box;transform-origin:41.7077% 51.6026%" transform="rotate(-9.037 397.22 -267.633)skewX(-9.037)"/></g><path fill="#989994" d="M811.595 480.956c-2.54 3.42-140.573 56.128-141.613 54.508-.84-1.32-134.074-353.46-134.074-353.46-2.63-7.06 107.052-39.404 118.612-43.514 14.39-5.13 25.329-11.451 32.389-9.731C703.992 132.921 809.93 454.3 810.92 456.5c4.14 9.19 5.3 14.3 4.09 17.96-.4 1.22-2.695 5.506-3.415 6.496"/><path fill="#252108" d="M184.55 1049.69c-7.17 1.5-7.57 1.5-14.14-.1-8.4-2.04-16.15-8.11-21.17-16.59-6.89-11.63-6.99-36.84-.23-58 7.32-22.96 24.36-54.85 33.65-63.01 9.85-8.65 24.71-10.35 36.8-4.22 2.48 1.25 3.02 1.27 3.37.11.23-.76 3.4-4.3 7.06-7.88 4.78-4.69 8.37-7.2 12.85-9 4.44-1.78 6.5-3.22 7.19-5 .53-1.38 3.87-9.92 7.42-19 7.01-17.94 12.59-32.37 15.84-41 1.14-3.03 2.91-7.7 3.94-10.38l1.87-4.88-3.5-3.87c-4.22-4.67-4.4-7.3-1.12-16.32 1.3-3.6 2.03-6.55 1.62-6.55-1.16 0-13.36 13.21-16.75 18.14-5.89 8.56-15.25 28.39-15.25 32.3 0 .71-.93 2.48-2.07 3.93-3.38 4.29-6.28 3.49-14.09-3.88-8.39-7.92-15.59-12.72-22.7-15.16-7.06-2.41-10.14-5.31-10.14-9.53 0-7.78 19.07-30.98 33.52-40.78 7.69-5.22 21.34-12.29 31.48-16.31 3.58-1.41 7.85-3.11 9.5-3.76 2.92-1.16 2.77-1.25-6-3.5-20.95-5.38-37.8-2.45-55.7 9.69-3.13 2.12-6.64 3.86-7.79 3.86-3.67 0-6.58-4.12-8.5-12.05-2.42-10-5.35-16.37-10.53-22.88-4.48-5.65-5.44-9.6-3.03-12.51 2.05-2.47 14.83-9.08 23.55-12.19 7.68-2.73 8.72-2.85 26-2.83 17.87.02 18.06.05 26.34 3.25 10.37 4.01 20.04 9.61 28.87 16.72 7.14 5.75 8.93 6.61 7.84 3.77-.61-1.59-1.85-7.78-9.08-45.28-1.43-7.42-3.48-17.55-4.54-22.5-1.07-4.95-1.94-9.62-1.94-10.38.01-.76-4.63-6.39-10.31-12.5C206.13 566.54 168.14 501.3 147 427.5c-5.06-17.63-8.63-31.58-11.43-44.56-1.59-7.4-1.72-7.61-5.96-9.67-2.39-1.16-6.91-4.21-10.05-6.77-3.15-2.56-6.35-4.41-7.11-4.12-.77.3-12.47 7.98-25.99 17.08C63.66 394.79 61.53 396 57.33 396c-6.1 0-10.49-2.27-15.79-8.17-7.31-8.13-10.26-18.87-7.17-26.11 2.22-5.2 1.71-4.85 47.13-32.7 6.6-4.04 12.14-7.46 12.32-7.59s-.38-2.32-1.25-4.87c-1.78-5.24-2.04-14.32-.57-19.63 1.18-4.23 7.05-11.39 11.05-13.46 1.77-.91 3.66-3.28 4.95-6.21 1.16-2.6 3.09-5.81 4.3-7.13 2.37-2.58 11.16-7.1 13.83-7.12.89-.01 2.19-1.36 2.87-3.01 1.73-4.17 6.88-8.43 12.64-10.47 5.33-1.87 6.31-2.37 14.3-7.22 4.85-2.95 6.24-3.31 12.78-3.31 8.78 0 14.82 2.61 22.38 9.69l4.84 4.53 11.78-7.46c6.48-4.1 16.88-10.76 23.12-14.8 10.11-6.54 11.97-7.39 17.08-7.76 6.89-.5 12.5 1.93 16.73 7.23 3.41 4.27 6.29 3.53 5.57-1.42-.31-2.07.13-3.74 1.35-5.09 3.59-3.96 19.97-10.13 25.99-9.78 3.04.18 4.6-.3 6.23-1.93 1.19-1.19 3.18-2.38 4.43-2.66 1.26-.27 6.25-1.41 11.11-2.52 10.68-2.45 12.55-2.5 15.56-.4 2.87 2.01 6.06 8.81 6.09 12.97.03 4.18-3.69 9.5-8.19 11.71-3.15 1.54-3.78 2.42-4.32 6.05-.57 3.8-.31 4.6 2.45 7.55 5.19 5.56 4.47 9.09-4.06 19.92-8.43 10.71-12.37 13-18.97 11.02-5.73-1.72-10.89-7.74-10.89-12.72 0-3.2 1.05-5.21 6.1-11.74 7.92-10.22 10.36-12.39 13.96-12.39 2.25 0 2.94-.46 2.94-1.95 0-1.75-.66-1.94-6.25-1.78-5.5.15-6.62.53-9.31 3.2-3.5 3.46-16.32 8.53-21.58 8.53-2.1 0-4.34-.79-5.63-2-1.18-1.1-2.95-2-3.94-2-1.56 0-1.75.8-1.5 6.25.4 8.68-1.53 11.4-13.52 19.06-5.33 3.41-14.61 9.41-20.62 13.34l-10.94 7.14-.14 13.86c-.16 15.76-1.36 20.03-9.26 33.09l-4.38 7.24 13.45 27.26C241.5 400.85 265.89 446 267.32 446c.52 0 .64-1.44.28-3.25-1.71-8.53-2.79-29.76-2.25-44.25.86-23.19 5.34-40.6 15.32-59.59 13.3-25.31 36.51-46.93 63.83-59.47 10.62-4.88 19.68-7.95 33-11.17 10.47-2.54 12.27-2.67 37.5-2.7 25.9-.03 26.76.04 38 2.84 27.08 6.77 44.3 15.96 61.85 33.01 20.43 19.86 32.5 44.73 36.7 75.64 2.07 15.25 2.09 42.49.04 63.32-.92 9.28-1.44 17.1-1.17 17.37 1.13 1.13 31.74-48.09 36.58-58.83 1.05-2.33.73-3.21-3.29-9-9.21-13.24-12.95-24.5-13.11-39.42-.1-9.1 1.79-15.72 6.52-22.87l3.03-4.57-3.21-8.78c-7.29-19.91-39.34-104.7-42.44-112.28-4.05-9.89-4.79-13.92-3.64-19.66 2.23-11.1 7.45-15.91 23.14-21.3 5.22-1.8 18.95-6.65 30.5-10.77 11.55-4.13 22.8-8.1 25-8.82s10.53-3.64 18.5-6.49 16.3-5.77 18.5-6.5c2.2-.72 9.14-3.14 15.43-5.39 17.67-6.3 25.94-5.51 34.67 3.29 5.72 5.77 3.39.28 27.9 65.64 2.47 6.6 6.49 17.29 8.93 23.75s6.79 18.05 9.67 25.75 7.43 19.85 10.12 27 5.74 15.25 6.77 18 2.98 7.92 4.34 11.5c10.88 28.66 34.53 91.51 37.63 100 2.1 5.77 4.31 11.62 4.89 13s2.16 5.42 3.5 9c4.27 11.4 11.79 31.3 14.16 37.5 5.01 13.12 4.17 21.3-3.01 29.28-4.27 4.76-7.98 6.85-20.5 11.6-3.58 1.36-26.75 10.22-51.5 19.69-24.75 9.48-49 18.73-53.89 20.58-14.47 5.46-24.21 4.12-31.63-4.33-4.11-4.68-4.96-6.63-17.66-40.32l-1.05-2.82c-1.65-4.45-2.49-6.71-3.31-6.71-1.02.01-2.01 3.46-4.46 10.54-6.22 18-8.63 23.67-16.07 37.81-17 32.31-36.63 59.07-63.6 86.7-7.53 7.71-17.76 17.61-22.73 22-10.26 9.05-9.22 6.22-11 29.98-1.31 17.54-4.1 31.86-8.09 41.52-1.95 4.72-2.75 6.4-3.05 8.17-.21 1.21-.18 2.47-.12 4.78.01.63.03 1.33.04 2.13l.12 6.6 9.25-4.82c43.88-22.86 87.2-14.69 103.78 19.56 7.99 16.52 8.63 35.45 2.03 59.83-8.56 31.58-17.52 45.76-35.15 55.62-3.08 1.72-6.09 4.22-6.7 5.56-1.08 2.37-.97 2.46 4.59 3.53 15.87 3.05 25.93 9.85 31.07 21.02 7.34 15.93 1.26 33.28-16.37 46.72-21.49 16.38-71.88 32.63-96 30.95-16.24-1.13-28.21-7.42-32.62-17.13-3.88-8.53-2.16-18.78 7.11-42.54 7.92-20.28 17.03-47.63 18.43-55.3l.69-3.8-3.81 1.92c-10.43 5.26-43.17 16.73-61.3 21.49-5.23 1.37-14.62 3.31-20.87 4.32l-11.37 1.83-4.24 5.02c-2.34 2.76-10.03 12.67-17.09 22.02s-13.08 17.22-13.39 17.5c-.3.28-4.11 5-8.45 10.5-10.65 13.5-36.37 38.99-45.21 44.8-25.16 16.55-48.15 20-68.38 10.28-3.6-1.73-5.85-2.09-11.25-1.79-4.25.24-6.75.81-6.75 1.55-.01 2.25-5.9 16.24-9.88 23.46-10.43 18.93-22.72 29.99-36.57 32.89m488.03-523.04c3.38 3.38 3.89 3.56 8.75 3.11 2.93-.27 11.23-2.86 19.17-5.98 15.94-6.28 79.29-30.52 96.37-36.88 12.65-4.7 16.45-7.31 18.14-12.44 1.21-3.66.05-8.77-4.09-17.96-.99-2.2-3.15-7.6-4.79-12s-6.45-17.23-10.68-28.5-9.18-24.62-11-29.65-4.46-12.12-5.88-15.75c-1.41-3.63-3.72-9.64-5.12-13.35s-3.18-8.33-3.95-10.25c-1.46-3.65-7.85-20.79-10.14-27.22-1.36-3.8-20.65-54.98-35.35-93.78-4.48-11.82-13.77-36.57-20.64-55-14.21-38.09-15.33-40-23.3-40-3.1 0-11.16 2.36-25.55 7.49-11.56 4.11-40.09 14.21-63.4 22.44-39.27 13.86-42.62 15.23-45.75 18.64-4.49 4.9-4.41 6.26 1.12 19.93.45 1.1.92 2.45 1.05 3 .14.55 3.25 8.88 6.93 18.5 6.17 16.14 14.12 37.76 23.55 64 9.79 27.24 11.65 31.51 13.6 31.25 1.04-.14 4.05-.55 6.71-.9 3.8-.51 4.72-.99 4.34-2.25-.27-.88-2.32-6.33-4.57-12.1-2.24-5.77-4.08-12.13-4.08-14.13l-.02-3.63 10.07-3.62c10.48-3.76 16-4.5 17.65-2.37.53.69 4.01 9.35 7.72 19.25 3.72 9.9 8.48 22.77 9.57 25.54 2.65 6.7 2.54 9.55-.42 11.49-2.24 1.47-2.31 1.77-1.01 4.28.78 1.48 1.41 3.25 1.41 3.94.01.75 1.36 1.25 3.39 1.25 1.86 0 3.82.56 4.36 1.25s5.16 12.27 10.25 25.75 9.53 24.95 9.87 25.5.64 1.23.67 1.5c.14 1.26 2.84 8.7 3.8 10.5.59 1.1 1.16 2.45 1.26 3 .38 2 11.76 32.01 12.33 32.5.32.27.7 1.23.84 2.11.42 2.55 19.687 49.951 20.93 55.89.328 1.566 1.21 5.78-.49 7.26-.93.81-5.53 2.73-10.2 4.26s-8.72 3.09-9 3.46c-.28.38-1.93.31-3.68-.16-2.68-.71-3.51-1.7-5.23-6.31-1.12-3.01-2.49-6.26-3.03-7.24-1.78-3.2-5.65-12.67-7.47-18.27-3.93-12.1-35.24-94.87-41.79-110.5-2.98-7.09-3.68-8.04-6.2-8.33-1.56-.18-3.2.05-3.64.5-2.24 2.34 3.24 21.78 15.04 53.33 1.75 4.67 3.55 9.62 4.01 11 .45 1.38 2.93 8.12 5.5 15 2.56 6.88 6.06 16.33 7.75 21 1.7 4.67 20.49 54.03 20.62 55.53.06.85 1.73 3.15 3.7 5.12M266.16 985.91c20.49 2.61 39.63-6.05 62.7-28.38 11.43-11.06 20.8-22.05 41.71-48.94 7.66-9.85 17.61-22.04 22.12-27.09l8.18-9.19 7.32-1.2c21.8-3.58 59-14.76 79.81-24 12.53-5.56 13.5-6.31 11.95-9.19-2.79-5.22-.5-23.78 4.29-34.81 3.7-8.53 12.47-20.64 18.07-24.96 2.95-2.28 5.66-4.15 6-4.15s-.66 1.91-2.22 4.25c-9.27 13.88-15.7 32.73-14.84 43.54.55 6.92 1.42 7.66 6.3 5.35 14.1-6.69 32.37-9.05 43.95-5.68 12.84 3.73 23.48 11.67 29.8 22.25 1.74 2.91 3.51 5.29 3.94 5.29 1.12 0 9.61-11.77 12.25-17 6.67-13.23 12.51-37.65 12.51-52.36 0-26.72-15.34-45.48-40.73-49.81-8.54-1.45-23.87.04-33.77 3.3-12.6 4.14-32.79 15.38-44.5 24.76-19.01 15.22-32.59 28.37-48.91 47.36-4.61 5.36-8.75 9.75-9.19 9.75-1.88 0 5.59-16.5 11.1-24.49 1.56-2.28 5.57-7.41 8.92-11.41 3.34-4.01 6.08-7.42 6.08-7.59 0-.38-12.9 2.39-15 3.22-.83.32-1.77.54-2.09.48s-7.07.77-15 1.83-18.8 1.97-24.16 2.03c-5.36.05-9.75.5-9.75 1.01 0 1.25-13.72 1.18-14.5-.08-.34-.55-4.4-1-9.02-1-17.88 0-55.61-6.42-73.52-12.51l-7-2.38-4.93 9.83c-2.71 5.4-6.68 14.74-7.87 17.4l-.26.57c-1.78 3.99-2.7 6.03-2.19 7.62.55 1.75 2.82 2.96 7.53 5.6 20.19 11.33 43.25 17.4 75.76 19.96 15.3 1.21 29.65.74 47-1.54 5.77-.75 10.61-1.26 10.76-1.12.14.13-1.89 1.41-4.5 2.82-5.07 2.74-16.97 5.86-29.26 7.66-8.32 1.21-39.86 1.96-40.25.95-.14-.36-4.3-.89-9.25-1.2-13.67-.84-27.96-4.72-43.2-11.72-6.16-2.83-8.45-3.47-9.19-2.58-1.61 1.95-30.42 76.25-30.44 78.39 0 .69-.34 1.25-.76 1.25-.41 0-1.31 1.67-1.98 3.71s-2.28 5.82-3.58 8.4c-1.29 2.57-2.36 5.52-2.38 6.54s-.64 2.65-1.38 3.63c-1.22 1.6-1.42 1.62-1.97.17-.34-.89-.62-5.18-.62-9.53 0-8.47-.98-9.79-4.6-6.18-.96.96-12.71 19.84-13.4 20.26-.69.43-.93 1.3-.54 1.93.39.64.26 1.71-.3 2.38-1.11 1.34-1.46 15.39-.43 17.07.35.56.78 2.31.95 3.88.38 3.44 19.62 28.99 25.75 31.85 3.51 1.65 9.24 3.35 12.73 3.8m64.77-257.88c5.81.98 11.69 1.82 13.07 1.86 2.92.09 29-21.78 40.51-33.97 8.1-8.58 24.44-27.83 25.2-29.68 1-2.45-8.19-12.99-30.71-35.24-36.07-35.64-42.79-44.06-59.4-74.43-4.8-8.77-14.26-24.29-21.03-34.5-24.74-37.34-54.04-86.54-69.1-116.07-4.3-8.42-5.8-12.22-7.8-12.49-1.42-.2-3.1 1.42-6.24 4.45-.76.73-1.61 1.55-2.56 2.45-13.13 12.35-26.28 18.67-41.87 20.11-9.49.87-10.71 1.25-11.29 3.47C159.42 425.1 243.55 585 244.1 585c.56 0 .8.36.53.79-.27.44 1.59 3.03 4.14 5.75 2.55 2.73 4.55 5.28 4.45 5.66-.1.39 2.16 3.09 5.02 6 2.86 2.92 5.12 5.61 5.01 5.98s1.25 1.91 3.02 3.41c1.78 1.5 3.13 3.07 3.01 3.48s2.15 2.92 5.04 5.59c2.88 2.66 5.28 5.29 5.33 5.84.04.55 1.15 1.56 2.46 2.24 1.32.67 1.95 1.24 1.41 1.25-.55 0 4.47 5.52 11.14 12.26s12.66 13.31 13.32 14.59c1.11 2.19 1.03 2.3-1.14 1.66-3.8-1.13-13.21-5.62-14.92-7.12-1.36-1.19-1.59-1.17-1.59.12 0 .82 4.393 25.909 5.362 30.533 1.095 5.225 1.698 9.467 3.038 12.967.32.83.48 2.29.36 3.25s.19 1.75.69 1.75c.51 0 .95 1.33 1 2.96.12 4.29 3.13 15.48 4.27 15.88.53.18.73.71.44 1.17-.28.46 2.08 1.57 5.25 2.47s6.63 1.89 7.69 2.2 6.68 1.37 12.5 2.35m5.69-186.11c1.46 1.14 2.75 2.08 2.88 2.08.46 0-.16-3.56-.97-5.5-10.79-26.14-17.66-51.33-21.48-78.74-5.16-37.04 0-74.33 13.05-94.31 6.43-9.86 13.43-14.64 8.81-6.03-2.15 4.03-6.08 15.75-5.47 16.35.19.2 3.44-1.19 7.21-3.08 14.58-7.32 32.22-12.89 51.35-16.23 53.41-9.31 108.61-1.71 139.88 19.26l6.4 4.29-.63-5.34c-.35-2.94-1.97-9.87-3.62-15.4-9.51-32.02-27.26-53.46-56.51-68.26-15.74-7.97-29.27-11.42-50.88-13.01-45.36-3.33-88.65 11.81-115.25 40.29-17.41 18.65-28.86 42.14-32.43 66.58-1.84 12.57-.77 43.92 1.97 57.63 4.92 24.6 10.82 39.27 24.3 60.43 7.62 11.96 25.91 34.68 31.39 38.99M405 733.79c0 .74 20.78-.71 34.5-2.4 19.96-2.45 39.57-6.27 54.23-10.56 6.72-1.96 7.36-2.4 9.21-6.22 4.74-9.82 8.11-33.46 11.58-81.11.8-11 1.46-26.89 1.47-35.31 0-9.77.37-15.09.99-14.7 1.27.78 5.8 15.62 6.64 21.76.36 2.61.98 4.75 1.38 4.75s.5 4.27.23 9.48c-.76 14.51-.49 14.41 21.22-7.57 20.59-20.85 30.29-32.49 43.26-51.91 15.88-23.79 27.33-46 35.57-69l.38-1.05c4.16-11.6 5.46-15.23 4.49-18.1-.47-1.39-1.47-2.6-2.94-4.45-10.65-13.45-32.51-28.7-44.27-30.88-3.34-.61-3.54-.47-6.84 5.17-1.88 3.2-6.66 10.76-10.64 16.81s-8.44 13.25-9.9 16c-3.3 6.2-3.65 6.82-7.28 13.04-1.62 2.77-3.49 7.95-4.16 11.5-4.12 21.76-16.44 44.39-33.41 61.4l-8.92 8.93-3.3 13.07c-8.82 35.01-21.97 64.5-41.27 92.56-10.19 14.82-17.35 23.18-35.44 41.4-9.23 9.29-16.78 17.12-16.78 17.39m-43-269.83c6.28 1.71 9.61 1.98 20.5 1.62 13.97-.46 19.57-1.64 41-8.59 24.93-8.1 36.63-8.02 59.5.4 14.49 5.34 25.54 7.86 32.55 7.42 7.03-.44 16.69-4.8 19.7-8.9 2.73-3.72 3.68-13.3 3.72-37.58l.03-21.16-3.75-3.88c-13.26-13.72-38.98-23.17-71.81-26.38-22.88-2.25-56.28-.31-80.44 4.66-23.65 4.86-47.66 15.97-51.36 23.77-2.87 6.06-4.9 43.55-2.79 51.66.52 1.99 3.18 3.76 13.15 8.71 6.88 3.42 15.88 7.13 20 8.25m50.8 118.01c10.58 2.29 18.83 2.44 30.7.59 14.14-2.22 24.98-6.52 37.94-15.05 16.76-11.04 33.04-30.31 43.19-51.13 4.84-9.93 9.98-28.35 11.01-39.44l.64-6.82-6.39 2.58c-13.12 5.3-27.48 4.23-48.89-3.63-13.92-5.12-16.42-5.82-23.51-6.57-8.12-.87-17.38.81-33.49 6.04-22.24 7.23-26.41 7.97-45 7.92-15.08-.04-17.27-.28-25.5-2.79-4.95-1.51-12.26-4.28-16.25-6.16L330 464.1v2.84c0 4.43 2.81 18.48 6.12 30.56 10.5 38.38 21.11 55.43 43.72 70.26 11.23 7.37 21.26 11.69 32.96 14.21m310.202-80.691c-4.635 1.908-5.892 1.601-11.922-14.409-2.14-5.7-8.02-21.17-13.07-34.37-5.04-13.2-13.66-35.92-19.14-50.5-10.24-27.21-11.9-31.59-18.31-48.1-.28-.73-.56-1.42-.82-2.08-2.04-5.19-3.22-8.2-2.4-10.5 1.23-3.45 6.99-5.29 21.16-10.54 11.55-4.28 29.33-10.87 39.5-14.66 21.4-7.95 24.28-8.73 25.67-6.91.55.71 3.64 8.49 6.87 17.29s10.4 27.88 14.03 37.5 12 31.9 18.61 49.5 14.32 37.99 15.92 42.25c3.12 8.37 3.7 14.34 1.55 16.12-.74.62-8.28 3.63-16.75 6.68-8.47 3.06-20.7 7.57-27.19 10.03-11.52 4.36-11.84 4.42-14.22 2.69-1.33-.97-2.44-2.59-2.46-3.6-.02-1.54-.54-1.72-3.24-1.12-1.77.38-5.03 1.47-7.25 2.42-2.22.94-5.27 2.02-6.77 2.39l-2.72.67 2.14 4.11c1.58 3.04 2.126 4.598.812 5.139M643.14 253.95c-7.35 2.78-14.18 5.05-15.18 5.05-2.23 0-4.61-2.27-5.5-5.26-.37-1.23-2.59-7.19-4.94-13.24-3.88-9.99-17.87-46.34-22.79-59.23-1.55-4.06-1.74-5.56-.83-6.64.64-.78 8.01-3.92 16.38-6.98C650.56 152.9 676.25 144 678.54 144c1.51 0 2.77.71 3.13 1.75.33.96 1.51 3.77 2.61 6.25 1.11 2.48 2.13 5.01 2.26 5.64.14.62 4.84 13.22 10.44 28l.46 1.21c13.82 36.41 15.05 39.66 13.94 41.11-.12.15-.27.29-.44.44-1.37 1.3-17.79 7.58-42.94 16.44-6.33 2.23-17.51 6.33-24.86 9.11m-472.31 783.52c5.74 1.84 12.05 1.25 18.11-1.68 6.49-3.14 15.91-13.06 20.23-21.29 4.21-8.02 10.83-24.05 10.83-26.21 0-.8-2.48-3.8-5.5-6.66-3.44-3.26-5.5-6.03-5.5-7.42 0-1.21.17-2.21.39-2.21.21 0 3.25 1.3 6.75 2.9 6.76 3.07 12.86 4.6 12.86 3.21 0-.46-1.34-2.52-2.98-4.59-4.67-5.87-11.02-20.63-11.02-25.61 0-2.58-4.42-9.14-5.49-8.15-.44.4-.55-.3-.23-1.58.51-2.09.26-2.29-2.61-2.04-1.74.15-4.01.82-5.03 1.49-2.12 1.39-4.64.78-4.64-1.11 0-.7 7.55-17.52 8.55-17.14.89.34 1.29.18.94-.39-.66-1.08-8.66-1.32-12.21-.37-1.22.33-2.46 1.38-2.76 2.33-.31.95-1.6 2.29-2.87 2.97s-2.32 1.77-2.33 2.41c0 .64-26.47 60.64-27.88 64.37-7.65 20.33-1.85 42.24 12.39 46.77M491 930.41c0 1.17 4.55-.59 8.76-3.38 2.54-1.67 5.34-2.81 6.24-2.53s7.57-2.44 14.83-6.06c13.37-6.67 28.23-12.2 45.93-17.08 13.14-3.62 31.85-3.93 39.99-.66 5.74 2.3 6.24 1.81 3.46-3.38-2.38-4.43-8.91-8.87-16.78-11.42-5.89-1.9-8.22-2.09-19.8-1.64-15.52.61-26.32 3.39-39.35 10.16-4.55 2.36-8.28 3.94-8.28 3.5s.46-1.08 1.02-1.43.79-.99.51-1.44c-.87-1.42 3.12-5.55 9.51-9.84 7.42-4.98 20.08-10.03 28.4-11.33 6.54-1.01 7.79-2 12.25-9.62 4.32-7.37 4.55-10.5 1.13-15.89-3.75-5.91-5.8-7.62-13.76-11.45-4.53-2.18-8.38-3.23-13-3.53-3.61-.25-7.09-.63-7.75-.86-1.75-.62-18.88 4.16-22.07 6.15-1.51.94-2.85 1.77-2.99 1.85-.45.24-3.97 14.89-5.27 21.97-.71 3.85-1.94 9.47-2.73 12.5s-1.89 7.3-2.46 9.5-2.06 6.25-3.32 9-3.06 7.03-4.01 9.5c-.94 2.47-2.74 6.75-4 9.5-2.05 4.5-6.46 16.73-6.46 17.91m-42.01-368.97c-15.15 3.57-28.37-.12-39.04-10.9-11.22-11.33-16.17-22.92-16.34-38.25-.17-14.69-.1-14.72 34.06-12.32 15.65 1.1 22.47 1.11 37.13.1 16.07-1.12 18.28-1.08 21.05.35 5.82 3.01 6.48 7.31 2.79 18.17-7.83 23.01-22.43 38.79-39.65 42.85M373.5 767.95c40.72 2.35 72.71-.91 104.41-10.64 7.11-2.19 9.35-3.44 14.5-8.14 4.81-4.39 6.56-5.94 7.2-7.86.37-1.09.37-2.31.37-4.24v-.32c.02-5.31-.34-5.48-6.48-3.14-2.2.84-7.6 2.19-12 2.99-4.4.81-9.35 1.88-11 2.37-15.69 4.72-60.97 7.85-89.66 6.19-27.07-1.56-34.67-2.58-57.34-7.69-6.6-1.48-13.01-2.71-14.25-2.71-1.24-.01-2.25-.33-2.25-.72s-1.35-.71-3-.71c-2.79 0-3 .26-3 3.69 0 2.03-.28 6.4-.63 9.71l-.63 6.03 5.6 2.09c14.94 5.59 47.9 11.92 68.16 13.1M140.32 364.62c18.37 6.02 53.59-13.59 68.47-38.12 10.32-17.01 8.92-38.37-3.03-46.28-9.41-6.22-31.66-2.41-37.45 6.42-.87 1.33-1.78 4.14-2.02 6.25-1.04 8.98 8.28 12.41 22.35 8.22 8.65-2.58 10.8-2.69 9.96-.51-1.08 2.8-5.02 7.06-7.6 8.21-7.66 3.4-10.83 4.5-13.85 4.79-3.73.36-6.15 1.94-6.15 4.02 0 .76-.4 1.38-.88 1.38-.74 0-3.54 5.41-3.62 7-.02.27-.39 1.06-.83 1.75-.43.69-.48 4.4-.1 8.25.47 4.77.34 7-.39 7-1.55 0-5.9-6.01-6.71-9.26-.85-3.41-1.91-4.14-3.64-2.5-.73.69-3.24 2.56-5.58 4.15s-5.29 3.84-6.56 5c-1.26 1.16-3.45 2.72-4.86 3.46s-3.72 2.42-5.15 3.75c-1.43 1.32-2.96 2.4-3.41 2.4-.46 0-1.64.95-2.63 2.1-1.74 2.04-1.72 2.18.51 4.56 3.08 3.28 8.06 6.29 13.17 7.96m231.9 368.37c4.55.4 9.04.79 9.96.87 4.16.35 10.27-4.34 27.82-21.32 20.33-19.68 31.42-32.72 41.69-49.04 15.34-24.38 29.6-55.05 29.46-63.36-.05-2.4.58-5.95 1.38-7.88.81-1.93 1.47-4.4 1.47-5.49 0-1.67-.44-1.88-2.75-1.3-5.49 1.37-8.6 4.93-12.01 13.73-3.17 8.17-3.9 9.45-9.24 16.16-3.53 4.44-5.94 7.91-18.86 27.14-22.59 33.64-40.95 54.7-73.53 84.34-2.63 2.38-4.53 4.58-4.22 4.88.3.3 4.27.87 8.83 1.27m228.93-464.57c-5.69 1.97-10.91 3.58-11.59 3.58-2.49 0-4.42-3.84-11.58-23-4.01-10.73-8.6-22.88-10.19-27-6.63-17.12-12.81-34.31-12.46-34.66 1.38-1.38 25.43-9.23 26.87-8.78 1.53.49 4.15 3.82 4.27 5.44.08 1.08 8.98 24.53 9.49 25 .3.27.66 1.09.81 1.81s4.14 11.46 8.88 23.87c4.73 12.41 8.6 23.67 8.6 25.03 0 3.64-1.69 4.77-13.1 8.71m101 35.95c-1.46.32-4.68 1.2-7.15 1.96-5 1.53-8.84.78-10.59-2.08-.58-.96-2.56-6.35-4.39-11.97-2.64-8.12-3.08-10.51-2.12-11.66 1.31-1.58 13.2-6.62 15.61-6.62 1.71 0 1.9-1.27.55-3.76-1.36-2.52-6.06-15.59-6.06-16.86 0-2.34 4.7-5.05 14.85-8.55 14.13-4.88 14.26-4.81 20.02 9.67 2.41 6.05 6.96 17.98 10.11 26.5 5.28 14.26 5.61 15.63 4.13 17.12-.89.9-7.14 3.55-13.91 5.91l-12.3 4.28-3.05-2.26c-2.13-1.58-3.85-2.08-5.7-1.68M667.51 324c-10.9 4.04-13.96 4.63-16.29 3.16-.7-.45-5.77-12.6-11.27-27-7.72-20.21-9.78-26.61-9.02-28.02.98-1.85 4.58-3.47 15.57-7.01 3.3-1.07 7.46-2.53 9.25-3.25 4.14-1.68 5.12-.71 8.26 8.12 1.27 3.58 2.71 7.02 3.19 7.65s1.04 1.98 1.24 3c.21 1.02 3.11 9.14 6.47 18.05 3.35 8.91 6.09 16.84 6.09 17.63 0 2.27-2 3.4-13.49 7.67M201.5 742.65c.23.72 3.32-.28 8.43-2.74 14.44-6.93 16.74-7.41 35.07-7.4 15.84.02 16.94.15 27.5 3.37 6.05 1.84 11.79 3.57 12.75 3.85 3.02.87 1.92-1.51-3-6.5-5.32-5.4-15.71-14.23-16.74-14.23-.37 0-3.22-1.49-6.34-3.32-6.76-3.96-14.35-6.68-18.65-6.68-1.72 0-3.6-.48-4.2-1.08-1.23-1.23-14.66-.72-23.32.89-5.46 1.01-19.65 6.44-21.4 8.19-.54.54.56 3.03 2.76 6.23 2.18 3.17 4.29 7.93 5.22 11.79.86 3.56 1.73 7 1.92 7.63m-32.68-334.78c2.3 1.46 11.41-.85 20.05-5.09 6.58-3.23 10.16-5.89 16.68-12.41 4.56-4.56 8.56-9.14 8.89-10.17.35-1.11-.89-5.13-3.01-9.79-1.99-4.35-4.47-9.8-5.52-12.1s-2.34-4.46-2.87-4.78c-.53-.33-2.26.77-3.86 2.44-1.59 1.66-2.438 3.26-5.316 5.035-3.344 2.063-16.084 12.275-25.624 15.425-3.68 1.22-6.08 2.8-7.96 5.27l-2.69 3.52-2.08-2.61c-1.15-1.43-2.63-2.61-3.3-2.61-1.66 0-1.52 2.54.23 4.3.79.79 1.2 2.37.9 3.5-.55 2.1 2.1 14.25 3.8 17.45.68 1.28 2.19 1.75 5.65 1.77 2.59 0 5.3.39 6.03.85M508.5 957c-.34.55-.19 1 .33 1 .53 0 1.24-.74 1.59-1.65.57-1.49.78-1.47 2.08.25 1.31 1.74 1.44 1.75 1.47.15.02-1.1.81-1.75 2.12-1.75 1.26 0 2.31-.8 2.62-2 .29-1.1.94-2 1.44-2 1.04 0 .71 3.84-.48 5.75-1.01 1.6-.05 1.58 9.83-.17 10.25-1.82 11.86-2.44 10.52-4.06-.57-.69-2.05-1.17-3.28-1.07-3.27.26-5.74-1.24-5.74-3.49 0-1.08-.48-1.96-1.06-1.96s-.8-.41-.49-.91c.31-.51 0-1.15-.69-1.43-.72-.28-.45-.54.61-.58 1.55-.07 1.66-.34.63-1.58-.98-1.18-.98-1.5-.01-1.5.79 0 1.02-.84.63-2.39-.54-2.13-.22-2.44 2.84-2.8 2.31-.26 3.16-.05 2.59.65-.47.57-.77 2.62-.65 4.54.12 2.18-.39 3.94-1.35 4.67-.88.66-1.17 1.53-.66 2 .49.46 1.08.27 1.33-.42.52-1.46 3.45-1.66 4.83-.33.52.5 2.07 1.06 3.45 1.25 1.7.22 2.6 1.05 2.82 2.58.13.91.18 1.52.52 1.83.65.58 2.35 0 7.7-1.81l.81-.28c4.04-1.37 8.14-2.49 9.12-2.49s2.28-.6 2.9-1.34c.85-1.03.56-1.63-1.29-2.62-1.31-.7-2.88-.97-3.48-.6-.61.37-1.1.29-1.1-.17 0-1.17 8.28-3.29 10.88-2.79 1.17.22 2.12-.09 2.12-.69 0-.61 1.04-2.49 2.31-4.2 1.27-1.7 2.9-4.55 3.62-6.34 1.24-3.08 3.07-4.42 3.07-2.25 0 .55.67 1 1.5 1 1.76 0 2.08 4.52.39 5.57-.77.47-.69.94.25 1.54 2.45 1.55 5.7.98 6.36-1.11.58-1.84 1.72-2.46 3.83-2.09 1.3.22 6.95-4.87 9.42-8.5 2.16-3.18 1.64-5.39-.9-3.81-.68.41-.89.27-.51-.35.37-.58-1.12-1.98-3.37-3.15-4.18-2.17-7.51-2.78-6.52-1.19.31.51 0 1.13-.69 1.38-.69.26-.02.79 1.49 1.2 3.23.85 3.51 2.03.82 3.47-2.97 1.59-4.28 1.27-3.6-.88.44-1.37.03-2.1-1.42-2.56-2.83-.9-3.83-.01-3.49 3.08.21 1.91-.01 2.35-.8 1.56-.6-.6-1.16-2.12-1.25-3.37-.14-1.94-.96-2.43-5.28-3.17-2.81-.48-5.78-.62-6.59-.31-1.87.72-.99 4.69 1.04 4.69.79 0 1.19.4.88.9-.3.49.12 1.15.95 1.46.82.32 1.49 1.1 1.49 1.73 0 .81-.46.77-1.56-.14-1.37-1.14-1.48-.97-.89 1.38.42 1.69.26 2.67-.44 2.67-.61 0-1.11.5-1.11 1.11s.67.84 1.5.53c1.82-.7 1.84-.52.25 2.54-.98 1.89-1.79 2.28-3.75 1.81-1.44-.34-3.61.04-5.11.9-2.29 1.3-2.98 1.31-5.5.05-1.91-.95-3-2.34-3.2-4.09-.36-3.11 1.62-4.79 3.21-2.73 1.01 1.32 1.74 1.46 5.4 1.03.8-.09.31-1.07-1.23-2.5-1.4-1.29-2.24-2.64-1.89-3 .36-.36-.1-.65-1.01-.65-1 0-1.67-.8-1.67-2 0-1.1.53-2 1.17-2s.91-.25.6-.56c-.3-.31-2.29.19-4.41 1.1-2.12.92-5.44 1.89-7.36 2.17-3.69.54-9.66 3.26-14.24 6.48-1.51 1.07-3.19 1.66-3.72 1.33-.54-.33-1.27.54-1.62 1.94-.43 1.7-1.32 2.54-2.72 2.54-2.04 0-2.05-.03-.14-1.45 1.86-1.39 1.85-1.43-.39-.86-1.29.32-2.57 1.2-2.86 1.95s-1.35 1.36-2.36 1.36c-1 0-3.3 1.35-5.11 3s-16.62 12.02-18.2 11.63c-3.45-.87-7.57 2.53-6.06 5.01 1.16 1.9 6.42 3.77 6.42 2.27 0-1.11 2.25-.76 3.16.5.36.5 1.41.17 2.32-.75 1.8-1.8 4.03-2.29 3.02-.66-.34.55-.11 1 .5 1s.84.45.5 1M226.06 818.86c7.88 6.42 9.94 7.46 9.94 5.04 0-.54 1.66-4.67 3.69-9.19 7.57-16.83 21.17-33.55 36.81-45.23 11.41-8.53 14.06-11.58 11.92-13.72-.74-.75-16.24 3.5-20.48 5.62-1.79.89-3.66 1.62-4.16 1.62-1.75 0-25.06 11.78-30.14 15.24-5.21 3.54-15.64 14.16-20.81 21.19-3.21 4.36-5.83 8.21-5.83 8.56 0 .36 2.39 1.4 5.31 2.32 3.55 1.12 8.1 3.95 13.75 8.55m379.34-422.6c5.42 4.52 6.13 4.86 6.41 3.02.16-1.13-.38-4.7-1.2-7.92-.83-3.22-1.8-8.34-2.16-11.36-1.12-9.38-4.47-21.34-7.02-25.05-1.33-1.96-2.43-4.8-2.43-6.32v-2.77l2.91 2.08c8.93 6.35 20.1 8.84 24.83 5.53 2.92-2.05 3.86-7.41 1.94-11.12-2.04-3.95-10.27-11.18-15.34-13.48-2.29-1.03-6.12-2.15-8.51-2.48-4.65-.64-12.83 1.05-12.83 2.65 0 .53-.64.96-1.43.96-1.43 0-5.53 4.97-6.01 7.29-.14.66-.77 2.48-1.41 4.03-.63 1.54-1.15 6.1-1.15 10.11 0 15.68 8.92 32.76 23.4 44.83M412.96 651.24c1.62 2.28 2.54 3.64 3.58 3.74 1.44.14 3.12-2.13 7.23-7.67l.37-.5c4.96-6.69 5.1-7.06 3.76-9.8-3.18-6.49-17.47-21.27-27.4-28.35-5.5-3.92-10.61-7.71-11.34-8.42-.74-.71-2.72-2-4.4-2.86-2.79-1.45-3-1.45-2.44.02.48 1.25-18.51-12.83-22.79-12.87-3.21-.02-4.2-.5-5.21-2.53-1.57-3.14-3.6-3.23-3.83-.18-.26 3.59 5.62 10.38 33.5 38.68 14.08 14.3 27.12 28.13 28.97 30.74M69.45 371.79c1.11 2.9 2.39 4.83 3 4.48 1.68-.97 34.95-23.61 36.05-24.54.55-.46 5.72-4.07 11.49-8.02 7.69-5.26 9.97-7.27 8.5-7.51-5.14-.85-9.18-2.8-15.2-7.36-5.75-4.35-6.72-4.77-8.16-3.53-.9.78-8.83 5.82-17.63 11.2-12.36 7.57-27.64 17.14-30.22 18.95-.12.08 2.13 2.64 5 5.69 3.04 3.23 6.03 7.67 7.17 10.64m635.54.07c.01 1.65 1.85 1.25 13.51-2.97 4.68-1.7 8.5-3.65 8.5-4.34 0-.7-2.06-7.07-4.58-14.16-2.53-7.09-5.52-15.59-6.65-18.89s-2.15-6.12-2.26-6.27c-.12-.14-5.03 1.43-10.93 3.5l-10.71 3.76.61 3.26c.34 1.8 3.29 10.35 6.56 19.01s5.95 16.35 5.95 17.1M435.28 552.95c6.65.92 9.9.41 16.72-2.62 5.71-2.54 10.02-5.9 9.97-7.75-.04-1.26-4.55-6.58-5.58-6.58-.38 0-2.09-1.06-3.8-2.35-3.38-2.57-6.78-3.84-16.42-6.14-8.17-1.95-14.76-1.91-22.09.13l-5.89 1.64 2.84 4.61c7.15 11.6 15.01 17.78 24.25 19.06M217.91 277.09c1.42 1.93 2.82 2.84 3.77 2.48 2.97-1.14 16.44-10.92 17.33-12.59 1.77-3.3-.12-8.89-4.75-14.03-2.45-2.73-5.47-5.22-6.72-5.53-1.64-.41-5.32 1.24-13.36 6.02-12.8 7.6-17.14 11.01-15.68 12.32.55.5 2.98 1.47 5.4 2.16 5.53 1.57 11.08 5.21 14.01 9.17M377 394.35c-3.58 1.51-8.67 3.63-11.32 4.71l-4.82 1.97.69-2.27c2.34-7.55 8.99-14.72 17.3-18.61 7.86-3.69 20.31-3.8 27.51-.26 5.91 2.91 14.68 11.32 15.32 14.68.09.51.48 1.72.85 2.68.92 2.35-.46 2.23-7.31-.65-15.67-6.59-26.44-7.22-38.22-2.25m6.17 48.9c-1.93 2.28-3.71 2.21-6.17-.25-5.23-5.23 1.34-22.09 10.25-26.31 4.49-2.13 12.93-2.17 17.33-.09 7.59 3.6 14.36 14.27 14.4 22.68.03 6.63-2.28 7.44-6.42 2.26-8.45-10.59-12.03-13.72-15.76-13.83-4.61-.13-6.12 1.17-9.45 8.14-1.48 3.11-3.36 6.44-4.18 7.4M145 315.63c0 .9 1.21 1.37 3.48 1.37 2.61 0 3.88-.63 5.13-2.53 3.28-5 .4-16.26-6.5-25.43-3.28-4.36-9.83-11-13.11-13.28-3.11-2.17-8.83-2.27-11.78-.2-1.93 1.35-5.22 6.31-5.22 7.87 0 .29 1.79 1.44 3.97 2.55 7.07 3.61 16.65 13.53 20.51 21.25 1.94 3.87 3.52 7.65 3.52 8.4m479.68 130.82c1.55 1.37 2.89 2.5 2.97 2.52.41.08-4.02-11.61-4.75-12.53-.46-.59-1.5-3.92-2.31-7.4-1.61-6.9-1.6-6.89-15.56-17.39-6.61-4.97-7.58-5.41-8.43-3.88-.53.95-3.11 5.47-5.73 10.03-4.11 7.17-4.53 8.39-3.07 8.91 12.04 4.3 17.6 7.25 26.45 14.01 3.16 2.42 6.17 4.14 6.68 3.82.51-.31 2.2.55 3.75 1.91M124.5 324.33c1.65.87 4.01 1.61 5.25 1.63 3.07.05 6.25-3.37 6.25-6.73 0-8.71-16.86-26.23-25.24-26.23-6.94 0-11.78 9.96-8.6 17.68.64 1.55 1.09 3.16 1 3.57s.74.75 1.84.75c1.33 0 2-.67 2-2 0-3.2 1.77-2.38 8.34 3.87 3.39 3.23 7.51 6.58 9.16 7.46m387.53 119.62c-2.63 4.91-5.29 2.97-9.86-7.19-3.42-7.6-6.36-9.78-10.96-8.17-1.92.68-4.05 3.29-7.28 8.93s-5.13 7.98-6.5 7.98c-1.71 0-1.96-.86-2.22-7.5-.25-6.55.07-8.2 2.5-13 7.51-14.82 25.68-12.63 33.21 4 2.17 4.8 2.7 11.96 1.11 14.95m-82.54 176.58c3.29 4.11 6.3 7.47 6.68 7.47 1.32 0 11.08-17.2 13.42-23.64 2.03-5.6 2.13-6.53.81-7.04-.85-.32-2.04-.08-2.67.55-.75.75-6.71 1.14-17.68 1.15-9.42 0-15.97.38-15.21.86.73.46 1.28 1.14 1.22 1.51-.07.36 1.58 2.69 3.66 5.18s3.78 4.96 3.78 5.5 2.69 4.34 5.99 8.46m239.32-262.3c2.03 5.35 3.91 9.74 4.19 9.75s5-1.71 10.5-3.83c6.76-2.59 9.91-4.29 9.71-5.24-.27-1.33-8.27-22.05-8.77-22.73-.13-.17-4.81 1.38-10.4 3.45-5.38 2-8.2 2.72-9.1 4.44-.91 1.75.16 4.53 2.55 10.71q.6 1.575 1.32 3.45m71.36 18.62c1.46 3.44 2.21 4.21 3.59 3.66.96-.39 5.47-2.08 10.04-3.76 4.84-1.78 8.09-3.51 7.8-4.15-.27-.61-2.6-6.16-5.19-12.35-2.58-6.19-5.24-11.25-5.92-11.25-3 0-17.97 6.91-17.69 8.16.39 1.77 5.04 14.2 7.37 19.69M523 400.55c0 1.66-2.56 1.97-3.52.43-.34-.57-3.86-2.7-7.8-4.74-6.58-3.4-7.85-3.71-15.18-3.65-6.59.04-9.46.63-16.32 3.33-4.57 1.8-8.49 3.1-8.71 2.89-.21-.22.66-2.66 1.94-5.42 5.61-12.11 21.01-17.7 33.09-12.02 7.47 3.52 16.5 14.02 16.5 19.18m252.49 71.19c.48 1.35 9.333-1.467 10.624-2.059 1.422-.652 8.886-4.301 8.886-4.831 0-1.11-7.76-21.94-8.42-22.6-.23-.24-4.7 1-9.91 2.75l-9.49 3.17 3.94 11.17c2.17 6.14 4.14 11.72 4.37 12.4M729 345.92c0 1.71 2.29 1.3 11.51-2.04 5.1-1.84 8.43-3.58 8.16-4.25-.25-.62-2.3-5.7-4.56-11.28S740 317.7 740 317.1c0-.61-.34-1.1-.75-1.1-1.87 0-19.32 6.27-19.05 6.85 1.8 3.89 8.8 22.26 8.8 23.07m-2.49 82.83c.56 1.64 3.34 1.58 6.62-.13 1.45-.76 5.61-2.37 9.25-3.58s6.62-2.4 6.62-2.64-1.03-3.02-2.29-6.17-2.91-7.64-3.66-9.98c-.76-2.37-2-4.25-2.79-4.25-1.21 0-11.57 3.33-18.92 6.08l-2.16.8 3.45 9.31c1.9 5.12 3.64 9.87 3.88 10.56m-91.87-244.09 1.31 3.16 4.62-1.39c10.41-3.13 16.43-5.75 16.43-7.14 0-.8-1.46-5.41-3.25-10.24-2.9-7.84-3.52-8.8-5.75-8.81-2.03 0-18.55 5.28-19.86 6.35-.33.27 3.24 10.16 6.5 18.07m45.46 202.22c2.3 5.56 4.51 10.12 4.92 10.12.68 0 10.75-3.6 17.2-6.14 2.55-1.01 2.64-1.25 1.4-3.72-.72-1.45-2.58-6.34-4.13-10.87-2.7-7.88-2.93-8.2-5.41-7.58-5.56 1.39-17.52 6.13-17.83 7.07-.19.55 1.55 5.55 3.85 11.12m-37.85-180.63c1.76 4.82 3.77 8.75 4.48 8.75s5.6-1.65 10.87-3.66c5.16-1.98 7.76-2.69 8.58-4.31.78-1.54-.05-3.89-1.83-8.92-.3-.87-.64-1.81-1-2.85-1.57-4.53-3.31-8.24-3.86-8.25-.56 0-5.51 1.7-11 3.8-6.88 2.62-9.9 4.26-9.71 5.25.16.79 1.72 5.38 3.47 10.19m48.42 210.16c2.11 5.82 4.01 10.59 4.23 10.59 2.2.01 20.1-7.61 20.1-8.55 0-1.07-6.78-19.5-7.43-20.2-.29-.3-19.64 6.49-20.27 7.12-.25.24 1.27 5.21 3.37 11.04m12.57 34.43c1.5 4.07 2.36 5.21 3.62 4.8 3.7-1.2 18.6-6.77 18.89-7.05.32-.32-3.66-11.74-6.26-17.97l-1.48-3.54-9.67 3.5c-11.53 4.18-11.7 4.27-10.52 5.76.51.64 1.49 2.96 2.18 5.16.7 2.2 2.16 6.4 3.24 9.34m9.33-59.92c2.05 5.54 4.1 10.08 4.54 10.08.99 0 19.98-6.75 20.52-7.3.35-.35-6.34-19.74-7.06-20.46-.27-.28-20.67 6.69-21.41 7.31-.18.16 1.35 4.82 3.41 10.37m-.06 83.54c2.06 5.8 4.08 10.54 4.49 10.54.87 0 19.05-6.71 19.56-7.23.41-.41-6.79-20.33-7.67-21.22-.5-.49-18.64 5.94-19.76 7.01-.21.19 1.31 5.1 3.38 10.9m39.81-65.11c.48 1.28 1.24 1.64 2.44 1.17.96-.38 5.43-2.04 9.94-3.69l8.21-2.99-2.09-5.17c-1.15-2.84-2.97-7.42-4.03-10.17-1.07-2.75-2.27-5.34-2.66-5.75-1.03-1.06-19.13 5.18-19.13 6.6 0 .64 1.49 4.99 3.32 9.66 1.82 4.67 3.62 9.32 4 10.34m-17.78 39.63c3.03 8.01 4.15 9.96 5.39 9.44.86-.35 5.17-1.98 9.57-3.6 4.4-1.63 8.4-3.35 8.89-3.83 1.08-1.06-5.18-18.97-6.86-19.62-1.26-.48-18.46 5.27-19.92 6.66-.52.49.72 5.12 2.93 10.95M604.25 188.13c1.79 4.87 3.69 8.86 4.23 8.86.87.01 18.54-5.99 19.34-6.57.18-.12-1.17-4.98-3-10.79-1.83-5.82-2.39-8.66-4-9.5-1.44-.74-3.7.12-8.41 1.9-.95.36-2 .76-3.16 1.19-5.33 1.97-8.25 3.58-8.25 4.55 0 .83 1.46 5.49 3.25 10.36m158.16 247.6 1.73 5.19 9.55-3.41c5.25-1.88 9.72-3.58 9.92-3.79.36-.36-5.88-16.46-7.69-19.87-.82-1.53-1.32-1.51-6.65.17-6.76 2.13-13.27 4.81-13.27 5.46 0 .26 1.05 2.85 2.34 5.76 1.29 2.92 3.12 7.64 4.07 10.49M652.24 233.29c2.43 6.53 3.64 8.65 4.76 8.29 7.91-2.58 18.5-6.68 19.28-7.46.63-.63 0-3.71-1.82-8.8-2.22-6.23-2.94-9.15-4.64-9.92-1.39-.63-3.43.19-7.49 1.81-.84.33-1.77.7-2.8 1.1-5.79 2.25-10.53 4.56-10.54 5.14s1.46 5 3.25 9.84m-37.53-17.71c2 5.07 2.7 7.61 4.26 8.36 1.45.69 3.64-.16 8.31-1.98.9-.35 1.88-.73 2.97-1.15 4.26-1.62 7.75-3.48 7.75-4.11 0-.88-5.79-18.25-6.48-19.42-.37-.65-20.52 7.15-20.52 7.95 0 .51 1.67 5.18 3.71 10.35m55.58-20.47c2.25 5.67 4.46 9.83 5.09 9.6.62-.23 5.23-1.87 10.26-3.66l9.14-3.24-2.26-5.66c-4.87-12.21-5.76-14.15-6.51-14.15-.7 0-10.55 3.51-17.11 6.09l-2.6 1.03zM747.5 484c.34.55 1.23 1 1.98 1 2.6 0 19.52-7.26 19.52-8.38-.01-1.33-5.64-16.59-6.41-17.37-.3-.29-4.26.84-8.82 2.52-4.55 1.69-9.32 3.37-10.59 3.74-1.67.48-2.13 1.14-1.65 2.33.38.91 1.73 4.7 3.01 8.41 1.29 3.71 2.62 7.2 2.96 7.75M249.04 259.54c1.54 1.86 1.55 1.86 5.84-.7 5.94-3.55 8.12-5.97 8.12-9.03 0-4.4-3.89-11.7-7.13-13.38-1.58-.81-2.87-1.82-2.87-2.24s-1.4-.87-3.11-1c-3.38-.26-9.89 1.72-9.89 3.01 0 .44-.48.8-1.07.8s-1.7.63-2.48 1.4c-1.2 1.21-.63 2.26 3.99 7.44 2.96 3.33 5.68 6.97 6.04 8.1s1.1 2.06 1.65 2.06c.54 0 .7.47.34 1.04-.35.58-.1 1.7.57 2.5m411.62-92.62c2.11 5.54 4.38 10.08 5.04 10.08 1.92 0 18.3-6.12 18.3-6.84 0-.37-1.76-4.93-3.91-10.16-3.13-7.58-4.29-9.44-5.75-9.2-1.71.27-16.42 5.24-17.18 5.79-.18.14 1.39 4.79 3.5 10.33m-32.02 83.3c.72 1.16 1.13 1.07 10.61-2.43 4.81-1.78 8.75-3.67 8.75-4.21 0-.94-6.02-17.66-6.66-18.48-.53-.69-19.34 7.09-19.34 7.99 0 .86 5.74 15.68 6.64 17.13m53.57-24.47c1.06 2.89 2.29 5.25 2.72 5.25.44 0 4.07-1.35 8.07-3s7.86-3 8.58-3 1.53-.37 1.82-.83c.52-.84-5.05-17.01-6.35-18.45-.69-.75-16.64 4.73-18.41 6.32-.86.78-.03 3.96 3.57 13.71m-116.19-23.5c1.84 4.81 3.82 8.75 4.41 8.75 2.35-.01 17.06-5.77 16.86-6.6-.22-.95-7.5-18.65-7.92-19.25-.23-.34-16.04 4.64-17.67 5.57-.44.25-.4.98.09 1.62.48.64 2.38 5.1 4.23 9.91M640.56 285c2.1 5.08 4.23 8.87 4.85 8.61.6-.24 4.69-1.67 9.09-3.16 4.4-1.5 8.14-2.84 8.32-2.98.25-.22-6.59-17.53-7.17-18.14-.09-.1-2.86.5-6.16 1.32-3.29.83-6.99 1.75-8.21 2.04-4.62 1.11-4.72 2.68-.72 12.31m68.64 7.25c1.68 4.26 3.62 7.75 4.32 7.75 1.37 0 15.32-5.51 16.21-6.4.59-.59-5.62-18.43-6.61-18.99-.34-.19-4.45 1.08-9.12 2.83-4.58 1.71-6.95 2.45-7.7 3.98-.77 1.58.19 4.01 2.26 9.23.2.51.42 1.04.64 1.6m-57.64 20c1.51 4.26 3.1 7.75 3.54 7.75 1.39 0 17.37-5.17 18.11-5.86.73-.68-5.34-16.71-6.87-18.14-.46-.44-3.99.5-7.84 2.07-3.85 1.58-7.84 2.88-8.87 2.9h-.17c-.48.01-.84.01-1.04.19-.59.52.11 2.49 2.81 10.14zm46.53-47.8c1.71 4.7 3.43 8.55 3.84 8.55 2.09 0 17.55-5.95 17.86-6.87.58-1.75-5.17-16.32-6.68-16.91-1.61-.63-18.11 4.76-18.11 5.91 0 .42 1.39 4.61 3.09 9.32m-92.02 38.01c1.14 3.05 2.17 5.54 2.28 5.54.44 0 16.16-5.21 16.4-5.43.25-.24-7.48-19.63-8.05-20.2-.17-.17-3.88.97-8.25 2.52-8.64 3.08-7.407 3.681-6.52 8.27.317 1.639 3 6.26 4.14 9.3m39.05 100.29c1.3 3.05 2.31 4.16 3.59 3.93 3.78-.68 13.29-4.08 13.29-4.76 0-.83-8.02-21.24-8.57-21.81-.46-.48-12.61 3.81-13.73 4.85-.79.73 1.87 9.47 5.42 17.79m11.25 31.6c.4 1.15 1.23 1.63 2.18 1.27.84-.32 4.09-1.32 7.24-2.21 3.14-.9 6.03-1.93 6.42-2.29.53-.47-6.32-19.88-7.73-21.89-.21-.31-14.45 5.41-15.12 6.08-.25.25 1.08 4.21 2.95 8.82 1.87 4.6 3.7 9.2 4.06 10.22m18.37 50.49c1.92 4.47 2.65 6.69 4.11 7.41 1.35.67 3.35.06 7.52-1.23.67-.21 1.4-.44 2.2-.68l6.07-1.84-3.7-9.8c-2.04-5.4-4-10.1-4.35-10.45-.36-.35-4.12.5-8.37 1.89-4 1.31-6.19 1.9-6.9 3.26-.82 1.55.28 4.12 2.77 9.92.21.48.43.99.65 1.52m-87.1-229.44c2.08 5.28 4.03 9.61 4.32 9.61 1.55.04 16.05-5.47 15.81-6-.15-.34-1.85-4.75-3.77-9.81-1.92-5.05-4.01-9.19-4.63-9.19-1.1-.01-14.55 4.84-15.19 5.48-.18.17 1.38 4.64 3.46 9.91m76.42 198.5c2.3 5.56 4.49 10.1 4.87 10.1.37 0 3.81-1.07 7.63-2.38 4.54-1.56 6.84-2.86 6.64-3.75-.17-.76-1.91-5.56-3.88-10.68-2.88-7.51-3.89-9.18-5.2-8.64-.89.37-4.32 1.64-7.62 2.81-3.3 1.18-6.14 2.21-6.32 2.29-.17.08 1.57 4.7 3.88 10.25M155 284.01c0 2.02 1.9.89 3.89-2.33 1.12-1.82 2.92-4.11 4-5.08 2.72-2.46 1.21-6.34-4.94-12.65-4.12-4.23-5.38-4.95-8.64-4.95-4.43.01-10.31 3.22-10.31 5.64 0 .91 2.6 4.18 5.77 7.26 6.65 6.45 10.23 10.69 10.23 12.11m424.89-49.76c1.3 3.38 1.87 3.39 10.69.18l7.07-2.57-3.5-8.93c-2.41-6.16-4.01-8.93-5.13-8.93-1.35 0-13.91 3.82-14.78 4.49-.23.18 1.57 5.21 5.65 15.76M50.22 383.39c5.26 4.15 11.78 2.77 11.78-2.49 0-6.77-9.59-18.9-14.95-18.9-1.96 0-5.05 3.99-5.05 6.53 0 3.8 4.5 11.93 8.22 14.86M172.1 265.44c1.79 3.05 2.47 3.46 4.75 2.92 3.59-.86 6.23-2.23 8.81-4.58l2.16-1.96-2.02-3.44c-1.12-1.89-2.98-3.94-4.14-4.56-1.17-.63-2.7-1.72-3.42-2.44-2.71-2.7-12.21-2.95-16.21-.42-1.18.75-.55 1.79 3.25 5.38 2.6 2.46 4.72 4.71 4.72 5 0 .3.94 2.14 2.1 4.1m460.97 105.02c1.14 3.05 2.6 5.52 3.25 5.49 3.17-.14 13.15-4.85 12.9-6.09-.72-3.47-7.64-20.86-8.31-20.86-.41 0-1.05 1.37-1.42 3.05s-2.43 4.91-4.58 7.17-3.91 4.47-3.91 4.91.93 3.29 2.07 6.33m53.62-76.71c1.44 3.44 2.72 6.25 2.85 6.25.14 0 3.26-.93 6.94-2.07 4.17-1.28 6.51-2.51 6.21-3.25-.26-.65-1.67-4.18-3.15-7.84l-2.68-6.66-6.68 2.29c-3.46 1.19-5.29 1.73-5.86 2.9-.62 1.24.2 3.2 1.98 7.44.12.3.25.61.39.94m-59.71 31.8c3.49 3.45 7.02 4.55 7.03 2.2 0-.93-5.61-16.06-6.47-17.47-.08-.11-2.82.84-6.09 2.12-3.27 1.29-6.85 2.65-7.95 3.04-1.66.59-.99 1.22 4 3.69 3.3 1.64 7.57 4.53 9.48 6.42m-318.76-60.11c3.78 2.65 5.44 1.81 11.23-5.64l5.59-7.19-2.77-2.27c-1.52-1.25-3.31-2.28-3.96-2.3-1.22-.04-12.31 13.48-12.31 15.01 0 .46 1 1.54 2.22 2.39M685 509.45c0 .85.37 1.55.83 1.55 1.19 0 13.53-5.04 14.43-5.9.41-.39-.04-2.58-1-4.86-2-4.72-2.63-4.75-12.05-.63l-5.3 2.32 1.55 2.98c.85 1.65 1.54 3.69 1.54 4.54M557.25 943.56c-1.51.33-3.87.93-5.25 1.33-4.05 1.18-6.2.3-5.4-2.21.61-1.92.5-2.01-.96-.8-.97.81-1.64.93-1.64.3 0-.58.45-1.34 1-1.68s1.01-1.6 1.03-2.81c.04-2.53 2.17-5.69 3.84-5.69.86 0 .85-.47-.02-1.87-1.77-2.82-.41-4.85 3.57-5.31 1.97-.23 3.58-.25 3.58-.05 0 .82-2.93 3.23-3.93 3.23-.59 0-1.07.9-1.07 2s.44 2 .98 2 1.27 1.15 1.62 2.55c.47 1.85.13 2.93-1.23 3.93-1.79 1.32-1.76 1.42.63 2.33 1.85.7 2.71.59 3.3-.43 1.17-2.02 2.7-1.68 2.7.6 0 1.35-.88 2.17-2.75 2.58M282.32 236.75c.37.51.58.85.88 1.01.58.3 1.49-.05 4.53-1.22.31-.12.63-.25.98-.38 2.64-1.01 5.64-2.15 6.68-2.52 1.83-.66 1.83-.74.04-2.72-1.51-1.67-1.63-2.37-.64-3.96.67-1.06 1.21-2.22 1.21-2.57 0-1.15-6.39.59-11.71 3.18-5.03 2.45-5.16 2.62-4.05 5.23.63 1.49 1.57 3.26 2.08 3.95m31.38-12.7c-.48 1.84-.15 2.03 3.13 1.76 3.27-.28 3.67-.61 3.71-3.12.05-3.08 1.77-4.65 5.14-4.67 1.51-.02 2.28.68 2.5 2.23.54 3.77 3.35 2.78 3.16-1.11-.09-1.85-.54-3.73-1-4.18-.68-.67-16.81 2.6-18.23 3.69-.22.17.17.99.87 1.82.69.84 1.01 2.45.72 3.58m201.19 724.04c-1.98 1.25-2.87 1.12-3.51-.53-.9-2.35.02-5.01 1.85-5.36 2.25-.44 3.67 4.62 1.66 5.89M162.08 391.68c.6.6.93 2.15.75 3.45-.31 2.09-.44 2.15-1.09.54-1.16-2.87-.95-5.28.34-3.99M526 937c-1.94 1.25-3 1.25-3 0 0-.55 1.01-.99 2.25-.98 1.82.01 1.96.2.75.98m22 3c0 .55.42 1 .94 1s1.22-.45 1.56-1-.08-1-.94-1-1.56.45-1.56 1m56.5-19c-.34.55-.82 1-1.06 1s-.44-.45-.44-1 .48-1 1.06-1 .78.45.44 1"/><path fill="#51721f" d="M465.4 772.03c.74-.15 1.41-.27 1.96-.37.97.06.22 1.15-3 5.25-2.17 2.76-4.08 5.26-5.79 7.54-1.94 2.46-3.67 4.74-4.57 6.06-1.35 1.96-2.82 4.43-4.24 7.04-.6 1.05-1.15 2.07-1.66 3.07-1.36 2.7-2.56 5.31-3.48 7.55-1.66 3.94-2.51 6.83-1.72 6.83.44 0 4.58-4.39 9.19-9.75 16.32-18.99 29.9-32.14 48.91-47.36 11.71-9.38 31.9-20.62 44.5-24.76 9.9-3.26 25.23-4.75 33.77-3.3 25.39 4.33 40.73 23.09 40.73 49.81 0 14.71-5.84 39.13-12.51 52.36-2.64 5.23-11.13 17-12.25 17-.43 0-2.2-2.38-3.94-5.29-6.32-10.58-16.96-18.52-29.8-22.25-11.58-3.37-29.85-1.01-43.95 5.68-4.88 2.31-5.75 1.57-6.3-5.35-.86-10.81 5.57-29.66 14.84-43.54 1.56-2.34 2.56-4.25 2.22-4.25-.35.01-2.98 1.81-5.84 4.02-.02.02-.04.03-.05.04l-.11.09q-.315.24-.63.51c-4.84 3.99-9.86 10.5-15.12 19.59-1.51 2.61-89.85 47.86-97.56 52.58-.869.534-7.082 4.472-12.695 9.236-6.789 5.762-20.345 21.434-26.005 29.744-1.77 2.58-4.12 5.81-5.23 7.19s-5.26 6.55-9.21 11.5c-11.45 14.34-28.2 32.36-38.48 41.41-11.25 9.88-27.78 14.82-41.38 12.37-1.38-.25-3.48-1.36-4.68-2.47-1.31-1.22-4.69-3.75-6.3-5.78-3.39-4.28-6.83-15.72-6.48-21.53.31-5.26 1.35-9.77 2.52-10.95.52-.52.94-1.6.94-2.4 0-1.32 3.68-9.45 5.96-13.15.51-.83 1.19-2.79 1.53-4.37.33-1.58.9-2.57 1.25-2.22.36.36 1.37-.83 2.25-2.63s2.33-4.63 3.22-6.28c1.9-3.52 5.57-11.78 5.56-12.5-.01-.28 1.41-2.91 3.15-5.86 4.59-7.79 7.993-15.844 8.433-18.274.55-2.98 5.367-20.923 14.69-19 2.289.472 48.682.687 52.122.807 3.16.12 10.225-.783 15.585-1.153 4.5-.3 9.08-.79 13.55-1.4.64-.07 1.21-.14 1.7-.21 3.9-.57 7.75-1.28 11.37-2.06 7.75-1.64 14.23-3.61 17.89-5.59 2.43-1.32 4.35-2.52 4.49-2.79h.01v-.04c-.15-.14-4.99.37-10.76 1.12-15.85 2.08-32.92 2.48-49.31 1.36-21.98-1.88-41.81-5.948-57.18-11.718-2.44-1.04.179-11.955 1.71-16.679 1.585-4.892 6.307-16.592 10.241-17.202 9.432-1.463 35.079 6.619 41.069 6.859 16.94.65 59.8-1.79 64.47-1.93 7.35-.22 19.37-2.41 33.4-6.08 2.15-.56 4.85-2.01 6-3.23 1.81-1.91 1.85-2.12.3-1.58-.99.34-1.56.24-1.27-.24.23-.36 1.03-.79 1.97-1.08M360 718.37c-5.91 4.92-11.17 8.96-14.02 10.66-.75.31-1.45.49-2.17.59-.62.08-1.25.1-1.92.06-1.35-.16-3.17-.42-5.21-.73-4.31-.84-10.96-12.42-13.7-16.98s-4.98-9.48-4.98-10.93-.37-3.07-.83-3.59c-.45-.52-1.4-4.55-2.1-8.95-.71-4.4-1.4-8.67-1.54-9.5-.15-.83-.85-5.19-1.57-9.7s-5.945-22.11-7.393-27.944c-1.937-7.802-6.207-14.506-6.377-15.296s-19.582-22.62-26.221-27.042c-5.601-3.731-44.819-49.34-66.397-90.006-15.545-29.297-33.28-87.025-33.56-87.755-.36-.94 4.578-1.297 8.518-2.177 3.86-.86 7.94-2.36 12.06-4.4 6.53-3.1 12.78-7.42 19.01-13.1.38-.34.76-.7 1.14-1.05.03-.03.05-.05.08-.07l.05-.05c.95-.9 1.8-1.72 2.56-2.45q1.095-1.065 1.98-1.89c1.93-1.8 3.17-2.7 4.27-2.55.81.11 1.54.8 2.4 2.14 1.27 1.97 2.84 5.34 5.39 10.34 15.06 29.53 44.36 78.73 69.1 116.07 6.77 10.21 16.23 25.73 21.03 34.5 16.61 30.37 23.33 38.79 59.4 74.43 22.52 22.25 31.71 32.79 30.71 35.24-.76 1.85-17.1 21.1-25.2 29.68-3.86 4.08-13.99 13.41-22.51 20.73-.7.6-1.36 1.18-2 1.72m45 15.42c0-.27 7.55-8.1 16.78-17.39 18.09-18.22 25.25-26.58 35.44-41.4 19.3-28.06 32.45-57.55 41.27-92.56l3.3-13.07 8.92-8.93c16.97-17.01 29.29-39.64 33.41-61.4.67-3.55 2.54-8.73 4.16-11.5 3.63-6.22 3.98-6.84 7.28-13.04 1.46-2.75 5.92-9.95 9.9-16s8.76-13.61 10.64-16.81c3.3-5.64 3.5-5.78 6.84-5.17 5.05.94 13.39 5.13 21.32 10.37 6.85 4.66 13.7 10.34 19.04 16l-1.82 2.72c-1.06 1.59-4.31 9.19-7.23 16.89-5.69 15.02-21.82 48.14-24.83 50.98-.6.56-5.51 7.77-10.93 16.02-5.41 8.25-12.92 18.51-16.69 22.81-3.76 4.29-22.99 23.06-27.23 27.18-2.54 2.47-5.89 5.14-7.45 5.95l-3.242 1.48-1.148-6.22c-1.63-6.97-4.73-16.58-5.75-17.21 0-.01-.01-.01-.02-.01l-.46-.98-.04 2.36c-.3 2.14-.47 6.72-.47 13.33-.01 5.48-.29 14.13-.71 22.53-.17 3.18-.35 6.38-.54 9.53-.07 1.12-.15 2.21-.22 3.25-.76 10.37-1.51 19.59-2.27 27.79-2.59 25.21-4.74 39.53-7.26 47.93-.66 2.13-1.34 3.92-2.05 5.39-1.85 3.82-2.49 4.26-9.21 6.22-14.66 4.29-34.27 8.11-54.23 10.56-13.72 1.69-34.5 3.14-34.5 2.4"/><path fill="#314924" d="M336.62 541.92c-5.48-4.31-23.77-27.03-31.39-38.99-13.48-21.16-19.38-35.83-24.3-60.43-2.74-13.71-3.81-45.06-1.97-57.63 3.57-24.44 15.02-47.93 32.43-66.58 26.6-28.48 69.89-43.62 115.25-40.29 21.61 1.59 35.14 5.04 50.88 13.01 29.25 14.8 47 36.24 56.51 68.26 1.65 5.53 3.27 12.46 3.62 15.4l.63 5.34-6.4-4.29c-31.27-20.97-86.47-28.57-139.88-19.26-19.13 3.34-36.77 8.91-51.35 16.23-3.77 1.89-7.02 3.28-7.21 3.08-.61-.6 3.32-12.32 5.47-16.35 4.62-8.61-2.38-3.83-8.81 6.03-13.05 19.98-18.21 57.27-13.05 94.31 3.82 27.41 10.69 52.6 21.48 78.74.81 1.94 1.43 5.5.97 5.5-.13 0-1.42-.94-2.88-2.08m76.18 40.05c-11.7-2.52-21.73-6.84-32.96-14.21-22.61-14.83-33.22-31.88-43.72-70.26-3.31-12.08-6.12-26.13-6.12-30.56v-2.84l7.25 3.41c3.99 1.88 11.3 4.65 16.25 6.16 8.23 2.51 10.42 2.75 25.5 2.79 18.59.05 22.76-.69 45-7.92 16.11-5.23 25.37-6.91 33.49-6.04 7.09.75 9.59 1.45 23.51 6.57 21.41 7.86 35.77 8.93 48.89 3.63l6.39-2.58-.64 6.82c-1.03 11.09-6.17 29.51-11.01 39.44-10.15 20.82-26.43 40.09-43.19 51.13-12.96 8.53-23.8 12.83-37.94 15.05-11.87 1.85-20.12 1.7-30.7-.59M266.16 985.91c-3.49-.45-9.22-2.15-12.73-3.8-6.13-2.86-17.81-12.68-16.89-14.18.25-.4-.25-.99-1.11-1.32s-1.28-1.05-.93-1.6c.34-.56.21-1.01-.28-1.01-1.26 0-6.16-10.3-6.54-13.74-.17-1.57-.6-3.32-.95-3.88-1.03-1.68-.842-14.817.109-19.365 1.622-7.758 13.28-22.757 14.24-23.717 3.615-3.615 5.459-.991 5.459 7.479 0 4.35-.258 8.783.082 9.673.55 1.45.75 1.43 1.97-.17.74-.98 1.36-2.61 1.38-3.63s1.09-3.97 2.38-6.54c1.3-2.58 2.91-6.36 3.58-8.4s1.57-3.71 1.98-3.71c.42 0 .76-.56.76-1.25.02-2.14 28.83-76.44 30.44-78.39.74-.89 3.03-.25 9.19 2.58 15.24 7 29.53 10.88 43.2 11.72 4.95.31 9.11.84 9.25 1.2.37.95 28.31.34 38.55-.74-4.47.61-9.05 1.1-13.55 1.4-5.36.37-9.75.99-9.75 1.37 0 .39-2.59.62-5.75.5-3.44-.12-6.35.3-7.25 1.05-2.05 1.71-37.04 1.6-39.12-.12-.79-.66-3.32-1.42-5.64-1.7-4.66-.56-6.8.79-7.85 4.95-.33 1.34-.93 2.43-1.33 2.43-.87 0-4.96 8.64-5.51 11.62-.44 2.43-4.04 9.73-8.63 17.52-1.74 2.95-3.16 5.58-3.15 5.86.01.72-3.66 8.98-5.56 12.5-.89 1.65-2.34 4.48-3.22 6.28s-1.89 2.99-2.25 2.63c-.35-.35-.92.64-1.25 2.22-.34 1.58-1.02 3.54-1.53 4.37-2.28 3.7-5.96 11.83-5.96 13.15 0 .8-.42 1.88-.94 2.4-1.17 1.18-2.21 5.69-2.52 10.95-.35 5.81 3.09 17.25 6.48 21.53 1.61 2.03 4.99 4.56 6.3 5.78 1.2 1.11 3.3 2.22 4.68 2.47 13.6 2.45 30.13-2.49 41.38-12.37 10.28-9.05 27.03-27.07 38.48-41.41 3.95-4.95 8.1-10.12 9.21-11.5s3.46-4.61 5.23-7.19c5.66-8.31 11.462-15.332 12.105-16.175 1.318-1.728 7.1-7.999 14.009-13.851 5.467-4.632 11.738-8.433 12.586-8.954 7.71-4.72 96.05-49.97 97.56-52.58 5.26-9.09 10.28-15.6 15.12-19.59-5.61 4.69-13.87 16.23-17.44 24.45-4.79 11.03-7.08 29.59-4.29 34.81 1.55 2.88.58 3.63-11.95 9.19-20.81 9.24-58.01 20.42-79.81 24l-7.32 1.2-8.18 9.19c-4.51 5.05-14.46 17.24-22.12 27.09-20.91 26.89-30.28 37.88-41.71 48.94-23.07 22.33-42.21 30.99-62.7 28.38m64.77-257.88c-5.82-.98-11.44-2.04-12.5-2.35s-4.52-1.3-7.69-2.2-5.53-2.01-5.25-2.47c.29-.46-1.685-.209-2.601-3.611-.749-2.783-4.533-20.569-4.853-21.399-1.34-3.5-7.706-42.68-7.706-43.5 0-1.29.23-1.31 1.59-.12 1.71 1.5 11.12 5.99 14.92 7.12 2.17.64 2.25.53 1.14-1.66-.66-1.28-6.65-7.85-13.32-14.59-2.911-2.941-15.702-14.498-27.131-27.628C252.767 598.664 238.888 579.48 237 577c-3.35-4.4-19.143-25.924-20.003-26.254s-27.461-47.088-29.169-50.434c-1.735-3.399-14.38-33.418-15.739-36.099-1.392-2.746-12.669-39.113-12.379-40.223.58-2.22 1.8-2.6 11.29-3.47 7.7-.71 14.8-2.61 21.59-5.84-4.12 2.04-8.2 3.54-12.06 4.4-3.94.88-4.794.71-6.558 5.059-1.925 4.746 16.348 42.231 17.958 45.471 2.75 5.53 12.014 28.168 17.78 38.27s22.97 37.55 26.45 42.1c3.49 4.55 61.86 75.29 62.03 76.08.077.36 4.246 6.938 7.244 16.033 3.59 10.891 6.134 24.749 6.526 27.207.72 4.51 1.42 8.87 1.57 9.7.14.83.83 5.1 1.54 9.5.7 4.4 1.65 8.43 2.1 8.95.46.52.83 2.14.83 3.59s2.24 6.37 4.98 10.93 9.39 16.14 13.7 16.98c-1.81-.27-3.78-.59-5.75-.92m-160.1 309.44c-14.24-4.53-20.04-26.44-12.39-46.77 1.41-3.73 16.05-45.745 18.596-49.945 1.394-2.3.357-3.515 9.284-15.639s19.51-7.206 20.17-6.126c.35.57-.05.73-.94.39-1-.38-6.03 19.64-3.91 18.25 1.02-.67 3.29-1.34 5.03-1.49 2.87-.25 3.12-.05 2.61 2.04-.32 1.28 4.842 1.162 5.72 9.73.508 4.954 6.35 19.74 11.02 25.61 1.64 2.07 2.98 4.13 2.98 4.59 0 1.39-6.1-.14-12.86-3.21-3.5-1.6-6.54-2.9-6.75-2.9-.22 0-.39 1-.39 2.21 0 1.39 2.06 4.16 5.5 7.42 3.02 2.86 5.5 5.86 5.5 6.66 0 2.16-6.62 18.19-10.83 26.21-4.32 8.23-13.74 18.15-20.23 21.29-6.06 2.93-12.37 3.52-18.11 1.68M491 930.41c0-1.18 4.41-13.41 6.46-17.91 1.26-2.75 3.06-7.03 4-9.5.95-2.47 2.75-6.75 4.01-9.5s2.75-6.8 3.32-9 1.67-6.47 2.46-9.5 2.02-8.65 2.73-12.5c1.3-7.08 4.82-21.73 5.27-21.97.14-.08 1.48-.91 2.99-1.85 3.19-1.99 20.32-6.77 22.07-6.15.66.23 4.14.61 7.75.86 4.62.3 8.47 1.35 13 3.53 7.96 3.83 10.01 5.54 13.76 11.45 3.42 5.39 3.19 8.52-1.13 15.89-4.46 7.62-5.71 8.61-12.25 9.62-8.32 1.3-20.98 6.35-28.4 11.33-6.39 4.29-10.38 8.42-9.51 9.84.28.45.05 1.09-.51 1.44s-1.02.99-1.02 1.43 3.73-1.14 8.28-3.5c13.03-6.77 23.83-9.55 39.35-10.16 11.58-.45 13.91-.26 19.8 1.64 7.87 2.55 14.4 6.99 16.78 11.42 2.78 5.19 2.28 5.68-3.46 3.38-8.14-3.27-26.85-2.96-39.99.66-17.7 4.88-32.56 10.41-45.93 17.08-7.26 3.62-13.93 6.34-14.83 6.06s-3.7.86-6.24 2.53c-4.21 2.79-8.76 4.55-8.76 3.38m-42.01-368.97c17.22-4.06 31.82-19.84 39.65-42.85 3.69-10.86 3.03-15.16-2.79-18.17-2.77-1.43-4.98-1.47-21.05-.35-14.66 1.01-21.48 1-37.13-.1-34.16-2.4-34.23-2.37-34.06 12.32.17 15.33 5.12 26.92 16.34 38.25 10.67 10.78 23.89 14.47 39.04 10.9m-76.77 171.55c-4.56-.4-8.53-.97-8.83-1.27-.31-.3 1.59-2.5 4.22-4.88 32.58-29.64 50.94-50.7 73.53-84.34 12.92-19.23 15.33-22.7 18.86-27.14 5.34-6.71 6.07-7.99 9.24-16.16 3.41-8.8 6.52-12.36 12.01-13.73 2.31-.58 2.75-.37 2.75 1.3 0 1.09-.66 3.56-1.47 5.49-.8 1.93-1.43 5.48-1.38 7.88.14 8.31-14.12 38.98-29.46 63.36-10.27 16.32-21.36 29.36-41.69 49.04-17.55 16.98-23.66 21.67-27.82 21.32-.92-.08-5.41-.47-9.96-.87m251.08-270.1a71 71 0 0 1 3.91 4.51c1.47 1.85 2.47 3.06 2.94 4.45.97 2.87-.33 6.5-4.49 18.1l-.38 1.05c-8.24 23-19.69 45.21-35.57 69-12.97 19.42-22.67 31.06-43.26 51.91-21.71 21.98-21.98 22.08-21.22 7.57.27-5.21-.23-7.86-.23-7.86l-1.166-4.702 3.286-1.478c1.56-.81 4.91-3.48 7.45-5.95 4.24-4.12 23.47-22.89 27.23-27.18 3.77-4.3 11.28-14.56 16.69-22.81 5.42-8.25 10.33-15.46 10.93-16.02 3.01-2.84 19.14-35.96 24.83-50.98 2.92-7.7 6.17-15.3 7.23-16.89zM465.4 772.03c-.94.29-1.74.72-1.97 1.08-.29.48.28.58 1.27.24 1.55-.54 1.51-.33-.3 1.58-1.15 1.22-3.85 2.67-6 3.23-14.03 3.67-26.05 5.86-33.4 6.08-4.67.14-8.82.71-9.21 1.26-.62.87-38.32 1.32-55.26.67-5.99-.24-28.22-3.95-30.44-5.09-.88-.44-2.13-.62-2.78-.38-.66.24-2.1-.05-3.19-.64-1.42-.76-2.19-.75-2.66.01-.36.58-1.29.82-2.06.53-.82-.31-1.4.09-1.4.96 0 .83-.7 1.77-1.56 2.1-.85.33-1.32 1.22-1.03 1.97s.11 1.37-.4 1.37c-.8 0-2.54 4.95-3.51 10-.16.83-.82 3.46-1.46 5.85-.64 2.4-.92 4.61-.6 4.92.31.31-.09 1.57-.89 2.8-1.08 1.65-1.26 2.11 1.18 3.15-6.51-2.45-12.509-4.325-18.379-7.615-4.71-2.64-7.091-4.825-7.641-6.575-.51-1.59.41-3.63 2.19-7.62l.26-.57c1.19-2.66 5.16-12 7.87-17.4l4.93-9.83 7 2.38c17.91 6.09 55.64 12.51 73.52 12.51 4.62 0 27.91.12 33.27.07 5.36-.06 16.23-.97 24.16-2.03s14.68-1.89 15-1.83 1.26-.16 2.09-.48c1.38-.55 7.42-1.93 11.4-2.7M168.82 407.87c-.73-.46-3.44-.85-6.03-.85-3.46-.02-4.97-.49-5.65-1.77-1.7-3.2-4.35-15.35-3.8-17.45.3-1.13-.11-2.71-.9-3.5-1.75-1.76-1.89-4.3-.23-4.3.67 0 12.35-2.35 16.03-3.57 9.54-3.15 29.35-18.8 30.94-20.46 1.6-1.67 3.33-2.77 3.86-2.44.53.32 1.82 2.48 2.87 4.78s3.53 7.75 5.52 12.1c2.12 4.66 3.36 8.68 3.01 9.79-.33 1.03-4.33 5.61-8.89 10.17-6.52 6.52-10.1 9.18-16.68 12.41-8.64 4.24-17.75 6.55-20.05 5.09m357.797 550.956c-26.31 2.167-32.877-3.286-34.037-5.186-1.51-2.48 2.395-9.707 11.179-13.528 6.141-2.672 34.237-17.691 43.191-20.273 10.038-2.894 25.986-8.685 33.203-8.869 4.382-.112 23.164-2.957 28.881 1.742 7.141 5.869-11.412 17.48-11.992 19.32-.66 2.09-39.843 24.276-70.425 26.794M412.96 651.24c-1.85-2.61-14.89-16.44-28.97-30.74-27.88-28.3-34.107-34.698-33.847-38.288.23-3.05.952-3.324 4.233-2.075 3.368 1.282 27.594 15.793 30.384 17.243 1.68.86 3.66 2.15 4.4 2.86.73.71 5.84 4.5 11.34 8.42 9.93 7.08 24.22 21.86 27.4 28.35 1.34 2.74 1.2 3.11-3.76 9.8l-.37.5c-4.11 5.54-5.79 7.81-7.23 7.67-1.04-.1-1.96-1.46-3.58-3.74m211.72-204.79c-1.55-1.36-3.24-2.22-3.75-1.91-.51.32-3.52-1.4-6.68-3.82-8.85-6.76-14.41-9.71-26.45-14.01-1.46-.52-1.04-1.74 3.07-8.91 2.62-4.56 5.2-9.08 5.73-10.03.85-1.53 1.82-1.09 8.43 3.88 13.96 10.5 13.95 10.49 15.56 17.39.81 3.48 1.85 6.81 2.31 7.4.73.92 5.16 12.61 4.75 12.53-.08-.02-1.42-1.15-2.97-2.52M429.49 620.53c-3.3-4.12-5.99-7.92-5.99-8.46s-1.7-3.01-3.78-5.5-3.552-3.887-4.88-6.69c-.385-.812 5.79-.86 15.21-.86 10.97-.01 16.93-.4 17.68-1.15.63-.63 1.82-.87 2.67-.55 1.32.51 1.22 1.44-.81 7.04-2.34 6.44-12.1 23.64-13.42 23.64-.38 0-3.39-3.36-6.68-7.47m-64.8 204.38c16.39 1.12 33.46.72 49.31-1.36-17.35 2.28-31.7 2.75-47 1.54zm93.88-40.46c1.71-2.28 3.62-4.78 5.79-7.54 3.22-4.1 3.97-5.19 3-5.25 1.01-.17 1.64-.24 1.64-.15 0 .17-2.74 3.58-6.08 7.59a251 251 0 0 0-4.35 5.35m53.68-123.16c-2.21 23.84-4.51 38.96-7.26 47.93 2.52-8.4 4.67-22.72 7.26-47.93M360 718.37c.64-.54 1.3-1.12 2-1.72 8.52-7.32 18.65-16.65 22.51-20.73-6 6.35-15.94 15.32-24.51 22.45m244.26-271.48c-7.93-5.24-16.27-9.43-21.32-10.37 5.59 1.04 13.46 5.03 21.32 10.37M341.89 729.68c.67.04 1.3.02 1.92-.06.72-.1 1.42-.28 2.17-.59-.95.57-1.63.87-1.98.86-.38-.01-1.12-.09-2.11-.21m175.07-146.2c-.19-.08-.36.39-.5 1.38l.04-2.36zM402.37 830.85c7.78-1.68 14.43-3.72 17.89-5.6 2.45-1.33 4.38-2.53 4.5-2.78-.12.25-2.05 1.46-4.5 2.79-3.66 1.98-10.14 3.95-17.89 5.59m42.25-22.68c.92-2.24 2.12-4.85 3.48-7.55.51-1 1.06-2.02 1.66-3.07-1.95 3.59-3.81 7.45-5.14 10.62m346.3-355.12c-2-5.32-4.04-10.5-4.34-10.8.33.32 2.35 5.48 4.34 10.8M515.28 620.72c-.16 3.28-.34 6.53-.54 9.53.19-3.15.37-6.35.54-9.53m-291.2-225.06c-.86-1.34-1.59-2.03-2.4-2.14-1.1-.15-2.34.75-4.27 2.55 1.93-1.8 3.17-2.71 4.26-2.56.81.11 1.54.8 2.41 2.15"/><path fill="#40503d" d="M704.99 371.86c0-.75-2.68-8.44-5.95-17.1s-6.22-17.21-6.56-19.01l-.61-3.26 10.71-3.76c5.9-2.07 10.81-3.64 10.93-3.5.11.15 1.13 2.97 2.26 6.27s4.12 11.8 6.65 18.89c2.52 7.09 4.58 13.46 4.58 14.16 0 .69-3.82 2.64-8.5 4.34-11.66 4.22-13.5 4.62-13.51 2.97m-36.18-13.63q-.72-1.875-1.32-3.45c-2.39-6.18-3.46-8.96-2.55-10.71.9-1.72 3.72-2.44 9.1-4.44 5.59-2.07 10.27-3.62 10.4-3.45.5.68 8.5 21.4 8.77 22.73.2.95-2.95 2.65-9.71 5.24-5.5 2.12-10.22 3.84-10.5 3.83s-2.16-4.4-4.19-9.75m71.36 18.62c-2.33-5.49-6.98-17.92-7.37-19.69-.28-1.25 14.69-8.16 17.69-8.16.68 0 3.34 5.06 5.92 11.25 2.59 6.19 4.92 11.74 5.19 12.35.29.64-2.96 2.37-7.8 4.15-4.57 1.68-9.08 3.37-10.04 3.76-1.38.55-2.13-.22-3.59-3.66M729 345.92c0-.81-7-19.18-8.8-23.07-.27-.58 17.18-6.85 19.05-6.85.41 0 .75.49.75 1.1 0 .6 1.85 5.67 4.11 11.25s4.31 10.66 4.56 11.28c.27.67-3.06 2.41-8.16 4.25-9.22 3.34-11.51 3.75-11.51 2.04m65.84 119.26c-.51.66-2.24 1.8-4.28 2.79-.19.09-.39.19-.58.29-1.38.61-3.01 1.24-4.88 1.89-3.34 1.17-5.45 1.91-6.81 2.3-1.43-.04-2.55-.24-2.77-.67-.36-1-2.29-6.49-4.4-12.44l-3.94-11.17 9.49-3.17c5.21-1.75 9.68-2.99 9.91-2.75.33.32 2.35 5.48 4.33 10.79v.01c2.01 5.36 3.97 10.88 4.08 11.73-.01.13-.06.26-.15.4m-68.33-36.43c-.24-.69-1.98-5.44-3.88-10.56l-3.45-9.31 2.16-.8c7.35-2.75 17.71-6.08 18.92-6.08.79 0 2.03 1.88 2.79 4.25.75 2.34 2.4 6.83 3.66 9.98s2.29 5.93 2.29 6.17-2.98 1.43-6.62 2.64-7.8 2.82-9.25 3.58c-3.28 1.71-6.06 1.77-6.62.13m-91.87-244.09c-3.26-7.91-6.83-17.8-6.5-18.07 1.31-1.07 17.83-6.35 19.86-6.35 2.23.01 2.85.97 5.75 8.81 1.79 4.83 3.25 9.44 3.25 10.24 0 1.39-6.02 4.01-16.43 7.14l-4.62 1.39zm45.46 202.22c-2.3-5.57-4.04-10.57-3.85-11.12.31-.94 12.27-5.68 17.83-7.07 2.48-.62 2.71-.3 5.41 7.58 1.55 4.53 3.41 9.42 4.13 10.87 1.24 2.47 1.15 2.71-1.4 3.72-6.45 2.54-16.52 6.14-17.2 6.14-.41 0-2.62-4.56-4.92-10.12m-37.85-180.63c-1.75-4.81-3.31-9.4-3.47-10.19-.19-.99 2.83-2.63 9.71-5.25 5.49-2.1 10.44-3.8 11-3.8.55.01 2.29 3.72 3.86 8.25.36 1.04.7 1.98 1 2.85 1.78 5.03 2.61 7.38 1.83 8.92-.82 1.62-3.42 2.33-8.58 4.31-5.27 2.01-10.16 3.66-10.87 3.66s-2.72-3.93-4.48-8.75m48.42 210.16c-2.1-5.83-3.62-10.8-3.37-11.04.63-.63 19.98-7.42 20.27-7.12.65.7 7.43 19.13 7.43 20.2 0 .94-17.9 8.56-20.1 8.55-.22 0-2.12-4.77-4.23-10.59m12.57 34.43c-1.08-2.94-2.54-7.14-3.24-9.34-.69-2.2-1.67-4.52-2.18-5.16-1.18-1.49-1.01-1.58 10.52-5.76l9.67-3.5 1.48 3.54c2.6 6.23 6.58 17.65 6.26 17.97-.29.28-15.19 5.85-18.89 7.05-1.26.41-2.12-.73-3.62-4.8m9.33-59.92c-2.06-5.55-3.59-10.21-3.41-10.37.74-.62 21.14-7.59 21.41-7.31.72.72 7.41 20.11 7.06 20.46-.54.55-19.53 7.3-20.52 7.3-.44 0-2.49-4.54-4.54-10.08m-.06 83.54c-2.07-5.8-3.59-10.71-3.38-10.9 1.12-1.07 19.26-7.5 19.76-7.01.88.89 8.08 20.81 7.67 21.22-.51.52-18.69 7.23-19.56 7.23-.41 0-2.43-4.74-4.49-10.54m39.81-65.11c-.38-1.02-2.18-5.67-4-10.34-1.83-4.67-3.32-9.02-3.32-9.66 0-1.42 18.1-7.66 19.13-6.6.39.41 1.59 3 2.66 5.75 1.06 2.75 2.88 7.33 4.03 10.17l2.09 5.17-8.21 2.99c-4.51 1.65-8.98 3.31-9.94 3.69-1.2.47-1.96.11-2.44-1.17m-17.78 39.63c-2.21-5.83-3.45-10.46-2.93-10.95 1.46-1.39 18.66-7.14 19.92-6.66 1.68.65 7.94 18.56 6.86 19.62-.49.48-4.49 2.2-8.89 3.83-4.4 1.62-8.71 3.25-9.57 3.6-1.24.52-2.36-1.43-5.39-9.44M604.25 188.13c-1.79-4.87-3.25-9.53-3.25-10.36 0-.97 2.92-2.58 8.25-4.55 1.16-.43 2.21-.83 3.16-1.19 4.71-1.78 6.97-2.64 8.41-1.9 1.61.84 2.17 3.68 4 9.5 1.83 5.81 3.18 10.67 3 10.79-.8.58-18.47 6.58-19.34 6.57-.54 0-2.44-3.99-4.23-8.86m158.16 247.6c-.95-2.85-2.78-7.57-4.07-10.49-1.29-2.91-2.34-5.5-2.34-5.76 0-.65 6.51-3.33 13.27-5.46 5.33-1.68 5.83-1.7 6.65-.17 1.81 3.41 8.05 19.51 7.69 19.87-.2.21-4.67 1.91-9.92 3.79l-9.55 3.41zM652.24 233.29c-1.79-4.84-3.26-9.26-3.25-9.84s4.75-2.89 10.54-5.14c1.03-.4 1.96-.77 2.8-1.1 4.06-1.62 6.1-2.44 7.49-1.81 1.7.77 2.42 3.69 4.64 9.92 1.82 5.09 2.45 8.17 1.82 8.8-.78.78-11.37 4.88-19.28 7.46-1.12.36-2.33-1.76-4.76-8.29m-37.53-17.71c-2.04-5.17-3.71-9.84-3.71-10.35 0-.8 20.15-8.6 20.52-7.95.69 1.17 6.48 18.54 6.48 19.42 0 .63-3.49 2.49-7.75 4.11-1.09.42-2.07.8-2.97 1.15-4.67 1.82-6.86 2.67-8.31 1.98-1.56-.75-2.26-3.29-4.26-8.36m55.58-20.47-3.99-9.99 2.6-1.03c6.56-2.58 16.41-6.09 17.11-6.09.75 0 1.64 1.94 6.51 14.15l2.26 5.66-9.14 3.24c-5.03 1.79-9.64 3.43-10.26 3.66-.63.23-2.84-3.93-5.09-9.6M747.5 484c-.34-.55-1.67-4.04-2.96-7.75-1.28-3.71-2.63-7.5-3.01-8.41-.48-1.19-.02-1.85 1.65-2.33 1.27-.37 6.04-2.05 10.59-3.74 4.56-1.68 8.52-2.81 8.82-2.52.77.78 6.4 16.04 6.41 17.37 0 1.12-16.92 8.38-19.52 8.38-.75 0-1.64-.45-1.98-1m-86.84-317.08c-2.11-5.54-3.68-10.19-3.5-10.33.76-.55 15.47-5.52 17.18-5.79 1.46-.24 2.62 1.62 5.75 9.2 2.15 5.23 3.91 9.79 3.91 10.16 0 .72-16.38 6.84-18.3 6.84-.66 0-2.93-4.54-5.04-10.08m-32.02 83.3c-.9-1.45-6.64-16.27-6.64-17.13 0-.9 18.81-8.68 19.34-7.99.64.82 6.66 17.54 6.66 18.48 0 .54-3.94 2.43-8.75 4.21-9.48 3.5-9.89 3.59-10.61 2.43m53.57-24.47c-3.6-9.75-4.43-12.93-3.57-13.71 1.77-1.59 17.72-7.07 18.41-6.32 1.3 1.44 6.87 17.61 6.35 18.45-.29.46-1.1.83-1.82.83s-4.58 1.35-8.58 3-7.63 3-8.07 3c-.43 0-1.66-2.36-2.72-5.25m-116.19-23.5c-1.85-4.81-3.75-9.27-4.23-9.91-.49-.64-.53-1.37-.09-1.62 1.63-.93 17.44-5.91 17.67-5.57.42.6 7.7 18.3 7.92 19.25.2.83-14.51 6.59-16.86 6.6-.59 0-2.57-3.94-4.41-8.75M640.56 285c-4-9.63-3.9-11.2.72-12.31 1.22-.29 4.92-1.21 8.21-2.04 3.3-.82 6.07-1.42 6.16-1.32.58.61 7.42 17.92 7.17 18.14-.18.14-3.92 1.48-8.32 2.98-4.4 1.49-8.49 2.92-9.09 3.16-.62.26-2.75-3.53-4.85-8.61m68.64 7.25c-.22-.56-.44-1.09-.64-1.6-2.07-5.22-3.03-7.65-2.26-9.23.75-1.53 3.12-2.27 7.7-3.98 4.67-1.75 8.78-3.02 9.12-2.83.99.56 7.2 18.4 6.61 18.99-.89.89-14.84 6.4-16.21 6.4-.7 0-2.64-3.49-4.32-7.75m-57.64 20-.33-.95c-2.7-7.65-3.4-9.62-2.81-10.14.2-.18.56-.18 1.04-.19h.17c1.03-.02 5.02-1.32 8.87-2.9 3.85-1.57 7.38-2.51 7.84-2.07 1.53 1.43 7.6 17.46 6.87 18.14-.74.69-16.72 5.86-18.11 5.86-.44 0-2.03-3.49-3.54-7.75m46.53-47.8c-1.7-4.71-3.09-8.9-3.09-9.32 0-1.15 16.5-6.54 18.11-5.91 1.51.59 7.26 15.16 6.68 16.91-.31.92-15.77 6.87-17.86 6.87-.41 0-2.13-3.85-3.84-8.55m-92.02 38.01c-1.14-3.04-4.121-7.58-4.57-9.188-1.413-5.062-1.69-5.302 6.95-8.382 4.37-1.55 8.08-2.69 8.25-2.52.57.57 8.3 19.96 8.05 20.2-.24.22-15.96 5.43-16.4 5.43-.11 0-1.14-2.49-2.28-5.54m39.05 100.29c-3.55-8.32-6.21-17.06-5.42-17.79 1.12-1.04 13.27-5.33 13.73-4.85.55.57 8.57 20.98 8.57 21.81 0 .68-9.51 4.08-13.29 4.76-1.28.23-2.29-.88-3.59-3.93m11.25 31.6c-.36-1.02-2.19-5.62-4.06-10.22-1.87-4.61-3.2-8.57-2.95-8.82.67-.67 14.91-6.39 15.12-6.08 1.41 2.01 8.26 21.42 7.73 21.89-.39.36-3.28 1.39-6.42 2.29-3.15.89-6.4 1.89-7.24 2.21-.95.36-1.78-.12-2.18-1.27m18.37 50.49c-.22-.53-.44-1.04-.65-1.52-2.49-5.8-3.59-8.37-2.77-9.92.71-1.36 2.9-1.95 6.9-3.26 4.25-1.39 8.01-2.24 8.37-1.89.35.35 2.31 5.05 4.35 10.45l3.7 9.8-6.07 1.84c-.8.24-1.53.47-2.2.68-4.17 1.29-6.17 1.9-7.52 1.23-1.46-.72-2.19-2.94-4.11-7.41m-87.1-229.44c-2.08-5.27-3.64-9.74-3.46-9.91.64-.64 14.09-5.49 15.19-5.48.62 0 2.71 4.14 4.63 9.19 1.92 5.06 3.62 9.47 3.77 9.81.24.53-14.26 6.04-15.81 6-.29 0-2.24-4.33-4.32-9.61m76.42 198.5c-2.31-5.55-4.05-10.17-3.88-10.25.18-.08 3.02-1.11 6.32-2.29 3.3-1.17 6.73-2.44 7.62-2.81 1.31-.54 2.32 1.13 5.2 8.64 1.97 5.12 3.71 9.92 3.88 10.68.2.89-2.1 2.19-6.64 3.75-3.82 1.31-7.26 2.38-7.63 2.38-.38 0-2.57-4.54-4.87-10.1m-84.17-219.65c-4.08-10.55-5.88-15.58-5.65-15.76.87-.67 13.43-4.49 14.78-4.49 1.12 0 2.72 2.77 5.13 8.93l3.5 8.93-7.07 2.57c-8.82 3.21-9.39 3.2-10.69-.18m-331.233 25.699c-.67-.8-2.39-4.483-2.75-5.613s-2.507-5.166-5.467-8.496c-.99-1.1-7.385-6.877-5.149-8.263 5.517-3.419 9.361-7.365 13.98-7.825 2.795-.278 6.677 4.277 7.983 6.028 2.183 2.925 5.746 9.63 5.746 14.03 0 3.06-2.18 5.48-8.12 9.03-4.29 2.56-4.683 2.969-6.223 1.109M633.07 370.46c-1.14-3.04-2.07-5.89-2.07-6.33s1.76-2.65 3.91-4.91 4.21-5.49 4.58-7.17 1.01-3.05 1.42-3.05c.67 0 7.59 17.39 8.31 20.86.25 1.24-9.73 5.95-12.9 6.09-.65.03-2.11-2.44-3.25-5.49m53.62-76.71c-.14-.33-.27-.64-.39-.94-1.78-4.24-2.6-6.2-1.98-7.44.57-1.17 2.4-1.71 5.86-2.9l6.68-2.29 2.68 6.66c1.48 3.66 2.89 7.19 3.15 7.84.3.74-2.04 1.97-6.21 3.25-3.68 1.14-6.8 2.07-6.94 2.07-.13 0-1.41-2.81-2.85-6.25m-59.71 31.8c-1.91-1.89-6.18-4.78-9.48-6.42-4.99-2.47-5.66-3.1-4-3.69 1.1-.39 4.68-1.75 7.95-3.04 3.27-1.28 6.01-2.23 6.09-2.12.86 1.41 6.47 16.54 6.47 17.47-.01 2.35-3.54 1.25-7.03-2.2M685 509.45c0-.85-.69-2.89-1.54-4.54l-1.55-2.98 5.3-2.32c9.42-4.12 10.05-4.09 12.05.63.96 2.28 1.41 4.47 1 4.86-.9.86-13.24 5.9-14.43 5.9-.46 0-.83-.7-.83-1.55m38.649-8.648c.136-1.093-.479-2.782-1.459-4.662l-2.14-4.11 2.72-.67c1.5-.37 4.55-1.45 6.77-2.39 2.22-.95 5.48-2.04 7.25-2.42 2.7-.6 3.22-.42 3.24 1.12.02.81 3.539 4.137 4.941 4.685-2.789.501-5.565 1.865-12.005 4.535-7.71 3.2-9.317 3.912-9.317 3.912m31.661-11.692c.45-.17.91-.35 1.4-.53 6.48-2.46 18.71-6.97 27.18-10.02-8.47 3.05-20.73 7.58-27.26 10.05-.46.17-.9.34-1.32.5"/><path fill="#6b451d" d="M69.45 371.79c-1.14-2.97-4.13-7.41-7.17-10.64-2.87-3.05-5.12-5.61-5-5.69 2.58-1.81 17.86-11.38 30.22-18.95 8.8-5.38 16.73-10.42 17.63-11.2 1.44-1.24 2.41-.82 8.16 3.53 6.02 4.56 10.06 6.51 15.2 7.36 1.47.24-.81 2.25-8.5 7.51-5.77 3.95-10.94 7.56-11.49 8.02-1.1.93-34.37 23.57-36.05 24.54-.61.35-1.89-1.58-3-4.48m148.46-94.7c-2.93-3.96-8.48-7.6-14.01-9.17-2.42-.69-4.85-1.66-5.4-2.16-1.46-1.31 2.88-4.72 15.68-12.32 8.04-4.78 11.72-6.43 13.36-6.02 1.25.31 4.27 2.8 6.72 5.53 4.63 5.14 6.52 10.73 4.75 14.03-.89 1.67-14.36 11.45-17.33 12.59-.95.36-2.35-.55-3.77-2.48M50.22 383.39C46.5 380.46 42 372.33 42 368.53c0-2.54 3.09-6.53 5.05-6.53C52.41 362 62 374.13 62 380.9c0 5.26-6.52 6.64-11.78 2.49"/><path fill="#c66213" d="M328.64 761.25c-9.26-2.02-17.59-4.26-23.3-6.4l-5.6-2.09.63-6.03c.35-3.31.63-7.68.63-9.71 0-3.43.21-3.69 3-3.69 1.65 0 3 .32 3 .71s1.01.71 2.25.72c1.24 0 7.65 1.23 14.25 2.71q1.575.36 3.06.69c-.46-.08-.78-.13-.93-.14-.48-.01-.53 3.44-.11 7.73.42 4.26.86 9.28.99 11.14.13 1.87.86 3.73 1.62 4.15.12.06.29.14.51.21m31.86-17.5c5.62.51 12.07.94 20.34 1.41 11.22.65 24.97.57 38.5-.06l-.5.03c-18.31 1.13-39.49.55-58.34-1.38m13 24.2c-7.25-.42-16.12-1.5-25.21-2.97 9.17 1.38 19.25 2.62 25.21 2.96 4.6.27 9.08.47 13.47.59-4.39-.12-8.87-.32-13.47-.58m-40.57-28.41c2.02.42 3.93.81 5.77 1.16-1.99-.37-3.92-.75-5.77-1.16"/><path fill="#d58034" d="M140.32 364.62c-5.11-1.67-10.09-4.68-13.17-7.96-2.23-2.38-2.25-2.52-.51-4.56.99-1.15 2.17-2.1 2.63-2.1.45 0 1.98-1.08 3.41-2.4 1.43-1.33 3.74-3.01 5.15-3.75s3.6-2.3 4.86-3.46c1.27-1.16 4.22-3.41 6.56-5s4.85-3.46 5.58-4.15c1.73-1.64 2.79-.91 3.64 2.5.7 2.83 4.09 7.74 5.98 8.97-.58-.25-1.34-1.03-2.34-2.3l-2.04-2.6-2.56 2.85c-6.75 7.51-7.4 15.17-1.61 19.06 3.62 2.43 7.44 2.83 12.92.82-10.62 4.71-20.97 6.55-28.5 4.08m-15.82-40.29c-1.65-.88-5.77-4.23-9.16-7.46-5.06-4.81-7.27-6.41-8.02-5.42.62-.88 2.23.03 5.28 2.82 4.46 4.09 9.91 4.4 15.81.92 2.78-1.65 4.11-1.97 4.62-1.14.52.84.91.86 1.4.06.05-.07.08-.14.11-.21.93 1.96 1.46 3.79 1.46 5.33 0 3.36-3.18 6.78-6.25 6.73-1.24-.02-3.6-.76-5.25-1.63m486.48 68.59c-1.06-4.3-2.91-9.28-4.46-11.33-4.06-5.36-11.01-30.24-7.91-28.33.53.33.76-1.13.54-3.44.35 1.55 1.24 3.61 2.28 5.13 2.55 3.71 5.9 15.67 7.02 25.05.36 3.02 1.33 8.14 2.16 11.36.13.51.26 1.04.37 1.56m-445.14-52.1c.03-1.14-.07-2.74-.27-4.82-.38-3.85-.33-7.56.1-8.25.44-.69.81-1.48.83-1.75.08-1.59 2.88-7 3.62-7 .48 0 .88-.62.88-1.38 0-2.08 2.42-3.66 6.15-4.02 2.91-.28 5.96-1.31 13.04-4.43-.51.38-1.05.82-1.56 1.29-1.46 1.36-3.28 2.23-4.04 1.94-.76-.3-1.68-.06-2.04.52-.41.67.01.82 1.15.42.99-.35-2.59 3.61-7.95 8.81L166 331.6v5.7c0 1.48-.05 2.64-.16 3.52M145 315.63c0-.75-1.58-4.53-3.52-8.4-1.63-3.25-4.27-6.9-7.31-10.29 2.56 2.75 4.77 5.52 6.03 7.77 1.65 2.91 3.21 5.29 3.47 5.29s2.66-2.11 5.32-4.69l4.49-4.34c1.86 5.53 2.05 10.58.13 13.5-1.25 1.9-2.52 2.53-5.13 2.53-2.27 0-3.48-.47-3.48-1.37m67.43 484.34c-4.6 6.73-4.24 8.94 1.19 10.74.87.29 2.24 1.01 3.85 2.01-1.91-1.13-3.63-1.93-5.16-2.41-2.92-.92-5.31-1.96-5.31-2.32 0-.33 2.41-3.89 5.43-8.02M607 380.5c0 .83.44 1.5.97 1.5s.71-.67.39-1.5c-.31-.83-.75-1.5-.97-1.5-.21 0-.39.67-.39 1.5m-415.56-34.25c5.31-4.72 10.83-10.56 14.43-15.35-3.99 5.54-8.96 10.74-14.43 15.35m22.72-54.26c-.48-1.38-1.06-2.71-1.75-3.98-3.96-7.28-8.55-10.14-17.24-10.77-.71-.05-1.42-.07-2.14-.08 4.95.01 9.57.97 12.73 3.06 3.99 2.65 6.81 6.79 8.4 11.77m-80.07 21c-.51-.08-1.15-1.06-1.46-2.24a3.4 3.4 0 0 0-.25-.65c.64.98 1.22 1.95 1.71 2.89m16.29-18.93c-1.8-2.99-4.2-6.22-6.78-9.21 1.34 1.48 2.56 2.93 3.51 4.19 1.22 1.62 2.31 3.31 3.27 5.02m42.09 13.88c1.76-1.27 3.74-3.36 5.03-5.3-1.55 2.39-4.04 5.12-5.03 5.3m16.24 18.69c2.53-4.36 4.4-8.81 5.58-13.19a48.4 48.4 0 0 1-5.5 13.06c-.03.04-.05.09-.08.13m-26.99-47.97c-6.02 1.65-11.15 4.55-13.41 7.98 2.38-3.62 7.52-6.4 13.41-7.98M599 348.2l-.24-2.51.24.17ZM232.4 779.14c-2.72 2.1-6.69 5.83-10.42 9.66 3.72-3.88 7.58-7.49 10.42-9.66m-117.05-484.9c-1.78-.72-3.62-1.24-4.59-1.24 1.35 0 2.91.45 4.59 1.24m7.88 5.45c1.12.99 2.23 2.05 3.29 3.15a81 81 0 0 0-3.29-3.15"/><path fill="#e0d8be" d="M446.06 1139.91c-58.41 1.67-115.69.78-150.56-2.35-34.32-3.08-80.32-10.16-92.26-14.19-19.87-6.71-21.69-14.94-4.62-20.87 32.71-11.37 133.09-18.81 230.38-17.1 57.98 1.03 86 2.81 121 7.69 22.39 3.13 27.17 4.06 39 7.59 18.57 5.54 23.15 10.73 15.25 17.28-13.05 10.82-76.36 19.6-158.19 21.95"/><path fill="#e76b0c" d="M360.5 743.75c18.85 1.93 40.03 2.51 58.34 1.38l.5-.03c21.07-.97 41.61-3.25 51.16-6.13 1.65-.49 6.6-1.56 11-2.37 4.4-.8 9.8-2.15 12-2.99 6.14-2.34 6.5-2.17 6.48 3.14v.32c0 1.93 0 3.15-.37 4.24-.64 1.92-2.39 3.47-7.2 7.86-5.15 4.7-7.39 5.95-14.5 8.14-28.12 8.63-56.47 12.17-90.94 11.22h-.11c-4.35-.13-8.8-.32-13.36-.59-5.96-.34-16.04-1.58-25.21-2.96-6.61-1.07-13.35-2.35-19.65-3.73-.22-.07-.39-.15-.51-.21-.76-.42-1.49-2.28-1.62-4.15-.13-1.86-.57-6.88-.99-11.14-.42-4.29-.37-7.74.11-7.73.15.01.47.06.93.14 2.26.5 4.37.96 6.37 1.38 1.85.41 3.77.79 5.77 1.16 7.48 1.44 13.79 2.33 21.8 3.05m-159-1.1c-.19-.63-1.06-4.07-1.92-7.63-.93-3.86-3.04-8.62-5.22-11.79-2.2-3.2-3.3-5.69-2.76-6.23 1.75-1.75 15.94-7.18 21.4-8.19 8.66-1.61 22.09-2.12 23.32-.89.6.6 2.48 1.08 4.2 1.08 4.3 0 11.89 2.72 18.65 6.68 3.12 1.83 5.97 3.32 6.34 3.32 1.03 0 11.42 8.83 16.74 14.23 4.92 4.99 6.02 7.37 3 6.5-.96-.28-6.7-2.01-12.75-3.85-10.56-3.22-11.66-3.35-27.5-3.37-18.33-.01-20.63.47-35.07 7.4-5.11 2.46-8.2 3.46-8.43 2.74m24.56 76.21c-3.21-2.62-6.07-4.66-8.59-6.14-1.61-1-2.98-1.72-3.85-2.01-5.43-1.8-5.79-4.01-1.19-10.74.13-.18.27-.36.4-.54 2.31-3.15 5.68-7.01 9.15-10.63 3.73-3.83 7.7-7.56 10.42-9.66.44-.34.85-.64 1.24-.9 5.08-3.46 28.39-15.24 30.14-15.24.5 0 2.37-.73 4.16-1.62 4.24-2.12 19.74-6.37 20.48-5.62 2.14 2.14-.51 5.19-11.92 13.72-15.64 11.68-29.24 28.4-36.81 45.23-2.03 4.52-3.69 8.65-3.69 9.19 0 2.42-2.06 1.38-9.94-5.04m209.22-265.91c-9.24-1.28-17.1-7.46-24.25-19.06l-2.84-4.61 5.89-1.64c7.33-2.04 13.92-2.08 22.09-.13 9.64 2.3 13.04 3.57 16.42 6.14 1.71 1.29 3.42 2.35 3.8 2.35 1.03 0 5.54 5.32 5.58 6.58.05 1.85-4.26 5.21-9.97 7.75-6.82 3.03-10.07 3.54-16.72 2.62"/><path fill="#f8ab5f" d="M362 463.96c-4.12-1.12-13.12-4.83-20-8.25-9.97-4.95-12.63-6.72-13.15-8.71-2.11-8.11-.08-45.6 2.79-51.66 3.7-7.8 27.71-18.91 51.36-23.77 24.16-4.97 57.56-6.91 80.44-4.66 32.83 3.21 58.55 12.66 71.81 26.38l3.75 3.88-.03 21.16c-.04 24.28-.99 33.86-3.72 37.58-3.01 4.1-12.67 8.46-19.7 8.9-7.01.44-18.06-2.08-32.55-7.42-22.87-8.42-34.57-8.5-59.5-.4-21.43 6.95-27.03 8.13-41 8.59-10.89.36-14.22.09-20.5-1.62M165.84 340.82c.11-.88.16-2.04.16-3.52v-5.7l9.75-9.45c5.36-5.2 8.94-9.16 7.95-8.81-1.14.4-1.56.25-1.15-.42.36-.58 1.28-.82 2.04-.52.76.29 2.58-.58 4.04-1.94.51-.47 1.05-.91 1.56-1.29q.39-.18.81-.36.69-.315 1.47-.87c.99-.18 3.48-2.91 5.03-5.3.48-.72.86-1.42 1.1-2.04.84-2.18-1.31-2.07-9.96.51-14.07 4.19-23.39.76-22.35-8.22.24-2.11 1.15-4.92 2.02-6.25 2.26-3.43 7.39-6.33 13.41-7.98 3.64-.99 7.57-1.51 11.31-1.5.72.01 1.43.03 2.14.08 8.69.63 13.28 3.49 17.24 10.77.69 1.27 1.27 2.6 1.75 3.98 2.01 6.26 2.08 13.85.13 21.45-1.18 4.38-3.05 8.83-5.58 13.19a67 67 0 0 1-2.84 4.27c-3.6 4.79-9.12 10.63-14.43 15.35-7.03 5.92-14.89 10.87-22.62 14.29-5.48 2.01-9.3 1.61-12.92-.82-5.79-3.89-5.14-11.55 1.61-19.06l2.56-2.85 2.04 2.6c1 1.27 1.76 2.05 2.34 2.3.28.19.53.29.73.29.41 0 .63-.71.66-2.18m439.56 55.44c-14.48-12.07-23.4-29.15-23.4-44.83 0-4.01.52-8.57 1.15-10.11.64-1.55 1.27-3.37 1.41-4.03.48-2.32 4.58-7.29 6.01-7.29.79 0 1.43-.43 1.43-.96 0-1.6 8.18-3.29 12.83-2.65 2.39.33 6.22 1.45 8.51 2.48 5.07 2.3 13.3 9.53 15.34 13.48 1.92 3.71.98 9.07-1.94 11.12-4.73 3.31-15.9.82-24.83-5.53l-2.91-2.08-.24-.17.24 2.51v.43c0 .34.05.74.15 1.19.22 2.31-.01 3.77-.54 3.44-3.1-1.91 3.85 22.97 7.91 28.33 1.55 2.05 3.4 7.03 4.46 11.33.61 2.74.97 5.41.83 6.36-.28 1.84-.99 1.5-6.41-3.02M377 394.35c11.78-4.97 22.55-4.34 38.22 2.25 6.85 2.88 8.23 3 7.31.65-.37-.96-.76-2.17-.85-2.68-.64-3.36-9.41-11.77-15.32-14.68-7.2-3.54-19.65-3.43-27.51.26-8.31 3.89-14.96 11.06-17.3 18.61l-.69 2.27 4.82-1.97c2.65-1.08 7.74-3.2 11.32-4.71m6.17 48.9c.82-.96 2.7-4.29 4.18-7.4 3.33-6.97 4.84-8.27 9.45-8.14 3.73.11 7.31 3.24 15.76 13.83 4.14 5.18 6.45 4.37 6.42-2.26-.04-8.41-6.81-19.08-14.4-22.68-4.4-2.08-12.84-2.04-17.33.09-8.91 4.22-15.48 21.08-10.25 26.31 2.46 2.46 4.24 2.53 6.17.25m128.86.7c1.59-2.99 1.06-10.15-1.11-14.95-7.53-16.63-25.7-18.82-33.21-4-2.43 4.8-2.75 6.45-2.5 13 .26 6.64.51 7.5 2.22 7.5 1.37 0 3.27-2.34 6.5-7.98s5.36-8.25 7.28-8.93c4.6-1.61 7.54.57 10.96 8.17 4.57 10.16 7.23 12.1 9.86 7.19M150.38 294.06c1.29 2.3 2.34 4.65 3.1 6.91l-4.49 4.34c-2.66 2.58-5.06 4.69-5.32 4.69s-1.82-2.38-3.47-5.29c-1.26-2.25-3.47-5.02-6.03-7.77-4.18-4.67-9.11-8.87-13.2-10.96-2.18-1.11-3.97-2.26-3.97-2.55 0-1.56 3.29-6.52 5.22-7.87 2.95-2.07 8.67-1.97 11.78.2 2.33 1.62 6.31 5.45 9.6 9.09 2.58 2.99 4.98 6.22 6.78 9.21M523 400.55c0-5.16-9.03-15.66-16.5-19.18-12.08-5.68-27.48-.09-33.09 12.02-1.28 2.76-2.15 5.2-1.94 5.42.22.21 4.14-1.09 8.71-2.89 6.86-2.7 9.73-3.29 16.32-3.33 7.33-.06 8.6.25 15.18 3.65 3.94 2.04 7.46 4.17 7.8 4.74.96 1.54 3.52 1.23 3.52-.43m-388.91-87.56c.16.31.31.61.45.91-.03.07-.06.14-.11.21-.49.8-.88.78-1.4-.06-.51-.83-1.84-.51-4.62 1.14-5.9 3.48-11.35 3.17-15.81-.92-3.05-2.79-4.66-3.7-5.28-2.82-.23.29-.32.81-.32 1.55 0 1.33-.67 2-2 2-1.1 0-1.93-.34-1.84-.75s-.36-2.02-1-3.57c-3.18-7.72 1.66-17.68 8.6-17.68 1.35 0 2.91.45 4.59 1.24 2.49 1.18 5.23 3.12 7.88 5.45 1.11 1 2.23 2.08 3.29 3.15 2.22 2.31 4.25 4.81 5.86 7.26.12.24.2.46.25.65.31 1.18.95 2.16 1.46 2.24M155 284.01c0-1.42-3.58-5.66-10.23-12.11-3.17-3.08-5.77-6.35-5.77-7.26 0-2.42 5.88-5.63 10.31-5.64 3.26 0 4.52.72 8.64 4.95 6.15 6.31 7.66 10.19 4.94 12.65-1.08.97-2.88 3.26-4 5.08-1.99 3.22-3.89 4.35-3.89 2.33m17.1-18.57c-1.16-1.96-2.1-3.8-2.1-4.1 0-.29-2.12-2.54-4.72-5-3.8-3.59-4.43-4.63-3.25-5.38 4-2.53 13.5-2.28 16.21.42.72.72 2.25 1.81 3.42 2.44 1.16.62 3.02 2.67 4.14 4.56l2.02 3.44-2.16 1.96c-2.58 2.35-5.22 3.72-8.81 4.58-2.28.54-2.96.13-4.75-2.92M607 380.5c0-.83.18-1.5.39-1.5.22 0 .66.67.97 1.5.32.83.14 1.5-.39 1.5s-.97-.67-.97-1.5"/></svg>