<svg xmlns="http://www.w3.org/2000/svg" width="1024" height="1024" viewBox="0 0 1024 1024"><path fill="#2b2407" d="m820.982 1020.239-4.95 2.7-327.248.22c-25.125.02-48.369.03-69.873.06-254.712.21-265.525.22-270.978-5.28-.707-.71-1.319-1.51-2.362-2.405-7.984-6.971-9.918-12.023-10.68-28.033-.43-8.871-.156-15.839.782-19.658 1.504-6.211 56.97-116.534 61.991-123.343 1.607-2.16 5.442-5.455 8.547-7.297 4.951-2.953 7.133-3.417 18.005-3.832 11.747-.439 12.263-.573 10.429-2.636-1.175-1.317-4.579-2.489-8.751-3.001-14.372-1.782-34.438-10.458-47.817-20.696-9.229-7.065-17.019-15.753-24.414-27.224-25.485-39.536-19.319-87.48 19.272-150.018 18.137-29.395 48.057-68.224 63.58-82.525 15.391-14.167 38.67-27.907 58.665-34.619 6.485-2.172 9.254-3.648 8.546-4.551-12.873-16.596-20.94-27.651-26.12-35.802-25.724-40.464-41.39-82.953-49.158-133.313-1.727-11.202-2.146-21.049-2.098-48.81.06-38.499 1.834-55.119 8.834-82.977 19.96-79.353 65.846-139.914 131.031-172.91 41.872-21.196 85.553-29.53 147.37-28.09 39.342.903 68.063 5.857 96.424 16.62C703.173 58.145 763.66 146.43 773.538 261.5c3.272 38.047-1.93 88.114-12.79 123.245-12.814 41.44-33.696 80.964-60.308 114.167-4.543 5.662-7.996 10.702-7.696 11.214.312.501 1.787.916 3.273.916 4.471 0 19.395 5.649 29.68 11.226 22.224 12.056 40.864 32.031 73.768 79.072 18.161 25.955 38.587 63.051 47.038 85.418 12.659 33.484 11.028 67.15-4.531 93.813-13.714 23.49-38.466 40.854-62.213 43.648-5.921.696-7.396 1.416-10.633 5.186l-3.751 4.369 3.248 1.391c8.055 3.453 12.25 9.127 21.96 29.75 34.979 74.289 46.33 99.914 47.637 107.565 1.606 9.371 0 28.066-2.9 33.777-2.554 5.015-8.464 10.782-14.338 13.982M309.876 477.863c4.579 5.589 8.631 9.847 8.99 9.493.348-.366.108-1.366-.551-2.22-.66-.855-3.632-7.859-6.604-15.583-18.605-48.322-28.998-102.806-28.986-151.921.013-34.29 3.464-57.535 11.868-79.927 7.168-19.097 24.106-37.669 34.462-37.803 3.332-.037 2.566 2.77-5.094 18.584-3.956 8.164-7.192 15.497-7.192 16.303 0 .927 4.555-.305 12.286-3.307 33.984-13.216 76.73-22.77 122.568-27.395 27.391-2.77 87.375-1.867 117.475 1.757 46.222 5.577 79.701 13.35 106.433 24.735 6.45 2.745 11.999 4.734 12.31 4.417.864-.879-7.54-24.783-11.555-32.874-4.28-8.615-4.315-9.566-.456-9.566 3.561 0 4.7.817 13.63 9.774 18.34 18.389 30.076 60.195 30.076 107.15 0 47.517-10.992 106.736-28.674 154.509-2.72 7.346-4.783 13.813-4.603 14.386.193.574 3.657-3.514 7.696-9.078 48.285-66.419 67.547-152.154 52.995-235.863-7.288-41.952-24.07-82.526-47.6-115.131-7.84-10.872-25.51-29.615-36.154-38.364-30.207-24.808-73.613-43.344-113.278-48.371-5.933-.757-12.838-1.635-15.355-1.977-10.25-1.354-61.89-.513-76.634 1.257-35.41 4.246-66.253 14.118-92.612 29.64-5.275 3.111-9.866 5.955-10.19 6.333s-3.02 2.27-5.993 4.222c-16.243 10.665-43.513 38.169-52 52.446-1.235 2.075-2.601 4.064-3.044 4.393-3.5 2.648-22.597 40.183-28.183 55.363-12.094 32.91-19.97 84.295-18.16 118.523 1.99 37.584 7.767 67.822 18.652 97.62 5.07 13.899 17.201 39.939 21.949 47.139 1.485 2.257 5.07 7.956 7.947 12.654s8.99 13.105 13.581 18.682m78.312 355.472c.36.61 49.135 1.012 111.756.927 73.948-.098 109.298-.537 105.714-1.318-8.906-1.916-19.312-7.37-24.742-12.947-7.503-7.736-10.26-16.156-10.248-31.348.035-33.752 14.528-71.665 36.38-95.155 8.272-8.908 9.375-10.592 8.272-12.691-2.266-4.332-1.475-14.911 1.642-21.72 3.452-7.554 18.687-24.174 28.853-31.507 17.92-12.898 36.069-20.135 50.538-20.135 7 0 11.196 1.794 11.196 4.784 0 2.147-5.24 5.43-16.938 10.604-21.577 9.53-26.995 13.166-40.6 27.285-12.587 13.056-20.81 24.673-16.028 22.648 12.983-5.516 33.9-9.64 42.088-8.323 3.164.513 4.71-.109 8.367-3.38 7.479-6.687 18.052-13.069 28.313-17.095 8.007-3.149 10.993-3.734 16.746-3.307 7.42.537 9.841 2.355 7.959 5.955-.599 1.147-6.365 4.942-12.802 8.444-13.102 7.114-21.35 13.227-19.874 14.716.527.537 5.01 2.733 9.949 4.869l8.99 3.88 10.788-2.611c20.043-4.869 39.51-6.37 48.705-3.771 4.998 1.416 11.639 5.735 13.509 8.798 2.397 3.929-1.307 5.601-15.452 6.992-15.439 1.513-29.368 3.795-29.356 4.82 0 .391 3.811 3.112 8.45 6.028 10.334 6.48 21.23 19.085 28.422 32.862 8.295 15.875 9.014 19.121 9.314 41.757.276 21.696.312 21.781 6.437 16.937 5.167-4.1 14.493-13.447 14.493-14.533 0-.549.803-1.819 1.773-2.819 2.962-3.002 9.818-18.072 11.425-25.088.97-4.259 1.282-11.141.863-19.525-1.091-22.037-10.67-47.065-31.347-81.878-19.455-32.752-44.88-67.969-60.703-84.076-9.313-9.481-26.551-21.013-38.886-26.003-8.403-3.405-10.848-3.856-19.778-3.661-8.643.183-10.429.573-11.796 2.611-.875 1.318-2.624 3.612-3.895 5.089-1.259 1.476-2.362 3.16-2.434 3.721-.084.574-.228 1.611-.311 2.307-.073.695-.948 1.781-1.942 2.416-.995.634-1.355 1.171-.816 1.171.54.012.132.891-.91 1.953-1.044 1.061-1.606 2.391-1.259 2.965s-.576 1.903-2.063 2.953c-1.473 1.049-2.264 1.916-1.761 1.916.504 0-.432 1.476-2.074 3.27-1.63 1.806-2.733 3.673-2.445 4.149s-.276 1.183-1.271 1.562c-.983.39-1.786 1.488-1.786 2.44 0 .964-.887 2.087-1.965 2.514-1.091.415-1.643 1.098-1.248 1.513.408.403-.6 1.806-2.23 3.112-1.641 1.305-2.684 2.855-2.325 3.441.348.585-.468 1.659-1.821 2.404-1.355.744-2.194 1.781-1.87 2.318.323.549-2.865 4.186-7.097 8.078-4.244 3.905-7.444 7.529-7.133 8.042.312.512-1.438 2.477-3.896 4.368-2.457 1.892-7.994 7.139-12.31 11.666-4.315 4.527-8.487 8.237-9.266 8.237-.78 0-2.577 1.647-3.98 3.66-1.402 2.014-3.344 3.661-4.315 3.661-.959 0-2.062.818-2.445 1.83-.372 1.013-1.439 1.831-2.362 1.831-.911 0-1.666.549-1.666 1.22s-.827 1.22-1.834 1.22-2.146.818-2.53 1.831c-.371 1.012-1.437 1.83-2.349 1.83-.911 0-2.338 1.098-3.152 2.441-.828 1.342-2.123 2.44-2.878 2.44-.766 0-1.702.854-2.098 1.891-.395 1.038-3.284 3.039-6.424 4.442s-5.97 2.904-6.305 3.344c-1.199 1.562-19.923 9.652-24.299 10.482-2.457.476-4.471 1.244-4.471 1.732 0 .476-1.75.903-3.895.952-19.06.439-31.682-.085-32.93-1.354-.406-.415-2.168-.745-3.931-.745s-3.596-.402-4.076-.903c-.491-.488-1.521-.927-2.3-.964-.78-.036-4.652-1.586-8.607-3.453-3.957-1.867-8.14-3.465-9.29-3.563-1.152-.098-2.098-.61-2.098-1.135 0-.537-.408-.842-.9-.695-1.162.353-12.766-5.479-13.281-6.675-.228-.501-1.127-.915-2.014-.915s-2.326-.708-3.2-1.587c-2.003-1.989-19.971-15.497-20.63-15.497-.264 0-2.026-1.33-3.908-2.953a3541 3541 0 0 0-9.41-8.078c-7.564-6.48-23.507-22.087-30.592-29.933-11.459-12.727-21.516-27.187-38.334-55.167-3.452-5.736-4.914-6.334-15.631-6.358-17.37-.037-38.203 8.896-59.888 25.662-12.514 9.677-20.306 17.694-34.175 35.155-48.116 60.586-70.602 110.506-65.567 145.625.78 5.491 2.05 10.372 2.805 10.848.767.488 1.055 1.758.66 2.831-.408 1.074-.18 1.953.49 1.953.684 0 .9.549.492 1.22s-.132 1.22.6 1.22c.731 0 1.004.549.6 1.22-.41.672-.133 1.221.596 1.221.731 0 1.007.549.6 1.22-.409.671-.132 1.22.598 1.22.732 0 1.007.549.6 1.221-.407.671-.168 1.22.527 1.22s1.27.817 1.27 1.83.408 1.831.9 1.843c.492 0 3.872 3.892 7.492 8.639 6.509 8.53 13.498 14.643 21.457 18.768 3.92 2.037 4.028 2.037 3.105-.147-1.798-4.271-4.088-19.353-4.136-27.321-.06-10.934 2.493-20.354 9.47-34.729 7.468-15.424 15.212-25.198 26.12-32.946 4.722-3.356 8.606-6.419 8.643-6.797.143-1.379-32.174-9.677-37.665-9.677-.43 0-.623-1.208-.407-2.697.588-4.149 8.906-9.274 17.106-10.543 10.273-1.598 33.396 2.026 46.367 7.261 2.66 1.074 4.698.549 13.03-3.319l9.876-4.601-2.793-2.306c-5.681-4.673-13.533-8.627-26.023-13.093-11.664-4.173-12.863-4.881-13.21-7.846-.635-5.382 1.558-6.785 10.596-6.785 14.157 0 36.201 8.957 47.685 19.378l5.155 4.673 14.025.696c10.297.512 16.41 1.501 23.015 3.734 4.939 1.659 9.122 2.892 9.29 2.733.934-.927-8.535-13.215-15.8-20.512-10.32-10.348-22.954-18.963-42.241-28.811-8.033-4.087-14.984-8.09-15.477-8.895-1.51-2.489 4.089-5.943 9.626-5.943 6.988 0 22.488 4.198 31.694 8.591 13.81 6.577 21.865 12.361 32.953 23.673 17.045 17.376 20.977 24.478 21.073 38.059.048 7.2.216 7.615 4.544 10.934 9.313 7.138 18.412 16.986 23.697 25.613 26.648 43.539 30.58 90.469 9.015 107.858-6.737 5.43-17.693 10.177-24.897 10.787-3.453.293-5.981 1.013-5.622 1.599m-14.06-434.532c10.632 1.354 28.947.28 42.05-2.441 6.21-1.305 20.174-6.113 33.504-11.556 28.23-11.531 35.913-13.325 53.486-12.483 15.344.732 19.743 1.928 45.552 12.471 29.788 12.166 34.319 13.155 60.534 13.277 19.371.085 23.399-.244 31.874-2.6 19.275-5.381 35.757-13.947 47.133-24.514l4.867-4.515 1.954-17.694c1.535-13.777 1.798-23.905 1.235-45.759-1.007-39.341-.048-36.437-14.552-44.174-24.419-13.02-69.61-25.064-116.263-30.994-15.812-2.001-81.885-2.733-103.461-1.147-54.506 4.027-103.617 15.351-137.48 31.702-17.155 8.286-16.962 8.054-18.497 23.002-2.481 24.319-1.067 77.852 2.29 86.406 1.558 3.966 15.068 13.728 26.995 19.512 11.579 5.613 25.94 9.872 38.778 11.507m104.467 178.73c40.612 5.686 82.854-3.88 117.473-26.589 9.602-6.309 13.558-9.701 25.82-22.172 23.94-24.32 45.168-61.037 57.19-98.877 3.082-9.689 6.894-24.234 6.894-26.284 0-.586-3.644.597-8.092 2.623-23.074 10.555-45.263 15.729-67.355 15.729-24.058-.012-40.445-3.783-71.395-16.412-21.709-8.859-30.58-10.897-44.173-10.141-10.201.562-12.586 1.257-34.127 9.97-12.742 5.149-26.228 10.14-29.968 11.104-36.945 9.494-74.14 6.724-104.612-7.797-7.756-3.698-10.177-4.393-10.477-3.063-.527 2.379 7.505 30.287 12.611 43.795 4.448 11.763 15.452 33.752 22.704 45.357 11.183 17.888 22.236 30.542 38.803 44.392 24.536 20.525 54.828 33.618 88.704 38.365m488.067 430.822c-6.94 1.501-28.542 2.307-31.958 1.184-.66-.22-5.25-1.318-10.189-2.453-10.944-2.513-28.77-10.872-38.898-18.218-9.697-7.053-22.836-21.464-28.566-31.336-14.707-25.369-13.34-55.583 3.285-72.508 16.218-16.497 51.677-22.33 81.56-13.41 47.098 14.069 79.607 62.123 67.908 100.39-5.515 18.035-21.781 31.751-43.142 36.351M309.972 838.46c4.328.903 8.415-.391 11.89-3.759 2.722-2.635 3.298-4.234 3.298-9.152 0-12.727-11.304-38.291-26.42-59.731-4.975-7.053-8.343-13.057-8.343-14.875 0-3.319 3.92-6.833 7.636-6.833 2.085 0 13.678 9.786 15.151 12.788.325.683 3.165 5.198 6.306 10.018 8.546 13.179 13.833 24.491 20.57 44.076 6.845 19.914 8.87 22.526 17.465 22.526 14.78 0 18.257-16.925 9.158-44.601-4.962-15.119-8.786-23.172-20.27-42.769-7.396-12.606-8.319-14.839-7.348-17.694.887-2.587 2.001-3.331 5.382-3.624 3.728-.318 4.867.317 8.979 4.954 6.197 7.004 10.093 11.788 10.093 12.386 0 .256 2.265 4.234 5.022 8.834 2.77 4.6 7.096 13.191 9.614 19.109 4.483 10.507 10.513 31.471 10.56 36.669.037 6.004 1.667 6.357 10.057 2.148 6.282-3.149 8.524-5.065 11.052-9.457 2.95-5.125 3.118-6.175 2.386-15.119-1.738-21.221-9.853-44.064-21.876-61.55-9.962-14.496-28.445-28.346-45.995-34.484-9.445-3.295-26.539-3.71-38.154-.928-22.86 5.492-52.505 26.541-62.982 44.735-11.315 19.658-14.755 47.687-7.551 61.403.707 1.342 1.402 3.112 1.534 3.929.132.806 2.194 4.735 4.567 8.725 7.528 12.617 23.795 25.784 31.85 25.784 3.177 0 7.204-3.185 7.204-5.711 0-2.379-7.204-16.62-16.23-32.117-4.256-7.297-7.744-14.399-7.744-15.79 0-2.904 3.98-7.395 6.557-7.395 7.108 0 25.113 27.126 34.967 52.679 3.452 8.956 7.36 13.947 11.615 14.826m375.173-.342c3.871 1.672 10.368.415 13.545-2.611 1.535-1.465 4.483-6.846 6.57-11.947 5.118-12.556 14.983-32.471 19.394-39.182 8.823-13.398 15.38-16.876 19.563-10.384 2.446 3.807 1.619 7.516-3.656 16.485-2.17 3.698-7.06 12.911-10.86 20.476-6.041 12.02-6.75 14.155-5.586 16.754 2.061 4.588 6.173 4.93 13.545 1.135 12.802-6.602 25.065-23.112 28.53-38.401 3.248-14.363-.048-34.521-8.427-51.471-6.15-12.458-16.962-24.209-30.256-32.885-36.86-24.076-63.328-26.736-91.042-9.152-22.86 14.509-38.19 41.818-44.556 79.365-3.644 21.476-1.918 26.601 11.244 33.398 11.34 5.857 11.484 5.784 13.161-6.443 2.062-15.033 6.533-29.896 13.295-44.173 12.718-26.919 24.093-38.621 29.44-30.311 2.026 3.136 1.93 3.429-8.236 24.82-10.692 22.502-15.127 35.619-17.573 52.068-2.9 19.512 1.679 28.823 14.133 28.713 7.852-.073 10.848-4.21 15.787-21.794 7.804-27.797 17.514-46.906 31.443-61.903 6.904-7.419 11.4-8.603 14.671-3.856 2.986 4.332 2.302 6.711-5.117 17.876-3.848 5.797-8.943 14.094-11.317 18.463-4.423 8.127-11.963 26.845-10.812 26.845.348 0-.036.83-.863 1.843-.827 1.025-1.774 5.674-2.11 10.348-.647 9.298 1.055 13.74 6.09 15.924M157.33 998.837l2.374 3.966h650.19l3.896-2.721c7.348-5.125 8.451-11.922 2.541-15.607-3.86-2.404-6.46-2.416-330.352-2.111l-326.455.305-2.29 2.88c-2.936 3.697-2.9 8.285.096 13.288m359.216-449.235c-5.73 1.561-22.608 2.05-29.56.866-19.263-3.283-42.519-19.28-54.866-37.755-13.425-20.061-20.737-47.028-15.954-58.804 2.613-6.394 6.953-6.967 24.25-3.221 31.202 6.748 38.754 7.883 53.163 7.944 16.398.073 26.407-1.184 45.394-5.723 7.337-1.745 16.843-3.978 21.134-4.955 21.181-4.832 29.608 3.478 24.741 24.393-2.277 9.775-10.56 28.359-17.117 38.414-12.61 19.341-31.154 33.41-51.185 38.841m-30.243 98.791c11.975 3.148 25.616 3.783 35.385 1.66 14.145-3.088 21.542-7.456 42.28-24.918 3.98-3.356 11.506-9.445 16.733-13.532 15.715-12.301 44.915-45.016 50.886-57.011l1.93-3.892-4.017 3.66c-2.218 2.014-4.303 4.003-4.639 4.43-1.03 1.269-20.114 14.375-26.67 18.316-15.476 9.274-36.19 17.328-59.661 23.173-10.645 2.648-62.453 2.22-75.519-.635-17.98-3.917-26.815-6.492-33.564-9.738-3.62-1.757-7.276-3.184-8.115-3.197-2.061-.012-12.274-5.649-22.451-12.397-16.027-10.617-18.676-12.105-20.007-11.263-.791.488-1.007.293-.54-.488.444-.72.264-1.66-.407-2.087-2.145-1.355-1.306 2.868 1.019 5.125 1.235 1.196 5.119 5.747 8.63 10.116 3.513 4.368 7.493 8.932 8.847 10.14 1.355 1.22 6.773 6.468 12.048 11.666 10.296 10.14 38.561 33.105 40.756 33.105.419 0 3.02 1.574 5.777 3.502 8.859 6.175 20.15 11.324 31.299 14.265m455.593 341.366c10.381 1.366 24.178-.659 31.802-4.662 5.826-3.075 14.253-11.494 17.023-17.022 4.758-9.469 2.72-31.104-4.005-42.721-4.903-8.444-22.99-10.385-45.419-4.869-18.232 4.478-32.557 11.91-43.417 22.538-4.795 4.686-8.93 8.53-9.194 8.53-.912 0-13.917-8.908-16.615-11.373-3.571-3.283-3.428-1.025.432 6.833 4.675 9.506 8.188 13.728 18.065 21.721 14.66 11.861 30.243 18.243 51.328 21.025m-587.608-24.54c2.302 1.501 219.928 1.208 220.827-.292.432-.696.156-5.04-.612-9.653-.587-3.563-.227-6.15-1.186-8.029-2.553-4.966-14.42-4.991-77.964-5.113-9.434-.012-20.006-.036-31.85-.073-65.57-.207-106.829.11-107.524.818-1.918 1.952-3.38 21.256-1.69 22.342m68.34-590.065c-3.825 1.635-10.634 1.965-15.357.769-13.617-3.478-24.046-25.479-21.049-44.405 2.913-18.401 15.055-31.629 28.985-31.568 5.095.025 20.462 8.664 20.366 11.458-.012.379 1.439 3.856 3.225 7.724 2.769 6.016 3.236 8.64 3.236 18.024 0 7.968-.66 12.8-2.397 17.596-2.793 7.675-11.412 18.023-17.01 20.402m175.813-1c-13.928 6.491-26.827.451-34.33-16.083-3.093-6.797-3.405-8.737-3.405-20.915.013-12.179.3-13.997 3.213-19.598 10.848-20.951 33.072-22.977 45.503-4.149 12.814 19.427 6.845 52.41-10.98 60.745m208.925 129.151c-14.002 8.957-26.696 16.278-28.207 16.278-4.698 0-8.078-3.319-8.078-7.944 0-.329-.013-.634-.025-.915-.023-.476-.036-.891.012-1.293.395-2.978 4.639-5.43 40.169-27.92 56.22-35.594 79.835-49.786 82.867-49.786 6.353 0 9.806 8.2 5.538 13.142-1.15 1.33-16.662 11.361-34.463 22.282-17.8 10.934-43.813 27.199-57.813 36.156m-320.153 26.614c15.727 3.478 31.514 1.232 43.718-6.211 7.815-4.784 14.791-11.129 14.791-13.46 0-2.611-21.397-12.471-29.967-13.825-21.696-3.417-40.157-.11-56.735 10.14l-5.778 3.588 5.023 5.21c5.801 6.016 17.957 12.13 28.948 14.558M738.26 930.503c1.702 2.721 1.93 2.746 31.046 2.746 23.279 0 29.345-.33 29.345-1.587 0-.878-.468-2.111-1.032-2.745-.563-.635-5.237-10.494-10.38-21.904-5.131-11.409-9.866-21.427-10.5-22.269-.828-1.086-5.779-1.526-17.19-1.526h-1.2c-9.373 0-13.568 0-14.623 1.855-.863 1.489.312 4.198 2.445 9.079.108.256.216.512.336.781 5.25 12.068 3.632 16.327-6.21 16.376-7.72.024-8.402 1.122-5.91 9.347 1.188 3.905 2.925 8.334 3.873 9.847M236.754 512.494c-5.453 4.771-6.94 4.173-26.958-10.934-8.763-6.614-30.483-22.367-48.282-35.009-40.7-28.92-42.536-30.421-42.507-34.606.01-3.929.947-5.516 4.287-7.297.684-.379 1.25-.708 1.846-.903 3.33-1.074 8.068 2.343 45.925 29.713 1.38 1 2.793 2.025 4.255 3.075 37.4 27.028 61.231 45.088 62.37 47.248 1.762 3.356 1.403 6.675-.936 8.713m217.459-231.531c-1.067 2.807-3.812 2.282-16.374-3.124-20.726-8.932-41.08-12.178-60.907-9.725-6.149.768-13.965 2.465-17.382 3.795-11.495 4.441-13.797 2.77-9.756-7.09 7.167-17.474 36.236-25.54 64.07-17.767 6.94 1.928 21.9 8.859 22.572 10.458.228.512.875.939 1.45.939.564 0 3.68 2.477 6.917 5.516 6.186 5.796 10.609 13.801 9.41 16.998m111.528-3.466c-7.12 2.953-13.114 5.357-13.33 5.357-.227 0-1.054-.805-1.857-1.781-2.602-3.197.695-9.787 8.534-17.011 14.445-13.3 32.893-20.256 53.739-20.256 13.509 0 21.324 2.026 29.56 7.639 7.719 5.259 14.12 17.218 11.447 21.367-.778 1.208-2.84.805-9.302-1.806-7.923-3.21-9.254-3.368-28.684-3.38-23.28-.013-28.866 1.098-50.107 9.871m107.045 597.314c4.315 1.208 96.197 1.245 98.067.037 2.049-1.331-2.913-12.96-7.289-17.047-4.639-4.344-10.333-5.064-34.439-4.32-17.094.525-23.135 1.147-26.37 2.697-5.792 2.794-21.279 2.696-25.57-.171-3.932-2.624-11.411-2.758-12.359-.22-.384 1.013.576 5.516 2.134 10.018 2.242 6.48 3.453 8.347 5.826 9.006M183.628 555.422c-1.378 1.782-3.644 3.173-5.094 3.136-1.439-.036-13.4-3.319-26.585-7.285-13.186-3.978-36.653-10.872-52.153-15.326-15.49-4.454-30.277-8.725-32.855-9.481-2.637-.781-5.762-2.88-7.169-4.808-2.285-3.136-2.334-3.661-.664-6.712 3.487-6.345 4.307-6.186 73.66 13.899 21.757 6.309 41.545 12.032 43.991 12.727 4.328 1.221 9.35 6.126 9.35 9.128 0 .83-1.115 2.953-2.481 4.722m690.11-5.247c-28.9 7.334-53.834 13.337-55.429 13.337-6.377 0-10.236-9.493-5.574-13.727 1.775-1.611 106.686-28.981 111.073-28.981 2.313 0 6.701 5.356 6.701 8.175 0 6.602-1.475 7.151-56.771 21.196m-727.999 79.048c-3.177 1.696-101.388 1.855-105.49.171-5.548-2.27-6.622-8.396-2.237-12.862l2.94-2.989h52.613c49.453 0 52.738.134 54.607 2.233 2.027 2.294 2.625 8.31 1.055 10.701-.479.745-2.05 1.977-3.488 2.746m30.817 300.67c-.036 2.001 3.008 2.136 47.276 2.136h47.325l1.943-3.832c1.078-2.111 2.037-6.37 2.133-9.457l.18-5.625h-91.101l-3.86 7.321c-2.123 4.027-3.884 8.286-3.896 9.457m705.405 2.319c4.447 2.782 5.85 2.818 7.947.219 4.064-5.064 16.267-12.678 27.907-17.449 6.988-2.856 12.694-5.626 12.694-6.175 0-2.05-15.056-15.814-20.762-18.975-5.67-3.136-6.365-3.246-13.102-1.964-12.897 2.44-23.063 8.92-27.318 17.425-3.825 7.614-3.153 11.324 3.344 18.426 3.128 3.429 7.312 7.248 9.29 8.493m75.123-303.599c-1.966 1.806-7.3 2.001-52.444 1.94-27.641-.049-51.424-.561-52.863-1.159-5.394-2.209-6.772-9.347-2.613-13.582l2.566-2.611 51.676.891c44.568.769 53.594.83 55.417 4.551.467.94.455 2.124.455 3.612v.44c0 2.22-.948 4.759-2.194 5.918M70.076 705.721c-24.592 7.016-45.415 12.763-46.284 12.763-2.9 0-7.901-4.99-7.901-7.882 0-6.089 2.656-7.224 46.147-19.598 23.079-6.577 44.009-12.202 46.509-12.507 7.589-.915 12.09 6.272 7.725 12.349-1.035 1.415-16.124 6.272-46.196 14.875m389.303 67.089c-.275.134-.515.269-.743.391-1.69.89-2.457 1.293-3.14 1.208-.66-.098-1.259-.635-2.541-1.611-1.57-1.22-2.794-4.82-3.968-11.763-3.465-20.44-11.352-40.867-22.692-58.756-5.694-9.005-6.425-12.824-3.045-15.948 3.644-3.356 9.23-2.526 14.289 2.123 5.49 5.052 18.076 29.079 23.22 44.307 6.544 19.427 5.969 36.169-1.38 40.049m526.714-53.191c-1.738 1.391-3.5 2.477-3.896 2.429-2.314-.306-87.997-26.517-90.527-27.688-6.796-3.148-4.387-13.703 3.13-13.703 2.085 0 16.505 3.807 32.04 8.468 53.007 15.912 60.992 18.292 62.19 22.624.216.768.216 1.598.216 2.574v.037c0 1.501-1.427 3.868-3.153 5.259M160.375 966.257c1.403 2.306 56.014.829 59.634-1.611 1.977-1.342 3.104-4.259 4.627-12.007 1.103-5.626 1.75-10.641 1.45-11.153-.311-.501-12.814-.916-27.797-.916h-27.247l-5.788 12.081c-3.428 7.138-5.418 12.703-4.879 13.606m588.84-1.526c1.607 1.208 8.98 1.489 32.258 1.221 16.59-.208 30.567-.781 31.06-1.282.49-.5-1.487-5.71-4.4-11.592l-5.286-10.677-30.868-.33c-25.172-.256-30.866-.024-30.866 1.318 0 3.636 6.16 19.866 8.103 21.342M546.49 767.953c-3.296 2.343-6.126 2.258-8.62-.292-4.29-4.357.277-26.163 9.663-46.175 10.872-23.16 28.6-41.195 33.84-34.423 3.536 4.576 2.816 7.919-3.837 17.816-7.875 11.714-15.667 27.211-21.565 42.891-2.396 6.37-4.95 13.13-5.67 14.997s-2.433 4.21-3.811 5.186M190.34 902.791c.42.708 14.505 1.172 35.255 1.172h34.535l2.649-6.26c1.45-3.441 2.937-8.115 3.296-10.372l.66-4.113h-32.426c-17.824 0-33.3.342-34.379.769-2.337.915-10.608 17.133-9.59 18.804M78.514 768.93c-14.786 7.919-25.647 13.008-27.776 13.008-3.262 0-8.477-4.576-8.477-7.432 0-3.294 3.35-7.187 8.204-9.567 3.066-1.5 14.6-7.626 25.608-13.605 20.734-11.263 25.383-12.654 28.938-8.652 2.588 2.916 2.53 9.115-.117 11.409-1.152 1.001-13.029 7.676-26.38 14.839m159.631 195.594c.503 1.318 4.783 1.672 20.45 1.672 23.375 0 23.543-.074 25.664-12.459 1.943-11.409 1.882-11.739-2.66-12.605-6.473-1.233-36.477-.122-37.976 1.415-1.786 1.818-6.28 19.854-5.478 21.977m716.782-181.452c-1.739 1.391-4.04 2.49-5.095 2.453-1.067-.049-13.797-6.504-28.29-14.35-28.768-15.571-30.77-17.376-26.575-23.905 3.908-6.077 5.945-5.552 32.749 8.505 13.725 7.212 26.18 14.216 27.666 15.571 3.716 3.416 3.525 8.542-.455 11.726M298.248 965.073c1.104 1.818 41.26 1.44 41.92-.403.934-2.623 2.805-22.233 2.181-22.879-1.115-1.135-38.155-1.306-39.81-.183-1.737 1.183-5.465 21.537-4.29 23.465m349.137 1.513c1.115.305 8.799.61 17.082.683 11.195.11 15.643-.292 17.345-1.561 2.265-1.684 2.265-1.855 0-11.141-1.27-5.186-3.057-10.177-3.956-11.105-1.235-1.244-5.681-1.671-17.644-1.671-8.8 0-16.866.341-17.921.744-1.546.61-1.787 1.965-1.211 7.016.959 8.554 3.86 16.376 6.305 17.035m-55.548-2.526c.791 1.904 2.913 2.136 19.347 2.136h18.448l-.12-5.186c-.06-2.856-.73-8.201-1.498-11.898l-1.378-6.711-18.113-.342c-13.546-.244-18.424.061-19.359 1.22-1.235 1.538.599 15.766 2.673 20.781m-385.326-91.494c-.023 2.001 1.546 2.147 21.253 1.83l21.278-.329 3.248-9.714c1.787-5.344 2.949-10.006 2.59-10.372-.36-.366-8.38-.659-17.837-.659-15.536 0-17.526.244-20.583 2.538-3.668 2.758-9.901 13.228-9.949 16.706m431.836 59.158c.839 1.098 6.162 1.525 18.999 1.525h2.625c9.506.012 13.738.024 14.96-1.928.983-1.574.037-4.393-1.665-9.494-.193-.561-.384-1.147-.588-1.769l-2.505-7.553H651.57c-17.225 0-18.532.158-17.777 2.135.443 1.171 1.39 5.149 2.098 8.847.707 3.697 1.821 7.395 2.457 8.237m60.535 33.166c1.138.671 8.403 1.245 16.134 1.269 13.906.037 14.074 0 14.793-2.929.766-3.075-2.385-16.021-4.544-18.694-.875-1.086-5.91-1.525-17.357-1.525h-16.135l.78 3.966c1.894 9.664 4.399 16.778 6.329 17.913m-111.72-33.264c3.02 2.257 36.5 2.343 36.429.098-.072-2.758-3.153-16.364-4.028-17.804-.587-.964-6.377-1.415-18.328-1.415h-17.478l.612 8.749c.468 6.552 1.175 9.164 2.793 10.372m102.406-.208c1.187 1.465 4.722 1.831 17.453 1.831 8.786 0 16.266-.488 16.626-1.074.791-1.318-5.334-18.731-7-19.902-1.822-1.269-26.6-1.111-29.968.195l-2.961 1.135 1.954 7.077c1.067 3.893 2.517 7.48 3.212 7.968.708.501.816.916.24.916-.575.012-.371.842.444 1.854m-201.084 1.038c.827.354 8.787.537 17.681.415l16.183-.232.372-6.102c.215-3.355.06-7.882-.348-10.067l-.731-3.965h-34.655v9.664c0 6.577.48 9.86 1.498 10.287m-48.547-.11c4.89 1.147 29.212.915 31.453-.317 2.086-1.123 2.41-2.539 2.41-10.421v-9.103h-34.427l-.756 6.406c-1.234 10.409-.982 12.886 1.32 13.435m-152.453-1.403c.396.658 8.404 1 18.88.817l18.185-.342 1.378-4.27c.755-2.356 1.57-6.48 1.798-9.152l.432-4.881-17.466-.342c-15.487-.293-17.68-.085-19.347 1.83-2.086 2.416-4.95 14.546-3.86 16.34m-9.517-27.847c1.234.318 8.786.647 16.782.72 10.345.11 14.875-.293 15.703-1.379 1.474-1.915 3.919-11.958 3.919-16.095v-3.124h-32.497l-2.42 5.565c-3.694 8.493-4.22 13.593-1.487 14.313m329.202-.134c1.894 1.233 34.463 1.306 34.403.086-.036-.501-1.031-5.04-2.218-10.068l-2.158-9.151-33.936-.672v2.917c0 5.467 2.422 15.924 3.909 16.888m-119.884-28.066c2.566.366 31.239-.207 31.67-.634.12-.122-.096-4.735-.467-10.275l-.684-10.055h-33.216v10.287c0 9.738.144 10.311 2.697 10.677m170.242 27.541c.839 1.086 5.921 1.526 17.8 1.526h3.045c8.307.024 12.035.036 13.09-1.672.875-1.391-.025-3.905-1.63-8.469a300 300 0 0 1-.72-2.062l-2.744-7.931-17.13-.342c-15.991-.317-17.058-.195-16.28 1.83.457 1.196 1.403 5.186 2.111 8.884.708 3.697 1.822 7.394 2.458 8.236m-98.403-.036c.923 1.122 5.61 1.562 16.746 1.562h1.079c9.313 0 13.414 0 14.816-1.977 1.103-1.55.527-4.332-.48-9.286l-.143-.72-1.666-8.151-17.082-.342c-9.398-.183-17.082.085-17.07.61.036 3.88 2.77 17.035 3.8 18.304m-21.36 29.933c.754.5 8.654.781 17.548.61l16.182-.305-.36-7.834c-.263-5.516-.31-8.591-1.833-10.263-1.917-2.086-6.125-2.001-15.942-1.793-.456.012-.923.012-1.403.024l-16.422.342.431 9.152c.24 5.027 1.055 9.566 1.798 10.067m-2.183-57.425c1.955.475 7.54.61 12.419.305 4.88-.293 10.74-.537 13.018-.537h.647c1.2.012 2.014.024 2.494-.391 1.007-.866.431-3.648-1.391-12.361-.144-.695-.299-1.428-.455-2.196l-1.211-5.797h-30.963l.12 7.017c.18 10.299 1.187 12.971 5.322 13.96m-192.908 57.425c5.046.732 29.668-.464 30.795-1.489.516-.488 1.27-4.808 1.666-9.616l.719-8.724h-16.207c-12.346 0-16.542.402-17.585 1.683-.766.94-1.714 5.284-2.11 9.677l-.73 7.968zm49.314.061c1.811.293 9.23.463 16.484.39l13.185-.146.803-9.128c.432-5.015.54-9.554.228-10.067s-7.564-.939-16.111-.939h-15.547l-1.163 3.136c-.647 1.72-1.175 6.076-1.175 9.676 0 6.199.18 6.577 3.296 7.078m-65.16-30.189c.527 1.403 3.787 1.757 16.205 1.757 8.547 0 15.823-.44 16.147-.989.335-.537.983-5.21 1.439-10.372l.839-9.384h-15.008c-10.548 0-15.367.452-16.219 1.526-1.654 2.074-4.23 15.277-3.404 17.462m256.296-27.2c2.169.281 8.69.586 14.48.696 12.61.232 12.802 0 10.357-12.508l-1.702-8.651-14.889-.342c-8.187-.195-15.343.122-15.906.695-1.055 1.074.659 12.069 2.625 16.95.719 1.793 2.373 2.831 5.035 3.16m-227.096-.085c6.341.402 22.919-.147 25.04-.842.755-.244 1.739-3.917 2.194-8.164.443-4.234 1.08-8.688 1.415-9.884.563-2.013-.54-2.147-15.368-1.83l-15.966.342-1.391 6.101c-.768 3.356-1.439 7.858-1.498 10.006-.12 3.795.012 3.905 5.574 4.271m155.737 28.127c.287.5 7.54.915 16.086.915 12.287 0 15.691-.366 16.194-1.721.36-.952.216-5.479-.336-10.067l-.982-8.346H510.36l.43 9.151c.23 5.028.673 9.567.973 10.068m-118.242-29.286c-.024.5 7.193.915 16.015.915h2.661c8.368.024 12.035.024 13.63-1.818 1.258-1.453 1.246-4.027 1.223-8.615v-10.312l-14.086.025c-7.744 0-14.804.476-15.68 1.037-1.234.805-3.463 11.946-3.763 18.768m47.709-1.013c.348 1.745 2.337 1.952 16.182 1.659l15.788-.341v-19.524l-15.788-.342-15.775-.342-.407 8.444c-.216 4.65-.216 9.347 0 10.446m24.777 11.08-.695 20.134h32.557l-.695-20.134zm160.232-8.847c3.056.537 27.666-.379 28.446-1.062.263-.244-.6-4.124-1.919-8.639l-2.409-8.225-7.66-1.488c-4.22-.818-11.388-1.514-15.919-1.562l-8.247-.074.828 6.309c1.174 9.079 3.548 14.143 6.88 14.741m-362.586.073c.743 1.208 28.565.61 29.8-.635.683-.707 5.274-17.608 5.31-19.609.012-.525-6.57-.805-14.624-.61l-14.66.342-3.249 9.688c-1.798 5.333-2.948 10.202-2.577 10.824m109.97 27.309c.503 1.318 3.836 1.599 15.942 1.33l15.308-.341.983-8.31c1.378-11.715 1.235-11.825-16.111-11.825-7.84 0-14.24.415-14.252.916 0 .5-.564 4.429-1.247 8.737-.695 4.295-.971 8.566-.624 9.493m46.653-.256c.576 1.525 3.38 1.855 15.655 1.855 8.224 0 15.212-.427 15.536-.952.312-.537.707-5.064.863-10.067l.3-9.115h-30.975l-1.03 8.212c-.576 4.515-.732 9.042-.349 10.067M307.838 867.66l-1.642 7.017h30.76l.646-3.356c.36-1.843.995-6.516 1.427-10.372l.79-7.017h-4.806c-2.637 0-7.145 1.086-10.02 2.417-2.878 1.33-7.517 2.428-10.322 2.44s-5.119.439-5.142.94c-.025.5-.78 4.075-1.691 7.931m400.094 34.485c1.835 1.305 5.826 1.818 14.265 1.818h1.043c6.161 0 9.217.012 10.165-1.428.923-1.415-.228-4.234-2.494-9.823a37 37 0 0 1-.395-.952l-3.212-7.931-12.875-.342c-12.814-.354-12.874-.342-12.874 2.526 0 4.869 3.692 14.228 6.377 16.132m227.528-5.711 9.877 9.542 12.31-.085 12.3-.098-3.657-3.844c-6.928-7.285-25.508-15.021-36.153-15.058l-4.567-.012zM211.426 761.108c.072 1.733.839-.427 1.69-4.796 1.774-9.03 5.154-18.328 10.213-28.066 3.249-6.247 3.285-6.455.528-3.05-6.642 8.212-12.875 26.199-12.431 35.912"/><path fill="#2d4728" d="M309.876 477.863c-4.591-5.577-10.704-13.984-13.581-18.682s-6.462-10.397-7.947-12.654c-4.748-7.2-16.879-33.24-21.949-47.139-10.885-29.798-16.662-60.036-18.652-97.62-1.81-34.228 6.066-85.613 18.16-118.523 5.586-15.18 24.682-52.715 28.183-55.363.443-.329 1.81-2.318 3.044-4.393 8.487-14.277 35.757-41.781 52-52.446 2.972-1.952 5.67-3.844 5.993-4.222s4.915-3.222 10.19-6.333c26.359-15.522 57.202-25.394 92.612-29.64 14.745-1.77 66.385-2.611 76.634-1.257 2.517.342 9.422 1.22 15.355 1.977 39.665 5.027 83.071 23.563 113.278 48.371 10.645 8.749 28.314 27.492 36.153 38.364 23.531 32.605 40.313 73.179 47.601 115.131 14.552 83.709-4.71 169.444-52.995 235.863-4.04 5.564-7.503 9.652-7.696 9.078-.18-.573 1.882-7.04 4.603-14.386 17.682-47.773 28.674-106.992 28.674-154.509 0-46.955-11.735-88.761-30.076-107.15-8.93-8.957-10.069-9.774-13.63-9.774-3.86 0-3.823.951.456 9.566 4.016 8.091 12.419 31.995 11.555 32.874-.311.317-5.86-1.672-12.31-4.417-26.732-11.385-60.21-19.158-106.433-24.735-30.1-3.624-90.084-4.527-117.475-1.757-45.838 4.625-88.584 14.179-122.568 27.395-7.731 3.002-12.286 4.234-12.286 3.307 0-.806 3.236-8.139 7.192-16.303 7.66-15.814 8.426-18.621 5.094-18.584-10.356.134-27.294 18.706-34.462 37.803-8.404 22.392-11.855 45.637-11.868 79.927-.012 49.115 10.381 103.599 28.986 151.921 2.972 7.724 5.944 14.728 6.604 15.583.659.854.9 1.854.552 2.22-.36.354-4.412-3.904-8.99-9.493m168.719 99.67c-33.876-4.747-64.168-17.84-88.704-38.365-16.567-13.85-27.62-26.504-38.803-44.392-7.252-11.605-18.256-33.594-22.704-45.357-5.106-13.508-13.138-41.416-12.61-43.795.3-1.33 2.72-.635 10.476 3.063 30.472 14.521 67.667 17.291 104.612 7.797 3.74-.964 17.226-5.955 29.968-11.104 21.54-8.713 23.926-9.408 34.127-9.97 13.593-.756 22.464 1.282 44.173 10.141 30.95 12.629 47.337 16.4 71.395 16.412 22.092 0 44.28-5.174 67.355-15.729 4.448-2.026 8.092-3.209 8.092-2.623 0 2.05-3.812 16.595-6.893 26.284-12.023 37.84-33.252 74.557-57.19 98.877-12.263 12.471-16.22 15.863-25.82 22.172-34.62 22.709-76.862 32.275-117.474 26.589m37.951-27.931c20.03-5.431 38.575-19.5 51.185-38.841 6.557-10.055 14.84-28.639 17.117-38.414 4.867-20.915-3.56-29.225-24.74-24.393-4.292.977-13.798 3.21-21.135 4.955-18.987 4.539-28.996 5.796-45.394 5.723-14.409-.061-21.961-1.196-53.164-7.944-17.296-3.746-21.636-3.173-24.25 3.221-4.782 11.776 2.53 38.743 15.955 58.804 12.347 18.475 35.603 34.472 54.866 37.755 6.952 1.184 23.83.695 29.56-.866m-30.243 98.791c-11.149-2.941-22.44-8.09-31.3-14.265-2.756-1.928-5.357-3.502-5.776-3.502-2.195 0-30.46-22.965-40.756-33.105-5.275-5.198-10.693-10.446-12.048-11.666-1.354-1.208-5.334-5.772-8.846-10.14s-7.396-8.92-8.631-10.116c-2.325-2.257-3.164-6.48-1.019-5.125.671.427.851 1.367.408 2.087-.468.781-.252.976.539.488 1.33-.842 3.98.646 20.007 11.263 10.177 6.748 20.39 12.385 22.451 12.397.84.013 4.496 1.44 8.115 3.197 6.75 3.246 15.584 5.821 33.564 9.738 13.066 2.855 64.874 3.283 75.519.635 23.471-5.845 44.185-13.899 59.66-23.173 6.557-3.941 25.64-17.047 26.671-18.316.336-.427 2.421-2.416 4.64-4.43l4.015-3.66-1.93 3.892c-5.97 11.995-35.17 44.71-50.885 57.011-5.227 4.087-12.754 10.176-16.734 13.532-20.737 17.462-28.134 21.83-42.279 24.918-9.77 2.123-23.41 1.488-35.385-1.66M698.93 535.142c-1.761-.562-3.284-.867-4.47-.879-1.595-.024-2.565.293-2.17.695.732.757-11.376 17.34-27.942 38.28-10.704 13.52-35.71 39.609-46.103 48.114-3.955 3.234-10.44 8.969-14.42 12.764-3.98 3.783-10.117 9.36-13.641 12.374s-7.024 6.052-7.756 6.723c-.743.683-3.776 3.148-6.737 5.491-7.767 6.102-7.467 5.857-11.388 9.201-10.356 8.798-36.656 16.364-56.938 16.376-13.305 0-20.81-1.391-39.51-7.346-9.83-3.124-29.416-11.995-33.013-14.96-.659-.537-2.972-2.063-5.153-3.368-2.17-1.318-3.68-2.844-3.345-3.393.324-.549-.132-1-1.03-1-.9 0-6.079-3.246-11.52-7.212-25.186-18.401-55.645-50.872-78.444-83.648-1.978-2.843-7.504-10.519-12.287-17.047-4.782-6.529-8.691-12.166-8.691-12.532 0-.354 3.368-.842 7.492-1.086l7.049-.403c3.464.659 4.855 2.233 7.036 5.87 16.818 27.98 26.875 42.44 38.334 55.167 7.085 7.846 23.028 23.453 30.592 29.933a3541 3541 0 0 1 9.41 8.078c1.882 1.623 3.644 2.953 3.907 2.953.66 0 18.628 13.508 20.63 15.497.875.879 2.314 1.587 3.2 1.587.888 0 1.787.414 2.015.915.515 1.196 12.12 7.028 13.281 6.675.492-.147.9.158.9.695 0 .525.946 1.037 2.098 1.135 1.15.098 5.333 1.696 9.29 3.563 3.955 1.867 7.827 3.417 8.606 3.453.78.037 1.81.476 2.301.964.48.501 2.314.903 4.076.903 1.763 0 3.525.33 3.932.745 1.247 1.269 13.87 1.793 32.93 1.354 2.144-.049 3.894-.476 3.894-.952 0-.488 2.014-1.256 4.471-1.732 4.376-.83 23.1-8.92 24.299-10.482.336-.44 3.164-1.941 6.305-3.344s6.029-3.404 6.424-4.442c.396-1.037 1.332-1.891 2.098-1.891.755 0 2.05-1.098 2.878-2.44.814-1.343 2.241-2.441 3.152-2.441.912 0 1.978-.818 2.35-1.83.383-1.013 1.522-1.831 2.529-1.831s1.834-.549 1.834-1.22.755-1.22 1.666-1.22c.923 0 1.99-.818 2.362-1.831.383-1.012 1.486-1.83 2.445-1.83.971 0 2.913-1.647 4.315-3.661 1.403-2.013 3.2-3.66 3.98-3.66s4.95-3.71 9.266-8.237 9.853-9.774 12.31-11.666c2.458-1.891 4.208-3.856 3.896-4.368-.311-.513 2.89-4.137 7.133-8.042 4.232-3.892 7.42-7.529 7.096-8.078-.323-.537.516-1.574 1.87-2.318 1.354-.745 2.17-1.819 1.822-2.404-.36-.586.684-2.136 2.326-3.441 1.63-1.306 2.637-2.709 2.23-3.112-.396-.415.156-1.098 1.247-1.513 1.078-.427 1.965-1.55 1.965-2.514 0-.952.803-2.05 1.786-2.44.995-.379 1.559-1.086 1.27-1.562-.287-.476.816-2.343 2.446-4.149 1.642-1.794 2.578-3.27 2.074-3.27-.503 0 .288-.867 1.761-1.916 1.487-1.05 2.41-2.38 2.063-2.953-.347-.574.215-1.904 1.258-2.965 1.043-1.062 1.45-1.941.911-1.953-.539 0-.18-.537.816-1.171.994-.635 1.87-1.721 1.942-2.416.083-.696.227-1.733.311-2.307.072-.561 1.175-2.245 2.434-3.721 1.27-1.477 3.02-3.771 3.895-5.089 1.367-2.038 3.153-2.428 11.796-2.611 7.683-.171 10.56.146 16.553 2.392m-88.84 299.38c-2.11-.5-60.387-.321-110.145-.26-50.753.061-112.882-.11-113.302-.098 1.932-3.675 26.542-10.59 33.984-14.949 5.833-3.416 2.708-2.659 4.518-5.404-1.031 1.659 4.771-1.05 24.094-2.514 11.196-.854 27.918-1.623 37.148-1.721 19.539-.207 85.888 1.672 87.206 2.465 1.247.757 1.163.22-.994-5.845-.684-1.916-1.175-4.783-1.487-8.2 1.03 9.628 4.004 16.022 9.805 22.001 4.4 4.515 28.639 13.489 29.172 14.525m-407.893-38.918c.096.061.192.122.276.171a47 47 0 0 1-2.098-1.061c-7.96-4.125-14.948-10.238-21.457-18.768-3.62-4.747-7-8.639-7.492-8.639-.492-.012-.9-.83-.9-1.843s-.574-1.83-1.27-1.83c-.695 0-.934-.549-.527-1.22.407-.672.132-1.221-.6-1.221-.73 0-1.007-.549-.598-1.22.407-.671.131-1.22-.6-1.22-.729 0-1.005-.549-.597-1.221.405-.671.132-1.22-.6-1.22-.731 0-1.007-.549-.6-1.22.409-.671.193-1.22-.49-1.22-.671 0-.899-.879-.492-1.953.396-1.073.108-2.343-.659-2.831-.348-.219-.816-1.415-1.295-3.172.731 1.427 1.75 1.928 3.345 2.257 1.747.366 5.595 2.904 8.544 5.638 2.961 2.745 8.33 6.052 11.987 7.382 3.644 1.318 8.116 3.21 9.925 4.198 3.285 1.781 3.298 1.769 3.298-2.172 0-2.697.598-6.175 1.641-10.079-1.139 4.783-1.618 9.298-1.594 14.106.048 7.236 1.93 20.354 3.632 25.893-.144-.317-.324-.658-.515-1.025-1.81-3.453-1.81-3.453-1.643-.414.084 1.684.707 3.428 1.38 3.904m594.909-41.976a67 67 0 0 1 1.018 5.552c.455 3.258 1.175 5.454 1.583 4.881.407-.586 2.9-1.818 5.537-2.758s9.77-4.173 15.86-7.175c7.084-3.514 10.32-5.125 11.627-9.066a33 33 0 0 1-.503 2.831c-1.607 7.016-8.463 22.086-11.425 25.088-.97 1-1.773 2.27-1.773 2.819 0 1.086-9.326 10.433-14.493 14.533-6.125 4.844-6.16 4.759-6.437-16.937-.12-8.969-.3-14.887-.994-19.768M187.128 648.857a306 306 0 0 0-10.057 18.987c-5.179 10.702-9.122 20.329-11.925 29.176 4.469-14.667 11.817-30.775 21.982-48.163m245.328 140.329c1.319-21.623-6.485-49.494-22.764-76.095 16.435 26.845 24.263 54.326 22.764 76.095M328.672 532.237l-7.755-.219c-7.145-.196-14.84 1.147-22.956 3.978 7.888-2.782 15.403-4.21 22.356-4.198 3.764.012 6.39.085 8.355.439m-120.53 201.671c3.656-7.846 8.066-15.46 12.394-20.915 1.115-1.403 2.625-3.038 4.316-4.734-6.03 6.308-11.088 14.045-16.039 24.258-.228.476-.456.94-.672 1.391m580.643-2.269c-7.192-13.777-18.088-26.382-28.421-32.862 11.495 7.212 22.308 20.427 29.5 34.924-.348-.659-.707-1.355-1.079-2.062m-217.901 49.92c.25-5.222.803-10.433 1.63-14.875.312-1.647.648-3.27.994-4.893-1.353 6.614-2.241 13.24-2.624 19.768m13.473-53.154c6.017-13.386 13.665-25.21 22.68-34.899-8.967 9.628-16.686 21.696-22.68 34.899m244.441-24.283c-4.795-16.303-13.642-35.046-27.055-57.632 13.522 22.757 22.296 41.329 27.055 57.632M714.513 542.597c9.793 5.674 20.055 13.228 26.516 19.805-6.57-6.675-16.962-14.204-26.516-19.805M203.778 795.299c.288.769.264 1.05-.347.879.347 0 .455-.293.347-.879m-43.295-58.56a68 68 0 0 1-.432-5.503c.036.635.072 1.269.132 1.891.097 1.318.204 2.514.3 3.612"/><path fill="#546a32" d="M698.93 535.142c.983.366 2.038.793 3.224 1.269 3.776 1.525 8.02 3.673 12.36 6.186 9.553 5.601 19.934 13.13 26.503 19.793l.023.024c15.823 16.107 41.248 51.324 60.703 84.076 13.522 22.757 22.296 41.329 27.055 57.632 2.517 8.627 3.92 16.62 4.292 24.246.335 6.724.203 12.484-.36 16.694-1.306 3.941-4.543 5.552-11.628 9.066-6.09 3.002-13.222 6.235-15.859 7.175s-5.13 2.172-5.537 2.758c-.408.573-1.128-1.623-1.583-4.881a67 67 0 0 0-1.018-5.552c-.984-6.87-2.986-11.642-7.241-19.927-7.192-14.497-18.005-27.712-29.5-34.924-4.64-2.916-8.451-5.637-8.451-6.028-.012-1.025 13.917-3.307 29.356-4.82 14.145-1.391 17.849-3.063 15.452-6.992-1.87-3.063-8.51-7.382-13.51-8.798-9.194-2.599-28.66-1.098-48.704 3.771l-10.788 2.611-8.99-3.88c-4.939-2.136-9.422-4.332-9.95-4.869-1.474-1.489 6.773-7.602 19.875-14.716 6.437-3.502 12.203-7.297 12.802-8.444 1.882-3.6-.54-5.418-7.959-5.955-5.753-.427-8.74.158-16.746 3.307-10.26 4.026-20.834 10.408-28.313 17.095-3.657 3.271-5.203 3.893-8.367 3.38-8.188-1.317-29.105 2.807-42.088 8.323-4.782 2.025 3.441-9.592 16.027-22.648 13.606-14.119 19.024-17.755 40.601-27.285 11.699-5.174 16.938-8.457 16.938-10.604 0-2.99-4.196-4.784-11.196-4.784-14.47 0-32.618 7.237-50.538 20.135-10.166 7.333-25.4 23.953-28.853 31.507-3.117 6.809-3.908 17.388-1.642 21.72 1.103 2.099 0 3.783-8.271 12.691l-.013.012c-8.966 9.628-16.685 21.696-22.679 34.899-4.819 10.616-8.522 21.965-10.849 33.386v.012a211 211 0 0 0-.994 4.881c-.827 4.442-1.38 9.653-1.63 14.875a117 117 0 0 0-.216 7.09c0 3.441.132 6.54.443 9.347v.012c.312 3.405.803 6.272 1.487 8.188 2.157 6.065 2.241 6.602.994 5.845-1.318-.793-67.667-2.672-87.206-2.465-9.23.098-25.952.867-37.148 1.721-19.323 1.464-29.305 9.089-28.274 7.43 4.315-6.504 10.905-19.852 11.492-29.541 1.499-21.769-6.33-49.25-22.764-76.095-5.285-8.627-14.384-18.475-23.697-25.613-4.328-3.319-4.496-3.734-4.544-10.934-.096-13.581-4.028-20.683-21.073-38.059-11.088-11.312-19.144-17.096-32.953-23.673-9.206-4.393-24.706-8.591-31.694-8.591-5.537 0-11.136 3.454-9.626 5.943.493.805 7.444 4.808 15.477 8.895 19.287 9.848 31.92 18.463 42.241 28.811 7.265 7.297 16.734 19.585 15.8 20.512-.168.159-4.351-1.074-9.29-2.733-6.605-2.233-12.718-3.222-23.015-3.734l-14.025-.696-5.155-4.673c-11.484-10.421-33.528-19.378-47.685-19.378-9.038 0-11.231 1.403-10.597 6.785.348 2.965 1.547 3.673 13.21 7.846 12.491 4.466 20.343 8.42 26.024 13.093l2.793 2.306-9.877 4.601c-8.33 3.868-10.369 4.393-13.03 3.319-12.97-5.235-36.093-8.859-46.366-7.261-8.2 1.269-16.518 6.394-17.106 10.543-.216 1.489-.023 2.697.407 2.697 5.491 0 37.808 8.298 37.665 9.677-.037.378-3.92 3.441-8.643 6.797-3.68 2.623-7.012 5.466-10.081 8.688-1.69 1.696-3.2 3.331-4.316 4.734-4.328 5.455-8.738 13.069-12.395 20.915-3.524 7.42-5.837 13.509-7.204 19.232-1.043 3.904-1.641 7.382-1.641 10.079 0 3.941-.013 3.953-3.298 2.172-1.81-.988-6.28-2.88-9.925-4.198-3.656-1.33-9.026-4.637-11.987-7.382-2.949-2.734-6.797-5.272-8.544-5.638-1.595-.329-2.614-.83-3.345-2.257-.54-2.014-1.103-4.759-1.51-7.676-.072-.5-.144-1-.204-1.501-.096-1.098-.203-2.294-.3-3.612a49 49 0 0 1-.132-1.891c-.407-10.311 1.307-21.745 5.095-34.216 2.803-8.847 6.746-18.474 11.925-29.176a306 306 0 0 1 10.057-18.987c10.213-17.499 23.279-36.29 39.126-56.242 13.869-17.461 21.66-25.478 34.175-35.155 13.006-10.055 25.7-17.291 37.532-21.464 8.115-2.831 15.811-4.174 22.956-3.978l7.755.219c.084.013.168.025.24.049l-7.05.403c-4.123.244-7.491.732-7.491 1.086 0 .366 3.909 6.003 8.691 12.532 4.783 6.528 10.309 14.204 12.287 17.047 22.799 32.776 53.258 65.247 78.443 83.648 5.442 3.966 10.62 7.212 11.52 7.212.899 0 1.355.451 1.03 1-.334.549 1.175 2.075 3.346 3.393 2.18 1.305 4.494 2.831 5.153 3.368 3.597 2.965 23.184 11.836 33.014 14.96 18.699 5.955 26.204 7.346 39.509 7.346 20.282-.012 46.582-7.578 56.938-16.376 3.92-3.344 3.62-3.099 11.388-9.201 2.961-2.343 5.994-4.808 6.737-5.491.732-.671 4.232-3.709 7.756-6.723s9.661-8.591 13.64-12.374c3.98-3.795 10.466-9.53 14.421-12.764 10.393-8.505 35.399-34.594 46.103-48.114 16.566-20.94 28.674-37.523 27.942-38.28-.395-.402.575-.719 2.17-.695 1.186.012 2.709.317 4.47.879M459.38 772.81c7.348-3.88 7.923-20.622 1.378-40.049-5.143-15.228-17.73-39.255-23.219-44.307-5.06-4.649-10.645-5.479-14.289-2.123-3.38 3.124-2.65 6.943 3.045 15.948 11.34 17.889 19.227 38.316 22.692 58.756 1.174 6.943 2.397 10.543 3.968 11.763 1.282.976 1.882 1.513 2.541 1.611.683.085 1.45-.318 3.14-1.208.228-.122.468-.257.743-.391m87.11-4.857c1.378-.976 3.092-3.319 3.812-5.186s3.273-8.627 5.67-14.997c5.897-15.68 13.69-31.177 21.564-42.891 6.653-9.897 7.373-13.24 3.836-17.816-5.238-6.772-22.967 11.263-33.84 34.423-9.385 20.012-13.953 41.818-9.661 46.175 2.493 2.55 5.323 2.635 8.619.292m-335.064-6.845c-.444-9.713 5.79-27.7 12.43-35.912 2.758-3.405 2.722-3.197-.527 3.05-5.059 9.738-8.44 19.036-10.213 28.066-.851 4.369-1.618 6.529-1.69 4.796m-9.23 34.496c-.672-.476-1.295-2.22-1.379-3.904-.168-3.039-.168-3.039 1.643.414.191.367.371.708.515 1.025.168.562.347 1.038.504 1.428.12.281.227.525.3.732.107.586 0 .879-.348.879a8 8 0 0 1-.96-.403 9 9 0 0 1-.275-.171"/><path fill="#faa14b" d="M374.127 398.803c-12.838-1.635-27.199-5.894-38.778-11.507-11.927-5.784-25.437-15.546-26.995-19.512-3.357-8.554-4.771-62.087-2.29-86.406 1.535-14.948 1.342-14.716 18.496-23.002 33.864-16.351 82.975-27.675 137.48-31.702 21.577-1.586 87.65-.854 103.462 1.147 46.653 5.93 91.844 17.974 116.263 30.994 14.504 7.737 13.545 4.833 14.552 44.174.563 21.854.3 31.982-1.235 45.759l-1.954 17.694-4.867 4.515c-11.376 10.567-27.858 19.133-47.133 24.514-8.475 2.356-12.503 2.685-31.874 2.6-26.215-.122-30.746-1.111-60.534-13.277-25.809-10.543-30.208-11.739-45.552-12.471-17.573-.842-25.257.952-53.486 12.483-13.33 5.443-27.295 10.251-33.505 11.556-13.102 2.721-31.417 3.795-42.05 2.441M309.972 838.46c-4.255-.879-8.163-5.87-11.615-14.826-9.854-25.553-27.859-52.679-34.967-52.679-2.577 0-6.557 4.491-6.557 7.395 0 1.391 3.488 8.493 7.744 15.79 9.026 15.497 16.23 29.738 16.23 32.117 0 2.526-4.027 5.711-7.204 5.711-8.055 0-24.322-13.167-31.85-25.784-2.373-3.99-4.435-7.919-4.567-8.725-.132-.817-.827-2.587-1.534-3.929-7.204-13.716-3.764-41.745 7.551-61.403 10.477-18.194 40.122-39.243 62.982-44.735 11.615-2.782 28.709-2.367 38.154.928 17.55 6.138 36.033 19.988 45.995 34.484 12.023 17.486 20.138 40.329 21.876 61.55.732 8.944.564 9.994-2.386 15.119-2.528 4.392-4.77 6.308-11.052 9.457-8.39 4.209-10.02 3.856-10.056-2.148-.048-5.198-6.078-26.162-10.561-36.669-2.518-5.918-6.845-14.509-9.614-19.109-2.757-4.6-5.022-8.578-5.022-8.834 0-.598-3.896-5.382-10.093-12.386-4.112-4.637-5.25-5.272-8.979-4.954-3.38.293-4.495 1.037-5.382 3.624-.97 2.855-.048 5.088 7.347 17.694 11.485 19.597 15.309 27.65 20.271 42.769 9.099 27.676 5.622 44.601-9.158 44.601-8.595 0-10.62-2.612-17.465-22.526-6.737-19.585-12.024-30.897-20.57-44.076-3.141-4.82-5.981-9.335-6.306-10.018-1.473-3.002-13.066-12.788-15.15-12.788-3.717 0-7.637 3.514-7.637 6.833 0 1.818 3.368 7.822 8.343 14.875 15.116 21.44 26.42 47.004 26.42 59.731 0 4.918-.576 6.517-3.297 9.152-3.476 3.368-7.563 4.662-11.89 3.759m375.173-.342c-5.035-2.184-6.737-6.626-6.09-15.924.336-4.674 1.283-9.323 2.11-10.348.827-1.013 1.211-1.843.863-1.843-1.151 0 6.389-18.718 10.812-26.845 2.374-4.369 7.469-12.666 11.317-18.463 7.42-11.165 8.103-13.544 5.117-17.876-3.272-4.747-7.767-3.563-14.671 3.856-13.93 14.997-23.64 34.106-31.443 61.903-4.939 17.584-7.935 21.721-15.787 21.794-12.454.11-17.034-9.201-14.133-28.713 2.446-16.449 6.88-29.566 17.573-52.068 10.165-21.391 10.262-21.684 8.235-24.82-5.346-8.31-16.721 3.392-29.44 30.311-6.76 14.277-11.232 29.14-13.294 44.173-1.677 12.227-1.821 12.3-13.161 6.443-13.162-6.797-14.888-11.922-11.244-33.398 6.365-37.547 21.696-64.856 44.556-79.365 27.714-17.584 54.181-14.924 91.042 9.152 13.294 8.676 24.106 20.427 30.256 32.885 8.379 16.95 11.675 37.108 8.426 51.471-3.464 15.289-15.727 31.799-28.529 38.401-7.372 3.795-11.484 3.453-13.545-1.135-1.164-2.599-.455-4.734 5.585-16.754 3.8-7.565 8.692-16.778 10.86-20.476 5.276-8.969 6.103-12.678 3.657-16.485-4.184-6.492-10.74-3.014-19.563 10.384-4.41 6.711-14.276 26.626-19.395 39.182-2.086 5.101-5.034 10.482-6.569 11.947-3.177 3.026-9.674 4.283-13.545 2.611M422.627 375.154c5.598-2.379 14.217-12.727 17.01-20.402 1.737-4.796 2.397-9.628 2.397-17.596 0-9.384-.467-12.008-3.236-18.024-1.786-3.868-3.237-7.345-3.225-7.724.096-2.794-15.271-11.433-20.366-11.458-13.93-.061-26.072 13.167-28.985 31.568-2.997 18.926 7.432 40.927 21.05 44.405 4.722 1.196 11.53.866 15.355-.769m175.814-1c17.826-8.335 23.795-41.318 10.981-60.745-12.43-18.828-34.655-16.802-45.503 4.149-2.913 5.601-3.2 7.419-3.213 19.598 0 12.178.312 14.118 3.405 20.915 7.503 16.534 20.402 22.574 34.33 16.083M487.213 529.919c-10.991-2.428-23.147-8.542-28.948-14.558l-5.023-5.21 5.778-3.588c16.578-10.25 35.039-13.557 56.735-10.14 8.57 1.354 29.967 11.214 29.967 13.825 0 2.331-6.976 8.676-14.791 13.46-12.204 7.443-27.99 9.689-43.718 6.211m-33-248.956c1.199-3.197-3.224-11.202-9.41-16.998-3.236-3.039-6.353-5.516-6.916-5.516-.576 0-1.223-.427-1.45-.939-.673-1.599-15.632-8.53-22.572-10.458-27.835-7.773-56.904.293-64.071 17.767-4.04 9.86-1.739 11.531 9.756 7.09 3.417-1.33 11.233-3.027 17.382-3.795 19.826-2.453 40.181.793 60.907 9.725 12.562 5.406 15.307 5.931 16.374 3.124m111.528-3.466c21.241-8.773 26.827-9.884 50.107-9.871 19.43.012 20.76.17 28.684 3.38 6.462 2.611 8.524 3.014 9.302 1.806 2.673-4.149-3.728-16.108-11.448-21.367-8.235-5.613-16.05-7.639-29.56-7.639-20.845 0-39.293 6.956-53.738 20.256-7.839 7.224-11.136 13.814-8.534 17.011.803.976 1.63 1.781 1.857 1.781.216 0 6.21-2.404 13.33-5.357"/><path d="M4.914 511.884v-512H1028.91V1023.88H4.914zm777.63 403.29c4.9-2.62 9.83-7.35 11.96-11.46 2.42-4.68 3.76-20 2.42-27.68-1.09-6.27-10.56-27.27-39.74-88.15-8.1-16.9-11.6-21.55-18.32-24.38l-2.71-1.14 3.13-3.58c2.7-3.09 3.93-3.68 8.87-4.25 19.81-2.29 40.46-16.52 51.9-35.77 12.98-21.85 14.34-49.44 3.78-76.88-7.05-18.33-24.09-48.73-39.24-70-27.45-38.55-43-54.92-61.54-64.8-8.58-4.57-21.03-9.2-24.76-9.2-1.24 0-2.47-.34-2.73-.75-.25-.42 2.63-4.55 6.42-9.19 22.2-27.21 39.62-59.6 50.31-93.56 9.06-28.79 13.4-69.82 10.67-101-8.24-94.3-58.7-166.65-136.42-195.6-23.66-8.82-47.62-12.88-80.44-13.62-51.57-1.18-88.01 5.65-122.94 23.02-54.38 27.04-92.66 76.67-109.31 141.7-5.84 22.83-7.32 36.45-7.37 68-.04 22.75.31 30.82 1.75 40 6.48 41.27 19.55 76.09 41.01 109.25 4.32 6.68 11.05 15.74 21.79 29.34.59.74-1.72 1.95-7.13 3.73-16.68 5.5-36.1 16.76-48.94 28.37-12.95 11.72-37.91 43.54-53.04 67.63-32.2 51.25-37.34 90.54-16.08 122.94 6.17 9.4 12.67 16.52 20.37 22.31 11.16 8.39 27.9 15.5 39.89 16.96 3.48.42 6.32 1.38 7.3 2.46 1.53 1.69 1.1 1.8-8.7 2.16-9.07.34-10.89.72-15.02 3.14-2.59 1.51-5.79 4.21-7.13 5.98-4.19 5.58-50.46 95.99-51.72 101.08-.78 3.13-1.01 8.84-.65 16.11.64 13.12 2.25 17.26 8.91 22.97 8.14 6.96-14.87 6.46 286.32 6.25l273-.18zm121.53-9.74c17.82-3.77 31.39-15.01 35.99-29.79 9.76-31.36-17.36-70.74-56.65-82.27-24.93-7.31-54.51-2.53-68.04 10.99-13.87 13.87-15.01 38.63-2.74 59.42 4.78 8.09 15.74 19.9 23.83 25.68 8.45 6.02 23.32 12.87 32.45 14.93 4.12.93 7.95 1.83 8.5 2.01 2.85.92 20.87.26 26.66-.97m-9.79-184.62c3.32-2.61 3.48-6.81.38-9.61-1.24-1.11-11.63-6.85-23.08-12.76-22.36-11.52-24.06-11.95-27.32-6.97-3.5 5.35-1.83 6.83 22.17 19.59 12.09 6.43 22.71 11.72 23.6 11.76.88.03 2.8-.87 4.25-2.01m-731.13-11.59c11.14-5.87 21.05-11.34 22.01-12.16 2.21-1.88 2.26-6.96.1-9.35-2.97-3.28-6.85-2.14-24.14 7.09-9.19 4.9-18.81 9.92-21.37 11.15-4.05 1.95-6.84 5.14-6.84 7.84 0 2.34 4.35 6.09 7.07 6.09 1.78 0 10.84-4.17 23.17-10.66m757.13-40.41c1.44-1.14 2.63-3.08 2.63-4.31 0-5.34.1-5.31-52.06-20.68-12.96-3.82-24.99-6.94-26.73-6.94-6.27 0-8.28 8.65-2.61 11.23 2.11.96 73.59 22.44 75.52 22.69.33.04 1.8-.85 3.25-1.99m-764.17-11.39c25.09-7.05 37.68-11.03 38.54-12.19 3.64-4.98-.11-10.87-6.44-10.12-2.09.25-19.55 4.86-38.8 10.25-36.28 10.14-38.5 11.07-38.5 16.06 0 2.37 4.17 6.46 6.59 6.46.73 0 18.1-4.71 38.61-10.46m63.12-62.69c1.2-.63 2.51-1.64 2.91-2.25 1.31-1.96.81-6.89-.88-8.77-1.56-1.72-4.3-1.83-45.55-1.83h-43.89l-2.46 2.45c-3.65 3.66-2.76 8.68 1.87 10.54 3.42 1.38 85.35 1.25 88-.14m676.85-.5c1.04-.95 1.83-3.03 1.83-4.85 0-6.39.92-6.25-46.61-7.05l-43.11-.73-2.14 2.14c-3.47 3.47-2.32 9.32 2.18 11.13 1.2.49 21.04.91 44.1.95 37.66.05 42.11-.11 43.75-1.59m-69.53-64.28c46.13-11.51 47.36-11.96 47.36-17.37 0-2.31-3.66-6.7-5.59-6.7-3.66 0-91.18 22.43-92.66 23.75-3.89 3.47-.67 11.25 4.65 11.25 1.33 0 22.13-4.92 46.24-10.93m-575.71 4.3c1.14-1.45 2.07-3.19 2.07-3.87 0-2.46-4.19-6.48-7.8-7.48-2.04-.57-18.55-5.26-36.7-10.43-57.85-16.46-58.54-16.59-61.45-11.39-1.39 2.5-1.35 2.93.56 5.5 1.17 1.58 3.78 3.3 5.98 3.94 2.15.62 14.48 4.12 27.41 7.77s32.5 9.3 43.5 12.56c11 3.25 20.98 5.94 22.18 5.97 1.21.03 3.1-1.11 4.25-2.57m520.34-42.71c11.68-7.34 33.38-20.67 48.23-29.63 14.85-8.95 27.79-17.17 28.75-18.26 3.56-4.05.68-10.77-4.62-10.77-2.53 0-22.23 11.63-69.13 40.8-36.04 22.41-33.5 20.54-33.5 24.69 0 3.79 2.82 6.51 6.74 6.51 1.26 0 11.85-6 23.53-13.34m-476.02 7.53c1.95-1.67 2.25-4.39.78-7.14-.95-1.77-20.83-16.57-52.03-38.72-40.87-29.02-39.49-28.19-43.4-26.13-2.79 1.46-3.57 2.76-3.58 5.98-.02 3.43 1.51 4.66 35.46 28.36 14.85 10.36 32.97 23.27 40.28 28.69 16.7 12.38 17.94 12.87 22.49 8.96" style="fill-opacity:0;fill:none" transform="matrix(.97666 0 0 1 230.474 15.939)"/><path d="M126.782 949.428c-1.73-1.09-.233-20.463 1.731-22.422.712-.71 42.957-1.028 110.093-.82 12.127.037 22.952.061 32.611.073 65.062.122 77.213.147 79.827 5.131.982 1.886.614 4.482 1.215 8.058.786 4.629 1.068 8.989.626 9.687-.92 1.506-223.746 1.8-226.103.293m561.256-3.405c-6.333-4.861-13.425-10.613-13.621-11.47-.197-1.53 6.716-7.597 7.882-8.908.785-.734 13.931-10.113 19.7-13.42 20.447-11.303 46.253-13.875 63.178-9.049 4.321 1.334 14.456 2.376 17.597 38.861 1.119 12.992-46.169 16.05-54.344 14.445-4.05-.796-33.494-5.156-40.392-10.459m-168.11-31.435c-.97-1.518-2.749-5.963-3.965-9.882-2.552-8.254-1.853-9.356 6.051-9.38 10.077-.049 11.734-4.324 6.358-16.435-.123-.27-.233-.527-.344-.784-2.184-4.898-3.387-7.617-2.503-9.111 1.08-1.862 5.375-1.862 14.973-1.862h1.228c11.684 0 16.753.442 17.6 1.532.65.845 5.498 10.899 10.751 22.348 5.266 11.451 10.052 21.345 10.629 21.983.577.636 1.056 1.873 1.056 2.754 0 1.262-6.211 1.593-30.046 1.593-29.812 0-30.045-.025-31.788-2.756m-67.038-55.891c-2.43-.661-3.67-2.535-5.965-9.038-1.596-4.518-2.578-9.037-2.185-10.054.97-2.547 8.628-2.412 12.654.221 4.394 2.878 20.251 2.976 26.18.172 3.313-1.556 9.499-2.18 27.001-2.707 24.682-.746 30.512-.024 35.262 4.336 4.48 4.101 9.561 15.772 7.463 17.108-1.915 1.212-95.992 1.175-100.41-.038m-508.091 55.279c.02-1.175 1.82-5.449 3.99-9.491l3.96-7.347h93.273l-.184 5.645c-.098 3.098-1.08 7.372-2.184 9.491l-1.989 3.846H-6.791c-45.33 0-48.44-.136-48.41-2.144m722.264 2.327c-2.025-1.249-6.309-5.082-9.512-8.523-6.652-7.127-7.34-10.851-3.424-18.492 4.357-8.535 14.765-15.038 27.971-17.487 6.898-1.287 7.609-1.176 13.415 1.971 5.842 3.172 21.258 16.985 21.258 19.043 0 .551-5.843 3.331-12.998 6.197-11.918 4.788-24.412 12.429-28.573 17.511-2.148 2.608-3.584 2.572-8.137-.22M-71.761 950.47c-.55-.906 1.48-6.491 4.99-13.655l5.93-12.124h27.9c15.34 0 28.14.417 28.46.919.3.514-.36 5.547-1.49 11.193-1.56 7.776-2.71 10.703-4.74 12.05-3.7 2.449-59.62 3.931-61.05 1.617m602.907-1.532c-1.989-1.481-8.297-17.769-8.297-21.418 0-1.347 5.83-1.579 31.604-1.322l31.605.331 5.412 10.715c2.983 5.903 5.008 11.131 4.505 11.633-.504.503-14.815 1.078-31.801 1.287-23.835.269-31.384-.013-33.028-1.226m-572.227-62.161c-1.04-1.677 7.42-17.953 9.82-18.871 1.1-.428 16.95-.772 35.2-.772h33.197l-.675 4.128c-.368 2.265-1.89 6.956-3.375 10.409l-2.712 6.282H-4.991c-21.24 0-35.66-.465-36.09-1.176m48.95 61.954c-.83-2.131 3.78-20.231 5.6-22.056 1.54-1.542 32.259-2.657 38.887-1.42 4.651.869 4.713 1.2 2.724 12.65-2.172 12.429-2.344 12.504-26.277 12.504-16.044 0-20.424-.356-20.934-1.678m61.534.551c-1.202-1.935 2.615-22.362 4.394-23.549 1.694-1.127 39.619-.955 40.761.184.638.648-1.277 20.328-2.234 22.96-.675 1.85-41.791 2.229-42.921.405m357.479 1.518c-2.504-.661-5.474-8.511-6.456-17.096-.589-5.069-.343-6.429 1.24-7.041 1.08-.404 9.34-.746 18.349-.746 12.249 0 16.802.428 18.066 1.677.921.931 2.75 5.94 4.051 11.144 2.319 9.319 2.319 9.491 0 11.181-1.743 1.273-6.297 1.677-17.76 1.567-8.481-.074-16.348-.38-17.49-.686m-56.875-2.535c-2.124-5.033-4.002-19.312-2.737-20.855.957-1.163 5.952-1.469 19.821-1.224l18.546.343 1.411 6.735c.786 3.71 1.473 9.074 1.534 11.94l.123 5.205h-18.889c-16.827 0-18.999-.233-19.809-2.144m-394.538-91.821c.05-3.49 6.44-13.997 10.19-16.765 3.13-2.302 5.17-2.547 21.08-2.547 9.68 0 17.89.294 18.26.661s-.82 5.046-2.65 10.409l-3.33 9.749-21.78.33c-20.18.318-21.79.172-21.77-1.837m442.159 59.37c-.651-.845-1.792-4.557-2.516-8.267-.724-3.711-1.694-7.703-2.148-8.878-.773-1.984.565-2.143 18.202-2.143h19.048l2.565 7.58c.209.624.405 1.212.602 1.775 1.743 5.119 2.712 7.949 1.706 9.528-1.252 1.959-5.585 1.947-15.318 1.935h-2.688c-13.144 0-18.594-.428-19.453-1.53m61.981 33.284c-1.976-1.139-4.541-8.278-6.48-17.977l-.798-3.98h16.52c11.721 0 16.876.44 17.772 1.53 2.21 2.683 5.437 15.675 4.652 18.761-.736 2.94-.908 2.977-15.146 2.94-7.916-.025-15.354-.601-16.52-1.274M365.22 915.715c-1.657-1.212-2.381-3.833-2.86-10.409l-.626-8.78h17.895c12.237 0 18.165.453 18.766 1.42.896 1.445 4.051 15.1 4.124 17.868.074 2.253-34.206 2.166-37.299-.099m104.853-.208c-.835-1.016-1.044-1.849-.454-1.861.589 0 .478-.417-.246-.919-.712-.49-2.197-4.09-3.289-7.997l-2.001-7.102 3.032-1.139c3.449-1.311 28.818-1.469 30.684-.196 1.706 1.175 7.977 18.651 7.167 19.973-.368.588-8.027 1.078-17.023 1.078-13.035 0-16.655-.367-17.87-1.837m-205.889 1.041c-1.043-.428-1.534-3.723-1.534-10.323v-9.699h35.483l.749 3.979c.417 2.193.576 6.736.356 10.103l-.381 6.124-16.569.233c-9.107.122-17.257-.062-18.104-.417m-49.707-.11c-2.357-.551-2.615-3.037-1.351-13.483l.774-6.429h35.249v9.135c0 7.911-.331 9.332-2.467 10.459-2.295 1.236-27.198 1.469-32.205.318M58.382 915.03c-1.117-1.801 1.816-13.974 3.952-16.399 1.706-1.921 3.952-2.13 19.809-1.836l17.883.343-.442 4.899c-.233 2.681-1.068 6.82-1.841 9.184l-1.411 4.286-18.619.343c-10.727.183-18.926-.16-19.331-.82m-9.745-27.947c-2.799-.722-2.259-5.84 1.522-14.364l2.479-5.585h33.273v3.136c0 4.151-2.503 14.23-4.013 16.152-.847 1.09-5.486 1.494-16.078 1.384-8.187-.073-15.919-.403-17.183-.723m337.068-.134c-1.522-.968-4.002-11.462-4.002-16.948v-2.928l34.747.675 2.209 9.183c1.215 5.046 2.234 9.601 2.271 10.104.061 1.225-33.286 1.151-35.225-.086m-122.748-28.166c-2.614-.368-2.762-.943-2.762-10.715v-10.324h34.01l.7 10.091c.38 5.56.601 10.189.479 10.311-.442.429-29.8 1.004-32.427.637m174.309 27.639c-.651-.845-1.792-4.555-2.516-8.265-.725-3.712-1.694-7.716-2.161-8.916-.797-2.032.295-2.155 16.668-1.837l17.539.344 2.81 7.959c.258.735.504 1.421.737 2.069 1.644 4.581 2.565 7.104 1.669 8.5-1.08 1.714-4.897 1.702-13.403 1.677h-3.117c-12.163 0-17.367-.441-18.226-1.531m-100.754-.036c-1.055-1.274-3.854-14.476-3.89-18.369-.013-.527 7.855-.796 17.477-.613l17.49.344 1.706 8.18.147.722c1.031 4.972 1.62 7.764.491 9.319-1.436 1.984-5.634 1.984-15.17 1.984h-1.105c-11.402 0-16.201-.441-17.146-1.567m-21.871 30.04c-.761-.503-1.596-5.058-1.841-10.103l-.442-9.185 16.815-.343c.491-.012.969-.012 1.436-.024 10.052-.209 14.36-.294 16.323 1.799 1.559 1.678 1.608 4.764 1.878 10.3l.368 7.862-16.569.306c-9.107.172-17.195-.11-17.968-.612m-2.234-57.63c-4.234-.993-5.265-3.674-5.449-14.01l-.123-7.042h31.702l1.24 5.818c.16.77.319 1.506.466 2.203 1.866 8.745 2.455 11.536 1.424 12.406-.491.416-1.325.404-2.553.392h-.663c-2.332 0-8.333.245-13.329.539-4.995.306-10.714.17-12.715-.306m-197.518 57.63-3.535-.503.749-7.996c.405-4.409 1.375-8.769 2.16-9.712 1.068-1.286 5.364-1.689 18.005-1.689h16.594l-.736 8.755c-.405 4.825-1.178 9.161-1.706 9.65-1.154 1.029-26.364 2.229-31.531 1.495m50.493.061c-3.191-.503-3.375-.882-3.375-7.103 0-3.613.54-7.985 1.203-9.711l1.191-3.147h15.918c8.751 0 16.177.429 16.496.942.319.515.209 5.07-.233 10.103l-.823 9.161-13.5.146c-7.426.074-15.023-.097-16.877-.391M98.664 886.19c-.847-2.193 1.791-15.443 3.485-17.524.872-1.078 5.806-1.532 16.606-1.532h15.367l-.859 9.418c-.467 5.18-1.13 9.87-1.473 10.409-.332.551-7.782.992-16.533.992-12.715 0-16.053-.355-16.593-1.763m262.42-27.297c-2.725-.33-4.419-1.372-5.155-3.171-2.013-4.899-3.768-15.933-2.688-17.011.577-.575 7.904-.893 16.287-.697l15.244.343 1.743 8.682c2.503 12.553 2.307 12.785-10.605 12.553-5.928-.111-12.605-.417-14.826-.699m-232.522-.085c-5.695-.367-5.83-.478-5.707-4.286.061-2.156.748-6.674 1.534-10.042l1.424-6.123 16.348-.343c15.182-.318 16.311-.184 15.735 1.836-.344 1.201-.995 5.671-1.449 9.92-.466 4.262-1.473 7.948-2.246 8.193-2.172.697-19.146 1.248-25.639.845m159.458 28.227c-.307-.503-.761-5.058-.995-10.104l-.441-9.183h33.138l1.006 8.375c.565 4.605.712 9.148.344 10.103-.515 1.36-4.001 1.727-16.581 1.727-8.751 0-16.177-.416-16.471-.918m-121.067-29.39c.307-6.847 2.59-18.027 3.854-18.835.896-.563 8.125-1.041 16.054-1.041l14.422-.025v10.349c.024 4.604.036 7.187-1.252 8.645-1.633 1.849-5.388 1.849-13.955 1.825h-2.725c-9.033 0-16.422-.417-16.398-.918m48.849-1.017c-.221-1.103-.221-5.817 0-10.483l.417-8.474 16.152.343 16.165.343v19.594l-16.165.342c-14.176.294-16.213.086-16.569-1.665m25.369 11.12h31.912l.711 20.205H240.46zm164.061-8.879c-3.412-.6-5.843-5.682-7.045-14.794l-.847-6.331 8.444.074c4.639.048 11.979.747 16.299 1.568l7.843 1.493 2.467 8.254c1.35 4.532 2.234 8.425 1.964 8.67-.798.686-25.996 1.605-29.125 1.066m-371.25.073c-.38-.624.798-5.51 2.639-10.862l3.326-9.723 15.011-.343c8.247-.196 14.985.085 14.973.612-.037 2.008-4.737 18.969-5.437 19.679-1.264 1.249-29.751 1.85-30.512.637m112.597 27.407c-.356-.931-.073-5.217.639-9.527.699-4.323 1.276-8.267 1.276-8.768.012-.503 6.566-.92 14.593-.92 17.76 0 17.907.111 16.496 11.868l-1.007 8.339-15.673.343c-12.396.269-15.808-.013-16.324-1.335m47.769-.257c-.393-1.029-.233-5.572.356-10.103l1.055-8.241h31.715l-.307 9.147c-.159 5.021-.564 9.564-.883 10.103-.332.527-7.487.955-15.907.955-12.568 0-15.44-.331-16.029-1.861M79.222 851.521c.933-3.87 1.706-7.458 1.731-7.959.024-.503 2.393-.932 5.265-.944s7.622-1.114 10.568-2.448c2.945-1.336 7.56-2.426 10.26-2.426h4.922l-.81 7.042c-.442 3.87-1.092 8.559-1.461 10.409l-.662 3.368H77.541zm409.654 34.608c-2.75-1.911-6.53-11.303-6.53-16.19 0-2.878.062-2.89 13.182-2.535l13.182.344 3.289 7.959q.202.496.405.955c2.32 5.609 3.498 8.438 2.553 9.858-.97 1.446-4.099 1.433-10.408 1.433h-1.068c-8.64 0-12.727-.514-14.605-1.824m232.964-5.731-10.126-9.589 4.676.012c10.899.037 29.923 7.8 37.017 15.111l3.744 3.858-12.593.098-12.605.086z" style="stroke-width:1;fill:#727271;stroke-miterlimit:4.35" transform="matrix(.97666 0 0 1 230.474 15.939)"/><path d="M-75.21 984.712c-3.091-5.657-3.128-10.838-.098-15.004l2.361-3.252 336.761-.35c334.118-.338 336.801-.327 340.782 2.382 6.097 4.166 4.959 11.832-2.621 17.623l-4.019 3.071H-72.76z" style="stroke-width:1;fill:#313330" transform="matrix(.97666 0 0 1 230.474 15.939)"/><path d="M866.39 935.05c10.613 8.98 45.946 31.867 65.884 35.711 13.433 2.59 48.688-3.864 61.365-9.041 10.501-4.29-12.488 24.586-28.092 27.473-11.31 2.092-32.173 2.881-48.243-3.096-18.206-6.772-39.195-26.118-39.195-26.118" style="fill:#42433f;stroke-width:27px"/></svg>