<?xml version="1.0" encoding="utf-8"?>
<svg xmlns="http://www.w3.org/2000/svg" width="1024" height="1024" viewBox="0 0 1024 1024">
  <g transform="matrix(0.976664, 0, 0, 1, 230.473557, 15.939023)" style="">
    <path d="M 604.618 1004.3 L 599.549 1007 L 264.482 1007.22 C 238.757 1007.24 214.958 1007.25 192.94 1007.28 C -67.858 1007.49 -78.929 1007.5 -84.513 1002 C -85.237 1001.29 -85.863 1000.49 -86.931 999.595 C -95.106 992.624 -97.086 987.572 -97.866 971.562 C -98.306 962.691 -98.026 955.723 -97.066 951.904 C -95.526 945.693 -38.735 835.37 -33.593 828.561 C -31.948 826.401 -28.021 823.106 -24.842 821.264 C -19.773 818.311 -17.539 817.847 -6.407 817.432 C 5.621 816.993 6.149 816.859 4.271 814.796 C 3.068 813.479 -0.417 812.307 -4.689 811.795 C -19.404 810.013 -39.95 801.337 -53.648 791.099 C -63.098 784.034 -71.074 775.346 -78.646 763.875 C -104.74 724.339 -98.426 676.395 -58.913 613.857 C -40.343 584.462 -9.708 545.633 6.186 531.332 C 21.945 517.165 45.78 503.425 66.252 496.713 C 72.892 494.541 75.728 493.065 75.003 492.162 C 61.822 475.566 53.562 464.511 48.259 456.36 C 21.92 415.896 5.879 373.407 -2.074 323.047 C -3.842 311.845 -4.271 301.998 -4.222 274.237 C -4.161 235.738 -2.344 219.118 4.823 191.26 C 25.259 111.907 72.242 51.346 138.985 18.35 C 181.857 -2.846 226.582 -11.18 289.876 -9.74 C 330.158 -8.837 359.565 -3.883 388.604 6.88 C 483.994 42.206 545.926 130.491 556.04 245.561 C 559.39 283.608 554.064 333.675 542.944 368.806 C 529.824 410.246 508.443 449.77 481.196 482.973 C 476.544 488.635 473.009 493.675 473.316 494.187 C 473.635 494.688 475.145 495.103 476.667 495.103 C 481.245 495.103 496.525 500.752 507.056 506.329 C 529.811 518.385 548.897 538.36 582.587 585.401 C 601.182 611.356 622.096 648.452 630.749 670.819 C 643.71 704.303 642.04 737.969 626.109 764.632 C 612.068 788.122 586.724 805.486 562.41 808.28 C 556.347 808.976 554.837 809.696 551.523 813.466 L 547.682 817.835 L 551.008 819.226 C 559.255 822.679 563.551 828.353 573.493 848.976 C 609.307 923.265 620.93 948.89 622.268 956.541 C 623.912 965.912 622.268 984.607 619.298 990.318 C 616.683 995.333 610.632 1001.1 604.618 1004.3 Z M 81.3 461.924 C 85.988 467.513 90.137 471.771 90.505 471.417 C 90.861 471.051 90.615 470.051 89.94 469.197 C 89.265 468.342 86.221 461.338 83.178 453.614 C 64.129 405.292 53.488 350.808 53.5 301.693 C 53.513 267.403 57.047 244.158 65.651 221.766 C 72.991 202.669 90.333 184.097 100.937 183.963 C 104.349 183.926 103.564 186.733 95.721 202.547 C 91.671 210.711 88.357 218.044 88.357 218.85 C 88.357 219.777 93.021 218.545 100.937 215.543 C 135.733 202.327 179.5 192.773 226.434 188.148 C 254.479 185.378 315.896 186.281 346.715 189.905 C 394.042 195.482 428.321 203.255 455.691 214.64 C 462.295 217.385 467.977 219.374 468.296 219.057 C 469.18 218.178 460.576 194.274 456.465 186.183 C 452.083 177.568 452.046 176.617 455.998 176.617 C 459.644 176.617 460.809 177.434 469.953 186.391 C 488.732 204.78 500.748 246.586 500.748 293.541 C 500.748 341.058 489.493 400.277 471.389 448.05 C 468.603 455.396 466.492 461.863 466.676 462.436 C 466.873 463.01 470.42 458.922 474.556 453.358 C 523.994 386.939 543.717 301.204 528.817 217.495 C 521.355 175.543 504.172 134.969 480.079 102.364 C 472.052 91.492 453.961 72.749 443.062 64 C 412.133 39.192 367.69 20.656 327.077 15.629 C 321.002 14.872 313.932 13.994 311.355 13.652 C 300.861 12.298 247.987 13.139 232.89 14.909 C 196.634 19.155 165.054 29.027 138.065 44.549 C 132.664 47.66 127.964 50.504 127.632 50.882 C 127.301 51.26 124.539 53.152 121.496 55.104 C 104.865 65.769 76.943 93.273 68.253 107.55 C 66.989 109.625 65.59 111.614 65.136 111.943 C 61.552 114.591 42 152.126 36.28 167.306 C 23.897 200.216 15.833 251.601 17.686 285.829 C 19.724 323.413 25.639 353.651 36.784 383.449 C 41.975 397.348 54.396 423.388 59.257 430.588 C 60.778 432.845 64.448 438.544 67.394 443.242 C 70.34 447.94 76.599 456.347 81.3 461.924 Z M 161.483 817.396 C 161.851 818.006 211.792 818.408 275.909 818.323 C 351.624 818.225 387.819 817.786 384.149 817.005 C 375.03 815.089 364.376 809.635 358.816 804.058 C 351.133 796.322 348.31 787.902 348.323 772.71 C 348.359 738.958 363.198 701.045 385.573 677.555 C 394.042 668.647 395.171 666.963 394.042 664.864 C 391.722 660.532 392.532 649.953 395.723 643.144 C 399.258 635.59 414.857 618.97 425.265 611.637 C 443.614 598.739 462.196 591.502 477.011 591.502 C 484.178 591.502 488.474 593.296 488.474 596.286 C 488.474 598.433 483.11 601.716 471.132 606.89 C 449.039 616.42 443.492 620.056 429.561 634.175 C 416.674 647.231 408.254 658.848 413.151 656.823 C 426.444 651.307 447.861 647.183 456.244 648.5 C 459.484 649.013 461.067 648.391 464.811 645.12 C 472.469 638.433 483.295 632.051 493.801 628.025 C 501.999 624.876 505.056 624.291 510.947 624.718 C 518.544 625.255 521.023 627.073 519.096 630.673 C 518.483 631.82 512.579 635.615 505.988 639.117 C 492.573 646.231 484.129 652.344 485.639 653.833 C 486.179 654.37 490.769 656.566 495.826 658.702 L 505.031 662.582 L 516.077 659.971 C 536.599 655.102 556.531 653.601 565.945 656.2 C 571.063 657.616 577.862 661.935 579.777 664.998 C 582.231 668.927 578.439 670.599 563.956 671.99 C 548.148 673.503 533.886 675.785 533.898 676.81 C 533.898 677.201 537.801 679.922 542.551 682.838 C 553.131 689.318 564.288 701.923 571.652 715.7 C 580.145 731.575 580.881 734.821 581.188 757.457 C 581.471 779.153 581.507 779.238 587.779 774.394 C 593.069 770.294 602.618 760.947 602.618 759.861 C 602.618 759.312 603.44 758.042 604.434 757.042 C 607.466 754.04 614.486 738.97 616.131 731.954 C 617.125 727.695 617.444 720.813 617.015 712.429 C 615.898 690.392 606.091 665.364 584.919 630.551 C 564.999 597.799 538.967 562.582 522.766 546.475 C 513.23 536.994 495.58 525.462 482.951 520.472 C 474.347 517.067 471.843 516.616 462.7 516.811 C 453.85 516.994 452.022 517.384 450.622 519.422 C 449.726 520.74 447.935 523.034 446.634 524.511 C 445.345 525.987 444.216 527.671 444.142 528.232 C 444.056 528.806 443.909 529.843 443.823 530.539 C 443.749 531.234 442.853 532.32 441.835 532.955 C 440.816 533.589 440.448 534.126 441 534.126 C 441.552 534.138 441.135 535.017 440.067 536.079 C 438.999 537.14 438.423 538.47 438.779 539.044 C 439.134 539.617 438.189 540.947 436.667 541.997 C 435.158 543.046 434.348 543.913 434.863 543.913 C 435.379 543.913 434.421 545.389 432.74 547.183 C 431.071 548.989 429.942 550.856 430.236 551.332 C 430.531 551.808 429.954 552.515 428.935 552.894 C 427.929 553.284 427.106 554.382 427.106 555.334 C 427.106 556.298 426.198 557.421 425.094 557.848 C 423.977 558.263 423.412 558.946 423.817 559.361 C 424.234 559.764 423.203 561.167 421.534 562.473 C 419.853 563.778 418.785 565.328 419.153 565.914 C 419.509 566.499 418.674 567.573 417.288 568.318 C 415.901 569.062 415.042 570.099 415.373 570.636 C 415.704 571.185 412.44 574.822 408.107 578.714 C 403.762 582.619 400.485 586.243 400.804 586.756 C 401.123 587.268 399.331 589.233 396.815 591.124 C 394.299 593.016 388.629 598.263 384.21 602.79 C 379.792 607.317 375.521 611.027 374.723 611.027 C 373.925 611.027 372.084 612.674 370.648 614.687 C 369.212 616.701 367.224 618.348 366.23 618.348 C 365.248 618.348 364.119 619.166 363.726 620.178 C 363.345 621.191 362.253 622.009 361.308 622.009 C 360.375 622.009 359.602 622.558 359.602 623.229 C 359.602 623.9 358.755 624.449 357.724 624.449 C 356.693 624.449 355.527 625.267 355.134 626.28 C 354.754 627.292 353.662 628.11 352.729 628.11 C 351.796 628.11 350.335 629.208 349.501 630.551 C 348.654 631.893 347.328 632.991 346.555 632.991 C 345.77 632.991 344.812 633.845 344.407 634.882 C 344.002 635.92 341.044 637.921 337.829 639.324 C 334.613 640.727 331.717 642.228 331.373 642.668 C 330.146 644.23 310.974 652.32 306.494 653.15 C 303.978 653.626 301.916 654.394 301.916 654.882 C 301.916 655.358 300.124 655.785 297.928 655.834 C 278.413 656.273 265.489 655.749 264.212 654.48 C 263.795 654.065 261.991 653.735 260.186 653.735 C 258.382 653.735 256.504 653.333 256.013 652.832 C 255.51 652.344 254.455 651.905 253.657 651.868 C 252.859 651.832 248.895 650.282 244.845 648.415 C 240.794 646.548 236.511 644.95 235.333 644.852 C 234.154 644.754 233.185 644.242 233.185 643.717 C 233.185 643.18 232.767 642.875 232.264 643.022 C 231.074 643.375 219.193 637.543 218.665 636.347 C 218.432 635.846 217.511 635.432 216.603 635.432 C 215.695 635.432 214.222 634.724 213.326 633.845 C 211.276 631.856 192.878 618.348 192.203 618.348 C 191.933 618.348 190.129 617.018 188.202 615.395 C 186.275 613.772 181.943 610.136 178.567 607.317 C 170.823 600.837 154.499 585.23 147.245 577.384 C 135.512 564.657 125.214 550.197 107.995 522.217 C 104.46 516.481 102.963 515.883 91.99 515.859 C 74.206 515.822 52.874 524.755 30.671 541.521 C 17.858 551.198 9.88 559.215 -4.32 576.676 C -53.586 637.262 -76.609 687.182 -71.454 722.301 C -70.656 727.792 -69.355 732.673 -68.582 733.149 C -67.797 733.637 -67.502 734.907 -67.907 735.98 C -68.324 737.054 -68.091 737.933 -67.404 737.933 C -66.704 737.933 -66.483 738.482 -66.901 739.153 C -67.318 739.824 -67.036 740.373 -66.287 740.373 C -65.538 740.373 -65.258 740.922 -65.673 741.593 C -66.091 742.265 -65.808 742.814 -65.062 742.814 C -64.313 742.814 -64.031 743.363 -64.448 744.034 C -64.866 744.705 -64.583 745.254 -63.835 745.254 C -63.086 745.254 -62.804 745.803 -63.221 746.475 C -63.638 747.146 -63.393 747.695 -62.681 747.695 C -61.969 747.695 -61.38 748.512 -61.38 749.525 C -61.38 750.538 -60.963 751.356 -60.459 751.368 C -59.956 751.368 -56.495 755.26 -52.788 760.007 C -46.124 768.537 -38.968 774.65 -30.819 778.775 C -26.805 780.812 -26.695 780.812 -27.64 778.628 C -29.481 774.357 -31.825 759.275 -31.874 751.307 C -31.936 740.373 -29.322 730.953 -22.178 716.578 C -14.532 701.154 -6.603 691.38 4.566 683.632 C 9.401 680.276 13.378 677.213 13.415 676.835 C 13.562 675.456 -19.527 667.158 -25.149 667.158 C -25.59 667.158 -25.787 665.95 -25.566 664.461 C -24.964 660.312 -16.447 655.187 -8.051 653.918 C 2.467 652.32 26.143 655.944 39.423 661.179 C 42.147 662.253 44.234 661.728 52.764 657.86 L 62.877 653.259 L 60.017 650.953 C 54.2 646.28 46.161 642.326 33.372 637.86 C 21.43 633.687 20.202 632.979 19.846 630.014 C 19.196 624.632 21.442 623.229 30.696 623.229 C 45.191 623.229 67.762 632.186 79.52 642.607 L 84.798 647.28 L 99.158 647.976 C 109.701 648.488 115.96 649.477 122.723 651.71 C 127.78 653.369 132.063 654.602 132.235 654.443 C 133.192 653.516 123.496 641.228 116.058 633.931 C 105.491 623.583 92.555 614.968 72.807 605.12 C 64.583 601.033 57.465 597.03 56.961 596.225 C 55.415 593.736 61.147 590.282 66.817 590.282 C 73.972 590.282 89.842 594.48 99.268 598.873 C 113.407 605.45 121.655 611.234 133.008 622.546 C 150.461 639.922 154.487 647.024 154.585 660.605 C 154.634 667.805 154.806 668.22 159.237 671.539 C 168.773 678.677 178.089 688.525 183.501 697.152 C 210.785 740.691 214.811 787.621 192.731 805.01 C 185.833 810.44 174.615 815.187 167.239 815.797 C 163.704 816.09 161.115 816.81 161.483 817.396 Z M 147.086 382.864 C 157.973 384.218 176.726 383.144 190.141 380.423 C 196.499 379.118 210.798 374.31 224.446 368.867 C 253.35 357.336 261.217 355.542 279.21 356.384 C 294.921 357.116 299.425 358.312 325.85 368.855 C 356.35 381.021 360.989 382.01 387.831 382.132 C 407.665 382.217 411.789 381.888 420.466 379.532 C 440.202 374.151 457.078 365.585 468.726 355.018 L 473.709 350.503 L 475.71 332.809 C 477.281 319.032 477.551 308.904 476.974 287.05 C 475.943 247.709 476.925 250.613 462.074 242.876 C 437.072 229.856 390.801 217.812 343.033 211.882 C 326.844 209.881 259.192 209.149 237.1 210.735 C 181.292 214.762 131.008 226.086 96.335 242.437 C 78.771 250.723 78.968 250.491 77.397 265.439 C 74.856 289.758 76.304 343.291 79.741 351.845 C 81.337 355.811 95.169 365.573 107.381 371.357 C 119.237 376.97 133.941 381.229 147.086 382.864 Z M 254.05 561.594 C 295.632 567.28 338.884 557.714 374.33 535.005 C 384.161 528.696 388.212 525.304 400.767 512.833 C 425.278 488.513 447.014 451.796 459.324 413.956 C 462.479 404.267 466.382 389.722 466.382 387.672 C 466.382 387.086 462.651 388.269 458.097 390.295 C 434.471 400.85 411.752 406.024 389.132 406.024 C 364.499 406.012 347.721 402.241 316.031 389.612 C 293.804 380.753 284.721 378.715 270.803 379.471 C 260.358 380.033 257.916 380.728 235.86 389.441 C 222.814 394.59 209.006 399.581 205.176 400.545 C 167.349 410.039 129.265 407.269 98.065 392.748 C 90.124 389.05 87.645 388.355 87.338 389.685 C 86.798 392.064 95.022 419.972 100.25 433.48 C 104.804 445.243 116.071 467.232 123.496 478.837 C 134.947 496.725 146.264 509.379 163.226 523.229 C 188.349 543.754 219.365 556.847 254.05 561.594 Z M 753.779 992.416 C 746.672 993.917 724.555 994.723 721.057 993.6 C 720.382 993.38 715.682 992.282 710.625 991.147 C 699.419 988.634 681.168 980.275 670.797 972.929 C 660.868 965.876 647.416 951.465 641.549 941.593 C 626.49 916.224 627.889 886.01 644.912 869.085 C 661.518 852.588 697.824 846.755 728.421 855.675 C 776.644 869.744 809.93 917.798 797.951 956.065 C 792.305 974.1 775.65 987.816 753.779 992.416 Z M 81.398 822.521 C 85.829 823.424 90.014 822.13 93.573 818.762 C 96.359 816.127 96.949 814.528 96.949 809.61 C 96.949 796.883 85.375 771.319 69.898 749.879 C 64.804 742.826 61.355 736.822 61.355 735.004 C 61.355 731.685 65.369 728.171 69.174 728.171 C 71.309 728.171 83.178 737.957 84.687 740.959 C 85.019 741.642 87.927 746.157 91.143 750.977 C 99.894 764.156 105.307 775.468 112.205 795.053 C 119.213 814.967 121.287 817.579 130.087 817.579 C 145.22 817.579 148.78 800.654 139.464 772.978 C 134.383 757.859 130.468 749.806 118.709 730.209 C 111.137 717.603 110.192 715.37 111.186 712.515 C 112.094 709.928 113.235 709.184 116.697 708.891 C 120.514 708.573 121.68 709.208 125.89 713.845 C 132.235 720.849 136.224 725.633 136.224 726.231 C 136.224 726.487 138.544 730.465 141.366 735.065 C 144.202 739.665 148.632 748.256 151.21 754.174 C 155.8 764.681 161.974 785.645 162.023 790.843 C 162.06 796.847 163.729 797.2 172.32 792.991 C 178.752 789.842 181.047 787.926 183.636 783.534 C 186.656 778.409 186.828 777.359 186.079 768.415 C 184.299 747.194 175.99 724.351 163.68 706.865 C 153.48 692.369 134.555 678.519 116.586 672.381 C 106.915 669.086 89.413 668.671 77.52 671.453 C 54.114 676.945 23.761 697.994 13.034 716.188 C 1.448 735.846 -2.074 763.875 5.302 777.591 C 6.026 778.933 6.738 780.703 6.873 781.52 C 7.008 782.326 9.119 786.255 11.549 790.245 C 19.257 802.862 35.912 816.029 44.16 816.029 C 47.413 816.029 51.536 812.844 51.536 810.318 C 51.536 807.939 44.16 793.698 34.918 778.201 C 30.561 770.904 26.989 763.802 26.989 762.411 C 26.989 759.507 31.064 755.016 33.703 755.016 C 40.981 755.016 59.416 782.142 69.505 807.695 C 73.04 816.651 77.041 821.642 81.398 822.521 Z M 465.535 822.179 C 469.499 823.851 476.151 822.594 479.404 819.568 C 480.975 818.103 483.994 812.722 486.13 807.621 C 491.371 795.065 501.472 775.15 505.988 768.439 C 515.022 755.041 521.735 751.563 526.019 758.055 C 528.523 761.862 527.676 765.571 522.275 774.54 C 520.054 778.238 515.046 787.451 511.155 795.016 C 504.97 807.036 504.245 809.171 505.436 811.77 C 507.547 816.358 511.757 816.7 519.305 812.905 C 532.413 806.303 544.969 789.793 548.516 774.504 C 551.842 760.141 548.467 739.983 539.888 723.033 C 533.591 710.575 522.521 698.824 508.909 690.148 C 471.168 666.072 444.068 663.412 415.692 680.996 C 392.286 695.505 376.589 722.814 370.071 760.361 C 366.34 781.837 368.108 786.962 381.584 793.759 C 393.195 799.616 393.342 799.543 395.06 787.316 C 397.171 772.283 401.749 757.42 408.672 743.143 C 421.694 716.224 433.341 704.522 438.815 712.832 C 440.89 715.968 440.791 716.261 430.383 737.652 C 419.435 760.154 414.894 773.271 412.39 789.72 C 409.42 809.232 414.109 818.543 426.861 818.433 C 434.9 818.36 437.968 814.223 443.025 796.639 C 451.015 768.842 460.957 749.733 475.219 734.736 C 482.288 727.317 486.891 726.133 490.241 730.88 C 493.298 735.212 492.598 737.591 485.001 748.756 C 481.061 754.553 475.845 762.85 473.414 767.219 C 468.885 775.346 461.165 794.064 462.344 794.064 C 462.7 794.064 462.307 794.894 461.46 795.907 C 460.613 796.932 459.644 801.581 459.3 806.255 C 458.637 815.553 460.38 819.995 465.535 822.179 Z M -74.891 982.898 L -72.46 986.864 L 593.265 986.864 L 597.254 984.143 C 604.778 979.018 605.907 972.221 599.856 968.536 C 595.904 966.132 593.241 966.12 261.61 966.425 L -72.645 966.73 L -74.989 969.61 C -77.996 973.307 -77.959 977.895 -74.891 982.898 Z M 292.908 533.663 C 287.041 535.224 269.76 535.713 262.641 534.529 C 242.918 531.246 219.107 515.249 206.465 496.774 C 192.719 476.713 185.232 449.746 190.129 437.97 C 192.805 431.576 197.248 431.003 214.958 434.749 C 246.906 441.497 254.639 442.632 269.392 442.693 C 286.182 442.766 296.43 441.509 315.871 436.97 C 323.383 435.225 333.116 432.992 337.51 432.015 C 359.197 427.183 367.825 435.493 362.842 456.408 C 360.51 466.183 352.029 484.767 345.316 494.822 C 332.404 514.163 313.417 528.232 292.908 533.663 Z M 261.942 632.454 C 274.203 635.602 288.17 636.237 298.173 634.114 C 312.656 631.026 320.229 626.658 341.462 609.196 C 345.537 605.84 353.244 599.751 358.596 595.664 C 374.686 583.363 404.584 550.648 410.697 538.653 L 412.673 534.761 L 408.561 538.421 C 406.29 540.435 404.155 542.424 403.811 542.851 C 402.756 544.12 383.216 557.226 376.503 561.167 C 360.658 570.441 339.449 578.495 315.417 584.34 C 304.518 586.988 251.472 586.56 238.094 583.705 C 219.684 579.788 210.638 577.213 203.728 573.967 C 200.022 572.21 196.278 570.783 195.419 570.77 C 193.308 570.758 182.851 565.121 172.431 558.373 C 156.021 547.756 153.309 546.268 151.946 547.11 C 151.136 547.598 150.915 547.403 151.394 546.622 C 151.848 545.902 151.664 544.962 150.977 544.535 C 148.78 543.18 149.639 547.403 152.02 549.66 C 153.284 550.856 157.261 555.407 160.857 559.776 C 164.453 564.144 168.528 568.708 169.915 569.916 C 171.302 571.136 176.849 576.384 182.25 581.582 C 192.792 591.722 221.733 614.687 223.98 614.687 C 224.409 614.687 227.072 616.261 229.895 618.189 C 238.966 624.364 250.527 629.513 261.942 632.454 Z M 728.421 973.82 C 739.05 975.186 753.177 973.161 760.983 969.158 C 766.948 966.083 775.576 957.664 778.412 952.136 C 783.284 942.667 781.198 921.032 774.312 909.415 C 769.292 900.971 750.772 899.03 727.808 904.546 C 709.14 909.024 694.473 916.456 683.353 927.084 C 678.444 931.77 674.209 935.614 673.939 935.614 C 673.006 935.614 659.69 926.706 656.928 924.241 C 653.271 920.958 653.418 923.216 657.37 931.074 C 662.157 940.58 665.753 944.802 675.866 952.795 C 690.877 964.656 706.832 971.038 728.421 973.82 Z M 126.773 949.28 C 129.13 950.781 351.956 950.488 352.876 948.988 C 353.318 948.292 353.036 943.948 352.25 939.335 C 351.649 935.772 352.017 933.185 351.035 931.306 C 348.421 926.34 336.27 926.315 271.208 926.193 C 261.549 926.181 250.724 926.157 238.597 926.12 C 171.461 925.913 129.216 926.23 128.504 926.938 C 126.54 928.89 125.043 948.194 126.773 949.28 Z M 196.745 359.215 C 192.829 360.85 185.858 361.18 181.022 359.984 C 167.079 356.506 156.401 334.505 159.47 315.579 C 162.452 297.178 174.885 283.95 189.147 284.011 C 194.364 284.036 210.098 292.675 210 295.469 C 209.988 295.848 211.473 299.325 213.302 303.193 C 216.137 309.209 216.615 311.833 216.615 321.217 C 216.615 329.185 215.94 334.017 214.161 338.813 C 211.301 346.488 202.476 356.836 196.745 359.215 Z M 376.76 358.215 C 362.499 364.706 349.292 358.666 341.609 342.132 C 338.442 335.335 338.123 333.395 338.123 321.217 C 338.136 309.038 338.43 307.22 341.413 301.619 C 352.52 280.668 375.275 278.642 388.003 297.47 C 401.123 316.897 395.011 349.88 376.76 358.215 Z M 590.676 487.366 C 576.34 496.323 563.343 503.644 561.796 503.644 C 556.985 503.644 553.524 500.325 553.524 495.7 C 553.524 495.371 553.511 495.066 553.499 494.785 C 553.475 494.309 553.462 493.894 553.511 493.492 C 553.916 490.514 558.261 488.062 594.64 465.572 C 652.203 429.978 676.382 415.786 679.487 415.786 C 685.992 415.786 689.527 423.986 685.157 428.928 C 683.979 430.258 668.097 440.289 649.871 451.21 C 631.645 462.144 605.011 478.409 590.676 487.366 Z M 262.874 513.98 C 278.977 517.458 295.141 515.212 307.636 507.769 C 315.638 502.985 322.781 496.64 322.781 494.309 C 322.781 491.698 300.873 481.838 292.098 480.484 C 269.883 477.067 250.981 480.374 234.007 490.624 L 228.091 494.212 L 233.234 499.422 C 239.174 505.438 251.62 511.552 262.874 513.98 Z M 519.919 914.564 C 521.662 917.285 521.895 917.31 551.707 917.31 C 575.542 917.31 581.753 916.98 581.753 915.723 C 581.753 914.845 581.274 913.612 580.697 912.978 C 580.12 912.343 575.334 902.484 570.068 891.074 C 564.815 879.665 559.967 869.647 559.317 868.805 C 558.47 867.719 553.401 867.279 541.717 867.279 L 540.489 867.279 C 530.891 867.279 526.596 867.279 525.516 869.134 C 524.632 870.623 525.835 873.332 528.019 878.213 C 528.13 878.469 528.24 878.725 528.363 878.994 C 533.739 891.062 532.082 895.321 522.005 895.37 C 514.101 895.394 513.402 896.492 515.954 904.717 C 517.17 908.622 518.949 913.051 519.919 914.564 Z M 6.431 496.555 C 0.847 501.326 -0.675 500.728 -21.172 485.621 C -30.144 479.007 -52.383 463.254 -70.607 450.612 C -112.28 421.692 -114.16 420.191 -114.13 416.006 C -114.12 412.077 -113.16 410.49 -109.74 408.709 C -109.04 408.33 -108.46 408.001 -107.85 407.806 C -104.44 406.732 -99.59 410.149 -60.828 437.519 C -59.416 438.519 -57.968 439.544 -56.471 440.594 C -18.177 467.622 6.223 485.682 7.389 487.842 C 9.193 491.198 8.825 494.517 6.431 496.555 Z M 229.085 265.024 C 227.993 267.831 225.182 267.306 212.32 261.9 C 191.099 252.968 170.258 249.722 149.958 252.175 C 143.662 252.943 135.659 254.64 132.161 255.97 C 120.391 260.411 118.034 258.74 122.171 248.88 C 129.51 231.406 159.273 223.34 187.773 231.113 C 194.879 233.041 210.196 239.972 210.884 241.571 C 211.117 242.083 211.78 242.51 212.369 242.51 C 212.946 242.51 216.137 244.987 219.451 248.026 C 225.784 253.822 230.313 261.827 229.085 265.024 Z M 343.278 261.558 C 335.988 264.511 329.851 266.915 329.63 266.915 C 329.397 266.915 328.55 266.11 327.728 265.134 C 325.064 261.937 328.44 255.347 336.466 248.123 C 351.256 234.823 370.145 227.867 391.489 227.867 C 405.321 227.867 413.323 229.893 421.755 235.506 C 429.659 240.765 436.213 252.724 433.476 256.873 C 432.679 258.081 430.568 257.678 423.952 255.067 C 415.839 251.857 414.477 251.699 394.582 251.687 C 370.746 251.674 365.027 252.785 343.278 261.558 Z M 452.881 858.872 C 457.299 860.08 551.376 860.117 553.291 858.909 C 555.389 857.578 550.308 845.949 545.828 841.862 C 541.078 837.518 535.248 836.798 510.566 837.542 C 493.064 838.067 486.878 838.689 483.565 840.239 C 477.636 843.033 461.779 842.935 457.385 840.068 C 453.359 837.444 445.701 837.31 444.731 839.848 C 444.338 840.861 445.32 845.364 446.916 849.866 C 449.211 856.346 450.451 858.213 452.881 858.872 Z M -47.965 539.483 C -49.376 541.265 -51.696 542.656 -53.181 542.619 C -54.654 542.583 -66.901 539.3 -80.401 535.334 C -93.902 531.356 -117.93 524.462 -133.8 520.008 C -149.66 515.554 -164.8 511.283 -167.44 510.527 C -170.14 509.746 -173.34 507.647 -174.78 505.719 C -177.12 502.583 -177.17 502.058 -175.46 499.007 C -171.89 492.662 -171.05 492.821 -100.04 512.906 C -77.763 519.215 -57.502 524.938 -54.998 525.633 C -50.567 526.854 -45.424 531.759 -45.424 534.761 C -45.424 535.591 -46.566 537.714 -47.965 539.483 Z M 658.634 534.236 C 629.043 541.57 603.514 547.573 601.881 547.573 C 595.352 547.573 591.4 538.08 596.174 533.846 C 597.991 532.235 705.409 504.865 709.901 504.865 C 712.269 504.865 716.762 510.221 716.762 513.04 C 716.762 519.642 715.252 520.191 658.634 534.236 Z M -86.759 613.284 C -90.012 614.98 -190.57 615.139 -194.77 613.455 C -200.45 611.185 -201.55 605.059 -197.06 600.593 L -194.05 597.604 L -140.18 597.604 C -89.545 597.604 -86.182 597.738 -84.268 599.837 C -82.193 602.131 -81.58 608.147 -83.188 610.538 C -83.678 611.283 -85.286 612.515 -86.759 613.284 Z M -55.206 913.954 C -55.243 915.955 -52.126 916.09 -6.8 916.09 L 41.656 916.09 L 43.645 912.258 C 44.749 910.147 45.731 905.888 45.829 902.801 L 46.013 897.176 L -47.265 897.176 L -51.217 904.497 C -53.39 908.524 -55.194 912.783 -55.206 913.954 Z M 667.054 916.273 C 671.607 919.055 673.043 919.091 675.191 916.492 C 679.352 911.428 691.846 903.814 703.764 899.043 C 710.919 896.187 716.762 893.417 716.762 892.868 C 716.762 890.818 701.346 877.054 695.504 873.893 C 689.698 870.757 688.987 870.647 682.089 871.929 C 668.883 874.369 658.475 880.849 654.118 889.354 C 650.202 896.968 650.89 900.678 657.542 907.78 C 660.745 911.209 665.029 915.028 667.054 916.273 Z M 743.972 612.674 C 741.959 614.48 736.497 614.675 690.275 614.614 C 661.973 614.565 637.622 614.053 636.149 613.455 C 630.626 611.246 629.215 604.108 633.473 599.873 L 636.1 597.262 L 689.011 598.153 C 734.644 598.922 743.886 598.983 745.752 602.704 C 746.23 603.644 746.218 604.828 746.218 606.316 C 746.218 606.463 746.218 606.609 746.218 606.756 C 746.218 608.976 745.248 611.515 743.972 612.674 Z M -164.23 689.782 C -189.41 696.798 -210.73 702.545 -211.62 702.545 C -214.59 702.545 -219.71 697.555 -219.71 694.663 C -219.71 688.574 -216.99 687.439 -172.46 675.065 C -148.83 668.488 -127.4 662.863 -124.84 662.558 C -117.07 661.643 -112.46 668.83 -116.93 674.907 C -117.99 676.322 -133.44 681.179 -164.23 689.782 Z M 234.375 756.871 C 234.093 757.005 233.847 757.14 233.614 757.262 C 231.884 758.152 231.098 758.555 230.399 758.47 C 229.724 758.372 229.11 757.835 227.797 756.859 C 226.189 755.639 224.937 752.039 223.734 745.096 C 220.187 724.656 212.111 704.229 200.5 686.34 C 194.67 677.335 193.922 673.516 197.383 670.392 C 201.114 667.036 206.833 667.866 212.013 672.515 C 217.634 677.567 230.521 701.594 235.787 716.822 C 242.488 736.249 241.899 752.991 234.375 756.871 Z M 773.674 703.68 C 771.894 705.071 770.09 706.157 769.685 706.109 C 767.316 705.803 679.585 679.592 676.995 678.421 C 670.036 675.273 672.503 664.718 680.199 664.718 C 682.334 664.718 697.099 668.525 713.006 673.186 C 767.279 689.098 775.454 691.478 776.681 695.81 C 776.902 696.578 776.902 697.408 776.902 698.384 L 776.902 698.421 C 776.902 699.922 775.441 702.289 773.674 703.68 Z M -71.773 950.318 C -70.337 952.624 -14.421 951.147 -10.715 948.707 C -8.69 947.365 -7.536 944.448 -5.977 936.7 C -4.848 931.074 -4.185 926.059 -4.492 925.547 C -4.811 925.046 -17.613 924.631 -32.954 924.631 L -60.852 924.631 L -66.778 936.712 C -70.288 943.85 -72.325 949.415 -71.773 950.318 Z M 531.137 948.792 C 532.781 950 540.33 950.281 564.165 950.013 C 581.151 949.805 595.462 949.232 595.966 948.731 C 596.469 948.231 594.444 943.021 591.461 937.139 L 586.049 926.462 L 554.444 926.132 C 528.67 925.876 522.84 926.108 522.84 927.45 C 522.84 931.086 529.148 947.316 531.137 948.792 Z M 323.567 752.014 C 320.192 754.357 317.295 754.272 314.742 751.722 C 310.348 747.365 315.025 725.559 324.635 705.547 C 335.767 682.387 353.919 664.352 359.283 671.124 C 362.904 675.7 362.167 679.043 355.355 688.94 C 347.292 700.654 339.314 716.151 333.275 731.831 C 330.821 738.201 328.206 744.961 327.47 746.828 C 326.733 748.695 324.978 751.038 323.567 752.014 Z M -41.092 886.852 C -40.662 887.56 -26.241 888.024 -4.995 888.024 L 30.365 888.024 L 33.077 881.764 C 34.562 878.323 36.084 873.649 36.452 871.392 L 37.127 867.279 L 3.927 867.279 C -14.323 867.279 -30.168 867.621 -31.273 868.048 C -33.666 868.963 -42.135 885.181 -41.092 886.852 Z M -155.59 752.991 C -170.73 760.91 -181.85 765.999 -184.03 765.999 C -187.37 765.999 -192.71 761.423 -192.71 758.567 C -192.71 755.273 -189.28 751.38 -184.31 749 C -181.17 747.5 -169.36 741.374 -158.09 735.395 C -136.86 724.132 -132.1 722.741 -128.46 726.743 C -125.81 729.659 -125.87 735.858 -128.58 738.152 C -129.76 739.153 -141.92 745.828 -155.59 752.991 Z M 7.855 948.585 C 8.37 949.903 12.752 950.257 28.794 950.257 C 52.727 950.257 52.899 950.183 55.071 937.798 C 57.06 926.389 56.998 926.059 52.347 925.193 C 45.719 923.96 14.998 925.071 13.464 926.608 C 11.635 928.426 7.033 946.462 7.855 948.585 Z M 741.763 767.133 C 739.983 768.524 737.627 769.623 736.547 769.586 C 735.454 769.537 722.42 763.082 707.581 755.236 C 678.125 739.665 676.075 737.86 680.371 731.331 C 684.372 725.254 686.458 725.779 713.902 739.836 C 727.955 747.048 740.707 754.052 742.229 755.407 C 746.034 758.823 745.838 763.949 741.763 767.133 Z M 69.394 949.134 C 70.524 950.952 111.64 950.574 112.315 948.731 C 113.272 946.108 115.187 926.498 114.549 925.852 C 113.407 924.717 75.482 924.546 73.788 925.669 C 72.009 926.852 68.192 947.206 69.394 949.134 Z M 426.873 950.647 C 428.015 950.952 435.882 951.257 444.363 951.33 C 455.826 951.44 460.38 951.038 462.123 949.769 C 464.442 948.085 464.442 947.914 462.123 938.628 C 460.822 933.442 458.993 928.451 458.072 927.523 C 456.808 926.279 452.255 925.852 440.006 925.852 C 430.997 925.852 422.737 926.193 421.657 926.596 C 420.074 927.206 419.828 928.561 420.417 933.612 C 421.399 942.166 424.369 949.988 426.873 950.647 Z M 369.998 948.121 C 370.808 950.025 372.98 950.257 389.807 950.257 L 408.696 950.257 L 408.573 945.071 C 408.512 942.215 407.825 936.87 407.039 933.173 L 405.628 926.462 L 387.082 926.12 C 373.213 925.876 368.218 926.181 367.261 927.34 C 365.996 928.878 367.874 943.106 369.998 948.121 Z M -24.535 856.627 C -24.559 858.628 -22.952 858.774 -2.774 858.457 L 19.012 858.128 L 22.338 848.414 C 24.167 843.07 25.357 838.408 24.989 838.042 C 24.621 837.676 16.41 837.383 6.726 837.383 C -9.181 837.383 -11.218 837.627 -14.348 839.921 C -18.104 842.679 -24.486 853.149 -24.535 856.627 Z M 417.619 915.785 C 418.478 916.883 423.928 917.31 437.072 917.31 C 438.018 917.31 438.914 917.31 439.76 917.31 C 449.493 917.322 453.826 917.334 455.078 915.382 C 456.084 913.808 455.115 910.989 453.372 905.888 C 453.175 905.327 452.979 904.741 452.77 904.119 L 450.205 896.566 L 431.157 896.566 C 413.52 896.566 412.182 896.724 412.955 898.701 C 413.409 899.872 414.379 903.85 415.103 907.548 C 415.827 911.245 416.968 914.943 417.619 915.785 Z M 479.6 948.951 C 480.766 949.622 488.204 950.196 496.12 950.22 C 510.358 950.257 510.53 950.22 511.266 947.291 C 512.051 944.216 508.824 931.27 506.614 928.597 C 505.718 927.511 500.563 927.072 488.842 927.072 L 472.322 927.072 L 473.12 931.038 C 475.059 940.702 477.624 947.816 479.6 948.951 Z M 365.211 915.687 C 368.304 917.944 402.584 918.03 402.51 915.785 C 402.437 913.027 399.282 899.421 398.386 897.981 C 397.785 897.017 391.857 896.566 379.62 896.566 L 361.725 896.566 L 362.351 905.315 C 362.83 911.867 363.554 914.479 365.211 915.687 Z M 470.064 915.479 C 471.279 916.944 474.899 917.31 487.934 917.31 C 496.93 917.31 504.589 916.822 504.957 916.236 C 505.767 914.918 499.496 897.505 497.79 896.334 C 495.924 895.065 470.555 895.223 467.106 896.529 L 464.074 897.664 L 466.075 904.741 C 467.167 908.634 468.652 912.221 469.364 912.709 C 470.088 913.21 470.199 913.625 469.61 913.625 C 469.02 913.637 469.229 914.467 470.064 915.479 Z M 264.175 916.517 C 265.022 916.871 273.172 917.054 282.279 916.932 L 298.848 916.7 L 299.229 910.598 C 299.449 907.243 299.29 902.716 298.873 900.531 L 298.124 896.566 L 262.641 896.566 L 262.641 906.23 C 262.641 912.807 263.132 916.09 264.175 916.517 Z M 214.468 916.407 C 219.475 917.554 244.378 917.322 246.673 916.09 C 248.809 914.967 249.14 913.551 249.14 905.669 L 249.14 896.566 L 213.891 896.566 L 213.117 902.972 C 211.853 913.381 212.111 915.858 214.468 916.407 Z M 58.373 915.004 C 58.778 915.662 66.977 916.004 77.704 915.821 L 96.323 915.479 L 97.734 911.209 C 98.507 908.853 99.342 904.729 99.575 902.057 L 100.017 897.176 L 82.134 896.834 C 66.277 896.541 64.031 896.749 62.325 898.664 C 60.189 901.08 57.256 913.21 58.373 915.004 Z M 48.628 887.157 C 49.892 887.475 57.624 887.804 65.811 887.877 C 76.403 887.987 81.042 887.584 81.889 886.498 C 83.399 884.583 85.902 874.54 85.902 870.403 L 85.902 867.279 L 52.629 867.279 L 50.15 872.844 C 46.369 881.337 45.829 886.437 48.628 887.157 Z M 385.696 887.023 C 387.635 888.256 420.982 888.329 420.921 887.109 C 420.884 886.608 419.865 882.069 418.65 877.041 L 416.441 867.89 L 381.694 867.218 L 381.694 870.135 C 381.694 875.602 384.174 886.059 385.696 887.023 Z M 262.948 858.957 C 265.575 859.323 294.933 858.75 295.375 858.323 C 295.497 858.201 295.276 853.588 294.896 848.048 L 294.196 837.993 L 260.186 837.993 L 260.186 848.28 C 260.186 858.018 260.334 858.591 262.948 858.957 Z M 437.257 886.498 C 438.116 887.584 443.32 888.024 455.483 888.024 C 456.587 888.024 457.618 888.024 458.6 888.024 C 467.106 888.048 470.923 888.06 472.003 886.352 C 472.899 884.961 471.978 882.447 470.334 877.883 C 470.101 877.237 469.855 876.553 469.597 875.821 L 466.787 867.89 L 449.248 867.548 C 432.875 867.231 431.783 867.353 432.58 869.378 C 433.047 870.574 434.016 874.564 434.741 878.262 C 435.465 881.959 436.606 885.656 437.257 886.498 Z M 336.503 886.462 C 337.448 887.584 342.247 888.024 353.649 888.024 L 354.754 888.024 C 364.29 888.024 368.488 888.024 369.924 886.047 C 371.053 884.497 370.464 881.715 369.433 876.761 L 369.286 876.041 L 367.58 867.89 L 350.09 867.548 C 340.468 867.365 332.6 867.633 332.613 868.158 C 332.649 872.038 335.448 885.193 336.503 886.462 Z M 314.632 916.395 C 315.405 916.895 323.493 917.176 332.6 917.005 L 349.169 916.7 L 348.801 908.866 C 348.531 903.35 348.482 900.275 346.923 898.603 C 344.96 896.517 340.652 896.602 330.6 896.81 C 330.133 896.822 329.655 896.822 329.164 896.834 L 312.349 897.176 L 312.791 906.328 C 313.036 911.355 313.871 915.894 314.632 916.395 Z M 312.398 858.97 C 314.399 859.445 320.118 859.58 325.113 859.275 C 330.109 858.982 336.11 858.738 338.442 858.738 C 338.676 858.738 338.897 858.738 339.105 858.738 C 340.333 858.75 341.167 858.762 341.658 858.347 C 342.689 857.481 342.1 854.699 340.234 845.986 C 340.087 845.291 339.928 844.558 339.768 843.79 L 338.528 837.993 L 306.826 837.993 L 306.949 845.01 C 307.133 855.309 308.164 857.981 312.398 858.97 Z M 114.88 916.395 C 120.047 917.127 145.257 915.931 146.411 914.906 C 146.939 914.418 147.712 910.098 148.117 905.29 L 148.853 896.566 L 132.259 896.566 C 119.618 896.566 115.322 896.968 114.254 898.249 C 113.469 899.189 112.499 903.533 112.094 907.926 L 111.345 915.894 L 114.88 916.395 Z M 165.373 916.456 C 167.227 916.749 174.824 916.919 182.25 916.846 L 195.75 916.7 L 196.573 907.572 C 197.015 902.557 197.125 898.018 196.806 897.505 C 196.487 896.993 189.061 896.566 180.31 896.566 L 164.392 896.566 L 163.201 899.702 C 162.538 901.422 161.998 905.778 161.998 909.378 C 161.998 915.577 162.182 915.955 165.373 916.456 Z M 98.655 886.267 C 99.195 887.67 102.533 888.024 115.248 888.024 C 123.999 888.024 131.449 887.584 131.781 887.035 C 132.124 886.498 132.787 881.825 133.254 876.663 L 134.113 867.279 L 118.746 867.279 C 107.946 867.279 103.012 867.731 102.14 868.805 C 100.446 870.879 97.808 884.082 98.655 886.267 Z M 361.075 859.067 C 363.296 859.348 369.973 859.653 375.901 859.763 C 388.813 859.995 389.009 859.763 386.506 847.255 L 384.763 838.604 L 369.519 838.262 C 361.136 838.067 353.809 838.384 353.232 838.957 C 352.152 840.031 353.907 851.026 355.92 855.907 C 356.656 857.7 358.35 858.738 361.075 859.067 Z M 128.553 858.982 C 135.046 859.384 152.02 858.835 154.192 858.14 C 154.965 857.896 155.972 854.223 156.438 849.976 C 156.892 845.742 157.543 841.288 157.887 840.092 C 158.463 838.079 157.334 837.945 142.152 838.262 L 125.804 838.604 L 124.38 844.705 C 123.594 848.061 122.907 852.563 122.846 854.711 C 122.723 858.506 122.858 858.616 128.553 858.982 Z M 288.011 887.109 C 288.305 887.609 295.731 888.024 304.482 888.024 C 317.062 888.024 320.548 887.658 321.063 886.303 C 321.431 885.351 321.284 880.824 320.719 876.236 L 319.713 867.89 L 286.575 867.89 L 287.016 877.041 C 287.25 882.069 287.704 886.608 288.011 887.109 Z M 166.944 857.823 C 166.92 858.323 174.309 858.738 183.342 858.738 C 184.299 858.738 185.207 858.738 186.067 858.738 C 194.634 858.762 198.389 858.762 200.022 856.92 C 201.31 855.467 201.298 852.893 201.274 848.305 C 201.274 847.707 201.274 847.097 201.274 846.438 L 201.274 837.993 L 186.852 838.018 C 178.923 838.018 171.694 838.494 170.798 839.055 C 169.534 839.86 167.251 851.001 166.944 857.823 Z M 215.793 856.81 C 216.149 858.555 218.186 858.762 232.362 858.469 L 248.527 858.128 L 248.527 838.604 L 232.362 838.262 L 216.21 837.92 L 215.793 846.364 C 215.572 851.014 215.572 855.711 215.793 856.81 Z M 241.162 867.89 L 240.451 888.024 L 273.785 888.024 L 273.074 867.89 L 241.162 867.89 Z M 405.223 859.043 C 408.352 859.58 433.55 858.664 434.348 857.981 C 434.618 857.737 433.734 853.857 432.384 849.342 L 429.917 841.117 L 422.074 839.629 C 417.754 838.811 410.414 838.115 405.775 838.067 L 397.331 837.993 L 398.178 844.302 C 399.38 853.381 401.811 858.445 405.223 859.043 Z M 33.973 859.116 C 34.734 860.324 63.221 859.726 64.485 858.481 C 65.185 857.774 69.885 840.873 69.922 838.872 C 69.934 838.347 63.196 838.067 54.949 838.262 L 39.938 838.604 L 36.612 848.292 C 34.771 853.625 33.593 858.494 33.973 859.116 Z M 146.57 886.425 C 147.086 887.743 150.498 888.024 162.894 887.755 L 178.567 887.414 L 179.574 879.104 C 180.985 867.389 180.838 867.279 163.078 867.279 C 155.051 867.279 148.497 867.694 148.485 868.195 C 148.485 868.695 147.908 872.624 147.209 876.932 C 146.497 881.227 146.214 885.498 146.57 886.425 Z M 194.339 886.169 C 194.928 887.694 197.8 888.024 210.368 888.024 C 218.788 888.024 225.943 887.597 226.275 887.072 C 226.594 886.535 226.999 882.008 227.158 877.005 L 227.465 867.89 L 195.75 867.89 L 194.695 876.102 C 194.106 880.617 193.946 885.144 194.339 886.169 Z M 79.213 851.721 L 77.532 858.738 L 109.026 858.738 L 109.688 855.382 C 110.057 853.539 110.707 848.866 111.149 845.01 L 111.959 837.993 L 107.037 837.993 C 104.337 837.993 99.722 839.079 96.777 840.41 C 93.831 841.74 89.081 842.838 86.209 842.85 C 83.337 842.862 80.968 843.289 80.944 843.79 C 80.919 844.29 80.146 847.865 79.213 851.721 Z M 488.867 886.206 C 490.745 887.511 494.832 888.024 503.472 888.024 C 503.84 888.024 504.196 888.024 504.54 888.024 C 510.849 888.024 513.978 888.036 514.948 886.596 C 515.893 885.181 514.715 882.362 512.395 876.773 C 512.26 876.468 512.125 876.151 511.99 875.821 L 508.701 867.89 L 495.519 867.548 C 482.399 867.194 482.337 867.206 482.337 870.074 C 482.337 874.943 486.117 884.302 488.867 886.206 Z M 721.831 880.495 L 731.944 890.037 L 744.549 889.952 L 757.142 889.854 L 753.398 886.01 C 746.304 878.725 727.28 870.989 716.381 870.952 L 711.705 870.94 L 721.831 880.495 Z M -19.503 745.169 C -19.429 746.902 -18.644 744.742 -17.772 740.373 C -15.956 731.343 -12.495 722.045 -7.315 712.307 C -3.989 706.06 -3.952 705.852 -6.775 709.257 C -13.575 717.469 -19.957 735.456 -19.503 745.169 Z" fill="rgb(43,36,7)" style=""/>
    <path d="M 81.3 461.924 C 76.599 456.347 70.34 447.94 67.394 443.242 C 64.448 438.544 60.778 432.845 59.257 430.588 C 54.396 423.388 41.975 397.348 36.784 383.449 C 25.639 353.651 19.724 323.413 17.686 285.829 C 15.833 251.601 23.897 200.216 36.28 167.306 C 42 152.126 61.552 114.591 65.136 111.943 C 65.59 111.614 66.989 109.625 68.253 107.55 C 76.943 93.273 104.865 65.769 121.496 55.104 C 124.539 53.152 127.301 51.26 127.632 50.882 C 127.964 50.504 132.664 47.66 138.065 44.549 C 165.054 29.027 196.634 19.155 232.89 14.909 C 247.987 13.139 300.861 12.298 311.355 13.652 C 313.932 13.994 321.002 14.872 327.077 15.629 C 367.69 20.656 412.133 39.192 443.062 64 C 453.961 72.749 472.052 91.492 480.079 102.364 C 504.172 134.969 521.355 175.543 528.817 217.495 C 543.717 301.204 523.994 386.939 474.556 453.358 C 470.42 458.922 466.873 463.01 466.676 462.436 C 466.492 461.863 468.603 455.396 471.389 448.05 C 489.493 400.277 500.748 341.058 500.748 293.541 C 500.748 246.586 488.732 204.78 469.953 186.391 C 460.809 177.434 459.644 176.617 455.998 176.617 C 452.046 176.617 452.083 177.568 456.465 186.183 C 460.576 194.274 469.18 218.178 468.296 219.057 C 467.977 219.374 462.295 217.385 455.691 214.64 C 428.321 203.255 394.042 195.482 346.715 189.905 C 315.896 186.281 254.479 185.378 226.434 188.148 C 179.5 192.773 135.733 202.327 100.937 215.543 C 93.021 218.545 88.357 219.777 88.357 218.85 C 88.357 218.044 91.671 210.711 95.721 202.547 C 103.564 186.733 104.349 183.926 100.937 183.963 C 90.333 184.097 72.991 202.669 65.651 221.766 C 57.047 244.158 53.513 267.403 53.5 301.693 C 53.488 350.808 64.129 405.292 83.178 453.614 C 86.221 461.338 89.265 468.342 89.94 469.197 C 90.615 470.051 90.861 471.051 90.505 471.417 C 90.137 471.771 85.988 467.513 81.3 461.924 Z M 254.05 561.594 C 219.365 556.847 188.349 543.754 163.226 523.229 C 146.264 509.379 134.947 496.725 123.496 478.837 C 116.071 467.232 104.804 445.243 100.25 433.48 C 95.022 419.972 86.798 392.064 87.338 389.685 C 87.645 388.355 90.124 389.05 98.065 392.748 C 129.265 407.269 167.349 410.039 205.176 400.545 C 209.006 399.581 222.814 394.59 235.86 389.441 C 257.916 380.728 260.358 380.033 270.803 379.471 C 284.721 378.715 293.804 380.753 316.031 389.612 C 347.721 402.241 364.499 406.012 389.132 406.024 C 411.752 406.024 434.471 400.85 458.097 390.295 C 462.651 388.269 466.382 387.086 466.382 387.672 C 466.382 389.722 462.479 404.267 459.324 413.956 C 447.014 451.796 425.278 488.513 400.767 512.833 C 388.212 525.304 384.161 528.696 374.33 535.005 C 338.884 557.714 295.632 567.28 254.05 561.594 Z M 292.908 533.663 C 313.417 528.232 332.404 514.163 345.316 494.822 C 352.029 484.767 360.51 466.183 362.842 456.408 C 367.825 435.493 359.197 427.183 337.51 432.015 C 333.116 432.992 323.383 435.225 315.871 436.97 C 296.43 441.509 286.182 442.766 269.392 442.693 C 254.639 442.632 246.906 441.497 214.958 434.749 C 197.248 431.003 192.805 431.576 190.129 437.97 C 185.232 449.746 192.719 476.713 206.465 496.774 C 219.107 515.249 242.918 531.246 262.641 534.529 C 269.76 535.713 287.041 535.224 292.908 533.663 Z M 261.942 632.454 C 250.527 629.513 238.966 624.364 229.895 618.189 C 227.072 616.261 224.409 614.687 223.98 614.687 C 221.733 614.687 192.792 591.722 182.25 581.582 C 176.849 576.384 171.302 571.136 169.915 569.916 C 168.528 568.708 164.453 564.144 160.857 559.776 C 157.261 555.407 153.284 550.856 152.02 549.66 C 149.639 547.403 148.78 543.18 150.977 544.535 C 151.664 544.962 151.848 545.902 151.394 546.622 C 150.915 547.403 151.136 547.598 151.946 547.11 C 153.309 546.268 156.021 547.756 172.431 558.373 C 182.851 565.121 193.308 570.758 195.419 570.77 C 196.278 570.783 200.022 572.21 203.728 573.967 C 210.638 577.213 219.684 579.788 238.094 583.705 C 251.472 586.56 304.518 586.988 315.417 584.34 C 339.449 578.495 360.658 570.441 376.503 561.167 C 383.216 557.226 402.756 544.12 403.811 542.851 C 404.155 542.424 406.29 540.435 408.561 538.421 L 412.673 534.761 L 410.697 538.653 C 404.584 550.648 374.686 583.363 358.596 595.664 C 353.244 599.751 345.537 605.84 341.462 609.196 C 320.229 626.658 312.656 631.026 298.173 634.114 C 288.17 636.237 274.203 635.602 261.942 632.454 Z M 479.649 519.203 C 477.845 518.641 476.286 518.336 475.071 518.324 C 473.439 518.3 472.445 518.617 472.85 519.019 C 473.599 519.776 461.202 536.359 444.24 557.299 C 433.28 570.819 407.677 596.908 397.036 605.413 C 392.986 608.647 386.346 614.382 382.271 618.177 C 378.196 621.96 371.912 627.537 368.304 630.551 C 364.696 633.565 361.112 636.603 360.363 637.274 C 359.602 637.957 356.497 640.422 353.465 642.765 C 345.512 648.867 345.819 648.622 341.805 651.966 C 331.201 660.764 304.273 668.33 283.506 668.342 C 269.883 668.342 262.199 666.951 243.053 660.996 C 232.988 657.872 212.933 649.001 209.251 646.036 C 208.576 645.499 206.207 643.973 203.974 642.668 C 201.752 641.35 200.206 639.824 200.549 639.275 C 200.881 638.726 200.414 638.275 199.494 638.275 C 198.573 638.275 193.271 635.029 187.699 631.063 C 161.912 612.662 130.725 580.191 107.381 547.415 C 105.356 544.572 99.698 536.896 94.801 530.368 C 89.904 523.839 85.902 518.202 85.902 517.836 C 85.902 517.482 89.351 516.994 93.573 516.75 L 100.79 516.347 C 104.337 517.006 105.761 518.58 107.995 522.217 C 125.214 550.197 135.512 564.657 147.245 577.384 C 154.499 585.23 170.823 600.837 178.567 607.317 C 181.943 610.136 186.275 613.772 188.202 615.395 C 190.129 617.018 191.933 618.348 192.203 618.348 C 192.878 618.348 211.276 631.856 213.326 633.845 C 214.222 634.724 215.695 635.432 216.603 635.432 C 217.511 635.432 218.432 635.846 218.665 636.347 C 219.193 637.543 231.074 643.375 232.264 643.022 C 232.767 642.875 233.185 643.18 233.185 643.717 C 233.185 644.242 234.154 644.754 235.333 644.852 C 236.511 644.95 240.794 646.548 244.845 648.415 C 248.895 650.282 252.859 651.832 253.657 651.868 C 254.455 651.905 255.51 652.344 256.013 652.832 C 256.504 653.333 258.382 653.735 260.186 653.735 C 261.991 653.735 263.795 654.065 264.212 654.48 C 265.489 655.749 278.413 656.273 297.928 655.834 C 300.124 655.785 301.916 655.358 301.916 654.882 C 301.916 654.394 303.978 653.626 306.494 653.15 C 310.974 652.32 330.146 644.23 331.373 642.668 C 331.717 642.228 334.613 640.727 337.829 639.324 C 341.044 637.921 344.002 635.92 344.407 634.882 C 344.812 633.845 345.77 632.991 346.555 632.991 C 347.328 632.991 348.654 631.893 349.501 630.551 C 350.335 629.208 351.796 628.11 352.729 628.11 C 353.662 628.11 354.754 627.292 355.134 626.28 C 355.527 625.267 356.693 624.449 357.724 624.449 C 358.755 624.449 359.602 623.9 359.602 623.229 C 359.602 622.558 360.375 622.009 361.308 622.009 C 362.253 622.009 363.345 621.191 363.726 620.178 C 364.119 619.166 365.248 618.348 366.23 618.348 C 367.224 618.348 369.212 616.701 370.648 614.687 C 372.084 612.674 373.925 611.027 374.723 611.027 C 375.521 611.027 379.792 607.317 384.21 602.79 C 388.629 598.263 394.299 593.016 396.815 591.124 C 399.331 589.233 401.123 587.268 400.804 586.756 C 400.485 586.243 403.762 582.619 408.107 578.714 C 412.44 574.822 415.704 571.185 415.373 570.636 C 415.042 570.099 415.901 569.062 417.288 568.318 C 418.674 567.573 419.509 566.499 419.153 565.914 C 418.785 565.328 419.853 563.778 421.534 562.473 C 423.203 561.167 424.234 559.764 423.817 559.361 C 423.412 558.946 423.977 558.263 425.094 557.848 C 426.198 557.421 427.106 556.298 427.106 555.334 C 427.106 554.382 427.929 553.284 428.935 552.894 C 429.954 552.515 430.531 551.808 430.236 551.332 C 429.942 550.856 431.071 548.989 432.74 547.183 C 434.421 545.389 435.379 543.913 434.863 543.913 C 434.348 543.913 435.158 543.046 436.667 541.997 C 438.189 540.947 439.134 539.617 438.779 539.044 C 438.423 538.47 438.999 537.14 440.067 536.079 C 441.135 535.017 441.552 534.138 441 534.126 C 440.448 534.126 440.816 533.589 441.835 532.955 C 442.853 532.32 443.749 531.234 443.823 530.539 C 443.909 529.843 444.056 528.806 444.142 528.232 C 444.216 527.671 445.345 525.987 446.634 524.511 C 447.935 523.034 449.726 520.74 450.622 519.422 C 452.022 517.384 453.85 516.994 462.7 516.811 C 470.567 516.64 473.513 516.957 479.649 519.203 Z M 388.685 818.583 C 386.525 818.083 326.856 818.262 275.909 818.323 C 223.943 818.384 160.33 818.213 159.9 818.225 C 161.878 814.55 187.076 807.635 194.696 803.276 C 200.668 799.86 197.469 800.617 199.322 797.872 C 198.266 799.531 204.207 796.822 223.992 795.358 C 235.455 794.504 252.577 793.735 262.027 793.637 C 282.033 793.43 349.967 795.309 351.317 796.102 C 352.594 796.859 352.508 796.322 350.299 790.257 C 349.599 788.341 349.096 785.474 348.777 782.057 C 349.832 791.685 352.876 798.079 358.816 804.058 C 363.321 808.573 388.139 817.547 388.685 818.583 Z M -28.953 779.665 C -28.855 779.726 -28.757 779.787 -28.671 779.836 C -29.211 779.592 -29.923 779.238 -30.819 778.775 C -38.968 774.65 -46.124 768.537 -52.788 760.007 C -56.495 755.26 -59.956 751.368 -60.459 751.368 C -60.963 751.356 -61.38 750.538 -61.38 749.525 C -61.38 748.512 -61.969 747.695 -62.681 747.695 C -63.393 747.695 -63.638 747.146 -63.221 746.475 C -62.804 745.803 -63.086 745.254 -63.835 745.254 C -64.583 745.254 -64.866 744.705 -64.448 744.034 C -64.031 743.363 -64.313 742.814 -65.062 742.814 C -65.808 742.814 -66.091 742.265 -65.673 741.593 C -65.258 740.922 -65.538 740.373 -66.287 740.373 C -67.036 740.373 -67.318 739.824 -66.901 739.153 C -66.483 738.482 -66.704 737.933 -67.404 737.933 C -68.091 737.933 -68.324 737.054 -67.907 735.98 C -67.502 734.907 -67.797 733.637 -68.582 733.149 C -68.938 732.93 -69.417 731.734 -69.908 729.977 C -69.159 731.404 -68.116 731.905 -66.483 732.234 C -64.694 732.6 -60.754 735.138 -57.735 737.872 C -54.703 740.617 -49.205 743.924 -45.461 745.254 C -41.73 746.572 -37.152 748.464 -35.299 749.452 C -31.936 751.233 -31.923 751.221 -31.923 747.28 C -31.923 744.583 -31.31 741.105 -30.242 737.201 C -31.408 741.984 -31.899 746.499 -31.874 751.307 C -31.825 758.543 -29.898 771.661 -28.156 777.2 C -28.303 776.883 -28.487 776.542 -28.683 776.175 C -30.537 772.722 -30.537 772.722 -30.365 775.761 C -30.279 777.445 -29.641 779.189 -28.953 779.665 Z M 580.17 737.689 C 580.599 739.556 580.955 741.41 581.213 743.241 C 581.679 746.499 582.416 748.695 582.833 748.122 C 583.25 747.536 585.803 746.304 588.503 745.364 C 591.203 744.424 598.506 741.191 604.741 738.189 C 611.995 734.675 615.309 733.064 616.646 729.123 C 616.499 730.172 616.327 731.112 616.131 731.954 C 614.486 738.97 607.466 754.04 604.434 757.042 C 603.44 758.042 602.618 759.312 602.618 759.861 C 602.618 760.947 593.069 770.294 587.779 774.394 C 581.507 779.238 581.471 779.153 581.188 757.457 C 581.065 748.488 580.881 742.57 580.17 737.689 Z M -44.381 632.918 C -48.125 639.275 -51.524 645.56 -54.679 651.905 C -59.981 662.607 -64.019 672.234 -66.888 681.081 C -62.313 666.414 -54.789 650.306 -44.381 632.918 Z M 206.809 773.247 C 208.159 751.624 200.169 723.753 183.501 697.152 C 200.328 723.997 208.343 751.478 206.809 773.247 Z M 100.545 516.298 L 92.604 516.079 C 85.289 515.883 77.409 517.226 69.1 520.057 C 77.176 517.275 84.871 515.847 91.99 515.859 C 95.844 515.871 98.532 515.944 100.545 516.298 Z M -22.866 717.969 C -19.122 710.123 -14.606 702.509 -10.175 697.054 C -9.033 695.651 -7.487 694.016 -5.756 692.32 C -11.93 698.628 -17.109 706.365 -22.178 716.578 C -22.412 717.054 -22.645 717.518 -22.866 717.969 Z M 571.652 715.7 C 564.288 701.923 553.131 689.318 542.551 682.838 C 554.321 690.05 565.392 703.265 572.756 717.762 C 572.4 717.103 572.032 716.407 571.652 715.7 Z M 348.544 765.62 C 348.801 760.398 349.366 755.187 350.213 750.745 C 350.532 749.098 350.876 747.475 351.231 745.852 C 349.845 752.466 348.936 759.092 348.544 765.62 Z M 362.339 712.466 C 368.5 699.08 376.331 687.256 385.56 677.567 C 376.38 687.195 368.476 699.263 362.339 712.466 Z M 612.621 688.183 C 607.711 671.88 598.653 653.137 584.919 630.551 C 598.764 653.308 607.748 671.88 612.621 688.183 Z M 495.605 526.658 C 505.632 532.332 516.139 539.886 522.754 546.463 C 516.028 539.788 505.387 532.259 495.605 526.658 Z M -27.333 779.36 C -27.039 780.129 -27.063 780.41 -27.689 780.239 C -27.333 780.239 -27.223 779.946 -27.333 779.36 Z M -71.663 720.8 C -71.884 719.007 -72.031 717.164 -72.105 715.297 C -72.068 715.932 -72.031 716.566 -71.97 717.188 C -71.871 718.506 -71.761 719.702 -71.663 720.8 Z" fill="rgb(45,71,40)" style=""/>
    <path d="M 479.649 519.203 C 480.656 519.569 481.736 519.996 482.951 520.472 C 486.817 521.997 491.162 524.145 495.605 526.658 C 505.387 532.259 516.016 539.788 522.742 546.451 L 522.766 546.475 C 538.967 562.582 564.999 597.799 584.919 630.551 C 598.764 653.308 607.748 671.88 612.621 688.183 C 615.198 696.81 616.634 704.803 617.015 712.429 C 617.358 719.153 617.223 724.913 616.646 729.123 C 615.309 733.064 611.995 734.675 604.741 738.189 C 598.506 741.191 591.203 744.424 588.503 745.364 C 585.803 746.304 583.25 747.536 582.833 748.122 C 582.416 748.695 581.679 746.499 581.213 743.241 C 580.955 741.41 580.599 739.556 580.17 737.689 C 579.163 730.819 577.113 726.047 572.756 717.762 C 565.392 703.265 554.321 690.05 542.551 682.838 C 537.801 679.922 533.898 677.201 533.898 676.81 C 533.886 675.785 548.148 673.503 563.956 671.99 C 578.439 670.599 582.231 668.927 579.777 664.998 C 577.862 661.935 571.063 657.616 565.945 656.2 C 556.531 653.601 536.599 655.102 516.077 659.971 L 505.031 662.582 L 495.826 658.702 C 490.769 656.566 486.179 654.37 485.639 653.833 C 484.129 652.344 492.573 646.231 505.988 639.117 C 512.579 635.615 518.483 631.82 519.096 630.673 C 521.023 627.073 518.544 625.255 510.947 624.718 C 505.056 624.291 501.999 624.876 493.801 628.025 C 483.295 632.051 472.469 638.433 464.811 645.12 C 461.067 648.391 459.484 649.013 456.244 648.5 C 447.861 647.183 426.444 651.307 413.151 656.823 C 408.254 658.848 416.674 647.231 429.561 634.175 C 443.492 620.056 449.039 616.42 471.132 606.89 C 483.11 601.716 488.474 598.433 488.474 596.286 C 488.474 593.296 484.178 591.502 477.011 591.502 C 462.196 591.502 443.614 598.739 425.265 611.637 C 414.857 618.97 399.258 635.59 395.723 643.144 C 392.532 649.953 391.722 660.532 394.042 664.864 C 395.171 666.963 394.042 668.647 385.573 677.555 L 385.56 677.567 C 376.38 687.195 368.476 699.263 362.339 712.466 C 357.405 723.082 353.613 734.431 351.231 745.852 L 351.231 745.864 C 350.876 747.475 350.532 749.11 350.213 750.745 C 349.366 755.187 348.801 760.398 348.544 765.62 C 348.396 768 348.323 770.367 348.323 772.71 C 348.323 776.151 348.458 779.25 348.777 782.057 L 348.777 782.069 C 349.096 785.474 349.599 788.341 350.299 790.257 C 352.508 796.322 352.594 796.859 351.317 796.102 C 349.967 795.309 282.033 793.43 262.027 793.637 C 252.577 793.735 235.455 794.504 223.992 795.358 C 204.207 796.822 193.986 804.447 195.042 802.788 C 199.46 796.284 206.207 782.936 206.809 773.247 C 208.343 751.478 200.328 723.997 183.501 697.152 C 178.089 688.525 168.773 678.677 159.237 671.539 C 154.806 668.22 154.634 667.805 154.585 660.605 C 154.487 647.024 150.461 639.922 133.008 622.546 C 121.655 611.234 113.407 605.45 99.268 598.873 C 89.842 594.48 73.972 590.282 66.817 590.282 C 61.147 590.282 55.415 593.736 56.961 596.225 C 57.465 597.03 64.583 601.033 72.807 605.12 C 92.555 614.968 105.491 623.583 116.058 633.931 C 123.496 641.228 133.192 653.516 132.235 654.443 C 132.063 654.602 127.78 653.369 122.723 651.71 C 115.96 649.477 109.701 648.488 99.158 647.976 L 84.798 647.28 L 79.52 642.607 C 67.762 632.186 45.191 623.229 30.696 623.229 C 21.442 623.229 19.196 624.632 19.846 630.014 C 20.202 632.979 21.43 633.687 33.372 637.86 C 46.161 642.326 54.2 646.28 60.017 650.953 L 62.877 653.259 L 52.764 657.86 C 44.234 661.728 42.147 662.253 39.423 661.179 C 26.143 655.944 2.467 652.32 -8.051 653.918 C -16.447 655.187 -24.964 660.312 -25.566 664.461 C -25.787 665.95 -25.59 667.158 -25.149 667.158 C -19.527 667.158 13.562 675.456 13.415 676.835 C 13.378 677.213 9.401 680.276 4.566 683.632 C 0.798 686.255 -2.614 689.098 -5.756 692.32 C -7.487 694.016 -9.033 695.651 -10.175 697.054 C -14.606 702.509 -19.122 710.123 -22.866 717.969 C -26.474 725.389 -28.843 731.478 -30.242 737.201 C -31.31 741.105 -31.923 744.583 -31.923 747.28 C -31.923 751.221 -31.936 751.233 -35.299 749.452 C -37.152 748.464 -41.73 746.572 -45.461 745.254 C -49.205 743.924 -54.703 740.617 -57.735 737.872 C -60.754 735.138 -64.694 732.6 -66.483 732.234 C -68.116 731.905 -69.159 731.404 -69.908 729.977 C -70.46 727.963 -71.037 725.218 -71.454 722.301 C -71.528 721.801 -71.601 721.301 -71.663 720.8 C -71.761 719.702 -71.871 718.506 -71.97 717.188 C -72.031 716.566 -72.068 715.932 -72.105 715.297 C -72.522 704.986 -70.767 693.552 -66.888 681.081 C -64.019 672.234 -59.981 662.607 -54.679 651.905 C -51.524 645.56 -48.125 639.275 -44.381 632.918 C -33.924 615.419 -20.546 596.628 -4.32 576.676 C 9.88 559.215 17.858 551.198 30.671 541.521 C 43.988 531.466 56.986 524.23 69.1 520.057 C 77.409 517.226 85.289 515.883 92.604 516.079 L 100.545 516.298 C 100.631 516.311 100.717 516.323 100.79 516.347 L 93.573 516.75 C 89.351 516.994 85.902 517.482 85.902 517.836 C 85.902 518.202 89.904 523.839 94.801 530.368 C 99.698 536.896 105.356 544.572 107.381 547.415 C 130.725 580.191 161.912 612.662 187.699 631.063 C 193.271 635.029 198.573 638.275 199.494 638.275 C 200.414 638.275 200.881 638.726 200.549 639.275 C 200.206 639.824 201.752 641.35 203.974 642.668 C 206.207 643.973 208.576 645.499 209.251 646.036 C 212.933 649.001 232.988 657.872 243.053 660.996 C 262.199 666.951 269.883 668.342 283.506 668.342 C 304.273 668.33 331.201 660.764 341.805 651.966 C 345.819 648.622 345.512 648.867 353.465 642.765 C 356.497 640.422 359.602 637.957 360.363 637.274 C 361.112 636.603 364.696 633.565 368.304 630.551 C 371.912 627.537 378.196 621.96 382.271 618.177 C 386.346 614.382 392.986 608.647 397.036 605.413 C 407.677 596.908 433.28 570.819 444.24 557.299 C 461.202 536.359 473.599 519.776 472.85 519.019 C 472.445 518.617 473.439 518.3 475.071 518.324 C 476.286 518.336 477.845 518.641 479.649 519.203 Z M 234.375 756.871 C 241.899 752.991 242.488 736.249 235.787 716.822 C 230.521 701.594 217.634 677.567 212.013 672.515 C 206.833 667.866 201.114 667.036 197.383 670.392 C 193.922 673.516 194.67 677.335 200.5 686.34 C 212.111 704.229 220.187 724.656 223.734 745.096 C 224.937 752.039 226.189 755.639 227.797 756.859 C 229.11 757.835 229.724 758.372 230.399 758.47 C 231.098 758.555 231.884 758.152 233.614 757.262 C 233.847 757.14 234.093 757.005 234.375 756.871 Z M 323.567 752.014 C 324.978 751.038 326.733 748.695 327.47 746.828 C 328.206 744.961 330.821 738.201 333.275 731.831 C 339.314 716.151 347.292 700.654 355.355 688.94 C 362.167 679.043 362.904 675.7 359.283 671.124 C 353.919 664.352 335.767 682.387 324.635 705.547 C 315.025 725.559 310.348 747.365 314.742 751.722 C 317.295 754.272 320.192 754.357 323.567 752.014 Z M -19.503 745.169 C -19.957 735.456 -13.575 717.469 -6.775 709.257 C -3.952 705.852 -3.989 706.06 -7.315 712.307 C -12.495 722.045 -15.956 731.343 -17.772 740.373 C -18.644 744.742 -19.429 746.902 -19.503 745.169 Z M -28.953 779.665 C -29.641 779.189 -30.279 777.445 -30.365 775.761 C -30.537 772.722 -30.537 772.722 -28.683 776.175 C -28.487 776.542 -28.303 776.883 -28.156 777.2 C -27.984 777.762 -27.8 778.238 -27.64 778.628 C -27.517 778.909 -27.407 779.153 -27.333 779.36 C -27.223 779.946 -27.333 780.239 -27.689 780.239 C -27.922 780.166 -28.254 780.031 -28.671 779.836 C -28.757 779.787 -28.855 779.726 -28.953 779.665 Z" style="" fill="rgb(84,106,50)"/>
    <path d="M 147.086 382.864 C 133.941 381.229 119.237 376.97 107.381 371.357 C 95.169 365.573 81.337 355.811 79.741 351.845 C 76.304 343.291 74.856 289.758 77.397 265.439 C 78.968 250.491 78.771 250.723 96.335 242.437 C 131.008 226.086 181.292 214.762 237.1 210.735 C 259.192 209.149 326.844 209.881 343.033 211.882 C 390.801 217.812 437.072 229.856 462.074 242.876 C 476.925 250.613 475.943 247.709 476.974 287.05 C 477.551 308.904 477.281 319.032 475.71 332.809 L 473.709 350.503 L 468.726 355.018 C 457.078 365.585 440.202 374.151 420.466 379.532 C 411.789 381.888 407.665 382.217 387.831 382.132 C 360.989 382.01 356.35 381.021 325.85 368.855 C 299.425 358.312 294.921 357.116 279.21 356.384 C 261.217 355.542 253.35 357.336 224.446 368.867 C 210.798 374.31 196.499 379.118 190.141 380.423 C 176.726 383.144 157.973 384.218 147.086 382.864 Z M 81.398 822.521 C 77.041 821.642 73.04 816.651 69.505 807.695 C 59.416 782.142 40.981 755.016 33.703 755.016 C 31.064 755.016 26.989 759.507 26.989 762.411 C 26.989 763.802 30.561 770.904 34.918 778.201 C 44.16 793.698 51.536 807.939 51.536 810.318 C 51.536 812.844 47.413 816.029 44.16 816.029 C 35.912 816.029 19.257 802.862 11.549 790.245 C 9.119 786.255 7.008 782.326 6.873 781.52 C 6.738 780.703 6.026 778.933 5.302 777.591 C -2.074 763.875 1.448 735.846 13.034 716.188 C 23.761 697.994 54.114 676.945 77.52 671.453 C 89.413 668.671 106.915 669.086 116.586 672.381 C 134.555 678.519 153.48 692.369 163.68 706.865 C 175.99 724.351 184.299 747.194 186.079 768.415 C 186.828 777.359 186.656 778.409 183.636 783.534 C 181.047 787.926 178.752 789.842 172.32 792.991 C 163.729 797.2 162.06 796.847 162.023 790.843 C 161.974 785.645 155.8 764.681 151.21 754.174 C 148.632 748.256 144.202 739.665 141.366 735.065 C 138.544 730.465 136.224 726.487 136.224 726.231 C 136.224 725.633 132.235 720.849 125.89 713.845 C 121.68 709.208 120.514 708.573 116.697 708.891 C 113.235 709.184 112.094 709.928 111.186 712.515 C 110.192 715.37 111.137 717.603 118.709 730.209 C 130.468 749.806 134.383 757.859 139.464 772.978 C 148.78 800.654 145.22 817.579 130.087 817.579 C 121.287 817.579 119.213 814.967 112.205 795.053 C 105.307 775.468 99.894 764.156 91.143 750.977 C 87.927 746.157 85.019 741.642 84.687 740.959 C 83.178 737.957 71.309 728.171 69.174 728.171 C 65.369 728.171 61.355 731.685 61.355 735.004 C 61.355 736.822 64.804 742.826 69.898 749.879 C 85.375 771.319 96.949 796.883 96.949 809.61 C 96.949 814.528 96.359 816.127 93.573 818.762 C 90.014 822.13 85.829 823.424 81.398 822.521 Z M 465.535 822.179 C 460.38 819.995 458.637 815.553 459.3 806.255 C 459.644 801.581 460.613 796.932 461.46 795.907 C 462.307 794.894 462.7 794.064 462.344 794.064 C 461.165 794.064 468.885 775.346 473.414 767.219 C 475.845 762.85 481.061 754.553 485.001 748.756 C 492.598 737.591 493.298 735.212 490.241 730.88 C 486.891 726.133 482.288 727.317 475.219 734.736 C 460.957 749.733 451.015 768.842 443.025 796.639 C 437.968 814.223 434.9 818.36 426.861 818.433 C 414.109 818.543 409.42 809.232 412.39 789.72 C 414.894 773.271 419.435 760.154 430.383 737.652 C 440.791 716.261 440.89 715.968 438.815 712.832 C 433.341 704.522 421.694 716.224 408.672 743.143 C 401.749 757.42 397.171 772.283 395.06 787.316 C 393.342 799.543 393.195 799.616 381.584 793.759 C 368.108 786.962 366.34 781.837 370.071 760.361 C 376.589 722.814 392.286 695.505 415.692 680.996 C 444.068 663.412 471.168 666.072 508.909 690.148 C 522.521 698.824 533.591 710.575 539.888 723.033 C 548.467 739.983 551.842 760.141 548.516 774.504 C 544.969 789.793 532.413 806.303 519.305 812.905 C 511.757 816.7 507.547 816.358 505.436 811.77 C 504.245 809.171 504.97 807.036 511.155 795.016 C 515.046 787.451 520.054 778.238 522.275 774.54 C 527.676 765.571 528.523 761.862 526.019 758.055 C 521.735 751.563 515.022 755.041 505.988 768.439 C 501.472 775.15 491.371 795.065 486.13 807.621 C 483.994 812.722 480.975 818.103 479.404 819.568 C 476.151 822.594 469.499 823.851 465.535 822.179 Z M 196.745 359.215 C 202.476 356.836 211.301 346.488 214.161 338.813 C 215.94 334.017 216.615 329.185 216.615 321.217 C 216.615 311.833 216.137 309.209 213.302 303.193 C 211.473 299.325 209.988 295.848 210 295.469 C 210.098 292.675 194.364 284.036 189.147 284.011 C 174.885 283.95 162.452 297.178 159.47 315.579 C 156.401 334.505 167.079 356.506 181.022 359.984 C 185.858 361.18 192.829 360.85 196.745 359.215 Z M 376.76 358.215 C 395.011 349.88 401.123 316.897 388.003 297.47 C 375.275 278.642 352.52 280.668 341.413 301.619 C 338.43 307.22 338.136 309.038 338.123 321.217 C 338.123 333.395 338.442 335.335 341.609 342.132 C 349.292 358.666 362.499 364.706 376.76 358.215 Z M 262.874 513.98 C 251.62 511.552 239.174 505.438 233.234 499.422 L 228.091 494.212 L 234.007 490.624 C 250.981 480.374 269.883 477.067 292.098 480.484 C 300.873 481.838 322.781 491.698 322.781 494.309 C 322.781 496.64 315.638 502.985 307.636 507.769 C 295.141 515.212 278.977 517.458 262.874 513.98 Z M 229.085 265.024 C 230.313 261.827 225.784 253.822 219.451 248.026 C 216.137 244.987 212.946 242.51 212.369 242.51 C 211.78 242.51 211.117 242.083 210.884 241.571 C 210.196 239.972 194.879 233.041 187.773 231.113 C 159.273 223.34 129.51 231.406 122.171 248.88 C 118.034 258.74 120.391 260.411 132.161 255.97 C 135.659 254.64 143.662 252.943 149.958 252.175 C 170.258 249.722 191.099 252.968 212.32 261.9 C 225.182 267.306 227.993 267.831 229.085 265.024 Z M 343.278 261.558 C 365.027 252.785 370.746 251.674 394.582 251.687 C 414.477 251.699 415.839 251.857 423.952 255.067 C 430.568 257.678 432.679 258.081 433.476 256.873 C 436.213 252.724 429.659 240.765 421.755 235.506 C 413.323 229.893 405.321 227.867 391.489 227.867 C 370.145 227.867 351.256 234.823 336.466 248.123 C 328.44 255.347 325.064 261.937 327.728 265.134 C 328.55 266.11 329.397 266.915 329.63 266.915 C 329.851 266.915 335.988 264.511 343.278 261.558 Z" fill="rgb(250,161,75)" style=""/>
    <path d="M 4.914 511.884 L 4.914 -0.116 L 516.914 -0.116 L 1028.91 -0.116 L 1028.91 511.884 L 1028.91 1023.88 L 516.914 1023.88 L 4.914 1023.88 L 4.914 511.884 Z M 782.544 915.174 C 787.444 912.554 792.374 907.824 794.504 903.714 C 796.924 899.034 798.264 883.714 796.924 876.034 C 795.834 869.764 786.364 848.764 757.184 787.884 C 749.084 770.984 745.584 766.334 738.864 763.504 L 736.154 762.364 L 739.284 758.784 C 741.984 755.694 743.214 755.104 748.154 754.534 C 767.964 752.244 788.614 738.014 800.054 718.764 C 813.034 696.914 814.394 669.324 803.834 641.884 C 796.784 623.554 779.744 593.154 764.594 571.884 C 737.144 533.334 721.594 516.964 703.054 507.084 C 694.474 502.514 682.024 497.884 678.294 497.884 C 677.054 497.884 675.824 497.544 675.564 497.134 C 675.314 496.714 678.194 492.584 681.984 487.944 C 704.184 460.734 721.604 428.344 732.294 394.384 C 741.354 365.594 745.694 324.564 742.964 293.384 C 734.724 199.084 684.264 126.734 606.544 97.784 C 582.884 88.964 558.924 84.904 526.104 84.164 C 474.534 82.984 438.094 89.814 403.164 107.184 C 348.784 134.224 310.504 183.854 293.854 248.884 C 288.014 271.714 286.534 285.334 286.484 316.884 C 286.444 339.634 286.794 347.704 288.234 356.884 C 294.714 398.154 307.784 432.974 329.244 466.134 C 333.564 472.814 340.294 481.874 351.034 495.474 C 351.624 496.214 349.314 497.424 343.904 499.204 C 327.224 504.704 307.804 515.964 294.964 527.574 C 282.014 539.294 257.054 571.114 241.924 595.204 C 209.724 646.454 204.584 685.744 225.844 718.144 C 232.014 727.544 238.514 734.664 246.214 740.454 C 257.374 748.844 274.114 755.954 286.104 757.414 C 289.584 757.834 292.424 758.794 293.404 759.874 C 294.934 761.564 294.504 761.674 284.704 762.034 C 275.634 762.374 273.814 762.754 269.684 765.174 C 267.094 766.684 263.894 769.384 262.554 771.154 C 258.364 776.734 212.094 867.144 210.834 872.234 C 210.054 875.364 209.824 881.074 210.184 888.344 C 210.824 901.464 212.434 905.604 219.094 911.314 C 227.234 918.274 204.224 917.774 505.414 917.564 L 778.414 917.384 L 782.544 915.174 Z M 904.074 905.434 C 921.894 901.664 935.464 890.424 940.064 875.644 C 949.824 844.284 922.704 804.904 883.414 793.374 C 858.484 786.064 828.904 790.844 815.374 804.364 C 801.504 818.234 800.364 842.994 812.634 863.784 C 817.414 871.874 828.374 883.684 836.464 889.464 C 844.914 895.484 859.784 902.334 868.914 904.394 C 873.034 905.324 876.864 906.224 877.414 906.404 C 880.264 907.324 898.284 906.664 904.074 905.434 Z M 894.284 720.814 C 897.604 718.204 897.764 714.004 894.664 711.204 C 893.424 710.094 883.034 704.354 871.584 698.444 C 849.224 686.924 847.524 686.494 844.264 691.474 C 840.764 696.824 842.434 698.304 866.434 711.064 C 878.524 717.494 889.144 722.784 890.034 722.824 C 890.914 722.854 892.834 721.954 894.284 720.814 Z M 163.154 709.224 C 174.294 703.354 184.204 697.884 185.164 697.064 C 187.374 695.184 187.424 690.104 185.264 687.714 C 182.294 684.434 178.414 685.574 161.124 694.804 C 151.934 699.704 142.314 704.724 139.754 705.954 C 135.704 707.904 132.914 711.094 132.914 713.794 C 132.914 716.134 137.264 719.884 139.984 719.884 C 141.764 719.884 150.824 715.714 163.154 709.224 Z M 920.284 668.814 C 921.724 667.674 922.914 665.734 922.914 664.504 C 922.914 659.164 923.014 659.194 870.854 643.824 C 857.894 640.004 845.864 636.884 844.124 636.884 C 837.854 636.884 835.844 645.534 841.514 648.114 C 843.624 649.074 915.104 670.554 917.034 670.804 C 917.364 670.844 918.834 669.954 920.284 668.814 Z M 156.114 657.424 C 181.204 650.374 193.794 646.394 194.654 645.234 C 198.294 640.254 194.544 634.364 188.214 635.114 C 186.124 635.364 168.664 639.974 149.414 645.364 C 113.134 655.504 110.914 656.434 110.914 661.424 C 110.914 663.794 115.084 667.884 117.504 667.884 C 118.234 667.884 135.604 663.174 156.114 657.424 Z M 219.234 594.734 C 220.434 594.104 221.744 593.094 222.144 592.484 C 223.454 590.524 222.954 585.594 221.264 583.714 C 219.704 581.994 216.964 581.884 175.714 581.884 L 131.824 581.884 L 129.364 584.334 C 125.714 587.994 126.604 593.014 131.234 594.874 C 134.654 596.254 216.584 596.124 219.234 594.734 Z M 896.084 594.234 C 897.124 593.284 897.914 591.204 897.914 589.384 C 897.914 582.994 898.834 583.134 851.304 582.334 L 808.194 581.604 L 806.054 583.744 C 802.584 587.214 803.734 593.064 808.234 594.874 C 809.434 595.364 829.274 595.784 852.334 595.824 C 889.994 595.874 894.444 595.714 896.084 594.234 Z M 826.554 529.954 C 872.684 518.444 873.914 517.994 873.914 512.584 C 873.914 510.274 870.254 505.884 868.324 505.884 C 864.664 505.884 777.144 528.314 775.664 529.634 C 771.774 533.104 774.994 540.884 780.314 540.884 C 781.644 540.884 802.444 535.964 826.554 529.954 Z M 250.844 534.254 C 251.984 532.804 252.914 531.064 252.914 530.384 C 252.914 527.924 248.724 523.904 245.114 522.904 C 243.074 522.334 226.564 517.644 208.414 512.474 C 150.564 496.014 149.874 495.884 146.964 501.084 C 145.574 503.584 145.614 504.014 147.524 506.584 C 148.694 508.164 151.304 509.884 153.504 510.524 C 155.654 511.144 167.984 514.644 180.914 518.294 C 193.844 521.944 213.414 527.594 224.414 530.854 C 235.414 534.104 245.394 536.794 246.594 536.824 C 247.804 536.854 249.694 535.714 250.844 534.254 Z M 771.184 491.544 C 782.864 484.204 804.564 470.874 819.414 461.914 C 834.264 452.964 847.204 444.744 848.164 443.654 C 851.724 439.604 848.844 432.884 843.544 432.884 C 841.014 432.884 821.314 444.514 774.414 473.684 C 738.374 496.094 740.914 494.224 740.914 498.374 C 740.914 502.164 743.734 504.884 747.654 504.884 C 748.914 504.884 759.504 498.884 771.184 491.544 Z M 295.164 499.074 C 297.114 497.404 297.414 494.684 295.944 491.934 C 294.994 490.164 275.114 475.364 243.914 453.214 C 203.044 424.194 204.424 425.024 200.514 427.084 C 197.724 428.544 196.944 429.844 196.934 433.064 C 196.914 436.494 198.444 437.724 232.394 461.424 C 247.244 471.784 265.364 484.694 272.674 490.114 C 289.374 502.494 290.614 502.984 295.164 499.074 Z" style="fill-opacity: 0; fill: none;"/>
    <path d="M 126.782 949.428 C 125.052 948.338 126.549 928.965 128.513 927.006 C 129.225 926.296 171.47 925.978 238.606 926.186 C 250.733 926.223 261.558 926.247 271.217 926.259 C 336.279 926.381 348.43 926.406 351.044 931.39 C 352.026 933.276 351.658 935.872 352.259 939.448 C 353.045 944.077 353.327 948.437 352.885 949.135 C 351.965 950.641 129.139 950.935 126.782 949.428 Z M 688.038 946.023 C 681.705 941.162 674.613 935.41 674.417 934.553 C 674.22 933.023 681.133 926.956 682.299 925.645 C 683.084 924.911 696.23 915.532 701.999 912.225 C 722.446 900.922 748.252 898.35 765.177 903.176 C 769.498 904.51 779.633 905.552 782.774 942.037 C 783.893 955.029 736.605 958.087 728.43 956.482 C 724.38 955.686 694.936 951.326 688.038 946.023 Z M 519.928 914.588 C 518.958 913.07 517.179 908.625 515.963 904.706 C 513.411 896.452 514.11 895.35 522.014 895.326 C 532.091 895.277 533.748 891.002 528.372 878.891 C 528.249 878.621 528.139 878.364 528.028 878.107 C 525.844 873.209 524.641 870.49 525.525 868.996 C 526.605 867.134 530.9 867.134 540.498 867.134 L 541.726 867.134 C 553.41 867.134 558.479 867.576 559.326 868.666 C 559.976 869.511 564.824 879.565 570.077 891.014 C 575.343 902.465 580.129 912.359 580.706 912.997 C 581.283 913.633 581.762 914.87 581.762 915.751 C 581.762 917.013 575.551 917.344 551.716 917.344 C 521.904 917.344 521.671 917.319 519.928 914.588 Z M 452.89 858.697 C 450.46 858.036 449.22 856.162 446.925 849.659 C 445.329 845.141 444.347 840.622 444.74 839.605 C 445.71 837.058 453.368 837.193 457.394 839.826 C 461.788 842.704 477.645 842.802 483.574 839.998 C 486.887 838.442 493.073 837.818 510.575 837.291 C 535.257 836.545 541.087 837.267 545.837 841.627 C 550.317 845.728 555.398 857.399 553.3 858.735 C 551.385 859.947 457.308 859.91 452.89 858.697 Z M -55.201 913.976 C -55.181 912.801 -53.381 908.527 -51.211 904.485 L -47.251 897.138 L 46.022 897.138 L 45.838 902.783 C 45.74 905.881 44.758 910.155 43.654 912.274 L 41.665 916.12 L -6.791 916.12 C -52.121 916.12 -55.231 915.984 -55.201 913.976 Z M 667.063 916.303 C 665.038 915.054 660.754 911.221 657.551 907.78 C 650.899 900.653 650.211 896.929 654.127 889.288 C 658.484 880.753 668.892 874.25 682.098 871.801 C 688.996 870.514 689.707 870.625 695.513 873.772 C 701.355 876.944 716.771 890.757 716.771 892.815 C 716.771 893.366 710.928 896.146 703.773 899.012 C 691.855 903.8 679.361 911.441 675.2 916.523 C 673.052 919.131 671.616 919.095 667.063 916.303 Z M -71.761 950.47 C -72.311 949.564 -70.281 943.979 -66.771 936.815 L -60.841 924.691 L -32.941 924.691 C -17.601 924.691 -4.801 925.108 -4.481 925.61 C -4.181 926.124 -4.841 931.157 -5.971 936.803 C -7.531 944.579 -8.681 947.506 -10.711 948.853 C -14.411 951.302 -70.331 952.784 -71.761 950.47 Z M 531.146 948.938 C 529.157 947.457 522.849 931.169 522.849 927.52 C 522.849 926.173 528.679 925.941 554.453 926.198 L 586.058 926.529 L 591.47 937.244 C 594.453 943.147 596.478 948.375 595.975 948.877 C 595.471 949.38 581.16 949.955 564.174 950.164 C 540.339 950.433 532.79 950.151 531.146 948.938 Z M -41.081 886.777 C -42.121 885.1 -33.661 868.824 -31.261 867.906 C -30.161 867.478 -14.311 867.134 3.939 867.134 L 37.136 867.134 L 36.461 871.262 C 36.093 873.527 34.571 878.218 33.086 881.671 L 30.374 887.953 L -4.991 887.953 C -26.231 887.953 -40.651 887.488 -41.081 886.777 Z M 7.869 948.731 C 7.039 946.6 11.649 928.5 13.469 926.675 C 15.009 925.133 45.728 924.018 52.356 925.255 C 57.007 926.124 57.069 926.455 55.08 937.905 C 52.908 950.334 52.736 950.409 28.803 950.409 C 12.759 950.409 8.379 950.053 7.869 948.731 Z M 69.403 949.282 C 68.201 947.347 72.018 926.92 73.797 925.733 C 75.491 924.606 113.416 924.778 114.558 925.917 C 115.196 926.565 113.281 946.245 112.324 948.877 C 111.649 950.727 70.533 951.106 69.403 949.282 Z M 426.882 950.8 C 424.378 950.139 421.408 942.289 420.426 933.704 C 419.837 928.635 420.083 927.275 421.666 926.663 C 422.746 926.259 431.006 925.917 440.015 925.917 C 452.264 925.917 456.817 926.345 458.081 927.594 C 459.002 928.525 460.831 933.534 462.132 938.738 C 464.451 948.057 464.451 948.229 462.132 949.919 C 460.389 951.192 455.835 951.596 444.372 951.486 C 435.891 951.412 428.024 951.106 426.882 950.8 Z M 370.007 948.265 C 367.883 943.232 366.005 928.953 367.27 927.41 C 368.227 926.247 373.222 925.941 387.091 926.186 L 405.637 926.529 L 407.048 933.264 C 407.834 936.974 408.521 942.338 408.582 945.204 L 408.705 950.409 L 389.816 950.409 C 372.989 950.409 370.817 950.176 370.007 948.265 Z M -24.531 856.444 C -24.481 852.954 -18.091 842.447 -14.341 839.679 C -11.211 837.377 -9.171 837.132 6.739 837.132 C 16.419 837.132 24.629 837.426 24.999 837.793 C 25.369 838.16 24.179 842.839 22.349 848.202 L 19.019 857.951 L -2.761 858.281 C -22.941 858.599 -24.551 858.453 -24.531 856.444 Z M 417.628 915.814 C 416.977 914.969 415.836 911.257 415.112 907.547 C 414.388 903.836 413.418 899.844 412.964 898.669 C 412.191 896.685 413.529 896.526 431.166 896.526 L 450.214 896.526 L 452.779 904.106 C 452.988 904.73 453.184 905.318 453.381 905.881 C 455.124 911 456.093 913.83 455.087 915.409 C 453.835 917.368 449.502 917.356 439.769 917.344 C 438.923 917.344 438.027 917.344 437.081 917.344 C 423.937 917.344 418.487 916.916 417.628 915.814 Z M 479.609 949.098 C 477.633 947.959 475.068 940.82 473.129 931.121 L 472.331 927.141 L 488.851 927.141 C 500.572 927.141 505.727 927.581 506.623 928.671 C 508.833 931.354 512.06 944.346 511.275 947.432 C 510.539 950.372 510.367 950.409 496.129 950.372 C 488.213 950.347 480.775 949.771 479.609 949.098 Z M 365.22 915.715 C 363.563 914.503 362.839 911.882 362.36 905.306 L 361.734 896.526 L 379.629 896.526 C 391.866 896.526 397.794 896.979 398.395 897.946 C 399.291 899.391 402.446 913.046 402.519 915.814 C 402.593 918.067 368.313 917.98 365.22 915.715 Z M 470.073 915.507 C 469.238 914.491 469.029 913.658 469.619 913.646 C 470.208 913.646 470.097 913.229 469.373 912.727 C 468.661 912.237 467.176 908.637 466.084 904.73 L 464.083 897.628 L 467.115 896.489 C 470.564 895.178 495.933 895.02 497.799 896.293 C 499.505 897.468 505.776 914.944 504.966 916.266 C 504.598 916.854 496.939 917.344 487.943 917.344 C 474.908 917.344 471.288 916.977 470.073 915.507 Z M 264.184 916.548 C 263.141 916.12 262.65 912.825 262.65 906.225 L 262.65 896.526 L 298.133 896.526 L 298.882 900.505 C 299.299 902.698 299.458 907.241 299.238 910.608 L 298.857 916.732 L 282.288 916.965 C 273.181 917.087 265.031 916.903 264.184 916.548 Z M 214.477 916.438 C 212.12 915.887 211.862 913.401 213.126 902.955 L 213.9 896.526 L 249.149 896.526 L 249.149 905.661 C 249.149 913.572 248.818 914.993 246.682 916.12 C 244.387 917.356 219.484 917.589 214.477 916.438 Z M 58.382 915.03 C 57.265 913.229 60.198 901.056 62.334 898.631 C 64.04 896.71 66.286 896.501 82.143 896.795 L 100.026 897.138 L 99.584 902.037 C 99.351 904.718 98.516 908.857 97.743 911.221 L 96.332 915.507 L 77.713 915.85 C 66.986 916.033 58.787 915.69 58.382 915.03 Z M 48.637 887.083 C 45.838 886.361 46.378 881.243 50.159 872.719 L 52.638 867.134 L 85.911 867.134 L 85.911 870.27 C 85.911 874.421 83.408 884.5 81.898 886.422 C 81.051 887.512 76.412 887.916 65.82 887.806 C 57.633 887.733 49.901 887.403 48.637 887.083 Z M 385.705 886.949 C 384.183 885.981 381.703 875.487 381.703 870.001 L 381.703 867.073 L 416.45 867.748 L 418.659 876.931 C 419.874 881.977 420.893 886.532 420.93 887.035 C 420.991 888.26 387.644 888.186 385.705 886.949 Z M 262.957 858.783 C 260.343 858.415 260.195 857.84 260.195 848.068 L 260.195 837.744 L 294.205 837.744 L 294.905 847.835 C 295.285 853.395 295.506 858.024 295.384 858.146 C 294.942 858.575 265.584 859.15 262.957 858.783 Z M 437.266 886.422 C 436.615 885.577 435.474 881.867 434.75 878.157 C 434.025 874.445 433.056 870.441 432.589 869.241 C 431.792 867.209 432.884 867.086 449.257 867.404 L 466.796 867.748 L 469.606 875.707 C 469.864 876.442 470.11 877.128 470.343 877.776 C 471.987 882.357 472.908 884.88 472.012 886.276 C 470.932 887.99 467.115 887.978 458.609 887.953 C 457.627 887.953 456.596 887.953 455.492 887.953 C 443.329 887.953 438.125 887.512 437.266 886.422 Z M 336.512 886.386 C 335.457 885.112 332.658 871.91 332.622 868.017 C 332.609 867.49 340.477 867.221 350.099 867.404 L 367.589 867.748 L 369.295 875.928 L 369.442 876.65 C 370.473 881.622 371.062 884.414 369.933 885.969 C 368.497 887.953 364.299 887.953 354.763 887.953 L 353.658 887.953 C 342.256 887.953 337.457 887.512 336.512 886.386 Z M 314.641 916.426 C 313.88 915.923 313.045 911.368 312.8 906.323 L 312.358 897.138 L 329.173 896.795 C 329.664 896.783 330.142 896.783 330.609 896.771 C 340.661 896.562 344.969 896.477 346.932 898.57 C 348.491 900.248 348.54 903.334 348.81 908.87 L 349.178 916.732 L 332.609 917.038 C 323.502 917.21 315.414 916.928 314.641 916.426 Z M 312.407 858.796 C 308.173 857.803 307.142 855.122 306.958 844.786 L 306.835 837.744 L 338.537 837.744 L 339.777 843.562 C 339.937 844.332 340.096 845.068 340.243 845.765 C 342.109 854.51 342.698 857.301 341.667 858.171 C 341.176 858.587 340.342 858.575 339.114 858.563 C 338.906 858.563 338.685 858.563 338.451 858.563 C 336.119 858.563 330.118 858.808 325.122 859.102 C 320.127 859.408 314.408 859.272 312.407 858.796 Z M 114.889 916.426 L 111.354 915.923 L 112.103 907.927 C 112.508 903.518 113.478 899.158 114.263 898.215 C 115.331 896.929 119.627 896.526 132.268 896.526 L 148.862 896.526 L 148.126 905.281 C 147.721 910.106 146.948 914.442 146.42 914.931 C 145.266 915.96 120.056 917.16 114.889 916.426 Z M 165.382 916.487 C 162.191 915.984 162.007 915.605 162.007 909.384 C 162.007 905.771 162.547 901.399 163.21 899.673 L 164.401 896.526 L 180.319 896.526 C 189.07 896.526 196.496 896.955 196.815 897.468 C 197.134 897.983 197.024 902.538 196.582 907.571 L 195.759 916.732 L 182.259 916.878 C 174.833 916.952 167.236 916.781 165.382 916.487 Z M 98.664 886.19 C 97.817 883.997 100.455 870.747 102.149 868.666 C 103.021 867.588 107.955 867.134 118.755 867.134 L 134.122 867.134 L 133.263 876.552 C 132.796 881.732 132.133 886.422 131.79 886.961 C 131.458 887.512 124.008 887.953 115.257 887.953 C 102.542 887.953 99.204 887.598 98.664 886.19 Z M 361.084 858.893 C 358.359 858.563 356.665 857.521 355.929 855.722 C 353.916 850.823 352.161 839.789 353.241 838.711 C 353.818 838.136 361.145 837.818 369.528 838.014 L 384.772 838.357 L 386.515 847.039 C 389.018 859.592 388.822 859.824 375.91 859.592 C 369.982 859.481 363.305 859.175 361.084 858.893 Z M 128.562 858.808 C 122.867 858.441 122.732 858.33 122.855 854.522 C 122.916 852.366 123.603 847.848 124.389 844.48 L 125.813 838.357 L 142.161 838.014 C 157.343 837.696 158.472 837.83 157.896 839.85 C 157.552 841.051 156.901 845.521 156.447 849.77 C 155.981 854.032 154.974 857.718 154.201 857.963 C 152.029 858.66 135.055 859.211 128.562 858.808 Z M 288.02 887.035 C 287.713 886.532 287.259 881.977 287.025 876.931 L 286.584 867.748 L 319.722 867.748 L 320.728 876.123 C 321.293 880.728 321.44 885.271 321.072 886.226 C 320.557 887.586 317.071 887.953 304.491 887.953 C 295.74 887.953 288.314 887.537 288.02 887.035 Z M 166.953 857.645 C 167.26 850.798 169.543 839.618 170.807 838.81 C 171.703 838.247 178.932 837.769 186.861 837.769 L 201.283 837.744 L 201.283 846.219 C 201.283 846.88 201.283 847.493 201.283 848.093 C 201.307 852.697 201.319 855.28 200.031 856.738 C 198.398 858.587 194.643 858.587 186.076 858.563 C 185.216 858.563 184.308 858.563 183.351 858.563 C 174.318 858.563 166.929 858.146 166.953 857.645 Z M 215.802 856.628 C 215.581 855.525 215.581 850.811 215.802 846.145 L 216.219 837.671 L 232.371 838.014 L 248.536 838.357 L 248.536 857.951 L 232.371 858.293 C 218.195 858.587 216.158 858.379 215.802 856.628 Z M 241.171 867.748 L 273.083 867.748 L 273.794 887.953 L 240.46 887.953 L 241.171 867.748 Z M 405.232 858.869 C 401.82 858.269 399.389 853.187 398.187 844.075 L 397.34 837.744 L 405.784 837.818 C 410.423 837.866 417.763 838.565 422.083 839.386 L 429.926 840.879 L 432.393 849.133 C 433.743 853.665 434.627 857.558 434.357 857.803 C 433.559 858.489 408.361 859.408 405.232 858.869 Z M 33.982 858.942 C 33.602 858.318 34.78 853.432 36.621 848.08 L 39.947 838.357 L 54.958 838.014 C 63.205 837.818 69.943 838.099 69.931 838.626 C 69.894 840.634 65.194 857.595 64.494 858.305 C 63.23 859.554 34.743 860.155 33.982 858.942 Z M 146.579 886.349 C 146.223 885.418 146.506 881.132 147.218 876.822 C 147.917 872.499 148.494 868.555 148.494 868.054 C 148.506 867.551 155.06 867.134 163.087 867.134 C 180.847 867.134 180.994 867.245 179.583 879.002 L 178.576 887.341 L 162.903 887.684 C 150.507 887.953 147.095 887.671 146.579 886.349 Z M 194.348 886.092 C 193.955 885.063 194.115 880.52 194.704 875.989 L 195.759 867.748 L 227.474 867.748 L 227.167 876.895 C 227.008 881.916 226.603 886.459 226.284 886.998 C 225.952 887.525 218.797 887.953 210.377 887.953 C 197.809 887.953 194.937 887.622 194.348 886.092 Z M 79.222 851.521 C 80.155 847.651 80.928 844.063 80.953 843.562 C 80.977 843.059 83.346 842.63 86.218 842.618 C 89.09 842.606 93.84 841.504 96.786 840.17 C 99.731 838.834 104.346 837.744 107.046 837.744 L 111.968 837.744 L 111.158 844.786 C 110.716 848.656 110.066 853.345 109.697 855.195 L 109.035 858.563 L 77.541 858.563 L 79.222 851.521 Z M 488.876 886.129 C 486.126 884.218 482.346 874.826 482.346 869.939 C 482.346 867.061 482.408 867.049 495.528 867.404 L 508.71 867.748 L 511.999 875.707 C 512.134 876.038 512.269 876.356 512.404 876.662 C 514.724 882.271 515.902 885.1 514.957 886.52 C 513.987 887.966 510.858 887.953 504.549 887.953 C 504.205 887.953 503.849 887.953 503.481 887.953 C 494.841 887.953 490.754 887.439 488.876 886.129 Z M 721.84 880.398 L 711.714 870.809 L 716.39 870.821 C 727.289 870.858 746.313 878.621 753.407 885.932 L 757.151 889.79 L 744.558 889.888 L 731.953 889.974 L 721.84 880.398 Z" style="stroke-width: 1; fill: rgb(114, 114, 113); stroke-miterlimit: 4.35;"/>
    <path d="M -75.21 984.712 C -78.301 979.055 -78.338 973.874 -75.308 969.708 L -72.947 966.456 L 263.814 966.106 C 597.932 965.768 600.615 965.779 604.596 968.488 C 610.693 972.654 609.555 980.32 601.975 986.111 L 597.956 989.182 L -72.76 989.182 L -75.21 984.712 Z" style="stroke-width: 1; fill: rgb(49, 51, 48);"/>
  </g>
  <path style="fill: rgb(66, 67, 63); stroke-width: 27px;" d="M 866.39 935.05 C 877.003 944.03 912.336 966.917 932.274 970.761 C 945.707 973.351 980.962 966.897 993.639 961.72 C 1004.14 957.43 981.151 986.306 965.547 989.193 C 954.237 991.285 933.374 992.074 917.304 986.097 C 899.098 979.325 878.109 959.979 878.109 959.979"/>
</svg>